<svg xmlns="http://www.w3.org/2000/svg" width="246" height="90.634" viewBox="0 0 246 90.634">
  <g id="Group_7788" data-name="Group 7788" transform="translate(-346.715 -359.762)">
    <path id="Path_8839" data-name="Path 8839" d="M352.475,384.134c-1.014,4.531-2.96,7.881-4.349,7.483s-1.691-4.39-.677-8.921,2.96-7.881,4.349-7.486S353.489,379.6,352.475,384.134Z" transform="translate(0.154 21.957)" fill="#d60606"/>
    <path id="Path_8840" data-name="Path 8840" d="M382.216,372.572a6.167,6.167,0,0,1-1.76,7.852h0a4.751,4.751,0,0,1-6.943-1.99l-2.592-4.921a6.168,6.168,0,0,1,1.762-7.852h0a4.749,4.749,0,0,1,6.941,1.99Z" transform="translate(26.868 7.253)" fill="#070000"/>
    <path id="Path_8841" data-name="Path 8841" d="M402.976,373.872a6.164,6.164,0,0,1-1.76,7.852h0a4.749,4.749,0,0,1-6.943-1.99l-2.592-4.921a6.168,6.168,0,0,1,1.762-7.852h0a4.749,4.749,0,0,1,6.941,1.99Z" transform="translate(50.61 9.104)" fill="#070000"/>
    <g id="Group_638" data-name="Group 638" transform="translate(346.715 359.762)">
      <g id="Group_627" data-name="Group 627">
        <path id="Path_8842" data-name="Path 8842" d="M590.31,433.937c-.812-.3-.7-2.94-.632-7,2.5,1.122,4.232-16.664,2.026-22.542-3.9-10.388-38.27-21.645-74.564-21.645-15.368-10.211-32.577-19.973-46.009-22.971-.746-.167-5.121,1.246,1.035,4.865,10.842,6.378,33.528,18.1,15.063,18.1-65.226,0-78.937-.305-80.555-3.966-6.744-12.2-27.97,2.625-37.762,6.809-12.527,5.35-20.332,7.675-18.652,15.11,1.336,5.9-.131,8.5-2.585,9.423-2.748,1.037.688,24.162,6.658,25.939a111.822,111.822,0,0,0,18.476,3.362c10.377,1.028,112.62.819,145.721-.315C546.092,438.153,603.95,438.975,590.31,433.937Z" transform="translate(-346.715 -359.762)" fill="#861e29"/>
        <g id="Group_624" data-name="Group 624" transform="translate(2.798 69.461)">
          <path id="Path_8843" data-name="Path 8843" d="M588.818,393.13c-.422-.155-.592-.955-.649-2.247-13.689,1.675-49.846,1.445-70.067,2.121-33.859,1.134-138.448,1.343-149.063.315a116.8,116.8,0,0,1-18.9-3.362,4.616,4.616,0,0,1-2.118-1.542c1.271,3.508,2.915,6.262,4.821,6.829a111.825,111.825,0,0,0,18.476,3.362c10.377,1.028,112.62.819,145.722-.315C544.6,397.346,602.458,398.167,588.818,393.13Z" transform="translate(-348.02 -388.415)" fill="#540c16"/>
        </g>
        <g id="Group_625" data-name="Group 625" transform="translate(242.917 47.079)">
          <path id="Path_8844" data-name="Path 8844" d="M460.082,386.464c-.066,4.063-.18,6.705.632,7.006a6.379,6.379,0,0,1,1.666.827,52.421,52.421,0,0,0,.328-15.115C462.185,383.579,461.216,386.973,460.082,386.464Z" transform="translate(-460.035 -379.182)" fill="#191919"/>
        </g>
        <g id="Group_626" data-name="Group 626" transform="translate(19.021 40.613)">
          <path id="Path_8845" data-name="Path 8845" d="M379.365,376.515c13.07,0,23.663,11.983,23.663,26.76,0,.836.148,6.439.3,13.105-19.627-.056-35.363-.3-40.671-.827-2.512-.25-4.872-.524-7.074-.839.049-5.709.116-10.38.116-11.44C355.7,388.5,366.3,376.515,379.365,376.515Z" transform="translate(-355.588 -376.515)" fill="#191919"/>
          <path id="Path_8846" data-name="Path 8846" d="M446.828,376.515c13.07,0,23.663,11.983,23.663,26.76,0,.742.051,5.789.187,11.437-12.549.429-26.86.095-39.438.526-2.229.077-4.993.153-8.2.228.049-6.048.122-11.086.122-12.191C423.166,388.5,433.76,376.515,446.828,376.515Z" transform="translate(-278.444 -376.515)" fill="#191919"/>
        </g>
      </g>
      <g id="Group_628" data-name="Group 628" transform="translate(167.466 44.978)">
        <ellipse id="Ellipse_16" data-name="Ellipse 16" cx="20.186" cy="22.827" rx="20.186" ry="22.827" fill="#070000"/>
        <path id="Path_8847" data-name="Path 8847" d="M431.845,402.615c4.189,4.737,3.623-3.583,7.811-8.32s11.543-4.1,7.357-8.834a9.875,9.875,0,0,0-15.168,0A13.278,13.278,0,0,0,431.845,402.615Z" transform="translate(-420.417 -373.196)" fill="#d60606"/>
        <path id="Path_8848" data-name="Path 8848" d="M426.981,398.091c0,9.738,6.98,17.633,15.591,17.633s15.593-7.9,15.593-17.633-6.98-17.633-15.593-17.633S426.981,388.353,426.981,398.091Zm2.862,5.348,1.974-.356-1.623,1.333C430.066,404.1,429.952,403.771,429.843,403.439Zm-.615-2.468a16.856,16.856,0,0,1-.009-5.694l6.628,1.2,2.017,1.653-2.017,1.653Zm25.636,3.648-1.873-1.537,2.294.415Q455.094,404.072,454.863,404.62Zm-5.9-4.841-2.017-1.653,2.017-1.656,6.958-1.253a16.972,16.972,0,0,1-.009,5.813Zm6.343-7.03-2.311.417,1.893-1.554C455.039,391.982,455.176,392.363,455.3,392.749Zm-25.13-.931,1.644,1.348-1.994-.359C429.931,392.472,430.044,392.14,430.173,391.818Zm4.634-6.332,3.994,6.228.392,2.78-2.459-.441-5.47-4.485A14.717,14.717,0,0,1,434.807,385.486Zm1.964-1.28c.3-.158.6-.308.911-.444l.337,2.39Zm5.8-1.486a12.11,12.11,0,0,1,2.384.252l-1.089,7.74-1.462,2.279-1.464-2.281-1.082-7.682A12.137,12.137,0,0,1,442.572,382.72Zm4.572.912c.332.133.66.276.98.439l-1.335,2.082Zm6.624,5.753-5.693,4.667-2.461.444.392-2.78,4.107-6.407A14.623,14.623,0,0,1,453.768,389.384ZM450.085,410.9l-4.079-6.361-.392-2.783,2.461.444,5.663,4.645A14.625,14.625,0,0,1,450.085,410.9Zm-1.993,1.231c-.311.158-.632.3-.956.427l-.347-2.461Zm-5.52,1.333a12.033,12.033,0,0,1-2.7-.308l1.072-7.617,1.464-2.281,1.462,2.281,1.08,7.675A12.205,12.205,0,0,1,442.572,413.463Zm-4.881-1.04q-.453-.2-.887-.429l1.216-1.9Zm-6.4-5.76,5.445-4.465,2.459-.444-.392,2.783-3.966,6.184A14.764,14.764,0,0,1,431.29,406.663Z" transform="translate(-422.387 -375.264)" fill="#f9eff0"/>
        <path id="Path_8849" data-name="Path 8849" d="M436.443,406.888l-1.7-.8,2.326-3.624Zm6.84,0-.624-4.422,2.326,3.624Zm-5.687-5.867.607-4.315-3.811.686,3.125-2.562-3.125-2.565,3.811.688-.607-4.315,2.268,3.537,2.266-3.535-.609,4.31,3.818-.686-3.13,2.565,3.128,2.562-3.816-.686.609,4.313-2.266-3.534Zm-7.691-.4-.7-1.925,3.91-.7Zm19.917,0-3.2-2.628,3.908.7Zm-3.2-8.955,3.2-2.63.705,1.925Zm-13.507,0-3.908-.705.7-1.922Zm3.957-4.473-2.326-3.626,1.7-.8Zm5.593,0,.624-4.422,1.7.8Z" transform="translate(-419.847 -371.968)" fill="#999"/>
        <path id="Path_8850" data-name="Path 8850" d="M444.611,381.04c-10.369,0-18.812,9.2-19.359,20.773-.019-.4-.054-.783-.054-1.183,0-12.126,8.692-21.953,19.413-21.953s19.413,9.828,19.413,21.953c0,.4-.032.788-.051,1.183C463.425,390.242,454.979,381.04,444.611,381.04Z" transform="translate(-424.426 -377.802)" fill="#262626"/>
        <path id="Path_8851" data-name="Path 8851" d="M442.635,404.916c8.39,0,15.224-7.445,15.666-16.809.015.32.043.635.043.958,0,9.811-7.033,17.764-15.708,17.764s-15.709-7.954-15.709-17.764c0-.322.028-.637.043-.958C427.41,397.472,434.244,404.916,442.635,404.916Z" transform="translate(-422.45 -364.37)" fill="#262626"/>
      </g>
      <g id="Group_629" data-name="Group 629" transform="translate(21.745 44.977)">
        <path id="Path_8852" data-name="Path 8852" d="M356.859,401.143c0,12.608,9.038,22.828,20.186,22.828s20.184-10.22,20.184-22.828-9.037-22.828-20.184-22.828S356.859,388.535,356.859,401.143Z" transform="translate(-356.859 -378.315)" fill="#070000"/>
        <path id="Path_8853" data-name="Path 8853" d="M363.865,402.615c4.189,4.737,3.623-3.583,7.811-8.32s11.546-4.1,7.357-8.834a9.875,9.875,0,0,0-15.168,0A13.284,13.284,0,0,0,363.865,402.615Z" transform="translate(-352.438 -373.195)" fill="#d60606"/>
        <path id="Path_8854" data-name="Path 8854" d="M359,398.091c0,9.738,6.982,17.633,15.593,17.633s15.593-7.9,15.593-17.633-6.982-17.633-15.593-17.633S359,388.353,359,398.091Zm2.862,5.348,1.976-.356-1.625,1.333C362.089,404.1,361.973,403.771,361.864,403.439Zm-.615-2.468a16.856,16.856,0,0,1-.009-5.694l6.63,1.2,2.017,1.653-2.017,1.653Zm25.638,3.648-1.874-1.537,2.292.415Q387.114,404.072,386.886,404.62Zm-5.906-4.841-2.015-1.653,2.017-1.656,6.958-1.253a17.115,17.115,0,0,1-.009,5.813Zm6.345-7.03-2.313.417,1.9-1.554C387.06,391.982,387.2,392.363,387.326,392.749Zm-25.132-.931,1.644,1.348-1.994-.359C361.954,392.472,362.065,392.14,362.194,391.818Zm4.637-6.332,3.994,6.228.392,2.78-2.461-.441-5.468-4.485A14.682,14.682,0,0,1,366.83,385.486Zm1.961-1.28c.3-.158.6-.308.911-.444l.337,2.39Zm5.8-1.486a12.126,12.126,0,0,1,2.384.252l-1.091,7.74-1.462,2.279-1.462-2.281-1.083-7.682A12.109,12.109,0,0,1,374.595,382.72Zm4.57.912c.332.133.66.276.982.439l-1.335,2.082Zm6.624,5.753L380.1,394.05l-2.461.444.392-2.78,4.109-6.407A14.614,14.614,0,0,1,385.789,389.384ZM382.106,410.9l-4.079-6.361-.392-2.783,2.461.444,5.666,4.645A14.633,14.633,0,0,1,382.106,410.9Zm-1.991,1.231c-.313.158-.632.3-.958.427l-.345-2.461Zm-5.52,1.333a12.052,12.052,0,0,1-2.705-.308l1.074-7.617,1.462-2.281,1.462,2.281,1.083,7.675A12.241,12.241,0,0,1,374.595,413.463Zm-4.883-1.04q-.45-.2-.887-.429l1.215-1.9Zm-6.4-5.76,5.445-4.465,2.461-.444-.392,2.783-3.966,6.184A14.736,14.736,0,0,1,363.311,406.663Z" transform="translate(-354.408 -375.263)" fill="#f9eff0"/>
        <path id="Path_8855" data-name="Path 8855" d="M368.464,406.888l-1.7-.8,2.324-3.624Zm6.84,0-.622-4.422,2.326,3.624Zm-5.685-5.867.6-4.315-3.809.686,3.123-2.562-3.125-2.565,3.811.688-.6-4.315,2.266,3.537,2.266-3.535-.607,4.31,3.816-.686-3.13,2.565,3.128,2.562-3.813-.686.607,4.313-2.266-3.534Zm-7.694-.4-.7-1.925,3.91-.7Zm19.919,0-3.207-2.628,3.91.7Zm-3.207-8.955,3.207-2.63.7,1.925Zm-13.5,0-3.91-.705.7-1.922Zm3.955-4.473-2.324-3.626,1.7-.8Zm5.595,0,.624-4.422,1.7.8Z" transform="translate(-351.868 -371.967)" fill="#999"/>
        <path id="Path_8856" data-name="Path 8856" d="M376.633,381.04c-10.369,0-18.815,9.2-19.361,20.773-.017-.4-.051-.783-.051-1.183,0-12.126,8.69-21.953,19.413-21.953s19.413,9.828,19.413,21.953c0,.4-.034.788-.054,1.183C395.445,390.242,387,381.04,376.633,381.04Z" transform="translate(-356.446 -377.801)" fill="#262626"/>
        <path id="Path_8857" data-name="Path 8857" d="M374.657,404.916c8.39,0,15.224-7.445,15.666-16.809.015.32.043.635.043.958,0,9.811-7.033,17.764-15.708,17.764s-15.709-7.954-15.709-17.764c0-.322.028-.637.043-.958C359.433,397.472,366.266,404.916,374.657,404.916Z" transform="translate(-354.47 -364.369)" fill="#262626"/>
      </g>
      <path id="Path_8858" data-name="Path 8858" d="M453.378,391.859l3.1-5.942a3.56,3.56,0,0,1,2.412-1.944l7.85.07c1.273,0,2.461,7.816,1.267,7.816Z" transform="translate(-224.732 -325.28)" fill="#2b2b2b"/>
      <path id="Path_8859" data-name="Path 8859" d="M448.468,394.563l4.152-4.827a3.088,3.088,0,0,1,2.5-1.532l17.19-.638c1.273,0,1.318,6.288.124,6.288Z" transform="translate(-230.347 -320.162)" fill="#2b2b2b"/>
      <path id="Path_8860" data-name="Path 8860" d="M404.853,359.82c16.3,4.2,32.422,13.813,46.077,22.848l-5.8-.092C426.623,367.09,403.058,361.277,404.853,359.82Z" transform="translate(-280.338 -359.678)" fill="#80c2dc"/>
      <g id="Group_630" data-name="Group 630" transform="translate(77.699 22.512)">
        <path id="Path_8861" data-name="Path 8861" d="M407.657,422.566h51.048c5.432,0,5.481-7.91,5.552-18.86.019-2.88.039-5.857.154-8.994.562-15.272.542-18.024-3.481-25.665l-.238.16c3.981,7.563,4,10.3,3.441,25.49-.116,3.142-.135,6.123-.152,9.006-.071,10.768-.12,18.55-5.276,18.55H407.657c-5.886,0-11.37-5.137-16.3-15.27a110.278,110.278,0,0,1-7.374-21.357c-1.241-5.338-.93-9.42.92-12.138,1.672-2.448,4.619-3.745,8.525-3.745v-.315c-4,0-7.02,1.338-8.744,3.869-1.908,2.8-2.236,6.974-.971,12.409a110.561,110.561,0,0,0,7.4,21.43C396.095,417.376,401.662,422.566,407.657,422.566Z" transform="translate(-382.961 -369.048)" fill="#231f20"/>
      </g>
      <g id="Group_631" data-name="Group 631" transform="translate(22.87 26.199)" opacity="0.5">
        <path id="Path_8862" data-name="Path 8862" d="M538.28,376.264c-69.886.029-109.805-1.28-157.323,5.3-7.976-5.071-23.573-3.045-23.573-3.045C450.484,362.06,538.28,376.264,538.28,376.264Z" transform="translate(-357.384 -370.569)" fill="#fff"/>
      </g>
      <g id="Group_632" data-name="Group 632" transform="translate(163.661 35.527)" opacity="0.5">
        <path id="Path_8863" data-name="Path 8863" d="M444.26,374.488c10.178-.8,30.189,4.916,36.753,27.74l-10.264-2.259c-6.757-20.467-18.594-21.287-26.135-20.7-11.869.931-19.962,11.912-21.492,22.841C422.191,388.5,432.391,375.416,444.26,374.488Z" transform="translate(-423.062 -374.417)" fill="#fff"/>
      </g>
      <g id="Group_633" data-name="Group 633" transform="translate(61.47 44.596)" opacity="0.5">
        <path id="Path_8864" data-name="Path 8864" d="M476.1,397.714,375.39,378.158l24.388,8.909Z" transform="translate(-375.39 -378.158)" fill="#fff"/>
      </g>
      <g id="Group_634" data-name="Group 634" transform="translate(211.254 62.757)" opacity="0.5">
        <path id="Path_8865" data-name="Path 8865" d="M461.225,389.217l-15.961-3.568.518,5.274Z" transform="translate(-445.265 -385.649)" fill="#fff"/>
      </g>
      <g id="Group_635" data-name="Group 635" transform="translate(211.244 74.177)" opacity="0.5">
        <path id="Path_8866" data-name="Path 8866" d="M477.611,390.36l-32.351.963,8.176,2.309,25.92-2.394Z" transform="translate(-445.26 -390.36)" fill="#fff"/>
      </g>
      <ellipse id="Ellipse_17" data-name="Ellipse 17" cx="7.325" cy="1.67" rx="7.325" ry="1.67" transform="translate(79.208 32.933)" fill="#231f20"/>
      <path id="Path_8867" data-name="Path 8867" d="M384.075,374.542c0,.613,2.887,1.11,6.446,1.11s6.446-.5,6.446-1.11-2.885-1.113-6.446-1.113S384.075,373.928,384.075,374.542Z" transform="translate(-303.989 -340.297)" fill="#540c16"/>
      <g id="Group_637" data-name="Group 637" transform="translate(145.392 17.254)">
        <path id="Path_8868" data-name="Path 8868" d="M428.336,374.806c-.568,3.268-6.647,4.669-9.522,4.027s-4.742-3.808-4.172-7.079,3.361-5.4,6.234-4.761S428.906,371.535,428.336,374.806Z" transform="translate(-414.54 -366.879)" fill="#200000"/>
        <g id="Group_636" data-name="Group 636" transform="translate(1.719 0.469)" opacity="0.5">
          <path id="Path_8869" data-name="Path 8869" d="M415.342,369.36a4.772,4.772,0,0,0,3.368,3.178,9.869,9.869,0,0,0,6.866-1.5,11.054,11.054,0,0,0-5.546-3.871A4.38,4.38,0,0,0,415.342,369.36Z" transform="translate(-415.342 -367.072)" fill="#fff"/>
        </g>
      </g>
    </g>
    <g id="Group_639" data-name="Group 639" transform="translate(346.727 359.762)" opacity="0.5">
      <path id="Path_8870" data-name="Path 8870" d="M405.174,363.425a2.332,2.332,0,0,1,1.618-.611c12.135,2.572,24.161,11.483,39.061,20.836,55.025,5.8,71.149,14.926,77.141,25.318,1.661,2.88,1.957,10.2,3.5,14.412.682-4.366,1.766-12.55-.12-18.8-2.945-9.762-36.144-21.541-74.44-21.835-15.368-10.211-32.577-19.973-46.009-22.971C405.272,359.629,401.817,360.7,405.174,363.425Z" transform="translate(-281.524 -359.762)" fill="#fff"/>
      <path id="Path_8871" data-name="Path 8871" d="M348.79,404.4c2.725-1.033,4.787-3.83,4.7-10.024-.111-7.609,8.081-10.024,21.3-15.435,10.111-4.138,19.421-10.506,31.88-5.21,10.774,3.7,19.451,2.012,80.744,1.493,4.714-.041,6.489-.882,6.392-2.2-.8.824-2.83,1.314-6.581,1.314-65.226,0-78.937-.305-80.555-3.966-6.744-12.2-27.97,2.625-37.762,6.809-12.527,5.353-20.332,7.675-18.652,15.11,1.336,5.9-.131,8.5-2.585,9.423-.941.356-1.142,3.321-.778,7.115C347.4,406.379,348.061,404.675,348.79,404.4Z" transform="translate(-346.72 -351.367)" fill="#fff"/>
    </g>
    <path id="Path_8872" data-name="Path 8872" d="M471.161,384.275c1.417,2.373.808,4.378-1.419,4.378h-12.78c-2.227,0-4.755-2-5.61-4.378l-.864-2.4c-.78-2.167.24-3.857,2.249-3.857h11.046c2.011,0,4.65,1.69,5.946,3.857Z" transform="translate(118.377 26.005)" fill="#540c16"/>
    <path id="Path_8873" data-name="Path 8873" d="M456.207,387.272a5.815,5.815,0,0,1-4.808-3.77l-.864-2.4a2.184,2.184,0,0,1,0-1.837,1.6,1.6,0,0,1,1.451-.676h11.046c1.753,0,4.1,1.537,5.228,3.43l1.432,2.4a2.726,2.726,0,0,1,.521,2.308c-.225.475-.862.546-1.222.546Z" transform="translate(118.502 26.816)" fill="#fff"/>
    <path id="Path_8874" data-name="Path 8874" d="M457.958,390.27c.825-1.117.692-2.024-.3-2.024h-3.305a4.941,4.941,0,0,0-3.284,2.024h0c-.825,1.118-.692,2.024.3,2.024h3.308a4.937,4.937,0,0,0,3.282-2.024Z" transform="translate(118.727 40.567)" fill="#fff"/>
    <path id="Path_8875" data-name="Path 8875" d="M470.29,386.339a3.484,3.484,0,0,0-.609-1.92l-1.432-2.4c-1.13-1.893-3.475-3.43-5.228-3.43H451.975a1.6,1.6,0,0,0-1.451.676,2.1,2.1,0,0,0-.039,1.634C457.836,379.941,465.454,380.365,470.29,386.339Z" transform="translate(118.511 26.816)" fill="#defcff"/>
    <path id="Path_8876" data-name="Path 8876" d="M451.181,381.186a5.527,5.527,0,0,0,4.058,2.39H463.2A58.137,58.137,0,0,0,451.181,381.186Z" transform="translate(119.47 30.512)" fill="#defcff"/>
  </g>
</svg>
