<svg id="Group_655" data-name="Group 655" xmlns="http://www.w3.org/2000/svg" width="66.081" height="66.082" viewBox="0 0 66.081 66.082">
  <circle id="Ellipse_25" data-name="Ellipse 25" cx="33.041" cy="33.041" r="33.041" transform="translate(0 0.001)" fill="#26779b"/>
  <path id="Path_8902" data-name="Path 8902" d="M263.323,250.771a8.878,8.878,0,1,1,2.461-6.151v2.641a2.641,2.641,0,1,0,5.283,0V244.62a14.2,14.2,0,1,0-8.756,13.1A1.78,1.78,0,0,1,263.9,260.9a1.848,1.848,0,0,1-.254.109,17.72,17.72,0,1,1,9.587-23.154,16.249,16.249,0,0,1,1.447,6.765v2.641a6.222,6.222,0,0,1-11.36,3.51Zm-6.367-.833a5.318,5.318,0,1,0-5.318-5.318A5.326,5.326,0,0,0,256.956,249.938Z" transform="translate(-223.875 -211.605)" fill="#fff"/>
  <path id="Path_8903" data-name="Path 8903" d="M263.9,218.612a33.034,33.034,0,0,0-23.244,56.512l46.715-46.717A32.928,32.928,0,0,0,263.9,218.612Z" transform="translate(-230.862 -218.612)" fill="#26779b" opacity="0.2" style="mix-blend-mode: multiply;isolation: isolate"/>
</svg>
