<svg id="Group_657" data-name="Group 657" xmlns="http://www.w3.org/2000/svg" width="93.453" height="93.453" viewBox="0 0 93.453 93.453">
  <circle id="Ellipse_27" data-name="Ellipse 27" cx="33.041" cy="33.041" r="33.041" transform="translate(0 46.726) rotate(-45)" fill="#26779b"/>
  <path id="Path_8906" data-name="Path 8906" d="M255.987,318.659a15.616,15.616,0,0,0-15.629,15.631c0,8.459,6.986,19.86,13.056,27.95a3.1,3.1,0,0,0,4.964,0c6.068-8.09,13.056-19.491,13.056-27.95A15.58,15.58,0,0,0,255.987,318.659ZM255.9,343.8a9.235,9.235,0,1,1,9.235-9.235A9.234,9.234,0,0,1,255.9,343.8Z" transform="translate(-209.169 -294.344)" fill="#fff"/>
  <path id="Path_8907" data-name="Path 8907" d="M263.9,312.893a33.017,33.017,0,0,0-23.742,55.985l46.687-46.687A32.9,32.9,0,0,0,263.9,312.893Z" transform="translate(-217.177 -299.206)" fill="#26779b" opacity="0.2" style="mix-blend-mode: multiply;isolation: isolate"/>
</svg>
