<svg xmlns="http://www.w3.org/2000/svg" xmlns:xlink="http://www.w3.org/1999/xlink" width="1570.369" height="362.46" viewBox="0 0 1570.369 362.46">
  <defs>
    <linearGradient id="linear-gradient" x1="0.177" y1="0.723" x2="2.801" y2="-0.424" gradientUnits="objectBoundingBox">
      <stop offset="0" stop-color="#fe5a00"/>
      <stop offset="0.118" stop-color="#fe7000"/>
      <stop offset="0.325" stop-color="#fe9000"/>
      <stop offset="0.499" stop-color="#fea400"/>
      <stop offset="0.617" stop-color="#feab00"/>
      <stop offset="0.714" stop-color="#feae00"/>
      <stop offset="1" stop-color="#feb400"/>
    </linearGradient>
    <linearGradient id="linear-gradient-2" x1="0.337" y1="0.49" x2="2.962" y2="-0.658" gradientUnits="objectBoundingBox">
      <stop offset="0" stop-color="#0d6aa7"/>
      <stop offset="1" stop-color="#5bd0ec"/>
    </linearGradient>
  </defs>
  <g id="hany" transform="translate(-5.586 -15.447)">
    <g id="logo_1_" transform="translate(5.586 15.447)">
      <path id="blue" d="M72.5,241.636a184.864,184.864,0,0,1,108.452,1.356c35.7,11.3,62.36,33.893,88.569,58.748,29.372,28.015,59.649,55.13,98.962,67.783,32.988,10.843,70.042,10.393,103.03,1.808,69.59-18.075,122.912-74.109,132.854-145.958,9.941-70.947-19.883-145.958-82.243-183.917C452.084-1.476,357.64,10.275,298.443,65.4c-31.632,29.372,15.816,76.82,47.448,47.448,37.958-35.247,98.962-40.218,142.8-13.556,42.477,25.759,59.649,82.695,47.448,129.691-13.1,49.255-60.1,80.435-110.26,81.79C359,312.131,321.941,253.386,273.59,216.784c-61.908-47-144.6-60.552-218.712-39.765C13.3,188.768,30.929,253.387,72.5,241.636Z" transform="translate(84.372 -15.447)" fill="url(#linear-gradient)"/>
      <path id="yellow" d="M539.331,151.857A184.864,184.864,0,0,1,430.878,150.5c-35.7-11.3-62.361-33.892-88.569-58.745-29.371-28.017-59.649-55.13-98.962-67.783-32.987-10.843-69.59-10.843-103.03-2.259C70.727,39.788,17.4,96.276,7.465,167.673c-9.943,70.946,19.881,145.959,82.241,183.918,70.042,42.931,164.486,31.18,223.683-23.95,31.632-29.372-15.816-76.82-47.448-47.448-37.958,35.247-98.962,40.218-142.8,13.556C80.669,267.992,63.5,211.054,75.7,164.058c13.1-49.255,60.1-80.435,110.26-81.339,66.877-1.356,103.933,57.389,152.285,93.992,61.908,47,144.6,60.552,218.712,39.766,41.573-12.2,23.95-76.368-17.623-64.617Z" transform="translate(-5.586 -15.14)" fill="url(#linear-gradient-2)"/>
    </g>
    <g id="Group_207" data-name="Group 207" transform="translate(724.603 17.503)">
      <g id="Group_204" data-name="Group 204" transform="translate(0 4.519)">
        <path id="Path_422" data-name="Path 422" d="M259.6,16.9,349.52,270.859,438.993,16.9h94.9V367.11h-72.3v-95.8l7.23-165.39L373.922,367.11H324.215L229.771,106.373,237,271.311v95.8H164.7V16.9Z" transform="translate(-164.7 -16.9)" fill="#075da0"/>
      </g>
      <g id="Group_205" data-name="Group 205" transform="translate(436.52 4.519)">
        <path id="Path_423" data-name="Path 423" d="M333.6,367.11H261.3V16.9h72.3Z" transform="translate(-261.3 -16.9)" fill="#075da0"/>
      </g>
      <g id="Group_206" data-name="Group 206" transform="translate(565.307)">
        <path id="Path_424" data-name="Path 424" d="M574.938,254.043c-2.711,37.507-16.72,67.331-41.573,89.021-25.306,21.69-58.293,32.536-99.414,32.536-44.737,0-79.983-14.912-105.74-45.188s-38.41-71.85-38.41-124.269V184.9c0-33.892,5.874-63.264,17.623-89.021s28.92-45.188,51.063-59.2C380.628,23.13,405.935,15.9,435.306,15.9q60.324,0,97.607,32.536c24.854,21.69,38.862,51.967,42.931,91.28h-72.3c-1.807-22.594-8.134-38.862-18.979-49.255S457.449,75.1,435.306,75.1c-23.95,0-42.025,8.586-53.774,25.759s-18.075,43.833-18.527,80.435v26.661c0,37.958,5.874,65.523,17.173,83.146s29.373,26.21,54.226,26.21c22.142,0,38.862-4.971,49.707-15.364s17.173-25.759,18.98-47.448H574.94Z" transform="translate(-289.8 -15.9)" fill="#075da0"/>
      </g>
    </g>
  </g>
</svg>
