<svg xmlns="http://www.w3.org/2000/svg" width="293.688" height="101.706" viewBox="0 0 293.688 101.706">
  <g id="Group_7792" data-name="Group 7792" transform="translate(-161.605 -148.773)">
    <rect id="Rectangle_9" data-name="Rectangle 9" width="0.598" height="9.511" transform="translate(356.031 153.898)" fill="#b5cde8"/>
    <rect id="Rectangle_10" data-name="Rectangle 10" width="0.598" height="9.511" transform="translate(359.218 153.898)" fill="#b5cde8"/>
    <rect id="Rectangle_11" data-name="Rectangle 11" width="5.677" height="1.646" transform="translate(355.035 152.801)" fill="#b5cde8"/>
    <path id="Path_8754" data-name="Path 8754" d="M526.477,148.773h8.616c1.05,0,2,1.142,2.422,2.909l3.074,12.9,24.106,4.052a4.058,4.058,0,0,1,2.476,1.7l3.372,4.459,4.539-.034c.855-.006,1.6,1.072,1.794,2.6l.3,2.375-59.729.988,6.469-28.806C524.346,150.014,525.356,148.773,526.477,148.773Z" transform="translate(-293.718 0)" fill="#dae9f1"/>
    <path id="Path_8755" data-name="Path 8755" d="M1180.057,212.765v-9.881h.9v10.211Z" transform="translate(-839.917 -36.654)" fill="#dae9f1"/>
    <rect id="Rectangle_12" data-name="Rectangle 12" width="0.64" height="9.058" transform="translate(320.928 167.566)" fill="#b5cde8"/>
    <rect id="Rectangle_13" data-name="Rectangle 13" width="0.64" height="9.058" transform="translate(324.734 167.294)" fill="#b5cde8"/>
    <rect id="Rectangle_14" data-name="Rectangle 14" width="5.112" height="2.306" transform="translate(320.589 166.065)" fill="#b5cde8"/>
    <path id="Path_8756" data-name="Path 8756" d="M1060.6,169.8c0-4,1.767-7.246,3.946-7.246s3.946,3.244,3.946,7.246-1.767,7.246-3.946,7.246S1060.6,173.8,1060.6,169.8Z" transform="translate(-741.449 -9.336)" fill="#b5cde8"/>
    <path id="Path_8757" data-name="Path 8757" d="M1071.56,162.556a3.081,3.081,0,0,0-2.41,1.546c-.014.254-.042.5-.042.761,0,4,1.767,7.246,3.946,7.246a3.081,3.081,0,0,0,2.41-1.546c.014-.254.042-.5.042-.761C1075.506,165.8,1073.739,162.556,1071.56,162.556Z" transform="translate(-748.46 -9.336)" fill="#dae9f1"/>
    <path id="Path_8759" data-name="Path 8759" d="M253.02,256.875v-3.953h15.067v-5.6h-1.973v-2.306H359.2l1.255.988v14.822l-76.589-.659v-3.294Z" transform="translate(-75.744 -65.194)" fill="#b5cde8"/>
    <path id="Path_8760" data-name="Path 8760" d="M1234.623,192.337c-.9-1.646-2.49-4.756-3.7-4.635h-.949l-4.817.063-7.894.224c-.852,0-1.646.8-2.1,2.121l-3.051,8.812,25.3-1.463Z" transform="translate(-866.341 -26.367)" fill="#7aa4c1"/>
    <path id="Path_8761" data-name="Path 8761" d="M1298.489,187.709h0Z" transform="translate(-937.543 -26.375)" fill="#dae9f1"/>
    <path id="Path_8762" data-name="Path 8762" d="M237.34,296.253l3.851-6.588h29.754v6.588Z" transform="translate(-62.819 -95.438)" fill="#96b9d6"/>
    <path id="Path_8763" data-name="Path 8763" d="M456.161,257.256l.022-3.188s3.831-.978,4.433-2.635c1-2.739-7.248-2-7.248-2s.074-3.273-1.361-5.249l.717-4.611s-.669-2.4-2.145-2.577c-3.088-.366-12.921-.058-12.921-.058l1.435-8.564H441.6l-8.968-11.2H419L366.091,220.8l-.538,4.941-10.3-.315a.959.959,0,0,0-.8.557l-.717,1.2-18.492-.124-3.386,14.76-24.056-.6H258.651v-3.294H227.8l-5.531,9.5,33.4-.334,79.445-5.214.129-2.863h52.913l8.934,16.43h33.561Z" transform="translate(-50.395 -46.336)" fill="#b5cde8"/>
    <path id="Path_8764" data-name="Path 8764" d="M163.819,366.238c.066.619.143,1.289.225,1.976H456.43l1.076-1.976Z" transform="translate(-2.214 -147.307)" fill="#0b5989"/>
    <path id="Path_8765" data-name="Path 8765" d="M411.27,295.924v12.231a15.012,15.012,0,0,0,.7,4.732,3.545,3.545,0,0,0,.849,1.564c.9.659,57.57,0,57.57,0a6.1,6.1,0,0,0,1.327-4.034v-8.564h16.322s2.152.659,2.87-2.305,0-8.564,0-8.564l-76.589-1.318v5.27Z" transform="translate(-206.192 -95.438)" fill="#7aa4c1"/>
    <path id="Path_8766" data-name="Path 8766" d="M1173,288.325s38.621,1.115,51.194.456c3.04-.159,10.44-1.19,12.234-2.178l-.717,4.611s-.162,4.152-12.5,3.953h-46.4Z" transform="translate(-834.102 -93.364)" fill="#7aa4c1"/>
    <path id="Path_8767" data-name="Path 8767" d="M1399.206,332.929s6.124-.366,15.837-.366a113.275,113.275,0,0,0,11.31-1.038l-.055,6.891s-5.684.685-7.658-.633a14.749,14.749,0,0,1-1.626-1.274,7.538,7.538,0,0,0-4.373-1.865C1405.68,333.843,1399.206,332.929,1399.206,332.929Z" transform="translate(-1020.565 -123.793)" fill="#7aa4c1"/>
    <path id="Rectangle_15" data-name="Rectangle 15" d="M1.7,0h0a1.7,1.7,0,0,1,1.7,1.7V5.214a1.7,1.7,0,0,1-1.7,1.7h0A1.7,1.7,0,0,1,0,5.213V1.7A1.7,1.7,0,0,1,1.7,0Z" transform="translate(344.445 183.029)" fill="#145b8e"/>
    <rect id="Rectangle_16" data-name="Rectangle 16" width="5.022" height="6.917" rx="2.511" transform="translate(350.005 183.029)" fill="#145b8e"/>
    <path id="Rectangle_17" data-name="Rectangle 17" d="M2.511,0h0A2.511,2.511,0,0,1,5.022,2.511v1.9A2.511,2.511,0,0,1,2.511,6.917h0A2.511,2.511,0,0,1,0,4.406V2.511A2.511,2.511,0,0,1,2.511,0Z" transform="translate(357 183.029)" fill="#145b8e"/>
    <rect id="Rectangle_18" data-name="Rectangle 18" width="5.022" height="6.917" rx="2.259" transform="translate(364.175 183.029)" fill="#145b8e"/>
    <path id="Path_8768" data-name="Path 8768" d="M1363.224,251.2l-1.435,7.905h3.587l1.435-8.235Z" transform="translate(-989.722 -69.158)" fill="#4d80a9"/>
    <path id="Path_8769" data-name="Path 8769" d="M1394.85,249.134l-1.412,8.794,3.049-.329,1.435-8.4Z" transform="translate(-1015.811 -67.983)" fill="#4d80a9"/>
    <path id="Path_8770" data-name="Path 8770" d="M1418.356,247.1l-1.435,8.564,2.152-.659,1.569-8.729Z" transform="translate(-1035.168 -66.046)" fill="#4d80a9"/>
    <path id="Path_8771" data-name="Path 8771" d="M1435.533,248.984l-1.255,7.576,1.255-.659,1.3-7.329Z" transform="translate(-1049.475 -67.602)" fill="#4d80a9"/>
    <path id="Rectangle_19" data-name="Rectangle 19" d="M2.152,0h0A2.152,2.152,0,0,1,4.3,2.152v1.3A2.152,2.152,0,0,1,2.153,5.6h0A2.152,2.152,0,0,1,0,3.447V2.152A2.152,2.152,0,0,1,2.152,0Z" transform="translate(169.384 208.721)" fill="#145b8e"/>
    <path id="Rectangle_20" data-name="Rectangle 20" d="M2.152,0h0A2.153,2.153,0,0,1,4.3,2.153V3.447A2.152,2.152,0,0,1,2.153,5.6h0A2.153,2.153,0,0,1,0,3.447V2.152A2.152,2.152,0,0,1,2.152,0Z" transform="translate(174.765 208.721)" fill="#145b8e"/>
    <path id="Rectangle_21" data-name="Rectangle 21" d="M2.153,0h0A2.152,2.152,0,0,1,4.3,2.152v1.3A2.152,2.152,0,0,1,2.153,5.6h0A2.153,2.153,0,0,1,0,3.447V2.153A2.153,2.153,0,0,1,2.153,0Z" transform="translate(180.146 208.721)" fill="#145b8e"/>
    <rect id="Rectangle_22" data-name="Rectangle 22" width="4.305" height="5.599" rx="2.152" transform="translate(185.527 208.721)" fill="#145b8e"/>
    <rect id="Rectangle_23" data-name="Rectangle 23" width="4.305" height="5.599" rx="2.152" transform="translate(190.908 208.721)" fill="#145b8e"/>
    <path id="Rectangle_24" data-name="Rectangle 24" d="M2.152,0h0A2.152,2.152,0,0,1,4.3,2.152v1.3A2.152,2.152,0,0,1,2.153,5.6h0A2.153,2.153,0,0,1,0,3.447V2.152A2.152,2.152,0,0,1,2.152,0Z" transform="translate(196.289 208.721)" fill="#145b8e"/>
    <path id="Path_8772" data-name="Path 8772" d="M208.894,337.9v-3.313h-.348c-.248,0-.449.369-.449.824v3.953c0,.455.2.823.449.823h3.408c.248,0,.449-.368.449-.823v-.64h-3.06C209.095,338.724,208.894,338.356,208.894,337.9Z" transform="translate(-38.713 -125.868)" fill="#256d99"/>
    <path id="Path_8773" data-name="Path 8773" d="M239.523,337.9v-3.313h-.349c-.248,0-.448.369-.448.824v3.953c0,.455.2.823.448.823h3.408c.248,0,.449-.368.449-.823v-.64h-3.059C239.724,338.724,239.523,338.356,239.523,337.9Z" transform="translate(-63.961 -125.868)" fill="#256d99"/>
    <path id="Path_8774" data-name="Path 8774" d="M270.152,337.9v-3.313H269.8c-.248,0-.448.369-.448.824v3.953c0,.455.2.823.448.823h3.408c.248,0,.448-.368.448-.823v-.64H270.6C270.353,338.724,270.152,338.356,270.152,337.9Z" transform="translate(-89.209 -125.868)" fill="#256d99"/>
    <path id="Path_8775" data-name="Path 8775" d="M300.781,337.9v-3.313h-.348c-.248,0-.449.369-.449.824v3.953c0,.455.2.823.449.823h3.408c.248,0,.448-.368.448-.823v-.64h-3.06C300.982,338.724,300.781,338.356,300.781,337.9Z" transform="translate(-114.457 -125.868)" fill="#256d99"/>
    <path id="Path_8776" data-name="Path 8776" d="M331.41,337.9v-3.313h-.348c-.248,0-.448.369-.448.824v3.953c0,.455.2.823.448.823h3.408c.248,0,.448-.368.448-.823v-.64h-3.06C331.611,338.724,331.41,338.356,331.41,337.9Z" transform="translate(-139.705 -125.868)" fill="#256d99"/>
    <path id="Path_8777" data-name="Path 8777" d="M362.039,337.9v-3.313h-.348c-.248,0-.448.369-.448.824v3.953c0,.455.2.823.448.823H365.1c.248,0,.448-.368.448-.823v-.64h-3.06C362.24,338.724,362.039,338.356,362.039,337.9Z" transform="translate(-164.953 -125.868)" fill="#256d99"/>
    <rect id="Rectangle_25" data-name="Rectangle 25" width="5.492" height="5.6" rx="2.746" transform="translate(165.497 224.017)" fill="#4d80a9"/>
    <rect id="Rectangle_26" data-name="Rectangle 26" width="5.492" height="5.6" rx="2.746" transform="translate(172.362 224.017)" fill="#4d80a9"/>
    <rect id="Rectangle_27" data-name="Rectangle 27" width="5.492" height="5.6" rx="2.746" transform="translate(179.228 224.017)" fill="#4d80a9"/>
    <rect id="Rectangle_28" data-name="Rectangle 28" width="5.492" height="5.6" rx="2.746" transform="translate(186.093 224.017)" fill="#4d80a9"/>
    <rect id="Rectangle_29" data-name="Rectangle 29" width="5.492" height="5.6" rx="2.746" transform="translate(192.958 224.017)" fill="#4d80a9"/>
    <rect id="Rectangle_30" data-name="Rectangle 30" width="5.492" height="5.6" rx="2.746" transform="translate(199.824 224.017)" fill="#4d80a9"/>
    <rect id="Rectangle_31" data-name="Rectangle 31" width="3.715" height="3.788" rx="1.858" transform="translate(267.423 211.355)" fill="#192e41"/>
    <path id="Rectangle_32" data-name="Rectangle 32" d="M1.857,0h0A1.857,1.857,0,0,1,3.715,1.857V1.93A1.857,1.857,0,0,1,1.858,3.788h0A1.858,1.858,0,0,1,0,1.93V1.857A1.857,1.857,0,0,1,1.857,0Z" transform="translate(273.681 211.355)" fill="#192e41"/>
    <path id="Path_8778" data-name="Path 8778" d="M1009.045,224.4l-.538,4.941-6.1-.187v13.362h28.7l8.143-20.026Z" transform="translate(-693.479 -49.933)" fill="#7aa4c1"/>
    <path id="Rectangle_33" data-name="Rectangle 33" d="M1.858,0h0A1.858,1.858,0,0,1,3.715,1.858V1.93A1.858,1.858,0,0,1,1.858,3.788h0A1.858,1.858,0,0,1,0,1.93V1.858A1.858,1.858,0,0,1,1.858,0Z" transform="translate(280.478 211.355)" fill="#192e41"/>
    <rect id="Rectangle_34" data-name="Rectangle 34" width="3.715" height="3.788" rx="1.858" transform="translate(287.274 211.355)" fill="#192e41"/>
    <path id="Rectangle_35" data-name="Rectangle 35" d="M1.858,0h0A1.857,1.857,0,0,1,3.715,1.857V1.93A1.857,1.857,0,0,1,1.858,3.788h0A1.858,1.858,0,0,1,0,1.93V1.858A1.858,1.858,0,0,1,1.858,0Z" transform="translate(294.071 211.355)" fill="#192e41"/>
    <rect id="Rectangle_36" data-name="Rectangle 36" width="3.715" height="3.788" rx="1.858" transform="translate(300.867 211.355)" fill="#192e41"/>
    <rect id="Rectangle_37" data-name="Rectangle 37" width="3.715" height="3.788" rx="1.858" transform="translate(307.451 211.355)" fill="#192e41"/>
    <rect id="Rectangle_38" data-name="Rectangle 38" width="3.715" height="3.788" rx="1.858" transform="translate(313.709 211.355)" fill="#192e41"/>
    <rect id="Rectangle_39" data-name="Rectangle 39" width="3.715" height="3.788" rx="1.858" transform="translate(320.506 211.355)" fill="#192e41"/>
    <rect id="Rectangle_40" data-name="Rectangle 40" width="3.715" height="3.788" rx="1.858" transform="translate(327.302 211.355)" fill="#192e41"/>
    <rect id="Rectangle_41" data-name="Rectangle 41" width="3.715" height="3.788" rx="1.858" transform="translate(334.099 211.355)" fill="#192e41"/>
    <rect id="Rectangle_42" data-name="Rectangle 42" width="3.715" height="3.788" rx="1.858" transform="translate(340.895 211.355)" fill="#192e41"/>
    <rect id="Rectangle_43" data-name="Rectangle 43" width="3.488" height="3.556" rx="1.744" transform="translate(353.102 211.471)" fill="#145b8e"/>
    <rect id="Rectangle_44" data-name="Rectangle 44" width="3.488" height="3.556" rx="1.744" transform="translate(358.977 211.471)" fill="#145b8e"/>
    <rect id="Rectangle_45" data-name="Rectangle 45" width="3.488" height="3.556" rx="1.744" transform="translate(365.358 211.471)" fill="#145b8e"/>
    <rect id="Rectangle_46" data-name="Rectangle 46" width="3.488" height="3.556" rx="1.744" transform="translate(371.739 211.471)" fill="#145b8e"/>
    <rect id="Rectangle_47" data-name="Rectangle 47" width="3.488" height="3.556" rx="1.744" transform="translate(287.576 198.378)" fill="#145b8e"/>
    <rect id="Rectangle_48" data-name="Rectangle 48" width="3.488" height="3.556" rx="1.744" transform="translate(293.451 198.378)" fill="#145b8e"/>
    <rect id="Rectangle_49" data-name="Rectangle 49" width="3.488" height="3.556" rx="1.744" transform="translate(299.832 198.378)" fill="#145b8e"/>
    <path id="Rectangle_50" data-name="Rectangle 50" d="M1.744,0h0A1.743,1.743,0,0,1,3.488,1.743v.069A1.744,1.744,0,0,1,1.744,3.556h0A1.744,1.744,0,0,1,0,1.812V1.744A1.744,1.744,0,0,1,1.744,0Z" transform="translate(306.213 198.378)" fill="#145b8e"/>
    <rect id="Rectangle_51" data-name="Rectangle 51" width="3.488" height="3.556" rx="1.744" transform="translate(378.12 211.471)" fill="#145b8e"/>
    <path id="Rectangle_52" data-name="Rectangle 52" d="M1.614,0h0A1.614,1.614,0,0,1,3.229,1.614v2.7A1.614,1.614,0,0,1,1.614,5.929h0A1.614,1.614,0,0,1,0,4.315v-2.7A1.614,1.614,0,0,1,1.614,0Z" transform="translate(314.132 197.851)" fill="#145b8e"/>
    <path id="Rectangle_53" data-name="Rectangle 53" d="M1.614,0h0A1.614,1.614,0,0,1,3.229,1.614v2.7A1.614,1.614,0,0,1,1.614,5.929h0A1.614,1.614,0,0,1,0,4.315v-2.7A1.614,1.614,0,0,1,1.614,0Z" transform="translate(319.513 197.851)" fill="#145b8e"/>
    <path id="Rectangle_54" data-name="Rectangle 54" d="M1.614,0h0A1.614,1.614,0,0,1,3.229,1.614v2.7A1.614,1.614,0,0,1,1.614,5.929h0A1.614,1.614,0,0,1,0,4.315v-2.7A1.614,1.614,0,0,1,1.614,0Z" transform="translate(324.894 197.851)" fill="#145b8e"/>
    <path id="Rectangle_55" data-name="Rectangle 55" d="M1.614,0h0A1.614,1.614,0,0,1,3.229,1.614v2.7A1.614,1.614,0,0,1,1.614,5.929h0A1.614,1.614,0,0,1,0,4.315v-2.7A1.614,1.614,0,0,1,1.614,0Z" transform="translate(330.275 197.851)" fill="#145b8e"/>
    <path id="Rectangle_56" data-name="Rectangle 56" d="M1.614,0h0A1.614,1.614,0,0,1,3.229,1.614v2.7A1.614,1.614,0,0,1,1.614,5.929h0A1.614,1.614,0,0,1,0,4.315v-2.7A1.614,1.614,0,0,1,1.614,0Z" transform="translate(217.233 207.916)" fill="#556e82"/>
    <path id="Rectangle_57" data-name="Rectangle 57" d="M1.614,0h0A1.614,1.614,0,0,1,3.229,1.614v2.7A1.614,1.614,0,0,1,1.614,5.929h0A1.614,1.614,0,0,1,0,4.315v-2.7A1.614,1.614,0,0,1,1.614,0Z" transform="translate(227.995 207.916)" fill="#556e82"/>
    <path id="Rectangle_58" data-name="Rectangle 58" d="M1.614,0h0A1.614,1.614,0,0,1,3.229,1.614v2.7A1.614,1.614,0,0,1,1.614,5.929h0A1.614,1.614,0,0,1,0,4.314v-2.7A1.614,1.614,0,0,1,1.614,0Z" transform="translate(238.757 207.916)" fill="#556e82"/>
    <rect id="Rectangle_59" data-name="Rectangle 59" width="3.229" height="5.929" rx="1.614" transform="translate(249.519 207.916)" fill="#556e82"/>
    <path id="Path_8779" data-name="Path 8779" d="M483.24,339.672h-2.332c-.248,0-.449-.369-.449-.824v2.926c0,.455.2.824.449.824h2.332c.248,0,.448-.369.448-.824v-2.926C483.688,339.3,483.488,339.672,483.24,339.672Z" transform="translate(-263.227 -128.753)" fill="#556e82"/>
    <path id="Path_8780" data-name="Path 8780" d="M544.5,339.672h-2.332c-.248,0-.448-.369-.448-.824v2.926c0,.455.2.824.448.824H544.5c.248,0,.448-.369.448-.824v-2.926C544.947,339.3,544.746,339.672,544.5,339.672Z" transform="translate(-313.723 -128.753)" fill="#556e82"/>
    <path id="Path_8781" data-name="Path 8781" d="M605.756,339.672h-2.332c-.248,0-.448-.369-.448-.824v2.926c0,.455.2.824.448.824h2.332c.248,0,.448-.369.448-.824v-2.926C606.2,339.3,606,339.672,605.756,339.672Z" transform="translate(-364.219 -128.753)" fill="#556e82"/>
    <path id="Path_8782" data-name="Path 8782" d="M667.014,339.672h-2.332c-.248,0-.448-.369-.448-.824v2.926c0,.455.2.824.448.824h2.332c.248,0,.448-.369.448-.824v-2.926C667.463,339.3,667.262,339.672,667.014,339.672Z" transform="translate(-414.715 -128.753)" fill="#556e82"/>
    <path id="Rectangle_60" data-name="Rectangle 60" d="M1.5,0h.226a1.5,1.5,0,0,1,1.5,1.5v0A1.5,1.5,0,0,1,1.727,3H1.5A1.5,1.5,0,0,1,0,1.5v0A1.5,1.5,0,0,1,1.5,0Z" transform="translate(217.233 207.916)" fill="#192e41"/>
    <rect id="Rectangle_61" data-name="Rectangle 61" width="3.229" height="3.002" rx="1.501" transform="translate(227.995 207.916)" fill="#192e41"/>
    <path id="Rectangle_62" data-name="Rectangle 62" d="M1.5,0h.227a1.5,1.5,0,0,1,1.5,1.5v0A1.5,1.5,0,0,1,1.727,3H1.5A1.5,1.5,0,0,1,0,1.5v0A1.5,1.5,0,0,1,1.5,0Z" transform="translate(238.757 207.916)" fill="#192e41"/>
    <path id="Rectangle_63" data-name="Rectangle 63" d="M1.5,0h.226a1.5,1.5,0,0,1,1.5,1.5v0A1.5,1.5,0,0,1,1.727,3H1.5A1.5,1.5,0,0,1,0,1.5v0A1.5,1.5,0,0,1,1.5,0Z" transform="translate(249.519 207.916)" fill="#192e41"/>
    <path id="Rectangle_64" data-name="Rectangle 64" d="M.673,0h0a.672.672,0,0,1,.672.672V7.4a.672.672,0,0,1-.672.672h0A.673.673,0,0,1,0,7.4V.673A.673.673,0,0,1,.673,0Z" transform="translate(286.345 184.017)" fill="#4d80a9"/>
    <path id="Rectangle_65" data-name="Rectangle 65" d="M.672,0h0a.673.673,0,0,1,.673.673V7.4a.672.672,0,0,1-.672.672h0A.672.672,0,0,1,0,7.4V.672A.672.672,0,0,1,.672,0Z" transform="translate(288.498 184.017)" fill="#4d80a9"/>
    <path id="Rectangle_66" data-name="Rectangle 66" d="M.673,0h0a.672.672,0,0,1,.672.672V7.4a.672.672,0,0,1-.672.672h0A.672.672,0,0,1,0,7.4V.673A.673.673,0,0,1,.673,0Z" transform="translate(290.65 184.017)" fill="#4d80a9"/>
    <path id="Rectangle_67" data-name="Rectangle 67" d="M.673,0h0a.672.672,0,0,1,.672.672V7.4a.672.672,0,0,1-.672.672h0A.672.672,0,0,1,0,7.4V.673A.673.673,0,0,1,.673,0Z" transform="translate(292.803 184.017)" fill="#4d80a9"/>
    <path id="Rectangle_68" data-name="Rectangle 68" d="M.673,0h0a.673.673,0,0,1,.673.673V7.4a.672.672,0,0,1-.672.672h0A.672.672,0,0,1,0,7.4V.673A.673.673,0,0,1,.673,0Z" transform="translate(294.955 184.017)" fill="#4d80a9"/>
    <path id="Rectangle_69" data-name="Rectangle 69" d="M.673,0h0a.672.672,0,0,1,.672.672V7.4a.672.672,0,0,1-.672.672h0A.673.673,0,0,1,0,7.4V.673A.673.673,0,0,1,.673,0Z" transform="translate(297.107 184.017)" fill="#4d80a9"/>
    <path id="Rectangle_70" data-name="Rectangle 70" d="M.673,0h0a.672.672,0,0,1,.672.672V7.4a.672.672,0,0,1-.672.672h0A.672.672,0,0,1,0,7.4V.673A.673.673,0,0,1,.673,0Z" transform="translate(299.26 184.017)" fill="#4d80a9"/>
    <rect id="Rectangle_71" data-name="Rectangle 71" width="1.345" height="8.07" rx="0.673" transform="translate(301.412 184.017)" fill="#4d80a9"/>
    <path id="Rectangle_72" data-name="Rectangle 72" d="M.673,0h0a.672.672,0,0,1,.672.672V7.4a.672.672,0,0,1-.672.672h0A.673.673,0,0,1,0,7.4V.673A.673.673,0,0,1,.673,0Z" transform="translate(303.565 184.017)" fill="#4d80a9"/>
    <path id="Rectangle_73" data-name="Rectangle 73" d="M.673,0h0a.673.673,0,0,1,.673.673V7.4a.672.672,0,0,1-.672.672h0A.673.673,0,0,1,0,7.4V.673A.673.673,0,0,1,.673,0Z" transform="translate(305.717 184.017)" fill="#4d80a9"/>
    <path id="Path_8783" data-name="Path 8783" d="M458.489,285.582h24.349s1.48,8.646-9.551,8.646-14.663-1.729-14.663-1.729Z" transform="translate(-245.116 -92.672)" fill="#a55a46"/>
    <path id="Path_8784" data-name="Path 8784" d="M473.417,292.125c6.683,0,8.835-3.087,9.486-5.572a6.63,6.63,0,0,0-.065-.97H458.489l.094,4.827C458.9,290.547,462.724,292.125,473.417,292.125Z" transform="translate(-245.116 -92.672)" fill="#f78a81"/>
    <path id="Path_8785" data-name="Path 8785" d="M639.913,285.582h24.349s1.48,8.646-9.551,8.646-14.663-1.729-14.663-1.729Z" transform="translate(-394.667 -92.672)" fill="#a55a46"/>
    <path id="Path_8786" data-name="Path 8786" d="M654.841,292.125c6.683,0,8.835-3.087,9.486-5.572a6.639,6.639,0,0,0-.065-.97H639.913l.094,4.827C640.322,290.547,644.148,292.125,654.841,292.125Z" transform="translate(-394.667 -92.672)" fill="#f78a81"/>
    <path id="Path_8787" data-name="Path 8787" d="M1015.819,264.16H1028.3s.758,4.431-4.894,4.431-7.514-.886-7.514-.886Z" transform="translate(-704.533 -78.161)" fill="#ed8d80"/>
    <path id="Path_8788" data-name="Path 8788" d="M1016.09,269.758l.021,1.1s1.861.886,7.514.886c3.445,0,4.5-1.643,4.81-2.929-.689.915-2.021,1.709-4.6,1.709A28.061,28.061,0,0,1,1016.09,269.758Z" transform="translate(-704.756 -81.314)" fill="#a55a46"/>
    <path id="Path_8789" data-name="Path 8789" d="M1325.049,216.554l6.686,11.018,18.953.036-9.267-11.565Z" transform="translate(-959.437 -45.568)" fill="#dae9f1"/>
    <rect id="Rectangle_74" data-name="Rectangle 74" width="14.708" height="2.342" rx="1.171" transform="translate(348.378 176.066)" fill="#d8806f"/>
    <ellipse id="Ellipse_15" data-name="Ellipse 15" cx="2.152" cy="3.953" rx="2.152" ry="3.953" transform="translate(234.586 154.799)" fill="#7aa4c1"/>
    <path id="Path_8790" data-name="Path 8790" d="M188.953,382h-2.474c-.28,0-.506.417-.506.93v3.739c0,.514.227.93.506.93h.948A9.888,9.888,0,0,1,188.953,382Z" transform="translate(-20.475 -157.986)" fill="#556e82"/>
    <path id="Path_8791" data-name="Path 8791" d="M228.032,382h-2.474c-.28,0-.506.417-.506.93v3.739c0,.514.227.93.506.93h.948A9.887,9.887,0,0,1,228.032,382Z" transform="translate(-52.689 -157.986)" fill="#556e82"/>
    <path id="Path_8792" data-name="Path 8792" d="M267.11,382h-2.474c-.28,0-.506.417-.506.93v3.739c0,.514.227.93.506.93h.948A9.888,9.888,0,0,1,267.11,382Z" transform="translate(-84.901 -157.986)" fill="#556e82"/>
    <path id="Path_8793" data-name="Path 8793" d="M306.189,382h-2.474c-.28,0-.506.417-.506.93v3.739c0,.514.227.93.506.93h.948A9.89,9.89,0,0,1,306.189,382Z" transform="translate(-117.115 -157.986)" fill="#556e82"/>
    <path id="Path_8794" data-name="Path 8794" d="M345.267,382h-2.474c-.28,0-.507.417-.507.93v3.739c0,.514.227.93.507.93h.948A9.89,9.89,0,0,1,345.267,382Z" transform="translate(-149.328 -157.986)" fill="#556e82"/>
    <path id="Path_8795" data-name="Path 8795" d="M384.345,382H381.87c-.28,0-.507.417-.507.93v3.739c0,.514.227.93.507.93h.948A9.889,9.889,0,0,1,384.345,382Z" transform="translate(-181.54 -157.986)" fill="#556e82"/>
    <path id="Path_8796" data-name="Path 8796" d="M1240.243,259.477c-1.366,0-2.473-2.022-2.487-4.524h-1.087c-.254,0-.46.378-.46.844v5.228c0,.467.206.844.46.844h4.1c.254,0,.46-.378.46-.844V259.1A1.582,1.582,0,0,1,1240.243,259.477Z" transform="translate(-886.204 -71.924)" fill="#4d80a9"/>
    <path id="Path_8797" data-name="Path 8797" d="M1280.061,259.477c-1.366,0-2.473-2.022-2.487-4.524h-1.086c-.254,0-.46.378-.46.844v5.228c0,.467.206.844.46.844h4.1c.254,0,.46-.378.46-.844V259.1A1.582,1.582,0,0,1,1280.061,259.477Z" transform="translate(-919.027 -71.924)" fill="#4d80a9"/>
    <path id="Path_8798" data-name="Path 8798" d="M1320.9,259.477c-1.366,0-2.473-2.022-2.488-4.524h-1.086c-.254,0-.46.378-.46.844v5.228c0,.467.206.844.46.844h4.1c.254,0,.46-.378.46-.844V259.1A1.582,1.582,0,0,1,1320.9,259.477Z" transform="translate(-952.691 -71.924)" fill="#4d80a9"/>
    <path id="Path_8799" data-name="Path 8799" d="M1205.887,255.559c0-.207.016-.408.033-.606h-1.03c-.182,0-.33.271-.33.606v5.7c0,.335.148.606.33.606h2.748c.182,0,.33-.271.33-.606v-1.883C1206.819,259.381,1205.887,257.67,1205.887,255.559Z" transform="translate(-860.115 -71.924)" fill="#4d80a9"/>
    <path id="Path_8800" data-name="Path 8800" d="M454.3,416.26H179.956a94.454,94.454,0,0,0,5.661,14.824s256.493,1.318,257.21,0C443.334,430.155,450.262,421.363,454.3,416.26Z" transform="translate(-15.516 -181.191)" fill="#aab1cc"/>
    <path id="Path_8801" data-name="Path 8801" d="M454.488,405.113l-277.77,1.394c.044.185.086.375.132.557.2.814.429,1.618.661,2.414l273.513,0C452.931,407.07,454.352,405.283,454.488,405.113Z" transform="translate(-12.847 -173.64)" fill="#0b5989"/>
  </g>
</svg>
