<svg xmlns="http://www.w3.org/2000/svg" width="527.473" height="611.036" viewBox="0 0 527.473 611.036">
  <g id="Group_5099" data-name="Group 5099" transform="translate(-29.147 -36.964)">
    <g id="OBJECTS" transform="translate(29.867 37.773)">
      <g id="Group_5062" data-name="Group 5062" transform="translate(16.857 4.029)">
        <path id="Path_15725" data-name="Path 15725" d="M53.534,444.008c50.97,141.461,303.018,174.01,420.537,66.342s80.839-291.741,4.592-350.188c-109.278-83.767-209.53,35.444-293.321,49.772S2.659,302.81,53.534,444.008Z" transform="translate(-39.624 -3.153)" fill="#ced9e7"/>
        <path id="Path_15726" data-name="Path 15726" d="M72.909,102.565c-11.251,63.6,56.731,109.016,111.573,91.374S258.566,127.715,244,85.418s-51.81-31.16-83.89-22.438S80.191,61.412,72.909,102.565Z" transform="translate(-33.882 -25.574)" fill="#ced9e7"/>
        <path id="Path_15727" data-name="Path 15727" d="M395.567,46.252c36.742,50.5-41.428,102.882-67.344,56.761S367.322,7.428,395.567,46.252Z" transform="translate(11.008 -32.254)" fill="#ced9e7"/>
      </g>
      <g id="Group_5063" data-name="Group 5063">
        <line id="Line_343" data-name="Line 343" x2="13.536" y2="4.79" transform="translate(389.055 88.195)" fill="none" stroke="#011635" stroke-linecap="round" stroke-linejoin="round" stroke-width="1.2"/>
        <line id="Line_344" data-name="Line 344" y1="13.579" x2="7.04" transform="translate(21.603 55.295)" fill="none" stroke="#011635" stroke-linecap="round" stroke-linejoin="round" stroke-width="1.2"/>
        <line id="Line_345" data-name="Line 345" y1="13.579" x2="7.04" transform="translate(311.488)" fill="none" stroke="#011635" stroke-linecap="round" stroke-linejoin="round" stroke-width="1.2"/>
        <line id="Line_346" data-name="Line 346" x1="3.511" y1="15.145" transform="translate(0 501.637)" fill="none" stroke="#011635" stroke-linecap="round" stroke-linejoin="round" stroke-width="1.2"/>
        <line id="Line_347" data-name="Line 347" y1="3.824" x2="13.788" transform="translate(506.539 265.623)" fill="none" stroke="#011635" stroke-linecap="round" stroke-linejoin="round" stroke-width="1.2"/>
        <line id="Line_348" data-name="Line 348" y1="3.824" x2="13.788" transform="translate(139.681 89.752)" fill="none" stroke="#011635" stroke-linecap="round" stroke-linejoin="round" stroke-width="1.2"/>
        <line id="Line_349" data-name="Line 349" y1="13.579" x2="7.04" transform="translate(480.78 529.791)" fill="none" stroke="#011635" stroke-linecap="round" stroke-linejoin="round" stroke-width="1.2"/>
        <line id="Line_350" data-name="Line 350" x2="13.536" y2="4.79" transform="translate(146.701 499.242)" fill="none" stroke="#011635" stroke-linecap="round" stroke-linejoin="round" stroke-width="1.2"/>
        <path id="Path_15728" data-name="Path 15728" d="M464.515,116.787a3.28,3.28,0,1,0-3.265,3.589A3.439,3.439,0,0,0,464.515,116.787Z" transform="translate(52.183 -4.266)" fill="none" stroke="#011635" stroke-linecap="round" stroke-linejoin="round" stroke-width="1.2"/>
        <path id="Path_15729" data-name="Path 15729" d="M268.015,417.032a3.28,3.28,0,1,0-3.266,3.589A3.439,3.439,0,0,0,268.015,417.032Z" transform="translate(16.98 84.606)" fill="none" stroke="#011635" stroke-linecap="round" stroke-linejoin="round" stroke-width="1.2"/>
        <path id="Path_15730" data-name="Path 15730" d="M55.182,157.788a3.28,3.28,0,1,0-3.265,3.589A3.438,3.438,0,0,0,55.182,157.788Z" transform="translate(-21.151 7.87)" fill="none" stroke="#011635" stroke-linecap="round" stroke-linejoin="round" stroke-width="1.2"/>
        <path id="Path_15731" data-name="Path 15731" d="M112.616,49.916A3.28,3.28,0,1,0,109.35,53.5,3.439,3.439,0,0,0,112.616,49.916Z" transform="translate(-10.861 -24.06)" fill="none" stroke="#011635" stroke-linecap="round" stroke-linejoin="round" stroke-width="1.2"/>
        <ellipse id="Ellipse_186" data-name="Ellipse 186" cx="2.512" cy="2.761" rx="2.512" ry="2.761" transform="translate(201.288 4.029)" fill="#011635"/>
        <ellipse id="Ellipse_187" data-name="Ellipse 187" cx="2.512" cy="2.761" rx="2.512" ry="2.761" transform="translate(211.501 553.134)" fill="#011635"/>
        <ellipse id="Ellipse_188" data-name="Ellipse 188" cx="2.512" cy="2.761" rx="2.512" ry="2.761" transform="translate(436.287 15.027)" fill="#011635"/>
        <ellipse id="Ellipse_189" data-name="Ellipse 189" cx="2.512" cy="2.761" rx="2.512" ry="2.761" transform="translate(450.358 480.107)" fill="#011635"/>
        <ellipse id="Ellipse_190" data-name="Ellipse 190" cx="2.512" cy="2.761" rx="2.512" ry="2.761" transform="translate(1.755 313.048)" fill="#011635"/>
      </g>
      <g id="Group_5082" data-name="Group 5082" transform="translate(10.936 112.521)">
        <g id="Group_5064" data-name="Group 5064" transform="translate(0 197.44)">
          <path id="Path_15732" data-name="Path 15732" d="M163.765,568.579c-20.542-45.455-41.207-104.894-48.659-135.757a78.058,78.058,0,0,0,11.852-49.7L78.748,268.313c-30.57,34.178-43.574,83.711-44.125,131.633C34.094,445.914,44.2,515.61,61.08,568.579Z" transform="translate(-34.603 -268.313)" fill="#e8614e"/>
          <path id="Path_15733" data-name="Path 15733" d="M71.965,367.785c3.947,14.1,7.806,25.95,15.935,35.109L94,426.118c4.342-2.29,8.4-6.423,11.786-10.687a80.525,80.525,0,0,0,10.965,3.752,79.1,79.1,0,0,0,4.911-36.056L73.452,268.313a140.178,140.178,0,0,0-9.285,11.6C64.24,298.346,65.148,343.434,71.965,367.785Z" transform="translate(-29.307 -268.313)" fill="#c74f3e"/>
        </g>
        <g id="Group_5077" data-name="Group 5077" transform="translate(37.486)">
          <path id="Path_15734" data-name="Path 15734" d="M116.048,123.289c-17.512,2.475-29.184,10.389-37.646,26.628s-9.591,46.17-10.569,64.853c-3.225,61.621-1.2,112.114,7.775,173.042,2.693,18.281,5.426,35.974,17.1,49.322,16.165,18.474,40.462,20.062,63.737,21.674,85.226,5.906,171.727,2.84,257.345,2.833a115.806,115.806,0,0,0,46.577-9.414c14.789-6.476,27.827-20.919,28.909-38.4Z" transform="translate(-66.394 -113.8)" fill="#011635" stroke="#011635" stroke-linecap="round" stroke-linejoin="round" stroke-width="1.2"/>
          <g id="Group_5067" data-name="Group 5067" transform="translate(12.003)">
            <path id="Path_15735" data-name="Path 15735" d="M488.623,414.862a819.8,819.8,0,0,0,4.01-251.674c-2.42-17.337-15.093-30.709-30.9-33.087a1295.325,1295.325,0,0,0-347.907-4.6C97,127.535,83.68,142.077,81.786,160.558c-8.9,86.761-6.945,165.38,10.059,252.892,3.33,17.134,16.5,29.875,32.383,31.289A2041.88,2041.88,0,0,0,455.6,447.258C472.044,446.05,485.556,432.659,488.623,414.862Z" transform="translate(-76.573 -115.967)" fill="#cfb3fc" stroke="#011635" stroke-linecap="round" stroke-linejoin="round" stroke-width="1.2"/>
            <path id="Path_15736" data-name="Path 15736" d="M266.5,349.643a11.5,11.5,0,0,0-13.5-2.158c-4.335,2.355-7.087,7.836-6.557,13.117s4.325,9.982,9.038,11.155a11.457,11.457,0,0,0,12.475-5.859C270.427,361.333,270.871,354.079,266.5,349.643Z" transform="translate(-46.152 -47.823)" fill="#9374c4" stroke="#011635" stroke-linecap="round" stroke-linejoin="round" stroke-width="1.2"/>
            <g id="Group_5065" data-name="Group 5065" transform="translate(343.4 36.123)">
              <path id="Path_15737" data-name="Path 15737" d="M377.22,147.223c-1.15-3.558-6.136-4.59-8.386-1.737s-.611,8.131,2.758,8.876S378.411,150.907,377.22,147.223Z" transform="translate(-367.799 -143.84)" fill="#ffde82" stroke="#011635" stroke-linecap="round" stroke-linejoin="round" stroke-width="1.2"/>
              <path id="Path_15738" data-name="Path 15738" d="M395.3,147.556c-1.149-3.558-6.136-4.59-8.386-1.737s-.611,8.131,2.758,8.878S396.5,151.24,395.3,147.556Z" transform="translate(-364.559 -143.741)" fill="#ffde82" stroke="#011635" stroke-linecap="round" stroke-linejoin="round" stroke-width="1.2"/>
              <path id="Path_15739" data-name="Path 15739" d="M413.39,147.9c-1.15-3.558-6.138-4.59-8.387-1.737s-.611,8.13,2.758,8.876S414.581,151.579,413.39,147.9Z" transform="translate(-361.319 -143.64)" fill="#ffde82" stroke="#011635" stroke-linecap="round" stroke-linejoin="round" stroke-width="1.2"/>
            </g>
            <g id="Group_5066" data-name="Group 5066" transform="translate(21.127 22.145)">
              <path id="Path_15740" data-name="Path 15740" d="M137.926,133.211c-15.764,1.34-46.435,9.772-43.2,25.048,3.508,16.551,22.976-7.657,45.626-7.657C162.692,150.6,162.518,131.122,137.926,133.211Z" transform="translate(-94.491 -133.054)" fill="#fff" opacity="0.75" style="mix-blend-mode: soft-light;isolation: isolate"/>
              <path id="Path_15741" data-name="Path 15741" d="M171.964,136.9A7.591,7.591,0,0,0,162.4,133.7c-3.316,1.6-5.22,6.135-4.09,9.916s5.2,6.192,8.673,5.057S175.006,142.017,171.964,136.9Z" transform="translate(-83.115 -133.054)" fill="#fff" opacity="0.75" style="mix-blend-mode: soft-light;isolation: isolate"/>
            </g>
          </g>
          <g id="Group_5076" data-name="Group 5076" transform="translate(12.009 62.651)">
            <path id="Path_15742" data-name="Path 15742" d="M491.367,383.5a820.634,820.634,0,0,0,4.192-211.15c-137.88-6.783-276.035-9.36-415.525-7.4-6.311,74-4.306,142.844,8.733,217.506Q290.031,387.368,491.367,383.5Z" transform="translate(-76.578 -164.309)" fill="#ffde82"/>
            <text id="Lorem_ipsum_dolor_sit_amet_" data-name="Lorem ipsum dolor sit amet?" transform="translate(93.988 44.736)" fill="#011635" font-size="12" font-family="SegoeUI, Segoe UI" letter-spacing="0.1em"><tspan x="27.099" y="13">Lorem ipsum dolor sit amet?</tspan></text>
            <g id="Group_5074" data-name="Group 5074" transform="translate(70.481 89.004)">
              <g id="Group_5068" data-name="Group 5068" transform="translate(3.537 3.888)" opacity="0.12" style="mix-blend-mode: multiply;isolation: isolate">
                <path id="Path_15743" data-name="Path 15743" d="M281.686,242.589c13.722,10.045,18.052,32.763,9.151,48.017s-29.5,20.4-43.525,10.881-19.068-32.06-10.65-47.64S266.138,231.207,281.686,242.589Z" transform="translate(-122.651 -235.689)" fill="#011635"/>
                <path id="Path_15744" data-name="Path 15744" d="M290.293,284.981c4.964-8.507,5.809-19.335,3.207-28.992-14.376,27.461-45.08,27.444-57.894,26.105a32.6,32.6,0,0,0,11.162,13.767C260.8,305.383,281.39,300.232,290.293,284.981Z" transform="translate(-122.107 -230.064)" fill="#011635" opacity="0.12" style="mix-blend-mode: multiply;isolation: isolate"/>
                <path id="Path_15745" data-name="Path 15745" d="M253.661,258.184c-1.075-2.884-5.2-3.552-6.988-1.134s-.344,6.72,2.442,7.286S254.85,261.368,253.661,258.184Z" transform="translate(-120.265 -230.187)" fill="#011635" stroke="#011635" stroke-linecap="round" stroke-linejoin="round" stroke-width="1.2"/>
                <path id="Path_15746" data-name="Path 15746" d="M274.857,258.184c-1.075-2.884-5.2-3.552-6.988-1.134s-.344,6.72,2.442,7.286S276.046,261.368,274.857,258.184Z" transform="translate(-116.467 -230.187)" fill="#011635" stroke="#011635" stroke-linecap="round" stroke-linejoin="round" stroke-width="1.2"/>
                <path id="Path_15747" data-name="Path 15747" d="M280.217,267.218c-11.749-.1-23.5-.2-35.757.566,1.243,9.066,8.976,16.512,17.318,16.673S278.082,277.469,280.217,267.218Z" transform="translate(-120.52 -226.76)" fill="#011635" stroke="#011635" stroke-linecap="round" stroke-linejoin="round" stroke-width="1.2"/>
                <path id="Path_15748" data-name="Path 15748" d="M254.77,243.91c-1.627-4.1-9.563,0-13.061,4.358s-4.607,8.2-2.216,9.461c1.278.674,4.207-3.858,6.253-5.424C249.347,249.55,256.168,247.435,254.77,243.91Z" transform="translate(-121.638 -234.14)" fill="#011635" opacity="0.75" style="mix-blend-mode: soft-light;isolation: isolate"/>
                <path id="Path_15749" data-name="Path 15749" d="M238.559,255.077c-1.832-1.457-3.1,1.988-1.526,3.205S240.492,256.615,238.559,255.077Z" transform="translate(-121.979 -230.438)" fill="#011635" opacity="0.75" style="mix-blend-mode: soft-light;isolation: isolate"/>
                <path id="Path_15750" data-name="Path 15750" d="M281.686,242.589c13.722,10.045,18.052,32.763,9.151,48.017s-29.5,20.4-43.525,10.881-19.068-32.06-10.65-47.64S266.138,231.207,281.686,242.589Z" transform="translate(-122.651 -235.689)" fill="none" stroke="#011635" stroke-linecap="round" stroke-linejoin="round" stroke-width="1.2"/>
                <path id="Path_15751" data-name="Path 15751" d="M188.472,241.589c13.723,10.045,18.052,32.763,9.15,48.017s-29.494,20.4-43.524,10.881-19.068-32.06-10.649-47.64S172.925,230.207,188.472,241.589Z" transform="translate(-139.351 -235.985)" fill="#011635"/>
                <path id="Path_15752" data-name="Path 15752" d="M196.938,281.582a36.145,36.145,0,0,0,4.64-18.489c-20.122,20.446-46.428,19.353-58.407,17.5a31.936,31.936,0,0,0,10.243,11.87C167.444,301.985,188.038,296.833,196.938,281.582Z" transform="translate(-138.667 -227.961)" fill="#011635" opacity="0.18" style="mix-blend-mode: multiply;isolation: isolate"/>
                <path id="Path_15753" data-name="Path 15753" d="M160.238,257.355c-1.075-2.884-5.2-3.552-6.988-1.134s-.347,6.72,2.441,7.285S161.427,260.539,160.238,257.355Z" transform="translate(-137.002 -230.433)" fill="#011635" stroke="#011635" stroke-linecap="round" stroke-linejoin="round" stroke-width="1.2"/>
                <path id="Path_15754" data-name="Path 15754" d="M181.435,257.355c-1.075-2.884-5.2-3.552-6.989-1.134s-.346,6.72,2.442,7.285S182.622,260.539,181.435,257.355Z" transform="translate(-133.205 -230.433)" fill="#011635" stroke="#011635" stroke-linecap="round" stroke-linejoin="round" stroke-width="1.2"/>
                <path id="Path_15755" data-name="Path 15755" d="M151.647,278.275c2.948-7.083,9.831-11.963,16.916-12s14.006,4.784,17.007,11.84" transform="translate(-137.148 -227.018)" fill="none" stroke="#011635" stroke-linecap="round" stroke-linejoin="round" stroke-width="1.2"/>
                <path id="Path_15756" data-name="Path 15756" d="M162.924,242.861c-.8-4.2-9.433-2.153-14.133,3.9s-3.069,10.316-.52,8.418,3.915-6.156,8.758-7.742C159.033,246.782,163.687,246.851,162.924,242.861Z" transform="translate(-138.196 -234.605)" fill="#011635" opacity="0.75" style="mix-blend-mode: soft-light;isolation: isolate"/>
                <path id="Path_15757" data-name="Path 15757" d="M144.1,257.244c-2.316-.2-1.722-4.154.638-4.158S146.42,257.441,144.1,257.244Z" transform="translate(-138.762 -230.923)" fill="#011635" opacity="0.75" style="mix-blend-mode: soft-light;isolation: isolate"/>
                <path id="Path_15758" data-name="Path 15758" d="M188.472,241.589c13.723,10.045,18.052,32.763,9.15,48.017s-29.494,20.4-43.524,10.881-19.068-32.06-10.649-47.64S172.925,230.207,188.472,241.589Z" transform="translate(-139.351 -235.985)" fill="none" stroke="#011635" stroke-linecap="round" stroke-linejoin="round" stroke-width="1.2"/>
                <path id="Path_15759" data-name="Path 15759" d="M375.243,242.99c13.722,10.045,18.052,32.764,9.15,48.017s-29.5,20.4-43.524,10.884-19.068-32.063-10.649-47.642S359.7,231.608,375.243,242.99Z" transform="translate(-105.89 -235.57)" fill="#011635"/>
                <path id="Path_15760" data-name="Path 15760" d="M383.783,284.773c4.513-7.732,5.619-17.381,3.831-26.327-18.5,27.241-49.5,25.443-58.088,24.352a32.3,32.3,0,0,0,10.733,12.859C354.288,305.175,374.881,300.027,383.783,284.773Z" transform="translate(-105.28 -229.336)" fill="#011635" opacity="0.12" style="mix-blend-mode: multiply;isolation: isolate"/>
                <path id="Path_15761" data-name="Path 15761" d="M347.008,260.009c-1.074-2.882-5.2-3.551-6.989-1.133s-.344,6.718,2.442,7.285S348.2,263.195,347.008,260.009Z" transform="translate(-103.541 -229.647)" fill="#011635" stroke="#011635" stroke-linecap="round" stroke-linejoin="round" stroke-width="1.2"/>
                <path id="Path_15762" data-name="Path 15762" d="M368.206,260.009c-1.077-2.882-5.2-3.551-6.99-1.133s-.344,6.718,2.442,7.285S369.393,263.195,368.206,260.009Z" transform="translate(-99.744 -229.647)" fill="#011635" stroke="#011635" stroke-linecap="round" stroke-linejoin="round" stroke-width="1.2"/>
                <path id="Path_15763" data-name="Path 15763" d="M338.051,271.136q17.921.088,35.843.17" transform="translate(-103.753 -225.58)" fill="none" stroke="#011635" stroke-linecap="round" stroke-linejoin="round" stroke-width="1.2"/>
                <path id="Path_15764" data-name="Path 15764" d="M350.311,244.278c-.8-4.206-9.432-2.154-14.132,3.9s-3.069,10.315-.521,8.417,3.915-6.156,8.758-7.742C346.421,248.2,351.074,248.267,350.311,244.278Z" transform="translate(-104.625 -234.186)" fill="#011635" opacity="0.75" style="mix-blend-mode: soft-light;isolation: isolate"/>
                <path id="Path_15765" data-name="Path 15765" d="M331.491,258.661c-2.317-.2-1.722-4.154.638-4.158S333.808,258.856,331.491,258.661Z" transform="translate(-105.191 -230.504)" fill="#011635" opacity="0.75" style="mix-blend-mode: soft-light;isolation: isolate"/>
                <path id="Path_15766" data-name="Path 15766" d="M375.243,242.99c13.722,10.045,18.052,32.764,9.15,48.017s-29.5,20.4-43.524,10.884-19.068-32.063-10.649-47.642S359.7,231.608,375.243,242.99Z" transform="translate(-105.89 -235.57)" fill="none" stroke="#011635" stroke-linecap="round" stroke-linejoin="round" stroke-width="1.2"/>
              </g>
              <g id="Group_5073" data-name="Group 5073">
                <g id="Group_5072" data-name="Group 5072">
                  <g id="Group_5069" data-name="Group 5069" transform="translate(109.913 1.296)">
                    <path id="Path_15767" data-name="Path 15767" d="M278.686,239.589c13.722,10.045,18.052,32.763,9.151,48.017s-29.5,20.4-43.525,10.881-19.068-32.06-10.65-47.64S263.138,228.207,278.686,239.589Z" transform="translate(-229.565 -233.985)" fill="#32e69e"/>
                    <path id="Path_15768" data-name="Path 15768" d="M287.293,281.981c4.964-8.507,5.809-19.335,3.207-28.992-14.376,27.461-45.08,27.444-57.894,26.105a32.6,32.6,0,0,0,11.162,13.767C257.8,302.383,278.39,297.232,287.293,281.981Z" transform="translate(-229.02 -228.36)" fill="#01352e" opacity="0.12" style="mix-blend-mode: multiply;isolation: isolate"/>
                    <path id="Path_15769" data-name="Path 15769" d="M250.661,255.184c-1.075-2.884-5.2-3.552-6.988-1.134s-.344,6.72,2.442,7.286S251.85,258.368,250.661,255.184Z" transform="translate(-227.178 -228.483)" fill="#011635" stroke="#011635" stroke-linecap="round" stroke-linejoin="round" stroke-width="1.2"/>
                    <path id="Path_15770" data-name="Path 15770" d="M271.857,255.184c-1.075-2.884-5.2-3.552-6.988-1.134s-.344,6.72,2.442,7.286S273.046,258.368,271.857,255.184Z" transform="translate(-223.381 -228.483)" fill="#011635" stroke="#011635" stroke-linecap="round" stroke-linejoin="round" stroke-width="1.2"/>
                    <path id="Path_15771" data-name="Path 15771" d="M277.217,264.218c-11.749-.1-23.5-.2-35.757.566,1.243,9.065,8.976,16.512,17.318,16.673S275.082,274.469,277.217,264.218Z" transform="translate(-227.433 -225.056)" fill="#011635" stroke="#011635" stroke-linecap="round" stroke-linejoin="round" stroke-width="1.2"/>
                    <path id="Path_15772" data-name="Path 15772" d="M251.77,240.91c-1.627-4.1-9.563,0-13.061,4.358s-4.607,8.2-2.216,9.461c1.278.674,4.207-3.858,6.253-5.424C246.347,246.55,253.168,244.435,251.77,240.91Z" transform="translate(-228.552 -232.436)" fill="#fff" opacity="0.75" style="mix-blend-mode: soft-light;isolation: isolate"/>
                    <path id="Path_15773" data-name="Path 15773" d="M235.559,252.077c-1.832-1.457-3.1,1.988-1.526,3.2S237.492,253.615,235.559,252.077Z" transform="translate(-228.892 -228.734)" fill="#fff" opacity="0.75" style="mix-blend-mode: soft-light;isolation: isolate"/>
                    <path id="Path_15774" data-name="Path 15774" d="M278.686,239.589c13.722,10.045,18.052,32.763,9.151,48.017s-29.5,20.4-43.525,10.881-19.068-32.06-10.65-47.64S263.138,228.207,278.686,239.589Z" transform="translate(-229.565 -233.985)" fill="none" stroke="#011635" stroke-linecap="round" stroke-linejoin="round" stroke-width="1.2"/>
                  </g>
                  <g id="Group_5070" data-name="Group 5070">
                    <path id="Path_15775" data-name="Path 15775" d="M185.472,238.589c13.723,10.045,18.052,32.763,9.15,48.017s-29.494,20.4-43.524,10.881-19.068-32.06-10.649-47.64S169.925,227.207,185.472,238.589Z" transform="translate(-136.351 -232.985)" fill="#fc5353"/>
                    <path id="Path_15776" data-name="Path 15776" d="M193.938,278.582a36.144,36.144,0,0,0,4.64-18.489c-20.122,20.446-46.428,19.353-58.407,17.5a31.937,31.937,0,0,0,10.243,11.87C164.444,298.985,185.038,293.833,193.938,278.582Z" transform="translate(-135.667 -224.961)" fill="#011635" opacity="0.18" style="mix-blend-mode: multiply;isolation: isolate"/>
                    <path id="Path_15777" data-name="Path 15777" d="M157.238,254.355c-1.075-2.884-5.2-3.552-6.988-1.134s-.347,6.72,2.441,7.285S158.427,257.539,157.238,254.355Z" transform="translate(-134.002 -227.433)" fill="#011635" stroke="#011635" stroke-linecap="round" stroke-linejoin="round" stroke-width="1.2"/>
                    <path id="Path_15778" data-name="Path 15778" d="M178.435,254.355c-1.075-2.884-5.2-3.552-6.989-1.134s-.345,6.72,2.442,7.285S179.622,257.539,178.435,254.355Z" transform="translate(-130.205 -227.433)" fill="#011635" stroke="#011635" stroke-linecap="round" stroke-linejoin="round" stroke-width="1.2"/>
                    <path id="Path_15779" data-name="Path 15779" d="M148.647,275.275c2.948-7.083,9.831-11.963,16.916-12s14.006,4.784,17.007,11.84" transform="translate(-134.148 -224.018)" fill="none" stroke="#011635" stroke-linecap="round" stroke-linejoin="round" stroke-width="1.2"/>
                    <path id="Path_15780" data-name="Path 15780" d="M159.924,239.861c-.8-4.2-9.433-2.153-14.133,3.9s-3.069,10.316-.52,8.418,3.915-6.156,8.758-7.742C156.033,243.782,160.687,243.851,159.924,239.861Z" transform="translate(-135.196 -231.605)" fill="#fff" opacity="0.75" style="mix-blend-mode: soft-light;isolation: isolate"/>
                    <path id="Path_15781" data-name="Path 15781" d="M141.1,254.244c-2.316-.2-1.722-4.154.638-4.158S143.42,254.441,141.1,254.244Z" transform="translate(-135.762 -227.923)" fill="#fff" opacity="0.75" style="mix-blend-mode: soft-light;isolation: isolate"/>
                    <path id="Path_15782" data-name="Path 15782" d="M185.472,238.589c13.723,10.045,18.052,32.763,9.15,48.017s-29.494,20.4-43.524,10.881-19.068-32.06-10.649-47.64S169.925,227.207,185.472,238.589Z" transform="translate(-136.351 -232.985)" fill="none" stroke="#011635" stroke-linecap="round" stroke-linejoin="round" stroke-width="1.2"/>
                  </g>
                  <g id="Group_5071" data-name="Group 5071" transform="translate(220.232 1.816)">
                    <path id="Path_15783" data-name="Path 15783" d="M372.243,239.99c13.722,10.045,18.052,32.764,9.15,48.017s-29.5,20.4-43.524,10.884-19.068-32.063-10.649-47.642S356.7,228.608,372.243,239.99Z" transform="translate(-323.122 -234.386)" fill="#cfb3fc"/>
                    <path id="Path_15784" data-name="Path 15784" d="M380.783,281.773c4.513-7.732,5.619-17.381,3.831-26.327-18.5,27.241-49.5,25.443-58.088,24.352a32.3,32.3,0,0,0,10.733,12.859C351.288,302.175,371.881,297.027,380.783,281.773Z" transform="translate(-322.512 -228.152)" fill="#130135" opacity="0.12" style="mix-blend-mode: multiply;isolation: isolate"/>
                    <path id="Path_15785" data-name="Path 15785" d="M344.008,257.009c-1.074-2.882-5.2-3.551-6.989-1.133s-.344,6.719,2.442,7.285S345.2,260.195,344.008,257.009Z" transform="translate(-320.773 -228.462)" fill="#011635" stroke="#011635" stroke-linecap="round" stroke-linejoin="round" stroke-width="1.2"/>
                    <path id="Path_15786" data-name="Path 15786" d="M365.206,257.009c-1.077-2.882-5.2-3.551-6.99-1.133s-.344,6.719,2.442,7.285S366.393,260.195,365.206,257.009Z" transform="translate(-316.976 -228.462)" fill="#011635" stroke="#011635" stroke-linecap="round" stroke-linejoin="round" stroke-width="1.2"/>
                    <path id="Path_15787" data-name="Path 15787" d="M335.051,268.136q17.921.087,35.843.17" transform="translate(-320.985 -224.396)" fill="none" stroke="#011635" stroke-linecap="round" stroke-linejoin="round" stroke-width="1.2"/>
                    <path id="Path_15788" data-name="Path 15788" d="M347.311,241.278c-.8-4.206-9.432-2.154-14.132,3.9s-3.069,10.315-.521,8.418,3.915-6.156,8.758-7.742C343.421,245.2,348.074,245.267,347.311,241.278Z" transform="translate(-321.857 -233.001)" fill="#fff" opacity="0.75" style="mix-blend-mode: soft-light;isolation: isolate"/>
                    <path id="Path_15789" data-name="Path 15789" d="M328.491,255.661c-2.317-.2-1.721-4.154.638-4.158S330.808,255.856,328.491,255.661Z" transform="translate(-322.422 -229.319)" fill="#fff" opacity="0.75" style="mix-blend-mode: soft-light;isolation: isolate"/>
                    <path id="Path_15790" data-name="Path 15790" d="M372.243,239.99c13.722,10.045,18.052,32.764,9.15,48.017s-29.5,20.4-43.524,10.884-19.068-32.063-10.649-47.642S356.7,228.608,372.243,239.99Z" transform="translate(-323.122 -234.386)" fill="none" stroke="#011635" stroke-linecap="round" stroke-linejoin="round" stroke-width="1.2"/>
                  </g>
                </g>
              </g>
            </g>
            <g id="Group_5075" data-name="Group 5075" transform="translate(2.962 0.047)">
              <path id="Path_15791" data-name="Path 15791" d="M285.27,165.47q-10.347-.212-20.7-.4C238.449,237.821,211.7,311.048,184.927,384.3q9.772.117,19.547.21C232.254,311.945,258.79,238.722,285.27,165.47Z" transform="translate(-60.129 -164.13)" fill="#fff" opacity="0.75" style="mix-blend-mode: soft-light;isolation: isolate"/>
              <path id="Path_15792" data-name="Path 15792" d="M79.09,311.913q1.634,18.9,4.227,38.078,32.98-92.669,65.967-185.646-9.249.029-18.5.076C114.153,213.835,96.778,262.947,79.09,311.913Z" transform="translate(-79.09 -164.345)" fill="#fff" opacity="0.75" style="mix-blend-mode: soft-light;isolation: isolate"/>
              <path id="Path_15793" data-name="Path 15793" d="M131.522,383.528q23.317.437,46.636.758,40.907-109.634,81.816-219.268-22.507-.342-45.047-.526C186.958,236.734,159.014,309.083,131.522,383.528Z" transform="translate(-69.697 -164.301)" fill="#fff" opacity="0.75" style="mix-blend-mode: soft-light;isolation: isolate"/>
              <path id="Path_15794" data-name="Path 15794" d="M429.707,169.99q-9.162-.424-18.326-.82c-24.069,71.941-49.792,143.213-75.77,214.327q9.139-.068,18.279-.154Q391.793,276.843,429.707,169.99Z" transform="translate(-33.133 -162.917)" fill="#fff" opacity="0.75" style="mix-blend-mode: soft-light;isolation: isolate"/>
              <path id="Path_15795" data-name="Path 15795" d="M308.328,384.617q38.114-108.168,76.226-216.336-32.9-1.217-65.846-2.107c-24.48,73.269-51.037,145.73-78.388,218.34Q274.324,384.677,308.328,384.617Z" transform="translate(-50.205 -163.804)" fill="#fff" opacity="0.75" style="mix-blend-mode: soft-light;isolation: isolate"/>
            </g>
            <path id="Path_15796" data-name="Path 15796" d="M491.367,383.5a820.634,820.634,0,0,0,4.192-211.15c-137.88-6.783-276.035-9.36-415.525-7.4-6.311,74-4.306,142.844,8.733,217.506Q290.031,387.368,491.367,383.5Z" transform="translate(-76.578 -164.309)" fill="none" stroke="#011635" stroke-linecap="round" stroke-linejoin="round" stroke-width="1.2"/>
          </g>
        </g>
        <g id="Group_5078" data-name="Group 5078" transform="translate(26.469 224.656)">
          <path id="Path_15797" data-name="Path 15797" d="M57.051,348.448a388.583,388.583,0,0,1,42.867-53.374,21.5,21.5,0,0,1,6.2-5c2.383-1.085,5.323-1.128,7.36.612,3.743,3.2,2.358,9.668.5,14.463a341.738,341.738,0,0,1-16.6,36.03,110.359,110.359,0,0,1-2.107,78.72" transform="translate(-57.051 -289.312)" fill="#e8614e"/>
          <path id="Path_15798" data-name="Path 15798" d="M57.051,348.448a388.583,388.583,0,0,1,42.867-53.374,21.5,21.5,0,0,1,6.2-5c2.383-1.085,5.323-1.128,7.36.612,3.743,3.2,2.358,9.668.5,14.463a341.738,341.738,0,0,1-16.6,36.03,110.359,110.359,0,0,1-2.107,78.72" transform="translate(-57.051 -289.312)" fill="none" stroke="#011635" stroke-linecap="round" stroke-linejoin="round" stroke-width="1.2"/>
          <path id="Path_15799" data-name="Path 15799" d="M94.582,296.254s6.3,5.639,9.719-4.53" transform="translate(-50.327 -288.598)" fill="none" stroke="#011635" stroke-linecap="round" stroke-linejoin="round" stroke-width="1.2"/>
        </g>
        <g id="Group_5081" data-name="Group 5081" transform="translate(273.931 171.837)">
          <g id="Group_5079" data-name="Group 5079" transform="translate(0 64.473)">
            <path id="Path_15800" data-name="Path 15800" d="M306.759,408.412c7.352,36.458,9.489,106.978,3.667,151.29h98.426c.176-52.969-7.837-135.562-16.02-186.146-2.383-14.736-5.318-29.9-13.249-42.063-7.83-12.018-19.938-20.017-32.665-24.789s-26.189-6.6-39.538-8.4l-20.893,6.774a231.422,231.422,0,0,0-17.3,32.165,27.352,27.352,0,0,0-.644,20.232C276.73,380.136,288.889,389.724,306.759,408.412Z" transform="translate(-266.915 -298.305)" fill="#e8614e"/>
            <path id="Path_15801" data-name="Path 15801" d="M270.7,331.191a64.573,64.573,0,0,0,15.88,18.423l4.325-46.826-1.209-.228-3.888,1.26A228.65,228.65,0,0,0,270.7,331.191Z" transform="translate(-266.237 -297.046)" fill="#c74f3e"/>
          </g>
          <g id="Group_5080" data-name="Group 5080" transform="translate(11.784)">
            <path id="Path_15802" data-name="Path 15802" d="M285.467,365.6c-4.731-26.988-6.775-70.193-8.391-98.465-.242-4.229-.453-8.646,1.1-12.525s5.476-6.963,9.184-5.8c3.837,1.2,5.572,5.984,6.693,10.19,4.634,17.355,7.953,35.135,11.534,54.035" transform="translate(-276.908 -248.558)" fill="#e8614e"/>
            <path id="Path_15803" data-name="Path 15803" d="M285.467,365.6c-4.731-26.988-6.775-70.193-8.391-98.465-.242-4.229-.453-8.646,1.1-12.525s5.476-6.963,9.184-5.8c3.837,1.2,5.572,5.984,6.693,10.19,4.634,17.355,8.945,40.232,12.526,59.131" transform="translate(-276.908 -248.558)" fill="none" stroke="#011635" stroke-linecap="round" stroke-linejoin="round" stroke-width="1.2"/>
            <path id="Path_15804" data-name="Path 15804" d="M280.187,254.135s.58,10.264,10.474,5.82" transform="translate(-276.321 -246.907)" fill="none" stroke="#011635" stroke-linecap="round" stroke-linejoin="round" stroke-width="1.2"/>
          </g>
        </g>
      </g>
      <g id="Group_5086" data-name="Group 5086" transform="translate(242.805 38.809)">
        <g id="Group_5083" data-name="Group 5083" transform="translate(5.896 6.48)" opacity="0.12" style="mix-blend-mode: multiply;isolation: isolate">
          <path id="Path_15805" data-name="Path 15805" d="M329.6,81.3c-.312-7.291-4.272-13.163-9.438-14.046a219.2,219.2,0,0,0-73.514-.111c-5.554.929-9.809,7.563-9.932,15.382-.3,19.387-.705,39.573-.3,60.753.151,7.827,4.5,14.1,10.066,14.633,5.127.492,10.263.853,15.4,1.126a130.985,130.985,0,0,0,1.213,16.406,86.069,86.069,0,0,0,13.047-15.929,362.747,362.747,0,0,0,42.693-1.919c5.559-.582,10.086-6.822,10.48-14.614C330.339,122.861,330.487,102.065,329.6,81.3Z" transform="translate(-236.243 -64.091)" fill="#011635"/>
          <path id="Path_15806" data-name="Path 15806" d="M263.257,101.563c4.31,5.842,8.622,11.686,14.755,17.272q8.615-13.089,16-27.089" transform="translate(-231.404 -55.905)" fill="none" stroke="#011635" stroke-linecap="round" stroke-linejoin="round" stroke-width="6"/>
          <path id="Path_15807" data-name="Path 15807" d="M329.6,81.3c-.312-7.291-4.272-13.163-9.438-14.046a219.2,219.2,0,0,0-73.514-.111c-5.554.929-9.809,7.563-9.932,15.382-.3,19.387-.705,39.573-.3,60.753.151,7.827,4.5,14.1,10.066,14.633,5.127.492,10.263.853,15.4,1.126a130.985,130.985,0,0,0,1.213,16.406,86.069,86.069,0,0,0,13.047-15.929,362.747,362.747,0,0,0,42.693-1.919c5.559-.582,10.086-6.822,10.48-14.614C330.339,122.861,330.487,102.065,329.6,81.3Z" transform="translate(-236.243 -64.091)" fill="none" stroke="#011635" stroke-linecap="round" stroke-linejoin="round" stroke-width="1.2"/>
        </g>
        <g id="Group_5085" data-name="Group 5085">
          <g id="Group_5084" data-name="Group 5084">
            <path id="Path_15808" data-name="Path 15808" d="M324.6,76.3c-.312-7.291-4.272-13.163-9.438-14.046a219.2,219.2,0,0,0-73.514-.111c-5.554.929-9.809,7.563-9.932,15.382-.3,19.387-.705,39.573-.3,60.753.151,7.827,4.5,14.1,10.066,14.633,5.127.492,10.263.853,15.4,1.126a131,131,0,0,0,1.213,16.406,86.071,86.071,0,0,0,13.047-15.929,362.742,362.742,0,0,0,42.692-1.919c5.559-.582,10.086-6.822,10.48-14.614C325.339,117.861,325.487,97.065,324.6,76.3Z" transform="translate(-231.243 -59.091)" fill="#fff"/>
            <path id="Path_15809" data-name="Path 15809" d="M258.257,96.563c4.31,5.842,8.622,11.686,14.755,17.272q8.616-13.089,16-27.089" transform="translate(-226.404 -50.905)" fill="none" stroke="#32e69e" stroke-linecap="round" stroke-linejoin="round" stroke-width="6"/>
            <path id="Path_15810" data-name="Path 15810" d="M324.6,76.3c-.312-7.291-4.272-13.163-9.438-14.046a219.2,219.2,0,0,0-73.514-.111c-5.554.929-9.809,7.563-9.932,15.382-.3,19.387-.705,39.573-.3,60.753.151,7.827,4.5,14.1,10.066,14.633,5.127.492,10.263.853,15.4,1.126a131,131,0,0,0,1.213,16.406,86.071,86.071,0,0,0,13.047-15.929,362.742,362.742,0,0,0,42.692-1.919c5.559-.582,10.086-6.822,10.48-14.614C325.339,117.861,325.487,97.065,324.6,76.3Z" transform="translate(-231.243 -59.091)" fill="none" stroke="#011635" stroke-linecap="round" stroke-linejoin="round" stroke-width="1.2"/>
          </g>
        </g>
      </g>
      <g id="Group_5091" data-name="Group 5091" transform="translate(1.755 202.671)">
        <g id="Group_5087" data-name="Group 5087" transform="translate(5.896 6.48)" opacity="0.12" style="mix-blend-mode: multiply;isolation: isolate">
          <path id="Path_15811" data-name="Path 15811" d="M123.961,203.8c-.441-5.671-4.476-10.228-9.62-10.9a276.754,276.754,0,0,0-72.946.1c-5.494.737-9.6,5.91-9.578,11.991.051,15.083.014,30.789.8,47.265.291,6.089,4.719,10.958,10.254,11.359,4.284.311,8.574.542,12.863.732,0,4.409-.006,8.9-.037,13.856a72.849,72.849,0,0,0,12.878-13.454,457.4,457.4,0,0,0,46.086-1.56c5.5-.465,9.885-5.333,10.136-11.394A404.935,404.935,0,0,0,123.961,203.8Z" transform="translate(-31.817 -190.527)" fill="#011635"/>
          <path id="Path_15812" data-name="Path 15812" d="M50.214,206.251l53.706-.069" transform="translate(-28.521 -185.893)" fill="none" stroke="#011635" stroke-linecap="round" stroke-linejoin="round" stroke-width="1.2"/>
          <path id="Path_15813" data-name="Path 15813" d="M49.265,221.238l52.941.092" transform="translate(-28.691 -181.437)" fill="none" stroke="#011635" stroke-linecap="round" stroke-linejoin="round" stroke-width="1.2"/>
          <path id="Path_15814" data-name="Path 15814" d="M48.649,234.51l18.328-.594" transform="translate(-28.801 -177.684)" fill="none" stroke="#011635" stroke-linecap="round" stroke-linejoin="round" stroke-width="1.2"/>
          <path id="Path_15815" data-name="Path 15815" d="M123.961,203.8c-.441-5.671-4.476-10.228-9.62-10.9a276.754,276.754,0,0,0-72.946.1c-5.494.737-9.6,5.91-9.578,11.991.051,15.083.014,30.789.8,47.265.291,6.089,4.719,10.958,10.254,11.359,4.284.311,8.574.542,12.863.732,0,4.409-.006,8.9-.037,13.856a72.849,72.849,0,0,0,12.878-13.454,457.4,457.4,0,0,0,46.086-1.56c5.5-.465,9.885-5.333,10.136-11.394A404.935,404.935,0,0,0,123.961,203.8Z" transform="translate(-31.817 -190.527)" fill="none" stroke="#011635" stroke-linecap="round" stroke-linejoin="round" stroke-width="1.2"/>
        </g>
        <g id="Group_5090" data-name="Group 5090" transform="translate(0 0)">
          <g id="Group_5089" data-name="Group 5089">
            <path id="Path_15816" data-name="Path 15816" d="M118.961,198.8c-.441-5.671-4.476-10.228-9.62-10.9a276.753,276.753,0,0,0-72.946.1c-5.494.737-9.6,5.91-9.578,11.991.051,15.083.014,30.789.8,47.265.291,6.089,4.719,10.958,10.254,11.359,4.284.311,8.574.542,12.863.732,0,4.409-.006,8.9-.037,13.855a72.848,72.848,0,0,0,12.878-13.454,457.406,457.406,0,0,0,46.086-1.56c5.5-.465,9.885-5.333,10.136-11.394A404.942,404.942,0,0,0,118.961,198.8Z" transform="translate(-26.817 -185.527)" fill="#fff"/>
            <g id="Group_5088" data-name="Group 5088" transform="translate(19.848 20.289)">
              <path id="Path_15817" data-name="Path 15817" d="M45.214,201.251l53.706-.069" transform="translate(-43.369 -201.182)" fill="none" stroke="#011635" stroke-linecap="round" stroke-linejoin="round" stroke-width="1.2"/>
              <path id="Path_15818" data-name="Path 15818" d="M44.265,216.238l52.941.092" transform="translate(-43.539 -196.725)" fill="none" stroke="#011635" stroke-linecap="round" stroke-linejoin="round" stroke-width="1.2"/>
              <path id="Path_15819" data-name="Path 15819" d="M43.649,229.51l18.328-.594" transform="translate(-43.649 -192.973)" fill="none" stroke="#011635" stroke-linecap="round" stroke-linejoin="round" stroke-width="1.2"/>
            </g>
            <path id="Path_15820" data-name="Path 15820" d="M118.961,198.8c-.441-5.671-4.476-10.228-9.62-10.9a276.753,276.753,0,0,0-72.946.1c-5.494.737-9.6,5.91-9.578,11.991.051,15.083.014,30.789.8,47.265.291,6.089,4.719,10.958,10.254,11.359,4.284.311,8.574.542,12.863.732,0,4.409-.006,8.9-.037,13.855a72.848,72.848,0,0,0,12.878-13.454,457.406,457.406,0,0,0,46.086-1.56c5.5-.465,9.885-5.333,10.136-11.394A404.942,404.942,0,0,0,118.961,198.8Z" transform="translate(-26.817 -185.527)" fill="none" stroke="#011635" stroke-linecap="round" stroke-linejoin="round" stroke-width="1.2"/>
          </g>
        </g>
      </g>
      <g id="Group_5098" data-name="Group 5098" transform="translate(424.665 315.809)">
        <g id="Group_5092" data-name="Group 5092" transform="translate(5.896 6.48)" opacity="0.12" style="mix-blend-mode: multiply;isolation: isolate">
          <path id="Path_15821" data-name="Path 15821" d="M483.263,294.065c-.285-6.607-4.2-11.978-9.319-12.847a238.285,238.285,0,0,0-72.958-1.112c-5.515.766-9.76,6.712-9.907,13.789-.362,17.548-.827,35.82-.492,55,.125,7.087,4.419,12.825,9.944,13.386,5.181.526,10.369.929,15.562,1.249.013,4.9.1,10.209.54,17.5a118.408,118.408,0,0,0,13.149-16.895,394.484,394.484,0,0,0,42.558-1.146c5.517-.451,10.032-6.038,10.448-13.086A547.069,547.069,0,0,0,483.263,294.065Z" transform="translate(-390.472 -277.825)" fill="#011635"/>
          <path id="Path_15822" data-name="Path 15822" d="M483.263,294.065c-.285-6.607-4.2-11.978-9.319-12.847a238.285,238.285,0,0,0-72.958-1.112c-5.515.766-9.76,6.712-9.907,13.789-.362,17.548-.827,35.82-.492,55,.125,7.087,4.419,12.825,9.944,13.386,5.181.526,10.369.929,15.562,1.249.013,4.9.1,10.209.54,17.5a118.408,118.408,0,0,0,13.149-16.895,394.484,394.484,0,0,0,42.558-1.146c5.517-.451,10.032-6.038,10.448-13.086A547.069,547.069,0,0,0,483.263,294.065Z" transform="translate(-390.472 -277.825)" fill="none" stroke="#011635" stroke-linecap="round" stroke-linejoin="round" stroke-width="1.2"/>
          <path id="Path_15823" data-name="Path 15823" d="M431.4,318.637l-5.576,3.222,1.065-6.824-4.511-4.833,6.234-1L431.4,303l2.788,6.209,6.234,1-4.511,4.833,1.065,6.824Z" transform="translate(-384.756 -270.374)" fill="#011635"/>
          <path id="Path_15824" data-name="Path 15824" d="M431.4,318.637l-5.576,3.222,1.065-6.824-4.511-4.833,6.234-1L431.4,303l2.788,6.209,6.234,1-4.511,4.833,1.065,6.824Z" transform="translate(-384.756 -270.374)" fill="none" stroke="#011635" stroke-linecap="round" stroke-linejoin="round" stroke-width="1.2"/>
          <path id="Path_15825" data-name="Path 15825" d="M409.57,318.637l-5.576,3.222,1.065-6.824-4.511-4.833,6.234-1L409.57,303l2.788,6.209,6.234,1-4.511,4.833,1.065,6.824Z" transform="translate(-388.667 -270.374)" fill="#011635"/>
          <path id="Path_15826" data-name="Path 15826" d="M409.57,318.637l-5.576,3.222,1.065-6.824-4.511-4.833,6.234-1L409.57,303l2.788,6.209,6.234,1-4.511,4.833,1.065,6.824Z" transform="translate(-388.667 -270.374)" fill="none" stroke="#011635" stroke-linecap="round" stroke-linejoin="round" stroke-width="1.2"/>
          <path id="Path_15827" data-name="Path 15827" d="M453.23,318.637l-5.576,3.222,1.065-6.824-4.511-4.833,6.234-1L453.23,303l2.788,6.209,6.234,1-4.511,4.833,1.065,6.824Z" transform="translate(-380.845 -270.374)" fill="#011635"/>
          <path id="Path_15828" data-name="Path 15828" d="M453.23,318.637l-5.576,3.222,1.065-6.824-4.511-4.833,6.234-1L453.23,303l2.788,6.209,6.234,1-4.511,4.833,1.065,6.824Z" transform="translate(-380.845 -270.374)" fill="none" stroke="#011635" stroke-linecap="round" stroke-linejoin="round" stroke-width="1.2"/>
        </g>
        <g id="Group_5097" data-name="Group 5097">
          <g id="Group_5096" data-name="Group 5096">
            <path id="Path_15829" data-name="Path 15829" d="M478.263,289.065c-.285-6.607-4.2-11.978-9.319-12.847a238.285,238.285,0,0,0-72.958-1.112c-5.515.766-9.76,6.712-9.907,13.789-.362,17.548-.827,35.82-.492,55,.125,7.087,4.419,12.825,9.944,13.386,5.181.526,10.37.929,15.562,1.249.013,4.9.1,10.209.54,17.5a118.409,118.409,0,0,0,13.149-16.895,394.484,394.484,0,0,0,42.558-1.146c5.517-.451,10.032-6.038,10.448-13.086A547.052,547.052,0,0,0,478.263,289.065Z" transform="translate(-385.472 -272.825)" fill="#fff"/>
            <path id="Path_15830" data-name="Path 15830" d="M478.263,289.065c-.285-6.607-4.2-11.978-9.319-12.847a238.285,238.285,0,0,0-72.958-1.112c-5.515.766-9.76,6.712-9.907,13.789-.362,17.548-.827,35.82-.492,55,.125,7.087,4.419,12.825,9.944,13.386,5.181.526,10.37.929,15.562,1.249.013,4.9.1,10.209.54,17.5a118.409,118.409,0,0,0,13.149-16.895,394.484,394.484,0,0,0,42.558-1.146c5.517-.451,10.032-6.038,10.448-13.086A547.052,547.052,0,0,0,478.263,289.065Z" transform="translate(-385.472 -272.825)" fill="none" stroke="#011635" stroke-linecap="round" stroke-linejoin="round" stroke-width="1.2"/>
            <g id="Group_5093" data-name="Group 5093" transform="translate(37.622 32.624)">
              <path id="Path_15831" data-name="Path 15831" d="M426.4,313.638l-5.576,3.222,1.065-6.824-4.511-4.833,6.234-1L426.4,298l2.788,6.209,6.234,1-4.511,4.833,1.065,6.824Z" transform="translate(-417.378 -297.998)" fill="#fc5353"/>
              <path id="Path_15832" data-name="Path 15832" d="M426.4,313.638l-5.576,3.222,1.065-6.824-4.511-4.833,6.234-1L426.4,298l2.788,6.209,6.234,1-4.511,4.833,1.065,6.824Z" transform="translate(-417.378 -297.998)" fill="none" stroke="#011635" stroke-linecap="round" stroke-linejoin="round" stroke-width="1.2"/>
            </g>
            <g id="Group_5094" data-name="Group 5094" transform="translate(11.881 32.624)">
              <path id="Path_15833" data-name="Path 15833" d="M404.57,313.638l-5.576,3.222,1.065-6.824-4.511-4.833,6.234-1L404.57,298l2.788,6.209,6.234,1-4.511,4.833,1.065,6.824Z" transform="translate(-395.548 -297.998)" fill="#fc5353"/>
              <path id="Path_15834" data-name="Path 15834" d="M404.57,313.638l-5.576,3.222,1.065-6.824-4.511-4.833,6.234-1L404.57,298l2.788,6.209,6.234,1-4.511,4.833,1.065,6.824Z" transform="translate(-395.548 -297.998)" fill="none" stroke="#011635" stroke-linecap="round" stroke-linejoin="round" stroke-width="1.2"/>
            </g>
            <g id="Group_5095" data-name="Group 5095" transform="translate(63.363 32.624)">
              <path id="Path_15835" data-name="Path 15835" d="M448.23,313.638l-5.576,3.222,1.065-6.824-4.511-4.833,6.234-1L448.23,298l2.788,6.209,6.234,1-4.511,4.833,1.065,6.824Z" transform="translate(-439.208 -297.998)" fill="#fff"/>
              <path id="Path_15836" data-name="Path 15836" d="M448.23,313.638l-5.576,3.222,1.065-6.824-4.511-4.833,6.234-1L448.23,298l2.788,6.209,6.234,1-4.511,4.833,1.065,6.824Z" transform="translate(-439.208 -297.998)" fill="none" stroke="#011635" stroke-linecap="round" stroke-linejoin="round" stroke-width="1.2"/>
            </g>
          </g>
        </g>
      </g>
    </g>
  </g>
</svg>
