<svg xmlns="http://www.w3.org/2000/svg" xmlns:xlink="http://www.w3.org/1999/xlink" width="667" height="483.303" viewBox="0 0 667 483.303">
  <defs>
    <clipPath id="clip-path">
      <path id="Path_8935" data-name="Path 8935" d="M999.579,231.015a90.494,90.494,0,0,0-59.325,5.56c-31.917,14.6-101.712,38.55-108.24-27.445-7.85-79.367-185.469-102.58-251.84-41.966-80.74,73.738-3.289,126.042-68.885,158.282S392.4,443.251,469.7,480.209c50.053,23.932,93.784,18.926,97.41,43.1,6.841,45.607,5.439,73.159,50.4,85.831,85.024,23.964,107.23-20.52,160.2-28.274s248.41,59.561,313.67-48.883c39.34-65.373-99.949-126.26-60.426-161.88C1073.014,332.191,1069.248,248.443,999.579,231.015Z" transform="translate(-431.453 -132.851)" fill="none"/>
    </clipPath>
  </defs>
  <g id="Group_4951" data-name="Group 4951" transform="translate(-431.453 -132.851)">
    <g id="Group_694" data-name="Group 694" transform="translate(431.453 132.851)">
      <g id="Group_693" data-name="Group 693" clip-path="url(#clip-path)">
        <g id="Group_662" data-name="Group 662">
          <g id="Group_661" data-name="Group 661">
            <path id="Path_8908" data-name="Path 8908" d="M999.579,231.015a90.494,90.494,0,0,0-59.325,5.56c-31.917,14.6-101.712,38.55-108.24-27.445-7.85-79.367-185.469-102.58-251.84-41.966-80.74,73.738-3.289,126.042-68.885,158.282S392.4,443.251,469.7,480.209c50.053,23.932,93.784,18.926,97.41,43.1,6.841,45.607,5.439,73.159,50.4,85.831,85.024,23.964,107.23-20.52,160.2-28.274s248.41,59.561,313.67-48.883c39.34-65.373-99.949-126.26-60.426-161.88C1073.014,332.191,1069.248,248.443,999.579,231.015Z" transform="translate(-431.453 -132.851)" fill="#e9f4f6"/>
          </g>
        </g>
        <g id="Group_664" data-name="Group 664" transform="translate(423.193 210.401)" opacity="0.7">
          <g id="Group_663" data-name="Group 663">
            <path id="Path_8909" data-name="Path 8909" d="M1811.705,1106.055c20.782,25.624,53.2,47.341,87.366,43.99,9.98-.979,20.067-4.378,26.3-11.417s7.431-18.227.858-25.357c-5.688-6.172-15.978-8.577-19.566-15.911-2.508-5.124-.735-11.19,2.8-15.611s8.6-7.578,13.42-10.837A213.371,213.371,0,0,0,1940.9,1057.3c6.778-5.711,13.481-12.418,14.629-20.857s-6.089-18.4-15.4-17.673c-4.4.345-8.118,2.867-12.251,4.206s-9.829.921-11.781-2.753a8.041,8.041,0,0,1-.61-4.661c1.265-12.1,11.548-21.741,14.174-33.619,1.3-5.868.656-11.993-.285-17.977-4.244-27-16.135-55.279-41.335-70.479-4.928-2.973-10.471-5.423-16.3-5.617-11.065-.368-20.545,7.73-24.159,17.158s-2.546,19.887-.84,29.891,4.013,20.124,2.74,30.1A49.842,49.842,0,0,1,1830.3,948.63c-2.427-3.548-4.623-7.653-8.776-9.411-6.614-2.8-14.4,2.595-15.724,9.017s1.866,12.995,5.518,18.759c9.763,15.405,23.932,30.231,23.847,47.788-.011,2.357-.484,5.015-2.624,6.284a7.976,7.976,0,0,1-5.149.6c-8.79-1.277-15.69-7.517-23.5-11.543a14.5,14.5,0,0,0-5.8-1.871c-8.115-.406-10.95,9.434-10.688,16.831.986,27.894,5.868,54.464,24.308,80.969Z" transform="translate(-1787.38 -887.861)" fill="#96ceda"/>
          </g>
        </g>
        <g id="Group_668" data-name="Group 668" transform="translate(444.76 348.47)">
          <g id="Group_665" data-name="Group 665">
            <path id="Path_8910" data-name="Path 8910" d="M1932.213,1525.094c-25.7,2.435-54.748-2.654-69.471-20.792-4.3-5.3-7.191-11.827-5.986-18.266a16.27,16.27,0,0,1,14.929-12.76c6.525-.257,13.027,3.544,19.226,1.706a12.213,12.213,0,0,0,8.076-8.955c.942-3.862.371-7.844-.021-11.761a126.162,126.162,0,0,1-.6-15.329c.134-6.055.906-12.559,5.452-17.223s14.125-6.018,18.249-1.165c1.95,2.294,2.245,5.318,3.461,7.967s4.262,5.2,7.444,4.351a7.29,7.29,0,0,0,3.121-1.975c6.7-6.5,6.724-9.9,12.667-19.839,2.291-3.832,7.671-9.534,11.755-11.993,18.424-11.094,41.375-19.119,62.934-14.345,4.216.934,8.418,2.419,11.4,5.142,5.648,5.167,5.4,13.69,1.46,20.026s-10.791,10.913-17.683,14.959-14.15,7.859-19.565,13.332a42.334,42.334,0,0,0,19.33,1.286c3.337-.555,6.9-1.492,10-.342,4.939,1.833,5.489,8.219,2.252,11.987s-8.781,5.426-14.062,6.467c-14.113,2.784-30.036,3.157-40.622,11.746-1.422,1.154-2.8,2.676-2.517,4.327a4.744,4.744,0,0,0,2.16,2.781c5.083,3.625,12.245,3.92,18.512,5.734a10.3,10.3,0,0,1,3.979,1.893c4.225,3.724-.342,9.884-4.947,13.359-17.37,13.1-35.847,23.683-60.935,27.679Z" transform="translate(-1856.481 -1383.309)" fill="#49b2a4"/>
          </g>
          <g id="Group_667" data-name="Group 667" transform="translate(37.358 23.186)">
            <g id="Group_666" data-name="Group 666">
              <path id="Path_8911" data-name="Path 8911" d="M2094.053,1468.212a224.656,224.656,0,0,0-56.834,33.63,210.511,210.511,0,0,0-42.673,46.84,188.8,188.8,0,0,0-16.475,30.665c-.449,1.059-2.273.393-1.823-.668a197.067,197.067,0,0,1,33.432-52.893,220.406,220.406,0,0,1,49.682-41.951,228.5,228.5,0,0,1,33.908-17.237c1.156-.472,1.936,1.144.783,1.615Z" transform="translate(-1976.177 -1466.512)" fill="#53ceba"/>
            </g>
          </g>
        </g>
        <g id="Group_692" data-name="Group 692" transform="translate(111.063 147.734)">
          <g id="Group_691" data-name="Group 691">
            <path id="Path_8912" data-name="Path 8912" d="M1123.9,1208.052c-14.055,5.34-49.706,7.506-87.383,8.04-13.954.208-28.208.178-41.7.03-33.292-.416-62.232-1.721-72.066-2.759-.465-.059-1-.148-1.528-.267h-.034a33.957,33.957,0,0,1-4.884-1.543c-21.564-8.4-71.568-42.779-85.955-55.15-13.323-11.451-43.027-48.327-43.027-48.327-.764-9.256,22.328-11.807,44.29,10.769,1.4,1.424,21.065,12.223,34.156,19.372.266.119.531.267.8.415,1.063.563,2.06,1.127,2.99,1.632,4.153,2.255,7.11,3.827,7.741,4.183-.531-.445-2.525-1.958-5.416-4.124q-1-.756-2.093-1.6c-.232-.178-.465-.385-.731-.564-9.436-7.209-24.255-18.6-29.8-23.526-8.14-7.209-34.156-39.07-28.408-41.622,15.35-6.734,32.295,11.837,49.506,27.234,5.98,5.34,35.385,20.944,45.618,28.153-6.413-5.874-19.736-18.363-23.756-24.059-5.35-7.624-13.955-26.789-9.9-27.916,7.41-2.047,14.088,3,30.1,21.212,13.523,15.367,47.114,24.772,55.553,29.518,16.945,9.493,51.167,2.7,105.69,2.106a115.413,115.413,0,0,1,13.257.564v.03c51.965,5.37,43.426,47.644,53.028,71.555C1131.008,1204.047,1128.715,1206.243,1123.9,1208.052Z" transform="translate(-787.305 -957.723)" fill="#f4bbab"/>
            <path id="Path_8913" data-name="Path 8913" d="M1178.261,1155.982s-14.372-25.916,0-21.726,41.181,41.691,73.08,42.747l-18.519,9.984Z" transform="translate(-1051.848 -1002.594)" fill="#f4bbab"/>
            <g id="Group_689" data-name="Group 689" transform="translate(62.107)">
              <g id="Group_685" data-name="Group 685">
                <g id="Group_671" data-name="Group 671" transform="translate(0 168.708)">
                  <g id="Group_670" data-name="Group 670">
                    <g id="Group_669" data-name="Group 669">
                      <ellipse id="Ellipse_30" data-name="Ellipse 30" cx="124.112" cy="19.985" rx="124.112" ry="19.985" transform="translate(0 8.55)" fill="#368292"/>
                      <rect id="Rectangle_125" data-name="Rectangle 125" width="248.224" height="8.55" transform="translate(0 19.985)" fill="#368292"/>
                      <path id="Path_8914" data-name="Path 8914" d="M1234.52,1288.365c0,11.036-55.565,19.986-124.11,19.986S986.3,1299.4,986.3,1288.365s55.568-19.986,124.113-19.986S1234.52,1277.328,1234.52,1288.365Z" transform="translate(-986.297 -1268.379)" fill="#5bb1c2"/>
                    </g>
                  </g>
                </g>
                <g id="Group_684" data-name="Group 684" transform="translate(15.45)">
                  <path id="Path_8915" data-name="Path 8915" d="M1229.716,734.363V883.179h-57.959l-5.166-138.2,38.013-6.39h0Z" transform="translate(-1125.771 -714.472)" fill="#4c99af"/>
                  <rect id="Rectangle_126" data-name="Rectangle 126" width="1.453" height="40.374" transform="translate(94.095 0.97)" fill="#4c99af"/>
                  <rect id="Rectangle_127" data-name="Rectangle 127" width="1.453" height="40.374" transform="translate(48.901 9.029)" fill="#4c99af"/>
                  <g id="Group_672" data-name="Group 672" transform="translate(50.035 34.758)">
                    <rect id="Rectangle_128" data-name="Rectangle 128" width="5.849" height="10.545" fill="#e9f4f6" opacity="0.5"/>
                    <rect id="Rectangle_129" data-name="Rectangle 129" width="5.849" height="10.545" transform="translate(15.185)" fill="#e9f4f6" opacity="0.5"/>
                  </g>
                  <g id="Group_673" data-name="Group 673" transform="translate(50.035 58.279)">
                    <rect id="Rectangle_130" data-name="Rectangle 130" width="5.849" height="10.545" fill="#e9f4f6" opacity="0.5"/>
                    <rect id="Rectangle_131" data-name="Rectangle 131" width="5.849" height="10.545" transform="translate(15.185)" fill="#e9f4f6" opacity="0.5"/>
                  </g>
                  <g id="Group_674" data-name="Group 674" transform="translate(50.035 88.051)">
                    <rect id="Rectangle_132" data-name="Rectangle 132" width="5.849" height="10.545" fill="#e9f4f6" opacity="0.5"/>
                    <rect id="Rectangle_133" data-name="Rectangle 133" width="5.849" height="10.545" transform="translate(15.185)" fill="#e9f4f6" opacity="0.5"/>
                  </g>
                  <g id="Group_675" data-name="Group 675" transform="translate(77.48)">
                    <path id="Path_8916" data-name="Path 8916" d="M1310.516,831.691h-16.987l-.587-10.431-1.761-31.389-2.494-44.342L1285.4,687.1l-1.353-24.113,1.357,24.113,25.109-4.221Z" transform="translate(-1284.05 -662.984)" fill="#e9f4f6" opacity="0.5"/>
                    <path id="Path_8917" data-name="Path 8917" d="M1313.506,734.363v16.029l-23.263,21.049-1.846-32.856Z" transform="translate(-1287.04 -714.472)" fill="#e9f4f6" opacity="0.5"/>
                    <path id="Path_8918" data-name="Path 8918" d="M1315.46,1286.863v0h0l-1.036-18.488Z" transform="translate(-1304.942 -1099.671)" fill="#e9f4f6" opacity="0.5"/>
                    <path id="Path_8919" data-name="Path 8919" d="M1330.113,1222.662h-16.99l-.584-10.431,17.574-7.231Z" transform="translate(-1303.648 -1053.954)" fill="#e9f4f6" opacity="0.5"/>
                  </g>
                  <path id="Path_8920" data-name="Path 8920" d="M1165.165,1026.519V1122.4H1057.781v-80.292l34.065-4.948,25.666-3.727,31.136-4.519Z" transform="translate(-1050.921 -925.212)" fill="#4c99af"/>
                  <path id="Path_8921" data-name="Path 8921" d="M1506.831,670.305l-5.4,189.871h-71.008l-11.075-197.192,47.515,3.977Z" transform="translate(-1299.641 -662.984)" fill="#4c99af"/>
                  <g id="Group_676" data-name="Group 676" transform="translate(119.708)">
                    <path id="Path_8922" data-name="Path 8922" d="M1466.864,666.961V860.176h-36.44l-11.075-197.192Z" transform="translate(-1419.349 -662.984)" fill="#e9f4f6" opacity="0.5"/>
                    <path id="Path_8923" data-name="Path 8923" d="M1466.864,679.853l-44.316,40.1-3.2-56.969,47.515,3.977Z" transform="translate(-1419.349 -662.984)" fill="#e9f4f6" opacity="0.5"/>
                    <path id="Path_8924" data-name="Path 8924" d="M1477.082,867.412,1434.2,892.988l2.491,44.345,40.389-38.011Z" transform="translate(-1429.567 -810.443)" fill="#e9f4f6" opacity="0.5"/>
                    <path id="Path_8925" data-name="Path 8925" d="M1447.83,1189.809l38.626-15.892v18.529l-37,26.282Z" transform="translate(-1438.941 -1031.533)" fill="#e9f4f6" opacity="0.5"/>
                  </g>
                  <g id="Group_677" data-name="Group 677" transform="translate(174.851 14.618)">
                    <rect id="Rectangle_134" data-name="Rectangle 134" width="5.849" height="10.545" fill="#e9f4f6" opacity="0.5"/>
                    <rect id="Rectangle_135" data-name="Rectangle 135" width="5.849" height="10.545" transform="translate(15.185)" fill="#e9f4f6" opacity="0.5"/>
                  </g>
                  <g id="Group_678" data-name="Group 678" transform="translate(174.851 41.287)">
                    <rect id="Rectangle_136" data-name="Rectangle 136" width="5.849" height="10.545" fill="#e9f4f6" opacity="0.5"/>
                    <rect id="Rectangle_137" data-name="Rectangle 137" width="5.849" height="10.545" transform="translate(15.185)" fill="#e9f4f6" opacity="0.5"/>
                  </g>
                  <g id="Group_679" data-name="Group 679" transform="translate(174.851 66.314)">
                    <rect id="Rectangle_138" data-name="Rectangle 138" width="5.849" height="10.545" fill="#e9f4f6" opacity="0.5"/>
                    <rect id="Rectangle_139" data-name="Rectangle 139" width="5.849" height="10.545" transform="translate(15.185)" fill="#e9f4f6" opacity="0.5"/>
                  </g>
                  <g id="Group_680" data-name="Group 680" transform="translate(174.851 96.035)">
                    <rect id="Rectangle_140" data-name="Rectangle 140" width="5.849" height="10.545" fill="#e9f4f6" opacity="0.5"/>
                    <rect id="Rectangle_141" data-name="Rectangle 141" width="5.849" height="10.545" transform="translate(15.185)" fill="#e9f4f6" opacity="0.5"/>
                  </g>
                  <g id="Group_681" data-name="Group 681" transform="translate(174.851 123.676)">
                    <rect id="Rectangle_142" data-name="Rectangle 142" width="5.849" height="10.545" fill="#e9f4f6" opacity="0.5"/>
                    <rect id="Rectangle_143" data-name="Rectangle 143" width="5.849" height="10.545" transform="translate(15.185)" fill="#e9f4f6" opacity="0.5"/>
                  </g>
                  <g id="Group_682" data-name="Group 682" transform="translate(39.518 180.621)">
                    <rect id="Rectangle_144" data-name="Rectangle 144" width="5.849" height="10.545" fill="#e9f4f6" opacity="0.5"/>
                    <rect id="Rectangle_145" data-name="Rectangle 145" width="5.849" height="10.545" transform="translate(15.185)" fill="#e9f4f6" opacity="0.5"/>
                  </g>
                  <g id="Group_683" data-name="Group 683" transform="translate(6.86 101.308)">
                    <path id="Path_8926" data-name="Path 8926" d="M1165.165,1026.519v65H1057.781v-49.412l34.065-4.948,25.666-3.727,31.136-4.519Z" transform="translate(-1057.781 -1026.519)" fill="#e9f4f6" opacity="0.5"/>
                    <path id="Path_8927" data-name="Path 8927" d="M1091.846,1064.717l-28.183,54.36h-5.882v-49.412Z" transform="translate(-1057.781 -1054.073)" fill="#e9f4f6" opacity="0.5"/>
                    <path id="Path_8928" data-name="Path 8928" d="M1201.208,1035.125l-43.736,62.606h-23.283l35.884-58.087Z" transform="translate(-1110.341 -1032.727)" fill="#e9f4f6" opacity="0.5"/>
                    <path id="Path_8929" data-name="Path 8929" d="M1344.517,1108.694v41.576l-.368.528h-25.642Z" transform="translate(-1237.133 -1085.794)" fill="#e9f4f6" opacity="0.5"/>
                  </g>
                  <rect id="Rectangle_146" data-name="Rectangle 146" width="114.244" height="2.812" transform="translate(0 166.312)" fill="#378a9a"/>
                  <rect id="Rectangle_147" data-name="Rectangle 147" width="12.701" height="17.823" transform="translate(71.531 179.369)" fill="#e9f4f6" opacity="0.5"/>
                  <rect id="Rectangle_148" data-name="Rectangle 148" width="12.701" height="17.823" transform="translate(21.146 179.369)" fill="#e9f4f6" opacity="0.5"/>
                  <rect id="Rectangle_149" data-name="Rectangle 149" width="12.701" height="17.823" transform="translate(92.237 179.369)" fill="#e9f4f6" opacity="0.5"/>
                </g>
              </g>
              <g id="Group_686" data-name="Group 686" transform="translate(60.804 202.388)">
                <path id="Path_8930" data-name="Path 8930" d="M1475.367,1546.652H1327.914c-5.648-13.557-29.736-84.612-33.258-87.9l-.033-.03a4.135,4.135,0,0,0-.365-.356,19.6,19.6,0,0,0-2.293-1.78,9.252,9.252,0,0,0-1.994-.979c-6.612-4.153-15.018-7.565-24.255-10.354l-.033-.03c-35.252-10.709-82.034-12.549-82.167-12.668-9.9-10.68,12.031-21.453,43.562-29.611l4.33-2.165c18.308-4.747,30.654-6.888,47.466-9.944,2.292-.416,11.662.038,13.788-.347h.033c1.794-.326,3.555-.623,5.249-.92,10.267-1.78,29.507,4.28,33.029,4.421,49.22,1.962,49.636-2.878,56.149,3.233v.029a20.058,20.058,0,0,1,2.758,3C1389.149,1401.907,1474.337,1544.635,1475.367,1546.652Z" transform="translate(-1181.115 -1389.239)" fill="#f4bbab"/>
              </g>
              <path id="Path_8931" data-name="Path 8931" d="M1214.929,1400.777c-30.2,5.84-83.013.13-113.1-7.408-7.858-1.969-16.192-2.933-23.027-6.916-6.144-3.58-10.932-8.7-15.612-13.74q-20.923-22.553-41.575-45.3c-3.819-4.207-7.271-11.212-2.2-14.182,1.825-1.07,4.158-1.067,6.341-1.027,13.777.249,28.744.879,39.27,8.819,6.973,5.261,10.995,13.078,17.787,18.525,8.181,6.561,20.239,9.021,30.8,6.284Z" transform="translate(-1007.327 -1131.271)" fill="#f4bbab"/>
              <g id="Group_687" data-name="Group 687" transform="translate(8.578 180.402)">
                <path id="Path_8932" data-name="Path 8932" d="M1192.79,1397.538c-21.585,4.113-43.775,3.193-65.387-.268-11.084-1.775-21.891-4.431-32.828-6.77-5.49-1.173-11.095-2.353-16.022-4.91-4.876-2.531-8.921-6.234-12.594-10-7.654-7.853-14.922-16.03-22.317-24.078-7.573-8.241-15.146-16.485-22.639-24.785-2.542-2.816-6.55-7.724-4.716-11.59,1.063-2.238,3.794-2.652,6.229-2.681,2.781-.032,5.582.09,8.359.209,10,.427,20.716,1.578,29.136,6.841,9.167,5.729,13.289,15.737,22.237,21.676a37.973,37.973,0,0,0,29.723,4.851c1.358-.337.551-2.158-.8-1.823-10.517,2.608-22.238.114-30.224-6.554-7.58-6.329-11.785-15.259-20.735-20.374-8.8-5.027-19.521-6.184-29.736-6.582-4.087-.159-9.77-1.085-13.468.885-3.389,1.806-3.736,5.338-2.734,8.452,1.435,4.459,5.021,7.915,8.219,11.432q5.985,6.58,11.994,13.145,12.016,13.128,24.124,26.189c7,7.556,14.059,15.422,24.708,18.9,5.293,1.729,10.862,2.647,16.3,3.927,5.689,1.34,11.39,2.625,17.139,3.743,25.022,4.864,51.041,6.922,76.282,2.112a.983.983,0,1,0-.248-1.945Z" transform="translate(-1013.782 -1310.343)" fill="#ef9f8a"/>
              </g>
              <g id="Group_688" data-name="Group 688" transform="translate(143.899 202.673)">
                <path id="Path_8933" data-name="Path 8933" d="M1550.107,1419.8c.265-14.024-16.965-20.146-29.383-23.667a157.424,157.424,0,0,0-72.621-2.985c-1.309.254-.755,2.047.554,1.793a155.9,155.9,0,0,1,44.548-2.093,153.359,153.359,0,0,1,21.97,3.753c7.009,1.729,14.25,3.759,20.581,7.011,6.579,3.38,12.4,9.018,12.269,16.187-.023,1.2,2.06,1.2,2.083,0Z" transform="translate(-1447.354 -1390.261)" fill="#ef9f8a"/>
              </g>
            </g>
            <g id="Group_690" data-name="Group 690" transform="translate(313.839 255.937)">
              <path id="Path_8934" data-name="Path 8934" d="M1792.9,1582.94a43.622,43.622,0,0,0,6.258,13.335q1.206,1.737,2.586,3.37a1.481,1.481,0,0,0,.814.559,1.538,1.538,0,0,0,1.049-.123,1.157,1.157,0,0,0,.489-1.663,44.736,44.736,0,0,1-4.266-5.984q-.925-1.557-1.711-3.176c-.03-.062-.2-.421-.088-.18q-.1-.212-.2-.425-.195-.426-.38-.855-.36-.834-.682-1.681-.718-1.887-1.245-3.825a1.4,1.4,0,0,0-1.675-.849,1.23,1.23,0,0,0-.951,1.5Z" transform="translate(-1792.856 -1581.396)" fill="#f18e7b"/>
            </g>
          </g>
        </g>
      </g>
    </g>
    <g id="Group_698" data-name="Group 698" transform="translate(679.938 176.279)">
      <path id="Path_8936" data-name="Path 8936" d="M1345.582,301.34l8.3,11.926-5.5,3.163,11.043,4.8.015.022.015-.008,12.094,5.258-1.783-22.366-6.167,3.545-8.2-11.786a18.217,18.217,0,0,0-29.129.139l-13,19.129,9.724,5.578,13.153-19.354a5.9,5.9,0,0,1,9.439-.046Z" transform="translate(-1286.532 -288.689)" fill="#49b2a4"/>
      <path id="Path_8937" data-name="Path 8937" d="M1451.536,458.825l-13.711-19.7-9.657,5.669,13.555,19.48a4.408,4.408,0,0,1,.142,5,5.5,5.5,0,0,1-4.817,2.553l-17.181.081-.125-5.757-21.764,12.319,22.257,10.386-.145-6.632,17.018-.08a17.286,17.286,0,0,0,14.868-7.88A13.706,13.706,0,0,0,1451.536,458.825Z" transform="translate(-1344.805 -397.2)" fill="#49b2a4"/>
      <path id="Path_8938" data-name="Path 8938" d="M1239.914,451.024a4.41,4.41,0,0,1,.083-5l9.114-13.41,7.211,3-2.224-22.336L1232.959,425.9l5.614,2.332-8.453,12.439a13.7,13.7,0,0,0-.258,15.437,17.334,17.334,0,0,0,14.96,7.739l28.467-.135-.061-10.316-28.467.134A5.52,5.52,0,0,1,1239.914,451.024Z" transform="translate(-1227.608 -378.555)" fill="#49b2a4"/>
      <g id="Group_695" data-name="Group 695" transform="translate(54.669 1.563)">
        <path id="Path_8939" data-name="Path 8939" d="M1410.422,295.7a8.83,8.83,0,0,0-6.579-1.2,1.84,1.84,0,0,0-.751.314c-.587.479-.307,1.4.294,1.865a10.206,10.206,0,0,0,2.118.96c2.693,1.212,3.792,4.362,6.541,5.47a2.607,2.607,0,0,0,1.668.177,1.46,1.46,0,0,0,1.033-1.061,4.16,4.16,0,0,0-.36-1.576A10.083,10.083,0,0,0,1410.422,295.7Z" transform="translate(-1402.768 -294.298)" fill="#54c6b3"/>
      </g>
      <g id="Group_696" data-name="Group 696" transform="translate(6.397 70.187)">
        <path id="Path_8940" data-name="Path 8940" d="M1251.152,548.552a8.584,8.584,0,0,0,6.242,2.207,1.913,1.913,0,0,0,.8-.192,1.223,1.223,0,0,0,.077-1.882,9.708,9.708,0,0,0-1.9-1.277c-2.414-1.615-2.877-4.888-5.365-6.409a2.553,2.553,0,0,0-1.607-.435,1.541,1.541,0,0,0-1.225.883,4.1,4.1,0,0,0,.045,1.608A9.564,9.564,0,0,0,1251.152,548.552Z" transform="translate(-1248.103 -540.55)" fill="#54c6b3"/>
      </g>
      <g id="Group_697" data-name="Group 697" transform="translate(100.963 65.357)">
        <path id="Path_8941" data-name="Path 8941" d="M1557.854,529.55a6.635,6.635,0,0,0-1.677-5.8,1.714,1.714,0,0,0-.645-.465,1.48,1.48,0,0,0-1.748,1.053,7.758,7.758,0,0,0-.039,2.121c-.041,2.693-2.732,4.954-2.644,7.645a1.966,1.966,0,0,0,.552,1.417,1.7,1.7,0,0,0,1.521.365,5.074,5.074,0,0,0,1.429-.979A9.708,9.708,0,0,0,1557.854,529.55Z" transform="translate(-1551.097 -523.22)" fill="#54c6b3"/>
      </g>
    </g>
    <g id="Group_702" data-name="Group 702" transform="translate(881.836 278.078)">
      <g id="Group_699" data-name="Group 699" transform="translate(3.583 0.439)">
        <path id="Path_8942" data-name="Path 8942" d="M1958.94,662.486s-13.025-10.9-24.548-5.345,3.006,20.848-21.041,13.952-32.4,5.67-24.466,11.574,73.812,19.476,78.321,17.5-1.241-4.288-3-9.653,11.78,3.23,13.771-5.349-18.787-10.463-17.534-14.753S1962.232,664.8,1958.94,662.486Z" transform="translate(-1885.978 -655.562)" fill="#fff"/>
      </g>
      <g id="Group_700" data-name="Group 700" transform="translate(4.039)">
        <path id="Path_8943" data-name="Path 8943" d="M1887.929,669.59a.525.525,0,0,1-.253-.062.414.414,0,0,1-.167-.6c1.973-2.918,14.312-7.045,24.167-3.076,5.671,2.281,10.555,2.695,13.064,1.1a3.623,3.623,0,0,0,1.653-3.643c-.516-5.278,3.721-9.043,3.9-9.2a.53.53,0,0,1,.692.006.407.407,0,0,1-.007.619c-.041.035-4.087,3.642-3.612,8.5a4.42,4.42,0,0,1-2.06,4.433c-2.84,1.8-7.956,1.428-14.034-1.02-9.215-3.71-21.135.081-22.925,2.729A.5.5,0,0,1,1887.929,669.59Z" transform="translate(-1887.439 -653.987)" fill="#fff"/>
      </g>
      <g id="Group_701" data-name="Group 701" transform="translate(0 24.198)">
        <path id="Path_8944" data-name="Path 8944" d="M1902.782,754.825a.739.739,0,0,1-.08,0c-.649-.1-16.014-2.371-22.274-5.342-6.483-3.074-5.933-8.06-5.908-8.271a.484.484,0,0,1,.541-.385.453.453,0,0,1,.434.482c-.023.187-.48,4.615,5.392,7.4,6.119,2.9,21.816,5.227,21.975,5.249a.448.448,0,0,1,.4.5A.478.478,0,0,1,1902.782,754.825Z" transform="translate(-1874.499 -740.819)" fill="#fff"/>
      </g>
    </g>
    <g id="Group_706" data-name="Group 706" transform="translate(584.377 197.375)">
      <g id="Group_703" data-name="Group 703" transform="translate(2.648 0.325)">
        <path id="Path_8945" data-name="Path 8945" d="M983.833,370.673s-9.627-8.058-18.142-3.95,2.222,15.408-15.55,10.311-23.944,4.191-18.081,8.553,54.551,14.394,57.883,12.933-.917-3.169-2.217-7.134,8.706,2.387,10.178-3.953-13.884-7.733-12.959-10.9S986.266,372.38,983.833,370.673Z" transform="translate(-929.91 -365.556)" fill="#fff"/>
      </g>
      <g id="Group_704" data-name="Group 704" transform="translate(2.985 0)">
        <path id="Path_8946" data-name="Path 8946" d="M931.352,375.923a.387.387,0,0,1-.187-.046.305.305,0,0,1-.124-.444c1.458-2.157,10.577-5.206,17.861-2.273,4.191,1.686,7.8,1.991,9.655.816a2.678,2.678,0,0,0,1.222-2.693c-.381-3.9,2.75-6.683,2.884-6.8a.392.392,0,0,1,.512,0,.3.3,0,0,1-.005.458c-.03.026-3.021,2.691-2.67,6.28a3.266,3.266,0,0,1-1.523,3.276c-2.1,1.329-5.88,1.055-10.372-.754-6.811-2.742-15.62.06-16.943,2.017A.373.373,0,0,1,931.352,375.923Z" transform="translate(-930.99 -364.392)" fill="#fff"/>
      </g>
      <g id="Group_705" data-name="Group 705" transform="translate(0 17.883)">
        <path id="Path_8947" data-name="Path 8947" d="M942.329,438.916a.565.565,0,0,1-.059,0c-.48-.071-11.835-1.752-16.461-3.948-4.791-2.272-4.384-5.956-4.366-6.113a.357.357,0,0,1,.4-.284.334.334,0,0,1,.321.356c-.017.139-.355,3.411,3.985,5.471,4.522,2.145,16.124,3.863,16.24,3.879a.331.331,0,0,1,.3.372A.354.354,0,0,1,942.329,438.916Z" transform="translate(-921.427 -428.565)" fill="#fff"/>
      </g>
    </g>
    <g id="Group_710" data-name="Group 710" transform="translate(569.452 302.913)">
      <g id="Group_707" data-name="Group 707" transform="translate(2.117 0.259)">
        <path id="Path_8948" data-name="Path 8948" d="M923.513,748.129s-7.7-6.444-14.508-3.159,1.776,12.322-12.436,8.246-19.149,3.351-14.46,6.84S925.733,771.567,928.4,770.4s-.733-2.534-1.773-5.705,6.963,1.909,8.139-3.162-11.1-6.184-10.363-8.719S925.459,749.494,923.513,748.129Z" transform="translate(-880.391 -744.036)" fill="#fff"/>
      </g>
      <g id="Group_708" data-name="Group 708" transform="translate(2.387)">
        <path id="Path_8949" data-name="Path 8949" d="M881.544,752.328a.31.31,0,0,1-.15-.037.244.244,0,0,1-.1-.355c1.166-1.725,8.458-4.164,14.283-1.818,3.351,1.348,6.238,1.592,7.721.653a2.142,2.142,0,0,0,.977-2.153,6.984,6.984,0,0,1,2.306-5.437.314.314,0,0,1,.409,0,.241.241,0,0,1,0,.366,6.6,6.6,0,0,0-2.135,5.023,2.612,2.612,0,0,1-1.218,2.62c-1.679,1.063-4.7.844-8.295-.6-5.446-2.192-12.491.048-13.549,1.613A.3.3,0,0,1,881.544,752.328Z" transform="translate(-881.255 -743.106)" fill="#fff"/>
      </g>
      <g id="Group_709" data-name="Group 709" transform="translate(0 14.301)">
        <path id="Path_8950" data-name="Path 8950" d="M890.323,802.7l-.047,0c-.384-.056-9.465-1.4-13.164-3.157-3.831-1.817-3.506-4.763-3.492-4.889a.286.286,0,0,1,.32-.227.267.267,0,0,1,.257.285c-.013.111-.284,2.728,3.187,4.375,3.617,1.715,12.894,3.089,12.988,3.1a.265.265,0,0,1,.239.3A.282.282,0,0,1,890.323,802.7Z" transform="translate(-873.607 -794.425)" fill="#fff"/>
      </g>
    </g>
  </g>
</svg>
