<svg xmlns="http://www.w3.org/2000/svg" xmlns:xlink="http://www.w3.org/1999/xlink" width="382.288" height="362.434" viewBox="0 0 382.288 362.434">
  <defs>
    <clipPath id="clip-path">
      <path id="Path_16560" data-name="Path 16560" d="M225.765,162.645s11.936-13.782,29.345-13.782c0,0,.58-10.707,12.462-13.013s14.193,8.371,14.193,8.371,8.783-4.688,20.57,0,9.4,18.385,9.4,18.385,34.016-1.118,39.852,5.164H198.71S201.8,160.084,225.765,162.645Z" transform="translate(-198.71 -135.524)" fill="none" stroke="#263238" stroke-linecap="round" stroke-linejoin="round" stroke-width="1"/>
    </clipPath>
    <clipPath id="clip-path-2">
      <path id="Path_16563" data-name="Path 16563" d="M327.967,70.769s-9.52-10.993-23.406-10.993A11.685,11.685,0,0,0,294.622,49.4c-9.477-1.84-11.321,6.676-11.321,6.676s-7-3.739-16.406,0-7.5,14.664-7.5,14.664-27.131-.892-31.785,4.119H349.545S347.084,68.726,327.967,70.769Z" transform="translate(-227.612 -49.138)" fill="none" stroke="#263238" stroke-linecap="round" stroke-linejoin="round" stroke-width="1"/>
    </clipPath>
    <clipPath id="clip-path-3">
      <path id="Path_16566" data-name="Path 16566" d="M88.093,115.2s5.655-6.529,13.9-6.529a6.942,6.942,0,0,1,5.9-6.165,5.394,5.394,0,0,1,6.724,3.965,12.218,12.218,0,0,1,9.745,0c5.584,2.222,4.454,8.71,4.454,8.71s16.114-.53,18.878,2.447H75.276S76.738,113.988,88.093,115.2Z" transform="translate(-75.276 -102.353)" fill="none" stroke="#263238" stroke-linecap="round" stroke-linejoin="round" stroke-width="1"/>
    </clipPath>
    <clipPath id="clip-path-4">
      <path id="Path_16569" data-name="Path 16569" d="M186.913,286.209s5.655-6.529,13.9-6.529a6.941,6.941,0,0,1,5.9-6.165,5.393,5.393,0,0,1,6.724,3.965,12.218,12.218,0,0,1,9.745,0c5.584,2.222,4.453,8.71,4.453,8.71s16.115-.53,18.879,2.447H174.1S175.558,285,186.913,286.209Z" transform="translate(-174.096 -273.361)" fill="none" stroke="#263238" stroke-linecap="round" stroke-linejoin="round" stroke-width="1"/>
    </clipPath>
    <clipPath id="clip-path-5">
      <path id="Path_16586" data-name="Path 16586" d="M30.84,307.678s1.7,4.52,6.984,11.475c6.888,9.057,19.858,22.236,43.064,34.876,41.013,22.333,66.97,59.442,66.97,59.442l23.863-76.611s-10.613-.777-25.545-11.458c-10.148-7.256-22.294-19.076-34.449-38.337C81.686,239.479,50.251,229.16,50.251,229.16" transform="translate(-30.84 -229.16)" fill="#fff" stroke="#263238" stroke-linecap="round" stroke-linejoin="round" stroke-width="1"/>
    </clipPath>
    <clipPath id="clip-path-6">
      <path id="Path_16593" data-name="Path 16593" d="M445.721,299.678s-1.7,4.52-6.984,11.475c-6.888,9.057-19.858,22.236-43.064,34.876-41.013,22.333-66.97,59.442-66.97,59.442L304.84,328.861s10.613-.777,25.545-11.458c10.148-7.256,22.294-19.076,34.449-38.337,30.041-47.587,61.476-57.906,61.476-57.906" transform="translate(-304.84 -221.16)" fill="#fff" stroke="#263238" stroke-linecap="round" stroke-linejoin="round" stroke-width="1"/>
    </clipPath>
    <clipPath id="clip-path-7">
      <path id="Path_16617" data-name="Path 16617" d="M254.785,246.551s-13.96-8.106-2.519-37.384,45.816-38.161,53.59-46.99C305.856,162.177,302.72,252.1,254.785,246.551Z" transform="translate(-247.761 -162.177)" fill="#92e3a9" stroke="#263238" stroke-linecap="round" stroke-linejoin="round" stroke-width="1"/>
    </clipPath>
    <clipPath id="clip-path-8">
      <path id="Path_16625" data-name="Path 16625" d="M236.794,325.9s5.956-105.715,56.527-145.685c0,0-46.916,39.04-49.336,145.685Z" transform="translate(-236.794 -180.213)" fill="#92e3a9" stroke="#263238" stroke-linecap="round" stroke-linejoin="round" stroke-width="1"/>
    </clipPath>
    <clipPath id="clip-path-9">
      <path id="Path_16629" data-name="Path 16629" d="M224.945,210.383s12.486-7.25,2.253-33.437-40.978-34.131-47.931-42.028C179.267,134.918,182.071,215.348,224.945,210.383Z" transform="translate(-179.267 -134.918)" fill="#92e3a9" stroke="#263238" stroke-linecap="round" stroke-linejoin="round" stroke-width="1"/>
    </clipPath>
    <clipPath id="clip-path-10">
      <path id="Path_16637" data-name="Path 16637" d="M239.149,277.063S235.908,186.8,190.676,151.05c0,0,43.553,39.29,44.184,140.395,0,0,1.422.282,2.186-2.046" transform="translate(-190.676 -151.05)" fill="#92e3a9" stroke="#263238" stroke-linecap="round" stroke-linejoin="round" stroke-width="1"/>
    </clipPath>
  </defs>
  <g id="Group_7651" data-name="Group 7651" transform="translate(-30.196 -48.63)">
    <g id="Background_Simple" data-name="Background Simple" transform="translate(57.079 61.088)">
      <g id="Group_7612" data-name="Group 7612" transform="translate(0)">
        <path id="Path_16557" data-name="Path 16557" d="M77.73,146.75c25.259-46.842,88.792-101.515,175.958-78.741s146.053,70.953,136.4,154.779S329.733,376.254,220.5,378.294,22.346,249.452,77.73,146.75Z" transform="translate(-60.781 -62.675)" fill="#92e3a9"/>
        <path id="Path_16558" data-name="Path 16558" d="M77.73,146.75c25.259-46.842,88.792-101.515,175.958-78.741s146.053,70.953,136.4,154.779S329.733,376.254,220.5,378.294,22.346,249.452,77.73,146.75Z" transform="translate(-60.781 -62.675)" fill="#fff" opacity="0.7"/>
      </g>
    </g>
    <g id="Clouds" transform="translate(69.781 49.138)">
      <g id="Group_7621" data-name="Group 7621">
        <g id="Group_7614" data-name="Group 7614" transform="translate(108.171 76.254)">
          <g id="Group_7613" data-name="Group 7613" clip-path="url(#clip-path)">
            <path id="Path_16559" data-name="Path 16559" d="M225.765,162.645s11.936-13.782,29.345-13.782c0,0,.58-10.707,12.462-13.013s14.193,8.371,14.193,8.371,8.783-4.688,20.57,0,9.4,18.385,9.4,18.385,34.016-1.118,39.852,5.164H198.71S201.8,160.084,225.765,162.645Z" transform="translate(-198.71 -135.524)" fill="none" stroke="#263238" stroke-linecap="round" stroke-linejoin="round" stroke-width="1" opacity="0.5"/>
          </g>
          <path id="Path_16561" data-name="Path 16561" d="M225.765,162.645s11.936-13.782,29.345-13.782c0,0,.58-10.707,12.462-13.013s14.193,8.371,14.193,8.371,8.783-4.688,20.57,0,9.4,18.385,9.4,18.385,34.016-1.118,39.852,5.164H198.71S201.8,160.084,225.765,162.645Z" transform="translate(-198.71 -135.524)" fill="none" stroke="#263238" stroke-linecap="round" stroke-linejoin="round" stroke-width="1"/>
        </g>
        <g id="Group_7616" data-name="Group 7616" transform="translate(133.499)">
          <g id="Group_7615" data-name="Group 7615" clip-path="url(#clip-path-2)">
            <path id="Path_16562" data-name="Path 16562" d="M327.967,70.769s-9.52-10.993-23.406-10.993A11.685,11.685,0,0,0,294.622,49.4c-9.477-1.84-11.321,6.676-11.321,6.676s-7-3.739-16.406,0-7.5,14.664-7.5,14.664-27.131-.892-31.785,4.119H349.545S347.084,68.726,327.967,70.769Z" transform="translate(-227.612 -49.138)" fill="none" stroke="#263238" stroke-linecap="round" stroke-linejoin="round" stroke-width="1" opacity="0.5"/>
          </g>
          <path id="Path_16564" data-name="Path 16564" d="M327.967,70.769s-9.52-10.993-23.406-10.993A11.685,11.685,0,0,0,294.622,49.4c-9.477-1.84-11.321,6.676-11.321,6.676s-7-3.739-16.406,0-7.5,14.664-7.5,14.664-27.131-.892-31.785,4.119H349.545S347.084,68.726,327.967,70.769Z" transform="translate(-227.612 -49.138)" fill="none" stroke="#263238" stroke-linecap="round" stroke-linejoin="round" stroke-width="1"/>
        </g>
        <g id="Group_7618" data-name="Group 7618" transform="translate(0 46.974)">
          <g id="Group_7617" data-name="Group 7617" clip-path="url(#clip-path-3)">
            <path id="Path_16565" data-name="Path 16565" d="M88.093,115.2s5.655-6.529,13.9-6.529a6.942,6.942,0,0,1,5.9-6.165,5.394,5.394,0,0,1,6.724,3.965,12.218,12.218,0,0,1,9.745,0c5.584,2.222,4.454,8.71,4.454,8.71s16.114-.53,18.878,2.447H75.276S76.738,113.988,88.093,115.2Z" transform="translate(-75.276 -102.353)" fill="none" stroke="#263238" stroke-linecap="round" stroke-linejoin="round" stroke-width="1" opacity="0.5"/>
          </g>
          <path id="Path_16567" data-name="Path 16567" d="M88.093,115.2s5.655-6.529,13.9-6.529a6.942,6.942,0,0,1,5.9-6.165,5.394,5.394,0,0,1,6.724,3.965,12.218,12.218,0,0,1,9.745,0c5.584,2.222,4.454,8.71,4.454,8.71s16.114-.53,18.878,2.447H75.276S76.738,113.988,88.093,115.2Z" transform="translate(-75.276 -102.353)" fill="none" stroke="#263238" stroke-linecap="round" stroke-linejoin="round" stroke-width="1"/>
        </g>
        <g id="Group_7620" data-name="Group 7620" transform="translate(86.6 197.926)">
          <g id="Group_7619" data-name="Group 7619" clip-path="url(#clip-path-4)">
            <path id="Path_16568" data-name="Path 16568" d="M186.913,286.209s5.655-6.529,13.9-6.529a6.941,6.941,0,0,1,5.9-6.165,5.393,5.393,0,0,1,6.724,3.965,12.218,12.218,0,0,1,9.745,0c5.584,2.222,4.453,8.71,4.453,8.71s16.115-.53,18.879,2.447H174.1S175.558,285,186.913,286.209Z" transform="translate(-174.096 -273.361)" fill="none" stroke="#263238" stroke-linecap="round" stroke-linejoin="round" stroke-width="1" opacity="0.5"/>
          </g>
          <path id="Path_16570" data-name="Path 16570" d="M186.913,286.209s5.655-6.529,13.9-6.529a6.941,6.941,0,0,1,5.9-6.165,5.393,5.393,0,0,1,6.724,3.965,12.218,12.218,0,0,1,9.745,0c5.584,2.222,4.453,8.71,4.453,8.71s16.115-.53,18.879,2.447H174.1S175.558,285,186.913,286.209Z" transform="translate(-174.096 -273.361)" fill="none" stroke="#263238" stroke-linecap="round" stroke-linejoin="round" stroke-width="1"/>
        </g>
      </g>
    </g>
    <g id="Wind_turbines" data-name="Wind turbines" transform="translate(75.768 139.798)">
      <g id="Group_7626" data-name="Group 7626">
        <g id="Group_7622" data-name="Group 7622">
          <path id="Path_16571" data-name="Path 16571" d="M113.868,192.045l-.088-13.772a1.861,1.861,0,1,0-3.722,0l-.028,4.511" transform="translate(-85.56 -154.724)" fill="none" stroke="#263238" stroke-linecap="round" stroke-linejoin="round" stroke-width="1"/>
          <line id="Line_351" data-name="Line 351" x1="0.032" y2="5.051" transform="translate(24.356 41.004)" fill="none" stroke="#263238" stroke-linecap="round" stroke-linejoin="round" stroke-width="1"/>
          <line id="Line_352" data-name="Line 352" x1="0.689" y1="108.386" transform="translate(28.396 51.249)" fill="none" stroke="#263238" stroke-linecap="round" stroke-linejoin="round" stroke-width="1"/>
          <line id="Line_353" data-name="Line 353" x1="0.661" y2="104.056" transform="translate(23.634 55.579)" fill="none" stroke="#263238" stroke-linecap="round" stroke-linejoin="round" stroke-width="1"/>
          <path id="Path_16572" data-name="Path 16572" d="M155.656,198.794l-39.8-8.56-2.185,3.115-1.591-.169L95.25,152.567a1.165,1.165,0,0,0-1.527-.633,1.179,1.179,0,0,0-.67,1.421l11.639,39.283,3.761.437.6,1.44L82.35,229.42a1.181,1.181,0,0,0,.212,1.649,1.161,1.161,0,0,0,1.557-.12l28.093-29.66-1.489-3.507.989-1.293,43.577,4.625a1.176,1.176,0,0,0,.366-2.319Z" transform="translate(-82.107 -151.843)" fill="none" stroke="#263238" stroke-linecap="round" stroke-linejoin="round" stroke-width="1"/>
          <ellipse id="Ellipse_198" data-name="Ellipse 198" cx="1.141" cy="1.149" rx="1.141" ry="1.149" transform="translate(27.944 41.566)" fill="none" stroke="#263238" stroke-linecap="round" stroke-linejoin="round" stroke-width="1"/>
        </g>
        <g id="Group_7623" data-name="Group 7623" transform="translate(42.558 55.399)">
          <path id="Path_16573" data-name="Path 16573" d="M155.794,246.4l-.069-10.9a1.472,1.472,0,1,0-2.944,0l-.023,3.569" transform="translate(-133.401 -216.882)" fill="none" stroke="#263238" stroke-linecap="round" stroke-linejoin="round" stroke-width="1"/>
          <line id="Line_354" data-name="Line 354" x1="0.025" y2="3.995" transform="translate(19.266 32.435)" fill="none" stroke="#263238" stroke-linecap="round" stroke-linejoin="round" stroke-width="1"/>
          <line id="Line_355" data-name="Line 355" x1="0.545" y1="85.737" transform="translate(22.462 40.54)" fill="none" stroke="#263238" stroke-linecap="round" stroke-linejoin="round" stroke-width="1"/>
          <line id="Line_356" data-name="Line 356" x1="0.523" y2="82.312" transform="translate(18.695 43.965)" fill="none" stroke="#263238" stroke-linecap="round" stroke-linejoin="round" stroke-width="1"/>
          <path id="Path_16574" data-name="Path 16574" d="M188.85,251.743l-31.484-6.771-1.728,2.465-1.258-.133-13.313-32.127a.921.921,0,0,0-1.208-.5.932.932,0,0,0-.529,1.125l9.206,31.074,2.976.345.471,1.139-21.122,27.612a.934.934,0,0,0,.168,1.3.918.918,0,0,0,1.231-.094l22.223-23.463-1.178-2.774.782-1.022,34.472,3.658a.93.93,0,0,0,.289-1.834Z" transform="translate(-130.67 -214.603)" fill="none" stroke="#263238" stroke-linecap="round" stroke-linejoin="round" stroke-width="1"/>
          <path id="Path_16575" data-name="Path 16575" d="M157.7,252.759a.9.9,0,1,1-.9-.908A.906.906,0,0,1,157.7,252.759Z" transform="translate(-133.789 -218.971)" fill="none" stroke="#263238" stroke-linecap="round" stroke-linejoin="round" stroke-width="1"/>
        </g>
        <g id="Group_7624" data-name="Group 7624" transform="translate(211.029)">
          <path id="Path_16576" data-name="Path 16576" d="M375.591,192.045l.088-13.772a1.86,1.86,0,1,1,3.721,0l.029,4.511" transform="translate(-329.426 -154.724)" fill="none" stroke="#263238" stroke-linecap="round" stroke-linejoin="round" stroke-width="1"/>
          <line id="Line_357" data-name="Line 357" x2="0.032" y2="5.051" transform="translate(50.084 41.004)" fill="none" stroke="#263238" stroke-linecap="round" stroke-linejoin="round" stroke-width="1"/>
          <line id="Line_358" data-name="Line 358" y1="108.386" x2="0.689" transform="translate(45.387 51.249)" fill="none" stroke="#263238" stroke-linecap="round" stroke-linejoin="round" stroke-width="1"/>
          <line id="Line_359" data-name="Line 359" x2="0.661" y2="104.056" transform="translate(50.177 55.579)" fill="none" stroke="#263238" stroke-linecap="round" stroke-linejoin="round" stroke-width="1"/>
          <path id="Path_16577" data-name="Path 16577" d="M323.836,198.794l39.8-8.56,2.186,3.115,1.591-.169,16.828-40.614a1.165,1.165,0,0,1,1.527-.633,1.18,1.18,0,0,1,.67,1.421L374.8,192.638l-3.761.437-.6,1.44,26.7,34.905a1.182,1.182,0,0,1-.212,1.649,1.161,1.161,0,0,1-1.557-.12l-28.093-29.66,1.489-3.507-.989-1.293L324.2,201.113a1.176,1.176,0,0,1-.366-2.319Z" transform="translate(-322.913 -151.843)" fill="none" stroke="#263238" stroke-linecap="round" stroke-linejoin="round" stroke-width="1"/>
          <ellipse id="Ellipse_199" data-name="Ellipse 199" cx="1.141" cy="1.149" rx="1.141" ry="1.149" transform="translate(44.247 41.566)" fill="none" stroke="#263238" stroke-linecap="round" stroke-linejoin="round" stroke-width="1"/>
        </g>
        <g id="Group_7625" data-name="Group 7625" transform="translate(184.033 55.399)">
          <path id="Path_16578" data-name="Path 16578" d="M333.778,246.4l.069-10.9a1.472,1.472,0,1,1,2.944,0l.023,3.569" transform="translate(-297.26 -216.882)" fill="none" stroke="#263238" stroke-linecap="round" stroke-linejoin="round" stroke-width="1"/>
          <line id="Line_360" data-name="Line 360" x2="0.025" y2="3.995" transform="translate(39.619 32.435)" fill="none" stroke="#263238" stroke-linecap="round" stroke-linejoin="round" stroke-width="1"/>
          <line id="Line_361" data-name="Line 361" y1="85.737" x2="0.545" transform="translate(35.903 40.54)" fill="none" stroke="#263238" stroke-linecap="round" stroke-linejoin="round" stroke-width="1"/>
          <line id="Line_362" data-name="Line 362" x2="0.523" y2="82.312" transform="translate(39.692 43.965)" fill="none" stroke="#263238" stroke-linecap="round" stroke-linejoin="round" stroke-width="1"/>
          <path id="Path_16579" data-name="Path 16579" d="M292.838,251.743l31.484-6.771,1.729,2.465,1.258-.133,13.313-32.127a.921.921,0,0,1,1.208-.5.932.932,0,0,1,.529,1.125l-9.206,31.074-2.976.345-.471,1.139,21.122,27.612a.934.934,0,0,1-.168,1.3.918.918,0,0,1-1.231-.094L327.2,253.715l1.178-2.774-.782-1.022-34.472,3.658a.93.93,0,0,1-.289-1.834Z" transform="translate(-292.107 -214.603)" fill="none" stroke="#263238" stroke-linecap="round" stroke-linejoin="round" stroke-width="1"/>
          <path id="Path_16580" data-name="Path 16580" d="M332.047,252.759a.9.9,0,1,0,.9-.908A.906.906,0,0,0,332.047,252.759Z" transform="translate(-297.046 -218.971)" fill="none" stroke="#263238" stroke-linecap="round" stroke-linejoin="round" stroke-width="1"/>
        </g>
      </g>
    </g>
    <g id="Hands" transform="translate(30.84 124.858)">
      <g id="Group_7650" data-name="Group 7650">
        <g id="Group_7628" data-name="Group 7628" transform="translate(0 83.189)">
          <path id="Path_16581" data-name="Path 16581" d="M30.84,307.678s1.7,4.52,6.984,11.475c6.888,9.057,19.858,22.236,43.064,34.876,41.013,22.333,66.97,59.442,66.97,59.442l23.863-76.611s-10.613-.777-25.545-11.458c-10.148-7.256-22.294-19.076-34.449-38.337C81.686,239.479,50.251,229.16,50.251,229.16" transform="translate(-30.84 -229.16)" fill="#fff"/>
          <g id="Group_7627" data-name="Group 7627" clip-path="url(#clip-path-5)">
            <path id="Path_16582" data-name="Path 16582" d="M38.81,331.11c6.888,9.057,19.858,22.236,43.064,34.876,41.013,22.333,66.97,59.442,66.97,59.442l23.863-76.611s-10.613-.777-25.545-11.458c-12.225-.335-37.567,8.024-50.51,20.617C96.651,357.976,66.748,342.709,38.81,331.11Z" transform="translate(-31.826 -241.117)" fill="#92e3a9" opacity="0.4"/>
            <path id="Path_16583" data-name="Path 16583" d="M128.855,349.792s14.584,12.689,22.817,13.106" transform="translate(-42.96 -243.308)" fill="none" stroke="#263238" stroke-linecap="round" stroke-linejoin="round" stroke-width="1"/>
            <path id="Path_16584" data-name="Path 16584" d="M80.022,366.459c10.4,5.1,25.655,10.788,31.2,13.7" transform="translate(-36.922 -245.262)" fill="none" stroke="#263238" stroke-linecap="round" stroke-linejoin="round" stroke-width="1"/>
            <path id="Path_16585" data-name="Path 16585" d="M125.516,298.648a111.192,111.192,0,0,0,9.954,16.762" transform="translate(-42.547 -237.31)" fill="none" stroke="#263238" stroke-linecap="round" stroke-linejoin="round" stroke-width="1"/>
          </g>
          <path id="Path_16587" data-name="Path 16587" d="M30.84,307.678s1.7,4.52,6.984,11.475c6.888,9.057,19.858,22.236,43.064,34.876,41.013,22.333,66.97,59.442,66.97,59.442l23.863-76.611s-10.613-.777-25.545-11.458c-10.148-7.256-22.294-19.076-34.449-38.337C81.686,239.479,50.251,229.16,50.251,229.16" transform="translate(-30.84 -229.16)" fill="none" stroke="#263238" stroke-linecap="round" stroke-linejoin="round" stroke-width="1"/>
        </g>
        <g id="Group_7630" data-name="Group 7630" transform="translate(240.119 76.128)">
          <path id="Path_16588" data-name="Path 16588" d="M445.721,299.678s-1.7,4.52-6.984,11.475c-6.888,9.057-19.858,22.236-43.064,34.876-41.013,22.333-66.97,59.442-66.97,59.442L304.84,328.861s10.613-.777,25.545-11.458c10.148-7.256,22.294-19.076,34.449-38.337,30.041-47.587,61.476-57.906,61.476-57.906" transform="translate(-304.84 -221.16)" fill="#fff"/>
          <g id="Group_7629" data-name="Group 7629" clip-path="url(#clip-path-6)">
            <path id="Path_16589" data-name="Path 16589" d="M438.737,323.11c-6.888,9.057-19.858,22.236-43.064,34.876-41.013,22.333-66.97,59.442-66.97,59.442L304.84,340.817s10.613-.777,25.545-11.458c12.225-.335,33.984,5.353,44.9,22.946C375.281,352.306,410.8,334.709,438.737,323.11Z" transform="translate(-304.84 -233.117)" fill="#92e3a9" opacity="0.4"/>
            <path id="Path_16590" data-name="Path 16590" d="M346.825,326.776s-7.119,11.663-25.531,18.985" transform="translate(-306.875 -233.547)" fill="none" stroke="#263238" stroke-linecap="round" stroke-linejoin="round" stroke-width="1"/>
            <path id="Path_16591" data-name="Path 16591" d="M409.749,360.535c-4.4,1.84-22.534,7.583-26.694,10.526" transform="translate(-314.512 -237.506)" fill="none" stroke="#263238" stroke-linecap="round" stroke-linejoin="round" stroke-width="1"/>
            <path id="Path_16592" data-name="Path 16592" d="M373.56,293.469s4.142-15.016,10.218-24.095" transform="translate(-313.338 -226.815)" fill="none" stroke="#263238" stroke-linecap="round" stroke-linejoin="round" stroke-width="1"/>
          </g>
          <path id="Path_16594" data-name="Path 16594" d="M445.721,299.678s-1.7,4.52-6.984,11.475c-6.888,9.057-19.858,22.236-43.064,34.876-41.013,22.333-66.97,59.442-66.97,59.442L304.84,328.861s10.613-.777,25.545-11.458c10.148-7.256,22.294-19.076,34.449-38.337,30.041-47.587,61.476-57.906,61.476-57.906" transform="translate(-304.84 -221.16)" fill="none" stroke="#263238" stroke-linecap="round" stroke-linejoin="round" stroke-width="1"/>
        </g>
        <g id="Group_7632" data-name="Group 7632" transform="translate(85.895 180.514)">
          <path id="Path_16595" data-name="Path 16595" d="M203.311,368.122l-25.613,3.1s-17.884,5.492-22.2,9.405-10,14.4-10,14.4-6.291,1.2-9.519.031a2.749,2.749,0,0,1-1.689-1.386,13.811,13.811,0,0,1-.86-3.077,40.468,40.468,0,0,1-.142-9.965s-4.2-6.053-4.4-8.539c-.192-2.384.718-12.7,3.257-15.559a2.674,2.674,0,0,1,.344-.336c2.8-2.262,18.805-9.426,18.805-9.426s3.6-5.451,12.412-7.061,27.807,4.035,27.807,4.035l2.762,5.7Z" transform="translate(-128.855 -339.416)" fill="#fff"/>
          <path id="Path_16596" data-name="Path 16596" d="M133.423,392.863a40.468,40.468,0,0,1-.142-9.965s-4.2-6.053-4.4-8.539c-.192-2.384.718-12.7,3.257-15.559-2.944,5.91-2.357,14.927,1.74,12.054,5.007-3.505,10.166,3.658,10.166,3.658C138.6,377.365,134.626,387.086,133.423,392.863Z" transform="translate(-128.855 -341.689)" fill="#92e3a9" opacity="0.4"/>
          <path id="Path_16597" data-name="Path 16597" d="M204.315,369.449l-25.613,3.1s-17.884,5.492-22.2,9.405-10,14.4-10,14.4-6.291,1.2-9.519.031c2.965-.907,7.263-4.239,8.073-8.733,1.163-6.388,11.846-12.145,11.441-17.1s-8.6-13.032-8.6-13.032c4.805-1.05,9.135,1.956,9.135,1.956a27.644,27.644,0,0,0-6.535-5.767c9.408-1.029,11.208,5.675,11.208,5.675,2.63.591,8.8-1.864,8.8-1.864a13.373,13.373,0,0,1,1.952-6.786l3.055,4.809c3.318,0,14.465-3.2,19.766-4.778Z" transform="translate(-129.859 -340.743)" fill="#92e3a9" opacity="0.4"/>
          <g id="Group_7631" data-name="Group 7631" transform="translate(0 0.002)">
            <path id="Path_16598" data-name="Path 16598" d="M134.282,393.671c1.376,3.224,11.2,1.356,11.2,1.356s5.685-10.493,10-14.406,22.21-9.4,22.21-9.4l25.611-3.093-11.805-24.387s-19.009-5.643-27.813-4.031-12.406,7.054-12.406,7.054-16.007,7.166-18.808,9.427-3.8,13.41-3.6,15.9,4.4,8.534,4.4,8.534S132.281,388.985,134.282,393.671Z" transform="translate(-128.855 -339.418)" fill="none" stroke="#263238" stroke-linecap="round" stroke-linejoin="round" stroke-width="1"/>
            <path id="Path_16599" data-name="Path 16599" d="M135.491,395.641s1.6-9.07,9.2-12.4c0,0,.8-5.4-1.2-7.892s-7.8,2.349-8,7.892S135.491,395.641,135.491,395.641Z" transform="translate(-129.665 -343.554)" fill="none" stroke="#263238" stroke-linecap="round" stroke-linejoin="round" stroke-width="1"/>
            <path id="Path_16600" data-name="Path 16600" d="M154.455,360.535s13.341,6.036,6.37,21.051" transform="translate(-132.02 -341.894)" fill="none" stroke="#263238" stroke-linecap="round" stroke-linejoin="round" stroke-width="1"/>
            <path id="Path_16601" data-name="Path 16601" d="M159.848,357.326s11.341,9.854,3.008,22.26" transform="translate(-132.687 -341.518)" fill="none" stroke="#263238" stroke-linecap="round" stroke-linejoin="round" stroke-width="1"/>
            <path id="Path_16602" data-name="Path 16602" d="M177.39,355.063a45.165,45.165,0,0,0,0,13.128" transform="translate(-134.799 -341.253)" fill="none" stroke="#263238" stroke-linecap="round" stroke-linejoin="round" stroke-width="1"/>
            <path id="Path_16603" data-name="Path 16603" d="M138.592,372.459s-2.4,1.154-4,7.2" transform="translate(-129.564 -343.293)" fill="none" stroke="#263238" stroke-linecap="round" stroke-linejoin="round" stroke-width="1"/>
            <path id="Path_16604" data-name="Path 16604" d="M136.14,360.535s-3.4.462-5.2,7.245" transform="translate(-129.112 -341.894)" fill="none" stroke="#263238" stroke-linecap="round" stroke-linejoin="round" stroke-width="1"/>
          </g>
        </g>
        <g id="Group_7634" data-name="Group 7634" transform="translate(217.378 174.575)">
          <path id="Path_16605" data-name="Path 16605" d="M351.527,367.333c-2.8,1.814-4.279,5.615-4.279,5.615s.527,6.888,0,8.7-4.329,5.237-7.333,3.322-4.553-8.966-12.331-12.023L278.9,353.425a30.731,30.731,0,0,1,5.857-6.256,47.71,47.71,0,0,1,11.9-7.244c12.655-5.441,28.061-8.865,35.567-6.45,4.227,1.366,9.316,6.123,13.241,10.811,3.035,3.617,5.362,7.2,6.07,9.14C353.125,357.868,354.328,365.52,351.527,367.333Z" transform="translate(-278.892 -332.687)" fill="#fff"/>
          <path id="Path_16606" data-name="Path 16606" d="M351.527,368.326c-2.8,1.814-4.279,5.615-4.279,5.615s.527,6.888,0,8.7-4.329,5.237-7.333,3.322-4.553-8.966-12.331-12.023L278.9,354.418a30.731,30.731,0,0,1,5.857-6.256c6.666-.041,15.446.632,22.649,3.638,0,0-.5-5.452,2.306-4.83,0,0-.708-5.512,2.317-5.787s2.316,1.752,2.316,1.752.031,5.553,2.438,6.674,1.011-6.542,5.705-7.612c0,0,.263,8.63,3.015,11.433,0,0-3.126,9.1,1.143,13.612s12.281,9.884,14.01,9.751-4.734-8.06-4.734-8.06.122-8.009,5.028-9.578,9.175,2.456,9.175,2.456a57.913,57.913,0,0,0-4.664-16.334c3.035,3.617,5.362,7.2,6.07,9.14C353.125,358.861,354.328,366.513,351.527,368.326Z" transform="translate(-278.892 -333.681)" fill="#92e3a9" opacity="0.4"/>
          <g id="Group_7633" data-name="Group 7633" transform="translate(0 0)">
            <path id="Path_16607" data-name="Path 16607" d="M278.891,353.429s5.094-8.062,17.754-13.5,28.068-8.868,35.571-6.449S349.922,349,351.523,353.429s2.8,12.092,0,13.906-4.277,5.61-4.277,5.61.524,6.886,0,8.7-4.326,5.24-7.328,3.325-4.56-8.962-12.339-12.025" transform="translate(-278.891 -332.688)" fill="none" stroke="#263238" stroke-linecap="round" stroke-linejoin="round" stroke-width="1"/>
            <path id="Path_16608" data-name="Path 16608" d="M343.964,371.4s.6-7.861,4.4-7.457,6.651,8.667,6.927,18.038C355.293,381.984,351.169,373.822,343.964,371.4Z" transform="translate(-286.938 -336.352)" fill="none" stroke="#263238" stroke-linecap="round" stroke-linejoin="round" stroke-width="1"/>
            <path id="Path_16609" data-name="Path 16609" d="M329.662,372.836s-4.4-14.178,5-19.619" transform="translate(-285.042 -335.095)" fill="none" stroke="#263238" stroke-linecap="round" stroke-linejoin="round" stroke-width="1"/>
            <path id="Path_16610" data-name="Path 16610" d="M326.505,344.312s-3.631,12.162,0,18.98c0,0-8.576-6.484-15.078-3.662" transform="translate(-282.914 -334.051)" fill="none" stroke="#263238" stroke-linecap="round" stroke-linejoin="round" stroke-width="1"/>
            <path id="Path_16611" data-name="Path 16611" d="M319.568,359.391s-1.237-4.732-1.037-7.352-3.268-5.643-1.934-8.868" transform="translate(-283.516 -333.917)" fill="none" stroke="#263238" stroke-linecap="round" stroke-linejoin="round" stroke-width="1"/>
            <path id="Path_16612" data-name="Path 16612" d="M314.053,349.792s2.863,6.567,4.632,7.616" transform="translate(-283.239 -334.694)" fill="none" stroke="#263238" stroke-linecap="round" stroke-linejoin="round" stroke-width="1"/>
            <path id="Path_16613" data-name="Path 16613" d="M321.29,367.278s3.609-1.613,6.437,0" transform="translate(-284.134 -336.66)" fill="none" stroke="#263238" stroke-linecap="round" stroke-linejoin="round" stroke-width="1"/>
            <path id="Path_16614" data-name="Path 16614" d="M353.1,354.106s5.8-.493,7.2,11.353" transform="translate(-288.067 -335.199)" fill="none" stroke="#263238" stroke-linecap="round" stroke-linejoin="round" stroke-width="1"/>
          </g>
        </g>
        <g id="Group_7645" data-name="Group 7645" transform="translate(114.084)">
          <g id="Group_7639" data-name="Group 7639" transform="translate(66.403 24.062)">
            <g id="Group_7636" data-name="Group 7636" transform="translate(9.611)">
              <path id="Path_16615" data-name="Path 16615" d="M254.785,246.551s-13.96-8.106-2.519-37.384,45.816-38.161,53.59-46.99C305.856,162.177,302.72,252.1,254.785,246.551Z" transform="translate(-247.761 -162.177)" fill="#92e3a9"/>
              <g id="Group_7635" data-name="Group 7635" clip-path="url(#clip-path-7)">
                <path id="Path_16616" data-name="Path 16616" d="M299.763,171.7c-3.926,7.512-16.011,16.992-29.287,39.8a209.008,209.008,0,0,0-16.142,35.847c-2.112-1.571-10.656-9.516-4.189-30.939.254,7.591,2.927,11.855,2.927,11.855C252.23,198.782,299.763,171.7,299.763,171.7Z" transform="translate(-247.761 -163.294)" fill="rgba(0,0,0,0.7)" opacity="0.3"/>
              </g>
              <path id="Path_16618" data-name="Path 16618" d="M254.785,246.551s-13.96-8.106-2.519-37.384,45.816-38.161,53.59-46.99C305.856,162.177,302.72,252.1,254.785,246.551Z" transform="translate(-247.761 -162.177)" fill="none" stroke="#263238" stroke-linecap="round" stroke-linejoin="round" stroke-width="1"/>
            </g>
            <path id="Path_16619" data-name="Path 16619" d="M257.187,216.791s-2.172,15.646,2.822,25.842l2.494-6.519s17.334-.465,26.348-11.64" transform="translate(-239.258 -168.582)" fill="none" stroke="#263238" stroke-linecap="round" stroke-linejoin="round" stroke-width="1"/>
            <path id="Path_16620" data-name="Path 16620" d="M267.763,201.758s-3.93,14.667-1.156,24.91l1.156-5.122s21.725-5.666,26.348-12.417" transform="translate(-240.358 -166.819)" fill="none" stroke="#263238" stroke-linecap="round" stroke-linejoin="round" stroke-width="1"/>
            <path id="Path_16621" data-name="Path 16621" d="M280.182,190.945s-5.252,10.942-5.133,20.021l2.565-4.423s18.356-3.492,21.591-9.312" transform="translate(-241.524 -165.551)" fill="none" stroke="#263238" stroke-linecap="round" stroke-linejoin="round" stroke-width="1"/>
            <path id="Path_16622" data-name="Path 16622" d="M292.2,180.3c-3.836,5.333-8.382,17.261-8.382,17.261l4.191-4.8s10.359-2.725,14.227-7.819" transform="translate(-242.609 -164.302)" fill="none" stroke="#263238" stroke-linecap="round" stroke-linejoin="round" stroke-width="1"/>
            <g id="Group_7638" data-name="Group 7638" transform="translate(0 15.921)">
              <path id="Path_16623" data-name="Path 16623" d="M236.794,325.9s5.956-105.715,56.527-145.685c0,0-46.916,39.04-49.336,145.685Z" transform="translate(-236.794 -180.213)" fill="#92e3a9"/>
              <g id="Group_7637" data-name="Group 7637" clip-path="url(#clip-path-8)">
                <path id="Path_16624" data-name="Path 16624" d="M236.794,325.9s5.956-105.715,56.527-145.685c0,0-46.916,39.04-49.336,145.685Z" transform="translate(-236.794 -180.213)" fill="rgba(0,0,0,0.7)" opacity="0.3"/>
              </g>
              <path id="Path_16626" data-name="Path 16626" d="M236.794,325.9s5.956-105.715,56.527-145.685c0,0-46.916,39.04-49.336,145.685Z" transform="translate(-236.794 -180.213)" fill="none" stroke="#263238" stroke-linecap="round" stroke-linejoin="round" stroke-width="1"/>
            </g>
          </g>
          <g id="Group_7644" data-name="Group 7644" transform="translate(15.99)">
            <g id="Group_7641" data-name="Group 7641">
              <path id="Path_16627" data-name="Path 16627" d="M224.945,210.383s12.486-7.25,2.253-33.437-40.978-34.131-47.931-42.028C179.267,134.918,182.071,215.348,224.945,210.383Z" transform="translate(-179.267 -134.918)" fill="#92e3a9"/>
              <g id="Group_7640" data-name="Group 7640" clip-path="url(#clip-path-9)">
                <path id="Path_16628" data-name="Path 16628" d="M227.856,177.772a27.477,27.477,0,0,0-1.967-4.09c-1.571-2.624,2.383,5.2,2.463,11.534a10.516,10.516,0,0,1-3.676,8.383c-.79-4.15-1.218-8.507-3.182-12.24-10.046-19.094-33.5-36.405-37.223-39.26.4.512,13.242,16.745,20.839,26.129,4.076,5.039,6.785,11.4,9.462,17.251,3.4,7.442,6.451,15.031,9.477,22.633l1.267,3.185c3.4-2.141,5.3-6.107,6.053-10.074,1.291-6.772-.251-13.77-2.4-20.317C228.624,179.854,228.261,178.8,227.856,177.772Z" transform="translate(-179.886 -135.76)" fill="rgba(0,0,0,0.7)" opacity="0.3"/>
              </g>
              <path id="Path_16630" data-name="Path 16630" d="M224.945,210.383s12.486-7.25,2.253-33.437-40.978-34.131-47.931-42.028C179.267,134.918,182.071,215.348,224.945,210.383Z" transform="translate(-179.267 -134.918)" fill="none" stroke="#263238" stroke-linecap="round" stroke-linejoin="round" stroke-width="1"/>
            </g>
            <path id="Path_16631" data-name="Path 16631" d="M226.073,183.766s1.943,13.994-2.524,23.112l-2.23-5.83s-15.5-.416-23.566-10.411" transform="translate(-181.553 -140.647)" fill="none" stroke="#263238" stroke-linecap="round" stroke-linejoin="round" stroke-width="1"/>
            <path id="Path_16632" data-name="Path 16632" d="M217.073,170.32s3.514,13.118,1.033,22.28l-1.033-4.58s-19.432-5.068-23.566-11.106" transform="translate(-181.028 -139.07)" fill="none" stroke="#263238" stroke-linecap="round" stroke-linejoin="round" stroke-width="1"/>
            <path id="Path_16633" data-name="Path 16633" d="M206.512,160.649s4.7,9.786,4.59,17.907l-2.294-3.956s-16.417-3.123-19.311-8.328" transform="translate(-180.532 -137.936)" fill="none" stroke="#263238" stroke-linecap="round" stroke-linejoin="round" stroke-width="1"/>
            <path id="Path_16634" data-name="Path 16634" d="M196.486,151.124c3.43,4.769,7.5,15.438,7.5,15.438l-3.748-4.291s-9.266-2.437-12.725-6.994" transform="translate(-180.286 -136.819)" fill="none" stroke="#263238" stroke-linecap="round" stroke-linejoin="round" stroke-width="1"/>
            <g id="Group_7643" data-name="Group 7643" transform="translate(9.998 14.24)">
              <path id="Path_16635" data-name="Path 16635" d="M239.149,277.063S235.908,186.8,190.676,151.05c0,0,43.553,39.29,44.184,140.395,0,0,1.422.282,2.186-2.046" transform="translate(-190.676 -151.05)" fill="#92e3a9"/>
              <g id="Group_7642" data-name="Group 7642" clip-path="url(#clip-path-10)">
                <path id="Path_16636" data-name="Path 16636" d="M239.149,277.063S235.908,186.8,190.676,151.05c0,0,43.553,39.29,44.184,140.395,0,0,1.422.282,2.186-2.046" transform="translate(-190.676 -151.05)" fill="rgba(0,0,0,0.7)" opacity="0.3"/>
              </g>
              <path id="Path_16638" data-name="Path 16638" d="M239.149,277.063S235.908,186.8,190.676,151.05c0,0,43.553,39.29,44.184,140.395,0,0,1.422.282,2.186-2.046" transform="translate(-190.676 -151.05)" fill="none" stroke="#263238" stroke-linecap="round" stroke-linejoin="round" stroke-width="1"/>
            </g>
          </g>
          <path id="Path_16639" data-name="Path 16639" d="M162.364,379.03s-3.022-2.4,0-9.908c2.314-5.742,9.833-5.461,10.248-11.491,3.088.385,5.553-1.672,7.144-4.186s2.886-5.532,5.551-6.857c.827-.41,1.74-.628,2.555-1.063,3.16-1.689,4.256-6.277,7.68-7.318,2.017-.613,4.342.227,6.229-.718,1.953-.976,2.762-3.55,4.765-4.417a18.309,18.309,0,0,1,2.668-.608c3.551-.938,5.835-5.328,9.5-5.2,1.066.038,2.2.469,3.152-.011.744-.374,1.184-1.231,1.962-1.525a3.684,3.684,0,0,1,2,.077,10.568,10.568,0,0,0,6.169-.51c1.716-.805,2.156-3.149,3.223-3.677,4.252-2.108,9.025,6.113,11.481,8.169,1.439,1.2,3.059-1.882,4.929-1.809,1.7.066,2.566,2.714,4.251,2.5-.779.621-.337,1.989.522,2.49a7.14,7.14,0,0,0,2.9.556c2.422.261,4.605,1.535,6.7,2.78a2.782,2.782,0,0,1,.965.79c.254.387.307.882.571,1.261.549.786,1.833.844,2.243,1.712a6.09,6.09,0,0,1,.222,1.376c.277,1.307,1.806,1.9,3.129,1.993s2.751-.056,3.88.643a14.211,14.211,0,0,1,2.114,2.184c2.637,2.568,5.681,2.429,8.11,5.679,2.541,3.4,4.256,7.109,7.89,9.564,6.155,4.16,7.881,10.016,9.561,15.47s-22.108,19-70.075,22.472S161.728,382.7,162.364,379.03Z" transform="translate(-161.021 -156.774)" fill="#263238"/>
          <path id="Path_16640" data-name="Path 16640" d="M213.658,343.532c1.075.275,2.668.212,2.763-.9a2.352,2.352,0,0,1,.049-.743c.286-.656,1.285-.151,1.978-.314.516-.122.827-.632,1.208-1.005a2.781,2.781,0,0,1,3.579-.17c.61.493,1.007,1.252,1.706,1.6,1.289.651,3.427-.08,3.9,1.291" transform="translate(-167.53 -158.95)" fill="none" stroke="#fff" stroke-linecap="round" stroke-linejoin="round" stroke-width="1" opacity="0.4"/>
          <path id="Path_16641" data-name="Path 16641" d="M234.751,351.105a2.356,2.356,0,0,0,3.5-1.212c.1-.353.136-.769.432-.982.46-.331,1.068.108,1.631.166,1.11.115,1.738-1.191,2.482-2.029a3.714,3.714,0,0,1,6.345,1.418l6.606,1.76" transform="translate(-170.138 -159.65)" fill="none" stroke="#fff" stroke-linecap="round" stroke-linejoin="round" stroke-width="1" opacity="0.4"/>
          <path id="Path_16642" data-name="Path 16642" d="M247.651,335.463a10.618,10.618,0,0,1,3.466-.509,1.953,1.953,0,0,1,.519-2.176,1.92,1.92,0,0,1,2.216-.154,2.676,2.676,0,0,1,3.994.442l.259,1.117a14.42,14.42,0,0,1,4.724,2.644" transform="translate(-171.733 -158.023)" fill="none" stroke="#fff" stroke-linecap="round" stroke-linejoin="round" stroke-width="1" opacity="0.4"/>
          <path id="Path_16643" data-name="Path 16643" d="M268.582,344.844l1.733.517c-.289-.457.256-1.024.784-1.125a4.66,4.66,0,0,0,1.577-.275c.521-.314.681-.988,1.019-1.5s1.2-.806,1.488-.265c-.068-.573.556-1.033,1.13-1.013a3.009,3.009,0,0,1,1.548.691l4.489,3.147" transform="translate(-174.322 -159.109)" fill="none" stroke="#fff" stroke-linecap="round" stroke-linejoin="round" stroke-width="1" opacity="0.4"/>
        </g>
        <g id="Group_7647" data-name="Group 7647" transform="translate(97.301 184.665)">
          <path id="Path_16644" data-name="Path 16644" d="M145.362,395.576s5.069-9.029,11.739-14.4,11.471-12.257,17.341-19.565,14.406-16.579,18.675-17.318,13.873.639,14.94,9.49c0,0,6.537-7.982,15.673-2.388s4.6,16.075,4.6,16.075,3.323-1.344,5.4,0,7.96,72.485,7.96,72.485a70.116,70.116,0,0,0-9.889,3.3c-5.069,2.149-11.471,2.418-15.74,0,0,0-8,2.085-13.34,1.714s-19.741-.64-24.811-1.983a103.356,103.356,0,0,1-16.274-6.285,24.037,24.037,0,0,1-9.071-9.262c-1.6-3.263-4.535-4.332-9.07-9.843S145.362,395.576,145.362,395.576Z" transform="translate(-141.87 -344.118)" fill="#fff"/>
          <path id="Path_16645" data-name="Path 16645" d="M233.73,368.438c-2-1.293-5.17-.092-5.392-.01a15.965,15.965,0,0,0,.87-3.108l-5.482,11.626s-8.467,11.106-11.5,16.079-.435,5.5-4.168,13.429-9.174,23.089-14.941,24.322-18.016-3-20.292-8.936,3.217-10.138,9.954-18.738,9.539-11.83,9-15.825c-.516-3.872,13.171-28.03,14.01-29.5-.355.472-2.469,3.33-5.116,6.848a51.051,51.051,0,0,0,3.047-6.92l-12.605-5.35s-12.406,13.293-5.737,18.379c3.667,2.8,7.294,2.844,10.669-.022-2.669,3.472-5.221,6.7-6.666,8.289-4.006,4.392-4.8,9.313-6.605,12.206s-8.933,14.917-15.083,19.257S157.9,416,152.9,413.281c-3.419-1.855-5.544-12.084-6.555-18.371-.638,1.009-.982,1.63-.982,1.63s-6.4,16.507-1.861,22.019,7.466,6.573,9.064,9.843a24.133,24.133,0,0,0,9.074,9.261,103.876,103.876,0,0,0,16.275,6.288c5.068,1.335,19.473,1.609,24.814,1.976s13.333-1.712,13.333-1.712c4.269,2.414,10.672,2.149,15.74,0a72.3,72.3,0,0,1,9-3.077c.283-.367.546-.744.819-1.121C240.932,431.795,235.662,369.682,233.73,368.438Z" transform="translate(-141.87 -345.084)" fill="#92e3a9" opacity="0.4"/>
          <path id="Path_16646" data-name="Path 16646" d="M221.5,358.42s-12.742,14.823-3.935,21.295,18.247-5.866,18.661-16.078Z" transform="translate(-150.847 -345.795)" fill="#92e3a9" opacity="0.4"/>
          <g id="Group_7646" data-name="Group 7646" transform="translate(0 0)">
            <path id="Path_16647" data-name="Path 16647" d="M241.691,439.948l-.89.224a72.3,72.3,0,0,0-9,3.077c-5.068,2.149-11.471,2.414-15.74,0,0,0-8,2.089-13.333,1.712s-19.746-.642-24.814-1.976a103.876,103.876,0,0,1-16.275-6.288,24.133,24.133,0,0,1-9.074-9.261c-1.6-3.271-4.532-4.331-9.064-9.843s1.861-22.019,1.861-22.019.344-.621.982-1.63c1.79-2.853,5.836-8.8,10.762-12.767,6.666-5.38,11.471-12.258,17.338-19.573s14.4-16.578,18.673-17.312,13.879.642,14.941,9.487c0,0,6.535-7.979,15.67-2.384,5.988,3.668,6.11,9.425,5.482,12.96a15.965,15.965,0,0,1-.87,3.108c.223-.082,3.389-1.283,5.392.01,1.931,1.244,7.2,63.357,7.89,71.58C241.66,439.632,241.691,439.948,241.691,439.948Z" transform="translate(-141.87 -344.118)" fill="none" stroke="#263238" stroke-linecap="round" stroke-linejoin="round" stroke-width="1"/>
            <path id="Path_16648" data-name="Path 16648" d="M210.262,355.063c-2.935,2.4-18.942,32.835-21.943,36.463s-11.206,13.966-14.807,17.766a44.663,44.663,0,0,0-6.4,9.581,63.268,63.268,0,0,1-7.4,6.409" transform="translate(-144.076 -345.401)" fill="none" stroke="#263238" stroke-linecap="round" stroke-linejoin="round" stroke-width="1"/>
            <path id="Path_16649" data-name="Path 16649" d="M234.322,370.569a133.94,133.94,0,0,0-7,13.705c-2.6,6.248-10.138,22.17-13.272,28.216s-8.137,19.953-11.739,22.17-8.8,7.256-12.005,6.853" transform="translate(-147.859 -347.22)" fill="none" stroke="#263238" stroke-linecap="round" stroke-linejoin="round" stroke-width="1"/>
            <path id="Path_16650" data-name="Path 16650" d="M193.442,452.67s-.893-1.982,0-2.442" transform="translate(-148.198 -356.562)" fill="none" stroke="#263238" stroke-linecap="round" stroke-linejoin="round" stroke-width="1"/>
            <path id="Path_16651" data-name="Path 16651" d="M229.1,446.519s7.211-6.944,8.216-12.021,15.162-45.017,15.162-45.017" transform="translate(-152.656 -349.438)" fill="none" stroke="#263238" stroke-linecap="round" stroke-linejoin="round" stroke-width="1"/>
            <path id="Path_16652" data-name="Path 16652" d="M197.345,352.356s8.2-.536,12.605,5.351c0,0-6.6,16.57-14.607,12.337S197.345,352.356,197.345,352.356Z" transform="translate(-148.099 -345.083)" fill="#fff" stroke="#263238" stroke-linecap="round" stroke-linejoin="round" stroke-width="1"/>
            <path id="Path_16653" data-name="Path 16653" d="M221.722,358.42a23.709,23.709,0,0,1,14.726,5.217s-4.321,18.608-14.726,15.787S218.321,364.424,221.722,358.42Z" transform="translate(-151.067 -345.795)" fill="#fff" stroke="#263238" stroke-linecap="round" stroke-linejoin="round" stroke-width="1"/>
            <path id="Path_16654" data-name="Path 16654" d="M242.244,376.427s-4.6,6.99-4,12.1,7.4,4.155,7.4,4.155" transform="translate(-153.78 -347.907)" fill="none" stroke="#263238" stroke-linecap="round" stroke-linejoin="round" stroke-width="1"/>
            <path id="Path_16655" data-name="Path 16655" d="M203.544,396.37s5.655,4.223,11.131,5.336" transform="translate(-149.496 -350.246)" fill="none" stroke="#263238" stroke-linecap="round" stroke-linejoin="round" stroke-width="1"/>
            <path id="Path_16656" data-name="Path 16656" d="M149.432,405.046s.8,9.674,2.8,13.1,15.455,3.225,15.455,3.225" transform="translate(-142.805 -351.263)" fill="none" stroke="#263238" stroke-linecap="round" stroke-linejoin="round" stroke-width="1"/>
            <path id="Path_16657" data-name="Path 16657" d="M174.091,431.075a21.036,21.036,0,0,0,9.8,8.935c7,3.158,11.868,1.747,11.868,1.747" transform="translate(-145.854 -354.316)" fill="none" stroke="#263238" stroke-linecap="round" stroke-linejoin="round" stroke-width="1"/>
            <path id="Path_16658" data-name="Path 16658" d="M212.449,447.049s10.6,4.9,17.007,1.043" transform="translate(-150.598 -356.19)" fill="none" stroke="#263238" stroke-linecap="round" stroke-linejoin="round" stroke-width="1"/>
            <path id="Path_16659" data-name="Path 16659" d="M178.657,378.294s2.264,5.332,6.835,6.512" transform="translate(-146.419 -348.126)" fill="none" stroke="#263238" stroke-linecap="round" stroke-linejoin="round" stroke-width="1"/>
            <path id="Path_16660" data-name="Path 16660" d="M229.1,416.5a12.975,12.975,0,0,0,7.966,2.993" transform="translate(-152.656 -352.606)" fill="none" stroke="#263238" stroke-linecap="round" stroke-linejoin="round" stroke-width="1"/>
          </g>
        </g>
        <g id="Group_7649" data-name="Group 7649" transform="translate(173.742 190.504)">
          <path id="Path_16661" data-name="Path 16661" d="M330.357,414.6s-6.4,11.686-13.2,14.916-12.413,2.018-16.408,4.433-10.8,3.627-20.009,5.237-18.472,3.627-25.046,2.425a23.123,23.123,0,0,1-6.515-2.313,47.887,47.887,0,0,1-11.866-9.344c-3.267-3.383-2.994-8.855-.789-12.5a7.4,7.4,0,0,1,4.592-3.658s-2.2-1.763-4.683-4c-2.691-2.415-5.685-5.4-6.515-7.285-1.608-3.627-1.2-10.077,4.4-15.722a16.065,16.065,0,0,1,12.4-4.829s-8.568-7.072-5.2-15.325c1.214-2.985,3.389-6.928,10-8.059,9.468-1.61,14.809,3.831,14.809,3.831s-1.5-9.466,8.052-11.483,30.357,13.3,34.363,15.314c2.882,1.447,7.4,4.768,11.653,7.408.344.214.688.427,1.022.631,1.173.713,2.316,1.356,3.378,1.865,4.957,3.627,6.454,9.353,8.953,10.953a4.21,4.21,0,0,0,4.552-.245c.172.255.323.5.456.744C340.766,391.214,345.571,406.539,330.357,414.6Z" transform="translate(-229.098 -350.733)" fill="#fff"/>
          <path id="Path_16662" data-name="Path 16662" d="M331.392,417.5s-6.4,11.686-13.2,14.916-12.413,2.018-16.408,4.433-10.8,3.627-20.009,5.237-18.472,3.627-25.046,2.425a23.123,23.123,0,0,1-6.515-2.313c4.966-.388,8.77-2.894,10.55-6.654,2.2-4.656-4.34-5.013-5.907-2.059s-10.966,1.885-9.306,0-1.66-11.554-3.4-12.859c-.748-.57-2.67-.519-4.592-.275a7.4,7.4,0,0,1,4.592-3.658s-2.2-1.763-4.683-4l6.13,3.669s13.13,11.483,20.322,17.127,20.787,4.3,24.358,0-12.645-17.729-17.713-21.8c-4.906-3.943-7.07-10.535-7.192-10.943.425.408,13.707,13.358,21.061,22,7.486,8.783,15.284,6.184,23.752,2.2s3.732-15.366,1.031-18.076-14.638-13.145-16.509-16.314c-1.811-3.057-14.941-14.366-15.76-15.07.9.581,15.295,9.985,17.359,12.36,2.134,2.445,7.475,6.144,15.507,11.952s14.112,12.471,20.049,0c4.077-8.579-3.378-18.127-8.426-23.252.344.214.688.427,1.022.631,1.173.713,2.316,1.356,3.378,1.865,4.957,3.627,6.454,9.353,8.953,10.953a4.21,4.21,0,0,0,4.552-.245c.172.255.323.5.456.744C341.8,394.116,346.606,409.441,331.392,417.5Z" transform="translate(-230.133 -353.635)" fill="#92e3a9" opacity="0.4"/>
          <path id="Path_16663" data-name="Path 16663" d="M252.034,379.736a19.3,19.3,0,0,1,13.006-11.489s9.8,6.853,9.8,12.5-3.78,10.008-10.794,7.826S252.034,379.736,252.034,379.736Z" transform="translate(-231.934 -352.787)" fill="#92e3a9" opacity="0.4"/>
          <path id="Path_16664" data-name="Path 16664" d="M278.891,364.191s4.011-5.24,10.2-6.853c0,0,12.915,9.876,8.058,15.116S280.892,371.043,278.891,364.191Z" transform="translate(-235.255 -351.508)" fill="#92e3a9" opacity="0.4"/>
          <path id="Path_16665" data-name="Path 16665" d="M236.794,407.827s4.936-7.788,12.206-9.876c0,0,15.007,8.532,7.4,15.251S238.595,411.455,236.794,407.827Z" transform="translate(-230.05 -356.271)" fill="#92e3a9" opacity="0.4"/>
          <g id="Group_7648" data-name="Group 7648">
            <path id="Path_16666" data-name="Path 16666" d="M330.357,414.6s-6.4,11.686-13.2,14.916-12.413,2.018-16.408,4.433-10.8,3.627-20.009,5.237-18.472,3.627-25.046,2.425-12.767-5.859-18.38-11.656c-4.926-5.1-1.8-14.948,3.8-16.16,0,0-9.6-7.663-11.2-11.29s-1.2-10.077,4.4-15.722a16.065,16.065,0,0,1,12.4-4.829s-8.568-7.072-5.2-15.325c1.214-2.985,3.389-6.928,10-8.059,9.468-1.61,14.809,3.831,14.809,3.831s-1.5-9.466,8.052-11.483,30.357,13.3,34.363,15.314c3.115,1.569,8.153,5.318,12.675,8.039,1.173.713,2.316,1.356,3.378,1.865,4.957,3.627,6.454,9.353,8.953,10.953a4.21,4.21,0,0,0,4.552-.245c.172.255.323.5.456.744C340.766,391.214,345.571,406.539,330.357,414.6Z" transform="translate(-229.098 -350.733)" fill="none" stroke="#263238" stroke-linecap="round" stroke-linejoin="round" stroke-width="1"/>
            <path id="Path_16667" data-name="Path 16667" d="M271.585,363.948c1.334,3.157,13.513,14.176,18.762,17.4s19.922,19.348,24.191,21.5,8,8.868,13.072,10.481" transform="translate(-234.352 -352.283)" fill="none" stroke="#263238" stroke-linecap="round" stroke-linejoin="round" stroke-width="1"/>
            <path id="Path_16668" data-name="Path 16668" d="M249.209,386.1c7.337,6.181,15.607,16.661,19.609,19.618s13.072,13.168,17.074,18.273,6.67,8.6,22.41,10.749" transform="translate(-231.585 -354.88)" fill="none" stroke="#263238" stroke-linecap="round" stroke-linejoin="round" stroke-width="1"/>
            <path id="Path_16669" data-name="Path 16669" d="M320.812,423.54s-1.066,9.675-15.74,11.556" transform="translate(-238.493 -359.272)" fill="none" stroke="#263238" stroke-linecap="round" stroke-linejoin="round" stroke-width="1"/>
            <path id="Path_16670" data-name="Path 16670" d="M342.185,391.917s4,11.522-6.67,15.822" transform="translate(-242.257 -355.563)" fill="none" stroke="#263238" stroke-linecap="round" stroke-linejoin="round" stroke-width="1"/>
            <path id="Path_16671" data-name="Path 16671" d="M242.816,422.17s10.349,8.734,14.579,11.152,9.832,8.868,14.1,10.211a15.863,15.863,0,0,0,8.537,0" transform="translate(-230.794 -359.111)" fill="none" stroke="#263238" stroke-linecap="round" stroke-linejoin="round" stroke-width="1"/>
            <path id="Path_16672" data-name="Path 16672" d="M297.3,435.8a16.114,16.114,0,0,1-4.3,4.76" transform="translate(-236.999 -360.71)" fill="none" stroke="#263238" stroke-linecap="round" stroke-linejoin="round" stroke-width="1"/>
            <path id="Path_16673" data-name="Path 16673" d="M249.209,377.948a19.3,19.3,0,0,1,13.006-11.489s9.8,6.852,9.8,12.5-3.78,10.008-10.794,7.826S249.209,377.948,249.209,377.948Z" transform="translate(-231.585 -352.577)" fill="#fff" stroke="#263238" stroke-linecap="round" stroke-linejoin="round" stroke-width="1"/>
            <path id="Path_16674" data-name="Path 16674" d="M277.064,363.038s4.011-5.24,10.205-6.853c0,0,12.915,9.876,8.058,15.116S279.066,369.89,277.064,363.038Z" transform="translate(-235.029 -351.372)" fill="#fff" stroke="#263238" stroke-linecap="round" stroke-linejoin="round" stroke-width="1"/>
            <path id="Path_16675" data-name="Path 16675" d="M235.281,406.246s4.936-7.789,12.206-9.876c0,0,15.007,8.531,7.4,15.25S237.082,409.873,235.281,406.246Z" transform="translate(-229.863 -356.085)" fill="#fff" stroke="#263238" stroke-linecap="round" stroke-linejoin="round" stroke-width="1"/>
            <path id="Path_16676" data-name="Path 16676" d="M239.3,435.161s6.957-1.419,8.664-7.811c0,0,7.116,5.538,3.022,9.843C244.951,443.536,239.3,435.161,239.3,435.161Z" transform="translate(-230.359 -359.719)" fill="#fff" stroke="#263238" stroke-linecap="round" stroke-linejoin="round" stroke-width="1"/>
            <path id="Path_16677" data-name="Path 16677" d="M308.8,387.266a9.183,9.183,0,0,0,4.6-6.651" transform="translate(-238.954 -354.238)" fill="none" stroke="#263238" stroke-linecap="round" stroke-linejoin="round" stroke-width="1"/>
            <path id="Path_16678" data-name="Path 16678" d="M293,396.37s-1.548,8.854-10.071,10.278" transform="translate(-235.754 -356.085)" fill="none" stroke="#263238" stroke-linecap="round" stroke-linejoin="round" stroke-width="1"/>
            <path id="Path_16679" data-name="Path 16679" d="M268.765,419.887s-3.5,5.113-8.655,6.588" transform="translate(-232.933 -358.843)" fill="none" stroke="#263238" stroke-linecap="round" stroke-linejoin="round" stroke-width="1"/>
            <path id="Path_16680" data-name="Path 16680" d="M272.788,445.523a13.653,13.653,0,0,1-5.77,4.781" transform="translate(-233.787 -361.85)" fill="none" stroke="#263238" stroke-linecap="round" stroke-linejoin="round" stroke-width="1"/>
            <path id="Path_16681" data-name="Path 16681" d="M280.661,447.049a4.583,4.583,0,0,1-.857,3.434" transform="translate(-235.368 -362.029)" fill="none" stroke="#263238" stroke-linecap="round" stroke-linejoin="round" stroke-width="1"/>
            <path id="Path_16682" data-name="Path 16682" d="M252.4,448.312a11.43,11.43,0,0,0,8.6-5.136" transform="translate(-231.98 -361.575)" fill="none" stroke="#263238" stroke-linecap="round" stroke-linejoin="round" stroke-width="1"/>
          </g>
        </g>
      </g>
    </g>
  </g>
</svg>
