<svg xmlns="http://www.w3.org/2000/svg" width="514" height="326.972" viewBox="0 0 514 326.972">
  <g id="Group_4669" data-name="Group 4669" transform="translate(-120.195 -135.479)">
    <g id="Group_4603" data-name="Group 4603" transform="translate(414.063 157.169)">
      <g id="Group_4591" data-name="Group 4591" transform="translate(62.486 24.8)">
        <path id="Path_13295" data-name="Path 13295" d="M1157.069,270.749a4.741,4.741,0,0,1,.552,2.617Z" transform="translate(-1157.069 -270.749)" fill="none"/>
      </g>
      <g id="Group_4592" data-name="Group 4592" transform="translate(88.145 217.49)">
        <path id="Path_13296" data-name="Path 13296" d="M1241.46,831.413l.356,1.132L1243,836.3l-6.331,6.123-4.94-2.574,2.574-4.94.279-.27.264.407Z" transform="translate(-1231.728 -831.413)" fill="#756758"/>
      </g>
      <g id="Group_4593" data-name="Group 4593" transform="translate(90.999 214.865)">
        <path id="Path_13297" data-name="Path 13297" d="M1246.909,826.4l-6.615,3.635-.264-.407,6.052-5.853Z" transform="translate(-1240.031 -823.775)" fill="#2f435f"/>
      </g>
      <g id="Group_4594" data-name="Group 4594" transform="translate(30.312 116.601)">
        <path id="Path_13298" data-name="Path 13298" d="M1111.414,588.4l-.278-42.423a29.35,29.35,0,0,0-4.02-2.917,33.061,33.061,0,0,0-10.281-3.421q-2.31-.45-4.647-.792a89.512,89.512,0,0,0-11.414-.976c-.616-.012-1.3-.008-2.014.008-5.4.114-13.147.895-14.856,1.073l-.453,39.142,9.347,63.957h7.37v.867h.042l4.6-59.814.754-4.522,1.935,6.9,36.638,56.5,6.052-5.853.827,2.625.368-.2Z" transform="translate(-1063.452 -537.86)" fill="#545150"/>
      </g>
      <g id="Group_4595" data-name="Group 4595" transform="translate(35.212 220.787)">
        <path id="Path_13299" data-name="Path 13299" d="M1089.527,841.873v3.072l-7.878,3.939-3.939-3.939,3.939-3.939h.508l.127.867Z" transform="translate(-1077.711 -841.006)" fill="#756758"/>
      </g>
      <g id="Group_4596" data-name="Group 4596" transform="translate(39.659 220.787)">
        <path id="Path_13300" data-name="Path 13300" d="M1098.02,841.873h-7.243l-.127-.867h7.37Z" transform="translate(-1090.65 -841.006)" fill="#756758"/>
      </g>
      <g id="Group_4597" data-name="Group 4597" transform="translate(44.003 23.093)">
        <path id="Path_13301" data-name="Path 13301" d="M1112.173,283.735a3.828,3.828,0,0,0-1.455-2.547c-.8-.47-1.824-.334-2.7-.64-1.656-.576-2.37-2.479-2.878-4.158l-1.324-4.379a19.757,19.757,0,0,1-.525-2.015c2.518-.941,4.874-2.666,7.5-3.325,2.951-.739,8.337-1.831,10.829.638a1.459,1.459,0,0,1,.151.179q.277,1.309.552,2.617c.011,2.464-.655,5.683-.572,6.993a6.017,6.017,0,0,0,1.047-.474,7.725,7.725,0,0,1-3.818,2.588,34.035,34.035,0,0,1,.567,5.4l-.259.035c-2.4-.308-4.8-.53-6.9-.877Z" transform="translate(-1103.289 -265.781)" fill="#edd4b9"/>
      </g>
      <g id="Group_4598" data-name="Group 4598" transform="translate(24.285 5.592)">
        <path id="Path_13302" data-name="Path 13302" d="M1085.4,240.141l-.729-3.455a4.741,4.741,0,0,0-.552-2.617q-.164-.778-.328-1.557a6.873,6.873,0,0,0-.891-2.526,5.768,5.768,0,0,0-4.118-2.034,14.034,14.034,0,0,0-11.254,3.185,6.151,6.151,0,0,0-1.825,2.6,5.772,5.772,0,0,0-.067,2.84,10.575,10.575,0,0,1-1.719.494c-2.3.438-5.3-.588-7.308-1.711-2.483-1.388-3.772-5.652-5.278-7.933a16.594,16.594,0,0,0-1.346-1.787,32.364,32.364,0,0,1-3.223-3.6c-.869-1.361-1.226-3.235-.292-4.552a5,5,0,0,1,2.6-1.631,19.346,19.346,0,0,1,10.161-.563c3.2.689,6.08,1.92,9.224.612,2.954-1.229,5.135-.853,8.306.148,3.432,1.084,7.991,1.2,11.12,2.8a9.054,9.054,0,0,1,3.211,2.942,13.64,13.64,0,0,1,.568,14.413,19.5,19.5,0,0,1-2.022,2.752,18.744,18.744,0,0,1-4.5,4.253,2.983,2.983,0,0,0,.433-1.2A5.624,5.624,0,0,0,1085.4,240.141Z" transform="translate(-1045.917 -214.86)" fill="#41352b"/>
      </g>
      <g id="Group_4599" data-name="Group 4599" transform="translate(62.46 27.417)">
        <path id="Path_13303" data-name="Path 13303" d="M1157.571,278.364l.729,3.455a5.624,5.624,0,0,1,.18,1.868,2.981,2.981,0,0,1-.433,1.2,6.023,6.023,0,0,1-1.047.474C1156.916,284.047,1157.581,280.827,1157.571,278.364Z" transform="translate(-1156.992 -278.364)" fill="#41352b"/>
      </g>
      <g id="Group_4600" data-name="Group 4600" transform="translate(43.859 18.543)">
        <path id="Path_13304" data-name="Path 13304" d="M1103.081,258.467a6.152,6.152,0,0,1,1.825-2.6,14.034,14.034,0,0,1,11.254-3.185,5.767,5.767,0,0,1,4.118,2.034,6.873,6.873,0,0,1,.891,2.526q.164.779.328,1.557a1.477,1.477,0,0,0-.151-.179c-2.491-2.47-7.878-1.378-10.829-.638-2.63.659-4.985,2.384-7.5,3.325A5.772,5.772,0,0,1,1103.081,258.467Z" transform="translate(-1102.87 -252.542)" fill="#41352b"/>
      </g>
      <g id="Group_4601" data-name="Group 4601" transform="translate(90.197 0)">
        <path id="Path_13305" data-name="Path 13305" d="M1239.24,207.38l-1.543-3.2.513-.672.853.6-.52-3.026,1.242-2.16,3.3-.327,2.9,1.829-.022,3.311-1.993,3.4-.427,1.338-4.684-.032Z" transform="translate(-1237.697 -198.589)" fill="#edd4b9"/>
      </g>
      <g id="Group_4602" data-name="Group 4602" transform="translate(0 9.827)">
        <path id="Path_13306" data-name="Path 13306" d="M975.6,320.124c1.215-1.75,5.341-2.922,7.2-4a63.237,63.237,0,0,0,11.663-8.438,42.539,42.539,0,0,0,10.992-16.889,73.617,73.617,0,0,0,2.7-10.033c.251-1.227.476-2.46.694-3.694l-14.644-.361s7.9-15.383,7.84-15.745c5.147-2.544,21.113-3.337,26.1-2.564l.214.033c2.1.347,4.506.569,6.9.877a33.189,33.189,0,0,1,7.578,1.664,7.867,7.867,0,0,1,1.915,1.091l14.019-12.216,5.911-22.669,1.926.013,4.684.032,1.682.012-3.954,36.3-14.431,20.064c.891,3.832,1.641,7.652,1.977,9.864.839,5.524,1.614,11.059,2.218,16.614.674,6.2,1.137,12.427,1.234,18.665.011.693.114,2.634.162,4.96.1,4.894-.044,11.49-1.806,11.731a1.526,1.526,0,0,1-.935-.3,32.226,32.226,0,0,1-4.187-3.072,29.35,29.35,0,0,0-4.02-2.917,33.058,33.058,0,0,0-10.282-3.421q-2.31-.45-4.647-.793a89.522,89.522,0,0,0-11.414-.976c-.616-.012-1.3-.008-2.014.008-5.4.114-13.146.895-14.856,1.073l-.347.037a61,61,0,0,1-9.567-2.915c-5.405-1.923-10.925-3.618-16-6.311C978.481,324.99,973.991,322.435,975.6,320.124Z" transform="translate(-975.255 -227.183)" fill="#89a89b"/>
      </g>
    </g>
    <g id="Group_4612" data-name="Group 4612" transform="translate(164.702 135.479)">
      <g id="Group_4604" data-name="Group 4604" transform="translate(43.497 29.46)">
        <path id="Path_13307" data-name="Path 13307" d="M598.874,436.167H376.259V282.123L487.566,221.2l111.308,60.925Z" transform="translate(-376.259 -221.198)" fill="#b26650"/>
      </g>
      <g id="Group_4605" data-name="Group 4605" transform="translate(0 0)">
        <path id="Path_13308" data-name="Path 13308" d="M558.724,218.74l-49.745-27.171-80.441-43.939c-6.479-3.539-12.888-7.267-19.463-10.631a12.578,12.578,0,0,0-12.395.234c-2.562,1.42-5.081,2.922-7.619,4.382l-73.486,42.258c-19.873,11.428-39.964,22.557-59.646,34.3-.326.194-.659.379-.988.568a10.6,10.6,0,0,0-3.836,14.4,10.942,10.942,0,0,0,14.63,3.775L314.092,209.1,390.8,164.99l12.4-7.131,45.1,24.632,81.071,44.284,18.559,10.137a11,11,0,0,0,14.63-3.775A10.557,10.557,0,0,0,558.724,218.74Z" transform="translate(-249.695 -135.479)" fill="#415768"/>
      </g>
      <g id="Group_4606" data-name="Group 4606" transform="translate(75.199 136.945)">
        <rect id="Rectangle_2031" data-name="Rectangle 2031" width="54.281" height="102.899" fill="#fffdf1"/>
      </g>
      <g id="Group_4611" data-name="Group 4611" transform="translate(166.126 136.945)">
        <g id="Group_4607" data-name="Group 4607">
          <rect id="Rectangle_2032" data-name="Rectangle 2032" width="29.526" height="24.778" fill="#fffdf1"/>
        </g>
        <g id="Group_4608" data-name="Group 4608" transform="translate(38.649)">
          <rect id="Rectangle_2033" data-name="Rectangle 2033" width="29.526" height="24.778" fill="#fffdf1"/>
        </g>
        <g id="Group_4609" data-name="Group 4609" transform="translate(0 33.908)">
          <rect id="Rectangle_2034" data-name="Rectangle 2034" width="29.526" height="24.778" fill="#fffdf1"/>
        </g>
        <g id="Group_4610" data-name="Group 4610" transform="translate(38.649 33.908)">
          <rect id="Rectangle_2035" data-name="Rectangle 2035" width="29.526" height="24.778" fill="#fffdf1"/>
        </g>
      </g>
    </g>
    <g id="Group_4631" data-name="Group 4631" transform="translate(533.281 224.555)">
      <g id="Group_4613" data-name="Group 4613" transform="translate(61.385 46.849)">
        <path id="Path_13309" data-name="Path 13309" d="M1517.034,531.4l-7.227,10.214-3.4-.278-5.662-10.359Z" transform="translate(-1500.747 -530.976)" fill="#d1d6d6"/>
      </g>
      <g id="Group_4630" data-name="Group 4630">
        <g id="Group_4614" data-name="Group 4614" transform="translate(54.855 43.755)">
          <path id="Path_13310" data-name="Path 13310" d="M1498.034,522.4l-7.227,10.214-3.4-.278-5.663-10.359Z" transform="translate(-1481.747 -521.976)" fill="#d1d6d6"/>
        </g>
        <g id="Group_4629" data-name="Group 4629">
          <g id="Group_4625" data-name="Group 4625">
            <g id="Group_4615" data-name="Group 4615" transform="translate(61.429 112.78)">
              <path id="Path_13311" data-name="Path 13311" d="M1528.159,749.281l-8.449,37.531-7.768,44.656h-7.855l-3.212-108.653,25.971.472Z" transform="translate(-1500.875 -722.815)" fill="#bc957a"/>
            </g>
            <g id="Group_4617" data-name="Group 4617" transform="translate(37.895 113.501)">
              <g id="Group_4616" data-name="Group 4616">
                <path id="Path_13312" data-name="Path 13312" d="M1433.491,748.361l-1.09,36.432,10.971,48.05h7.052l.721-50.672,7.714-41.471,1.918-13.239-21.624-2.551Z" transform="translate(-1432.4 -724.911)" fill="#bc957a"/>
              </g>
            </g>
            <g id="Group_4618" data-name="Group 4618" transform="translate(37.895 38.94)">
              <path id="Path_13313" data-name="Path 13313" d="M1450.6,507.965l24.515,1.809,11.443,18.513c-5.5,21.665-5.339,16.794-2.887,25.887l7.008,34.539-9.146,2.665-33.235.591-15.894-2.782,7.953-32.086L1438.8,513.1Z" transform="translate(-1432.4 -507.965)" fill="#515151"/>
            </g>
            <g id="Group_4619" data-name="Group 4619" transform="translate(0 44.071)">
              <path id="Path_13314" data-name="Path 13314" d="M1373.4,535.717l-12.328,19.034-11.869,1.729-27.062,1.131,2.472-8.019,28.6-7.33,13.223-19.368Z" transform="translate(-1322.138 -522.893)" fill="#515151"/>
            </g>
            <g id="Group_4624" data-name="Group 4624" transform="translate(40.785)">
              <g id="Group_4620" data-name="Group 4620" transform="translate(15.133 11.355)">
                <path id="Path_13315" data-name="Path 13315" d="M1486.313,434.145c3.718-10.81,17.989-6.759,20.931,2.866,1.919,6.279-2.93,14.427-9.435,16.23a6.488,6.488,0,0,0-.051.674,21.085,21.085,0,0,1-.278,3.009c-.056.375-5.749-.719-6.384-.844a.861.861,0,0,1-.589-.29c-.229-.357.144-1.41.186-1.807l.147-1.407a11.23,11.23,0,0,1-5.8-8.3A20.851,20.851,0,0,1,1486.313,434.145Z" transform="translate(-1484.841 -427.701)" fill="#eed5b9"/>
              </g>
              <g id="Group_4623" data-name="Group 4623">
                <g id="Group_4621" data-name="Group 4621" transform="translate(0 5.896)">
                  <path id="Path_13316" data-name="Path 13316" d="M1467.658,413.646a5.664,5.664,0,0,1,1.063,2.99,4.529,4.529,0,0,1-.031,1.882c-.715,2.407-3.132,2.094-5.069,2.74a12.554,12.554,0,0,0-5.974,4.4c-2.275,3.075-1.679,7.3-1.127,10.924.194,1.277.636,3.188-.422,4.233-1.076,1.063-3.349.713-4.489.037-1.042-.617-1.856-1.674-3.029-1.964-1.242-.306-2.984.118-3.482-1.082a7.873,7.873,0,0,0-.307-1.037c-.62-1.047-2.437-.014-3.364-.79a1.918,1.918,0,0,1-.236-2.106,4.966,4.966,0,0,0,.573-2.172,7.3,7.3,0,0,0-.733-1.782,3.391,3.391,0,0,1,.741-3.558c1.686-1.675,4.658-1.106,6.446-2.667a7.323,7.323,0,0,0,1.777-3.229,6.43,6.43,0,0,1,1.883-3.152c1.219-.917,2.854-.621,4.072-1.726a23.185,23.185,0,0,1,2.015-2.079,14.921,14.921,0,0,1,4.251-1.516A5.362,5.362,0,0,1,1467.658,413.646Z" transform="translate(-1440.81 -411.818)" fill="#4f4141"/>
                </g>
                <g id="Group_4622" data-name="Group 4622" transform="translate(20.568)">
                  <path id="Path_13317" data-name="Path 13317" d="M1514.628,420.272c-.2,3.553-2.258,7.254-.861,10.5,1.41,3.277,5.478,4.158,8.969,4.589.574.071,7.921,1.272,7.963,1.134a24.155,24.155,0,0,1,2.963-6.977c1.457-2.072,3.753-3.705,6.238-3.671a1.524,1.524,0,0,1-.859-1.809,11.734,11.734,0,0,1,.845-2.056,4.981,4.981,0,0,0-.917-5.088c-2.43-2.637-7.251-1.986-9.28-4.957-1.258-1.842-.9-4.349-1.468-6.524-1.1-4.206-5.52-5.405-8.733-7.512-3.393-2.224-6.645-3.548-10.784-3.178-5.131.459-9.289,5.33-7.7,10.333,2.032,6.417,12.093,6.642,13.488,13.106A7.825,7.825,0,0,1,1514.628,420.272Z" transform="translate(-1500.657 -394.662)" fill="#4f4141"/>
                </g>
              </g>
            </g>
          </g>
          <g id="Group_4626" data-name="Group 4626" transform="translate(57.26 39.022)">
            <path id="Path_13318" data-name="Path 13318" d="M1503.982,509.354l-7.227,10.214-3.4-.278-4.611-11.087Z" transform="translate(-1488.746 -508.203)" fill="#fffbd9"/>
          </g>
          <g id="Group_4627" data-name="Group 4627" transform="translate(60.455 221.433)">
            <path id="Path_13319" data-name="Path 13319" d="M1502.228,1038.958l-4.185,5.384,3.9,4.262,5.467-4.823,2.677-4.823Z" transform="translate(-1498.043 -1038.958)" fill="#766a5a"/>
          </g>
          <g id="Group_4628" data-name="Group 4628" transform="translate(44.129 221.433)">
            <path id="Path_13320" data-name="Path 13320" d="M1454.725,1038.958l-4.185,5.384,3.9,4.262,5.467-4.823,2.677-4.823Z" transform="translate(-1450.54 -1038.958)" fill="#766a5a"/>
          </g>
        </g>
      </g>
    </g>
    <g id="Group_4632" data-name="Group 4632" transform="translate(533.525 301.1)">
      <path id="Path_13321" data-name="Path 13321" d="M1322.848,619.024l4.7-1.643s3.627.294,4.444,1.272l1.427,3.792-5.183,4.328-4.584-2.3Z" transform="translate(-1322.848 -617.381)" fill="#bf9e6c"/>
    </g>
    <g id="Group_4637" data-name="Group 4637" transform="translate(400.166 244.436)">
      <g id="Group_4635" data-name="Group 4635">
        <g id="Group_4633" data-name="Group 4633">
          <path id="Path_13322" data-name="Path 13322" d="M1097.621,468.871C1046.4,479.89,1020.4,456.24,1016.9,452.749c0,0-.072-.349-.207-.209-.136-.14-.208.209-.208.209-3.5,3.491-29.505,27.141-80.726,16.122,0,0-7.864,91.579,21.994,128.939,31.89,39.9,58.8,51.968,58.94,51.864.135.1,27.281-11.732,58.939-51.864C1105.245,560.263,1097.621,468.871,1097.621,468.871Z" transform="translate(-934.819 -452.507)" fill="#296795"/>
        </g>
        <g id="Group_4634" data-name="Group 4634" transform="translate(7.576 11.215)">
          <path id="Path_13323" data-name="Path 13323" d="M1104.594,499.708c-46.479,9.81-70.073-11.245-73.253-14.353,0,0-.065-.311-.188-.187-.123-.124-.188.187-.188.187-3.18,3.108-26.774,24.163-73.253,14.353,0,0-7.136,81.531,19.958,114.791,28.938,35.525,53.336,48.447,53.458,48.355.123.092,24.781-12.625,53.509-48.355C1111.513,581.072,1104.594,499.708,1104.594,499.708Z" transform="translate(-956.862 -485.139)" fill="#6399ba"/>
        </g>
      </g>
      <g id="Group_4636" data-name="Group 4636" transform="translate(22.393 36.385)">
        <path id="Path_13324" data-name="Path 13324" d="M1119.112,570.429c-35.116,7.554-57.124-9.495-59.527-11.888,0,0-.049-.239-.142-.144-.093-.1-.142.144-.142.144-2.4,2.393-24.187,19.4-59.3,11.844,0,0-1.433,62,19.037,87.609,21.863,27.357,40.316,35.629,40.408,35.558.093.071,18.7-8.043,40.408-35.558C1120.158,632.251,1119.112,570.429,1119.112,570.429Z" transform="translate(-999.976 -558.374)" fill="#9ecbdd"/>
      </g>
    </g>
    <g id="Group_4647" data-name="Group 4647" transform="translate(191.529 295.324)">
      <g id="Group_4646" data-name="Group 4646" transform="translate(0)">
        <g id="Group_4643" data-name="Group 4643">
          <g id="Group_4642" data-name="Group 4642">
            <g id="Group_4639" data-name="Group 4639" transform="translate(10.259)">
              <g id="Group_4638" data-name="Group 4638">
                <path id="Path_13325" data-name="Path 13325" d="M435.523,662.119l-9.79,1.933-6.4-32.4a26.12,26.12,0,1,0-51.251,10.121l6.4,32.4-9.79,1.933-6.4-32.4a36.1,36.1,0,1,1,70.83-13.987Z" transform="translate(-357.605 -600.575)" fill="#686867"/>
              </g>
            </g>
            <g id="Group_4641" data-name="Group 4641" transform="translate(0 43.883)">
              <g id="Group_4640" data-name="Group 4640">
                <path id="Path_13326" data-name="Path 13326" d="M440.6,792a3.871,3.871,0,0,1-3.046,4.549L344.345,814.96a3.871,3.871,0,0,1-4.547-3.05l-11.97-60.619a3.871,3.871,0,0,1,3.046-4.549l93.212-18.407a3.871,3.871,0,0,1,4.546,3.05Z" transform="translate(-327.754 -728.262)" fill="#ffd664"/>
              </g>
            </g>
          </g>
        </g>
        <g id="Group_4644" data-name="Group 4644" transform="translate(13.21 70.484)">
          <path id="Path_13327" data-name="Path 13327" d="M465.828,842.8l-7.335-37.142c-12.057,43.7-67.921,50.584-92.3,59.124a3.854,3.854,0,0,0,3.381.974l93.212-18.407A3.87,3.87,0,0,0,465.828,842.8Z" transform="translate(-366.19 -805.66)" fill="#ffcb48"/>
        </g>
        <g id="Group_4645" data-name="Group 4645" transform="translate(45.94 68.496)">
          <path id="Path_13328" data-name="Path 13328" d="M478.246,806.732a8.491,8.491,0,1,0-11.962,9.315l1.072,19.377,15.21-3-6.374-18.33A8.481,8.481,0,0,0,478.246,806.732Z" transform="translate(-461.423 -799.877)" fill="#444"/>
        </g>
      </g>
    </g>
    <g id="Group_4665" data-name="Group 4665" transform="translate(120.195 232.859)">
      <g id="Group_4650" data-name="Group 4650" transform="translate(15.849)">
        <g id="Group_4648" data-name="Group 4648" transform="translate(7.913 14.665)">
          <path id="Path_13329" data-name="Path 13329" d="M199.871,486.07c-2.018-.127-6.793-1.235-6.8-1.047a34.3,34.3,0,0,1,.571-5.441c-1.873-.737-4.029-1.818-4.286-3.815a5.671,5.671,0,0,1,.181-1.883l1.623-7.693a6.917,6.917,0,0,1,.9-2.547,5.814,5.814,0,0,1,4.152-2.051c5.844-.795,11.173,3.3,16.286,5.508a3.032,3.032,0,0,1,1.167.733,2.931,2.931,0,0,1,.356,2.315c-.574,4.136-1.721,10.183-6.53,11.332-1.05.251-2.152.231-3.2.5-2.522.651-1.772,3.069-3.612,4.033A1.925,1.925,0,0,1,199.871,486.07Z" transform="translate(-189.333 -461.493)" fill="#edd3b8"/>
        </g>
        <g id="Group_4649" data-name="Group 4649">
          <path id="Path_13330" data-name="Path 13330" d="M208.754,433.052a15.666,15.666,0,0,0,.62-5.786c-.446-3.863-3.084-10.531-8.1-7.806-2.758,1.5-4.848,3-8.224,2.436-3.851-.648-5.957-1.557-9.915-.307-3.461,1.093-8.057,1.211-11.212,2.818a9.13,9.13,0,0,0-3.238,2.966,13.753,13.753,0,0,0-.573,14.533,19.676,19.676,0,0,0,2.039,2.775c1.547,1.807,3.4,4.037,5.588,4.766.126-1.981-1.45-8.3.133-9.87,2.512-2.49,7.944-1.389,10.918-.643,3.245.813,6.075,3.236,9.3,3.851,2.32.442,5.34-.592,7.368-1.725C205.959,439.661,207.816,436.376,208.754,433.052Z" transform="translate(-166.311 -418.823)" fill="#e09f39"/>
        </g>
      </g>
      <g id="Group_4653" data-name="Group 4653" transform="translate(36.132 20.52)">
        <g id="Group_4651" data-name="Group 4651" transform="translate(35.399)">
          <path id="Path_13331" data-name="Path 13331" d="M332.769,494.8l1.431-4.07,3.429-1.794.037-.884-1.1-.008c2.08-1.589,3.414-4.707,2.062-7.176-.534-.975-2.29-2.6-3.554-2.307-1.4.328-2.948,3.8-3.875,4.982l-.677,4.1-2.2,5.5Z" transform="translate(-328.326 -478.529)" fill="#edd3b8"/>
        </g>
        <g id="Group_4652" data-name="Group 4652" transform="translate(0 10.173)">
          <path id="Path_13332" data-name="Path 13332" d="M261.776,508.128,250.534,530.1l-17.725-1.608-7.484,13.085L255.5,551,269.5,510.238Z" transform="translate(-225.326 -508.128)" fill="#394456"/>
        </g>
      </g>
      <g id="Group_4656" data-name="Group 4656" transform="translate(7.152 97.581)">
        <g id="Group_4654" data-name="Group 4654" transform="translate(0 119.108)">
          <path id="Path_13333" data-name="Path 13333" d="M141.524,1053.3l-.518,3.981,8.076,4.941,4.815-3.5-3.779-4.461-8.076-4.941Z" transform="translate(-141.006 -1049.316)" fill="#3c3a38"/>
        </g>
        <g id="Group_4655" data-name="Group 4655" transform="translate(0.236)">
          <path id="Path_13334" data-name="Path 13334" d="M144.124,704.164l-1.574,12.09,10.577,54.335-11.435,53.919,8.318,2.532,28.355-63.851,1.882-19.638-2.838-40.8Z" transform="translate(-141.691 -702.752)" fill="#545150"/>
        </g>
      </g>
      <g id="Group_4659" data-name="Group 4659" transform="translate(26.51 99.039)">
        <g id="Group_4657" data-name="Group 4657">
          <path id="Path_13335" data-name="Path 13335" d="M233.8,711.6l.69,51.179L223.25,828.771h-8.64l-5.457-60.888-11.824-60.888Z" transform="translate(-197.329 -706.994)" fill="#545150"/>
        </g>
        <g id="Group_4658" data-name="Group 4658" transform="translate(17.331 120.894)">
          <path id="Path_13336" data-name="Path 13336" d="M247.755,1058.755v4.01l9.344,4.01,4.672-4.01-4.672-4.01Z" transform="translate(-247.755 -1058.755)" fill="#3c3a38"/>
        </g>
      </g>
      <g id="Group_4660" data-name="Group 4660" transform="translate(0 34.315)">
        <path id="Path_13337" data-name="Path 13337" d="M120.223,606.469c-.119,5.68.052,13.334,2.142,13.614a1.837,1.837,0,0,0,1.109-.345c3.614-2.06,6.171-4.959,9.734-6.95a39.8,39.8,0,0,1,12.195-3.97,112.959,112.959,0,0,1,19.049-2.052c4.555-.083,9.864-.262,14.33.727,6.573,1.454,3.931,1.616,7.725,7.286l5.857-2.217c.937-.355-2.978-36.355-4.847-40.8-4.394-10.449-9.029-20.761-13.672-31.067-1.97-4.372-3.7-10.434-6.784-13.773-3.023-3.277-9.2-7.9-13.4-8.229-4.087-.323-10.63,2.61-14.313,4.68-5.176,2.909-6.614,7.592-8.957,12.965-2.147,4.924-5.058,18.143-5.879,23.436-.995,6.41-1.915,12.833-2.631,19.28-.8,7.195-1.348,14.422-1.464,21.66C120.4,601.517,120.28,603.77,120.223,606.469Z" transform="translate(-120.195 -518.669)" fill="#37404e"/>
      </g>
      <g id="Group_4661" data-name="Group 4661" transform="translate(41.422 43.194)">
        <path id="Path_13338" data-name="Path 13338" d="M242.42,544.5s11.349,15.888,17.023,29.506c2.9,6.958,6.525,29.506,7.944,32.627s0,10.214,0,10.214l-2.863,1.2s-4.8-28.716-7.35-36.66-6.525-13.9-7.093-20.427-9.363-16.455-9.363-16.455Z" transform="translate(-240.718 -544.503)" fill="#fff"/>
      </g>
      <g id="Group_4664" data-name="Group 4664" transform="translate(11.674 34.925)">
        <g id="Group_4662" data-name="Group 4662" transform="translate(56.779 53.278)">
          <path id="Path_13339" data-name="Path 13339" d="M321.547,675.463l3.8,2.046,3.744-.981.622.628-.808.746,3.353.008,2.081,1.614-.289,3.347-2.529,2.57-3.554-.6-3.262-2.578-5.331-2.591Z" transform="translate(-319.371 -675.463)" fill="#edd3b8"/>
        </g>
        <g id="Group_4663" data-name="Group 4663">
          <path id="Path_13340" data-name="Path 13340" d="M216.534,574.7l-27.982-16.994-17.211-37.266-11.6,2.486-5.575,11.107,19.486,34.49,40.794,13.91Z" transform="translate(-154.162 -520.442)" fill="#394456"/>
        </g>
      </g>
    </g>
    <g id="Group_4668" data-name="Group 4668" transform="translate(543.909 265.304)">
      <g id="Group_4666" data-name="Group 4666" transform="translate(0 61.128)">
        <path id="Path_13341" data-name="Path 13341" d="M1364.5,691.089l-6.846.756-.292,2.365-4.3,2.937,1.825,2.759,10.885-3.478Z" transform="translate(-1353.063 -691.089)" fill="#bf9e6c"/>
      </g>
      <g id="Group_4667" data-name="Group 4667" transform="translate(10.856)">
        <path id="Path_13342" data-name="Path 13342" d="M1455.214,531.741l-23.529,32.244-44.7,17.447-2.332-8.489,36.681-19.468,22.441-40.248Z" transform="translate(-1384.65 -513.228)" fill="#636363"/>
      </g>
    </g>
  </g>
</svg>
