<svg xmlns="http://www.w3.org/2000/svg" width="467.84" height="288.549" viewBox="0 0 467.84 288.549">
  <g id="Group_4694" data-name="Group 4694" transform="translate(-1548.1 -1119.654)">
    <path id="Path_13361" data-name="Path 13361" d="M1684.288,1201.209l-22.992-75.441h2.925l22.684,75.441Z" transform="translate(-70.608 -3.894)" fill="#543c3a"/>
    <path id="Path_13362" data-name="Path 13362" d="M1622.049,1153.306c2.128-.321,63.656-19.582,63.656-19.582v3.531l-63.656,17.656Z" transform="translate(-46.127 -8.96)" fill="#543c3a"/>
    <path id="Path_13363" data-name="Path 13363" d="M1741.492,1212.4l-.865,3.13-106.777,4.9Z" transform="translate(-53.488 -59.063)" fill="#543c3a"/>
    <path id="Path_13364" data-name="Path 13364" d="M1854.27,1152.525c-.1,1.284,1.719,62.6,1.719,62.6h2.168l-1.945-65.49Z" transform="translate(-190.976 -19.094)" fill="#543c3a"/>
    <path id="Path_13365" data-name="Path 13365" d="M2311.827,1199.1l34.781-79.446,3.515,2.221-34.649,77.225Z" transform="translate(-476.386)" fill="#543c3a"/>
    <path id="Path_13366" data-name="Path 13366" d="M2292.439,1192.066c1.367.106,105.341,13.426,105.341,13.426l-1.092,1.984-104.249-12.663Z" transform="translate(-464.292 -46.115)" fill="#543c3a"/>
    <path id="Path_13367" data-name="Path 13367" d="M2489.349,1158.508c-.879,2.779-3.235,63.742-3.235,63.742h3.235l3.224-66.244Z" transform="translate(-585.1 -23.151)" fill="#543c3a"/>
    <rect id="Rectangle_2049" data-name="Rectangle 2049" width="314.561" height="214.048" transform="translate(1555.661 1194.155)" fill="#d68369"/>
    <rect id="Rectangle_2050" data-name="Rectangle 2050" width="111.911" height="214.048" transform="translate(1870.222 1194.155)" fill="#b56e5b"/>
    <rect id="Rectangle_2051" data-name="Rectangle 2051" width="269.191" height="37.978" transform="translate(1575.825 1276.85)" fill="#f4d390"/>
    <rect id="Rectangle_2052" data-name="Rectangle 2052" width="39.373" height="55.99" transform="translate(1580.415 1209.848)" fill="#6d4e4a"/>
    <rect id="Rectangle_2053" data-name="Rectangle 2053" width="39.374" height="55.99" transform="translate(1655.551 1209.848)" fill="#6d4e4a"/>
    <rect id="Rectangle_2054" data-name="Rectangle 2054" width="39.374" height="55.99" transform="translate(1730.687 1209.848)" fill="#6d4e4a"/>
    <rect id="Rectangle_2055" data-name="Rectangle 2055" width="39.373" height="55.99" transform="translate(1805.823 1209.848)" fill="#6d4e4a"/>
    <rect id="Rectangle_2056" data-name="Rectangle 2056" width="7.744" height="55.99" transform="translate(1580.415 1209.848)" fill="#543c3a"/>
    <rect id="Rectangle_2057" data-name="Rectangle 2057" width="7.744" height="55.99" transform="translate(1655.551 1209.848)" fill="#543c3a"/>
    <rect id="Rectangle_2058" data-name="Rectangle 2058" width="7.744" height="55.99" transform="translate(1730.687 1209.848)" fill="#543c3a"/>
    <rect id="Rectangle_2059" data-name="Rectangle 2059" width="7.744" height="55.99" transform="translate(1805.823 1209.848)" fill="#543c3a"/>
    <path id="Path_13368" data-name="Path 13368" d="M1633.99,1405.487l15.483-15.117-2.734-8.158,5.717,3.119,8.452,1.92,1.74-7.679,2.983,8.158,2.734,2.639-5.469,7.918,10.466-5.759v-24.518H1633.99Z" transform="translate(-53.576 -158.164)" fill="#8db3b7" opacity="0.39"/>
    <path id="Path_13369" data-name="Path 13369" d="M1648.714,1482.566v-9.876l10.192,3.359,5.717-13.677,9.2,10.1,8.726-12.5v22.593Z" transform="translate(-62.76 -216.728)" fill="#8db3b7" opacity="0.39"/>
    <path id="Path_13370" data-name="Path 13370" d="M1845.094,1368.012l-1.108,12.281h9.56l9.446-6.141-9.944,25.56,12.927-3.705,2.734-9.257,3.977,2.661-7.458,17.756,7.458,10.318,4.475-6-1.74,12.515h4.065v-55.99Z" transform="translate(-184.563 -158.164)" fill="#8db3b7" opacity="0.39"/>
    <path id="Path_13371" data-name="Path 13371" d="M1833.694,1440.909l2.494-6.959,5.25-2.523,2.457-7.8v13.2l14.169-1.7-4.683,7.935,10.649,11.038,4.972,5.317h-35.308Z" transform="translate(-178.144 -193.585)" fill="#8db3b7" opacity="0.39"/>
    <path id="Path_13372" data-name="Path 13372" d="M2033.4,1368.012V1424h39.374v-55.99Zm35.494,18.738-5.966-2.378,3.232,19.916-4.475-10.078-8.6,10.078,3.875-17.538h-7.706l8.2-5.017-1.74-8.158,4.723,2.879,8.452-1.919-5.966,5.279Z" transform="translate(-302.712 -158.164)" fill="#8db3b7" opacity="0.39"/>
    <path id="Path_13373" data-name="Path 13373" d="M2233.1,1433.953l2.867-8.057,4.877,4.559,4.072,10.558,5.22-13.454-5.22-14.14h7.871l5.3,17.276,5.469-10.557,8.913-8.4v40.109H2233.1Z" transform="translate(-427.282 -186.011)" fill="#8db3b7" opacity="0.39"/>
    <path id="Path_13374" data-name="Path 13374" d="M2238.457,1385.092l7.208-11.518,5.221,3.359v5.279l6.712-2.88s.746,12.958,1.492,12.238,13.388-7.679,13.388-7.679v-15.88H2233.1Z" transform="translate(-427.282 -158.164)" fill="#8db3b7" opacity="0.39"/>
    <g id="Group_4681" data-name="Group 4681" transform="translate(1729.568 1208.768)">
      <path id="Path_13375" data-name="Path 13375" d="M2072.036,1423.187h-41.611v-58.15h41.611Zm-39.373-2.16H2069.8V1367.2h-37.135Z" transform="translate(-2030.425 -1365.037)" fill="#dbbb83"/>
    </g>
    <g id="Group_4682" data-name="Group 4682" transform="translate(1654.432 1208.768)">
      <path id="Path_13376" data-name="Path 13376" d="M1872.331,1423.187H1830.72v-58.15h41.611Zm-39.373-2.16h37.135V1367.2h-37.135Z" transform="translate(-1830.72 -1365.037)" fill="#dbbb83"/>
    </g>
    <g id="Group_4683" data-name="Group 4683" transform="translate(1579.296 1208.768)">
      <path id="Path_13377" data-name="Path 13377" d="M1672.627,1423.187h-41.611v-58.15h41.611Zm-39.373-2.16h37.135V1367.2h-37.135Z" transform="translate(-1631.016 -1365.037)" fill="#dbbb83"/>
    </g>
    <path id="Path_13378" data-name="Path 13378" d="M1621.648,1590.487H1890.84v-37.978h-4.778l.588,36.206-265.088.3Z" transform="translate(-45.823 -275.659)" fill="#d6b780"/>
    <rect id="Rectangle_2060" data-name="Rectangle 2060" width="79.188" height="83.318" transform="translate(1670.827 1324.885)" fill="#6d4e4a"/>
    <rect id="Rectangle_2061" data-name="Rectangle 2061" width="87.469" height="69.419" transform="translate(1575.825 1324.885)" fill="#6d4e4a"/>
    <rect id="Rectangle_2062" data-name="Rectangle 2062" width="87.469" height="69.419" transform="translate(1757.727 1324.885)" fill="#6d4e4a"/>
    <path id="Path_13379" data-name="Path 13379" d="M2119.86,1719.487l4.292,4.955,6.677,5.294,17.442-13.811-6-10.588,14.229,4.373,12.717-10.818,4.054,17.033,11.208-3.453-9.3,15.191-9.3-1.228-1.908,14.808-18.838-3.453-24.084,2.072-.715,8.286-15.8-3.913-.442,9.96h87.732v-69.419h-87.732v57.158Z" transform="translate(-346.81 -359.893)" fill="#8db3b7" opacity="0.39"/>
    <g id="Group_4684" data-name="Group 4684" transform="translate(1756.326 1323.958)">
      <path id="Path_13380" data-name="Path 13380" d="M2191.2,1753.5h-89.65v-71.271h89.65Zm-87.732-1.852h85.813v-67.568h-85.813Z" transform="translate(-2101.545 -1682.227)" fill="#dbbb83"/>
    </g>
    <rect id="Rectangle_2063" data-name="Rectangle 2063" width="9.247" height="69.419" transform="translate(1575.739 1324.885)" fill="#543c3a"/>
    <path id="Path_13381" data-name="Path 13381" d="M2201.18,1708.84a16.926,16.926,0,0,0,.484-7.09c.548,2.666.124,5.417-.237,8.113a5.9,5.9,0,0,0,.075,2.753,5.758,5.758,0,0,0,.875,1.476,46.75,46.75,0,0,0,4.841,5.524c-.8-.776-2.162-1.28-3.052-2.062-.7-.615-1.428-1.2-2.112-1.836C2199.772,1713.613,2200.412,1711.514,2201.18,1708.84Z" transform="translate(-406.926 -370.701)" fill="#6d4e4a"/>
    <path id="Path_13382" data-name="Path 13382" d="M2262.017,1834.96l-3.621-3.6,1.81-3.177,3.566,6.778-2.688,3.6,2.688,2.33-3.73-2.012Z" transform="translate(-443.058 -451.219)" fill="#6d4e4a"/>
    <path id="Path_13383" data-name="Path 13383" d="M2149.564,1757.571l.988-3.071-2.195-2.33,3.95-1.271.549-4.66.768,4.978-2.633,1.483,1.536,2.118-1.536,4.66-5.157,4.024.062-4.873Z" transform="translate(-372.845 -399.034)" fill="#6d4e4a"/>
    <rect id="Rectangle_2064" data-name="Rectangle 2064" width="440.587" height="9.245" transform="translate(1548.1 1184.91)" fill="#6d4e4a"/>
    <rect id="Rectangle_2065" data-name="Rectangle 2065" width="110.399" height="9.245" transform="translate(1878.288 1184.91)" fill="#543c3a"/>
    <path id="Path_13384" data-name="Path 13384" d="M1621.792,1745.469l8.461,2.2,5.707,8.983-1.835-14.253,1.835-10.9,10.108,11.458,3.79-5.709,5.212,5.429v-16.137l14.187-6.921,2.027,8.805,1.737,13.171,7.238-7.861-1.158-9.781,13.608,1.118v-9.781l7.238,4.33,9.314-17.866v63.255h-87.469Z" transform="translate(-45.967 -370.701)" fill="#8db3b7" opacity="0.39"/>
    <g id="Group_4685" data-name="Group 4685" transform="translate(1574.963 1323.958)">
      <path id="Path_13385" data-name="Path 13385" d="M1709.15,1753.5H1619.5v-71.271h89.651Zm-87.732-1.852h85.814v-67.568h-85.814Z" transform="translate(-1619.499 -1682.227)" fill="#dbbb83"/>
    </g>
    <path id="Path_13386" data-name="Path 13386" d="M1981.647,1749.058l9.073-1.392-2.222-9.489,4.814,2.839,2.037-14.478,9.813-3.4,1.481-14.119,5.925-7.273V1778.9h-41.846l.833-24.885,9.35,8.085Z" transform="translate(-263.617 -370.701)" fill="#8db3b7" opacity="0.39"/>
    <path id="Path_13387" data-name="Path 13387" d="M1972.937,1721.112l8.61,3.082,4.259-6.84,1.481,6.84,4.073-3.082,5-16.447,6.851,6.613.926-13.047,9.813-4.289v-6.613H1973.77Z" transform="translate(-264.999 -361.518)" fill="#8db3b7" opacity="0.39"/>
    <path id="Path_13388" data-name="Path 13388" d="M1912.924,1735.227l-9.906-9.242,2.037-4.873-1.3-8.94-4.073,11.528-7.221,5.293-7.962,3.2v-11.077l-4.444,4.873-3.333-.766v-37.89h35.365Z" transform="translate(-204.985 -361.518)" fill="#8db3b7" opacity="0.39"/>
    <path id="Path_13389" data-name="Path 13389" d="M1881.169,1829.758l4.444,6.3,4.814,4.427-.185-15.413,5.74-2.281v-9.472l9.443,4.468s6.666.074,7.5.931v31.239h-36.2Z" transform="translate(-204.985 -441.75)" fill="#8db3b7" opacity="0.39"/>
    <path id="Path_13390" data-name="Path 13390" d="M1874.3,1768.1v-83.318h79.188V1768.1h-3.473l1.365-81.456h-74.983l.281,81.456Z" transform="translate(-203.471 -359.893)" fill="#f4d390"/>
    <rect id="Rectangle_2066" data-name="Rectangle 2066" width="1.666" height="81.456" transform="translate(1707.106 1326.747)" fill="#f4d390"/>
    <path id="Path_13391" data-name="Path 13391" d="M1907.79,1749.634l-3.83-6.919,3.83-4.076-3.142-4.834-.687-7.014-3.928-9.289,5.6,8.91.491,6.54,4.124,4.549-2.16,4.929,3.535,5.778Z" transform="translate(-219.523 -380.734)" fill="#6d4e4a"/>
    <rect id="Rectangle_2067" data-name="Rectangle 2067" width="20.5" height="21.682" transform="translate(1883.749 1211.754)" fill="#6d4e4a"/>
    <rect id="Rectangle_2068" data-name="Rectangle 2068" width="20.5" height="21.682" transform="translate(1918.364 1211.754)" fill="#6d4e4a"/>
    <rect id="Rectangle_2069" data-name="Rectangle 2069" width="20.5" height="21.682" transform="translate(1950.291 1211.754)" fill="#6d4e4a"/>
    <rect id="Rectangle_2070" data-name="Rectangle 2070" width="6.469" height="21.682" transform="translate(1897.78 1211.754)" fill="#543c3a"/>
    <rect id="Rectangle_2071" data-name="Rectangle 2071" width="6.469" height="21.682" transform="translate(1932.395 1211.754)" fill="#543c3a"/>
    <rect id="Rectangle_2072" data-name="Rectangle 2072" width="6.469" height="21.682" transform="translate(1964.322 1211.754)" fill="#543c3a"/>
    <g id="Group_4692" data-name="Group 4692" transform="translate(1844.368 1233.436)">
      <path id="Path_13392" data-name="Path 13392" d="M2591.463,1501.064a.44.44,0,0,0,.185.13,1.925,1.925,0,0,0,1.742-.213,1.527,1.527,0,0,0,.58-.6,1.851,1.851,0,0,0,.148-.582c.072-.564.287-1.7-.208-2.144a1.5,1.5,0,0,0-1.55-.068,2.009,2.009,0,0,0-.722,1.258C2591.511,1499.328,2591.139,1500.625,2591.463,1501.064Z" transform="translate(-2495.1 -1474.003)" fill="#84605b"/>
      <path id="Path_13393" data-name="Path 13393" d="M2588.164,1488.765a9.669,9.669,0,0,0,4.065.508,1.5,1.5,0,0,0,1.167-.5,1.479,1.479,0,0,0,.177-.7q.051-.6.1-1.193a.775.775,0,0,0-.046-.432,1.722,1.722,0,0,0-.309-.326,1.511,1.511,0,0,1-.257-1.1,2.734,2.734,0,0,0-.717-2.333,2.232,2.232,0,0,0-1.881-.253,1.851,1.851,0,0,0-1.373,1.023,5.078,5.078,0,0,0-.106,1.118.887.887,0,0,1-.644.84c-.217.03-.44-.064-.654-.017-.329.071-.491.428-.565.746C2586.863,1487.265,2586.935,1488.332,2588.164,1488.765Z" transform="translate(-2492.396 -1464.413)" fill="#d8c4bc"/>
      <path id="Path_13394" data-name="Path 13394" d="M2637.717,1455.555a.441.441,0,0,0,.185.129,1.925,1.925,0,0,0,1.742-.213,1.536,1.536,0,0,0,.58-.6,1.866,1.866,0,0,0,.148-.583c.073-.564.288-1.7-.208-2.144a1.5,1.5,0,0,0-1.55-.069,2.014,2.014,0,0,0-.722,1.258C2637.764,1453.819,2637.393,1455.116,2637.717,1455.555Z" transform="translate(-2523.951 -1445.021)" fill="#84605b"/>
      <path id="Path_13395" data-name="Path 13395" d="M2634.417,1443.256a9.676,9.676,0,0,0,4.066.508,1.5,1.5,0,0,0,1.167-.5,1.472,1.472,0,0,0,.177-.7q.05-.6.1-1.193a.774.774,0,0,0-.045-.431,1.76,1.76,0,0,0-.309-.326,1.51,1.51,0,0,1-.257-1.1,2.734,2.734,0,0,0-.717-2.333,2.233,2.233,0,0,0-1.881-.252,1.85,1.85,0,0,0-1.372,1.023,5.065,5.065,0,0,0-.106,1.118.887.887,0,0,1-.645.84c-.217.03-.439-.064-.653-.018-.33.07-.491.428-.564.746C2633.117,1441.756,2633.188,1442.823,2634.417,1443.256Z" transform="translate(-2521.248 -1435.431)" fill="#d8c4bc"/>
      <path id="Path_13396" data-name="Path 13396" d="M2747.52,1470.423a.441.441,0,0,0,.186.129,1.923,1.923,0,0,0,1.741-.213,1.535,1.535,0,0,0,.58-.6,1.855,1.855,0,0,0,.148-.583c.072-.564.287-1.7-.209-2.143a1.5,1.5,0,0,0-1.55-.069,2.018,2.018,0,0,0-.722,1.258C2747.567,1468.687,2747.2,1469.984,2747.52,1470.423Z" transform="translate(-2592.442 -1454.49)" fill="#84605b"/>
      <path id="Path_13397" data-name="Path 13397" d="M2744.22,1458.124a9.672,9.672,0,0,0,4.066.508,1.137,1.137,0,0,0,1.343-1.2q.049-.6.1-1.193a.781.781,0,0,0-.046-.432,1.757,1.757,0,0,0-.309-.326,1.514,1.514,0,0,1-.258-1.1,2.733,2.733,0,0,0-.717-2.333,2.233,2.233,0,0,0-1.881-.252,1.853,1.853,0,0,0-1.373,1.023,5.005,5.005,0,0,0-.1,1.118.889.889,0,0,1-.646.84c-.217.03-.44-.064-.654-.018-.33.071-.491.428-.564.746C2742.92,1456.623,2742.992,1457.691,2744.22,1458.124Z" transform="translate(-2589.739 -1444.899)" fill="#d8c4bc"/>
      <path id="Path_13398" data-name="Path 13398" d="M2777.328,1526.891a.451.451,0,0,0,.186.129,1.924,1.924,0,0,0,1.741-.213,1.536,1.536,0,0,0,.58-.6,1.873,1.873,0,0,0,.148-.583c.072-.564.287-1.7-.209-2.144a1.5,1.5,0,0,0-1.55-.069,2.011,2.011,0,0,0-.722,1.258C2777.376,1525.155,2777.005,1526.452,2777.328,1526.891Z" transform="translate(-2611.036 -1490.451)" fill="#84605b"/>
      <path id="Path_13399" data-name="Path 13399" d="M2774.029,1514.592a9.682,9.682,0,0,0,4.066.508,1.137,1.137,0,0,0,1.343-1.2q.05-.6.1-1.193a.783.783,0,0,0-.046-.431,1.744,1.744,0,0,0-.309-.326,1.508,1.508,0,0,1-.256-1.1,2.736,2.736,0,0,0-.718-2.333,2.231,2.231,0,0,0-1.881-.252,1.853,1.853,0,0,0-1.373,1.023,5.075,5.075,0,0,0-.105,1.118.89.89,0,0,1-.645.84c-.217.03-.44-.064-.654-.018-.33.07-.491.428-.564.745C2772.728,1513.092,2772.8,1514.159,2774.029,1514.592Z" transform="translate(-2608.333 -1480.86)" fill="#d8c4bc"/>
      <g id="Group_4686" data-name="Group 4686" transform="translate(111.377 10.917)">
        <path id="Path_13400" data-name="Path 13400" d="M2631.587,1463.6a155.378,155.378,0,0,0,5.578,29.744,156.982,156.982,0,0,0,11.188,28.051c1.93,3.745,4.005,7.629,7.253,10.485,2.984,2.623,8.236,4.925,11.842,2.056a9.71,9.71,0,0,0,2.9-5.191c.676-2.44,1.2-4.929,1.73-7.4q1.7-7.874,2.863-15.844a241.245,241.245,0,0,0,2.538-32.219q.022-1.944.012-3.889a.628.628,0,0,0-1.253,0,240.361,240.361,0,0,1-1.905,31.391q-.992,7.815-2.5,15.558-.745,3.822-1.613,7.62a37.168,37.168,0,0,1-1.78,6.527,5.257,5.257,0,0,1-4.4,3.52,9.891,9.891,0,0,1-5.871-1.715c-3.44-2.189-5.682-5.811-7.55-9.26a152.075,152.075,0,0,1-11.383-27.15,153.878,153.878,0,0,1-6.034-28.66q-.2-1.81-.362-3.623c-.067-.769-1.32-.776-1.251,0Z" transform="translate(-2631.584 -1463.024)" fill="#68605e"/>
      </g>
      <g id="Group_4687" data-name="Group 4687" transform="translate(160.177 38.174)">
        <path id="Path_13401" data-name="Path 13401" d="M2767.334,1538.659c-1.061,11.019-1.032,22.1-1.06,33.152-.029,11.01-.108,22.052-1.416,33a116.321,116.321,0,0,1-3.545,18.067c-.213.751.994,1.071,1.208.322,3.029-10.644,4.228-21.673,4.691-32.676.466-11.055.217-22.121.412-33.181.111-6.237.364-12.475.962-18.687.075-.774-1.178-.769-1.252,0Z" transform="translate(-2761.289 -1538.08)" fill="#68605e"/>
      </g>
      <g id="Group_4688" data-name="Group 4688" transform="translate(94.871 27.959)">
        <path id="Path_13402" data-name="Path 13402" d="M2588.283,1510.534c-.179,9.846-.533,19.69-.569,29.538a251.72,251.72,0,0,0,1.359,29.4,151.578,151.578,0,0,0,2.7,16.211c.171.759,1.378.438,1.207-.321a168.561,168.561,0,0,1-3.7-28.968c-.472-9.772-.35-19.56-.13-29.337.124-5.507.278-11.012.378-16.519.014-.778-1.238-.778-1.251,0Z" transform="translate(-2587.711 -1509.951)" fill="#68605e"/>
      </g>
      <g id="Group_4689" data-name="Group 4689" transform="translate(98.428 29.314)">
        <path id="Path_13403" data-name="Path 13403" d="M2597.167,1514.266c.4,8.9.806,17.8,1.442,26.693.635,8.872,1.5,17.731,2.825,26.534.743,4.954,1.635,9.888,2.706,14.785.167.761,1.374.439,1.208-.321a248.382,248.382,0,0,1-4.173-26.2c-.961-8.829-1.565-17.691-2.039-26.555-.267-4.979-.492-9.959-.717-14.94-.035-.775-1.287-.779-1.251,0Z" transform="translate(-2597.166 -1513.683)" fill="#68605e"/>
      </g>
      <g id="Group_4690" data-name="Group 4690" transform="translate(0 27.616)">
        <path id="Path_13404" data-name="Path 13404" d="M2335.661,1560.494a48.825,48.825,0,0,0,10.828,11.46,28.338,28.338,0,0,0,11.126,5.054,27.506,27.506,0,0,0,11.294-.2,40.4,40.4,0,0,0,11-4.363,69.073,69.073,0,0,0,10.523-7.419,112.69,112.69,0,0,0,9.781-9.365c3.069-3.283,5.976-6.7,8.773-10.2,2.58-3.228,5.061-6.527,7.473-9.873,2.016-2.8,3.981-5.624,5.929-8.464q4.214-6.141,8.47-12.253l3.449-4.975c.449-.648-.635-1.254-1.081-.61-3.562,5.138-7.144,10.263-10.679,15.419-1.793,2.615-3.585,5.229-5.417,7.819-2.269,3.206-4.591,6.377-7,9.489-2.649,3.428-5.4,6.785-8.285,10.031a128.026,128.026,0,0,1-9.416,9.6,78.323,78.323,0,0,1-10.129,7.927,45.6,45.6,0,0,1-10.643,5.23,28.437,28.437,0,0,1-10.9,1.428,25.417,25.417,0,0,1-10.832-3.468,39.85,39.85,0,0,1-10.669-9.519c-.885-1.089-1.722-2.214-2.528-3.359-.45-.639-1.535-.035-1.081.61Z" transform="translate(-2335.552 -1509.008)" fill="#68605e"/>
      </g>
      <g id="Group_4691" data-name="Group 4691" transform="translate(0.174 26.073)">
        <path id="Path_13405" data-name="Path 13405" d="M2336.129,1511.391a2.179,2.179,0,0,1,.173.281c.03.054.054.11.082.164.073.146-.048-.131.033.078.129.329.244.662.345,1,.288.949.515,1.915.74,2.878.658,2.821,1.267,5.652,1.979,8.461a95.552,95.552,0,0,0,3.159,10.266,51.223,51.223,0,0,0,5.02,10.144,28,28,0,0,0,7.548,7.905,21.118,21.118,0,0,0,10.6,3.541,37.566,37.566,0,0,0,8.667-.714,41.38,41.38,0,0,0,10.635-3.412,76.285,76.285,0,0,0,16.673-11,119.8,119.8,0,0,0,13.962-14.34c4.351-5.2,8.38-10.641,12.315-16.139q1.738-2.428,3.464-4.864c.457-.643-.628-1.248-1.081-.61-4.075,5.737-8.15,11.477-12.527,17a139.055,139.055,0,0,1-13.34,14.784,82.069,82.069,0,0,1-15.685,11.818,48.729,48.729,0,0,1-9.489,4.331,45.519,45.519,0,0,1-10.658,1.926,20.643,20.643,0,0,1-10.982-2.209,23.885,23.885,0,0,1-7.812-6.9,44.042,44.042,0,0,1-5.313-9.578,83.928,83.928,0,0,1-3.439-10.306c-.8-2.941-1.468-5.911-2.14-8.879a32.541,32.541,0,0,0-1.475-5.51,3.5,3.5,0,0,0-.379-.727c-.463-.629-1.549-.026-1.081.61Z" transform="translate(-2336.014 -1504.757)" fill="#68605e"/>
      </g>
      <path id="Path_13406" data-name="Path 13406" d="M2631.5,1607.73h-8.549l25.6-174.767,7.4,1Z" transform="translate(-2514.823 -1432.963)" fill="#725350"/>
      <path id="Path_13419" data-name="Path 13419" d="M0,0,48.739-.163l-.013,3.73L-.013,3.73Z" transform="translate(111.591 8.901) rotate(7.948)" fill="#725350"/>
      <path id="Path_13420" data-name="Path 13420" d="M0,0,77.827-.26l-.015,4.449-77.827.26Z" transform="translate(94.457 25.761) rotate(7.948)" fill="#725350"/>
    </g>
    <g id="Group_4693" data-name="Group 4693" transform="translate(1804.704 1208.768)">
      <path id="Path_13407" data-name="Path 13407" d="M2271.741,1423.187H2230.13v-58.15h41.611Zm-39.373-2.16H2269.5V1367.2h-37.135Z" transform="translate(-2230.13 -1365.037)" fill="#dbbb83"/>
    </g>
    <path id="Path_13408" data-name="Path 13408" d="M1661.373,1582.5l-5.143,1.16-.323-1.331a2.337,2.337,0,0,0-.485-1.142.812.812,0,0,0-.719-.107.89.89,0,0,0-.673.515,1.771,1.771,0,0,0,0,1.1,2.667,2.667,0,0,0,.616,1.289,4.256,4.256,0,0,0,1.83.744,16.4,16.4,0,0,1,5.394,1.986,6.354,6.354,0,0,1,1.886,3.609,5.915,5.915,0,0,1,.152,2.949,4.03,4.03,0,0,1-1.689,1.989,9.571,9.571,0,0,1-3.4,1.417,9.468,9.468,0,0,1-3.966.147,4,4,0,0,1-2.5-1.343,8.257,8.257,0,0,1-1.241-3.007l-.285-1.176,5.143-1.16.529,2.184a2.576,2.576,0,0,0,.532,1.249.941.941,0,0,0,.839.114.959.959,0,0,0,.733-.551,1.862,1.862,0,0,0,.007-1.148,3.082,3.082,0,0,0-1.016-1.958,17.2,17.2,0,0,0-2.986-1.045,27.062,27.062,0,0,1-3.142-1.057,4.131,4.131,0,0,1-1.461-1.191,5.669,5.669,0,0,1-1.01-2.252,5.758,5.758,0,0,1-.106-3.157,4.065,4.065,0,0,1,1.657-1.947,9.5,9.5,0,0,1,3.237-1.3,10.514,10.514,0,0,1,3.818-.242,3.889,3.889,0,0,1,2.371,1.026,6.992,6.992,0,0,1,1.228,2.922Z" transform="translate(-62.76 -291.739)" fill="#3d5899"/>
    <path id="Path_13409" data-name="Path 13409" d="M1738.359,1577.884l-2.772,12.028a18.184,18.184,0,0,1-.82,2.839,3.821,3.821,0,0,1-1.328,1.5,5.06,5.06,0,0,1-2.355.883,9.244,9.244,0,0,1-3.1-.194,9.945,9.945,0,0,1-3.253-1.258,5.091,5.091,0,0,1-1.869-1.859,3.571,3.571,0,0,1-.44-1.991,38.087,38.087,0,0,1,.789-4.025l2.454-10.65,5.551,1.192-3.11,13.5a4.646,4.646,0,0,0-.2,1.539.609.609,0,0,0,.538.459.679.679,0,0,0,.762-.215,5.9,5.9,0,0,0,.545-1.674l3.056-13.262Z" transform="translate(-108.726 -290.083)" fill="#3d5899"/>
    <path id="Path_13410" data-name="Path 13410" d="M1784.294,1578.293h5.728a15.836,15.836,0,0,1,3.573.307,4.22,4.22,0,0,1,1.877.888,2.913,2.913,0,0,1,.851,1.406,10.681,10.681,0,0,1,.223,2.557v1.606a5.734,5.734,0,0,1-.432,2.574,2.813,2.813,0,0,1-1.587,1.241,8.755,8.755,0,0,1-3.019.433h-1.526v7.425h-5.687Zm5.687,3.154v4.692c.162.008.3.012.419.012a1.454,1.454,0,0,0,1.087-.325,2.078,2.078,0,0,0,.3-1.349v-1.515a1.577,1.577,0,0,0-.352-1.23A2.521,2.521,0,0,0,1789.981,1581.447Z" transform="translate(-147.33 -292.079)" fill="#3d5899"/>
    <path id="Path_13411" data-name="Path 13411" d="M1845.741,1578.293h9.482v3.69h-3.8v3.5h3.553v3.508h-3.553v4.054h4.174v3.69h-9.861Z" transform="translate(-185.658 -292.079)" fill="#3d5899"/>
    <path id="Path_13412" data-name="Path 13412" d="M1900.241,1578.293h4.025a36.429,36.429,0,0,1,5.451.262,3.834,3.834,0,0,1,2.323,1.338,5.327,5.327,0,0,1,.9,3.433,4.667,4.667,0,0,1-.635,2.893,3.637,3.637,0,0,1-2.5.888,4.6,4.6,0,0,1,2.269.945,2.734,2.734,0,0,1,.723,1.088,14.556,14.556,0,0,1,.142,2.728v4.862h-5.281V1590.6a3.634,3.634,0,0,0-.277-1.833q-.277-.353-1.452-.353v8.313h-5.687Zm5.687,3.154v4.1a2.9,2.9,0,0,0,1.344-.222q.385-.222.385-1.441v-1.014a1.382,1.382,0,0,0-.371-1.15A2.426,2.426,0,0,0,1905.928,1581.447Z" transform="translate(-219.653 -292.079)" fill="#3d5899"/>
    <path id="Path_13413" data-name="Path 13413" d="M1954.682,1609.1l10.042,15.685-4.229,2.523-6.785-10.585,5.1,11.593-3,1.788-8.4-9.287,6.619,10.35-4.229,2.523-10.042-15.685,6.26-3.734q1.184,1.248,2.708,2.992l3.241,3.58-3.577-7.987Z" transform="translate(-244.301 -311.7)" fill="#3d5899"/>
    <path id="Path_13414" data-name="Path 13414" d="M2025.676,1578.293l3.252,18.437h-5.812l-.3-3.314h-2.034l-.342,3.314h-5.879l2.9-18.437Zm-3.014,11.855q-.432-3.132-.866-7.744-.869,5.3-1.092,7.744Z" transform="translate(-290.959 -292.079)" fill="#3d5899"/>
    <path id="Path_13415" data-name="Path 13415" d="M2075.052,1578.293h4.025a36.417,36.417,0,0,1,5.45.262,3.834,3.834,0,0,1,2.323,1.338,5.328,5.328,0,0,1,.9,3.433,4.671,4.671,0,0,1-.635,2.893,3.637,3.637,0,0,1-2.5.888,4.6,4.6,0,0,1,2.269.945,2.736,2.736,0,0,1,.723,1.088,14.556,14.556,0,0,1,.142,2.728v4.862h-5.281V1590.6a3.624,3.624,0,0,0-.277-1.833q-.277-.353-1.452-.353v8.313h-5.687Zm5.687,3.154v4.1a2.894,2.894,0,0,0,1.344-.222q.386-.222.385-1.441v-1.014a1.378,1.378,0,0,0-.372-1.15A2.423,2.423,0,0,0,2080.739,1581.447Z" transform="translate(-328.694 -292.079)" fill="#3d5899"/>
    <path id="Path_13416" data-name="Path 13416" d="M2145.325,1578.293l-3.262,8.325,3.573,10.113h-5.876l-2.3-7.9v7.9h-5.687v-18.437h5.687v7.163l2.532-7.163Z" transform="translate(-364.073 -292.079)" fill="#3d5899"/>
    <path id="Path_13417" data-name="Path 13417" d="M2195.362,1578.293h9.482v3.69h-3.8v3.5h3.552v3.508h-3.552v4.054h4.174v3.69h-9.861Z" transform="translate(-403.739 -292.079)" fill="#3d5899"/>
    <path id="Path_13418" data-name="Path 13418" d="M2262.649,1578.293v3.69h-3.377v14.748h-5.687v-14.748h-3.363v-3.69Z" transform="translate(-437.959 -292.079)" fill="#3d5899"/>
  </g>
</svg>
