<svg xmlns="http://www.w3.org/2000/svg" xmlns:xlink="http://www.w3.org/1999/xlink" width="149.121" height="100" viewBox="0 0 149.121 100">
  <defs>
    <linearGradient id="linear-gradient" x1="0.503" y1="1.009" x2="0.401" y2="-0.024" gradientUnits="objectBoundingBox">
      <stop offset="0.059" stop-color="#317f93"/>
      <stop offset="1" stop-color="#1a7187"/>
    </linearGradient>
    <linearGradient id="linear-gradient-2" x1="0.949" y1="5.864" x2="0.354" y2="-0.612" xlink:href="#linear-gradient"/>
    <linearGradient id="linear-gradient-3" x1="0.576" y1="2.114" x2="0.445" y2="-0.332" xlink:href="#linear-gradient"/>
    <clipPath id="clip-path">
      <path id="Path_12751" data-name="Path 12751" d="M879.923,95.166s7.691,1.776,11.413-.336c0,0-1.123,5.089-5.555,4.945S880.109,96.462,879.923,95.166Z" transform="translate(-879.923 -94.83)" fill="none"/>
    </clipPath>
    <linearGradient id="linear-gradient-4" x1="0.058" y1="0.502" x2="0.575" y2="0.498" gradientUnits="objectBoundingBox">
      <stop offset="0" stop-color="#ffc8a2"/>
      <stop offset="0.914" stop-color="#ffc39a"/>
    </linearGradient>
    <clipPath id="clip-path-2">
      <path id="Path_12806" data-name="Path 12806" d="M899.834,79.356a3.006,3.006,0,0,0-3.608-3.011c-2.918.327-1.9,3.6-1.9,3.6S898.735,79.978,899.834,79.356Z" transform="translate(-894.152 -76.312)" fill="none"/>
    </clipPath>
    <linearGradient id="linear-gradient-5" x1="0.5" y1="0.07" x2="0.5" y2="0.949" gradientUnits="objectBoundingBox">
      <stop offset="0" stop-color="#353746"/>
      <stop offset="0.882" stop-color="#4d4f5c"/>
    </linearGradient>
    <clipPath id="clip-path-3">
      <path id="Path_12811" data-name="Path 12811" d="M874.485,79.356a3.006,3.006,0,0,1,3.609-3.011c2.918.327,1.9,3.6,1.9,3.6S875.585,79.978,874.485,79.356Z" transform="translate(-874.485 -76.312)" fill="none"/>
    </clipPath>
    <linearGradient id="linear-gradient-6" x1="0.5" y1="0.013" x2="0.5" y2="0.976" xlink:href="#linear-gradient-5"/>
    <linearGradient id="linear-gradient-7" x1="0.491" y1="0.405" x2="0.398" y2="0.979" gradientUnits="objectBoundingBox">
      <stop offset="0.102" stop-color="#575454"/>
      <stop offset="1" stop-color="#6b6868"/>
    </linearGradient>
    <linearGradient id="linear-gradient-8" x1="0.523" y1="0.4" x2="0.226" y2="0.442" gradientUnits="objectBoundingBox">
      <stop offset="0.118" stop-color="#ffd7bb"/>
      <stop offset="0.914" stop-color="#ffc39a"/>
    </linearGradient>
    <clipPath id="clip-path-4">
      <path id="Path_12866" data-name="Path 12866" d="M371.077,82.955s.538-2.246,2.514-2.286,1.966,1.917,2.08,2.411c0,0-.279,1.423-2.265,1.186S371.077,82.955,371.077,82.955Z" transform="translate(-371.077 -80.669)" fill="none"/>
    </clipPath>
    <linearGradient id="linear-gradient-9" x1="0.433" y1="-0.049" x2="0.566" y2="1.043" gradientUnits="objectBoundingBox">
      <stop offset="0.14" stop-color="#4d4f5c"/>
      <stop offset="1" stop-color="#70727c"/>
    </linearGradient>
    <clipPath id="clip-path-5">
      <path id="Path_12872" data-name="Path 12872" d="M388.2,82.554s-.7-2.316,1.3-2.553a1.545,1.545,0,0,1,1.853,1.548,1.905,1.905,0,0,1-.667,1.217A2.067,2.067,0,0,1,388.2,82.554Z" transform="translate(-388.078 -79.982)" fill="none"/>
    </clipPath>
    <linearGradient id="linear-gradient-10" x1="0.431" y1="-0.082" x2="0.554" y2="0.955" xlink:href="#linear-gradient-9"/>
    <linearGradient id="linear-gradient-11" x1="-2.312" y1="-0.709" x2="-1.907" y2="-0.106" gradientUnits="objectBoundingBox">
      <stop offset="0.086" stop-color="#f8ecd1"/>
      <stop offset="0.262" stop-color="#f7e9cb"/>
      <stop offset="0.492" stop-color="#f4e3ba"/>
      <stop offset="0.751" stop-color="#f0d89f"/>
      <stop offset="0.838" stop-color="#efd495"/>
    </linearGradient>
    <linearGradient id="linear-gradient-12" x1="-3.14" y1="-0.72" x2="-2.99" y2="-0.474" gradientUnits="objectBoundingBox">
      <stop offset="0.259" stop-color="#f5e5c2"/>
      <stop offset="0.844" stop-color="#f2ddae"/>
    </linearGradient>
    <linearGradient id="linear-gradient-13" x1="-4.558" y1="-1.707" x2="-4.23" y2="-1.107" gradientUnits="objectBoundingBox">
      <stop offset="0.086" stop-color="#f8ecd1"/>
      <stop offset="1" stop-color="#efd495"/>
    </linearGradient>
    <linearGradient id="linear-gradient-14" x1="-7.703" y1="-2.555" x2="-7.351" y2="-2.02" xlink:href="#linear-gradient-13"/>
    <linearGradient id="linear-gradient-15" x1="-8.341" y1="-2.203" x2="-8.154" y2="-1.879" gradientUnits="objectBoundingBox">
      <stop offset="0" stop-color="#f5e5c2"/>
      <stop offset="0.844" stop-color="#f2ddae"/>
    </linearGradient>
    <linearGradient id="linear-gradient-16" x1="-12.381" y1="-3.269" x2="-12.032" y2="-2.812" xlink:href="#linear-gradient-13"/>
  </defs>
  <g id="Group_7785" data-name="Group 7785" transform="translate(-1421.999 -6859)">
    <g id="Group_3639" data-name="Group 3639" transform="translate(1483.311 6859)">
      <path id="Path_12720" data-name="Path 12720" d="M934.491,219.9s-4.623-3.946-1.114-8.721C933.377,211.18,943.428,211.7,934.491,219.9Z" transform="translate(-860.289 -124.528)" fill="#d6bd92"/>
      <path id="Path_12721" data-name="Path 12721" d="M857.465,395.784a13.23,13.23,0,0,1-6.152-.877,19.841,19.841,0,0,1-4.033,4.692c-2.9,2.127-12.442,9.334-10.076,10.634.726.4,14.656-3.663,15.419-4.372s5.5-5.707,5.5-5.707v2.162h4.274v-6.735l-.615-.28A34.432,34.432,0,0,1,857.465,395.784Z" transform="translate(-829.495 -212.036)" fill="#2a3236"/>
      <path id="Path_12722" data-name="Path 12722" d="M909.844,395.784a13.232,13.232,0,0,0,6.153-.877,19.838,19.838,0,0,0,4.032,4.692c2.9,2.127,12.443,9.334,10.076,10.634-.726.4-14.656-3.663-15.419-4.372s-5.5-5.707-5.5-5.707v2.162h-4.274v-6.735l.615-.28A34.437,34.437,0,0,0,909.844,395.784Z" transform="translate(-851.511 -212.036)" fill="#2a3236"/>
      <path id="Path_12723" data-name="Path 12723" d="M874.849,123.848l-11.164-2.03s-19.115,4.842-19.115,4.988c0,0,10.319,10.033,7.95,19.459l6.259,29.367,31.065-.425,5.3-29.858s-.677-12.831,7.274-19.246c0,0-3.937-1.111-5.836-1.571s-10.657-2.422-10.657-2.422S875.623,123.989,874.849,123.848Z" transform="translate(-831.997 -81.965)" fill="#eedec4"/>
      <path id="Path_12724" data-name="Path 12724" d="M865.152,134.648l-2.3-.025.192.127Q864.1,134.712,865.152,134.648Z" transform="translate(-837.908 -88.064)" fill="#f0e2cc" opacity="0.55" style="mix-blend-mode: multiply;isolation: isolate"/>
      <path id="Path_12725" data-name="Path 12725" d="M896.6,169.053a33.654,33.654,0,0,0-1.41-3.519c-5.844-8.019-.753-27.478-.753-27.478-.622.1-1.259.179-1.9.256.143-.936.384-2.04.679-3.215l.424.077a.9.9,0,0,0,1-.434L895.786,132c.155-.368-.137-.76-.626-.841l-.81-.134c1.121-3.723,2.307-7.049,2.307-7.049l-4.795-.886a33.865,33.865,0,0,1-1.488,7.279l-.8-.132a.862.862,0,0,0-1,.514l-.682,2.733c-.086.344.194.679.635.759l.634.115c-.64,1.983-1.211,3.618-1.476,4.364a139.225,139.225,0,0,1-17.111-.3c-.277-.783-.831-2.372-1.445-4.278l.634-.115c.44-.08.721-.415.635-.759l-.683-2.733a.861.861,0,0,0-1-.514l-.8.132a37.678,37.678,0,0,1-1.466-6.872c-1.257.38-3,.56-4.682,1.047.423,1.224,1.4,3.9,2.173,6.48l-.81.134c-.49.081-.781.472-.627.841l1.152,2.742a.9.9,0,0,0,1,.434l.424-.078c.284,1.133.518,2.2.663,3.114-1.573-.161-2.5-.28-2.5-.28s3.485,18.594-1.3,27.247l2.4,11.273,31.065-.425Z" transform="translate(-837.555 -82.571)" fill="#f0e2cc" opacity="0.55" style="mix-blend-mode: multiply;isolation: isolate"/>
      <path id="Path_12726" data-name="Path 12726" d="M899.008,161.352a87.908,87.908,0,0,1-16.174,8.3c-5.979,2.2-14.75,4.217-19.892-.454-2.255-2.048-4.186-4.338-6.289-6.494a11.817,11.817,0,0,1-.335,2.389l6.259,29.367,31.065-.425,5.3-29.858A26.152,26.152,0,0,1,899.008,161.352Z" transform="translate(-835.796 -100.795)" fill="#f0e2cc" opacity="0.55" style="mix-blend-mode: multiply;isolation: isolate"/>
      <path id="Path_12727" data-name="Path 12727" d="M895.183,236.465c.279-2.877.451-21.951.677-27.915s-1.128-19.823-1.579-22.922a28.313,28.313,0,0,0-2.235-6.79c-5.844-8.019-.753-27.478-.753-27.478-13.025,2.013-31.208-.338-31.208-.338s3.82,20.376-2.024,28.395a28.331,28.331,0,0,0-2.236,6.79c-.451,3.1-1.8,16.957-1.579,22.922s.5,23.466.677,27.915c.137,3.561-5.977,39.941-7.1,41.71,0,0,7.33,5.19,21.878.98,0,0,.609-23.369-.179-37.027a49.8,49.8,0,0,1,2.064-17.945l3.569-17.717,3.394,17.161a49.665,49.665,0,0,1,2.047,17.883c-.8,13.658-1.422,37.645-1.422,37.645,14.548,4.21,21.878-.98,21.878-.98C899.92,276.985,894.555,242.936,895.183,236.465Z" transform="translate(-833.048 -95.875)" fill="url(#linear-gradient)"/>
      <path id="Path_12728" data-name="Path 12728" d="M895.183,244.843c.279-2.877.451-21.951.677-27.915s-1.128-19.823-1.579-22.922a23.075,23.075,0,0,0-1.368-4.766h0c-.468-1.2-.866-2.024-.866-2.024-.179-.245-.342-.5-.5-.769-.041-.069-.082-.137-.121-.207q-.216-.379-.407-.781c-.042-.089-.08-.181-.12-.272-.083-.186-.162-.377-.237-.569-.051-.132-.1-.263-.152-.4q-.127-.354-.239-.719c-.058-.19-.112-.384-.164-.578-.025-.091-.049-.183-.072-.275-.047-.187-.095-.374-.137-.565h0a41.918,41.918,0,0,1-.213-13.47,16.676,16.676,0,0,1-3.717,3.62c-4,2.776-9.487,6.143-14.91,6.534-4.161.3-7.266-1.9-9.765-3.953a37.653,37.653,0,0,1-.892,7.47c-.047.2-.095.4-.146.592-.019.072-.041.141-.06.212-.054.2-.108.392-.167.584-.022.072-.047.141-.07.213-.06.186-.119.372-.183.554-.029.082-.061.161-.091.242-.062.167-.123.335-.19.5-.036.09-.077.176-.115.264-.064.149-.127.3-.195.444-.048.1-.1.2-.151.3-.062.125-.123.252-.189.373s-.143.248-.215.371c-.053.089-.1.181-.156.267q-.194.31-.4.6l-.048.1v0a27.8,27.8,0,0,0-2.187,6.687c-.451,3.1-1.8,16.958-1.579,22.922s.5,23.466.677,27.915c.137,3.561-5.977,39.941-7.1,41.71,0,0,7.33,5.19,21.878.98,0,0,.609-23.369-.179-37.027a49.8,49.8,0,0,1,2.064-17.945l3.569-17.717,3.394,17.161a49.665,49.665,0,0,1,2.047,17.883c-.8,13.658-1.422,37.645-1.422,37.645,14.548,4.21,21.878-.98,21.878-.98C899.92,285.363,894.555,251.314,895.183,244.843Z" transform="translate(-833.048 -104.253)" opacity="0.15" fill="url(#linear-gradient-2)" style="mix-blend-mode: multiply;isolation: isolate"/>
      <path id="Path_12729" data-name="Path 12729" d="M897.34,199.335a28.309,28.309,0,0,0-2.235-6.79c-2.276-3.122-2.891-7.977-2.8-12.743-.7.068-1.4.128-2.1.189-5.328.459-9.633,3.489-10.894,7.522-.177.567-1.464,9.37-7.923,7.887-3.8-.874-7.212-1.994-9.006-4.535a11.951,11.951,0,0,1-1.267,2.259,28.331,28.331,0,0,0-2.236,6.79c-.451,3.1-1.8,16.958-1.579,22.922.074,1.973.155,5.211.235,8.819,5.693,1.832,11.877,3.246,17.885,2.912l2.783-13.814,2.572,13c.46-.113,1.058-.239,1.724-.374,3.879-.784,5.094-.995,6.225-5.874.618-2.668,1.491-5.94,2.316-8.724.4-1.335.695-5.846,1.725-7.65a8.288,8.288,0,0,0,5.654-.867C898.053,205.461,897.575,200.945,897.34,199.335Z" transform="translate(-836.107 -109.582)" opacity="0.25" fill="url(#linear-gradient-3)" style="mix-blend-mode: multiply;isolation: isolate"/>
      <path id="Path_12730" data-name="Path 12730" d="M890.808,106.71c-3.722,1.468-8.151.843-12.2-.043-.283,2.34-1.522,6.978-3.867,8.172,0,0,2.305,2.389,10.763,2.3s9.308-2.091,9.308-2.091A10.306,10.306,0,0,1,890.808,106.71Z" transform="translate(-841.755 -74.748)" fill="#ffb989"/>
      <g id="Group_3620" data-name="Group 3620" transform="translate(23.694 16.134)">
        <g id="Group_3618" data-name="Group 3618">
          <path id="Path_12731" data-name="Path 12731" d="M867.485,78.231s-3.891-2.831-5.582-1.195-.928,7.329,1.776,7.4a5.5,5.5,0,0,1,3.806,1.244Z" transform="translate(-861.006 -76.528)" fill="#ffc39a"/>
          <path id="Path_12732" data-name="Path 12732" d="M865.9,79.709c-.466-.582-1.028-1.411-1.834-1.543-.9-.147-1.549-.124-1.822.469-.361.783-.316,2.011.44,3.651,1.778,3.858,4.2,2.32,5.13,1.743C867.644,83.9,867.2,81.329,865.9,79.709Z" transform="translate(-861.336 -77.272)" fill="#f8d6bd" opacity="0.75" style="mix-blend-mode: multiply;isolation: isolate"/>
          <path id="Path_12733" data-name="Path 12733" d="M862.95,80.472s1.466-1.445,2.095-.506,2.515,3.871,1.607,4.414-2.089.58-1.73-1.737S864.161,79.983,862.95,80.472Z" transform="translate(-861.635 -78.014)" fill="#ec996b"/>
        </g>
        <g id="Group_3619" data-name="Group 3619" transform="translate(30.533)">
          <path id="Path_12734" data-name="Path 12734" d="M906.131,78.231s3.891-2.831,5.582-1.195.929,7.329-1.776,7.4a5.5,5.5,0,0,0-3.806,1.244Z" transform="translate(-906.131 -76.528)" fill="#ffc39a"/>
          <path id="Path_12735" data-name="Path 12735" d="M908.045,79.709c.465-.582,1.027-1.411,1.834-1.543.9-.147,1.548-.124,1.821.469.361.783.316,2.011-.44,3.651-1.778,3.858-4.2,2.32-5.13,1.743C906.3,83.9,906.749,81.329,908.045,79.709Z" transform="translate(-906.131 -77.272)" fill="#f8d6bd" opacity="0.75" style="mix-blend-mode: multiply;isolation: isolate"/>
          <path id="Path_12736" data-name="Path 12736" d="M911.878,80.472s-1.467-1.445-2.1-.506-2.514,3.871-1.606,4.414,2.089.58,1.729-1.737S910.667,79.983,911.878,80.472Z" transform="translate(-906.714 -78.014)" fill="#ec996b"/>
        </g>
      </g>
      <path id="Path_12737" data-name="Path 12737" d="M883.574,56.875a22.607,22.607,0,0,1-3.315-.138c-3.651-.38-11.9-.288-12.709,8.113-1.048,10.823,6.933,22.006,14.432,21.385,0,0,14.432-.175,13.734-21.21C895.715,65.025,895.287,56.367,883.574,56.875Z" transform="translate(-839.398 -50.913)" fill="#ffc39a"/>
      <g id="Group_3622" data-name="Group 3622" transform="translate(25.499 40.233)">
        <path id="Path_12738" data-name="Path 12738" d="M863.673,123.721s3.736,10.452,4.159,14.969h4.906s-4.318-11.869-4.374-16.146Z" transform="translate(-863.673 -122.544)" fill="#317f93"/>
        <g id="Group_3621" data-name="Group 3621" transform="translate(0.759 7.206)">
          <path id="Path_12739" data-name="Path 12739" d="M864.836,138.079l1.152,2.742a.9.9,0,0,0,.995.434l5.117-.93c.441-.08.721-.415.635-.759l-.682-2.733a.862.862,0,0,0-1-.514l-5.586.921C864.973,137.32,864.681,137.711,864.836,138.079Z" transform="translate(-864.794 -136.303)" fill="#ffd11a"/>
          <path id="Path_12740" data-name="Path 12740" d="M867.483,139.773l.374.889a1.015,1.015,0,0,0,1.123.49l2.1-.382c.5-.091.814-.469.717-.857l-.219-.879a.973.973,0,0,0-1.133-.581l-2.258.372C867.637,138.916,867.308,139.357,867.483,139.773Z" transform="translate(-865.648 -137.319)" fill="#f29a2d"/>
        </g>
      </g>
      <g id="Group_3624" data-name="Group 3624" transform="translate(51.328 40.519)">
        <path id="Path_12741" data-name="Path 12741" d="M910.877,124.164s-3.7,10.482-4.125,15h-4.906s4.284-11.8,4.341-16.074Z" transform="translate(-901.847 -123.09)" fill="#317f93"/>
        <g id="Group_3623" data-name="Group 3623" transform="translate(0.349 7.133)">
          <path id="Path_12742" data-name="Path 12742" d="M910.277,138.486l-1.152,2.742a.9.9,0,0,1-.995.434l-5.117-.93c-.44-.08-.721-.415-.635-.759l.683-2.733a.861.861,0,0,1,1-.514l5.586.921C910.141,137.726,910.432,138.118,910.277,138.486Z" transform="translate(-902.362 -136.71)" fill="#ffd11a"/>
          <path id="Path_12743" data-name="Path 12743" d="M909.339,140.18l-.373.889a1.016,1.016,0,0,1-1.123.49l-2.1-.383c-.5-.09-.815-.469-.717-.857l.219-.879a.973.973,0,0,1,1.133-.581l2.257.372C909.184,139.323,909.514,139.764,909.339,140.18Z" transform="translate(-903.217 -137.726)" fill="#f29a2d"/>
        </g>
      </g>
      <path id="Path_12744" data-name="Path 12744" d="M893.313,68.4a1.023,1.023,0,0,0-.993.794c-.078.62-.115,1.726.578,1.935.972.295,3.51-1.309,7.823-.327,0,0,1.227-1.375-3.3-2.029A21.42,21.42,0,0,0,893.313,68.4Z" transform="translate(-847.425 -56.514)" fill="#4d4f5c"/>
      <path id="Path_12745" data-name="Path 12745" d="M879.832,68.2a1.053,1.053,0,0,1,1.036.761c.112.616.21,1.72-.47,1.952-.955.327-3.579-1.192-7.835-.068,0,0-1.3-1.333,3.184-2.137A21.311,21.311,0,0,1,879.832,68.2Z" transform="translate(-840.993 -56.426)" fill="#4d4f5c"/>
      <path id="Path_12746" data-name="Path 12746" d="M894.244,78.491s.311,8.609-4.01,11.577c0,0-1.025-3.785-2.659-3.857-1.088-.048-3.087.346-5.624.362-2.536-.017-4.536-.41-5.623-.362-1.635.071-2.659,3.857-2.659,3.857-4.322-2.968-3.925-10.081-3.925-10.081s-1.782-1.746-1.654-1.031.2.382.7,7.665c.493,7.2,7.59,13.083,13.158,13.217,5.568-.134,12.665-6.018,13.158-13.217.5-7.283.582-7.577.71-8.292S894.244,78.491,894.244,78.491Z" transform="translate(-839.601 -61.117)" fill="#4d4f5c"/>
      <path id="Path_12747" data-name="Path 12747" d="M882.907,106.837c-5.984,0-11.87-7.283-11.87-7.283,1.662,5.278,7.312,9.285,11.87,9.389,4.557-.1,10.208-4.111,11.87-9.389C894.777,99.554,888.306,106.837,882.907,106.837Z" transform="translate(-840.556 -71.361)" fill="#4d4f5c" opacity="0.32" style="mix-blend-mode: multiply;isolation: isolate"/>
      <g id="Group_3626" data-name="Group 3626" transform="translate(36.494 25.72)">
        <g id="Group_3625" data-name="Group 3625" clip-path="url(#clip-path)">
          <path id="Path_12748" data-name="Path 12748" d="M879.923,95.166s7.691,1.776,11.413-.336c0,0-1.123,5.089-5.555,4.945S880.109,96.462,879.923,95.166Z" transform="translate(-879.923 -94.83)" fill="#e05c4a"/>
          <path id="Path_12749" data-name="Path 12749" d="M885.175,100.582a9.367,9.367,0,0,0-2.465.551,6.36,6.36,0,0,0,3.972,1.361,4.726,4.726,0,0,0,3.479-1.288C889.648,100.8,887.345,100.405,885.175,100.582Z" transform="translate(-880.824 -97.549)" fill="#e8868c"/>
          <path id="Path_12750" data-name="Path 12750" d="M877.725,93.65s9.7,2.239,14.387-.424c0,0-1.564,4.152-7,4.152C879.519,97.378,878.272,94.391,877.725,93.65Z" transform="translate(-879.212 -94.066)" fill="#fffeff"/>
        </g>
      </g>
      <path id="Path_12752" data-name="Path 12752" d="M889.411,83.833a6.762,6.762,0,0,0-1,.073c-3.53,2.237-1.607-6.973-2.035-8.05a3.3,3.3,0,0,0-.854.239S883,83.2,883.2,83.757s2.378.859,2.577,1.165a1.071,1.071,0,0,0,1.363,0c.187-.289,2.142-.578,2.524-1.076C889.58,83.842,889.5,83.833,889.411,83.833Z" transform="translate(-844.486 -60.073)" fill="#f5af87" opacity="0.65"/>
      <path id="Path_12753" data-name="Path 12753" d="M888.22,75.862l.026,0Z" transform="translate(-846.112 -60.076)" fill="#f5af87" opacity="0.65"/>
      <path id="Path_12754" data-name="Path 12754" d="M888.053,75.848c-.02,0-.041,0-.06,0s-.043,0-.064,0A1.083,1.083,0,0,1,888.053,75.848Z" transform="translate(-846.018 -60.068)" fill="#f5af87" opacity="0.65"/>
      <path id="Path_12755" data-name="Path 12755" d="M887.3,75.942c.019,0,.04,0,.06,0a1.193,1.193,0,0,0-.123,0l-.016.005c.288.747-.1,5.475.346,7.572.255,1.195,1.842.722,2.636.426-2.181,0-2.14-7.134-2.521-8.1a2.231,2.231,0,0,0-.444.092C887.261,75.946,887.283,75.942,887.3,75.942Z" transform="translate(-845.79 -60.073)" fill="url(#linear-gradient-4)"/>
      <path id="Path_12756" data-name="Path 12756" d="M870.742,48.535a.788.788,0,0,0,.842-.234c.73-.993,3.207-3.236,10.362-2.4,3.819.447,11.92,1.578,14.933,3.979.9.716,1.679,7.682-.366,12.049a2.854,2.854,0,0,0-2.781.973.68.68,0,0,0-.043.053c-.036.054-.127.19-.26.383-.338.488-1.294.307-1.3-.246-.009-1.829-.216-4.41-1.195-5.9-1.6-2.434-5.872-4.554-10.911-1.457a.86.86,0,0,1-.721.074c-1.411-.5-6.335-2.147-8.353-1.366-2.266.877-3.208,5.684-3.285,9.62a.627.627,0,0,1-.687.527h-.012a.69.69,0,0,1-.656-.37,3.47,3.47,0,0,0-2.8-2.327.661.661,0,0,1-.588-.376c-.65-1.742-3.113-9.115.756-11.591C866.976,47.814,869.624,48.207,870.742,48.535Z" transform="translate(-837.488 -45.719)" fill="#4d4f5c"/>
      <path id="Path_12757" data-name="Path 12757" d="M896.665,121.8l-5.561-2.3-7.863,3.685-9.56-3.325-3.362,1.931,8.176,8.619,4.746-5.793,4.3,5.793Z" transform="translate(-840.323 -80.861)" fill="#f4e9d8" opacity="0.75" style="mix-blend-mode: multiply;isolation: isolate"/>
      <path id="Path_12758" data-name="Path 12758" d="M895.868,120.519l-4.657-3.186-7.7,4.82-7.7-4.82-4.657,3.186,7.938,7.637,4.42-5.793,4.42,5.793Z" transform="translate(-840.593 -79.829)" fill="#f8f0e5"/>
      <g id="Group_3627" data-name="Group 3627" transform="translate(5.254 91.06)">
        <path id="Path_12759" data-name="Path 12759" d="M838.075,221.322l-4.258,15.63a2.187,2.187,0,0,0,1.856,2.559l36.532,9.187a2.838,2.838,0,0,0,3.51-1.664L880.8,226.6c.307-1.231-.739-2.416-2.291-2.6l-37.362-4.379A2.766,2.766,0,0,0,838.075,221.322Z" transform="translate(-833.754 -219.596)" fill="#d8d8d7"/>
        <path id="Path_12760" data-name="Path 12760" d="M837.965,221.278l-4.15,15.231A2.131,2.131,0,0,0,835.624,239l35.6,8.953a2.766,2.766,0,0,0,3.421-1.621l4.958-19.917c.3-1.2-.72-2.355-2.233-2.532l-36.41-4.268A2.694,2.694,0,0,0,837.965,221.278Z" transform="translate(-833.754 -219.596)" fill="#e4e4e3"/>
        <path id="Path_12761" data-name="Path 12761" d="M858.735,235c-2.65-1.754-4.155-4.18-5.876-6.471-1.9-2.533-3.816-5.18-4.665-8.059l-7.231-.847a2.7,2.7,0,0,0-3,1.659l-4.149,15.231A2.131,2.131,0,0,0,835.624,239l35.6,8.953a2.766,2.766,0,0,0,3.421-1.621l2.817-11.315C871.809,237.151,863.717,238.293,858.735,235Z" transform="translate(-833.754 -219.596)" fill="#e4e4e3" style="mix-blend-mode: multiply;isolation: isolate"/>
        <path id="Path_12762" data-name="Path 12762" d="M869.984,249.065c-.131-1.44-.423-1.964-3.232-3.241-2.393-.74-7.044-5.437-7.737-5.965a56.8,56.8,0,0,1-5.329-4.54c-1.414-1.385-2.495-3.259-4.1-4.488-4.226-3.23-4.925,3.434-4.885,5.534a55.147,55.147,0,0,0,.151,5.918,13.1,13.1,0,0,0,1.2,3.39l22.271,5.6C868.535,250.673,870.048,249.782,869.984,249.065Z" transform="translate(-837.292 -224.534)" fill="#e4e4e3" opacity="0.5" style="mix-blend-mode: multiply;isolation: isolate"/>
        <path id="Path_12763" data-name="Path 12763" d="M869.236,230.817c0,.493-.585.892-1.307.892s-1.307-.4-1.307-.892.585-.893,1.307-.893S869.236,230.324,869.236,230.817Z" transform="translate(-844.382 -224.515)" fill="#fff"/>
      </g>
      <path id="Path_12764" data-name="Path 12764" d="M848.312,252.962s11.379-1.01,12.935-4.543C861.248,248.42,847.8,241.879,848.312,252.962Z" transform="translate(-833.203 -141.352)" fill="#d6bd92"/>
      <g id="Group_3628" data-name="Group 3628" transform="translate(16.171 105.245)">
        <path id="Path_12765" data-name="Path 12765" d="M851.887,247.161s-1.623,6.379-1.874,7.157c-.435,1.349.169,1.4,3.494,6.73a.714.714,0,0,0,.72.272,2.853,2.853,0,0,0,1.716-.778s1.593,2.039,2.587,1.19c.459-.392.971-.921.971-.921a2.349,2.349,0,0,0,1.762.843c.637-.073,1.319-.939,1.6-1.674a3.359,3.359,0,0,0,1.918.547c.388-.1.871-.472,1.726-1.506l-.95-.591a7.586,7.586,0,0,1-3.7-1.948c-.952-.809-.7-1.631.386-1.437,1.412.253,1.036.938,3.128,2.125,1.849,1.049,4.443,1.15,4.886.183.727-1.587-2.7-2.426-3.668-3.059-2.07-1.356-3.86-4.233-4.5-4.542-1.06-.508-3.449-1.361-3.528-3.068Z" transform="translate(-849.889 -246.682)" fill="#ffc39a"/>
        <path id="Path_12766" data-name="Path 12766" d="M861.48,255.141a3.362,3.362,0,0,1,0-5.671c-1.169-.531-2.85-1.36-2.916-2.788l-6.672.479s-1.623,6.379-1.874,7.157c-.311.965-.084,1.274,1.284,3.318.051,0,.1-.014.148-.015,3.057-.065,6.18.419,9.2-.3.533-.126,1.093-.294,1.663-.483-.146-.113-.295-.231-.447-.36C861.211,255.93,861.128,255.378,861.48,255.141Z" transform="translate(-849.889 -246.682)" fill="#ffdfcc" opacity="0.75" style="mix-blend-mode: multiply;isolation: isolate"/>
        <path id="Path_12767" data-name="Path 12767" d="M865.563,258.831a7.586,7.586,0,0,1-3.7-1.948c-.952-.809-.7-1.631.386-1.437,1.412.253,1.036.938,3.128,2.125,1.849,1.049,4.443,1.15,4.886.183a.961.961,0,0,0-.1-1.009,1.835,1.835,0,0,1-2.085,1.1,5.175,5.175,0,0,1-2.941-1.352c-1.069-1.075-2.721-2.12-3.921-2.109-.3.88-1.234,2.158-2.351,1.782-.382.952-1.676,1.338-3.068.906a2.545,2.545,0,0,1-2.827-.17,1.858,1.858,0,0,1-2.268-1.375c-.175-.733,1.81-6.162,1.7-8l-.506.037s-1.623,6.379-1.874,7.157c-.435,1.349.439,3.149,3.494,6.73a.774.774,0,0,0,.719.272,2.853,2.853,0,0,0,1.717-.778s1.593,2.039,2.587,1.19c.459-.392.971-.921.971-.921a2.349,2.349,0,0,0,1.762.843c.637-.073,1.319-.939,1.6-1.674a3.358,3.358,0,0,0,1.918.547c.388-.1,1-.032,1.848-1.7Z" transform="translate(-849.898 -247.084)" fill="#ffc39a"/>
        <path id="Path_12768" data-name="Path 12768" d="M866.612,268.582a5.5,5.5,0,0,1-1.663-.583,5.259,5.259,0,0,1-2.553.647,5.085,5.085,0,0,1-2.986.835,7,7,0,0,1-.742-.043,6.174,6.174,0,0,1-1.682.217,6,6,0,0,1-2.219-.4,5.272,5.272,0,0,1-1.5.221h-.1c.405.525.869,1.093,1.4,1.72a.774.774,0,0,0,.719.272,2.853,2.853,0,0,0,1.717-.778s1.593,2.039,2.587,1.19c.459-.392.971-.921.971-.921a2.349,2.349,0,0,0,1.762.843c.637-.073,1.319-.939,1.6-1.674a3.358,3.358,0,0,0,1.918.547c.388-.1,1-.032,1.848-1.7Z" transform="translate(-850.947 -256.835)" fill="#ffdfcc" opacity="0.35" style="mix-blend-mode: multiply;isolation: isolate"/>
        <path id="Path_12769" data-name="Path 12769" d="M877.354,265.127a1.835,1.835,0,0,1-2.085,1.1c-.931-.067-2.974-.739-3.126-.535.131.084.269.169.426.258,1.849,1.049,4.443,1.15,4.886.183A.961.961,0,0,0,877.354,265.127Z" transform="translate(-857.085 -255.467)" fill="#ffdfcc" opacity="0.35" style="mix-blend-mode: multiply;isolation: isolate"/>
        <path id="Path_12770" data-name="Path 12770" d="M867.312,269.276a3.22,3.22,0,0,0,.167-.357c-.186-.347-2.554-2.753-3.278-3.508A20.329,20.329,0,0,0,867.312,269.276Z" transform="translate(-854.515 -255.603)" fill="#eaa47c" opacity="0.32" style="mix-blend-mode: multiply;isolation: isolate"/>
        <path id="Path_12771" data-name="Path 12771" d="M862.148,270.748c.064-.12.265-.2.311-.316-.186-.347-2.7-2.794-3.422-3.55A20.334,20.334,0,0,0,862.148,270.748Z" transform="translate(-852.846 -256.304)" fill="#eaa47c" opacity="0.32" style="mix-blend-mode: multiply;isolation: isolate"/>
        <path id="Path_12772" data-name="Path 12772" d="M857.3,271.023s.232-.138.275-.25c-.177-.331-1.932-1.931-2.623-2.653A11.863,11.863,0,0,0,857.3,271.023Z" transform="translate(-851.523 -256.893)" fill="#eaa47c" opacity="0.32" style="mix-blend-mode: multiply;isolation: isolate"/>
        <path id="Path_12773" data-name="Path 12773" d="M875.347,263.509c.818-.8,2.662.418,2.686.5,0,0,.1.85-1.3,1.087a2.458,2.458,0,0,1-1.144-.562C875.1,264.142,875.11,263.741,875.347,263.509Z" transform="translate(-858.07 -254.568)" fill="#ffd7c0"/>
      </g>
      <path id="Path_12774" data-name="Path 12774" d="M838.561,131.343s-13.8,35.039-12.483,38.967,13.893,25.8,15.021,27.8c0,0,4.105-4.632,12.935-4.543,0,0-15.134-22.124-15.473-23.085s8.087-17.878,8.276-20.723S849.668,136.236,838.561,131.343Z" transform="translate(-825.989 -86.502)" fill="#eedec4"/>
      <path id="Path_12775" data-name="Path 12775" d="M851.737,144.2c-.222,3.921-.374,10.456-3.337,16.11-4.939,9.427-4.015,13.9-4.291,16.024.1.029.211.054.313.086.3-2.064,8.092-17.8,8.273-20.535C852.819,154.043,853.958,148.916,851.737,144.2Z" transform="translate(-831.849 -92.626)" fill="#f0e2cc" opacity="0.55" style="mix-blend-mode: multiply;isolation: isolate"/>
      <path id="Path_12776" data-name="Path 12776" d="M843.65,233.181a27.745,27.745,0,0,1-6.082-7.477c-1.985-3.419-4.057-6.586-7.341-9.01l-.049-.019c4.146,7.9,11.429,20.577,12.275,22.081a13.53,13.53,0,0,1,4.293-2.852C845.685,235.006,844.676,234.068,843.65,233.181Z" transform="translate(-827.343 -127.144)" fill="#f0e2cc" opacity="0.55" style="mix-blend-mode: multiply;isolation: isolate"/>
      <path id="Path_12777" data-name="Path 12777" d="M926.3,130s-10.493,5.7-7.274,19.246c0,0,9.811,13.056,10.826,14.842s-1.353,8.2-1.353,8.2,7.7,2.226,1.579,8.946c0,0,15.676-7.9,13.371-15.885C941.588,158.9,927.258,130.873,926.3,130Z" transform="translate(-855.875 -85.862)" fill="#eedec4"/>
      <path id="Path_12778" data-name="Path 12778" d="M939.135,206.281a6.63,6.63,0,0,1-5.259-1.37c-.3.982-.557,1.668-.557,1.668s7.7,2.226,1.579,8.946c0,0,12.729-6.418,13.555-13.532C946.59,204.55,943.061,205.745,939.135,206.281Z" transform="translate(-860.695 -120.152)" fill="#f0e2cc" opacity="0.55" style="mix-blend-mode: multiply;isolation: isolate"/>
      <path id="Path_12779" data-name="Path 12779" d="M929.954,170.143a3.139,3.139,0,0,0,.231-1.61,11.745,11.745,0,0,0-1.872-4.745c-2.079-3.159-4.617-6.247-5.979-9.656a29.756,29.756,0,0,1-2.024-11.908,17.843,17.843,0,0,0-1.284,12.844s9.811,13.056,10.826,14.842A1.511,1.511,0,0,1,929.954,170.143Z" transform="translate(-855.875 -91.684)" fill="#f0e2cc" opacity="0.55" style="mix-blend-mode: multiply;isolation: isolate"/>
      <g id="Group_3631" data-name="Group 3631" transform="translate(46.117 70.499)">
        <path id="Path_12780" data-name="Path 12780" d="M907.316,182.517c-.459-.619-1.807-1.969-1.893-2.181-5.1,1.444-10.063,3.032-11.083,10.555a16.324,16.324,0,0,0-.191,2.973v.01c0,.188,0,.37,0,.565.129,7.168,7.116,9.47,13.054,10.132-.22-.329,1.354-.786,3.185-1.194l1.437-18.1A6.087,6.087,0,0,1,907.316,182.517Z" transform="translate(-894.145 -180.336)" fill="#f3c400"/>
        <path id="Path_12781" data-name="Path 12781" d="M908.491,181.343c-.571.154-3.467.851-4.048.99a5.2,5.2,0,0,1,.794-1.9c-5.037,1.431-9.888,3.072-10.9,10.5a16.324,16.324,0,0,0-.191,2.973v.01c0,.188,0,.37,0,.565.129,7.168,7.116,9.47,13.054,10.132a15.829,15.829,0,0,1-1.291-2.358,49.891,49.891,0,0,0,9.551.205c10.81.713,13.875-8.326,10.423-15.073-1.42-2.777-5.663-4.724-9.1-5.374A33.037,33.037,0,0,0,908.491,181.343Z" transform="translate(-894.145 -180.384)" fill="#ffd11a"/>
        <path id="Path_12782" data-name="Path 12782" d="M927.286,200.872a9.24,9.24,0,0,0,2.55-5.428l-.006,0a11.646,11.646,0,0,0,0-2.838c-1.435.3-2.916.483-4.385.645-.67.074-5.971.644-6.049.277a2.222,2.222,0,0,0-2.9-1.253,2.353,2.353,0,0,0-1.119.943c-.2.32-1.83-.233-2.219-.354a8.967,8.967,0,0,1-3.671-9.848c-.763.183-1.53.36-2.288.546-.79.194-4.054,4.028-4.5,10.606a7.341,7.341,0,0,0,1.357,4.589,10.8,10.8,0,0,0,1.992,1.875,26.739,26.739,0,0,0,2.463,1.863c.2.354.417.7.655,1.048.5.057.989.1,1.473.138l.011.005a47.115,47.115,0,0,0,7.578.006C921.7,203.923,925.118,203.058,927.286,200.872Z" transform="translate(-896.906 -181.613)" fill="#ffd11a" opacity="0.65" style="mix-blend-mode: multiply;isolation: isolate"/>
        <g id="Group_3629" data-name="Group 3629" transform="translate(10.548 7.377)">
          <path id="Path_12783" data-name="Path 12783" d="M931.969,194.423l-19.61.771v.633l20.321.694A13.149,13.149,0,0,0,931.969,194.423Z" transform="translate(-910.583 -194.423)" fill="#fead00"/>
          <path id="Path_12784" data-name="Path 12784" d="M932.991,206.263l-20.632.812v.633l20.187.69A10.378,10.378,0,0,0,932.991,206.263Z" transform="translate(-910.583 -200.062)" fill="#fead00"/>
          <path id="Path_12785" data-name="Path 12785" d="M932,199.917l-22.264.845v.633l22.46,1.045A12.013,12.013,0,0,0,932,199.917Z" transform="translate(-909.734 -197.04)" fill="#fead00"/>
        </g>
        <g id="Group_3630" data-name="Group 3630" transform="translate(3.937 2.092)">
          <path id="Path_12786" data-name="Path 12786" d="M900.869,196.292c0-8.966,3.449-11.684,3.5-11.962-2.68,2.052-4.507,5.451-4.4,11.962.08,4.714,2.78,7.449,6.231,9.018C906.126,205.132,900.869,201.793,900.869,196.292Z" transform="translate(-899.964 -184.33)" fill="#ffee47"/>
        </g>
      </g>
      <path id="Path_12787" data-name="Path 12787" d="M927.373,200.675a14.383,14.383,0,0,1-1.7,1.743c-2.485,2.068-7.283,1.274-7.984-1.4a2.358,2.358,0,0,0-3.643-1.042,1.93,1.93,0,0,0-.781,1.44c-.041.564-.032,1.128-.023,1.694.061,3.883-5.919,4.854-8.737,2.087a3.5,3.5,0,0,0-3.73-.912c-2.726,1.142-2.506,3.259-2.506,5.421,2.607,2.374,6.632,3.4,10.268,3.8-.22-.329,1.354-.786,3.185-1.194l.066-.837c1.206.034,2.414.024,3.615-.037.87-.039,1.393-.086,1.393-.086.265.017.53.026.794.031.159,0,.315,0,.47,0l.077,0c8.35-.083,11.491-6.412,10.111-12.289C927.892,199.564,927.729,200.261,927.373,200.675Z" transform="translate(-849.36 -118.772)" fill="#ffee47" style="mix-blend-mode: multiply;isolation: isolate"/>
      <g id="Group_3632" data-name="Group 3632" transform="translate(50.227 81.866)">
        <path id="Path_12788" data-name="Path 12788" d="M924.307,207.06a3.253,3.253,0,0,1-2.368,1.047c-1.184-.2-.466-.687-2.537-1.865s-1.72-3.4-2.087-3.928-2.777-.557-2.185,2.324a4.942,4.942,0,0,0,1.353,2.291c1.015.884.916,1.528-.155,1.549-1.313.027-.87-.162-4.573.624a9.165,9.165,0,0,1-4.11.153c-1.248-.3-3.806-3.242-5.54-2.227-1.882,1.1,4.272,4.549,4.948,4.549s5.836-.491,5.836-.491-3.916.54-5.72.54-4.922-3.521-6.5-2.886c-1.818.731,2.354,4.277,4.441,4.626s6.942-.345,7.76-.5a70.2,70.2,0,0,1-7.348.615c-1.878-.156-4.135-2.362-4.387-2.34-.168.015-1.2.977,0,2.179a9.344,9.344,0,0,0,3.473,1.775,2.741,2.741,0,0,0,.827.131,27.317,27.317,0,0,0,7.1-.646,29.842,29.842,0,0,1-6.967.684,11.145,11.145,0,0,1-3.02-.854c-.177-.1-.551,1.3,1.56,1.908a13.713,13.713,0,0,0,5.065.24,13.232,13.232,0,0,0,5.075-1.362c.761-.175,4.4-1.319,5.032-1.357s6.978-.62,7.909-2.944S925.956,207.518,924.307,207.06Z" transform="translate(-900.22 -202.041)" fill="#ffc39a"/>
        <path id="Path_12789" data-name="Path 12789" d="M932.049,212.417a2.853,2.853,0,0,1-2.077.919,1.124,1.124,0,0,1-.578-.225,5.485,5.485,0,0,1-.965,4.24c-.17.253-3.739,1.548-3.954,1.786a20.064,20.064,0,0,1,3.51-.851c2.734-.158,6.107-1.3,6.587-2.5C935.388,213.746,933.5,212.819,932.049,212.417Z" transform="translate(-908.063 -206.983)" fill="#ffdfcc" opacity="0.75" style="mix-blend-mode: multiply;isolation: isolate"/>
        <path id="Path_12790" data-name="Path 12790" d="M914.068,218.241a48.768,48.768,0,0,1-5.037.481c-1.426-.025-3.619-1.72-3.707-1.791a5.632,5.632,0,0,0,3.21,2.049C910.142,219.332,914.068,218.241,914.068,218.241Z" transform="translate(-901.87 -209.133)" fill="#eaa47c" opacity="0.32" style="mix-blend-mode: multiply;isolation: isolate"/>
        <path id="Path_12791" data-name="Path 12791" d="M911.985,222.079a50.118,50.118,0,0,1-5.19.408c-1.426-.025-3.566-1.593-3.655-1.664a5.4,5.4,0,0,0,3.21,1.928C907.958,223.1,911.985,222.079,911.985,222.079Z" transform="translate(-901.164 -210.987)" fill="#eaa47c" opacity="0.32" style="mix-blend-mode: multiply;isolation: isolate"/>
        <path id="Path_12792" data-name="Path 12792" d="M912.879,226.344a29.262,29.262,0,0,1-4.774.466,7.105,7.105,0,0,1-3.29-.553,6.371,6.371,0,0,0,3.119.848A19.306,19.306,0,0,0,912.879,226.344Z" transform="translate(-901.706 -213.575)" fill="#eaa47c" opacity="0.32" style="mix-blend-mode: multiply;isolation: isolate"/>
        <path id="Path_12793" data-name="Path 12793" d="M906.906,215.447a3.234,3.234,0,0,1,.321-2.466c-1.327-.906-3.092-2.373-4.392-1.611-1.512.885,2.157,3.28,4.011,4.189C906.865,215.522,906.886,215.484,906.906,215.447Z" transform="translate(-900.95 -206.383)" fill="#ffdfcc" opacity="0.35" style="mix-blend-mode: multiply;isolation: isolate"/>
        <path id="Path_12794" data-name="Path 12794" d="M905.81,219.114a3.223,3.223,0,0,1,.262-1.778c-1.79-.838-4.111-3.094-5.4-2.573-1.818.731,2.354,4.277,4.441,4.626.182.03.393.05.614.065A3.279,3.279,0,0,1,905.81,219.114Z" transform="translate(-900.22 -208.064)" fill="#ffdfcc" opacity="0.35" style="mix-blend-mode: multiply;isolation: isolate"/>
        <path id="Path_12795" data-name="Path 12795" d="M905.873,221.769c-.064,0-.137,0-.189-.007-1.878-.156-4.135-2.362-4.387-2.34-.168.015-1.2.977,0,2.179a9.344,9.344,0,0,0,3.473,1.775,2.741,2.741,0,0,0,.827.131l.435,0A3.328,3.328,0,0,1,905.873,221.769Z" transform="translate(-900.383 -210.319)" fill="#ffdfcc" opacity="0.35" style="mix-blend-mode: multiply;isolation: isolate"/>
        <path id="Path_12796" data-name="Path 12796" d="M907.039,226.773c-.041-.085-.083-.17-.116-.257-.108,0-.211,0-.32,0a11.143,11.143,0,0,1-3.02-.854c-.177-.1-.551,1.3,1.56,1.908a9.958,9.958,0,0,0,2.247.322A3.437,3.437,0,0,1,907.039,226.773Z" transform="translate(-901.261 -213.289)" fill="#ffdfcc" opacity="0.35" style="mix-blend-mode: multiply;isolation: isolate"/>
        <path id="Path_12797" data-name="Path 12797" d="M902.591,215.756a.37.37,0,0,1,.188.508,1.389,1.389,0,0,1-1.157.748c-.154.014-1.87-1.21-.7-1.751C901.28,215.1,902.128,215.5,902.591,215.756Z" transform="translate(-900.316 -208.319)" fill="#ffd7c0"/>
        <path id="Path_12798" data-name="Path 12798" d="M902.865,221.157a1.278,1.278,0,0,1-1.253.759c-.139-.008-1.32-1.364-.158-1.732C901.675,220.113,902.865,221.157,902.865,221.157Z" transform="translate(-900.455 -210.68)" fill="#ffd7c0"/>
        <path id="Path_12799" data-name="Path 12799" d="M903.861,226.325c-.52.771,1.146,1.308,1.246,1.236a.76.76,0,0,0,.353-.73C904.906,226.738,903.9,226.275,903.861,226.325Z" transform="translate(-901.365 -213.606)" fill="#ffd7c0"/>
        <path id="Path_12800" data-name="Path 12800" d="M905.594,212.414s.245.726-1.294.885c-.166.017-1.9-1.168-.614-1.7C904.5,211.271,905.594,212.414,905.594,212.414Z" transform="translate(-901.187 -206.566)" fill="#ffd7c0"/>
        <path id="Path_12801" data-name="Path 12801" d="M924.567,202.58c-1.328-.471-.973,1.694-.832,1.764a1.282,1.282,0,0,0,1.472-.082l0-.029C924.96,203.78,924.953,202.717,924.567,202.58Z" transform="translate(-907.775 -202.266)" fill="#ffd7c0"/>
      </g>
      <path id="Path_12802" data-name="Path 12802" d="M948.786,196.726c-.072-.251-.165-.538-.274-.851h-7.89a6.745,6.745,0,0,1-.857,3.892,15.813,15.813,0,0,1-4.847,4.865c1.19.428,4.331,1.947.869,7.8C935.787,212.429,951.09,204.712,948.786,196.726Z" transform="translate(-861.213 -117.238)" fill="#eedec4"/>
      <g id="Group_3635" data-name="Group 3635" transform="translate(46.121 16.021)">
        <g id="Group_3634" data-name="Group 3634">
          <g id="Group_3633" data-name="Group 3633" clip-path="url(#clip-path-2)">
            <path id="Path_12803" data-name="Path 12803" d="M899.834,79.356a3.006,3.006,0,0,0-3.608-3.011c-2.918.327-1.9,3.6-1.9,3.6S898.735,79.978,899.834,79.356Z" transform="translate(-894.152 -76.312)" fill="#fffeff"/>
            <path id="Path_12804" data-name="Path 12804" d="M895.154,78.986a2,2,0,1,0,1.994-1.912A1.954,1.954,0,0,0,895.154,78.986Z" transform="translate(-894.476 -76.675)" fill="url(#linear-gradient-5)"/>
            <path id="Path_12805" data-name="Path 12805" d="M897.674,77.01a7.351,7.351,0,0,0-3.342.472,2.063,2.063,0,0,1,1.6-1.773c2.634-.633,3.221.933,3.721,1.611A5.94,5.94,0,0,0,897.674,77.01Z" transform="translate(-894.21 -75.955)" fill="#4d4f5c"/>
          </g>
        </g>
        <path id="Path_12807" data-name="Path 12807" d="M899.733,79.512a.407.407,0,1,1-.394-.305A.359.359,0,0,1,899.733,79.512Z" transform="translate(-895.701 -77.691)" fill="#fffeff"/>
      </g>
      <g id="Group_3638" data-name="Group 3638" transform="translate(32.814 16.021)">
        <g id="Group_3637" data-name="Group 3637">
          <g id="Group_3636" data-name="Group 3636" clip-path="url(#clip-path-3)">
            <path id="Path_12808" data-name="Path 12808" d="M874.485,79.356a3.006,3.006,0,0,1,3.609-3.011c2.918.327,1.9,3.6,1.9,3.6S875.585,79.978,874.485,79.356Z" transform="translate(-874.485 -76.312)" fill="#fffeff"/>
            <path id="Path_12809" data-name="Path 12809" d="M879.975,78.986a2,2,0,1,1-1.994-1.912A1.954,1.954,0,0,1,879.975,78.986Z" transform="translate(-874.971 -76.675)" fill="url(#linear-gradient-6)"/>
            <path id="Path_12810" data-name="Path 12810" d="M876.8,77.063a7.425,7.425,0,0,1,3.358.472,2.718,2.718,0,0,0-2.206-1.844,3.536,3.536,0,0,0-3.129,1.682A5.936,5.936,0,0,1,876.8,77.063Z" transform="translate(-874.593 -76.008)" fill="#4d4f5c"/>
          </g>
        </g>
        <ellipse id="Ellipse_148" data-name="Ellipse 148" cx="0.395" cy="0.305" rx="0.395" ry="0.305" transform="translate(3.38 1.552)" fill="#fffeff"/>
      </g>
    </g>
    <g id="Group_3663" data-name="Group 3663" transform="translate(1421.999 6859.519)">
      <g id="Group_3642" data-name="Group 3642" transform="translate(28.054 133.428)">
        <path id="Path_12812" data-name="Path 12812" d="M373.738,290.21l9.808.176s-.758,6.69-.313,9.064c.28,1.491-.182,2.822-1.931,5.091-1.171,1.518-4.658,17.725-4.84,30.21-.09,6.172.405,11.376,2.853,13.5,0,0,1.941,2.88-.619,2.7-1.587-.11-5.245-3.129-6.717-6.728,0,0-.109-3.6-.547-6.9-1.4-10.545-1.528-27.54,1.595-33.069S373.738,290.21,373.738,290.21Z" transform="translate(-370.486 -290.21)" fill="#f2b286"/>
        <path id="Path_12813" data-name="Path 12813" d="M372.566,308.646a11.469,11.469,0,0,0,3.62,1.177,15.926,15.926,0,0,0,4.518-.138,21.094,21.094,0,0,1,1.6-5.145c1.749-2.269,2.211-3.6,1.931-5.091-.445-2.374.313-9.064.313-9.064l-9.808-.176s2.41,8.521-.711,14.051A15.763,15.763,0,0,0,372.566,308.646Z" transform="translate(-371.485 -290.21)" fill="#e0b286" opacity="0.32" style="mix-blend-mode: multiply;isolation: isolate"/>
        <path id="Path_12814" data-name="Path 12814" d="M386.218,299.449a4.722,4.722,0,0,1-.847,3.527,10.079,10.079,0,0,1-3.532.867c-1.908.019-3.375-.694-5.14-1.088,2.028-5.445.024-12.546.024-12.546l9.808.176S385.774,297.075,386.218,299.449Z" transform="translate(-373.471 -290.21)" fill="#e4bf9a" opacity="0.35" style="mix-blend-mode: multiply;isolation: isolate"/>
        <path id="Path_12815" data-name="Path 12815" d="M388.511,408.116a.409.409,0,0,0,.229-.608,35.048,35.048,0,0,0-4.008-4.955c-1.761-1.75-4.078-4.529-4.078-4.529.254.853.288,1.519-.192,1.675-3.082,1-7.384-6.263-7.384-6.263s-1.8,3.68,1.637,8.065c1.039,1.327,1.5,4.86,1.5,4.86l1.187-.032-.1-3.719s3.071,4.252,4.073,4.7a17.892,17.892,0,0,0,6.386.977A4.469,4.469,0,0,0,388.511,408.116Z" transform="translate(-371.506 -339.801)" fill="#3a4245"/>
      </g>
      <g id="Group_3643" data-name="Group 3643" transform="translate(20.241 132.568)">
        <path id="Path_12816" data-name="Path 12816" d="M357.284,289.268l11.531-.714s-.038,7.92.3,9.185a7.534,7.534,0,0,1-1.131,6.524,7.854,7.854,0,0,0-1.469,3.016A102.7,102.7,0,0,0,364.339,323c-.669,10.581-.8,20.88,1.471,23.971,0,0,1.6,4.15-.343,3.577s-5.319-3.493-5.733-8.731a96.088,96.088,0,0,0-2.936-16.976c-2.074-7.573-1.805-15.87,1.15-20.448C359.72,301.643,357.5,290.2,357.284,289.268Z" transform="translate(-355.45 -288.554)" fill="#ffc39a"/>
        <path id="Path_12817" data-name="Path 12817" d="M358.52,304.389a14.784,14.784,0,0,0-1.879,4.792,18.443,18.443,0,0,0,9.842,1.036c.219-1.176.428-2.168.6-2.938a7.854,7.854,0,0,1,1.469-3.016,7.535,7.535,0,0,0,1.131-6.524c-.336-1.265-.3-9.185-.3-9.185l-11.531.714C358.076,290.2,360.293,301.643,358.52,304.389Z" transform="translate(-356.022 -288.554)" fill="#f1c39a" opacity="0.32" style="mix-blend-mode: multiply;isolation: isolate"/>
        <path id="Path_12818" data-name="Path 12818" d="M366.212,302.757a24.092,24.092,0,0,1-5.9-1.607,62.142,62.142,0,0,0-1.33-11.882l11.531-.714s-.038,7.92.3,9.185a7.993,7.993,0,0,1-.164,4.77A11.525,11.525,0,0,1,366.212,302.757Z" transform="translate(-357.146 -288.554)" fill="#e4bf9a" opacity="0.35" style="mix-blend-mode: multiply;isolation: isolate"/>
        <path id="Path_12819" data-name="Path 12819" d="M375.821,408.117s-8.083-11.45-8.345-11.673c0,0,1.28,3.062.184,3.192s-4.858-2.244-6.293-7.81c0,0-2.59,2.886-2.681,4.419s2.051,4.131,2.181,4.784.08,3.894.08,3.894l1.752.222.007-3.855s3.636,3.681,6.143,5.871a6.367,6.367,0,0,0,4.195,1.569S376.336,409.081,375.821,408.117Z" transform="translate(-357.004 -338.167)" fill="#4a5154"/>
      </g>
      <path id="Path_12820" data-name="Path 12820" d="M375.154,209.852a35.268,35.268,0,0,1-3.444-11.973,26.027,26.027,0,0,1-9.642,1.392,20.534,20.534,0,0,1-8.874-1.685c-.462,3.531-1.373,8.2-3.124,11.142-3.116,5.227-5.011,10.655-1.613,24.012,2.767,10.876.724,27.508.4,28.443,0,0,9.311,5.7,23.936,1.262,0,0,4.71-36.758,4.186-44.564A20.947,20.947,0,0,0,375.154,209.852Z" transform="translate(-330.982 -112.284)" fill="url(#linear-gradient-7)"/>
      <path id="Path_12821" data-name="Path 12821" d="M349.759,225.963c1.86-.915,6.374-9.033,8.1-10.863,2.793-2.967,7.592.613,10.857-2.721a15.391,15.391,0,0,0,3.465,1.932c.988.322,3.275-.372,4.4.125a15.779,15.779,0,0,0-1.426-4.584,35.269,35.269,0,0,1-3.444-11.973,26.026,26.026,0,0,1-9.642,1.392,20.534,20.534,0,0,1-8.874-1.685c-.462,3.531-1.373,8.2-3.124,11.142-2.527,4.238-4.25,8.61-3,17.235Z" transform="translate(-330.982 -112.284)" fill="#575454" opacity="0.35" style="mix-blend-mode: multiply;isolation: isolate"/>
      <path id="Path_12822" data-name="Path 12822" d="M358.57,118.644l-4.928,2.234s11.909,17.544,14.793,17.413,6.1-17.413,6.1-17.413-4.649-1.432-6.1-2.721h0S367.244,124.427,358.57,118.644Z" transform="translate(-334.34 -73.85)" fill="#e8e8db"/>
      <path id="Path_12823" data-name="Path 12823" d="M382.291,120.919s-1.7,14.641-2.881,16.024,1.444,25.354,2.758,27.719,3.028,8.741,9.533,8.347c0,0-3.68-6.111-2.694-15.9.406-4.036,4.073-11.221,4.638-17.215.806-8.549-1.572-15.664-2.009-16.231C391.636,123.662,383.158,121.547,382.291,120.919Z" transform="translate(-346.576 -75.452)" fill="#777575"/>
      <path id="Path_12824" data-name="Path 12824" d="M390.235,182.76c.216-2.143,1.351-5.177,2.452-8.447a15.124,15.124,0,0,1-4.163,5.219,8.847,8.847,0,0,1-6.858,1.591c.585,4.521,1.246,8.321,1.73,9.191,1.314,2.365,3.028,8.741,9.533,8.347C392.929,198.661,389.249,192.55,390.235,182.76Z" transform="translate(-347.803 -101.103)" fill="#575454" opacity="0.25" style="mix-blend-mode: multiply;isolation: isolate"/>
      <path id="Path_12825" data-name="Path 12825" d="M350.473,119.26s-9.243,3.605-13,5.2c0,0,6.27,6.707,5.311,15.819a75.668,75.668,0,0,1,3.371,15.9c.53,5.318-2.133,12.22-4.291,16.053,0,0,18.619,2.689,22.44-5.109,0,0-3.782-26.809-3.636-28.036S351.436,123.868,350.473,119.26Z" transform="translate(-326.571 -74.655)" fill="#777575"/>
      <path id="Path_12826" data-name="Path 12826" d="M365.842,163.1c-1.524,1.59-.915,3.062-3.17,2.86-2.752-.247-6.51-1.173-8.221-3.569a33.993,33.993,0,0,1-5.158-10.944c-.776-3.3-1.456-7.642-4.273-9.908-.042-.034-.086-.066-.129-.1a19.579,19.579,0,0,1,1.455,9.5,75.666,75.666,0,0,1,3.371,15.9c.53,5.318-2.133,12.22-4.291,16.053,0,0,18.619,2.689,22.44-5.109C367.866,177.785,366.814,170.327,365.842,163.1Z" transform="translate(-330.136 -85.308)" fill="#575454" opacity="0.25" style="mix-blend-mode: multiply;isolation: isolate"/>
      <path id="Path_12827" data-name="Path 12827" d="M384.9,191.339c.28,2.657.257,5.343.481,8a6.525,6.525,0,0,0,1.047-1.524s-1.052-7.458-2.025-14.687a5.194,5.194,0,0,0-.878,1.251C383.855,186.7,384.654,189.019,384.9,191.339Z" transform="translate(-348.696 -105.337)" fill="#575454" opacity="0.25" style="mix-blend-mode: multiply;isolation: isolate"/>
      <path id="Path_12828" data-name="Path 12828" d="M343.245,89.31s-7.71-.362-7.272,5.558c.421,5.689,3.8,6.922.907,8.72a1.331,1.331,0,0,1-1.045.178.523.523,0,0,1-.454-.5c0-.613.018-.5.569-.766,0,0-2.039-1.161-2.037,1.324,0,2.226,5.432,2.969,8.367,1.261s7.108-4.928,3.694-10.332C344.405,92.263,343.989,92.07,343.245,89.31Z" transform="translate(-324.862 -60.264)" fill="#3a3a3a"/>
      <path id="Path_12829" data-name="Path 12829" d="M416.5,182.466l3.228-4.612,4.369-.141s-1.72,6.023-4.866,7.424C415.376,186.854,415.493,183.436,416.5,182.466Z" transform="translate(-364.25 -102.736)" fill="#f6ae77"/>
      <path id="Path_12830" data-name="Path 12830" d="M420.828,184.112a3.491,3.491,0,0,1-2.849-1.325L416.5,184.9c-1.006.97-1.123,4.388,2.73,2.672,1.484-.661,2.887-2.933,3.705-4.533C422.433,183.348,421.575,184.112,420.828,184.112Z" transform="translate(-364.25 -105.174)" fill="#f0ae77" opacity="0.55" style="mix-blend-mode: multiply;isolation: isolate"/>
      <path id="Path_12831" data-name="Path 12831" d="M400.791,126.2s-1.826,3.088.341,13.794c1.18,5.831-3.163,12.74-2.958,15.46a28.957,28.957,0,0,0,2.252,10.106,3.73,3.73,0,0,0,5.172,1.609c2.214-1.243,5.27-4.237,8.816-11.159,0,0-3.417,4.731-5.082-.35,0,0-2.037,2.212-2.826,1.818S406.725,139.48,400.791,126.2Z" transform="translate(-355.731 -77.988)" fill="#777575"/>
      <path id="Path_12832" data-name="Path 12832" d="M409.047,166.288a3.651,3.651,0,0,1-.5-2.7,6.694,6.694,0,0,1-.978-.342c-.412.262-.806.418-1.066.288-.108-.054-.181-.432-.244-1.072-3.518-2.709-4.131-8.812-4.069-13.024.048-3.277-2.8-10.611-2.809-10.633-.42,4.074.753,5.3,1.153,7.272,1.18,5.832-2.569,12.713-2.364,15.433a28.958,28.958,0,0,0,2.252,10.106,3.73,3.73,0,0,0,5.172,1.609,17.568,17.568,0,0,0,5.4-5.411A3.711,3.711,0,0,1,409.047,166.288Z" transform="translate(-355.73 -84.044)" fill="#575454" opacity="0.25" style="mix-blend-mode: multiply;isolation: isolate"/>
      <path id="Path_12833" data-name="Path 12833" d="M370.317,101.171a5.5,5.5,0,0,0-.9-.51l-.262-.091a16.1,16.1,0,0,1-2.327-.881,17.668,17.668,0,0,1-3.582-2.852c-.258-.13-1.071-.2-1.239-.347,0,0,2.891,7.946-.526,12.677,0,0,8.739,7.294,11.171-.526,0,0-2.144-2.306-2.124-7.346C370.458,101.255,370.386,101.217,370.317,101.171Z" transform="translate(-338.107 -63.715)" fill="#ffc39a"/>
      <g id="Group_3644" data-name="Group 3644" transform="translate(41.517 50.905)">
        <path id="Path_12834" data-name="Path 12834" d="M406.761,134.766l-10.365,27.6.773.469,10.617-2.183,14.6-28.905-.945-.357Z" transform="translate(-396.397 -131.385)" fill="#ebac1a"/>
        <path id="Path_12835" data-name="Path 12835" d="M408.249,135.564l-10.365,27.6,11.39-1.714,13.831-29.374Z" transform="translate(-397.111 -131.715)" fill="#ffd11a"/>
        <path id="Path_12836" data-name="Path 12836" d="M414.169,160.17a9.865,9.865,0,0,1-10.521.144l-5.764,15.346,11.39-1.714,7.465-15.853A15.234,15.234,0,0,1,414.169,160.17Z" transform="translate(-397.111 -144.216)" fill="#d59429" opacity="0.32" style="mix-blend-mode: multiply;isolation: isolate"/>
      </g>
      <path id="Path_12837" data-name="Path 12837" d="M414.6,172.029a1.026,1.026,0,0,0-.257,1.29c.41.725,4.175,1.12,4.242,1.121l4.159-8.832c-1.05.068-2.085-.046-3.142.045a15.256,15.256,0,0,0-3.692.629,1.381,1.381,0,0,0-.856.841,1.1,1.1,0,0,0,.395,1.253,1.139,1.139,0,0,0-1.065,1.02,1.023,1.023,0,0,0,.28.82C414.105,170.5,413.943,171.245,414.6,172.029Z" transform="translate(-363.42 -96.921)" fill="#e0b163" opacity="0.32" style="mix-blend-mode: multiply;isolation: isolate"/>
      <g id="Group_3649" data-name="Group 3649" transform="translate(51.477 69.36)">
        <path id="Path_12838" data-name="Path 12838" d="M424.965,173.541a3.352,3.352,0,0,1,1.955,1.4c.016.025.028.051.043.077,1.334-1.984,3.538-4.768,3.449-5.2-.222-1.08-2.494-2.367-2.673-2.384a44.331,44.331,0,0,0-2.794,3.5,22.4,22.4,0,0,0-2.4,2.617A5.019,5.019,0,0,1,424.965,173.541Z" transform="translate(-418.921 -167.156)" fill="#ffb989"/>
        <g id="Group_3645" data-name="Group 3645" transform="translate(0.278 2.066)">
          <path id="Path_12839" data-name="Path 12839" d="M423.051,173.366a2.57,2.57,0,0,0-1.188-.333,7.483,7.483,0,0,1-1.919-.2c-.322-.192-3.659.954-3.839-.667a.51.51,0,0,1,.294-.506,11.029,11.029,0,0,1,4.381-.758c3.646-.095,3.215.111,3.463.192s2.484,1.432,2.33,1.788C426.426,173.222,426.519,175.309,423.051,173.366Z" transform="translate(-416.103 -170.88)" fill="#ffc39a"/>
          <path id="Path_12840" data-name="Path 12840" d="M420.844,171.084a18.6,18.6,0,0,1,2.213-.18c3.646-.095,3.215.111,3.463.192a9.382,9.382,0,0,1,2.264,1.586c-.029.092-.123.494-.146.588a9.432,9.432,0,0,0-2.259-1.58c-.248-.081.248-.595-3.4-.5A9.042,9.042,0,0,1,420.844,171.084Z" transform="translate(-418.38 -170.88)" fill="#ecae8b" opacity="0.32" style="mix-blend-mode: multiply;isolation: isolate"/>
          <path id="Path_12841" data-name="Path 12841" d="M430.1,170.987a.91.91,0,0,1,.451.161c.249.08,2.484,1.432,2.33,1.788-.147.338-.054,2.425-3.522.482-.042-.024-.086-.042-.129-.063A4.73,4.73,0,0,0,430.1,170.987Z" transform="translate(-422.408 -170.931)" fill="#ffdfcc" opacity="0.75" style="mix-blend-mode: multiply;isolation: isolate"/>
          <path id="Path_12842" data-name="Path 12842" d="M417.642,172.124a.822.822,0,0,1,.266,1.132c-.039.083-1.264.3-1.407-.49C416.431,172.375,417.642,172.124,417.642,172.124Z" transform="translate(-416.293 -171.478)" fill="#ffd7c0"/>
        </g>
        <g id="Group_3646" data-name="Group 3646" transform="translate(0 3.683)">
          <path id="Path_12843" data-name="Path 12843" d="M421.463,176.2s-1.606-.351-2-.363c-.374-.012-4.038.689-3.894-.808a.4.4,0,0,1,.246-.333,10.033,10.033,0,0,1,4.653-.658c2.869.255,4.489.936,4.574,1.488S425.327,178.1,421.463,176.2Z" transform="translate(-415.567 -173.991)" fill="#ffc39a"/>
          <path id="Path_12844" data-name="Path 12844" d="M420.6,174.087a10.3,10.3,0,0,1,2.286-.053c2.869.255,4.489.936,4.574,1.488.01.068.02.163.027.265-.03.054-.057.109-.085.163-.006-.062-.014-.121-.021-.166-.085-.551-1.706-1.233-4.574-1.488A15.824,15.824,0,0,1,420.6,174.087Z" transform="translate(-417.987 -173.993)" fill="#ecae8b" opacity="0.32" style="mix-blend-mode: multiply;isolation: isolate"/>
          <path id="Path_12845" data-name="Path 12845" d="M428.478,174.687c1.495.323,2.327.777,2.387,1.168.083.532.267,2.436-3.182.864A4.68,4.68,0,0,0,428.478,174.687Z" transform="translate(-421.388 -174.325)" fill="#ffdfcc" opacity="0.75" style="mix-blend-mode: multiply;isolation: isolate"/>
          <path id="Path_12846" data-name="Path 12846" d="M416.907,175.145a.27.27,0,0,1,.258.059.77.77,0,0,1,.136.931c-.032.078-1.191.29-1.271-.475C416,175.422,416.628,175.222,416.907,175.145Z" transform="translate(-415.789 -174.54)" fill="#ffd7c0"/>
        </g>
        <g id="Group_3647" data-name="Group 3647" transform="translate(0.296 5.539)">
          <path id="Path_12847" data-name="Path 12847" d="M420.947,179.611a1.691,1.691,0,0,0-.514-.157c-.515-.066-1.606-.206-1.792-.22-.218-.016-2.013.255-2.465-.675a.405.405,0,0,1,.231-.558,9.532,9.532,0,0,1,3.558-.431,15.757,15.757,0,0,1,2.291.415c.453.2,2.045.72,1.981,1.127S424.225,181.192,420.947,179.611Z" transform="translate(-416.136 -177.563)" fill="#ffc39a"/>
          <path id="Path_12848" data-name="Path 12848" d="M427.237,178.38c.458.2,2.039.719,1.977,1.125-.058.373-.018,1.876-2.72.755A4.673,4.673,0,0,0,427.237,178.38Z" transform="translate(-421.112 -177.956)" fill="#ffdfcc" opacity="0.75" style="mix-blend-mode: multiply;isolation: isolate"/>
          <path id="Path_12849" data-name="Path 12849" d="M419.765,177.649a12.815,12.815,0,0,1,1.944-.077,15.756,15.756,0,0,1,2.291.415c.453.2,2.045.72,1.981,1.127-.005.033-.01.076-.016.125-.03.074-.062.147-.088.222,0-.012,0-.029,0-.038.063-.407-1.528-.931-1.981-1.127a15.761,15.761,0,0,0-2.291-.415A6.063,6.063,0,0,1,419.765,177.649Z" transform="translate(-417.879 -177.564)" fill="#ecae8b" opacity="0.32" style="mix-blend-mode: multiply;isolation: isolate"/>
          <path id="Path_12850" data-name="Path 12850" d="M417.684,178.41a.779.779,0,0,1,.029.907c-.049.063-1.266-.061-1.057-.687C416.7,178.5,417.684,178.41,417.684,178.41Z" transform="translate(-416.374 -177.97)" fill="#ffd7c0"/>
        </g>
        <g id="Group_3648" data-name="Group 3648" transform="translate(1.022)">
          <path id="Path_12851" data-name="Path 12851" d="M425.091,169.591a2.875,2.875,0,0,0-1.054-.492c-.655-.093-1.907-.273-2.3-.347-.5-.095-4.291,1.222-4.2-.476a.619.619,0,0,1,.409-.56,16.4,16.4,0,0,1,7-.7,1.656,1.656,0,0,1,.7.256c.736.476,2.451,1.659,2.357,2.291-.119.8-.462,1.645-1.125,1.182C426.395,170.4,425.776,170.055,425.091,169.591Z" transform="translate(-417.534 -166.903)" fill="#ffc39a"/>
          <path id="Path_12852" data-name="Path 12852" d="M431.56,167.2a1.662,1.662,0,0,1,.514.211c.736.476,2.451,1.659,2.357,2.291-.119.8-.462,1.645-1.125,1.182-.484-.338-1.323-.852-1.891-1.238a3.075,3.075,0,0,0-.5-.263A4.952,4.952,0,0,0,431.56,167.2Z" transform="translate(-423.962 -167.047)" fill="#ffdfcc" opacity="0.75" style="mix-blend-mode: multiply;isolation: isolate"/>
          <path id="Path_12853" data-name="Path 12853" d="M419.011,168.178s.845.236.452,1.247c-.037.1-1.522.355-1.618-.542C417.8,168.456,419.011,168.178,419.011,168.178Z" transform="translate(-417.683 -167.516)" fill="#ffd7c0"/>
        </g>
      </g>
      <path id="Path_12854" data-name="Path 12854" d="M363.085,106.93a8.14,8.14,0,0,1,5.471-2.19,13.223,13.223,0,0,1,2.871.2,14.972,14.972,0,0,1-.412-3.641c-.072-.039-.144-.077-.213-.124a5.5,5.5,0,0,0-.9-.51l-.262-.091a16.1,16.1,0,0,1-2.327-.881,17.668,17.668,0,0,1-3.582-2.852c-.258-.13-1.071-.2-1.239-.347C362.495,96.49,364.6,102.29,363.085,106.93Z" transform="translate(-338.593 -63.715)" fill="#f1bf97" opacity="0.5" style="mix-blend-mode: multiply;isolation: isolate"/>
      <path id="Path_12855" data-name="Path 12855" d="M358.793,61.921s-3.156,2.088-1.644,11.878c0,0-.59-1.146-3.087-.489-1.172.309-1.516,2.147-.854,4.277.677,2.179,1.921,4.308,4.08,4.34a1.907,1.907,0,0,0,1.45-.581,1.351,1.351,0,0,0,.351-.7s4.2,4.949,9.788,6.179c1.852.408,2.994-.356,4.08-1.911,1.429-2.046,3.219-5.045,2.937-6.9-.46-3.023-1.463-5.651-.74-10.251s-3.285-6.768-6.308-7.031S360.041,60.8,358.793,61.921Z" transform="translate(-333.972 -46.498)" fill="#ffc39a"/>
      <path id="Path_12856" data-name="Path 12856" d="M377.411,67.868a8.926,8.926,0,0,1,1.362.571c.028-.221.051-.438.087-.669.723-4.6-3.285-6.768-6.308-7.031s-8.805.066-10.053,1.183c0,0-1.448.964-1.911,4.634C368.335,70.442,375.7,67.335,377.411,67.868Z" transform="translate(-337.677 -46.498)" fill="#ffd6bd" opacity="0.75" style="mix-blend-mode: multiply;isolation: isolate"/>
      <g id="Group_3650" data-name="Group 3650" transform="translate(25.121 33.743)" opacity="0.32">
        <path id="Path_12857" data-name="Path 12857" d="M374.3,102.955c-2.064-.523-9.46-4.6-9.46-4.6.833.918,4.681,4.9,9.616,5.985,1.852.408,2.994-.356,4.08-1.911.137-.195.278-.409.419-.619A4.568,4.568,0,0,1,374.3,102.955Z" transform="translate(-364.842 -98.354)" fill="#ffd6bd" opacity="0.75" style="mix-blend-mode: multiply;isolation: isolate"/>
      </g>
      <path id="Path_12858" data-name="Path 12858" d="M357.566,88.343c-.406-.587-.9-1.424-1.6-1.557-.786-.149-1.354-.125-1.592.473a5.173,5.173,0,0,0,.384,3.684c1.554,3.893,3.667,2.341,4.483,1.759C359.089,92.57,358.7,89.978,357.566,88.343Z" transform="translate(-334.599 -59.017)" fill="#f8d6bd" opacity="0.75" style="mix-blend-mode: multiply;isolation: isolate"/>
      <path id="Path_12859" data-name="Path 12859" d="M355.231,89.035s1.282-1.4,1.831-.491,2.2,3.76,1.4,4.287-1.826.564-1.512-1.687S356.289,88.56,355.231,89.035Z" transform="translate(-335.104 -59.75)" fill="#ec996b"/>
      <g id="Group_3652" data-name="Group 3652" transform="translate(34.095 24.442)">
        <path id="Path_12860" data-name="Path 12860" d="M386.848,92.391h-.015a1.765,1.765,0,0,0-1.057.285,4.855,4.855,0,0,1-.7.381,3.45,3.45,0,0,0,2.207-.691A2.609,2.609,0,0,1,386.848,92.391Z" transform="translate(-383.534 -86.177)" fill="#f5af87"/>
        <g id="Group_3651" data-name="Group 3651" transform="translate(1.578)">
          <path id="Path_12861" data-name="Path 12861" d="M386.27,85.358a1.739,1.739,0,0,0,1.142.777l.046.01c-.056-.082-.12-.17-.2-.275a6.676,6.676,0,0,1-1.121-2.061c-.4-1.273-.989-3.355-.989-3.355a15.736,15.736,0,0,0,.478,3.487A6.4,6.4,0,0,0,386.27,85.358Z" transform="translate(-385.15 -80.454)" fill="url(#linear-gradient-8)"/>
        </g>
        <path id="Path_12862" data-name="Path 12862" d="M382.9,86.812a7.539,7.539,0,0,0,.386-2.521,15.038,15.038,0,0,0,1.413,3.1c.235.309-.328.626-.76.5a2.338,2.338,0,0,0-1.106-.1c-.33.076-.569.656.135,1.293C381.175,87.9,382.736,87.4,382.9,86.812Z" transform="translate(-382.112 -82.297)" fill="#f5b28c" opacity="0.65"/>
      </g>
      <g id="Group_3656" data-name="Group 3656" transform="translate(27.7 24.554)">
        <g id="Group_3655" data-name="Group 3655">
          <g id="Group_3654" data-name="Group 3654" transform="translate(0.661 0)">
            <g id="Group_3653" data-name="Group 3653" clip-path="url(#clip-path-4)">
              <path id="Path_12863" data-name="Path 12863" d="M371.077,82.955s.538-2.246,2.514-2.286,1.966,1.917,2.08,2.411c0,0-.279,1.423-2.265,1.186S371.077,82.955,371.077,82.955Z" transform="translate(-371.077 -80.669)" fill="#fffeff"/>
              <path id="Path_12864" data-name="Path 12864" d="M375.735,83.114a1.34,1.34,0,1,1-1.332-1.48A1.412,1.412,0,0,1,375.735,83.114Z" transform="translate(-372.035 -81.133)" fill="url(#linear-gradient-9)"/>
              <path id="Path_12865" data-name="Path 12865" d="M373.628,85.908a3.156,3.156,0,0,1-2.509-1.119c-.028.089-.043.145-.043.145s.342,1.075,2.329,1.312c1.513.18,2.034-.6,2.2-.984A3.068,3.068,0,0,1,373.628,85.908Z" transform="translate(-371.077 -82.648)" fill="#3a3a3a"/>
            </g>
          </g>
          <path id="Path_12867" data-name="Path 12867" d="M373,80.668a2.3,2.3,0,0,0-2.357,1.453c-.128.321-.8.556-.838.554,0,0,.408.644,1.139-.028a1.016,1.016,0,0,0,.084-.09l.037-.014a2.809,2.809,0,0,1,3.851-.363A1.808,1.808,0,0,0,373,80.668Z" transform="translate(-369.805 -80.668)" fill="#3a3a3a"/>
        </g>
        <path id="Path_12868" data-name="Path 12868" d="M374.478,83.7a.215.215,0,1,1-.215-.215A.215.215,0,0,1,374.478,83.7Z" transform="translate(-371.843 -82.024)" fill="#fff"/>
      </g>
      <g id="Group_3659" data-name="Group 3659" transform="translate(37.185 23.944)">
        <g id="Group_3658" data-name="Group 3658" transform="translate(0.01 0.254)">
          <g id="Group_3657" data-name="Group 3657" clip-path="url(#clip-path-5)">
            <path id="Path_12869" data-name="Path 12869" d="M388.2,82.554s-.7-2.316,1.3-2.553a1.545,1.545,0,0,1,1.853,1.548,1.905,1.905,0,0,1-.667,1.217A2.067,2.067,0,0,1,388.2,82.554Z" transform="translate(-388.078 -79.982)" fill="#fffeff"/>
            <path id="Path_12870" data-name="Path 12870" d="M390.806,82.166a1.2,1.2,0,1,1-1.2-1.33A1.269,1.269,0,0,1,390.806,82.166Z" transform="translate(-388.238 -80.392)" fill="url(#linear-gradient-10)"/>
            <path id="Path_12871" data-name="Path 12871" d="M389.6,84.373a6.745,6.745,0,0,1-1.024-.166,2.057,2.057,0,0,0,2.356.176,1.546,1.546,0,0,0,.639-1.143A2.138,2.138,0,0,1,389.6,84.373Z" transform="translate(-388.318 -81.547)" fill="#3a3a3a"/>
          </g>
        </g>
        <path id="Path_12873" data-name="Path 12873" d="M389.019,79.6a1.664,1.664,0,0,1,1.977.625,1.338,1.338,0,0,0,.734.322s-.183.543-.813.154c-.032-.02-.056-.036-.079-.052l-.03,0a2.127,2.127,0,0,0-1.545-.136,2.058,2.058,0,0,0-1.195.792A1.48,1.48,0,0,1,389.019,79.6Z" transform="translate(-388.06 -79.494)" fill="#3a3a3a"/>
        <path id="Path_12874" data-name="Path 12874" d="M389.73,82.659a.215.215,0,1,1-.215-.215A.215.215,0,0,1,389.73,82.659Z" transform="translate(-388.655 -80.911)" fill="#fff"/>
      </g>
      <path id="Path_12875" data-name="Path 12875" d="M385.936,97.534c-.741.478-2.418,1.15-5.689.727a4.09,4.09,0,0,1,.255.775,5.209,5.209,0,0,0,4.644-.155c-.906.335-.017-.3.328-.8A4.085,4.085,0,0,1,385.936,97.534Z" transform="translate(-347.122 -64.217)" fill="#fffeff"/>
      <path id="Path_12876" data-name="Path 12876" d="M377.713,97.294S379.1,98.555,380,99.236c1.218.926,2.368,1.2,3.624-.441.9-1.184,1.16-1.815,1.6-2.218h0s-.155.115-.718.557a5.847,5.847,0,0,1-2.489,1.344C380.937,98.6,379.482,97.65,377.713,97.294Z" transform="translate(-345.904 -63.671)" fill="#e85c4a"/>
      <path id="Path_12877" data-name="Path 12877" d="M384.655,96.716a1.65,1.65,0,0,0-1.956.133.74.74,0,0,1-.751.089,2.1,2.1,0,0,0-2.008.14,5.368,5.368,0,0,1-1.831.5c1.517.4,5.258,1.09,7.385-1.06l.016-.016C385.492,96.488,384.819,96.818,384.655,96.716Z" transform="translate(-346.094 -63.7)" fill="#e85c4a"/>
      <path id="Path_12878" data-name="Path 12878" d="M392.168,75a8.047,8.047,0,0,0-1-1.045,11.159,11.159,0,0,0-3.14-.308c-.234.205-.154,1.741.317,1.756a25.062,25.062,0,0,1,2.815-.282C391.371,75.171,392.167,76.011,392.168,75Z" transform="translate(-350.799 -52.713)" fill="#3a3a3a"/>
      <path id="Path_12879" data-name="Path 12879" d="M366.663,77.039s1.373-2.1,2.122-2.387,4.463-1.1,4.557-.323.312,1.654-1.342,1.686a9.731,9.731,0,0,0-2.9.281C368.38,76.513,366.913,78.063,366.663,77.039Z" transform="translate(-340.596 -52.91)" fill="#3a3a3a"/>
      <path id="Path_12880" data-name="Path 12880" d="M364.594,53.236c-4.871-.459-7.487,0-8.968,1.2-8.339.589-10.633,10.92-7.2,19.079a9.14,9.14,0,0,0,3.933,4.686,3.99,3.99,0,0,1,.352-.465,7.055,7.055,0,0,1-2.38-3.8c-.662-2.129-.317-3.968.854-4.277a2.49,2.49,0,0,1,1.872.163,7.976,7.976,0,0,1,1.815,1.672l.049-.051a2.709,2.709,0,0,0,.787-2.022,12.687,12.687,0,0,1,1.358-7.12,64.141,64.141,0,0,0,7.781.831c5.148-.482,2.69-2.436,7.5-.473C372.351,62.663,377.252,54.428,364.594,53.236Z" transform="translate(-331.097 -42.852)" fill="#3a3a3a"/>
      <path id="Path_12881" data-name="Path 12881" d="M364.77,53.236c-4.871-.459-7.487,0-8.968,1.2-5.013.354-7.832,4.23-8.544,9.037a14.627,14.627,0,0,0,2.315.49c1.816.221,4.377.562,6.144.061a4.154,4.154,0,0,1,.825-.149,8.45,8.45,0,0,1,.7-1.573,64.141,64.141,0,0,0,7.781.831c5.148-.482,2.69-2.436,7.5-.473C372.527,62.663,377.428,54.428,364.77,53.236Z" transform="translate(-331.273 -42.852)" fill="#4d4f5c" opacity="0.5" style="mix-blend-mode: multiply;isolation: isolate"/>
      <g id="Group_3660" data-name="Group 3660" transform="translate(13.069 0)">
        <path id="Path_12882" data-name="Path 12882" d="M370.278,46.361s4.852.153,4.187,3.47c-.755,3.771-12.512.988-18.227.135s-13.578,5.712-14.593-.181c0,0,.079-1.491,2.236-1.979,0,0-2.2-13.191,11.079-14.316C367.115,32.46,368.557,41.8,370.278,46.361Z" transform="translate(-341.646 -33.412)" fill="#f8ecd5"/>
        <path id="Path_12883" data-name="Path 12883" d="M352.93,48.589c2.179-.246,4.463-.791,6.649-.237a50.462,50.462,0,0,0,6.824,1.336c-4.654-3.094-8.02-8.684-9.475-14.335-10.32,1.5-9.3,11.591-9.129,12.842A19.555,19.555,0,0,0,352.93,48.589Z" transform="translate(-344.551 -34.344)" fill="#f2ecdc" style="mix-blend-mode: multiply;isolation: isolate"/>
        <path id="Path_12884" data-name="Path 12884" d="M343.551,60.338a5.737,5.737,0,0,0,5.053.618c4.24-1.217,8.656-.243,12.934.295a29.474,29.474,0,0,0,6.356.509,7.9,7.9,0,0,0,4.148-1.849,2.582,2.582,0,0,0,.616-.6,2.514,2.514,0,0,1,1.807,2.964c-.755,3.771-12.512.988-18.227.135s-13.578,5.712-14.593-.181C341.646,62.227,341.72,60.9,343.551,60.338Z" transform="translate(-341.646 -45.854)" fill="#fec30c"/>
        <path id="Path_12885" data-name="Path 12885" d="M343.551,60.338a5.737,5.737,0,0,0,5.053.618c4.24-1.217,8.656-.243,12.934.295a29.474,29.474,0,0,0,6.356.509,7.9,7.9,0,0,0,4.148-1.849,2.582,2.582,0,0,0,.616-.6,2.514,2.514,0,0,1,1.807,2.964c-.755,3.771-12.512.988-18.227.135s-13.578,5.712-14.593-.181C341.646,62.227,341.72,60.9,343.551,60.338Z" transform="translate(-341.646 -45.854)" fill="#ebdcc6"/>
        <path id="Path_12886" data-name="Path 12886" d="M343.413,60.831a5.933,5.933,0,0,0,5.152.6c4.329-1.23,8.829-.268,13.191.257a30.505,30.505,0,0,0,6.481.491,8.179,8.179,0,0,0,4.236-1.861,2.635,2.635,0,0,0,.63-.6,2.943,2.943,0,0,1,1.742,1.519,2.713,2.713,0,0,0-1.829-1.927,2.582,2.582,0,0,1-.616.6,7.9,7.9,0,0,1-4.148,1.849,29.474,29.474,0,0,1-6.356-.509c-4.278-.537-8.694-1.512-12.934-.295a5.737,5.737,0,0,1-5.053-.618,2.882,2.882,0,0,0-1.518.979A3.477,3.477,0,0,1,343.413,60.831Z" transform="translate(-342.004 -45.854)" fill="#fcf8f1"/>
      </g>
      <path id="Path_12887" data-name="Path 12887" d="M381.036,119.26s-.05,15.777-1.887,16.886,1.26,6.695,1.26,6.695a130.388,130.388,0,0,1,4.427-12.879.853.853,0,0,0-.135-1c-.709-.658-.813-1.205-.751-1.517.059-.294,1.255-.965,2.087-1.74a.808.808,0,0,0,.145-.953l-1.547-3.877A11.631,11.631,0,0,1,381.036,119.26Z" transform="translate(-346.315 -74.655)" fill="#555353"/>
      <path id="Path_12888" data-name="Path 12888" d="M358.9,117.586s-2.078,1.4-3.541,2.345c0,0-1.233,5.679-1.184,6.335s3.93-.368,3.994.638A5.45,5.45,0,0,1,357,129.4a.8.8,0,0,0,.151,1.092c2.215,1.773,10.574,6.308,11.543,11.543,0,0-.074-5.191-.4-5.914S360.36,122.769,358.9,117.586Z" transform="translate(-334.597 -73.85)" fill="#555353"/>
      <g id="Group_3661" data-name="Group 3661" transform="translate(10.625 68.49)">
        <path id="Path_12889" data-name="Path 12889" d="M377.673,168.288a14.017,14.017,0,0,0,2.462,3.723c1.154,1.216,3.231,2.938,5,3.156.474.058.952.09,1.431.114.53-.574,1.027-1.075,1.478-1.479a3.159,3.159,0,0,0-.533-1.946c-.059-.106.63-.621,1.475-1.4,0,0-1.617-6.356-9.85-5.05,0,0-.562,1.049-1.5,2.764C377.648,168.209,377.661,168.248,377.673,168.288Z" transform="translate(-356.493 -165.229)" fill="url(#linear-gradient-11)"/>
        <path id="Path_12890" data-name="Path 12890" d="M386.611,176.458a23.066,23.066,0,0,1,1.658-1.8,3.688,3.688,0,0,1-1.8-1.211,4.118,4.118,0,0,1-.867-.562c-.323-.316-.626-.645-.922-.981.35.4-.011.051-.139-.031a4.005,4.005,0,0,1-1.378-1.116c-.507.427-1.879,2.791-2.31,3.26.311.433.457.257.828.649a12.048,12.048,0,0,0,4.1,2.927A9.468,9.468,0,0,1,386.611,176.458Z" transform="translate(-358.037 -167.885)" fill="url(#linear-gradient-12)"/>
        <path id="Path_12891" data-name="Path 12891" d="M368.485,173.946c-3.445,1.171-9.631-1.574-8.99-7.595a4.767,4.767,0,0,1,.111-.786l-.017,0s-13.562,21.775-22.647,35.212c.707,2.48,2.551,6.207,6.52,6.048,4.425-6.237,20.864-29.127,25.034-32.864Z" transform="translate(-336.943 -165.39)" fill="#f8ecd1"/>
        <path id="Path_12892" data-name="Path 12892" d="M366.346,183.321c-2.035,2.574-15.828,21.253-22.137,30.074a4.219,4.219,0,0,0,1.012.523c5.9-7.968,20.546-27.546,22.88-30.03A7.993,7.993,0,0,1,366.346,183.321Z" transform="translate(-340.434 -173.921)" fill="#fcf6e8"/>
        <path id="Path_12893" data-name="Path 12893" d="M359.881,170.174s-12.2,19.562-20.885,32.542a10.7,10.7,0,0,0,1.619,3.315c4.3-7.27,12.031-20.2,14.511-23.247a21.154,21.154,0,0,1,7.695-6.47A8.052,8.052,0,0,1,359.881,170.174Z" transform="translate(-337.929 -167.605)" fill="#f8ecd1" style="mix-blend-mode: multiply;isolation: isolate"/>
        <path id="Path_12894" data-name="Path 12894" d="M391.165,174.265s-1.8-4.975-5.505-4.127C383.723,170.581,387.378,176.606,391.165,174.265Z" transform="translate(-360.09 -167.541)" fill="url(#linear-gradient-13)"/>
        <path id="Path_12895" data-name="Path 12895" d="M390.977,175.987c-.127-1.091-2.21-2.508-2.933-3.272-.039.074-.417,1.861-.608,1.874a4.085,4.085,0,0,0,3.55,1.452C390.985,176.022,390.98,176.006,390.977,175.987Z" transform="translate(-361.201 -168.825)" fill="url(#linear-gradient-14)"/>
        <path id="Path_12896" data-name="Path 12896" d="M389.855,175.233c-.268-.228-.04-.869-.336-1.067-.524-.35-1.086-.649-1.585-1.03-.1-.075-.165-.344-.26-.421-.322.394-.685.971-1.009,1.369a4.752,4.752,0,0,0,2.53,1.847C389.559,175.547,389.855,175.233,389.855,175.233Z" transform="translate(-360.83 -168.825)" fill="url(#linear-gradient-15)"/>
        <path id="Path_12897" data-name="Path 12897" d="M388.644,172.687c-.3.788.511,2.232,2.132,2.532C391.137,174.871,390.525,172.884,388.644,172.687Z" transform="translate(-361.752 -168.812)" fill="url(#linear-gradient-16)"/>
      </g>
      <path id="Path_12898" data-name="Path 12898" d="M347.207,209.351c.221.073.411.136.527.168a18.468,18.468,0,0,0,3.23.946,12.352,12.352,0,0,1,4.814,1.435c2.854-3.913,6.03-8.213,8.927-12.01a4.665,4.665,0,0,1-1.792-1.157,2.078,2.078,0,0,0-.983-.413c-1.459.09-2.187,1.781-3.557,2.247-3.1,1.056-5.2,3.046-7.893,2.413-1.292,2-2.6,4.013-3.881,5.975C346.8,209.084,347.008,209.214,347.207,209.351Z" transform="translate(-330.957 -112.636)" fill="#f6d8ba" opacity="0.65" style="mix-blend-mode: multiply;isolation: isolate"/>
      <g id="Group_3662" data-name="Group 3662" transform="translate(19.828 86.724)">
        <path id="Path_12899" data-name="Path 12899" d="M354.654,209.147s5.275,2.051,5.911,2.331c1.1.486,1.239.15,6.4-.8a.4.4,0,0,0,.351-.362,1.379,1.379,0,0,0-.4-1.115s2.026-.548,1.45-1.264c-.265-.331-.642-.716-.642-.716s.957-.289,1.015-.855c.039-.376-.6-.917-1.2-1.2,0,0,.829-.548.783-1-.024-.238-.27-.58-1.029-1.25l-.666.437s-.391.876-2.287,1.761c-.856.4-1.528.109-1.185-.474.447-.76.981-.424,2.348-1.407,1.208-.868,1.713-2.328.945-2.752-1.261-.695-2.54,1.111-3.245,1.55-1.51.94-4.3,1.452-4.667,1.765-.612.514-1.736,1.725-3.232,1.468Z" transform="translate(-354.654 -200.321)" fill="#ffc39a"/>
        <path id="Path_12900" data-name="Path 12900" d="M363.126,208.577c-1.605.91-4.089.434-4.923-1a3.557,3.557,0,0,1-2.89,1.169l-.659,3.886s5.275,2.051,5.91,2.331c.788.348,1.092.273,3.086-.145.006-.03,0-.057.011-.087.436-1.754,1.359-3.447,1.224-5.294a8.435,8.435,0,0,0-.152-1.032c-.122.063-.248.127-.385.191C363.767,208.87,363.275,208.82,363.126,208.577Z" transform="translate(-354.654 -203.808)" fill="#ffdfcc" opacity="0.75" style="mix-blend-mode: multiply;isolation: isolate"/>
        <path id="Path_12901" data-name="Path 12901" d="M366.636,203.352s-.391.876-2.287,1.761c-.856.4-1.528.109-1.185-.474.447-.76.981-.424,2.348-1.407,1.208-.868,1.713-2.328.945-2.752a1.232,1.232,0,0,0-.892-.121.989.989,0,0,1,.623,1.383,3.065,3.065,0,0,1-1.648,1.436c-1.1.42-2.278,1.176-2.462,1.862-.18,1.2,1.168,1.654,1.168,1.654a1.8,1.8,0,0,0,.292,1.908,1.121,1.121,0,0,0-.813,1.558,1.026,1.026,0,0,0-.548.592,1.176,1.176,0,0,0,.181.742c-1.314.427-6.039-2.381-7.655-2.641l-.05.3s5.275,2.051,5.911,2.331c1.1.486,2.8.306,6.4-.8.194-.06.348-.187.351-.362a1.379,1.379,0,0,0-.4-1.115s2.026-.548,1.45-1.264c-.265-.331-.642-.716-.642-.716s.957-.289,1.015-.855c.039-.376-.6-.917-1.2-1.2,0,0,.829-.548.783-1-.024-.238.134-.574-1.18-1.354Z" transform="translate(-354.654 -200.324)" fill="#ffc39a"/>
        <path id="Path_12902" data-name="Path 12902" d="M376.433,205.65a2.822,2.822,0,0,1-.774.845,47.915,47.915,0,0,0,.394,3.417,2.839,2.839,0,0,1-.157.415,2.428,2.428,0,0,1-.082,1,2.682,2.682,0,0,1-.7,1.194,2.09,2.09,0,0,1-.05.9l-.017.059c.521-.138,1.09-.3,1.719-.5.194-.06.348-.187.351-.362a1.379,1.379,0,0,0-.4-1.115s2.026-.548,1.45-1.264c-.266-.331-.642-.716-.642-.716s.957-.289,1.015-.855c.039-.376-.6-.917-1.2-1.2,0,0,.829-.548.783-1-.024-.238.134-.574-1.18-1.354Z" transform="translate(-364.451 -202.621)" fill="#ffdfcc" opacity="0.35" style="mix-blend-mode: multiply;isolation: isolate"/>
        <path id="Path_12903" data-name="Path 12903" d="M375.32,200.36a.989.989,0,0,1,.622,1.383c-.208.519-1.121,1.563-.968,1.687.094-.06.19-.124.293-.2,1.208-.868,1.713-2.328.945-2.752A1.232,1.232,0,0,0,375.32,200.36Z" transform="translate(-364.408 -200.324)" fill="#ffdfcc" opacity="0.35" style="mix-blend-mode: multiply;isolation: isolate"/>
        <path id="Path_12904" data-name="Path 12904" d="M376.478,209.8c-.094-.058-.188-.112-.283-.158-.331.045-2.8.97-3.573,1.249A20.568,20.568,0,0,0,376.478,209.8Z" transform="translate(-363.286 -204.801)" fill="#eaa47c" opacity="0.32" style="mix-blend-mode: multiply;isolation: isolate"/>
        <path id="Path_12905" data-name="Path 12905" d="M376.683,213.829c-.094-.058-.129-.186-.223-.233-.331.045-2.86,1.044-3.632,1.323A20.568,20.568,0,0,0,376.683,213.829Z" transform="translate(-363.385 -206.699)" fill="#eaa47c" opacity="0.32" style="mix-blend-mode: multiply;isolation: isolate"/>
        <path id="Path_12906" data-name="Path 12906" d="M375.95,217.623a.558.558,0,0,0-.173-.2c-.316.043-1.987.76-2.725,1.026A12.049,12.049,0,0,0,375.95,217.623Z" transform="translate(-363.493 -208.537)" fill="#eaa47c" opacity="0.32" style="mix-blend-mode: multiply;isolation: isolate"/>
        <path id="Path_12907" data-name="Path 12907" d="M373.4,202.095c-.561-.606.792-1.443.866-1.442a.864.864,0,0,1,.735.93,1.523,1.523,0,0,1-.672.553A.773.773,0,0,1,373.4,202.095Z" transform="translate(-363.596 -200.481)" fill="#ffd7c0"/>
      </g>
      <path id="Path_12908" data-name="Path 12908" d="M327.392,129.277s-11.649,27.464-10.861,32.545,18.519,13.889,20.622,14.5a17.527,17.527,0,0,0,2.289-6.832s-11.68-8.634-11.732-10.737,3.685-12.482,5.267-12.833c0,0,1.932-4.015-.273-10.06A12.881,12.881,0,0,0,327.392,129.277Z" transform="translate(-316.493 -79.467)" fill="#777575"/>
      <path id="Path_12909" data-name="Path 12909" d="M332.242,172.338c-3.346-2.289-10.455-6.656-11.44-9.81-.522-1.729.986-10.469,5.085-18.807,1.532-3.115,4.071-7.919,2.238-11.441a3.886,3.886,0,0,1-.163-.354c-.236.558-10.961,25.912-10.226,30.647.743,4.787,17.446,13.085,19.427,13.662,0,0,.209-.347.5-.919A27.985,27.985,0,0,1,332.242,172.338Z" transform="translate(-317.073 -80.739)" fill="#575454" opacity="0.25" style="mix-blend-mode: multiply;isolation: isolate"/>
    </g>
  </g>
</svg>
