<svg xmlns="http://www.w3.org/2000/svg" width="392" height="298.055" viewBox="0 0 392 298.055">
  <g id="Group_4930" data-name="Group 4930" transform="translate(-295.265 -202.372)">
    <g id="Group_4908" data-name="Group 4908" transform="translate(295.265 302.588)">
      <path id="Path_13866" data-name="Path 13866" d="M300.909,266.458c0-4.841,11.066-7.082,21.966-9.315s65.4-2.612,65.4-2.612l-6.442,17.516Z" transform="translate(-272.416 -156.688)" fill="#96a6bc"/>
      <g id="Group_4907" data-name="Group 4907">
        <g id="Group_4906" data-name="Group 4906" transform="translate(28.291 107.746)">
          <path id="Rectangle_2114" data-name="Rectangle 2114" d="M.371,0H7.065a.369.369,0,0,1,.369.369V33.233a.371.371,0,0,1-.371.371H.367A.367.367,0,0,1,0,33.236V.371A.371.371,0,0,1,.371,0Z" transform="translate(53.824 6.014)"/>
          <path id="Path_13867" data-name="Path 13867" d="M300.869,269.73c0,.779.914,1.4,2.055,1.4H412.306c1.136,0,2.055-.623,2.055-1.4V258.536c0-.771-.919-1.4-2.055-1.4H302.924c-1.141,0-2.055.626-2.055,1.4Z" transform="translate(-300.869 -257.139)" fill="#6a7b9b"/>
          <rect id="Rectangle_2115" data-name="Rectangle 2115" width="11.177" height="30.615" transform="translate(52.596 31.4)" fill="#6a7b9b"/>
          <path id="Path_13868" data-name="Path 13868" d="M317.419,271.749c3.837,2.366,38.324,19.9,38.324,21.245v7.162H349.5v-5.472l-37.132-14.141v-7.773Z" transform="translate(-254.327 -216.272)" fill="#6a7b9b"/>
          <path id="Path_13869" data-name="Path 13869" d="M336.956,271.529c-3.827,2.366-31.564,22.221-31.564,23.569v7.165h6.27V296.8l30.332-16.487v-7.773Z" transform="translate(-282.557 -216.887)" fill="#6a7b9b"/>
          <path id="Path_13870" data-name="Path 13870" d="M350.7,271.572,302.169,281.7v8.588h4.339V286.1l40.364-6.753Z" transform="translate(-295.606 -216.766)" fill="#6a7b9b"/>
          <path id="Path_13871" data-name="Path 13871" d="M313.019,271.572l48.538,6.467v13.817h-4.348v-9.412l-40.354-3.1Z" transform="translate(-251.677 -216.766)" fill="#6a7b9b"/>
        </g>
        <path id="Path_13872" data-name="Path 13872" d="M313.02,310.833c2.14,10.408,8.35,16.472,19.821,15.033l29.231-6.341c11.465-1.439,22.436-5.24,20.315-15.648l-20.815-58.139c-2.146-10.4-7.6-18.246-19.048-16.8l-34.618,1.519c-11.46,1.451-14.106,11.057-11.96,21.462Z" transform="translate(-295.265 -228.764)" fill="#6a7b9b"/>
      </g>
    </g>
    <path id="Path_13873" data-name="Path 13873" d="M356.633,248.152c55.044,8.278,76.955,6.482,80.176,23.725,2.953,15.88,1.838,72.192,1.838,72.192l-38.838-.794s-15.848-41.169-4.125-62.783c3.549-6.539-87.693-18.28-87.693-18.28Z" transform="translate(51.517 128.056)"/>
    <path id="Path_13874" data-name="Path 13874" d="M358.034,253.908c6.735,2.988,58.841,3.767,61.905,18.948,4.221,20.934-14.762,61.507-20.7,82.137l-36.663-3.349s6.053-46.47,19.816-65.213c2.156-2.939-64.445-1.69-71.841-9.318-13.379-13.791-1.459-29.322-1.459-29.322Z" transform="translate(36.167 127.046)"/>
    <path id="Path_13875" data-name="Path 13875" d="M384.165,316l2.272-9.189s3.574-6.888,4.342-28.206c.535-15.4,11.491-21.967,7.427-27.826-1.57-2.248-29.393-24.344-29.393-24.344-11.566,9.193-20.815,6.827-34.689,26.584-16.862,24.006-15.58,30.731-22.542,36.487-6.1,5.043-12.6,20.736-1.737,24.253C309.845,313.755,383.019,323.552,384.165,316Z" transform="translate(35.38 67.298)"/>
    <path id="Path_13876" data-name="Path 13876" d="M589.852,265.462H319.326l19.815-24.222,195.217-.742Z" transform="translate(97.413 106.646)" fill="#96a6bc"/>
    <g id="Group_4912" data-name="Group 4912" transform="translate(471.524 346.662)">
      <path id="Path_13877" data-name="Path 13877" d="M337.082,240.42c.379-.1,1.318-.011,2.019,2.145.979,2.8,5.281,12.637,5,14.338-.091.608-3.549.353-3.549.353Z" transform="translate(-302.226 -240.31)"/>
      <path id="Path_13878" data-name="Path 13878" d="M370.516,256.657c.606-.11.964.4.843-1.113l-5.291-14.68c-.318-.627-1.116-.463-1.641-.494l-28.666,2.271c-.717-.038-1.823,1.637-2.721,5.54,0,0-3.13,10.139-2.817,10.382Z" transform="translate(-330.082 -240.371)" fill="#1e2123"/>
      <g id="Group_4910" data-name="Group 4910" transform="translate(6.099 1.237)">
        <g id="Group_4909" data-name="Group 4909" transform="translate(0.055 0.057)">
          <path id="Path_13879" data-name="Path 13879" d="M340.638,251.66c.146-.042.136-.349.035-.672h0l-3.478-10.021c-.06-.156-.177-.281-.268-.251h0c-.076.034-.106.171-.066.353h0l3.383,10.1c.106.3.252.505.394.505h0v-.011Z" transform="translate(-309.346 -240.712)"/>
          <path id="Path_13880" data-name="Path 13880" d="M339.677,251.833c.116-.061.126-.353.045-.684h0L336.84,241c-.03-.156-.161-.266-.237-.243h0c-.1.038-.136.186-.1.361h0l2.8,10.23c.076.289.222.505.323.5h0l.051-.011Z" transform="translate(-310.774 -240.596)"/>
          <path id="Path_13881" data-name="Path 13881" d="M338.651,252c.136-.046.147-.357.1-.668h0l-2.262-10.287c-.03-.171-.126-.281-.217-.243h0a.268.268,0,0,0-.1.364h0l2.166,10.359c.03.285.177.5.3.49h0l.02-.015Z" transform="translate(-312.201 -240.479)"/>
          <path id="Path_13882" data-name="Path 13882" d="M337.63,252.2c.141-.049.192-.38.131-.695h0l-1.62-10.4c-.035-.175-.126-.292-.2-.262h0c-.141.03-.192.194-.141.361h0l1.54,10.473c.02.311.151.528.288.52h0Z" transform="translate(-313.659 -240.362)"/>
          <path id="Path_13883" data-name="Path 13883" d="M336.594,252.393c.136-.057.212-.4.177-.733h0l-.989-10.518c-.01-.179-.106-.281-.2-.258h0c-.106.038-.172.2-.162.38h0l.9,10.59c0,.315.136.554.247.539h.03Z" transform="translate(-315.123 -240.241)"/>
          <path id="Path_13884" data-name="Path 13884" d="M335.5,252.559c.167-.057.252-.391.232-.68h0l-.338-10.682c.01-.171-.086-.3-.182-.273h0c-.091.046-.146.2-.157.4h0l.187,10.731c.03.323.136.535.247.524h0l.01-.019Z" transform="translate(-316.583 -240.126)"/>
          <path id="Path_13885" data-name="Path 13885" d="M334.822,252.749c.136-.057.273-.41.3-.714h0l.3-10.811c.02-.163-.055-.289-.162-.251h0a.416.416,0,0,0-.2.365h0l-.465,10.887c-.03.319.071.543.2.539h0l.025-.015Z" transform="translate(-318.47 -239.997)"/>
          <path id="Path_13886" data-name="Path 13886" d="M334.286,252.923c.146-.049.3-.38.318-.706h0l1-10.943c.015-.175-.045-.3-.146-.251h0c-.1.023-.2.194-.222.365h0l-1.156,11.035c-.02.311.03.539.157.524h0c.02.008.02,0,.046-.023Z" transform="translate(-320.534 -239.875)"/>
          <path id="Path_13887" data-name="Path 13887" d="M333.749,253.126a1,1,0,0,0,.348-.725h0l1.727-11.076c.03-.167-.045-.3-.131-.262h0a.415.415,0,0,0-.247.391h0L333.582,252.6c-.056.311,0,.554.131.532h0l.035-.008Z" transform="translate(-322.637 -239.751)"/>
          <path id="Path_13888" data-name="Path 13888" d="M333.215,253.324a1.124,1.124,0,0,0,.4-.74h0l2.423-11.206c.045-.178,0-.3-.1-.277h0a.657.657,0,0,0-.3.391h0l-2.57,11.3c-.081.346-.03.554.116.539h0l.03-.008Z" transform="translate(-324.784 -239.63)"/>
          <path id="Path_13889" data-name="Path 13889" d="M332.646,253.512a1.177,1.177,0,0,0,.47-.748h0l3.165-11.346c.061-.178,0-.3-.1-.266h0a.618.618,0,0,0-.3.38h0l-3.332,11.433c-.1.342-.071.577.071.562h0l.02-.015Z" transform="translate(-326.951 -239.499)"/>
          <path id="Path_13890" data-name="Path 13890" d="M332.093,253.736a1.327,1.327,0,0,0,.525-.779h0l3.943-11.483c.061-.19.015-.308-.1-.281h0a.651.651,0,0,0-.323.418h0l-4.1,11.578c-.141.342-.1.585.03.562h0l.025-.015Z" transform="translate(-329.164 -239.374)"/>
          <path id="Path_13891" data-name="Path 13891" d="M331.548,253.96a1.764,1.764,0,0,0,.56-.813h0l4.725-11.619c.045-.186.01-.327-.1-.285h0a.625.625,0,0,0-.333.41h0l-4.9,11.726c-.136.338-.141.6-.015.589h0c.04-.011.04-.011.061-.008Z" transform="translate(-331.397 -239.245)"/>
        </g>
        <path id="Path_13892" data-name="Path 13892" d="M363,244.416a2.366,2.366,0,0,0-.469-1.006h0l-30.715,3.782c-.126.015-.318.319-.434.638Z" transform="translate(-331.386 -233.108)"/>
        <path id="Path_13893" data-name="Path 13893" d="M360.936,243.768c.3-.03.182-.232.207-.5h0c-.035-.251-.126-.467-.232-.459h0l-28.842,3.338c.409-.046-.121.353-.242.642l-.157.023c-.121.319-.146.459-.03.437h0l29.3-3.482Z" transform="translate(-330.665 -234.783)"/>
        <path id="Path_13894" data-name="Path 13894" d="M359.432,243.012c.106,0,.01-.186-.01-.437l-.227.061c.02-.232-.071-.422-.167-.4h0L332.311,245.1c-.121.011-.323.243-.409.509h0c-.111.273-.116.478.03.456h0l27.116-2.992Z" transform="translate(-329.625 -236.393)"/>
        <path id="Path_13895" data-name="Path 13895" d="M357.981,242.331c.091-.008.146-.148.151-.308h0c-.005-.159-.051-.292-.121-.281h0l-25.647,2.6c-.106.008-.247.163-.3.357h0c-.071.175-.05.323.02.311h0l25.9-2.677Z" transform="translate(-328.826 -237.774)"/>
        <path id="Path_13896" data-name="Path 13896" d="M356.6,241.754a.2.2,0,0,0,.146-.213h0c.025-.095-.02-.186-.1-.171h0l-24.112,2.442c-.1,0-.227.122-.288.235h0c-.086.114-.1.2-.025.2h0l24.374-2.495Z" transform="translate(-328.164 -238.818)"/>
        <path id="Path_13897" data-name="Path 13897" d="M355.664,241.376c.106,0,.166-.106.187-.2h0c-.01-.106-.05-.19-.126-.182h0l-23.077,2.2a.4.4,0,0,0-.3.243h0c-.071.11-.076.194-.005.194h0l23.319-2.256Z" transform="translate(-327.71 -239.86)"/>
        <path id="Path_13898" data-name="Path 13898" d="M355.132,241.077c.066,0,.116-.1.116-.2h0c.03-.11-.01-.186-.086-.178h0l-22.476,2.024a.463.463,0,0,0-.252.224h0c-.081.125-.071.216-.005.213h0l22.7-2.081Z" transform="translate(-327.375 -240.697)"/>
      </g>
      <g id="Group_4911" data-name="Group 4911" transform="translate(0 13.757)">
        <path id="Path_13899" data-name="Path 13899" d="M331.425,249.208l40.555-1.944c.56-.027-.4-3.288-.974-3.269l-39.858,3.717a.94.94,0,0,0-.964,1.154S330.249,249.356,331.425,249.208Z" transform="translate(-330.178 -243.994)"/>
      </g>
    </g>
    <path id="Path_13900" data-name="Path 13900" d="M326.7,248.372c7.75-2.521,7.649-8.27,8.184-8.035,2.06.938,16.277,1.135,24.753,1.823,3.857-.642,7.3-2.878,9.158-2.688,2.555.243,6.26.486,7.84,1.295,1.6.809,4.089,3.3,2.908,4.192-.495.376-.4-.3-2.585-1.538a12.37,12.37,0,0,0-3.312-.649,35.4,35.4,0,0,0-4,1.01s6.7,1.17,6.1,2.172c-.288.459-.808.57-3.65.292s-4.776,1.637-7.9,1.333c-2.035-.2-2.751-.277-4.917-.57C352.257,247.525,320.683,250.328,326.7,248.372Z" transform="translate(124.2 103.743)" fill="#d3a994"/>
    <path id="Path_13901" data-name="Path 13901" d="M328.608,271.978c2.126,4.484.586,9.3-.237,15.341s-2.726,10.594,5.367,11.976c8.047,1.375,47.795.737,47.795.737s7.144-7.161-10.945-8.878c-14.06-1.329-21.36-10.708-20.952-19.525C349.732,269.369,328.608,271.978,328.608,271.978Z" transform="translate(130.779 191.148)"/>
    <path id="Path_13902" data-name="Path 13902" d="M323.688,275.257c-4.806,7.4-8.451,14.505-6.331,21.864.636,2.225,10.077,1.883,10.077,1.883s5.72-1.139,14.929,2.776c7.578,3.209,22.719-.57,25.228-1.694,2.565-1.132,7.992-7.348.222-9.565-5.765-1.656-16.685-2.248-20.1-5.035-12.217-9.933-2.524-14.384-2.524-14.384Z" transform="translate(86.941 192.255)"/>
    <g id="Group_4919" data-name="Group 4919" transform="translate(512.882 211.645)">
      <path id="Path_13903" data-name="Path 13903" d="M363.095,218.418l-4.487,22.568H348.077l4.26-23.8Z" transform="translate(-299.07 -170.21)"/>
      <g id="Group_4916" data-name="Group 4916" transform="translate(0 61.9)">
        <g id="Group_4915" data-name="Group 4915">
          <g id="Group_4914" data-name="Group 4914">
            <path id="Path_13904" data-name="Path 13904" d="M338.39,285.184a.881.881,0,0,0,.712,1.12l69.518,3.4a1.624,1.624,0,0,0,1.681-1.219l13.419-63.136c.172-.775-6.27-4.329-7.093-4.23L348.72,229.3a1.471,1.471,0,0,0-1.131,1.2Z" transform="translate(-338.37 -221.115)"/>
            <g id="Group_4913" data-name="Group 4913" transform="translate(5.454 5.991)">
              <path id="Path_13905" data-name="Path 13905" d="M339.469,276.863a.734.734,0,0,0,.611.942l58.275,1.549a1.331,1.331,0,0,0,1.363-1.018l10.865-54.627a.823.823,0,0,0-.975-1.01l-61.244,6.231a1.234,1.234,0,0,0-.979,1.01Z" transform="translate(-339.45 -222.693)" fill="#409af4"/>
              <path id="Path_13906" data-name="Path 13906" d="M345.543,256.121a.946.946,0,0,0,.878,1.177l18,.706a1.524,1.524,0,0,0,1.474-1.181l5.4-27.659a.941.941,0,0,0-1.015-1.177l-18.518.965a1.53,1.53,0,0,0-1.333,1.227Z" transform="translate(-314.859 -207.889)" fill="#fff" style="mix-blend-mode: soft-light;isolation: isolate"/>
              <path id="Path_13907" data-name="Path 13907" d="M344.013,238.171a.3.3,0,0,0,.3.395l5.957-.129a.539.539,0,0,0,.475-.421l1.742-9.337a.308.308,0,0,0-.323-.391l-6.013.33a.536.536,0,0,0-.454.425Z" transform="translate(-321.014 -207.05)" fill="#fff" style="mix-blend-mode: soft-light;isolation: isolate"/>
              <path id="Path_13908" data-name="Path 13908" d="M341.236,245.483c-.045.307.343.566.868.581l15.4.239c.591.011,1.131-.232,1.191-.558l2.479-13.275c.06-.327-.389-.585-.99-.577l-16.064.175c-.54,0-1.02.266-1.07.57Z" transform="translate(-332.236 -196.96)" fill="#fff" style="mix-blend-mode: soft-light;isolation: isolate"/>
              <path id="Path_13909" data-name="Path 13909" d="M341.731,231.178c-.111.592.232,1.04.757,1l45.947-3.414a1.782,1.782,0,0,0,1.535-1.344l.242-1.261a.916.916,0,0,0-1.045-1.143l-46.1,3.938a1.426,1.426,0,0,0-1.151,1.151Z" transform="translate(-330.302 -216.211)" fill="#fff" style="mix-blend-mode: soft-light;isolation: isolate"/>
            </g>
          </g>
          <path id="Path_13910" data-name="Path 13910" d="M365.307,239l-10.295,16.009H344.491l10.058-17.247Z" transform="translate(-313.588 -174.558)"/>
        </g>
        <path id="Path_13911" data-name="Path 13911" d="M341.85,244.239c0,1.454,1.57,2.639,3.5,2.639h30.18c1.934,0,3.514-1.185,3.514-2.639h0c0-1.458-1.58-2.639-3.514-2.639h-30.18c-1.934,0-3.5,1.181-3.5,2.639Z" transform="translate(-324.281 -163.816)"/>
      </g>
      <g id="Group_4918" data-name="Group 4918" transform="translate(3.47)">
        <path id="Path_13912" data-name="Path 13912" d="M345.376,267.3a.98.98,0,0,0,1.106.778l75.849-9.1c.843-.084,1.459-.63,1.419-1.223l-5.523-49.918c-.631-1.458-4.327-2.958-6.962-3.026l-1.545.205L339.954,221.1a1.086,1.086,0,0,0-.889,1.128Z" transform="translate(-339.057 -204.814)"/>
        <g id="Group_4917" data-name="Group 4917" transform="translate(5.744 4.654)">
          <path id="Path_13913" data-name="Path 13913" d="M345.6,259.817a.831.831,0,0,0,.964.649l63.233-8.566c.672-.076,1.186-.532,1.126-1.018l-4.645-44.161c-.04-.505-.646-.79-1.318-.642l-63.985,14.183a.927.927,0,0,0-.772.953Z" transform="translate(-340.195 -206.04)" fill="#409af4"/>
          <path id="Path_13914" data-name="Path 13914" d="M344.279,237.267a1.046,1.046,0,0,0,1.257.767l18.649-2.312c.707-.091,1.222-.6,1.151-1.132L362.8,212.624c-.05-.547-.687-.881-1.378-.748l-18.665,3.5a1.157,1.157,0,0,0-1.035,1.147Z" transform="translate(-334.025 -189.797)" fill="#fff" style="mix-blend-mode: soft-light;isolation: isolate"/>
          <path id="Path_13915" data-name="Path 13915" d="M348.166,220.7a.359.359,0,0,0,.449.266l6.538-1.078a.437.437,0,0,0,.394-.418l-.889-7.7a.361.361,0,0,0-.459-.266l-6.543,1.238a.426.426,0,0,0-.384.41Z" transform="translate(-311.544 -190.802)" fill="#fff" style="mix-blend-mode: soft-light;isolation: isolate"/>
          <path id="Path_13916" data-name="Path 13916" d="M348.608,228.386c.025.258.55.4,1.151.319l18.311-2.669c.682-.087,1.212-.376,1.176-.653L368,214.284c-.025-.277-.606-.406-1.287-.3l-18.109,2.863c-.611.106-1.081.4-1.05.649Z" transform="translate(-310.391 -183.928)" fill="#fff" style="mix-blend-mode: soft-light;isolation: isolate"/>
          <path id="Path_13917" data-name="Path 13917" d="M341.5,220.5a.892.892,0,0,0,1.136.676l48.471-9.82c.732-.144,1.287-.725,1.217-1.283l-.1-1.018c-.06-.558-.717-.885-1.449-.729l-48.466,10.2a1.071,1.071,0,0,0-.914,1.105Z" transform="translate(-335.346 -199.754)" fill="#fff" style="mix-blend-mode: soft-light;isolation: isolate"/>
        </g>
      </g>
    </g>
    <g id="Group_4920" data-name="Group 4920" transform="translate(418.611 264.202)">
      <path id="Path_13918" data-name="Path 13918" d="M320.241,239.5c.707-12.364,10.375-23.178,25.733-20.41,16.781,3,16.892,7.894,15.534,20.254a64.381,64.381,0,0,1-1.378,7.913c.863,4,2.65,6.364,1.8,6.991-.581.433-2.459.638-4.225.737-2.716,6.82-6.654,12.007-11.5,11.711-5.362-.33-19.725-3.034-24.728-9.911C318.752,253.035,319.868,246.12,320.241,239.5Z" transform="translate(-319.697 -218.655)" fill="#d3a994"/>
    </g>
    <rect id="Rectangle_2116" data-name="Rectangle 2116" width="221.934" height="126.95" transform="translate(439.235 373.476)" fill="#96a6bc"/>
    <rect id="Rectangle_2117" data-name="Rectangle 2117" width="269.836" height="10.253" transform="translate(416.768 371.704)" fill="#6a7b9b"/>
    <path id="Path_13919" data-name="Path 13919" d="M331.592,233.627c6.27,5.221,13.949,18.572,18.574,20.315s29.731,4.1,29.731,4.1l-5.452,10.245s-36.168-3.1-39.47-5.339-14.863-14.908-14.863-18.135S331.592,233.627,331.592,233.627Z" transform="translate(100.594 87.427)"/>
    <g id="Group_4921" data-name="Group 4921" transform="translate(425.786 344.502)">
      <path id="Path_13920" data-name="Path 13920" d="M331.729,240.576c1.7.7,37.743,6.543,38.283,6.284a25.962,25.962,0,0,1,5.634-1.948c2.019-.478,7.825-1.029,8.31-.809,1.848.862-3.014,1.2-3.014,1.2s6.962-.213,8.7-.205a12.551,12.551,0,0,1,4.948,1.519c1.267.532,1.459,1.542-.374,1.223s-3.155-1.363-4.65-1.113a21.8,21.8,0,0,1-3.544.106,23.051,23.051,0,0,1,4.66.08,27.163,27.163,0,0,1,4.867,1.659s1.1,1.352-.131,1.23a40.091,40.091,0,0,1-6.023-1.154l-4.15-.365s9.779.854,9.577,2.153c-.091.627-1.07.353-2.817.205-4.4-.368-5.235.444-5.235.444a39.992,39.992,0,0,1,5.816-.125c1.237.186,2.524.794.1,1.128a35.1,35.1,0,0,0-6.553,1.166c-9.9,3.114-15.7,1.519-15.7,1.519-24.288,2.723-42.135,2.5-46.9.046S320.824,236.107,331.729,240.576Z" transform="translate(-321.118 -239.802)" fill="#e5c0ae"/>
    </g>
    <path id="Path_13921" data-name="Path 13921" d="M338.952,235.01c6.442,2.981,19.982,25.961,22.456,28.57s38.98,7.822,38.98,7.822-4.624,13.047-6.608,13.047-36.335,2.358-52.192-3.976-37.2-36.863-24.768-46.208C327.39,226.31,338.952,235.01,338.952,235.01Z" transform="translate(72.177 79.836)" fill="#1e2123"/>
    <g id="Group_4922" data-name="Group 4922" transform="translate(393.454 259.565)">
      <path id="Path_13922" data-name="Path 13922" d="M393.491,240.54c-7.921-16.146-31.71-22.855-52.52-23.106-11.884-.144-22.456,26.334-22.456,34.532,0,11.084-7.588,4.728-1.323,7.086,14.53,5.46,36.006,23.972,37.98,27.7,0,0,10.9-20.873,17.842-26.831S395.344,244.307,393.491,240.54Z" transform="translate(-314.714 -217.434)"/>
      <path id="Path_13923" data-name="Path 13923" d="M352.139,223.258c-9.91,6.706-23.784,32.3-25.106,39s-5.286-3.106-5.286-3.106,15.519-24.72,20.144-28.942A49.132,49.132,0,0,1,352.139,223.258Z" transform="translate(-286.241 -201.143)" fill="#1e2123"/>
      <path id="Path_13924" data-name="Path 13924" d="M327.608,250.739c8.421-26.334,15.858-24.036,13.874-24.408-3.655-.687-16.847,16.21-16.847,16.21s-2.141-.5,2.146-6.71c4.3-6.2-6.6,7.211-6.6,7.211Z" transform="translate(-292.597 -192.604)" fill="#1e2123"/>
    </g>
    <g id="Group_4929" data-name="Group 4929" transform="translate(569.251 202.372)">
      <g id="Group_4923" data-name="Group 4923" transform="translate(16.839 152.225)">
        <path id="Path_13925" data-name="Path 13925" d="M358.756,248c1.252,1.527,2.691,1.713,7.759,1.477l23.592-.205c4.6-.266,5.452-1.295,1.661-2.468l-10.975-3.493a17.643,17.643,0,0,0-6.094-.82H356.782c-2.029,0-4.968-.384-3.448,1.5Z" transform="translate(-352.697 -242.46)"/>
        <path id="Path_13926" data-name="Path 13926" d="M354.091,245.2c0,.74,1.141,1.352,2.565,1.352H387.83c1.414,0,1.489-.611,1.489-1.352h0c0-.748.5-1.352-.9-1.352h-32.8c-1.409,0-1.53.6-1.53,1.352Z" transform="translate(-347.931 -238.571)" fill="#1e2123"/>
        <path id="Path_13927" data-name="Path 13927" d="M352.887,243.059a4.232,4.232,0,0,0,.414,1.925l6.129,4.541a1.273,1.273,0,0,0,1.424.266h0c.5-.254,1.207-1.048.757-1.462l-8.184-5.7c-.207-.2-.449.011-.54.429Z" transform="translate(-352.871 -242.196)" fill="#1e2123"/>
      </g>
      <path id="Path_13928" data-name="Path 13928" d="M362.955,218.478l2.249,4.978-8.589,1.244-2.278-5.33Z" transform="translate(-330.096 -157.32)"/>
      <path id="Path_13929" data-name="Path 13929" d="M358.7,227.245c3.7,0,6.493.391,8.113,4.15,5.887,13.617,13.717,34.782,12.5,36.947-2.216,3.907-12.414,18.921-12.414,18.921a27.579,27.579,0,0,1-7.82-.258l12.611-19.024L355.02,242.764Z" transform="translate(-327.331 -132.797)" fill="#1e2123"/>
      <g id="Group_4925" data-name="Group 4925" transform="translate(0 64.438)">
        <path id="Path_13930" data-name="Path 13930" d="M381.341,219.6c-2.171.251-20.386,4.473-20.386,4.473l-11.132,69.789,19.154,2.369Z" transform="translate(-348.371 -218.619)" fill="#177fdd"/>
        <path id="Path_13931" data-name="Path 13931" d="M362.22,223.465l23.456-4.112c.6-.087.949.391.762,1.071l-.793,2.916c.172-.615-.136-1.056-.671-.983l-21.052,3.7a1.635,1.635,0,0,0-1.111,1.128l-9.739,63.538c-.167.619.051,1.177.49,1.245l19.265,2.244a1.29,1.29,0,0,0,1.272-1.082l-1.176,4.56c-.212.759-.843,1.28-1.413,1.173l-21.376-3.034c-.484-.076-.722-.695-.535-1.375L361,224.7A1.76,1.76,0,0,1,362.22,223.465Z" transform="translate(-349.535 -219.34)" fill="#1e2123"/>
        <g id="Group_4924" data-name="Group 4924" transform="translate(20.7)">
          <path id="Path_13932" data-name="Path 13932" d="M353.7,296.6a1.733,1.733,0,0,0,1.691,2.278l5.013.011a2.868,2.868,0,0,0,3.06-1.826l10.955-74.812c.212-.9-.641-1.751-1.9-1.872l-3.443-1.025c-1.257-.122-3.186.676-3.4,1.58Z" transform="translate(-353.635 -219.342)"/>
        </g>
      </g>
      <g id="Group_4928" data-name="Group 4928" transform="translate(6.561)">
        <path id="Path_13933" data-name="Path 13933" d="M380.426,221.339l-23.274,3.649s-4.327-.9-4.852-1.637c-.5-.737,3.5-1.185,3.5-1.185L378.613,218Z" transform="translate(-345.081 -158.665)"/>
        <g id="Group_4927" data-name="Group 4927">
          <path id="Path_13934" data-name="Path 13934" d="M374.076,202.519c-2.141.513-22.915,6.558-22.915,6.558l6.659,56.707,21.759-2.9Z" transform="translate(-349.515 -201.96)" fill="#177fdd"/>
          <path id="Path_13935" data-name="Path 13935" d="M352.2,208.334l21.663-5.9c.591-.152,2.439-.042,2.408.554l.2,2.354c.03-.532.02.668-.495.809L355.015,211.7a1.3,1.3,0,0,0-.878,1.132l6.215,50.214a.694.694,0,0,0,.767.767l19.26-3.706c.5-.057.469-.778.49-1.283l1.585,3.455c-.025.558.53,1.022-.015,1.082l-23.006,4.128c-.495.049-1.7-.547-1.676-1.063l-6.922-56.066A2.426,2.426,0,0,1,352.2,208.334Z" transform="translate(-350.835 -202.372)" fill="#1e2123"/>
          <g id="Group_4926" data-name="Group 4926" transform="translate(23.637 0.042)">
            <path id="Path_13936" data-name="Path 13936" d="M361.884,263.548s5.4,2.047,5.422,1.245l-6.053-59.559a1.723,1.723,0,0,0-1.121-1.583l-3.706-1.268c-1.3.072-.818.665-.843,1.451C355.583,203.834,359.96,245.158,361.884,263.548Z" transform="translate(-355.517 -202.383)"/>
          </g>
        </g>
      </g>
    </g>
  </g>
</svg>
