<svg xmlns="http://www.w3.org/2000/svg" width="356.999" height="304.962" viewBox="0 0 356.999 304.962">
  <g id="Group_4879" data-name="Group 4879" transform="translate(-468.549 -20.946)">
    <g id="Group_4834" data-name="Group 4834" transform="translate(584.074 20.946)">
      <g id="Group_4824" data-name="Group 4824" transform="translate(54.294 206.297)">
        <path id="Path_13756" data-name="Path 13756" d="M544.015,144.1c-2.3,0-4.2-1.371-4.272-3.106-.072-1.769,1.782-3.247,4.141-3.3l56.357-1.3.136,0c2.3,0,4.2,1.371,4.272,3.106.071,1.769-1.782,3.247-4.141,3.3l-56.357,1.3Z" transform="translate(-539.741 -136.391)" fill="#d3baae"/>
      </g>
      <g id="Group_4825" data-name="Group 4825" transform="translate(32.043 243.962)">
        <path id="Path_13757" data-name="Path 13757" d="M591.047,163.877H534.69c-2.362,0-4.277-1.435-4.277-3.2s1.915-3.2,4.277-3.2h56.357c2.362,0,4.277,1.435,4.277,3.2S593.409,163.877,591.047,163.877Z" transform="translate(-530.413 -157.469)" fill="#d3baae"/>
      </g>
      <g id="Group_4826" data-name="Group 4826" transform="translate(162.073 24.172)">
        <path id="Path_13758" data-name="Path 13758" d="M589.2,42.093c-2.3,0-4.2-1.371-4.272-3.106-.074-1.767,1.782-3.245,4.141-3.3l52.543-1.212.136,0c2.3,0,4.2,1.371,4.272,3.106.072,1.769-1.782,3.247-4.141,3.3l-52.545,1.212Z" transform="translate(-584.924 -34.473)" fill="#d3baae"/>
      </g>
      <g id="Group_4827" data-name="Group 4827" transform="translate(141.883 61.445)">
        <path id="Path_13759" data-name="Path 13759" d="M580.734,62.929c-2.3,0-4.2-1.369-4.272-3.1-.072-1.769,1.782-3.247,4.141-3.3l51.608-1.19c2.393-.066,4.334,1.335,4.408,3.1s-1.784,3.247-4.143,3.3l-51.608,1.192Z" transform="translate(-576.46 -55.331)" fill="#d3baae"/>
      </g>
      <g id="Group_4828" data-name="Group 4828" transform="translate(118.382 98.528)">
        <path id="Path_13760" data-name="Path 13760" d="M570.882,83.719c-2.3,0-4.2-1.369-4.272-3.1-.072-1.769,1.782-3.247,4.143-3.3l53.189-1.228c2.457-.061,4.334,1.337,4.408,3.1s-1.782,3.247-4.141,3.3l-53.192,1.228Z" transform="translate(-566.608 -76.083)" fill="#d3baae"/>
      </g>
      <g id="Group_4829" data-name="Group 4829" transform="translate(95.611 134.493)">
        <path id="Path_13761" data-name="Path 13761" d="M561.336,103.918c-2.3,0-4.2-1.371-4.272-3.106-.072-1.769,1.782-3.247,4.143-3.3l56.359-1.3c2.426-.046,4.332,1.337,4.406,3.1s-1.782,3.247-4.141,3.3l-56.359,1.3Z" transform="translate(-557.062 -96.209)" fill="#d3baae"/>
      </g>
      <g id="Group_4830" data-name="Group 4830" transform="translate(73.854 170.776)">
        <path id="Path_13762" data-name="Path 13762" d="M552.215,124.222c-2.3,0-4.2-1.371-4.272-3.106-.072-1.767,1.782-3.245,4.143-3.3l56.359-1.3c2.455-.075,4.332,1.335,4.406,3.1s-1.782,3.245-4.141,3.3l-56.359,1.3Z" transform="translate(-547.941 -116.513)" fill="#d3baae"/>
      </g>
      <g id="Group_4831" data-name="Group 4831" transform="translate(8.727 279.893)">
        <path id="Path_13763" data-name="Path 13763" d="M582.836,185.758c-.06,0-.119,0-.177,0L524.74,183.98c-2.359-.073-4.2-1.565-4.1-3.333s2.118-3.125,4.449-3.07l57.917,1.776c2.359.071,4.2,1.564,4.1,3.331C587.013,184.409,585.119,185.758,582.836,185.758Z" transform="translate(-520.639 -177.576)" fill="#d3baae"/>
      </g>
      <g id="Group_4832" data-name="Group 4832" transform="translate(58.056 2.14)">
        <path id="Path_13764" data-name="Path 13764" d="M545.593,324.965a5.5,5.5,0,0,1-1.725-.275c-2.164-.715-3.139-2.607-2.183-4.226L716.548,24.054c.954-1.619,3.478-2.352,5.639-1.637s3.139,2.607,2.182,4.226L549.507,323.055A4.52,4.52,0,0,1,545.593,324.965Z" transform="translate(-541.318 -22.144)" fill="#d3baae"/>
      </g>
      <g id="Group_4833" data-name="Group 4833">
        <path id="Path_13765" data-name="Path 13765" d="M521.255,321.714a5.5,5.5,0,0,1-1.758-.284c-2.152-.729-3.11-2.627-2.135-4.239L694.884,22.831c.976-1.612,3.511-2.328,5.658-1.6s3.111,2.627,2.137,4.239L525.155,319.829A4.535,4.535,0,0,1,521.255,321.714Z" transform="translate(-516.98 -20.946)" fill="#d3baae"/>
      </g>
    </g>
    <g id="Group_4835" data-name="Group 4835" transform="translate(678.402 87.079)">
      <path id="Path_13766" data-name="Path 13766" d="M568.2,57.954l-11.675,10.5L579.6,81.586,589,71.207Z" transform="translate(-556.524 -57.954)" fill="#f98875"/>
    </g>
    <g id="Group_4836" data-name="Group 4836" transform="translate(631.445 70.588)">
      <path id="Path_13767" data-name="Path 13767" d="M548.513,48.726l-11.674,10.5,23.078,13.135,9.394-10.379Z" transform="translate(-536.839 -48.726)" fill="#f98875"/>
    </g>
    <g id="Group_4837" data-name="Group 4837" transform="translate(468.549 110.711)">
      <path id="Path_13768" data-name="Path 13768" d="M472.94,116.454s-5.124-4.823-4.3-14.328,10.3-15.216,10.3-15.216.62-12.657,11.953-15.345a14.142,14.142,0,0,1,13,3.613s12.309-7.1,20.054,6.329,4.728,38.193-11.176,37.619S472.94,116.454,472.94,116.454Z" transform="translate(-468.55 -71.179)"/>
    </g>
    <g id="Group_4838" data-name="Group 4838" transform="translate(576.983 82.368)">
      <path id="Path_13769" data-name="Path 13769" d="M518.165,158.858s8.168-55.226,18.057-70.353,25.547-33.188,25.547-33.188l37.98,20.305L547.083,177.255l-33.076-3.349Z" transform="translate(-514.007 -55.318)" fill="#507849"/>
    </g>
    <g id="Group_4839" data-name="Group 4839" transform="translate(621.942 75.436)">
      <path id="Path_13803" data-name="Path 13803" d="M2.373-.293l44.364-5.48c1.31-.162,2.241.651,2.08,1.816l-.877,6.312a3.115,3.115,0,0,1-2.666,2.4L.909,10.237C-.4,10.4-1.332,9.586-1.17,8.421l.877-6.313A3.115,3.115,0,0,1,2.373-.293Z" transform="translate(6.946) rotate(32.886)" fill="#ffa63b"/>
    </g>
    <g id="Group_4840" data-name="Group 4840" transform="translate(550.319 93.483)">
      <path id="Path_13770" data-name="Path 13770" d="M502.829,176.349s23.324,27.705,55.346,19.4c39.507-10.248,56.378-64.141,61.736-72.47s40.8-37.966,40.8-37.966L624.032,61.538s-46.157,28.7-58.521,50.314-31.861,42.112-31.861,42.112Z" transform="translate(-502.829 -61.538)" fill="#507849"/>
    </g>
    <g id="Group_4841" data-name="Group 4841" transform="translate(548.344 105.075)">
      <path id="Path_13771" data-name="Path 13771" d="M502,68.025s3.583,13.726,15.207,11.873,0-11.181,0-11.181Z" transform="translate(-502.001 -68.025)" fill="#f98875"/>
    </g>
    <g id="Group_4843" data-name="Group 4843" transform="translate(686.189 48.45)">
      <g id="Group_4842" data-name="Group 4842">
        <path id="Path_13772" data-name="Path 13772" d="M575.552,36.73a1.453,1.453,0,0,0-1.682-.229c-2.7,1.363-10.071,5.457-11.44,10.1-1.684,5.706,2.016,15.205,1.138,19.414s-5.536,10.17-3.065,11.664,10.646,3.116,12.986,8.676,2.109,8.572,4.673,9.412,26.917-6.458,27.969-7.55-4.756-8.068-4.916-8.794-6.949-.618-6.834-2.125,1.882-3.9,2.021-6.1C596.532,69.135,579.722,41.721,575.552,36.73Z" transform="translate(-559.788 -36.337)" fill="#af4d04"/>
      </g>
    </g>
    <g id="Group_4844" data-name="Group 4844" transform="translate(688.631 80.347)">
      <path id="Path_13773" data-name="Path 13773" d="M568.848,58.3a.59.59,0,0,1-.251-.052l-7.547-3.385a.317.317,0,0,1-.167-.5.586.586,0,0,1,.666-.125l7.547,3.383a.318.318,0,0,1,.167.5A.53.53,0,0,1,568.848,58.3Z" transform="translate(-560.812 -54.187)" fill="#f9bf30"/>
    </g>
    <g id="Group_4845" data-name="Group 4845" transform="translate(689.59 75.347)">
      <path id="Path_13774" data-name="Path 13774" d="M567.971,54.662a.62.62,0,0,1-.234-.045l-6.269-2.543c-.234-.1-.324-.318-.2-.495a.578.578,0,0,1,.661-.147l6.269,2.543c.236.1.324.318.2.495A.53.53,0,0,1,567.971,54.662Z" transform="translate(-561.214 -51.389)" fill="#f9bf30"/>
    </g>
    <g id="Group_4847" data-name="Group 4847" transform="translate(625.031 34.02)">
      <g id="Group_4846" data-name="Group 4846">
        <path id="Path_13775" data-name="Path 13775" d="M542.442,28.449a1.466,1.466,0,0,0-1.691.186c-1.977,1.939-7.22,7.579-6.541,12.307.835,5.809,8.387,13.928,9.348,18.127s-.916,10.961,2.063,11.785,11.417.409,16,5.12,5.648,7.62,8.437,7.8,22.756-12.557,23.291-13.842-7.946-6.51-8.408-7.159-6.846,1.076-7.378-.381.124-4.14-.685-6.267C576.126,54.146,548.52,32.184,542.442,28.449Z" transform="translate(-534.15 -28.262)" fill="#af4d04"/>
      </g>
    </g>
    <g id="Group_4848" data-name="Group 4848" transform="translate(634.247 67.114)">
      <path id="Path_13776" data-name="Path 13776" d="M547.094,48.914c-.1-.007-8.7-1.412-8.7-1.412-.262-.043-.429-.236-.372-.434a.514.514,0,0,1,.582-.279l8.592,1.4c.262.045.429.238.37.436A.474.474,0,0,1,547.094,48.914Z" transform="translate(-538.013 -46.782)" fill="#f9bf30"/>
    </g>
    <g id="Group_4849" data-name="Group 4849" transform="translate(633.024 62.148)">
      <path id="Path_13777" data-name="Path 13777" d="M545.013,45.642c-.084-.005-7.109-.917-7.109-.917-.265-.034-.444-.223-.4-.422a.5.5,0,0,1,.563-.3l7.025.911c.265.034.444.223.4.422A.466.466,0,0,1,545.013,45.642Z" transform="translate(-537.501 -44.003)" fill="#f9bf30"/>
    </g>
    <g id="Group_4850" data-name="Group 4850" transform="translate(547.449 80.279)">
      <path id="Path_13778" data-name="Path 13778" d="M518.87,86.454s5.512-6.022,7.495-8.888c4.544-6.572,6.7-15.259,3.688-17.371-1.219-.858-3.549,2.981-3.549,2.981s1.3-7.405-.725-7.582-4.131,3.7-4.131,3.7.828-5.118-1.844-5.141-8.232,13.942-9.623,14.01-1.207-4.894-3.893-4.117-7.471,13.227-2.493,16.154S518.87,86.454,518.87,86.454Z" transform="translate(-501.626 -54.149)" fill="#f98875"/>
    </g>
    <g id="Group_4851" data-name="Group 4851" transform="translate(557.206 93.128)">
      <path id="Path_13779" data-name="Path 13779" d="M517.7,68.029a.593.593,0,0,1-.277-.066L505.928,62a.311.311,0,0,1-.124-.507.6.6,0,0,1,.677-.093l11.5,5.96a.313.313,0,0,1,.124.509A.551.551,0,0,1,517.7,68.029Z" transform="translate(-505.716 -61.34)"/>
    </g>
    <g id="Group_4852" data-name="Group 4852" transform="translate(555.516 93.923)">
      <path id="Path_13780" data-name="Path 13780" d="M506.132,74.6a.622.622,0,0,1-.205-.034c-.243-.084-.348-.3-.236-.484a9.92,9.92,0,0,0-.6-11.726.313.313,0,0,1,.131-.507.594.594,0,0,1,.675.1,10.518,10.518,0,0,1,.677,12.444A.517.517,0,0,1,506.132,74.6Z" transform="translate(-505.008 -61.784)"/>
    </g>
    <g id="Group_4853" data-name="Group 4853" transform="translate(532.348 105.766)">
      <path id="Path_13781" data-name="Path 13781" d="M537.206,68.412S557.658,89,553.4,108.315s-34.722,28.195-34.722,28.195l-23.381-20.883s15.7-6.835,19.212-16.949c2.631-7.582-4.985-21.415-4.985-21.415Z" transform="translate(-495.295 -68.412)" fill="#f9bf30"/>
    </g>
    <g id="Group_4854" data-name="Group 4854" transform="translate(551.895 134.249)">
      <path id="Path_13782" data-name="Path 13782" d="M510.057,90.435a1.943,1.943,0,0,1-.3-.023c-2.319-.343-5.811-4.989-6.2-5.518a.3.3,0,0,1,.069-.424.594.594,0,0,1,.558-.086c.735.248,7.175,2.482,7.514,4.5.057.35-.033.868-.809,1.33A1.591,1.591,0,0,1,510.057,90.435Zm-4.847-4.862c1.469,1.8,3.559,3.949,4.733,4.124a.494.494,0,0,0,.334-.048c.456-.272.472-.513.446-.67C510.553,87.969,507.662,86.531,505.21,85.573Z" transform="translate(-503.49 -84.351)" fill="#fff"/>
    </g>
    <g id="Group_4855" data-name="Group 4855" transform="translate(472.623 137.667)">
      <path id="Path_13783" data-name="Path 13783" d="M506.15,92.556s-4.959-10.439-22.685-4.425-14.307,19.294-8.654,22.5a16.8,16.8,0,0,0,10.679,2.209s11.5,7.718,19.317-1.687A15.459,15.459,0,0,0,506.15,92.556Z" transform="translate(-470.257 -86.264)"/>
    </g>
    <g id="Group_4857" data-name="Group 4857" transform="translate(504.348 154.756)">
      <g id="Group_4856" data-name="Group 4856">
        <path id="Path_13784" data-name="Path 13784" d="M483.557,103.4l9.854,5.652s4.194.295,9.076-3.754c3.638-3.016,3.821-4.705,3.821-4.705l-5.448-2.414-5.319-2.35-10.262,6.485Z" transform="translate(-483.557 -95.827)" fill="#f98875"/>
      </g>
    </g>
    <g id="Group_4859" data-name="Group 4859" transform="translate(503.892 154.756)">
      <g id="Group_4858" data-name="Group 4858">
        <path id="Path_13785" data-name="Path 13785" d="M483.366,103.116a4.914,4.914,0,0,0,1.169.331c6.612,1.172,14.467-3.538,16.59-5.27l-5.319-2.35Z" transform="translate(-483.366 -95.827)"/>
      </g>
    </g>
    <g id="Group_4861" data-name="Group 4861" transform="translate(485.959 140.222)">
      <g id="Group_4860" data-name="Group 4860">
        <path id="Path_13786" data-name="Path 13786" d="M485.445,87.7s16.313,3.215,21.616,8.679-.675,9.48-4.931,11.481a19.735,19.735,0,0,1-7.893,1.944s-1.565,3.3-6.627,3.124-7.636-3.438-6.918-5.423,4.01-2.9,4.01-2.9l-4.983-.706S467.953,87.466,485.445,87.7Z" transform="translate(-475.848 -87.694)" fill="#f98875"/>
      </g>
    </g>
    <g id="Group_4862" data-name="Group 4862" transform="translate(502.18 145.962)">
      <path id="Path_13787" data-name="Path 13787" d="M490.083,94.334a.584.584,0,0,1-.346-.107,11.906,11.906,0,0,0-6.593-2.589c-.272,0-.491-.159-.5-.359s.21-.366.479-.37a12.669,12.669,0,0,1,7.3,2.806.306.306,0,0,1,0,.516A.586.586,0,0,1,490.083,94.334Z" transform="translate(-482.648 -90.906)"/>
    </g>
    <g id="Group_4863" data-name="Group 4863" transform="translate(482.784 139.146)">
      <path id="Path_13788" data-name="Path 13788" d="M500.248,91.9a33.2,33.2,0,0,0-11.517-1.142l-7.087.379s7.85,4.328,8.311,8.847-3.409,5.082-3.409,5.082L475.6,106.4,474.517,91.31S484.6,81.433,500.248,91.9Z" transform="translate(-474.517 -87.091)"/>
    </g>
    <g id="Group_4864" data-name="Group 4864" transform="translate(505.779 152.965)">
      <path id="Path_13789" data-name="Path 13789" d="M502.393,100.569l8.332-5.727s14.756-.575,24.262,5.057,12.17,9.751,12.17,9.751l17.151,6.837s.033,9.584-9.3,20.091-22.22,16.329-22.22,16.329-44.48-29.971-48.4-32.4C481.746,118.871,502.393,100.569,502.393,100.569Z" transform="translate(-484.157 -94.825)" fill="#f9bf30"/>
    </g>
    <g id="Group_4865" data-name="Group 4865" transform="translate(508.904 155.985)">
      <path id="Path_13790" data-name="Path 13790" d="M500.342,98.579l4.2-2.064s8.1,3.458,1.529,10.079c-6.9,6.95-20.6,7.362-20.6,7.362l5.181-6.592Z" transform="translate(-485.467 -96.515)" fill="#f98875"/>
    </g>
    <g id="Group_4866" data-name="Group 4866" transform="translate(508.42 155.622)">
      <path id="Path_13791" data-name="Path 13791" d="M485.775,114.481c-.3,0-.515-.168-.51-.37s.219-.359.487-.359c.7,0,12.366-.1,19.591-6.624,2.4-2.171,3.4-4.232,2.97-6.128-.594-2.58-3.707-4-3.74-4.01a.32.32,0,0,1-.169-.5.593.593,0,0,1,.666-.129c.146.064,3.526,1.592,4.2,4.509.491,2.116-.577,4.378-3.177,6.723C498.586,114.368,486.512,114.481,485.775,114.481Z" transform="translate(-485.264 -96.311)" fill="#fff"/>
    </g>
    <g id="Group_4867" data-name="Group 4867" transform="translate(539.941 152.98)">
      <path id="Path_13792" data-name="Path 13792" d="M522.088,104.942a.524.524,0,0,1-.446-.214c-4.821-8.034-22.537-9.155-22.714-9.165-.267-.016-.467-.191-.448-.391a.477.477,0,0,1,.522-.336c.754.043,18.468,1.163,23.529,9.592.11.184,0,.4-.243.482A.653.653,0,0,1,522.088,104.942Z" transform="translate(-498.478 -94.833)" fill="#fff"/>
    </g>
    <g id="Group_4868" data-name="Group 4868" transform="translate(590.195 101.301)">
      <path id="Path_13793" data-name="Path 13793" d="M520.035,140.049a.608.608,0,0,1-.217-.038c-.241-.088-.341-.307-.222-.488.224-.336,22.236-33.706,30.077-41.56s38.2-31.7,38.507-31.938a.607.607,0,0,1,.687-.011.3.3,0,0,1,.017.515c-.305.239-30.64,24.058-38.433,31.871s-29.76,41.111-29.979,41.447A.523.523,0,0,1,520.035,140.049Z" transform="translate(-519.546 -65.913)" fill="#ffa63b"/>
    </g>
    <g id="Group_4869" data-name="Group 4869" transform="translate(665.959 88.253)">
      <path id="Path_13804" data-name="Path 13804" d="M2.276-.319,44.835-6.292a1.606,1.606,0,0,1,1.956,1.886l-.956,6.6a3.194,3.194,0,0,1-2.6,2.525L.681,10.693A1.606,1.606,0,0,1-1.276,8.807l.956-6.6A3.194,3.194,0,0,1,2.276-.319Z" transform="matrix(0.745, 0.667, -0.667, 0.745, 8.535, 0)" fill="#ffa63b"/>
    </g>
    <g id="Group_4870" data-name="Group 4870" transform="translate(577.262 206.653)">
      <path id="Path_13794" data-name="Path 13794" d="M514.61,137.639a.549.549,0,0,1-.413-.17.318.318,0,0,1,.155-.5c5.94-2.8.072-11.478.01-11.563a.329.329,0,0,1,.21-.491.572.572,0,0,1,.658.157c.26.381,6.333,9.364-.363,12.516A.6.6,0,0,1,514.61,137.639Z" transform="translate(-514.124 -124.869)" fill="#ffa63b"/>
    </g>
    <g id="Group_4871" data-name="Group 4871" transform="translate(555.086 174.426)">
      <path id="Path_13795" data-name="Path 13795" d="M515.091,133.742s8.981-2.841,12.714-4.453c8.559-3.694,16.633-10.137,15.622-13.131-.408-1.215-5.136,1.074-5.136,1.074s6.431-5.708,4.852-6.676S537,112,537,112s4.384-3.974,2.152-5.075-16.977,8.408-18.2,7.9,2.512-4.61-.31-5.041-17.7,9.419-15.622,13.9S515.091,133.742,515.091,133.742Z" transform="translate(-504.828 -106.834)" fill="#f98875"/>
    </g>
    <g id="Group_4872" data-name="Group 4872" transform="translate(577.707 179.225)">
      <path id="Path_13796" data-name="Path 13796" d="M514.8,115.149a.553.553,0,0,1-.4-.15.311.311,0,0,1,.11-.509l9.069-4.9a.6.6,0,0,1,.68.082.31.31,0,0,1-.112.509l-9.067,4.9A.594.594,0,0,1,514.8,115.149Z" transform="translate(-514.311 -109.52)"/>
    </g>
    <g id="Group_4873" data-name="Group 4873" transform="translate(581.625 184.46)">
      <path id="Path_13797" data-name="Path 13797" d="M516.44,116.9a.569.569,0,0,1-.386-.143.309.309,0,0,1,.088-.511l6.438-3.719a.606.606,0,0,1,.685.066.308.308,0,0,1-.088.511l-6.438,3.719A.591.591,0,0,1,516.44,116.9Z" transform="translate(-515.953 -112.45)"/>
    </g>
    <g id="Group_4874" data-name="Group 4874" transform="translate(498.943 174.407)">
      <path id="Path_13798" data-name="Path 13798" d="M490.418,106.824s-22.287,29.669,2.793,46.381c18.93,12.616,62.962-18.195,62.962-18.195l-19.8-15.1Z" transform="translate(-481.291 -106.824)" fill="#f9bf30"/>
    </g>
    <g id="Group_4875" data-name="Group 4875" transform="translate(522.542 186.986)">
      <path id="Path_13799" data-name="Path 13799" d="M491.672,127.81a.6.6,0,0,1-.31-.082.308.308,0,0,1-.067-.515c5.77-5.236,26.568-12.986,27.451-13.313a.572.572,0,0,1,.654.166c.119.18.019.4-.219.49-.215.079-21.5,8.006-27.134,13.122A.561.561,0,0,1,491.672,127.81Z" transform="translate(-491.184 -113.863)" fill="#fff"/>
    </g>
    <g id="Group_4876" data-name="Group 4876" transform="translate(523.657 192.91)">
      <path id="Path_13800" data-name="Path 13800" d="M494.6,119.933a5.134,5.134,0,0,1-2.049-.329,1.387,1.387,0,0,1-.892-1.092.75.75,0,0,1,.372-.708c1.641-1.165,9.532-.381,11.1-.209a.443.443,0,0,1,.415.316.369.369,0,0,1-.3.382A36.987,36.987,0,0,1,494.6,119.933Zm1.548-2.023a8.287,8.287,0,0,0-3.447.425c-.074.052-.076.084-.074.114a.651.651,0,0,0,.429.531c1.388.631,5.312-.159,7.977-.847C499.433,118.005,497.659,117.91,496.146,117.91Z" transform="translate(-491.652 -117.178)" fill="#fff"/>
    </g>
    <g id="Group_4877" data-name="Group 4877" transform="translate(508.561 152.238)">
      <path id="Path_13801" data-name="Path 13801" d="M487.465,97.3a2.355,2.355,0,0,1-1.98-.64c-.527-.743.391-1.742.5-1.853a.489.489,0,0,1,.191-.12,3.48,3.48,0,0,1,3.087.17,1.174,1.174,0,0,1,.53,1.5c-.134.272-.62.908-2.164.94Zm-.761-1.991c-.258.3-.52.783-.355,1.01.124.173.57.257,1.248.25s1.14-.184,1.281-.468a.575.575,0,0,0-.281-.708A2.239,2.239,0,0,0,486.7,95.312Z" transform="translate(-485.323 -94.418)"/>
    </g>
    <g id="Group_4878" data-name="Group 4878" transform="translate(503.405 143.459)">
      <path id="Path_13802" data-name="Path 13802" d="M486.139,91.292a.624.624,0,0,1-.241-.046l-2.49-1.058a.323.323,0,0,1-.184-.5.594.594,0,0,1,.666-.138l2.49,1.058a.324.324,0,0,1,.184.5A.537.537,0,0,1,486.139,91.292Z" transform="translate(-483.162 -89.505)"/>
    </g>
  </g>
</svg>
