<svg xmlns="http://www.w3.org/2000/svg" width="326.515" height="125.898" viewBox="0 0 326.515 125.898">
  <g id="Group_1403" data-name="Group 1403" transform="translate(-338.707 -246.799)">
    <g id="Group_1340" data-name="Group 1340" transform="translate(481.921 246.799)">
      <path id="Path_10162" data-name="Path 10162" d="M397.142,303.191v-54.31a2.3,2.3,0,0,0-4.588,0v56.549C394.067,304.655,395.594,303.9,397.142,303.191Z" transform="translate(-392.554 -246.799)" fill="#b2b2b2"/>
      <path id="Path_10163" data-name="Path 10163" d="M394.328,304.51V246.823a2.134,2.134,0,0,0-1.774,2.025V305.4C393.142,305.095,393.735,304.8,394.328,304.51Z" transform="translate(-392.554 -246.765)" fill="#f2f2f2"/>
      <path id="Path_10164" data-name="Path 10164" d="M394.9,302.97v-54.31a2.02,2.02,0,0,0-.992-1.706v56.494C394.236,303.292,394.563,303.122,394.9,302.97Z" transform="translate(-390.31 -246.578)" fill="#939393"/>
    </g>
    <g id="Group_1341" data-name="Group 1341" transform="translate(346.561 286.612)">
      <path id="Path_10165" data-name="Path 10165" d="M481.884,265.361a2.2,2.2,0,0,1-2.293,2.085H343.955a2.2,2.2,0,0,1-2.3-2.085h0a2.2,2.2,0,0,1,2.3-2.083H479.592a2.2,2.2,0,0,1,2.293,2.083Z" transform="translate(-341.66 -263.278)" fill="#b2b2b2"/>
      <path id="Path_10166" data-name="Path 10166" d="M481.781,264.889a2.254,2.254,0,0,0-2.229-1.611H343.915a2.257,2.257,0,0,0-2.232,1.611Z" transform="translate(-341.62 -263.278)" fill="#fff"/>
      <path id="Path_10167" data-name="Path 10167" d="M341.816,264.63a2.349,2.349,0,0,0,1.88.9H479.333a2.344,2.344,0,0,0,1.878-.9Z" transform="translate(-341.401 -261.364)" fill="#939393"/>
    </g>
    <g id="Group_1352" data-name="Group 1352" transform="translate(338.707 247.584)">
      <g id="Group_1351" data-name="Group 1351">
        <path id="Path_10168" data-name="Path 10168" d="M491.23,289.479a5.392,5.392,0,0,1-5.63,5.115H386.714a5.392,5.392,0,0,1-5.63-5.115h0a5.392,5.392,0,0,1,5.63-5.117H485.6a5.392,5.392,0,0,1,5.63,5.117Z" transform="translate(-268.376 -194.395)" fill="#2d2d2d"/>
        <path id="Path_10169" data-name="Path 10169" d="M351.913,341.718H661.089a6.48,6.48,0,0,0,2.979-5.779c0-7.2.418-15.158-2.92-15.537V308.085c0-9.094-7.508-7.388-7.508-7.388s-.418-2.653-5.423-6.82c-9.593-1.894-65.073-5.306-65.073-5.306s-25.573-28.2-33.3-38.1c-2.918-4.17-64.265-3.269-64.265-3.269-.75,1.566-.657,41.471-.657,41.471-12.136,0-141.783,2.172-141.783,2.172-3.112,16.852-1.979,32.205-2.92,32.205-2.085,0,.417,15.914.417,15.914S345.488,340.4,351.913,341.718Z" transform="translate(-337.57 -247.124)" fill="#d60606"/>
        <path id="Path_10170" data-name="Path 10170" d="M632.526,275.753l-291.948-4.418,1.251-5.115,220.616-1.266,81.422,4.547Z" transform="translate(-335.602 -221.878)" fill="#fff" opacity="0.7"/>
        <g id="Group_1342" data-name="Group 1342" transform="translate(151.132 3.001)">
          <path id="Path_10171" data-name="Path 10171" d="M482.767,284.14c-6.056-7.074-20.873-24.448-27.642-32.935l-.758-.952-1.277-.188c-3.843-.563-26.038-1.2-54.376-1.648l-3.184-.051v85.082l74.638-.106,11.74-24.5,1-24.544Zm-2.056,24.351-11.365,23.718-72.566.1V249.523l1.91.029c28.259.447,50.4,1.08,54.2,1.633l.766.114.455.573c6.729,8.437,21.383,25.624,27.527,32.8Z" transform="translate(-395.531 -248.366)" fill="#bf0c0c"/>
        </g>
        <g id="Group_1343" data-name="Group 1343" transform="translate(154.259 5.893)">
          <path id="Path_10172" data-name="Path 10172" d="M396.707,249.563c29.394.464,50.749,1.148,53.932,1.614,6.732,8.439,21.112,25.31,27.706,33.012l-81.638.094Z" transform="translate(-396.707 -249.563)" fill="#2d2d2d"/>
        </g>
        <path id="Path_10173" data-name="Path 10173" d="M397.211,250.075c29.2.474,47.685,1.1,51.847,1.512,6.173,7.707,18.1,21.749,25.719,30.664l-77.566.087Z" transform="translate(-241.611 -242.945)" fill="#80c2dc"/>
        <g id="Group_1344" data-name="Group 1344" transform="translate(4.442 65.138)">
          <path id="Path_10174" data-name="Path 10174" d="M565.452,303.154a1.527,1.527,0,0,0,1.056-.628l7.139-22.235c.25-.394,3.005-2.979,3.346-3.344,1.019-.7,5.779-1.65,6.694-2.433,1.755-.966,5.553,0,7.362,0l26.166,2.4c3.455,0,7.657,2.2,9.386,4.924l13.266,20.872c5.585-.674,16.463,3.124,16.463,3.124l-50.714,13.445-50.8-13.232C554.829,305.974,565.436,303.231,565.452,303.154Zm-116.793-.326-.04,0-.128-.012c-.117-.012-.215-.024-.293-.036l-.088-.012a.342.342,0,0,1-.154-.051l-13.266-20.872c-1.729-2.72-5.928-4.924-9.386-4.924l-29.357-2.4c-3.458,0-10.654,4.607-12.383,7.328l-12.716,19.12c-.035.053,5.173,1.863,5.083,1.926a2.737,2.737,0,0,1-.338.2l-35.216,2.177,71.661,14.779,73.02-18.188C485.024,301.767,448.694,302.912,448.659,302.828Z" transform="translate(-340.377 -274.085)" fill="#2d2d2d"/>
        </g>
        <g id="Group_1345" data-name="Group 1345" transform="translate(0 61.151)">
          <path id="Path_10175" data-name="Path 10175" d="M376.144,308.736,389.6,284.179c1.476-2.72,5.473-4.924,8.928-4.924H425.06a13.632,13.632,0,0,1,9.841,4.924l15.2,20.872c.654.9,119.583.9,120.072,0L581.5,284.179c1.476-2.72,5.476-4.924,8.931-4.924h26.533a13.627,13.627,0,0,1,9.841,4.924l15.2,20.872c.652.9,16.753,3.124,16.753,3.124,2.667-1.111,4.481-3.076,4.16-6.538-.048-.534-.1-1.075-.141-1.614H647.016L633,280.768a22.1,22.1,0,0,0-16.66-8.333H589.8c-6.136,0-12.492,3.506-15.117,8.333l-10.455,19.256H455.109l-14.022-19.256a22.1,22.1,0,0,0-16.66-8.333H397.895c-6.138,0-12.495,3.506-15.117,8.333l-10.455,19.256H338.707c.59,2.612,1.859,8.712,1.859,8.712a98.373,98.373,0,0,0,14.3,3.124S375.658,309.632,376.144,308.736Z" transform="translate(-338.707 -272.435)" fill="#d4d6d6"/>
          <path id="Path_10176" data-name="Path 10176" d="M372.506,302.021l10.455-19.258c2.625-4.827,8.982-8.333,15.117-8.333h26.535a22.1,22.1,0,0,1,16.66,8.333l14.019,19.258h109.12l10.458-19.258c2.622-4.827,8.979-8.333,15.117-8.333H616.52a22.1,22.1,0,0,1,16.66,8.333L647.2,302.021h15.726c-.008-.13.005-.249-.008-.384-.048-.534-.1-1.075-.141-1.614H647.016L633,280.768a22.1,22.1,0,0,0-16.66-8.333H589.8c-6.136,0-12.492,3.506-15.117,8.333l-10.455,19.256H455.109l-14.022-19.256a22.1,22.1,0,0,0-16.66-8.333H397.895c-6.138,0-12.495,3.506-15.117,8.333l-10.455,19.256H338.707c.165.725.322,1.394.465,2Z" transform="translate(-338.707 -272.435)" fill="#fff"/>
        </g>
        <g id="Group_1346" data-name="Group 1346" transform="translate(46.903 72.062)">
          <path id="Path_10177" data-name="Path 10177" d="M414.742,303.479c0,14.648-13.072,26.523-29.2,26.523s-29.2-11.875-29.2-26.523,13.075-26.528,29.2-26.528S414.742,288.828,414.742,303.479Z" transform="translate(-356.342 -276.951)" fill="#242424"/>
          <path id="Path_10178" data-name="Path 10178" d="M380.465,280.01c-11.633,0-21.064,8.567-21.064,19.137s9.431,19.135,21.064,19.135,21.067-8.567,21.067-19.135S392.1,280.01,380.465,280.01Zm19.4,19.137a16.189,16.189,0,0,1-.2,2.421l-6.588-.254-3.915-2.358,3.9-2.351,6.535-.251A16.119,16.119,0,0,1,399.862,299.147Zm-14.53,3.747a2.477,2.477,0,0,1,.835.742l.973,1.389-1.537-.887a2.507,2.507,0,0,1-.8-.734,3.289,3.289,0,0,0-.309-.78A4.5,4.5,0,0,0,385.333,302.894Zm-.859-7.589a3.6,3.6,0,0,0,.3-.764,2.486,2.486,0,0,1,.817-.759l1.529-.882-.976,1.4a2.568,2.568,0,0,1-.809.73A4.239,4.239,0,0,0,384.473,295.306Zm2.183,5.53a4.011,4.011,0,0,0-.7-.536,4.318,4.318,0,0,0,.878-.147,2.842,2.842,0,0,1,1.133.266l1.6.761-1.817-.07A2.827,2.827,0,0,1,386.657,300.836Zm1.3-3.329a2.825,2.825,0,0,1-1.1.263,4.388,4.388,0,0,0-.9-.147,3.838,3.838,0,0,0,.678-.527,2.858,2.858,0,0,1,1.128-.285l1.809-.07Zm.029-2.5,2.085-3.808,5.455-3.148a17.248,17.248,0,0,1,2.912,4.484l-5.769,2.735Zm1.011-4.786-4.2,1.9-.287-4.245,2.958-5.148a19.845,19.845,0,0,1,4.974,2.573Zm-4.641-4.518-.263-3.858a20.671,20.671,0,0,1,2.617.633Zm.032,26.537,2.553,3.5a21.029,21.029,0,0,1-2.84.708Zm.146-2.172.29-4.255,4.194,1.894,3.606,5.158a19.851,19.851,0,0,1-4.966,2.636ZM388,302.911l4.673-.263,5.888,2.8a17.13,17.13,0,0,1-2.827,4.542l-5.644-3.254Zm7.064-.4,4.474-.251a15.911,15.911,0,0,1-.71,2.517Zm-.008-7.11,3.649-2.2a16.041,16.041,0,0,1,.771,2.447ZM395,287.5l-3.864,1.747,1.915-3.5A18.559,18.559,0,0,1,395,287.5Zm-11.7-5.769-.269,5.779-2.6,3.554-2.588-3.544-.269-5.782a19.245,19.245,0,0,1,5.721-.007Zm-1.356,22.232a3.669,3.669,0,0,0,.58.616,2.252,2.252,0,0,1,.314,1.024l.077,1.643-.843-1.464a2.206,2.206,0,0,1-.29-1A3.466,3.466,0,0,0,381.944,303.967Zm-.192-10.79a2.215,2.215,0,0,1,.293-1.029l.838-1.459-.077,1.653a2.248,2.248,0,0,1-.3,1,3.742,3.742,0,0,0-.59.633A3.3,3.3,0,0,0,381.753,293.177Zm-3.646,12.43a2.213,2.213,0,0,1,.3-1,3.621,3.621,0,0,0,.59-.633,3.433,3.433,0,0,0,.162.8,2.181,2.181,0,0,1-.29,1.029l-.838,1.457ZM378,290.7l.843,1.466a2.2,2.2,0,0,1,.29,1,3.213,3.213,0,0,0-.162.814,3.874,3.874,0,0,0-.58-.616,2.2,2.2,0,0,1-.314-1.022Zm-16.929,8.451a16.1,16.1,0,0,1,.261-2.764l6.511.251,3.912,2.356-3.9,2.351-6.575.254A16.2,16.2,0,0,1,361.069,299.147Zm11.888,1.295a2.815,2.815,0,0,1,1.1-.263,4.523,4.523,0,0,0,.9.147,4.036,4.036,0,0,0-.678.527,2.844,2.844,0,0,1-1.125.285l-1.811.068Zm-.016-2.911-1.606-.761,1.819.07a2.823,2.823,0,0,1,1.1.271,3.776,3.776,0,0,0,.694.536,4.5,4.5,0,0,0-.875.15A2.84,2.84,0,0,1,372.941,297.531Zm1.827,6.12a2.5,2.5,0,0,1,.811-.73,4.157,4.157,0,0,0,.859-.28,3.458,3.458,0,0,0-.3.763,2.494,2.494,0,0,1-.819.759l-1.529.884Zm.809-8.6a2.537,2.537,0,0,1-.835-.744l-.971-1.389,1.535.887a2.55,2.55,0,0,1,.806.737,3.437,3.437,0,0,0,.306.78A4.327,4.327,0,0,0,375.577,295.054Zm.511-2.919-4.192-1.894-3.439-4.917a19.974,19.974,0,0,1,4.968-2.585l2.952,5.139Zm-3.178,2.9-4.673.263-5.758-2.73a17.381,17.381,0,0,1,2.9-4.489l5.439,3.138Zm-7.064.4-4.4.246a16.279,16.279,0,0,1,.758-2.438Zm.008,7.11-3.747,2.257a16.363,16.363,0,0,1-.71-2.508Zm2.388.133,4.686.266-2.088,3.808L365.207,310a17.283,17.283,0,0,1-2.832-4.54Zm3.676,5.052,4.2-1.9.29,4.245-3.122,5.431a19.938,19.938,0,0,1-4.968-2.633Zm4.641,4.518.285,4.2a20.28,20.28,0,0,1-2.838-.706Zm-.032-26.537-2.349-3.218a20.532,20.532,0,0,1,2.612-.64Zm-8.686.075,1.912,3.486-3.848-1.74A19.238,19.238,0,0,1,367.84,285.784Zm-2.152,24.762,4.085-1.848-2.037,3.721A18.419,18.419,0,0,1,365.688,310.546Zm11.907,6.006.285-6.117,2.593-3.556,2.588,3.547.287,6.127a21.784,21.784,0,0,1-2.883.215A21.159,21.159,0,0,1,377.6,316.552Zm15.609-4.141-2.045-3.735,4.1,1.853A18.552,18.552,0,0,1,393.205,312.411Z" transform="translate(-351.265 -272.619)" fill="#e3e5e5"/>
          <path id="Path_10179" data-name="Path 10179" d="M384.409,281.319c14.383,0,26.168,10.075,27.291,22.877.056-.66.1-1.324.1-2,0-13.74-12.261-24.878-27.386-24.878s-27.384,11.138-27.384,24.878c0,.674.037,1.338.1,2C358.24,291.393,370.025,281.319,384.409,281.319Z" transform="translate(-355.208 -276.428)" fill="#383838"/>
          <path id="Path_10180" data-name="Path 10180" d="M385.542,312.513c-15.62,0-28.373-11.14-29.16-25.151-.027.454-.04.913-.04,1.375,0,14.648,13.075,26.523,29.2,26.523s29.2-11.875,29.2-26.523c0-.461-.013-.921-.037-1.375C413.918,301.372,401.162,312.513,385.542,312.513Z" transform="translate(-356.342 -262.209)" fill="#111"/>
          <path id="Path_10181" data-name="Path 10181" d="M380.465,280.677c11.423,0,20.7,8.265,21.035,18.567.005-.191.032-.377.032-.568,0-10.57-9.434-19.137-21.067-19.137S359.4,288.106,359.4,298.676c0,.191.024.377.029.568C359.765,288.942,369.042,280.677,380.465,280.677Z" transform="translate(-351.265 -273.286)" fill="#111"/>
          <path id="Path_10182" data-name="Path 10182" d="M380.465,306.758c11.423,0,20.7-8.265,21.035-18.567.005.188.032.374.032.568,0,10.568-9.434,19.135-21.067,19.135S359.4,299.326,359.4,288.759c0-.193.024-.379.029-.568C359.765,298.493,369.042,306.758,380.465,306.758Z" transform="translate(-351.265 -261.035)" fill="#383838"/>
        </g>
        <g id="Group_1347" data-name="Group 1347" transform="translate(239.488 72.062)">
          <path id="Path_10183" data-name="Path 10183" d="M487.155,303.479c0,14.648-13.075,26.523-29.2,26.523s-29.2-11.875-29.2-26.523,13.075-26.528,29.2-26.528S487.155,288.828,487.155,303.479Z" transform="translate(-428.752 -276.951)" fill="#242424"/>
          <path id="Path_10184" data-name="Path 10184" d="M452.875,280.01c-11.633,0-21.064,8.567-21.064,19.137s9.431,19.135,21.064,19.135,21.067-8.567,21.067-19.135S464.511,280.01,452.875,280.01Zm19.4,19.137a16.189,16.189,0,0,1-.2,2.421l-6.588-.254-3.912-2.358,3.9-2.351,6.535-.251A15.878,15.878,0,0,1,472.275,299.147Zm-14.53,3.747a2.529,2.529,0,0,1,.835.742l.971,1.389-1.537-.887a2.536,2.536,0,0,1-.8-.734,3.4,3.4,0,0,0-.306-.78A4.372,4.372,0,0,0,457.745,302.894Zm-.862-7.589a3.46,3.46,0,0,0,.3-.764,2.537,2.537,0,0,1,.817-.759l1.529-.882-.976,1.4a2.571,2.571,0,0,1-.808.73A4.3,4.3,0,0,0,456.883,295.306Zm2.184,5.53a3.92,3.92,0,0,0-.7-.536,4.317,4.317,0,0,0,.878-.147,2.841,2.841,0,0,1,1.133.266l1.606.761-1.819-.07A2.827,2.827,0,0,1,459.067,300.836Zm1.3-3.329a2.814,2.814,0,0,1-1.1.263,4.362,4.362,0,0,0-.9-.147,4.04,4.04,0,0,0,.678-.527,2.846,2.846,0,0,1,1.125-.285l1.811-.07Zm.029-2.5,2.085-3.808,5.458-3.148a17.319,17.319,0,0,1,2.912,4.484l-5.769,2.735Zm1.011-4.786-4.2,1.9-.29-4.245,2.958-5.148a19.907,19.907,0,0,1,4.976,2.573Zm-4.641-4.518-.263-3.858a20.71,20.71,0,0,1,2.62.633Zm.032,26.537,2.556,3.5a21.068,21.068,0,0,1-2.843.708Zm.149-2.172.29-4.255,4.192,1.894,3.606,5.158a19.8,19.8,0,0,1-4.965,2.636Zm3.468-7.156,4.673-.263,5.891,2.8a17.21,17.21,0,0,1-2.83,4.542l-5.644-3.254Zm7.064-.4,4.476-.251a16.185,16.185,0,0,1-.71,2.517Zm-.008-7.11,3.652-2.2a16.343,16.343,0,0,1,.769,2.447Zm-.058-7.9-3.862,1.747,1.915-3.5A18.811,18.811,0,0,1,467.41,287.5Zm-11.7-5.769-.269,5.779-2.593,3.554-2.588-3.544-.271-5.782a19.246,19.246,0,0,1,5.721-.007Zm-1.356,22.232a3.669,3.669,0,0,0,.58.616,2.252,2.252,0,0,1,.314,1.024l.077,1.643-.843-1.464a2.206,2.206,0,0,1-.29-1A3.455,3.455,0,0,0,454.354,303.967Zm-.191-10.79a2.216,2.216,0,0,1,.293-1.029l.838-1.459-.077,1.653a2.181,2.181,0,0,1-.3,1,3.617,3.617,0,0,0-.588.633A3.444,3.444,0,0,0,454.163,293.177Zm-3.646,12.43a2.216,2.216,0,0,1,.3-1,3.837,3.837,0,0,0,.59-.633,3.308,3.308,0,0,0,.162.8,2.216,2.216,0,0,1-.293,1.029l-.838,1.457Zm-.109-14.912.843,1.466a2.2,2.2,0,0,1,.29,1,3.463,3.463,0,0,0-.162.814,3.869,3.869,0,0,0-.58-.616,2.23,2.23,0,0,1-.314-1.022Zm-16.929,8.451a16.1,16.1,0,0,1,.263-2.764l6.508.251,3.912,2.356-3.9,2.351-6.572.254A15.862,15.862,0,0,1,433.479,299.147Zm11.889,1.295a2.826,2.826,0,0,1,1.1-.263,4.517,4.517,0,0,0,.9.147,3.834,3.834,0,0,0-.678.527,2.869,2.869,0,0,1-1.128.285l-1.809.068Zm-.016-2.911-1.606-.761,1.819.07a2.823,2.823,0,0,1,1.1.271,3.8,3.8,0,0,0,.7.536,4.489,4.489,0,0,0-.878.15A2.84,2.84,0,0,1,445.351,297.531Zm1.83,6.12a2.513,2.513,0,0,1,.809-.73,4.105,4.105,0,0,0,.859-.28,3.459,3.459,0,0,0-.3.763,2.46,2.46,0,0,1-.817.759l-1.529.884Zm.806-8.6a2.53,2.53,0,0,1-.833-.744l-.973-1.389,1.537.887a2.512,2.512,0,0,1,.8.737,3.33,3.33,0,0,0,.309.78A4.293,4.293,0,0,0,447.987,295.054Zm.511-2.919-4.192-1.894-3.436-4.917a19.908,19.908,0,0,1,4.966-2.585l2.955,5.139Zm-3.178,2.9-4.673.263-5.755-2.73a17.315,17.315,0,0,1,2.9-4.489l5.436,3.138Zm-7.064.4-4.4.246a15.986,15.986,0,0,1,.761-2.438Zm.008,7.11-3.745,2.257a16.079,16.079,0,0,1-.713-2.508Zm2.391.133,4.684.266-2.085,3.808L437.617,310a17.289,17.289,0,0,1-2.833-4.54Zm3.673,5.052,4.2-1.9.287,4.245-3.12,5.431a19.892,19.892,0,0,1-4.968-2.633Zm4.641,4.518.287,4.2a20.407,20.407,0,0,1-2.84-.706Zm-.032-26.537-2.348-3.218a20.64,20.64,0,0,1,2.612-.64Zm-8.684.075,1.91,3.486-3.848-1.74A18.972,18.972,0,0,1,440.253,285.784ZM438.1,310.546l4.088-1.848-2.04,3.721A18.66,18.66,0,0,1,438.1,310.546Zm11.907,6.006.285-6.117,2.6-3.556,2.588,3.547.285,6.127a21.715,21.715,0,0,1-2.883.215A21.191,21.191,0,0,1,450.006,316.552Zm15.612-4.141-2.048-3.735,4.1,1.853A18.536,18.536,0,0,1,465.618,312.411Z" transform="translate(-423.675 -272.619)" fill="#e3e5e5"/>
          <path id="Path_10185" data-name="Path 10185" d="M456.819,281.319c14.383,0,26.168,10.075,27.291,22.877.059-.66.1-1.324.1-2,0-13.74-12.261-24.878-27.386-24.878s-27.384,11.138-27.384,24.878c0,.674.037,1.338.1,2C430.653,291.393,442.438,281.319,456.819,281.319Z" transform="translate(-427.619 -276.428)" fill="#383838"/>
          <path id="Path_10186" data-name="Path 10186" d="M457.952,312.513c-15.617,0-28.373-11.14-29.16-25.151-.027.454-.04.913-.04,1.375,0,14.648,13.075,26.523,29.2,26.523s29.2-11.875,29.2-26.523c0-.461-.013-.921-.04-1.375C486.328,301.372,473.572,312.513,457.952,312.513Z" transform="translate(-428.752 -262.209)" fill="#111"/>
          <path id="Path_10187" data-name="Path 10187" d="M452.875,280.677c11.423,0,20.7,8.265,21.035,18.567.005-.191.032-.377.032-.568,0-10.57-9.431-19.137-21.067-19.137s-21.064,8.567-21.064,19.137c0,.191.024.377.032.568C432.175,288.942,441.452,280.677,452.875,280.677Z" transform="translate(-423.675 -273.286)" fill="#111"/>
          <path id="Path_10188" data-name="Path 10188" d="M452.875,306.758c11.423,0,20.7-8.265,21.035-18.567.005.188.032.374.032.568,0,10.568-9.431,19.135-21.067,19.135s-21.064-8.567-21.064-19.135c0-.193.024-.379.032-.568C432.175,298.493,441.452,306.758,452.875,306.758Z" transform="translate(-423.675 -261.035)" fill="#383838"/>
        </g>
        <g id="Group_1348" data-name="Group 1348" transform="translate(110.274 91.968)">
          <path id="Path_10189" data-name="Path 10189" d="M501.515,287.273a2.2,2.2,0,0,1-2.293,2.085H382.464a2.2,2.2,0,0,1-2.3-2.085h0a2.2,2.2,0,0,1,2.3-2.083H499.223a2.2,2.2,0,0,1,2.293,2.083Z" transform="translate(-380.169 -285.19)" fill="#b2b2b2"/>
          <path id="Path_10190" data-name="Path 10190" d="M501.412,286.8a2.254,2.254,0,0,0-2.229-1.611H382.424a2.257,2.257,0,0,0-2.232,1.611Z" transform="translate(-380.129 -285.19)" fill="#fff"/>
          <path id="Path_10191" data-name="Path 10191" d="M380.325,286.542a2.349,2.349,0,0,0,1.88.9H498.964a2.344,2.344,0,0,0,1.878-.9Z" transform="translate(-379.91 -283.276)" fill="#939393"/>
        </g>
        <g id="Group_1349" data-name="Group 1349" transform="translate(155.485 44.769)">
          <path id="Path_10192" data-name="Path 10192" d="M412.5,266.379a.811.811,0,0,0-.835-.725H398.014a.81.81,0,0,0-.838.734h-.008V269.4a.812.812,0,0,0,.846.768h13.652a.81.81,0,0,0,.846-.768v-3.018Zm-14.487-.418h13.652a.488.488,0,0,1,.508.461v1.551a.488.488,0,0,1-.508.461H398.014a.488.488,0,0,1-.508-.461v-1.551A.488.488,0,0,1,398.014,265.961Zm13.652,3.9H398.014a.488.488,0,0,1-.508-.461v-.824a.889.889,0,0,0,.508.169h13.652a.889.889,0,0,0,.508-.169v.824A.488.488,0,0,1,411.666,269.858Z" transform="translate(-397.168 -265.654)" fill="#bf0c0c"/>
        </g>
        <path id="Path_10193" data-name="Path 10193" d="M451.71,278.049h20.442c4.17,0,2.476,8.367,2.476,8.367l-18.745-.408Z" transform="translate(-151.162 -203.334)" fill="#fff" opacity="0.7"/>
        <path id="Path_10194" data-name="Path 10194" d="M351.25,286.871l1.011-14.163-11.934.242c-.952,1.686-1,8.659-.878,14.16Z" transform="translate(-337.558 -210.897)" fill="#7f374d"/>
        <path id="Path_10195" data-name="Path 10195" d="M351.821,278.473l.532-7.47-11.931.242c-.582,1.032-.827,4.04-.9,7.478Z" transform="translate(-337.358 -213.311)" fill="#70221e"/>
        <path id="Path_10196" data-name="Path 10196" d="M463.423,271.265v-.855a2.4,2.4,0,0,0-2.5-2.274h-9.176a2.4,2.4,0,0,0-2.505,2.274v.855Z" transform="translate(-155.263 -217.371)" fill="#e37333"/>
        <path id="Path_10197" data-name="Path 10197" d="M460.559,288.626l1.234-.019a3.091,3.091,0,0,0,3.048-3.361l-.835-12.133a3.519,3.519,0,0,0-3.508-3.259l-1.231.019Z" transform="translate(-138.622 -214.94)" fill="#f9f9f9"/>
        <g id="Group_1350" data-name="Group 1350" transform="translate(227.605 34.391)">
          <path id="Path_10198" data-name="Path 10198" d="M434.73,266.208c-.447,5.922-5.327,4.4-7.676,4.308s-2.992-2.022-2.707-4.552c.4-3.569,1.851-4.692,4.2-4.6S435.116,261.132,434.73,266.208Z" transform="translate(-424.284 -261.359)" fill="#200000"/>
          <path id="Path_10199" data-name="Path 10199" d="M424.491,263.774a3.111,3.111,0,0,0,2.787,1.926c1.463.058,7.928,1.4,5.585-3.1-1.138-1.223-3.245-1.049-4.6-1.1A4.307,4.307,0,0,0,424.491,263.774Z" transform="translate(-423.942 -261.165)" fill="#2d2d2d"/>
        </g>
      </g>
      <path id="Path_10200" data-name="Path 10200" d="M437.021,269.484l57.425,1.578,1.131,7.663Z" transform="translate(-175.541 -215.462)" fill="#fff" opacity="0.7"/>
    </g>
    <path id="Path_10201" data-name="Path 10201" d="M397.211,275.837V250.075c10.782.174,20.056.37,27.732.568Q411.08,263.24,397.211,275.837Zm0,5.385v1.116l6.721-.007q17.222-15.641,34.44-31.285c-2.247-.08-4.811-.164-7.67-.246ZM462.4,267.685c-3.947-4.68-7.83-9.323-10.92-13.1l-30.527,27.731,25.378-.029Zm-10.133,14.59,7.955-.007q4.1-3.729,8.208-7.458c-1.13-1.331-2.29-2.7-3.455-4.076Z" transform="translate(97.096 4.639)" fill="#fff" opacity="0.7"/>
  </g>
</svg>
