<svg xmlns="http://www.w3.org/2000/svg" width="559.842" height="298.921" viewBox="0 0 559.842 298.921">
  <g id="Group_2886" data-name="Group 2886" transform="translate(-382.951 -544.99)">
    <g id="Group_2854" data-name="Group 2854" transform="translate(645.105 569.566)">
      <g id="Group_2851" data-name="Group 2851" transform="translate(11.409 53.551)">
        <path id="Path_11758" data-name="Path 11758" d="M600.878,630.759a33.419,33.419,0,0,1-14.757,3.524c-2.586-.105-6.072-5.368-5.956-6.583.15-1.556,11.012-3.848,10.733-6.814,1.38-.741,3.164-.2,6.276,1.574s30.566-3.36,30.566-3.36l.936,10.289C601.242,629.971,601.65,630.715,600.878,630.759Z" transform="translate(-580.162 -600.987)" fill="#f4cfb3" stroke="#284356" stroke-linecap="round" stroke-linejoin="round" stroke-width="1.5"/>
        <path id="Path_11759" data-name="Path 11759" d="M613.384,622.63c3.9-1.782,4.643-3.45,10.7-12.359,3.928-5.787,9.07-6.094,12.362-3.744,1.577,1.134,3.767,5.045.281,10.387,0,0-9.947,12.872-17.886,16.179a12.253,12.253,0,0,1-3.664.73Z" transform="translate(-567.174 -605.153)" fill="#9ac9dd" stroke="#294356" stroke-miterlimit="10" stroke-width="1.5"/>
        <path id="Path_11760" data-name="Path 11760" d="M616.978,629.827a1.185,1.185,0,0,1-1.081,1.309l-2.857.345a1.24,1.24,0,0,1-1.4-1.009l-1.545-11.165A1.184,1.184,0,0,1,611.172,618l2.859-.348a1.238,1.238,0,0,1,1.4,1.012Z" transform="translate(-568.464 -601.424)" fill="#b8e5f4" stroke="#284356" stroke-miterlimit="10" stroke-width="1.5"/>
      </g>
      <path id="Path_11761" data-name="Path 11761" d="M597.461,670.019l-4.244,11.408-6.364-2.062.967-2.6s-2.08,2.243-4.636,1.414c-3.639-1.178-11.224-3.637-11.224-3.637s1.156-4.419,3.991-4.3,9.464,1.871,12.9-2.206l3.437-4.08Z" transform="translate(-571.96 -534.046)" fill="#284356" stroke="#284356" stroke-miterlimit="10" stroke-width="1.5"/>
      <path id="Path_11762" data-name="Path 11762" d="M609.03,671.348l-.634,11.839-6.731.031-.017-2.754a5.21,5.21,0,0,1-3.8,3.165,32.667,32.667,0,0,1-4.522.5c-3.754.022-9.45-2.7-9.45-2.7s1.476-4.144,4.309-4.061c5.1.148,9.535-.551,11.318-5.468Z" transform="translate(-567.3 -531.836)" fill="#3e5b6d" stroke="#284356" stroke-linecap="round" stroke-linejoin="round" stroke-width="1.5"/>
      <path id="Path_11763" data-name="Path 11763" d="M644.925,639.308s1.138,10.3-4.012,12.569c-6.658,2.93-27.875,4.455-27.875,4.455l-18.7,22.88-11.073-3.588s11.8-18.313,14.56-22.973c4.194-7.072,6.115-8.351,14.743-9.414C624.44,641.775,644.925,639.308,644.925,639.308Z" transform="translate(-567.541 -541.403)" fill="#9ac9dd" stroke="#284356" stroke-linecap="round" stroke-linejoin="round" stroke-width="1.5"/>
      <path id="Path_11764" data-name="Path 11764" d="M625.943,572.607c16.874-1.473,17.3,12.961,17.3,12.961l-.291,6.335s-.8,13.244-1.244,13.513l.733,10a11.438,11.438,0,0,1-6.281,2.93c-5.141.462-6.1.583-6.1.583l-.675-8.828c-1.7.3-7.016,2.174-9.052,2.274-4.937.249-5.259-2.736-6.337-11.333a6.04,6.04,0,0,1-1.479-.423c-1.124-.419-.651-1.869-.651-1.869l1.248-4.259c-.75-6.4-1.071-9.116-1.071-9.116S609.83,574.02,625.943,572.607Z" transform="translate(-556.395 -561.351)" fill="#f4cfb3" stroke="#284356" stroke-miterlimit="10" stroke-width="1.5"/>
      <path id="Path_11765" data-name="Path 11765" d="M651.813,639.308s2.31,10.8-4.75,14.408c-6.457,3.3-21.978,1.758-21.978,1.758l-9.148,1.36-10.509,25.921-11.72.055s6.365-27.033,7.006-30.714,3.374-7.228,12-8.29C624.588,642.338,651.813,639.308,651.813,639.308Z" transform="translate(-563.458 -541.403)" fill="#9ac9dd" stroke="#284356" stroke-linecap="round" stroke-linejoin="round" stroke-width="1.5"/>
      <path id="Path_11766" data-name="Path 11766" d="M627.595,606.08c6.689-3.781,11.214-3.731,11.214-3.731s8.68,3.591,9.177,18.562c.307,9.193,1.687,16.419-4.13,32.518a1.952,1.952,0,0,1-2.187,1.375l-18.158-3.063c-.988-.2-4.1-.413-3.889-6.328.42-11.837.161-8.816.469-16.153C620.46,620.5,622.814,608.778,627.595,606.08Z" transform="translate(-553.33 -552.439)" fill="#9ac9dd" stroke="#294356" stroke-miterlimit="10" stroke-width="1.5"/>
      <path id="Path_11767" data-name="Path 11767" d="M614.478,588.332a1.535,1.535,0,0,0,1.7,1.308,1.482,1.482,0,0,0,1.362-1.621,1.535,1.535,0,0,0-1.7-1.306A1.473,1.473,0,0,0,614.478,588.332Z" transform="translate(-555.341 -557.11)" fill="#284356"/>
      <path id="Path_11768" data-name="Path 11768" d="M614.417,597.855c1.748-.281,3.6-.765,4.068-1.841" transform="translate(-555.361 -554.331)" fill="none" stroke="#284356" stroke-linecap="round" stroke-linejoin="round" stroke-width="1"/>
      <path id="Path_11769" data-name="Path 11769" d="M612.708,575.454c3.43-5.089,6.919-5.959,14.658-6.4,11.975-.68,22.93,3.38,21.986,14.573-.529,6.209-6.664,23.207-6.664,23.207s-1.964-7.52-3.437-10.535c1.132-3.563.407-6.083-1.892-6.632-1.689-.4-3.121.709-4.249,3.041-.808,1.386-1.248,3.114-1.406,3.141-2.089.344-2.516-6.2-2.608-7.184-.47-5.1-1.1-7-2.5-7.625-1.536-.69-6.92-1.814-12.352,3.487a56.5,56.5,0,0,1-4.439,4.153S607.752,582.8,612.708,575.454Z" transform="translate(-557.328 -562.403)" fill="#294356"/>
      <g id="Group_2853" data-name="Group 2853" transform="translate(46.195)">
        <g id="Group_2852" data-name="Group 2852">
          <path id="Path_11770" data-name="Path 11770" d="M608.3,592.435a2.155,2.155,0,0,1-2.347-1.735c-.364-1.844,2.451-3.141,3.322-3.495.5-.2.57-.549.448-2.192-.025-.33-.05-.675-.064-1.031-.324-9.961,6.216-17.066,17.5-19.009a21.236,21.236,0,0,1,3.6-.309c9.5,0,17.65,6.342,19.379,15.079l.627,3.187a2.256,2.256,0,0,1-1.917,2.6l-39.538,6.8A6.017,6.017,0,0,1,608.3,592.435Z" transform="translate(-604.876 -563.691)" fill="#fbb323"/>
          <path id="Path_11771" data-name="Path 11771" d="M631.05,565.863c8.837,0,16.69,5.876,18.352,14.282l.627,3.187a1.272,1.272,0,0,1-1.081,1.469l-29.031,4.994-5.057.871-5.448.938a4.917,4.917,0,0,1-.818.082c-.67,0-1.177-.225-1.32-.939-.242-1.225,2.711-2.423,2.711-2.423,1.545-.622,1.083-2.21,1.013-4.149-.275-8.469,4.643-15.952,16.641-18.018a19.945,19.945,0,0,1,3.411-.294m0-1.948h0a22.4,22.4,0,0,0-3.79.326c-11.83,2.037-18.689,9.511-18.347,19.992.014.375.039.731.065,1.073a9.674,9.674,0,0,1,.042,1.287c-1.426.6-4.269,2.117-3.8,4.507a3.184,3.184,0,0,0,3.372,2.534,7.043,7.043,0,0,0,1.2-.113l5.45-.939,5.056-.873,29.031-4.992a3.242,3.242,0,0,0,2.755-3.733l-.627-3.191c-1.821-9.2-10.4-15.878-20.4-15.878Z" transform="translate(-605.171 -563.915)" fill="#284356"/>
        </g>
      </g>
      <path id="Path_11772" data-name="Path 11772" d="M603.148,692.925l11.265-25.233s28.038-1.939,29.584-3.014c.545-.382,3.11-1.793,4.263-3.572a25.29,25.29,0,0,0,2.981-7.449c.576-.708,3.383-8.273,4.763-18.779.664-5.036.159-10.915-.577-17.836-.894-6.994-4.735-12.459-8.216-14.1.655,4.588-6.28,11.226-7.991,12.509-1.409,18.087,3.177,32.234,1.1,37.63s-27.843,4.915-30.8,11.647c-1.333,3.035-6.824,22.247-11.918,28.187Z" transform="translate(-561.935 -552.262)" fill="#284356" opacity="0.32"/>
    </g>
    <g id="Group_2885" data-name="Group 2885" transform="translate(384.872 544.99)">
      <path id="Path_11773" data-name="Path 11773" d="M679.837,569.891a6.1,6.1,0,0,1-5.314,6.963,6.448,6.448,0,0,1-7.462-4.959l-1.814-10.09a6.1,6.1,0,0,1,5.316-6.961,6.447,6.447,0,0,1,7.461,4.959Z" transform="translate(-275.291 -542.073)" fill="#f05e2f" stroke="#284356" stroke-linecap="round" stroke-linejoin="round" stroke-width="3.842"/>
      <g id="Group_2858" data-name="Group 2858" transform="translate(412.152 201.577)">
        <g id="Group_2856" data-name="Group 2856">
          <path id="Path_11774" data-name="Path 11774" d="M730.576,790.786c-26.178,0-47.476-19.881-47.476-44.321s21.3-44.327,47.476-44.327,47.479,19.885,47.479,44.327S756.756,790.786,730.576,790.786Z" transform="translate(-680.428 -699.643)" fill="#798290"/>
          <g id="Group_2855" data-name="Group 2855">
            <path id="Path_11775" data-name="Path 11775" d="M731.327,705.206c24.747,0,44.807,18.728,44.807,41.833s-20.06,41.826-44.807,41.826-44.8-18.727-44.8-41.826,20.058-41.833,44.8-41.833m0-4.989c-27.651,0-50.148,21-50.148,46.822s22.5,46.815,50.148,46.815,50.151-21,50.151-46.815-22.5-46.822-50.151-46.822Z" transform="translate(-681.179 -700.217)" fill="#284356"/>
          </g>
        </g>
        <g id="Group_2857" data-name="Group 2857" transform="translate(17.707 16.53)">
          <path id="Path_11776" data-name="Path 11776" d="M725.975,771.99c-17.152,0-31.1-13.027-31.1-29.039s13.953-29.044,31.1-29.044,31.109,13.029,31.109,29.044S743.128,771.99,725.975,771.99Z" transform="translate(-693.533 -712.659)" fill="#9ac9dd"/>
          <path id="Path_11777" data-name="Path 11777" d="M726.35,715.441c16.441,0,29.774,12.446,29.774,27.8s-13.332,27.792-29.774,27.792-29.769-12.444-29.769-27.792,13.331-27.8,29.769-27.8m0-2.495c-17.888,0-32.441,13.59-32.441,30.292s14.554,30.287,32.441,30.287S758.8,759.938,758.8,743.238s-14.555-30.292-32.446-30.292Z" transform="translate(-693.909 -712.946)" fill="#284356"/>
        </g>
        <path id="Path_11778" data-name="Path 11778" d="M747.959,741.422c0,12.365-10.741,22.39-23.984,22.39s-23.988-10.025-23.988-22.39,10.741-22.4,23.988-22.4S747.959,729.051,747.959,741.422Z" transform="translate(-673.826 -694.6)" fill="#798290" stroke="#284356" stroke-linecap="round" stroke-linejoin="round" stroke-width="1.921"/>
        <path id="Path_11779" data-name="Path 11779" d="M735,739.25c0,7.145-6.214,12.939-13.869,12.939s-13.866-5.794-13.866-12.939S713.471,726.3,721.13,726.3,735,732.1,735,739.25Z" transform="translate(-670.981 -692.428)" fill="#9ac9dd" stroke="#284356" stroke-linecap="round" stroke-linejoin="round" stroke-width="1.921"/>
      </g>
      <g id="Group_2859" data-name="Group 2859" transform="translate(417.452 206.558)" opacity="0.3" style="mix-blend-mode: multiply;isolation: isolate">
        <path id="Path_11780" data-name="Path 11780" d="M729.807,725.92c20.7,0,38.118,13.107,43.27,30.915a39.332,39.332,0,0,0,1.557-10.934c0-23.112-20.07-41.848-44.827-41.848s-44.818,18.736-44.818,41.848a39.335,39.335,0,0,0,1.554,10.934C691.692,739.027,709.107,725.92,729.807,725.92Z" transform="translate(-684.989 -704.053)"/>
      </g>
      <path id="Path_11781" data-name="Path 11781" d="M683.437,739.26c4.4,4.053,1.32,11.048-4.854,11.048H521.09c-9.307,0-16.845-7.041-16.845-15.726V689.059c0-8.689,7.538-15.73,16.845-15.73h73.949c10.776,0,27.342,3.012,35.009,10.076Z" transform="translate(-338.201 -506.669)" fill="#737987" stroke="#284356" stroke-linecap="round" stroke-linejoin="round" stroke-width="3.842"/>
      <g id="Group_2861" data-name="Group 2861" transform="translate(191.422 175.561)">
        <path id="Path_11782" data-name="Path 11782" d="M585.867,796.844c-33.887,0-61.456-25.734-61.456-57.368S551.98,682.1,585.867,682.1s61.449,25.738,61.449,57.373S619.75,796.844,585.867,796.844Z" transform="translate(-521.739 -679.61)" fill="#798290"/>
        <g id="Group_2860" data-name="Group 2860">
          <path id="Path_11783" data-name="Path 11783" d="M586.618,685.171c32.469,0,58.777,24.572,58.777,54.878s-26.307,54.873-58.777,54.873-58.784-24.565-58.784-54.873,26.32-54.878,58.784-54.878m0-4.988c-35.361,0-64.128,26.856-64.128,59.866s28.767,59.863,64.128,59.863,64.121-26.855,64.121-59.863-28.765-59.866-64.121-59.866Z" transform="translate(-522.49 -680.183)" fill="#284356"/>
        </g>
      </g>
      <g id="Group_2862" data-name="Group 2862" transform="translate(213.926 196.569)">
        <path id="Path_11784" data-name="Path 11784" d="M579.916,772.542c-22.214,0-40.286-16.871-40.286-37.61s18.073-37.61,40.286-37.61,40.285,16.873,40.285,37.61S602.13,772.542,579.916,772.542Z" transform="translate(-538.293 -696.074)" fill="#9ac9dd"/>
        <path id="Path_11785" data-name="Path 11785" d="M580.292,698.856c21.515,0,38.95,16.279,38.95,36.363s-17.434,36.363-38.95,36.363-38.951-16.278-38.951-36.363,17.438-36.363,38.951-36.363m0-2.495c-22.951,0-41.623,17.432-41.623,38.858s18.672,38.858,41.623,38.858,41.622-17.432,41.622-38.858-18.671-38.858-41.622-38.858Z" transform="translate(-538.669 -696.361)" fill="#284356"/>
      </g>
      <path id="Path_11786" data-name="Path 11786" d="M608.8,733.022c0,16.181-14.054,29.3-31.387,29.3s-31.386-13.12-31.386-29.3,14.052-29.3,31.386-29.3S608.8,716.841,608.8,733.022Z" transform="translate(-321.865 -497.595)" fill="#798290" stroke="#284356" stroke-linecap="round" stroke-linejoin="round" stroke-width="1.921"/>
      <path id="Path_11787" data-name="Path 11787" d="M591.829,730.179c0,9.352-8.116,16.935-18.137,16.935s-18.142-7.582-18.142-16.935,8.125-16.939,18.142-16.939S591.829,720.824,591.829,730.179Z" transform="translate(-318.143 -494.752)" fill="#9ac9dd" stroke="#284356" stroke-linecap="round" stroke-linejoin="round" stroke-width="1.921"/>
      <g id="Group_2864" data-name="Group 2864" transform="translate(182.535 177.177)" opacity="0.3">
        <g id="Group_2863" data-name="Group 2863" opacity="0.21" style="mix-blend-mode: multiply;isolation: isolate">
          <path id="Path_11788" data-name="Path 11788" d="M695.295,747.438c-8.125-8.5-46.583-48.736-53.391-55.855-7.664-7.066-24.232-10.077-35.006-10.077-80.727,0-75.571-.5-79.9,1.03-5.012,12.786-6.508,12.407-10.894,14.958v21.994a11.048,11.048,0,0,0,4.155.764c34.461,0,22,.366,51.961-5.022,34.568-6.2,65.523,14.561,73.775,43.257h44.451C696.613,758.488,699.693,751.492,695.295,747.438Z" transform="translate(-516.101 -681.428)"/>
        </g>
      </g>
      <path id="Path_11789" data-name="Path 11789" d="M672.575,616.557c0-4.659-4.044-8.44-9.041-8.44s-9.039,3.78-9.039,8.44v48.259H614.561a7.92,7.92,0,1,0,0,15.8l58.014-.064Z" transform="translate(-298.38 -526.141)" fill="#798290" stroke="#284356" stroke-linecap="round" stroke-linejoin="round" stroke-width="3.842"/>
      <g id="Group_2865" data-name="Group 2865" transform="translate(308.024 82.362)" opacity="0.3" style="mix-blend-mode: multiply;isolation: isolate">
        <path id="Path_11790" data-name="Path 11790" d="M665.515,608.414a7.778,7.778,0,0,1,.135,1.256v64l-58.018.062a8.941,8.941,0,0,1-1.313-.122,8.229,8.229,0,0,0,8.376,7.124l58.016-.06v-64A8.6,8.6,0,0,0,665.515,608.414Z" transform="translate(-606.318 -608.414)"/>
      </g>
      <path id="Path_11791" data-name="Path 11791" d="M606.8,680.61a25.683,25.683,0,0,0,10.9,20.74l71.856,51.868c5.436,3.926,13.328.309,13.328-6.107v-63.64c0-8.689-7.54-15.731-16.846-15.731H620.58C612.969,667.74,606.8,673.5,606.8,680.61Z" transform="translate(-298.107 -508.338)" fill="#798290" stroke="#284356" stroke-linecap="round" stroke-linejoin="round" stroke-width="3.842"/>
      <path id="Path_11792" data-name="Path 11792" d="M683.1,666.42a2.568,2.568,0,0,1-2.651,2.473H618.889a2.479,2.479,0,1,1,0-4.945h61.564A2.565,2.565,0,0,1,683.1,666.42Z" transform="translate(-294.416 -509.47)" fill="#737987" stroke="#284356" stroke-linecap="round" stroke-linejoin="round" stroke-width="3.842"/>
      <path id="Path_11793" data-name="Path 11793" d="M568.205,639.231a9.543,9.543,0,0,0,0,14.151,11.261,11.261,0,0,0,15.155,0l14.17-13.226a9.545,9.545,0,0,0,0-14.152,11.264,11.264,0,0,0-15.159,0Z" transform="translate(-314.422 -521.675)" fill="#798290" stroke="#284356" stroke-linecap="round" stroke-linejoin="round" stroke-width="3.842"/>
      <g id="Group_2866" data-name="Group 2866" transform="translate(252.373 102.156)">
        <path id="Path_11794" data-name="Path 11794" d="M597.069,625.761a10.742,10.742,0,0,0-3.355-2.1,9.508,9.508,0,0,1-1.434,12.473l-14.17,13.226a11.267,11.267,0,0,1-11.8,2.1,9.821,9.821,0,0,0,1.434,1.679,11.258,11.258,0,0,0,15.154,0l14.171-13.224A9.546,9.546,0,0,0,597.069,625.761Z" transform="translate(-566.309 -623.657)" opacity="0.3" style="mix-blend-mode: multiply;isolation: isolate"/>
      </g>
      <path id="Path_11795" data-name="Path 11795" d="M568.205,639.231a9.543,9.543,0,0,0,0,14.151,11.261,11.261,0,0,0,15.155,0l14.17-13.226a9.545,9.545,0,0,0,0-14.152,11.264,11.264,0,0,0-15.159,0Z" transform="translate(-314.422 -521.675)" fill="none" stroke="#284356" stroke-linecap="round" stroke-linejoin="round" stroke-width="3.842"/>
      <path id="Path_11796" data-name="Path 11796" d="M589.708,669.844c0,8.682-7.543,15.73-16.847,15.73H550.043c-8.209,0-13.935-7.594-11.157-14.806l8.852-23.049c3.409-8.858,12.455-14.8,22.538-14.8h2.584c9.3,0,16.847,7.04,16.847,15.729Z" transform="translate(-324.935 -518.736)" fill="#798290" stroke="#284356" stroke-linecap="round" stroke-linejoin="round" stroke-width="3.842"/>
      <g id="Group_2867" data-name="Group 2867" transform="translate(213.263 119.156)">
        <path id="Path_11797" data-name="Path 11797" d="M555.256,650.021V636.748a22.393,22.393,0,0,0-7.5,9.826L538.9,669.622c-2.774,7.214,2.949,14.807,11.156,14.807h22.82c9.306,0,16.849-7.046,16.849-15.73v-2.948H572.1C562.8,665.751,555.256,658.707,555.256,650.021Z" transform="translate(-538.192 -636.748)" opacity="0.3" style="mix-blend-mode: multiply;isolation: isolate"/>
      </g>
      <path id="Path_11798" data-name="Path 11798" d="M606.24,696.047c-4.309-4.657-.762-11.9,5.832-11.9h85.558c8.659,0,15.077,7.464,13.206,15.357l-10.272,37.731c-4.758,20.039-33.319,19.176-47.9,3.428Z" transform="translate(-299.063 -503.439)" fill="#798290" stroke="#284356" stroke-linecap="round" stroke-linejoin="round" stroke-width="3.842"/>
      <path id="Path_11799" data-name="Path 11799" d="M500.68,789.2c0,7.51,6.521,13.6,14.565,13.6s14.566-6.087,14.566-13.6V581.776c0-7.509-6.528-13.595-14.566-13.595s-14.565,6.086-14.565,13.595Z" transform="translate(-339.595 -538.065)" fill="#9ac9dd" stroke="#284356" stroke-linecap="round" stroke-linejoin="round" stroke-width="3.842"/>
      <g id="Group_2868" data-name="Group 2868" transform="translate(169.858 29.843)" opacity="0.3" style="mix-blend-mode: multiply;isolation: isolate">
        <path id="Path_11800" data-name="Path 11800" d="M512.947,567.971a15.339,15.339,0,0,0-5.96,1.2,13.576,13.576,0,0,1,8.607,12.393v207.42a13.585,13.585,0,0,1-8.607,12.4,15.338,15.338,0,0,0,5.96,1.2c8.036,0,14.563-6.09,14.563-13.6V581.566C527.511,574.06,520.983,567.971,512.947,567.971Z" transform="translate(-506.987 -567.971)"/>
      </g>
      <path id="Path_11801" data-name="Path 11801" d="M500.68,789.2c0,7.51,6.521,13.6,14.565,13.6s14.566-6.087,14.566-13.6V581.776c0-7.509-6.528-13.595-14.566-13.595s-14.565,6.086-14.565,13.595Z" transform="translate(-339.595 -538.065)" fill="none" stroke="#284356" stroke-linecap="round" stroke-linejoin="round" stroke-width="3.842"/>
      <path id="Path_11802" data-name="Path 11802" d="M504.47,765.39a6.76,6.76,0,0,1-13.487,0v-157.4c0-8.314,13.487-8.323,13.487,0Z" transform="translate(-343.386 -528.04)" fill="#798290" stroke="#284356" stroke-linecap="round" stroke-linejoin="round" stroke-width="3.842"/>
      <g id="Group_2869" data-name="Group 2869" transform="translate(26.905 151.124)">
        <path id="Path_11803" data-name="Path 11803" d="M414.054,755.8a7.514,7.514,0,0,1-7.919-7.434c0-3.693,2.719-7.431,7.919-7.431h96.052V669.91c0-4.3,3.675-6.624,7.131-6.624s7.126,2.322,7.126,6.624v79.239a6.289,6.289,0,0,1-2.3,4.963,7.607,7.607,0,0,1-4.827,1.645h-.142a5.876,5.876,0,0,1-.69.045Z" transform="translate(-403.463 -660.791)" fill="#9ac9dd"/>
        <path id="Path_11804" data-name="Path 11804" d="M517.988,666.354c2.228,0,4.454,1.377,4.454,4.13v79.239c0,2.749-2.227,4.114-4.458,4.114-.083,0-.17,0-.253-.006-.193.017-.371.051-.577.051H414.8a4.947,4.947,0,1,1,0-9.876h98.724V670.484c0-2.752,2.231-4.13,4.459-4.13m0-4.989c-5.588,0-9.8,3.92-9.8,9.119v68.532H414.8c-6.037,0-10.591,4.267-10.591,9.925s4.554,9.929,10.591,9.929H517.153a7.759,7.759,0,0,0,.839-.045c5.583,0,9.794-3.915,9.794-9.1V670.484c0-5.2-4.212-9.119-9.8-9.119Z" transform="translate(-404.214 -661.365)" fill="#284356"/>
      </g>
      <g id="Group_2870" data-name="Group 2870" transform="translate(327.121 153.17)" opacity="0.3" style="mix-blend-mode: multiply;isolation: isolate">
        <path id="Path_11805" data-name="Path 11805" d="M699.113,685.634v-6.983c0-8.166-6.319-15.71-18.74-15.71H661c-.875,2.584.46-1.041-13.581,36.246-3.374,8.962-12.527,14.836-22.438,14.836q-2.506,0-4.928-.086l27.9,26.8c10.631,11.489,44-8.684,51.169-15.377,0-.112,6.967-25.671,7-25.784A12.369,12.369,0,0,0,699.113,685.634Z" transform="translate(-620.048 -662.941)"/>
      </g>
      <g id="Group_2872" data-name="Group 2872" transform="translate(176.118)">
        <g id="Group_2871" data-name="Group 2871" transform="translate(2.665 2.495)">
          <path id="Path_11806" data-name="Path 11806" d="M654.161,801.757a4.514,4.514,0,0,1-3.55-1.569c-1.526-1.831-1.223-4.52-.7-6.454a53.815,53.815,0,0,0-11.057-49.024,62.269,62.269,0,0,0-48.038-22.136,66.812,66.812,0,0,0-11.768,1.057c-7.037,1.266-11.775,2.223-15.232,2.922-9.886,2-11.008,2.148-26.662,2.148l-10.566-.005A12.641,12.641,0,0,1,514,719.281c-1.753-6.115.245-14.335,7.453-18.209l.438-.236c5.663-3.028,5.771-3.086,23.564-54.419,5.009-14.451,11.243-32.435,19.394-55.634,5.777-16.419,17.793-22.915,30.515-29.792,1.657-.895,3.34-1.806,5.042-2.753,15.857-8.834,25.292-9.091,70.637-10.325,9.624-.264,20.533-.56,33.59-.988.261-.008.52-.013.78-.013,10.713,0,19.855,7.15,21.739,17l16.284,85.22a91.462,91.462,0,0,1,1.6,16.958,6.054,6.054,0,0,0,6.244,5.828h80.133c8.7,0,16.194,5.511,18.226,13.4L851,690.534a7.152,7.152,0,0,1-1.509,6.47A8.3,8.3,0,0,1,843.1,699.9a3.624,3.624,0,0,0-2.636,1.092,3.153,3.153,0,0,0-.893,2.576l3.31,29.044a4.169,4.169,0,0,0,4.252,3.574h1.338a7.089,7.089,0,1,1,0,14.149H825.3c-4.59,0-9.194-.352-13.648-.692-4.334-.329-8.817-.671-13.164-.671-2.264,0-4.323.09-6.294.274-20.205,1.883-37.155,16.17-41.224,34.744-1.881,8.559-8.922,17.771-19.941,17.771Zm39.451-237.714-55.177,1.787c-16.469.534-26.715,6.929-34.194,11.6-.675.419-1.321.824-1.945,1.206A41.841,41.841,0,0,0,584.3,600.943L556,686.214a8.526,8.526,0,0,0,1.463,8.089,9.89,9.89,0,0,0,7.846,3.7h26.153c18.834,0,27.726,7.867,49.205,26.873,4.064,3.6,8.67,7.672,13.889,12.179,10.709,9.254,21.4,10.02,32.333,10.02,8.944,0,16.947-5.293,19.913-13.172l12.6-33.453a84.118,84.118,0,0,0,5.44-29.739v-9.046l-14.467-84.731c-1.274-7.475-8.082-12.9-16.189-12.9C693.993,564.034,693.8,564.038,693.612,564.043Z" transform="translate(-513.403 -546.911)" fill="#fbb323"/>
        </g>
        <path id="Path_11807" data-name="Path 11807" d="M706.163,549.979c9.363,0,17.454,6.285,19.109,14.944l16.284,85.219a88.85,88.85,0,0,1,1.561,16.521c0,4.6,3.993,8.323,8.916,8.323h80.133c7.415,0,13.9,4.761,15.629,11.491l1.353,5.218a5.177,5.177,0,0,1-5.3,6.28,5.972,5.972,0,0,0-6.186,6.424l3.311,29.047a6.79,6.79,0,0,0,6.909,5.8h1.338a4.589,4.589,0,1,1,0,9.16H826.052c-8.952,0-17.892-1.364-26.812-1.364-2.187,0-4.376.082-6.561.287-21.7,2.022-39.279,17.117-43.575,36.725-1.823,8.3-8.246,15.777-17.323,15.777h-76.87c-2.319,0-2.227-2.817-1.658-4.916,10.35-38.4-21.376-74.266-61.685-74.266a69.534,69.534,0,0,0-12.271,1.1c-26.353,4.741-19.881,5.026-41.391,5.026-2.943,0-6.415,0-10.566,0-12.428,0-14.029-17.473-3.8-22.97,9.008-4.842,5.969-1.73,44.6-111.672,6.173-17.548,19.6-22.945,34.387-31.182,18.43-10.268,26.989-8.472,102.953-10.961.23-.008.458-.012.686-.012M566.054,701.068h26.153c21.161,0,28.652,10.2,61.28,38.389,10.972,9.482,21.761,10.684,34.147,10.684,10.069,0,19.1-5.971,22.433-14.839l12.6-33.454a86.655,86.655,0,0,0,5.593-30.565v-9.243l-14.5-84.925c-1.476-8.66-9.5-15-18.828-15-.221,0-.444,0-.665.01l-55.177,1.786c-18.749.606-29.893,8.545-37.513,13.214A44.336,44.336,0,0,0,582.5,600.776l-28.31,85.272c-2.473,7.462,3.491,15.019,11.862,15.019M706.163,544.99h0q-.436,0-.873.016c-13.05.427-23.955.725-33.575.987-45.918,1.249-55.476,1.509-71.929,10.676-1.69.943-3.365,1.847-5.01,2.737-13.177,7.122-25.62,13.848-31.714,31.173-8.154,23.2-14.39,41.19-19.4,55.642-9,25.967-13.519,39-16.534,45.792-2.4,5.4-3.123,5.793-5.817,7.233l-.442.238c-8.375,4.5-10.717,13.981-8.7,21.015a15.2,15.2,0,0,0,15.173,11.265l6.179,0,4.387,0c15.933,0,17.081-.156,27.225-2.205,3.447-.7,8.166-1.651,15.175-2.91a63.941,63.941,0,0,1,11.261-1.013A59.541,59.541,0,0,1,637.5,746.817,51.466,51.466,0,0,1,648.07,793.7c-.668,2.466-1.006,5.964,1.184,8.593a7.3,7.3,0,0,0,5.657,2.53h76.87c10.726,0,20-8.128,22.559-19.765,3.835-17.515,19.821-30.988,38.87-32.763,1.883-.177,3.856-.261,6.03-.261,4.238,0,8.468.322,12.947.664,4.507.344,9.166.7,13.865.7h23.172c5.821,0,10.211-4.114,10.211-9.572s-4.39-9.565-10.211-9.565h-1.338a1.563,1.563,0,0,1-1.6-1.338l-3.31-29.052a.78.78,0,0,1,.221-.64.883.883,0,0,1,.651-.268,11.03,11.03,0,0,0,8.483-3.844,9.5,9.5,0,0,0,2.006-8.6l-1.352-5.219C850.669,676.295,842.1,670,832.166,670H752.033a3.462,3.462,0,0,1-3.572-3.334,93.67,93.67,0,0,0-1.643-17.389l-16.285-85.227c-2.111-11.042-12.36-19.055-24.37-19.057ZM566.054,696.079a7.181,7.181,0,0,1-5.7-2.683,6.191,6.191,0,0,1-1.061-5.872L587.6,602.254A39.328,39.328,0,0,1,604.51,581.3q.947-.581,1.964-1.218c7.214-4.5,17.094-10.673,32.8-11.182l55.177-1.787c.16,0,.32-.006.48-.006,6.787,0,12.485,4.54,13.551,10.794l14.434,84.537v8.849a81.731,81.731,0,0,1-5.29,28.911l-12.6,33.454c-2.59,6.881-9.58,11.5-17.393,11.5-12.771,0-21.417-1.491-30.518-9.355-5.206-4.5-9.808-8.569-13.866-12.159-22.027-19.491-31.144-27.559-51.043-27.559Z" transform="translate(-511.487 -544.99)" fill="#284356"/>
      </g>
      <g id="Group_2874" data-name="Group 2874" transform="translate(366.089 5.002)">
        <g id="Group_2873" data-name="Group 2873" opacity="0.3" style="mix-blend-mode: multiply;isolation: isolate">
          <path id="Path_11808" data-name="Path 11808" d="M664.891,563.785,681.171,649a88.356,88.356,0,0,1,1.563,16.522c0,4.6,3.993,8.32,8.913,8.32h7.061c-4.923,0-8.913-3.725-8.913-8.32A88.229,88.229,0,0,0,688.23,649l-16.278-85.216c-1.7-8.876-10.144-15.253-19.8-14.931l-4.092.127C656.431,549.907,663.368,555.835,664.891,563.785Z" transform="translate(-648.063 -548.842)"/>
        </g>
      </g>
      <path id="Path_11809" data-name="Path 11809" d="M729.725,700.7a1.318,1.318,0,0,0-.342,2.6c22.375,7.31,36.2,28.465,32.6,50.469a7.983,7.983,0,0,0,7.762,9.459c5.757,0,10.424-4.361,10.424-9.738V716.426c0-8.692-7.539-15.73-16.846-15.73Z" transform="translate(-250.576 -498.497)" fill="#798290" stroke="#284356" stroke-linecap="round" stroke-linejoin="round" stroke-width="3.842"/>
      <g id="Group_2875" data-name="Group 2875" transform="translate(511.624 202.824)" opacity="0.3" style="mix-blend-mode: multiply;isolation: isolate">
        <path id="Path_11810" data-name="Path 11810" d="M758.7,701.178a14.893,14.893,0,0,1,2.7,8.511v37.059a9.963,9.963,0,0,1-8.7,9.6,7.842,7.842,0,0,0,7.759,6.734c5.76,0,10.429-4.361,10.429-9.738V716.282C770.88,709.107,765.731,703.067,758.7,701.178Z" transform="translate(-752.692 -701.178)"/>
      </g>
      <path id="Path_11811" data-name="Path 11811" d="M729.725,700.7a1.318,1.318,0,0,0-.342,2.6c22.375,7.31,36.2,28.465,32.6,50.469a7.983,7.983,0,0,0,7.762,9.459c5.757,0,10.424-4.361,10.424-9.738V716.426c0-8.692-7.539-15.73-16.846-15.73Z" transform="translate(-250.576 -498.497)" fill="none" stroke="#284356" stroke-linecap="round" stroke-linejoin="round" stroke-width="3.842"/>
      <path id="Path_11812" data-name="Path 11812" d="M679.982,673.949c0,7.3,6.333,13.214,14.148,13.214s14.156-5.918,14.156-13.214-6.341-13.207-14.156-13.207S679.982,666.656,679.982,673.949Z" transform="translate(-269.495 -510.427)" fill="#fbb323" stroke="#284356" stroke-miterlimit="10" stroke-width="1.921"/>
      <path id="Path_11813" data-name="Path 11813" d="M672.575,616.557c0-4.659-4.044-8.44-9.041-8.44s-9.039,3.78-9.039,8.44v48.259H614.561a7.92,7.92,0,1,0,0,15.8l58.014-.064Z" transform="translate(-298.38 -526.141)" fill="none" stroke="#284356" stroke-linecap="round" stroke-linejoin="round" stroke-width="3.842"/>
      <path id="Path_11814" data-name="Path 11814" d="M504.47,765.39a6.76,6.76,0,0,1-13.487,0v-157.4c0-8.314,13.487-8.323,13.487,0Z" transform="translate(-343.386 -528.04)" fill="none" stroke="#284356" stroke-linecap="round" stroke-linejoin="round" stroke-width="3.842"/>
      <path id="Path_11815" data-name="Path 11815" d="M608.805,637.847a4.793,4.793,0,0,1,0,7.1,5.652,5.652,0,0,1-7.61,0l-25.048-23.381a4.8,4.8,0,0,1,0-7.11,5.654,5.654,0,0,1,7.607,0Z" transform="translate(-310.706 -524.687)" fill="#798290" stroke="#284356" stroke-linecap="round" stroke-linejoin="round" stroke-width="3.842"/>
      <g id="Group_2876" data-name="Group 2876" transform="translate(284.692 107.725)" opacity="0.21" style="mix-blend-mode: multiply;isolation: isolate">
        <path id="Path_11816" data-name="Path 11816" d="M595.337,640.453a5.646,5.646,0,0,0,7.607,0,4.793,4.793,0,0,0,0-7.1l-5.788-5.4a4.792,4.792,0,0,1,0,7.1,5.65,5.65,0,0,1-7.608,0Z" transform="translate(-589.544 -627.945)" opacity="0.3"/>
      </g>
      <path id="Path_11817" data-name="Path 11817" d="M608.805,637.847a4.793,4.793,0,0,1,0,7.1,5.652,5.652,0,0,1-7.61,0l-25.048-23.381a4.8,4.8,0,0,1,0-7.11,5.654,5.654,0,0,1,7.607,0Z" transform="translate(-310.706 -524.687)" fill="none" stroke="#284356" stroke-linecap="round" stroke-linejoin="round" stroke-width="3.842"/>
      <line id="Line_296" data-name="Line 296" x1="556" transform="translate(0 297)" fill="#737987" stroke="#284356" stroke-linecap="round" stroke-linejoin="round" stroke-width="3.842"/>
      <g id="Group_2878" data-name="Group 2878" transform="translate(19.851 125.166)">
        <g id="Group_2877" data-name="Group 2877">
          <path id="Rectangle_1239" data-name="Rectangle 1239" d="M3.044,0h107.4a3.042,3.042,0,0,1,3.042,3.042V102.9a3.046,3.046,0,0,1-3.046,3.046H3.044A3.044,3.044,0,0,1,0,102.9V3.044A3.044,3.044,0,0,1,3.044,0Z" transform="translate(2.671 2.494)" fill="#f05e2f"/>
          <path id="Path_11818" data-name="Path 11818" d="M511.06,646.365a1.516,1.516,0,0,1,1.565,1.461v98.038a1.513,1.513,0,0,1-1.565,1.458H406.046a1.508,1.508,0,0,1-1.561-1.458V647.826a1.511,1.511,0,0,1,1.561-1.461H511.06m0-4.989H406.046a6.7,6.7,0,0,0-6.9,6.45v98.038a6.7,6.7,0,0,0,6.9,6.448H511.06a6.7,6.7,0,0,0,6.909-6.448V647.826a6.7,6.7,0,0,0-6.909-6.45Z" transform="translate(-399.143 -641.376)" fill="#284356"/>
        </g>
      </g>
      <g id="Group_2880" data-name="Group 2880" transform="translate(317.563 130.029)" opacity="0.3">
        <g id="Group_2879" data-name="Group 2879" opacity="0.21" style="mix-blend-mode: multiply;isolation: isolate">
          <path id="Path_11819" data-name="Path 11819" d="M809.487,709.388h-1.338a6.8,6.8,0,0,1-6.913-5.8l-3.306-29.051a5.971,5.971,0,0,1,6.186-6.424,5.175,5.175,0,0,0,5.294-6.281l-1.349-5.216c-1.732-6.728-8.215-11.492-15.63-11.492h-3.548a6.09,6.09,0,0,0-.606,3.354l3.365,44.837a4.515,4.515,0,0,1-4.728,4.661c-5.208-.026-11.669-.113-11.669-.113-12.512,0-25-2.369-37.449-1.208-24.354,2.271-44.074,19.206-48.9,41.211-2.041,9.312-9.251,17.7-19.435,17.7H615.205a56.837,56.837,0,0,1-1.691,9.49c-.568,2.1-.658,4.92,1.661,4.92h76.869c9.076,0,15.5-7.48,17.322-15.779,4.3-19.607,21.876-34.7,43.579-36.727,11.091-1.032,22.219,1.078,33.371,1.078h23.172A4.587,4.587,0,1,0,809.487,709.388Z" transform="translate(-613.176 -645.121)"/>
        </g>
      </g>
      <g id="Group_2882" data-name="Group 2882" transform="translate(32.296 156.108)" opacity="0.3" style="mix-blend-mode: multiply;isolation: isolate">
        <g id="Group_2881" data-name="Group 2881" opacity="0.3">
          <path id="Path_11820" data-name="Path 11820" d="M516.528,665.2c.017.866.01,78.487.01,79.353,0,2.856-2.4,4.217-4.711,4.108-.7.062-102.615.114-103.737-.022a4.887,4.887,0,0,0,5.173,4.079c.933,0,101.991.03,102.92-.051,2.313.109,4.714-1.253,4.714-4.106V669.325C520.9,666.6,518.724,665.237,516.528,665.2Z" transform="translate(-408.09 -665.203)"/>
        </g>
      </g>
      <g id="Group_2883" data-name="Group 2883" transform="translate(151.622 73.739)" opacity="0.3" style="mix-blend-mode: multiply;isolation: isolate">
        <path id="Path_11821" data-name="Path 11821" d="M493.878,602.243A5.872,5.872,0,0,1,497.93,608v157.4a6.29,6.29,0,0,1-4.053,5.762,7.111,7.111,0,0,0,2.687.527,6.529,6.529,0,0,0,6.748-6.289V608C503.312,602.7,497.851,600.795,493.878,602.243Z" transform="translate(-493.877 -601.774)" opacity="0.3"/>
      </g>
      <g id="Group_2884" data-name="Group 2884" transform="translate(280.808 81.925)">
        <path id="Path_11822" data-name="Path 11822" d="M607.64,636.39a33.273,33.273,0,0,1-14.474,4.441c-2.584.056-6.442-4.976-6.414-6.2.036-1.56,10.709-4.531,10.215-7.472,1.326-.826,3.146-.4,6.382,1.178s30.251-5.27,30.251-5.27l1.673,10.211C607.943,635.579,608.405,636.3,607.64,636.39Z" transform="translate(-586.752 -603.601)" fill="#f4cfb3" stroke="#284356" stroke-linecap="round" stroke-linejoin="round" stroke-width="1.5"/>
        <path id="Path_11823" data-name="Path 11823" d="M619.419,627c3.765-2.021,2.191-4.026,7.589-13.3,3.505-6.021,8.611-6.647,12.062-4.509,1.657,1.03,4.124,4.8,1.031,10.345,0,0-6.809,13.76-14.49,17.561a12.3,12.3,0,0,1-3.6.956Z" transform="translate(-573.98 -608.078)" fill="#9ac9dd" stroke="#294356" stroke-miterlimit="10" stroke-width="1.5"/>
        <path id="Path_11824" data-name="Path 11824" d="M1.242.009,4.112.045A1.253,1.253,0,0,1,5.379,1.234l.153,11.287A1.174,1.174,0,0,1,4.3,13.677l-2.876-.037A1.249,1.249,0,0,1,.161,12.455L.008,1.165A1.175,1.175,0,0,1,1.242.009Z" transform="matrix(0.981, -0.195, 0.195, 0.981, 40.659, 18.476)" fill="#b8e5f4" stroke="#284356" stroke-width="1.5"/>
      </g>
    </g>
  </g>
</svg>
