<svg xmlns="http://www.w3.org/2000/svg" width="850.582" height="340.921" viewBox="0 0 850.582 340.921">
  <g id="Group_2740" data-name="Group 2740" transform="translate(0)">
    <rect id="Rectangle_1132" data-name="Rectangle 1132" width="4.653" height="46.095" transform="translate(127.767 173.459) rotate(180)" fill="#9fb8d6"/>
    <path id="Rectangle_1133" data-name="Rectangle 1133" d="M2.294,0H14.861a2.293,2.293,0,0,1,2.293,2.293V7.221a2.293,2.293,0,0,1-2.293,2.293H2.293A2.293,2.293,0,0,1,0,7.221V2.294A2.294,2.294,0,0,1,2.294,0Z" transform="translate(137.771 157.389) rotate(180)" fill="#33658e"/>
    <path id="Rectangle_1134" data-name="Rectangle 1134" d="M8.526,0H38.242a8.525,8.525,0,0,1,8.525,8.525V54.249a8.526,8.526,0,0,1-8.526,8.526H8.525A8.525,8.525,0,0,1,0,54.25V8.526A8.526,8.526,0,0,1,8.526,0Z" transform="translate(291.972 243.605)" fill="#33658e"/>
    <path id="Rectangle_1135" data-name="Rectangle 1135" d="M6.395,0H61.239a6.4,6.4,0,0,1,6.4,6.4v29.06A6.394,6.394,0,0,1,61.24,41.85H6.394A6.394,6.394,0,0,1,0,35.456V6.395A6.395,6.395,0,0,1,6.395,0Z" transform="translate(441.63 259.299)" fill="#d8a971"/>
    <path id="Path_11493" data-name="Path 11493" d="M2098.747,1769.254h0c1.748-6.356,5.242-10.508,9.147-10.871l40.272-3.735c4.98-.462,9.491,5.308,10.933,13.983l.622,3.734c2.105,12.656-3.106,25.417-10.38,25.417h-40.894C2100.385,1797.781,2095.141,1782.361,2098.747,1769.254Z" transform="translate(-1784.53 -1492.054)" fill="#a8d2ee"/>
    <path id="Path_11494" data-name="Path 11494" d="M2522.752,1791.015v-25.5c0-7.583,3.382-13.732,7.555-13.732h12.952c3.775,0,6.834,5.563,6.834,12.425v26.811Z" transform="translate(-1994.42 -1491.827)" fill="#a55a46"/>
    <path id="Path_11495" data-name="Path 11495" d="M2585.987,1787.386v-49.8c0-8.252,2.9-14.941,6.475-14.941h17.268c3.577,0,6.476,6.689,6.476,14.941v51.457Z" transform="translate(-2025.638 -1489.507)" fill="#7aa4c1"/>
    <path id="Path_11496" data-name="Path 11496" d="M2249.914,1797.662v-49.8c0-8.251,2.9-14.94,6.476-14.94h17.268c3.576,0,6.475,6.689,6.475,14.94v51.458Z" transform="translate(-1859.729 -1490.325)" fill="#aab1cc"/>
    <path id="Path_11497" data-name="Path 11497" d="M1815.27,1604.266h1.4V1589.6l-19.933-3.93-43.116-.007v16.492h1.4V1588.2h41.645l18.613,3.674Z" transform="translate(-1614.722 -1478.593)" fill="#778fb1"/>
    <rect id="Rectangle_1136" data-name="Rectangle 1136" width="1.396" height="12.263" transform="translate(194.964 112.142)" fill="#778fb1"/>
    <rect id="Rectangle_1137" data-name="Rectangle 1137" width="1.396" height="15.224" transform="translate(188.45 110.026)" fill="#778fb1"/>
    <rect id="Rectangle_1138" data-name="Rectangle 1138" width="1.395" height="17.341" transform="translate(182.168 108.757)" fill="#778fb1"/>
    <rect id="Rectangle_1139" data-name="Rectangle 1139" width="1.396" height="17.341" transform="translate(168.209 108.757)" fill="#778fb1"/>
    <rect id="Rectangle_1140" data-name="Rectangle 1140" width="1.396" height="17.341" transform="translate(175.188 108.757)" fill="#778fb1"/>
    <rect id="Rectangle_1141" data-name="Rectangle 1141" width="1.395" height="17.341" transform="translate(154.25 108.757)" fill="#778fb1"/>
    <rect id="Rectangle_1142" data-name="Rectangle 1142" width="1.396" height="17.341" transform="translate(161.229 108.757)" fill="#778fb1"/>
    <rect id="Rectangle_1143" data-name="Rectangle 1143" width="1.396" height="17.341" transform="translate(145.874 108.757)" fill="#778fb1"/>
    <path id="Path_11498" data-name="Path 11498" d="M1572.882,1682.727l.021,1.9v18.4h1.047v-18.4h11.342v18.4h1.047v-18.4h11.342v18.4h1.047v-18.4h11.342v18.4h1.047v-18.4h11.342v18.4h1.047v-18.4h11.342v18.4h1.046v-18.4h8.9v-1.9Z" transform="translate(-1525.499 -1486.326)" fill="#7aa4c1"/>
    <rect id="Rectangle_1144" data-name="Rectangle 1144" width="1.396" height="41.02" transform="translate(702.963 243.658)" fill="#778fb1"/>
    <rect id="Rectangle_1145" data-name="Rectangle 1145" width="1.396" height="36.368" transform="translate(690.4 244.926)" fill="#778fb1"/>
    <rect id="Rectangle_1146" data-name="Rectangle 1146" width="1.395" height="37.637" transform="translate(676.441 244.503)" fill="#778fb1"/>
    <rect id="Rectangle_1147" data-name="Rectangle 1147" width="1.396" height="41.865" transform="translate(662.482 244.081)" fill="#778fb1"/>
    <rect id="Rectangle_1148" data-name="Rectangle 1148" width="1.395" height="38.059" transform="translate(648.523 245.35)" fill="#778fb1"/>
    <path id="Path_11602" data-name="Path 11602" d="M.013.712,69.128-.049l-.015,2.537L0,3.249Z" transform="translate(648.49 243.37) rotate(-0.772)" fill="#778fb1"/>
    <path id="Path_11499" data-name="Path 11499" d="M2171.539,1806.435h-1.4v-29.227l1.4-.081Z" transform="translate(-1820.349 -1493.847)" fill="#778fb1"/>
    <path id="Path_11500" data-name="Path 11500" d="M2143.971,1803.12h-1.4v-25.038l1.4-.081Z" transform="translate(-1806.738 -1493.917)" fill="#778fb1"/>
    <path id="Path_11501" data-name="Path 11501" d="M2116.4,1804.037H2115v-25.081l1.4-.08Z" transform="translate(-1793.128 -1493.986)" fill="#778fb1"/>
    <path id="Path_11502" data-name="Path 11502" d="M2088.832,1807.913h-1.4v-28.084l1.4-.079Z" transform="translate(-1779.518 -1494.056)" fill="#778fb1"/>
    <path id="Path_11503" data-name="Path 11503" d="M2061.261,1805.445h-1.4V1780.7l1.4-.081Z" transform="translate(-1765.908 -1494.125)" fill="#778fb1"/>
    <path id="Path_11504" data-name="Path 11504" d="M2033.693,1809.32h-1.4v-27.743l1.4-.08Z" transform="translate(-1752.298 -1494.195)" fill="#778fb1"/>
    <path id="Path_11505" data-name="Path 11505" d="M2006.123,1815.31h-1.4v-32.86l1.4-.08Z" transform="translate(-1738.687 -1494.265)" fill="#778fb1"/>
    <path id="Path_11506" data-name="Path 11506" d="M1978.554,1814.111h-1.4v-30.786l1.4-.081Z" transform="translate(-1725.078 -1494.334)" fill="#778fb1"/>
    <path id="Path_11507" data-name="Path 11507" d="M1950.985,1811.643h-1.4V1784.2l1.4-.08Z" transform="translate(-1711.468 -1494.404)" fill="#778fb1"/>
    <rect id="Rectangle_1150" data-name="Rectangle 1150" width="1.396" height="5.499" transform="translate(475.428 307.09)" fill="#ff8563"/>
    <path id="Path_11508" data-name="Path 11508" d="M2392.094,1802.494h-1.4v-32.276l1.4-.079Z" transform="translate(-1929.229 -1493.29)" fill="#778fb1"/>
    <path id="Path_11509" data-name="Path 11509" d="M2364.525,1803.41h-1.4v-32.318l1.4-.081Z" transform="translate(-1915.619 -1493.36)" fill="#778fb1"/>
    <path id="Path_11510" data-name="Path 11510" d="M2336.956,1807.286h-1.4v-35.32l1.4-.081Z" transform="translate(-1902.01 -1493.429)" fill="#778fb1"/>
    <path id="Path_11511" data-name="Path 11511" d="M2309.387,1804.819h-1.4v-31.978l1.4-.081Z" transform="translate(-1888.399 -1493.499)" fill="#778fb1"/>
    <path id="Path_11512" data-name="Path 11512" d="M2281.817,1808.694h-1.4v-34.98l1.4-.081Z" transform="translate(-1874.789 -1493.569)" fill="#778fb1"/>
    <path id="Path_11513" data-name="Path 11513" d="M2254.248,1814.684h-1.4v-40.1l1.4-.08Z" transform="translate(-1861.179 -1493.638)" fill="#778fb1"/>
    <path id="Path_11514" data-name="Path 11514" d="M2226.678,1813.484h-1.4v-38.023l1.4-.081Z" transform="translate(-1847.569 -1493.708)" fill="#778fb1"/>
    <path id="Path_11515" data-name="Path 11515" d="M2199.109,1811.017h-1.4v-34.682l1.4-.081Z" transform="translate(-1833.959 -1493.777)" fill="#778fb1"/>
    <path id="Path_11516" data-name="Path 11516" d="M2640.219,1795.1h-1.4v-32.748l1.4-.08Z" transform="translate(-2051.721 -1492.664)" fill="#778fb1"/>
    <path id="Path_11517" data-name="Path 11517" d="M2612.649,1791.788h-1.4v-28.561l1.4-.079Z" transform="translate(-2038.111 -1492.733)" fill="#778fb1"/>
    <path id="Path_11518" data-name="Path 11518" d="M2585.08,1792.7h-1.4v-28.6l1.4-.08Z" transform="translate(-2024.501 -1492.803)" fill="#778fb1"/>
    <path id="Path_11519" data-name="Path 11519" d="M2557.51,1796.581h-1.4v-31.606l1.4-.08Z" transform="translate(-2010.891 -1492.872)" fill="#778fb1"/>
    <path id="Path_11520" data-name="Path 11520" d="M2529.941,1794.113h-1.4V1765.85l1.4-.081Z" transform="translate(-1997.28 -1492.942)" fill="#778fb1"/>
    <path id="Path_11521" data-name="Path 11521" d="M2502.372,1797.988h-1.4v-31.264l1.4-.081Z" transform="translate(-1983.67 -1493.011)" fill="#778fb1"/>
    <path id="Path_11522" data-name="Path 11522" d="M2474.8,1803.976h-1.4V1767.6l1.4-.081Z" transform="translate(-1970.06 -1493.081)" fill="#778fb1"/>
    <path id="Path_11523" data-name="Path 11523" d="M2447.233,1802.779h-1.4V1768.47l1.4-.08Z" transform="translate(-1956.45 -1493.151)" fill="#778fb1"/>
    <path id="Path_11524" data-name="Path 11524" d="M2419.664,1800.31h-1.4v-30.966l1.4-.081Z" transform="translate(-1942.84 -1493.22)" fill="#778fb1"/>
    <path id="Path_11525" data-name="Path 11525" d="M2722.926,1798.276h-1.4v-38.542l1.4-.081Z" transform="translate(-2092.551 -1492.455)" fill="#778fb1"/>
    <path id="Path_11526" data-name="Path 11526" d="M2695.357,1799.615h-1.4v-39.007l1.4-.081Z" transform="translate(-2078.941 -1492.524)" fill="#778fb1"/>
    <path id="Path_11527" data-name="Path 11527" d="M2667.788,1797.148h-1.4v-35.667l1.4-.081Z" transform="translate(-2065.331 -1492.594)" fill="#778fb1"/>
    <path id="Path_11528" data-name="Path 11528" d="M2599,1760.476v2.538l-12.563.725V1761.2Z" transform="translate(-2025.862 -1492.52)" fill="#778fb1"/>
    <path id="Path_11529" data-name="Path 11529" d="M2571.435,1761.35v2.54l-12.563.723v-2.539Z" transform="translate(-2012.251 -1492.59)" fill="#778fb1"/>
    <path id="Path_11530" data-name="Path 11530" d="M2654.143,1758.729v2.54l-12.563.723v-2.54Z" transform="translate(-2053.082 -1492.381)" fill="#778fb1"/>
    <path id="Path_11531" data-name="Path 11531" d="M2626.573,1759.6v2.54l-12.563.724v-2.54Z" transform="translate(-2039.471 -1492.451)" fill="#778fb1"/>
    <path id="Path_11532" data-name="Path 11532" d="M2350.88,1768.34v2.54l-12.563.723v-2.54Z" transform="translate(-1903.37 -1493.147)" fill="#778fb1"/>
    <path id="Path_11533" data-name="Path 11533" d="M2157.9,1774.456V1777l-12.563.723v-2.54Z" transform="translate(-1808.1 -1493.634)" fill="#778fb1"/>
    <path id="Path_11534" data-name="Path 11534" d="M2268.172,1770.961v2.54l-12.563.723v-2.54Z" transform="translate(-1862.54 -1493.355)" fill="#778fb1"/>
    <path id="Path_11535" data-name="Path 11535" d="M2406.019,1766.592v2.54l-12.563.724v-2.54Z" transform="translate(-1930.59 -1493.008)" fill="#778fb1"/>
    <path id="Path_11536" data-name="Path 11536" d="M2130.325,1775.33v2.54l-12.563.724v-2.54Z" transform="translate(-1794.489 -1493.704)" fill="#778fb1"/>
    <path id="Path_11537" data-name="Path 11537" d="M2102.755,1776.2v2.54l-12.563.724v-2.54Z" transform="translate(-1780.879 -1493.773)" fill="#778fb1"/>
    <path id="Path_11538" data-name="Path 11538" d="M2433.588,1765.719v2.539l-12.563.723v-2.54Z" transform="translate(-1944.201 -1492.938)" fill="#778fb1"/>
    <path id="Path_11539" data-name="Path 11539" d="M2185.464,1773.582v2.54l-12.563.724v-2.54Z" transform="translate(-1821.709 -1493.564)" fill="#778fb1"/>
    <path id="Path_11540" data-name="Path 11540" d="M2240.6,1771.835v2.539l-12.563.724v-2.54Z" transform="translate(-1848.93 -1493.425)" fill="#778fb1"/>
    <path id="Path_11541" data-name="Path 11541" d="M2295.741,1770.088v2.54l-12.563.723v-2.54Z" transform="translate(-1876.15 -1493.286)" fill="#778fb1"/>
    <path id="Path_11542" data-name="Path 11542" d="M2323.311,1769.214v2.54l-12.563.723v-2.54Z" transform="translate(-1889.761 -1493.217)" fill="#778fb1"/>
    <path id="Path_11543" data-name="Path 11543" d="M2213.033,1772.708v2.541l-12.563.723v-2.539Z" transform="translate(-1835.32 -1493.495)" fill="#778fb1"/>
    <path id="Path_11544" data-name="Path 11544" d="M2378.45,1767.466v2.539l-12.563.724v-2.539Z" transform="translate(-1916.981 -1493.077)" fill="#778fb1"/>
    <path id="Path_11545" data-name="Path 11545" d="M1992.478,1779.7v2.54l-12.563.723v-2.54Z" transform="translate(-1726.438 -1494.052)" fill="#778fb1"/>
    <path id="Path_11546" data-name="Path 11546" d="M2020.048,1778.825v2.539l-12.564.724v-2.54Z" transform="translate(-1740.049 -1493.982)" fill="#778fb1"/>
    <path id="Path_11547" data-name="Path 11547" d="M2530.255,1762.223v2.539l-12.563.724v-1.26h-1.4v1.341l-12.563.722v-2.54Z" transform="translate(-1985.031 -1492.659)" fill="#778fb1"/>
    <path id="Path_11548" data-name="Path 11548" d="M1921.977,1782.251l13.981-.8v2.539l-13.938.8Z" transform="translate(-1697.836 -1494.191)" fill="#778fb1"/>
    <path id="Path_11549" data-name="Path 11549" d="M1964.909,1780.572v2.54l-12.563.723v-2.54Z" transform="translate(-1712.829 -1494.121)" fill="#778fb1"/>
    <path id="Path_11550" data-name="Path 11550" d="M2488.727,1763.971v2.54l-12.563.723v-2.54Z" transform="translate(-1971.421 -1492.799)" fill="#778fb1"/>
    <path id="Path_11551" data-name="Path 11551" d="M2461.157,1764.844v2.54l-12.563.723v-2.539Z" transform="translate(-1957.811 -1492.868)" fill="#778fb1"/>
    <path id="Path_11552" data-name="Path 11552" d="M2075.186,1777.078v2.538l-12.564.724v-2.54Z" transform="translate(-1767.269 -1493.843)" fill="#778fb1"/>
    <path id="Path_11553" data-name="Path 11553" d="M2047.617,1777.951v2.54l-12.563.723v-2.54Z" transform="translate(-1753.659 -1493.913)" fill="#778fb1"/>
    <path id="Path_11554" data-name="Path 11554" d="M2171.539,1774.368v2.54l-1.4.081v-2.54Z" transform="translate(-1820.349 -1493.627)" fill="#778fb1"/>
    <path id="Path_11555" data-name="Path 11555" d="M2143.971,1775.242v2.54l-1.4.081v-2.54Z" transform="translate(-1806.738 -1493.697)" fill="#778fb1"/>
    <path id="Path_11556" data-name="Path 11556" d="M2116.4,1776.116v2.54l-1.4.08v-2.54Z" transform="translate(-1793.128 -1493.766)" fill="#778fb1"/>
    <path id="Path_11557" data-name="Path 11557" d="M2088.832,1776.99v2.54l-1.4.079v-2.539Z" transform="translate(-1779.518 -1493.836)" fill="#778fb1"/>
    <path id="Path_11558" data-name="Path 11558" d="M2061.261,1777.863v2.54l-1.4.081v-2.54Z" transform="translate(-1765.908 -1493.905)" fill="#778fb1"/>
    <path id="Path_11559" data-name="Path 11559" d="M2033.693,1778.737v2.54l-1.4.08v-2.539Z" transform="translate(-1752.298 -1493.975)" fill="#778fb1"/>
    <path id="Path_11560" data-name="Path 11560" d="M2006.123,1779.611v2.54l-1.4.08v-2.54Z" transform="translate(-1738.687 -1494.045)" fill="#778fb1"/>
    <path id="Path_11561" data-name="Path 11561" d="M1978.554,1780.484v2.54l-1.4.081v-2.54Z" transform="translate(-1725.078 -1494.114)" fill="#778fb1"/>
    <path id="Path_11562" data-name="Path 11562" d="M1950.985,1781.358v2.54l-1.4.08v-2.539Z" transform="translate(-1711.468 -1494.184)" fill="#778fb1"/>
    <path id="Path_11563" data-name="Path 11563" d="M2392.094,1767.379v2.54l-1.4.079v-2.539Z" transform="translate(-1929.229 -1493.07)" fill="#778fb1"/>
    <path id="Path_11564" data-name="Path 11564" d="M2364.525,1768.253v2.539l-1.4.081v-2.54Z" transform="translate(-1915.619 -1493.14)" fill="#778fb1"/>
    <path id="Path_11565" data-name="Path 11565" d="M2336.956,1769.126v2.54l-1.4.081v-2.54Z" transform="translate(-1902.01 -1493.21)" fill="#778fb1"/>
    <path id="Path_11566" data-name="Path 11566" d="M2309.387,1770v2.54l-1.4.081v-2.54Z" transform="translate(-1888.399 -1493.279)" fill="#778fb1"/>
    <path id="Path_11567" data-name="Path 11567" d="M2281.817,1770.873v2.54l-1.4.081v-2.54Z" transform="translate(-1874.789 -1493.348)" fill="#778fb1"/>
    <path id="Path_11568" data-name="Path 11568" d="M2254.248,1771.747v2.54l-1.4.08v-2.539Z" transform="translate(-1861.179 -1493.418)" fill="#778fb1"/>
    <path id="Path_11569" data-name="Path 11569" d="M2226.678,1772.621v2.54l-1.4.081V1772.7Z" transform="translate(-1847.569 -1493.488)" fill="#778fb1"/>
    <path id="Path_11570" data-name="Path 11570" d="M2199.109,1773.5v2.539l-1.4.081v-2.54Z" transform="translate(-1833.959 -1493.558)" fill="#778fb1"/>
    <path id="Path_11571" data-name="Path 11571" d="M2640.219,1759.514v2.54l-1.4.08v-2.54Z" transform="translate(-2051.721 -1492.444)" fill="#778fb1"/>
    <path id="Path_11572" data-name="Path 11572" d="M2612.649,1760.388v2.54l-1.4.079v-2.539Z" transform="translate(-2038.111 -1492.513)" fill="#778fb1"/>
    <path id="Path_11573" data-name="Path 11573" d="M2585.08,1761.262v2.541l-1.4.08v-2.54Z" transform="translate(-2024.501 -1492.583)" fill="#778fb1"/>
    <path id="Path_11574" data-name="Path 11574" d="M2557.51,1762.137v2.539l-1.4.08v-2.539Z" transform="translate(-2010.891 -1492.653)" fill="#778fb1"/>
    <path id="Path_11575" data-name="Path 11575" d="M2529.941,1764.4v1.26l-1.4.081V1764.4Z" transform="translate(-1997.28 -1492.833)" fill="#778fb1"/>
    <path id="Path_11576" data-name="Path 11576" d="M2502.372,1763.883v2.54l-1.4.08v-2.54Z" transform="translate(-1983.67 -1492.792)" fill="#778fb1"/>
    <path id="Path_11577" data-name="Path 11577" d="M2474.8,1764.757v2.54l-1.4.081v-2.54Z" transform="translate(-1970.06 -1492.861)" fill="#778fb1"/>
    <path id="Path_11578" data-name="Path 11578" d="M2447.233,1765.631v2.54l-1.4.08v-2.539Z" transform="translate(-1956.45 -1492.931)" fill="#778fb1"/>
    <path id="Path_11579" data-name="Path 11579" d="M2419.664,1766.5v2.54l-1.4.081v-2.54Z" transform="translate(-1942.84 -1493.001)" fill="#778fb1"/>
    <path id="Path_11580" data-name="Path 11580" d="M2667.788,1758.641v2.54l-1.4.081v-2.54Z" transform="translate(-2065.331 -1492.374)" fill="#778fb1"/>
    <path id="Path_11581" data-name="Path 11581" d="M2667.333,1761.507l40.132-1.041,1.5-3-42.572,1.163Z" transform="translate(-2065.331 -1492.281)" fill="#778fb1"/>
    <path id="Path_11582" data-name="Path 11582" d="M1482.978,1756.941h1.4v-19.675c16.88-.246,41.8-.449,43.108-.03l.387-2.433c-1.073-.652-34.1-.215-44.2-.064l-.693.01Z" transform="translate(-1481.116 -1490.447)" fill="#7aa4c1"/>
    <rect id="Rectangle_1151" data-name="Rectangle 1151" width="1.396" height="23.47" transform="translate(36.76 246.195)" fill="#7aa4c1"/>
    <rect id="Rectangle_1152" data-name="Rectangle 1152" width="1.396" height="23.47" transform="translate(31.176 246.195)" fill="#7aa4c1"/>
    <rect id="Rectangle_1153" data-name="Rectangle 1153" width="1.396" height="23.47" transform="translate(25.592 246.195)" fill="#7aa4c1"/>
    <rect id="Rectangle_1154" data-name="Rectangle 1154" width="1.396" height="23.47" transform="translate(20.009 246.195)" fill="#7aa4c1"/>
    <rect id="Rectangle_1155" data-name="Rectangle 1155" width="1.396" height="23.47" transform="translate(14.425 246.195)" fill="#7aa4c1"/>
    <rect id="Rectangle_1156" data-name="Rectangle 1156" width="1.396" height="23.47" transform="translate(8.841 246.195)" fill="#7aa4c1"/>
    <rect id="Rectangle_1157" data-name="Rectangle 1157" width="2.792" height="17.338" transform="translate(126.836 127.365) rotate(180)" fill="#9fb8d6"/>
    <path id="Path_11583" data-name="Path 11583" d="M2328.985,1685.554s-29.812,54.047-35.4,67.579-9.306,38.907-1.862,49.055,13.029,18.607,13.029,18.607h-808.7a102.613,102.613,0,0,1-13.959-40.6c-2.792-23.682-2.792-37.214-2.792-37.214l37.225,1.691,10.237-25.372,5.722,3.031,4.182-18.636-11.332-.735v-10.3l61.788.735s8.406-1.45,11.2-16.674.877-22.683.877-22.683,14.113.983,16.9-4.093,2.792-20.3,2.792-20.3v-20.3h-3.373v-7.612l50.322.682,15.984,3.124a20.966,20.966,0,0,1-.672,5.091,17.57,17.57,0,0,0-.724,3.789l-2.093,13.956,1.745,3.806v126.865s6.979,7.612,17.8,7.612,19.194,18.4,19.194,18.4l391.207-13.321s6.631-4.441,9.073-11.419,4.537-15.224,4.537-15.224l61.421-3.8s10.818-8.247,13.61-20.3c0,0,24.777,2.538,36.643-6.342s22.839-25.177,22.839-25.177Z" transform="translate(-1479.301 -1479.874)" fill="#ff7e78"/>
    <path id="Path_11584" data-name="Path 11584" d="M2295.326,1801.441c.117,6.757,1.328,12.8,4.153,16.657,7.445,10.149,13.029,18.607,13.029,18.607H1503.8a94.722,94.722,0,0,1-8.8-18.733Z" transform="translate(-1487.053 -1495.784)" fill="#33658e"/>
    <path id="Path_11585" data-name="Path 11585" d="M3047.572,1715.358l-87.542,9.007a24.011,24.011,0,0,0,4.525-2.612c11.865-8.882,21.636-26.008,21.636-26.008l74.682-4.863A231.848,231.848,0,0,1,3047.572,1715.358Z" transform="translate(-2210.291 -1486.976)" fill="#e8e4d6"/>
    <path id="Path_11586" data-name="Path 11586" d="M1718.121,1605.548l-16.053-3.806h-50.253v7.612h3.373v20.3s0,15.223-2.792,20.3c-2.053,3.733-11.154,2.89-15.825,2.183-1.244-.188-2.251,1.856-1.981,4.071a69.74,69.74,0,0,1-.806,20.812c-2.792,15.223-10.237,15.223-10.237,15.223H1561.2v11.841h11.167l-3.723,16.915-5.583-1.692-10.237,25.374,163.556,1.661V1632.189l-1.745-3.806,2.879-16.491a8.809,8.809,0,0,0,1.4-2.7A6.419,6.419,0,0,0,1718.121,1605.548Z" transform="translate(-1515.595 -1479.874)" fill="#cdc5bb"/>
    <path id="Path_11587" data-name="Path 11587" d="M1833.544,1715.236h-38.073c-1.457,0-2.769,1.6-3.323,4.049l-2.4,10.644c-.194.86.152,1.8.663,1.809l42.9.413Z" transform="translate(-1632.531 -1488.916)" fill="#33658e"/>
    <path id="Path_11588" data-name="Path 11588" d="M1754.677,1716.991l-3.111,13.076c-.113.473-.369.78-.653.78h-28.448c-.515,0-.86-.966-.649-1.822l3.317-13.476c.115-.469.373-.77.656-.766l28.241.4C1754.54,1715.192,1754.88,1716.141,1754.677,1716.991Z" transform="translate(-1598.993 -1488.88)" fill="#33658e"/>
    <path id="Path_11589" data-name="Path 11589" d="M1688.511,1716.991l-3.111,13.076c-.112.473-.369.78-.653.78H1656.3c-.516,0-.86-.966-.65-1.822l3.317-13.476c.116-.469.372-.77.655-.766l28.241.4C1688.373,1715.192,1688.713,1716.141,1688.511,1716.991Z" transform="translate(-1566.328 -1488.88)" fill="#254461"/>
    <path id="Path_11590" data-name="Path 11590" d="M1622.344,1716.991l-3.111,13.076c-.113.473-.369.78-.653.78h-28.447c-.516,0-.86-.966-.649-1.822l3.317-13.476c.115-.469.373-.77.655-.766l28.242.4C1622.206,1715.192,1622.547,1716.141,1622.344,1716.991Z" transform="translate(-1533.664 -1488.88)" fill="#254461"/>
    <path id="Path_11591" data-name="Path 11591" d="M1823.918,1758.34c0,7.24,3.229,13.109,7.212,13.109s7.213-5.869,7.213-13.109-3.229-13.11-7.213-13.11S1823.918,1751.1,1823.918,1758.34Zm4.42,0c0-2.8,1.25-5.075,2.792-5.075s2.792,2.272,2.792,5.075-1.25,5.074-2.792,5.074S1828.338,1761.142,1828.338,1758.34Z" transform="translate(-1649.428 -1491.306)" fill="#38495a"/>
    <path id="Path_11592" data-name="Path 11592" d="M2755.3,1761.429c0,7.239,3.229,13.108,7.212,13.108s7.212-5.869,7.212-13.108-3.229-13.111-7.212-13.111S2755.3,1754.188,2755.3,1761.429Zm4.421,0c0-2.8,1.25-5.075,2.792-5.075s2.791,2.272,2.791,5.075-1.25,5.074-2.791,5.074S2759.724,1764.231,2759.724,1761.429Z" transform="translate(-2109.224 -1491.552)" fill="#254461"/>
    <path id="Path_11593" data-name="Path 11593" d="M1680.558,1758.34c0,7.24,3.229,13.109,7.212,13.109s7.212-5.869,7.212-13.109-3.229-13.11-7.212-13.11S1680.558,1751.1,1680.558,1758.34Zm4.42,0c0-2.8,1.25-5.075,2.792-5.075s2.792,2.272,2.792,5.075-1.25,5.074-2.792,5.074S1684.978,1761.142,1684.978,1758.34Z" transform="translate(-1578.656 -1491.306)" fill="#38495a"/>
    <path id="Path_11594" data-name="Path 11594" d="M1585.443,1758.34c0,7.24,3.229,13.109,7.213,13.109s7.212-5.869,7.212-13.109-3.229-13.11-7.212-13.11S1585.443,1751.1,1585.443,1758.34Zm4.421,0c0-2.8,1.25-5.075,2.792-5.075s2.791,2.272,2.791,5.075-1.249,5.074-2.791,5.074S1589.864,1761.142,1589.864,1758.34Z" transform="translate(-1531.7 -1491.306)" fill="#38495a"/>
    <path id="Path_11595" data-name="Path 11595" d="M1761.887,1650.231c0,7.241,3.229,13.11,7.213,13.11s7.212-5.869,7.212-13.11-3.229-13.108-7.212-13.108S1761.887,1642.992,1761.887,1650.231Zm4.42,0c0-2.8,1.25-5.074,2.792-5.074s2.792,2.271,2.792,5.074-1.25,5.076-2.792,5.076S1766.307,1653.035,1766.307,1650.231Z" transform="translate(-1618.805 -1482.693)" fill="#38495a"/>
    <path id="Path_11596" data-name="Path 11596" d="M1761.543,1650.2c0-7.4,3.314-13.427,7.388-13.427s7.385,6.024,7.385,13.427-3.314,13.427-7.385,13.427S1761.543,1657.608,1761.543,1650.2Zm.349,0c0,7.055,3.158,12.794,7.039,12.794s7.036-5.739,7.036-12.794-3.157-12.793-7.036-12.793S1761.892,1643.15,1761.892,1650.2Zm4.072,0c0-2.972,1.33-5.391,2.967-5.391s2.966,2.419,2.966,5.391-1.33,5.393-2.966,5.393S1765.963,1653.178,1765.963,1650.2Zm.349,0c0,2.625,1.174,4.757,2.618,4.757s2.616-2.132,2.616-4.757-1.174-4.757-2.616-4.757S1766.313,1647.581,1766.313,1650.2Z" transform="translate(-1618.635 -1482.665)" fill="#38495a"/>
    <path id="Rectangle_1158" data-name="Rectangle 1158" d="M1.378,0H11.884a1.378,1.378,0,0,1,1.378,1.378v9.93a1.378,1.378,0,0,1-1.378,1.378H1.379A1.379,1.379,0,0,1,0,11.307V1.378A1.378,1.378,0,0,1,1.378,0Z" transform="translate(174.258 170.499) rotate(180)" fill="#f78a81"/>
    <rect id="Rectangle_1159" data-name="Rectangle 1159" width="6.98" height="13.955" transform="translate(150.062 145.972) rotate(180)" fill="#fff"/>
    <rect id="Rectangle_1160" data-name="Rectangle 1160" width="6.979" height="13.955" transform="translate(158.437 145.972) rotate(180)" fill="#fff"/>
    <rect id="Rectangle_1161" data-name="Rectangle 1161" width="5.583" height="7.189" transform="translate(167.046 140.897) rotate(180)" fill="#fff"/>
    <rect id="Rectangle_1162" data-name="Rectangle 1162" width="5.817" height="14.378" transform="translate(176.817 145.126) rotate(180)" fill="#fff"/>
    <rect id="Rectangle_1163" data-name="Rectangle 1163" width="1.629" height="11.418" transform="translate(191.242 192.489) rotate(180)" fill="#254461"/>
    <rect id="Rectangle_1164" data-name="Rectangle 1164" width="1.629" height="11.418" transform="translate(195.081 194.392) rotate(180)" fill="#7aa4c1"/>
    <path id="Path_11597" data-name="Path 11597" d="M1866.055,1615.526h2.356l-2.528,13.639h-2.441Z" transform="translate(-1668.939 -1480.972)" fill="#33658e"/>
    <path id="Path_11598" data-name="Path 11598" d="M1857.949,1615.526h2.53l-2.473,13.639h-2.5Z" transform="translate(-1665.021 -1480.972)" fill="#33658e"/>
    <path id="Path_11599" data-name="Path 11599" d="M1849.942,1615.685l2.443-.159-2.528,13.639h-2.443Z" transform="translate(-1661.027 -1480.972)" fill="#33658e"/>
    <path id="Path_11600" data-name="Path 11600" d="M1803.854,1609.678l-3.49,18.7h-40.83V1609.82Z" transform="translate(-1617.643 -1480.506)" fill="#254461"/>
    <rect id="Rectangle_1165" data-name="Rectangle 1165" width="11.167" height="9.304" rx="1.33" transform="translate(131.024 117.216) rotate(180)" fill="#f78a81"/>
    <path id="Path_11601" data-name="Path 11601" d="M1750.063,1550.174h-17.8V1493.21h6.046c.629,0,1.138-.926,1.138-2.069s-.51-2.071-1.138-2.071H1731.5V1473.6h5.941c.651,0,1.177-.957,1.177-2.139s-.526-2.137-1.177-2.137H1721.7c-.649,0-1.176.957-1.176,2.137s.527,2.139,1.176,2.139h8.242v15.47h-11.368c-.629,0-1.139.928-1.139,2.071s.509,2.069,1.139,2.069h10.9v150h2.792v-88.382h17.8c.707,0,1.279-1.041,1.279-2.326S1750.77,1550.174,1750.063,1550.174Z" transform="translate(-1596.86 -1469.325)" fill="#9fb8d6"/>
  </g>
</svg>
