<svg xmlns="http://www.w3.org/2000/svg" width="711.001" height="246.818" viewBox="0 0 711.001 246.818">
  <g id="Group_2746" data-name="Group 2746" transform="translate(-249.526 -1135.985)">
    <path id="Path_11603" data-name="Path 11603" d="M734.912,1251.041c-.346-.511-34.778-51.161-44.226-63.621-8.457-11.153-17.447-5.221-17.826-4.965L671,1179.4c.118-.084,11.916-8.033,22.353,5.728,9.505,12.537,43.989,63.264,44.337,63.776Z" transform="translate(-37.105 -1.176)" fill="#33658e"/>
    <path id="Path_11604" data-name="Path 11604" d="M938.016,1263.05c0-.026-.506-3.43-3.563-12.268a11.783,11.783,0,0,0-10.726-8.047l-192.681-4.864.08-3.644,192.647,4.862h0a15.165,15.165,0,0,1,13.889,10.432c3.222,9.312,3.721,12.867,3.741,13.013Z" transform="translate(-42.392 -2.814)" fill="#33658e"/>
    <rect id="Rectangle_1166" data-name="Rectangle 1166" width="3.424" height="17.018" transform="translate(826.218 1237.126)" fill="#33658e"/>
    <rect id="Rectangle_1167" data-name="Rectangle 1167" width="3.424" height="17.504" transform="translate(761.85 1234.694)" fill="#33658e"/>
    <path id="Path_11605" data-name="Path 11605" d="M591.9,1138.173c1.826,0,41.771-2.188,41.771-2.188l20.295,37.624-94.934,8.084Z" transform="translate(-27.248)" fill="#eae7e2"/>
    <path id="Path_11606" data-name="Path 11606" d="M623.255,1140.478l10.043-.486,18.729,33.958-51.694,1.535Z" transform="translate(-30.884 -0.115)" fill="#7f898e"/>
    <path id="Path_11607" data-name="Path 11607" d="M595.216,1142.451l19.174-1.459-23.835,37.44-23.51,3.4Z" transform="translate(-27.954 -0.144)" fill="#aab1cc"/>
    <path id="Path_11608" data-name="Path 11608" d="M519.885,1189.11c-.11-.319-2.667-7.9.745-14.153,2.081-3.812,5.849-6.224,11.2-7.172,16.06-2.846,72.128-6.729,74.507-6.892l1.456-.1,4.48,20.985-3.339.808-3.832-17.952c-9.109.643-58.24,4.185-72.71,6.747-4.288.762-7.246,2.574-8.792,5.391-2.608,4.752-.522,11.021-.5,11.083Z" transform="translate(-23.712 -0.711)" fill="#33658e"/>
    <rect id="Rectangle_1168" data-name="Rectangle 1168" width="2.739" height="18.744" transform="translate(543.068 1164.675)" fill="#33658e"/>
    <rect id="Rectangle_1169" data-name="Rectangle 1169" width="2.739" height="16.582" transform="translate(512.938 1169)" fill="#33658e"/>
    <path id="Path_11609" data-name="Path 11609" d="M442.524,1259.285c-.088-.121-8.9-12.17-17.936-18.855-8.876-6.567-42.956-13.172-63.7-16.011-31.16-4.26-60.631-7.863-78.774-5.189a5.556,5.556,0,0,0-4.415,2.828c-2.729,5.016.857,15.516,2.469,19.137l-2.638,1.2c-.261-.586-6.344-14.417-2.367-21.736a8.381,8.381,0,0,1,6.533-4.313c18.515-2.732,48.209.895,79.581,5.187,18.1,2.475,54.982,9.121,65.021,16.548,9.4,6.953,18.187,18.973,18.557,19.481Z" transform="translate(-2.139 -2.275)" fill="#aab1cc"/>
    <path id="Path_11610" data-name="Path 11610" d="M314,1250.552s46.219,44.853,64.706,75.485,61.626,56.888,90.385,59.075,477.6,0,477.6,0,18.488-35.008,19.515-44.853l-19.515-50.323-344.077-9.847L588.232,1260.4Z" transform="translate(-5.676 -3.282)" fill="#0b5989"/>
    <path id="Path_11611" data-name="Path 11611" d="M946.688,1289.936l-344.077-9.847L588.232,1260.4,314,1250.552s3.025,2.936,7.831,7.813l263.841,9.326,14.605,19.693,349.24,9.839Z" transform="translate(-5.676 -3.282)" fill="#192e41"/>
    <path id="Path_11612" data-name="Path 11612" d="M946.688,1287.723l-344.077-9.847-14.379-19.691L314,1248.339l2.46-11.062,96.14,4.5,74.978-51.418s44.53-14.1,110.83-16.835a207.875,207.875,0,0,1,31.371.828,23.42,23.42,0,0,1,16.6,10.1l43.533,62.792s237.259,6.563,241.368,9.845Z" transform="translate(-5.676 -1.069)" fill="#cdc5bb"/>
    <path id="Path_11613" data-name="Path 11613" d="M513.344,1227.4l32.235-29.285,98.2-5.049,17.47,32.66-24.664,18.842-114.069-7.537Z" transform="translate(-23.226 -1.635)" fill="#7f898e"/>
    <path id="Path_11614" data-name="Path 11614" d="M521.886,1227.52l26.341-24.184,91.86-4.429,14.538,24.91-18.962,14.812-108.088-5.723Z" transform="translate(-23.978 -1.802)" fill="#33658e"/>
    <path id="Path_11615" data-name="Path 11615" d="M307.276,1250.05l-53.9-4.8a4.413,4.413,0,0,1-3.828-4.958h0a4.3,4.3,0,0,1,4.378-3.979l57.983,2.936c4.456.226,5.558,6.714,1.46,8.589l-4.087,1.87A3.953,3.953,0,0,1,307.276,1250.05Z" transform="translate(0 -2.874)" fill="#cdc5bb"/>
    <path id="Path_11616" data-name="Path 11616" d="M448.343,1250.2l91.79-69.164s-15.75,2.431-24.423,4.377c-4.654,1.043-18.615,5.166-18.615,5.166L422.117,1242l18.548,8.98A7.351,7.351,0,0,0,448.343,1250.2Z" transform="translate(-15.195 -1.29)" fill="#eae7e2"/>
    <path id="Path_11617" data-name="Path 11617" d="M455.722,1254.644c-.093-.151-7.262-12.087-17.873-19.149-14.56-9.693-51.135-16.108-71.641-19.071-39.756-5.742-70.358-7.866-88.5-6.135a4.535,4.535,0,0,0-3.657,2.25c-3.37,5.482-.128,19.375,1.406,24.264l-2.607.079c-.243-.773-5.869-18.166-1.091-25.941a7.194,7.194,0,0,1,5.7-3.559c23.167-2.208,61.246,2.127,89.109,6.152,25.314,3.655,58.48,10,72.725,19.486,11.126,7.408,19.656,21.12,20.049,21.758Z" transform="translate(-1.789 -2.028)" fill="#7f898e"/>
    <g id="Group_2742" data-name="Group 2742" transform="translate(308.322 1247.27)">
      <path id="Path_11618" data-name="Path 11618" d="M366.956,1308.723s40.8,20.185,103.161,29.348c21.158,3.109,58.528,6.342,101.857,9.37a380.141,380.141,0,0,0-53.584-35.626C442.384,1270.243,314,1250.552,314,1250.552s46.219,44.853,64.706,75.485,61.626,56.888,90.385,59.075c9.962.758,70.336.992,145,.971a391.847,391.847,0,0,0-31.6-30.011c-54.674-3.921-101.953-8.012-121.612-11.437C404.382,1334.789,366.956,1308.723,366.956,1308.723Z" transform="translate(-313.998 -1250.552)" fill="#254461"/>
      <path id="Path_11619" data-name="Path 11619" d="M865.576,1360.232c-37.946-.763-168.99-2.969-268.7-9.934q5.485,4.348,10.51,8.631c102.429,7.345,224.964,9.844,252.459,9.844,32.883,0,122.093-1.681,122.093-1.681l3.056-6.78S914.867,1361.223,865.576,1360.232Z" transform="translate(-338.902 -1253.409)" fill="#ff7e78"/>
      <path id="Path_11620" data-name="Path 11620" d="M475.229,1339.787c-62.365-9.164-103.161-29.349-103.161-29.349s37.426,26.066,93.917,35.912c19.659,3.426,66.938,7.516,121.612,11.438q-5.029-4.275-10.51-8.632C533.757,1346.129,496.388,1342.9,475.229,1339.787Z" transform="translate(-319.11 -1252.267)" fill="#ef3f3f"/>
    </g>
    <g id="Group_2743" data-name="Group 2743" transform="translate(533.366 1199.43)">
      <path id="Path_11621" data-name="Path 11621" d="M560.767,1234.551l26.729,1.415c2.215-9.589,5.554-24.208,7.765-34.665l-18.127.874Z" transform="translate(-560.767 -1201.301)" fill="#254461"/>
    </g>
    <g id="Group_2744" data-name="Group 2744" transform="translate(585.198 1197.819)">
      <path id="Path_11622" data-name="Path 11622" d="M633.7,1199.642l-16.1.775v36.829l26.485,1.4.039-.03C641.693,1229.469,637.038,1212.01,633.7,1199.642Z" transform="translate(-617.603 -1199.642)" fill="#254461"/>
    </g>
    <g id="Group_2745" data-name="Group 2745" transform="translate(497.908 1201.103)">
      <path id="Path_11623" data-name="Path 11623" d="M557.151,1203.023l-8.924.43-26.341,24.184,5.655,5.354Z" transform="translate(-521.886 -1203.023)" fill="#254461"/>
    </g>
    <path id="Path_11624" data-name="Path 11624" d="M627.911,1288.47l349.24,9.839,9.051,23.08-344.733-10.518Z" transform="translate(-33.312 -4.368)" fill="#ff6c6c"/>
    <path id="Path_11625" data-name="Path 11625" d="M586.011,1275.458c-10.125,0-18.331,8.741-18.331,19.525s8.207,19.524,18.331,19.524,18.331-8.741,18.331-19.524S596.135,1275.458,586.011,1275.458Zm0,30.1c-5.484,0-9.929-4.734-9.929-10.575s4.445-10.576,9.929-10.576,9.929,4.734,9.929,10.576S591.495,1305.558,586.011,1305.558Z" transform="translate(-28.01 -3.995)" fill="#192e41"/>
    <path id="Path_11626" data-name="Path 11626" d="M726.831,1340.556l-26.277-.493a4.1,4.1,0,0,1-3.872-4.272h0a4.078,4.078,0,0,1,4.011-4.124l26.277.494a4.1,4.1,0,0,1,3.872,4.272h0A4.078,4.078,0,0,1,726.831,1340.556Z" transform="translate(-39.367 -5.605)" fill="#192e41"/>
    <path id="Path_11627" data-name="Path 11627" d="M784.459,1341.572l-26.277-.493a4.1,4.1,0,0,1-3.872-4.272h0a4.078,4.078,0,0,1,4.011-4.124l26.277.493a4.1,4.1,0,0,1,3.873,4.272h0A4.079,4.079,0,0,1,784.459,1341.572Z" transform="translate(-44.44 -5.634)" fill="#192e41"/>
    <path id="Path_11628" data-name="Path 11628" d="M842.087,1342.588l-26.276-.493a4.1,4.1,0,0,1-3.873-4.273h0a4.078,4.078,0,0,1,4.012-4.125l26.277.494a4.1,4.1,0,0,1,3.871,4.272h0A4.077,4.077,0,0,1,842.087,1342.588Z" transform="translate(-49.513 -5.663)" fill="#192e41"/>
    <path id="Path_11629" data-name="Path 11629" d="M899.716,1343.6l-26.278-.493a4.1,4.1,0,0,1-3.871-4.272h0a4.076,4.076,0,0,1,4.011-4.124l26.277.493a4.1,4.1,0,0,1,3.872,4.272h0A4.078,4.078,0,0,1,899.716,1343.6Z" transform="translate(-54.587 -5.693)" fill="#192e41"/>
    <path id="Path_11630" data-name="Path 11630" d="M957.344,1344.619l-26.277-.494a4.1,4.1,0,0,1-3.872-4.272h0a4.08,4.08,0,0,1,4.012-4.125l26.276.493a4.1,4.1,0,0,1,3.872,4.273h0A4.079,4.079,0,0,1,957.344,1344.619Z" transform="translate(-59.661 -5.722)" fill="#192e41"/>
  </g>
</svg>
