<svg xmlns="http://www.w3.org/2000/svg" xmlns:xlink="http://www.w3.org/1999/xlink" width="275.364" height="360.165" viewBox="0 0 275.364 360.165">
  <defs>
    <clipPath id="clip-path">
      <rect id="Rectangle_564" data-name="Rectangle 564" width="275.364" height="360.165" fill="none"/>
    </clipPath>
  </defs>
  <g id="Group_1093" data-name="Group 1093" clip-path="url(#clip-path)">
    <path id="Path_10130" data-name="Path 10130" d="M83.085,54.015,81.226,30.753,58.973,32.6,35.791,30.445,33.928,53.706S42.31,64.489,58.74,64.7v.017c.083,0,.154-.008.233-.008s.154.008.233.008V64.7c16.434-.208,23.878-10.682,23.878-10.682" transform="translate(107.482 96.448)" fill="#f4b073"/>
    <path id="Path_10131" data-name="Path 10131" d="M131.729,68.4c-2.613-6.535-8.378-2.43-8.378-2.438.675-4.21,7.073-46.135-12.966-57.463C99.861,2.554,85.077,2.358,79.93,2.4l-.013-.283c-1.48.071-18.1-.617-30.5,6.389C29.381,19.83,35.779,61.755,36.454,65.965c0,.008-5.764-4.1-8.378,2.438-2.263,5.66-.013,16.593,3.918,19.823,1.821,1.5,6,1.88,7.3,2.6,1.971,9.649,3.063,19.839,8.819,27.9,9.6,13.446,28,14.334,32.385,14.334,1.721.2,17.985,1.6,31.189-14.334,6.319-7.623,6.848-18.247,8.819-27.9,1.3-.721,5.481-1.1,7.3-2.6,3.93-3.23,6.181-14.163,3.918-19.823" transform="translate(86.088 6.69)" fill="#f9c38a"/>
    <path id="Path_10132" data-name="Path 10132" d="M31.685,19.279l1.263,10.245a9.034,9.034,0,0,1-4.214-6.665c-.379-2.868.634-4.706,2.951-3.58" transform="translate(90.782 60.012)" fill="#e59a5c"/>
    <path id="Path_10133" data-name="Path 10133" d="M51.295,19.279,50.032,29.524a9.023,9.023,0,0,0,4.21-6.665c.383-2.868-.629-4.706-2.947-3.58" transform="translate(158.499 60.012)" fill="#e59a5c"/>
    <path id="Path_10134" data-name="Path 10134" d="M126.14,27.388C123.964,8.436,108.976,1.963,80.613.158,79.53.092,78.458.046,77.387,0h-.042C76.274.046,75.2.092,74.12.158c-28.363,1.8-43.351,8.278-45.526,27.229-1.192,10.374-.654,25.7,1.525,44l3.8,1.263s2.222-30.451,9.195-35.1,11.833.508,32.748.508c.513,0,1-.008,1.5-.013s.992.013,1.5.013c20.911,0,25.779-5.156,32.748-.508s9.195,35.1,9.195,35.1l3.8-1.263c2.18-18.3,2.718-33.627,1.525-44" transform="translate(88.618 0)" fill="#582a1a"/>
    <path id="Path_10135" data-name="Path 10135" d="M51.885,33.273H39.79a1.861,1.861,0,1,1,0-3.722h12.1a1.861,1.861,0,0,1,0,3.722" transform="translate(120.151 93.616)" fill="#e89958"/>
    <path id="Path_10136" data-name="Path 10136" d="M35.828,91.715,19.082,42.4C14.43,75.9,25.6,93.111,25.6,93.111L21.47,206.975c4.205,1.892,8.469,3.684,12.816,5.31.333-26.141,1.542-120.57,1.542-120.57" transform="translate(56.858 134.333)" fill="#b2b2b2"/>
    <path id="Path_10137" data-name="Path 10137" d="M103.975,64.765S95.139,51.507,92.346,36.619a1.063,1.063,0,0,1,.046-.1c-4.064,1.33-14.45,4.756-25.087,8.411-6.531,2.242-13.137,4.568-18.414,6.535-3.151,1.184-5.831,2.234-7.715,3.063-11.633,5.118-22.8,10.236-23.261,26.054-.45,15.142-4.13,124.23-4.443,133.5A213.667,213.667,0,0,0,35.65,225.619L39.78,111.75S28.614,94.537,33.266,61.043l16.747,49.311S48.8,204.783,48.47,230.925c1.092.408,2.2.8,3.3,1.192a214.475,214.475,0,0,0,71.276,12.358V44.888c-6.706,7.94-19.073,19.877-19.073,19.877" transform="translate(42.679 115.69)" fill="#ccc"/>
    <path id="Path_10138" data-name="Path 10138" d="M58.851,64.765s8.832-13.258,11.624-28.146a1.071,1.071,0,0,0-.046-.1c4.064,1.33,14.45,4.756,25.091,8.411,6.527,2.242,13.133,4.568,18.41,6.535,3.155,1.184,5.831,2.234,7.715,3.063,11.633,5.118,22.8,10.236,23.261,26.054.446,15.142,4.135,124.23,4.443,133.5a213.668,213.668,0,0,1-22.178,11.541L123.045,111.75s11.162-17.214,6.514-50.707l-16.751,49.311s1.209,94.429,1.542,120.57c-1.088.408-2.2.8-3.3,1.192a214.469,214.469,0,0,1-71.272,12.358V44.888c6.7,7.94,19.073,19.877,19.073,19.877" transform="translate(126.015 115.69)" fill="#b2b2b2"/>
    <path id="Path_10139" data-name="Path 10139" d="M48.252,38.412,37.165,48.335,41.721,62.59h6.531Z" transform="translate(117.737 121.686)" fill="#e57368"/>
    <path id="Path_10140" data-name="Path 10140" d="M39.8,38.412l11.083,9.924L46.333,62.59H39.8Z" transform="translate(126.09 121.686)" fill="#e84c43"/>
    <path id="Path_10141" data-name="Path 10141" d="M70.678,41.828c-.625-2.442-6.51-6.985-6.51-6.985S57.545,43.887,39.71,49.252l-.008,0v.6l.008-.012C46.346,57.771,59.1,70.075,59.1,70.075s8.84-13.254,11.629-28.142c0-.033-.038-.071-.046-.1" transform="translate(125.774 110.38)" fill="#ccc"/>
    <path id="Path_10142" data-name="Path 10142" d="M63.226,49.108C56.2,47.011,39.369,34.87,39.369,34.87s-6.3,4.435-6.931,6.873c-.008.033-.038.075-.042.1,2.788,14.888,11.629,28.146,11.629,28.146s12.445-11.783,19.2-19.723Z" transform="translate(102.629 110.466)" fill="#e6e6e6"/>
    <path id="Path_10143" data-name="Path 10143" d="M57.3,91.715,74.048,42.4C78.7,75.9,67.533,93.111,67.533,93.111L71.66,206.975c-4.205,1.892-8.469,3.684-12.816,5.31C58.51,186.144,57.3,91.715,57.3,91.715" transform="translate(181.527 134.333)" fill="#999"/>
    <path id="Path_10144" data-name="Path 10144" d="M39.863,83.131l-.05.063.05.058Z" transform="translate(126.126 263.354)" fill="#e57368"/>
    <path id="Path_10145" data-name="Path 10145" d="M39.8,83.252l.05-.063-.05-.058Z" transform="translate(126.09 263.355)" fill="#e2421e"/>
    <path id="Path_10146" data-name="Path 10146" d="M39.9,46.08h-.1V200.5l.046.063.05-.063Z" transform="translate(126.091 145.98)" fill="#e2421e"/>
    <path id="Path_10147" data-name="Path 10147" d="M52.355,43.975l-1.238,8.778L33.745,176.019,58.99,207.175v-163l.05,0Z" transform="translate(106.902 139.309)" fill="#e84c43"/>
    <path id="Path_10148" data-name="Path 10148" d="M39.863,207.175,65.1,176.02,47.732,52.752l-1.238-8.778-6.681.2.05,0v163Z" transform="translate(126.126 139.309)" fill="#d3362d"/>
    <path id="Path_10149" data-name="Path 10149" d="M39.852,44.022H39.8V52.6h.1V44.022Z" transform="translate(126.089 139.459)" fill="#e2421e"/>
    <rect id="Rectangle_550" data-name="Rectangle 550" width="34.861" height="43.33" transform="translate(196.627 212.857)" fill="#e6e6e6"/>
    <rect id="Rectangle_551" data-name="Rectangle 551" width="26.621" height="3.526" transform="translate(200.749 218.946)" fill="#d3362d"/>
    <rect id="Rectangle_552" data-name="Rectangle 552" width="5.127" height="8.015" transform="translate(211.498 204.838)" fill="#96281b"/>
    <rect id="Rectangle_553" data-name="Rectangle 553" width="95.709" height="136.688" transform="translate(1.926 186.02)" fill="#fff"/>
    <path id="Path_10150" data-name="Path 10150" d="M99.556,184.708H0V44.169H99.556Zm-95.7-3.851H95.709V48.016H3.851Z" transform="translate(0 139.925)" fill="#77a7fb"/>
    <rect id="Rectangle_554" data-name="Rectangle 554" width="1.888" height="16.047" transform="translate(14.896 196.806)" fill="#77a7fb"/>
    <path id="Path_10151" data-name="Path 10151" d="M9.643,47.219h1.667V63.265H9.923l-3.6-11.016L6.434,56.3v6.965H4.692V47.219H6.113L9.835,58.143,9.643,53.5Z" transform="translate(14.864 149.586)" fill="#77a7fb"/>
    <path id="Path_10152" data-name="Path 10152" d="M6.99,52.339a5.113,5.113,0,0,1-.163-1.38A5.194,5.194,0,0,1,7.469,48.2a2.68,2.68,0,0,1,2.459-1.025,2.5,2.5,0,0,1,2.751,2.238,13.211,13.211,0,0,1,.183,2.438v.946h-1.8V51.718a8.722,8.722,0,0,0-.158-2.063,1.384,1.384,0,0,0-.379-.7.954.954,0,0,0-.6-.171,1.059,1.059,0,0,0-.984.5,3.841,3.841,0,0,0-.029,2.926,4.849,4.849,0,0,0,.675.871c.271.279.417.433.442.467l1.1,1.163A6.511,6.511,0,0,1,13.1,59.325a6.359,6.359,0,0,1-.642,3.176,2.593,2.593,0,0,1-2.447,1.1,2.585,2.585,0,0,1-2.763-1.917,9.625,9.625,0,0,1-.342-2.818V57.216H8.74V58.85A7.908,7.908,0,0,0,9,61.3a.945.945,0,0,0,.946.688,1.185,1.185,0,0,0,.959-.321,1.687,1.687,0,0,0,.3-.992c.029-.442.046-.942.046-1.492A4.422,4.422,0,0,0,9.782,56.04l-1.05-1.05A6.537,6.537,0,0,1,6.99,52.339" transform="translate(21.628 149.435)" fill="#77a7fb"/>
    <path id="Path_10153" data-name="Path 10153" d="M13.252,47.219h1.88V59.148a5.925,5.925,0,0,1-.7,3.28,2.755,2.755,0,0,1-2.451,1.029,2.786,2.786,0,0,1-2.459-1.029,5.8,5.8,0,0,1-.721-3.28V47.219h1.888V59.1a7.583,7.583,0,0,0,.129,1.917,2.508,2.508,0,0,0,.275.5,1.051,1.051,0,0,0,.888.35,1.1,1.1,0,0,0,.929-.388,1.9,1.9,0,0,0,.325-1.138c.017-.5.021-.917.021-1.23Z" transform="translate(27.865 149.587)" fill="#77a7fb"/>
    <path id="Path_10154" data-name="Path 10154" d="M10.925,47.219h3.364a2.955,2.955,0,0,1,2.063.592,3.146,3.146,0,0,1,.759,2.017c.029.388.05.992.05,1.817a5.87,5.87,0,0,1-.321,2.076A1.712,1.712,0,0,1,15.7,54.8a1.233,1.233,0,0,1,.9.634,4.516,4.516,0,0,1,.442,1.7c.083.775.125,1.926.125,3.459a12.684,12.684,0,0,0,.146,2.672H15.439a42.822,42.822,0,0,1-.146-5.406q0-1.726-.338-2a1.571,1.571,0,0,0-1.021-.279l-1.125-.063v7.748H10.925Zm4.368,3.93c0-1.234-.113-1.946-.333-2.142a1.408,1.408,0,0,0-.963-.3H12.809v5.418h1.2a1.248,1.248,0,0,0,.8-.208,1.34,1.34,0,0,0,.367-.8,11.619,11.619,0,0,0,.108-1.863Z" transform="translate(34.61 149.587)" fill="#77a7fb"/>
    <path id="Path_10155" data-name="Path 10155" d="M15.273,47.218h2.272L20.2,63.269H18.42l-.454-3.063H15.052l-.417,3.063h-1.8Zm-.008,11.454h2.463L16.461,50.19h-.029Z" transform="translate(40.673 149.584)" fill="#77a7fb"/>
    <path id="Path_10156" data-name="Path 10156" d="M20.016,47.219h1.667V63.265H20.295l-3.6-11.016.113,4.051v6.965H15.064V47.219h1.421l3.722,10.924L20.016,53.5Z" transform="translate(47.722 149.586)" fill="#77a7fb"/>
    <path id="Path_10157" data-name="Path 10157" d="M17.238,52a8.761,8.761,0,0,1,.3-2.68,3.905,3.905,0,0,1,.659-1.259,2.876,2.876,0,0,1,2.263-.884A2.545,2.545,0,0,1,23.136,49a9.067,9.067,0,0,1,.35,2.793v1.776H21.635V51.787a8.571,8.571,0,0,0-.167-2.084,1.461,1.461,0,0,0-.408-.721.987.987,0,0,0-.6-.179,1.054,1.054,0,0,0-1.05.717,6.625,6.625,0,0,0-.283,2.255v6.952a8.45,8.45,0,0,0,.263,2.547.986.986,0,0,0,1,.725.974.974,0,0,0,.992-.729,8.881,8.881,0,0,0,.254-2.555V56.938H23.5V58.7a7.712,7.712,0,0,1-.688,3.718,2.54,2.54,0,0,1-2.4,1.188,2.619,2.619,0,0,1-2.447-1.225,7.437,7.437,0,0,1-.729-3.7Z" transform="translate(54.609 149.441)" fill="#77a7fb"/>
    <path id="Path_10158" data-name="Path 10158" d="M19.291,47.219h4.793v1.567H21.175v5.489H23.93v1.567H21.175V61.7h2.947v1.567H19.291Z" transform="translate(61.113 149.586)" fill="#77a7fb"/>
    <path id="Path_10159" data-name="Path 10159" d="M6.978,52.6H10.2a2.483,2.483,0,0,1,2.68,1.767,8.7,8.7,0,0,1,.346,2.6c0,.988-.029,1.734-.079,2.234a4.249,4.249,0,0,1-.867,2.392,2.683,2.683,0,0,1-2.08.75H8.862v6.3H6.978Zm4.364,4.531a7.473,7.473,0,0,0-.258-2.342,1,1,0,0,0-1.025-.7h-1.2v6.685h1.155a1.021,1.021,0,0,0,1.059-.7,8.579,8.579,0,0,0,.267-2.638Z" transform="translate(22.106 166.621)" fill="#77a7fb"/>
    <path id="Path_10160" data-name="Path 10160" d="M8.882,57.1c0-1.826.325-3.076.984-3.755a2.985,2.985,0,0,1,2.251-.8,2.583,2.583,0,0,1,2.751,1.767,8.761,8.761,0,0,1,.358,2.788v7.077a7.243,7.243,0,0,1-.7,3.651,2.641,2.641,0,0,1-2.455,1.142,2.677,2.677,0,0,1-2.472-1.146,7.1,7.1,0,0,1-.713-3.647ZM13.338,57a6.813,6.813,0,0,0-.246-2.184.965.965,0,0,0-1-.642,1.046,1.046,0,0,0-1.038.654,5.754,5.754,0,0,0-.292,2.163V64.2a8.051,8.051,0,0,0,.254,2.5,1,1,0,0,0,1.029.659,1,1,0,0,0,1.029-.667,8.023,8.023,0,0,0,.258-2.488Z" transform="translate(28.138 166.469)" fill="#77a7fb"/>
    <path id="Path_10161" data-name="Path 10161" d="M10.99,52.6h1.888V67.083h2.963v1.563H10.99Z" transform="translate(34.816 166.618)" fill="#77a7fb"/>
    <rect id="Rectangle_555" data-name="Rectangle 555" width="1.888" height="16.051" transform="translate(52.445 219.213)" fill="#77a7fb"/>
    <path id="Path_10162" data-name="Path 10162" d="M13.657,57.372a8.661,8.661,0,0,1,.3-2.684,3.841,3.841,0,0,1,.659-1.255,2.876,2.876,0,0,1,2.263-.884,2.541,2.541,0,0,1,2.676,1.83,9.083,9.083,0,0,1,.346,2.793v1.776H18.054V57.16a8.342,8.342,0,0,0-.171-2.084,1.413,1.413,0,0,0-.408-.717.974.974,0,0,0-.6-.179,1.046,1.046,0,0,0-1.05.717,6.588,6.588,0,0,0-.288,2.255V64.1a8.428,8.428,0,0,0,.267,2.551.984.984,0,0,0,1,.721.97.97,0,0,0,.992-.725,8.881,8.881,0,0,0,.254-2.555V62.315h1.867V64.07a7.739,7.739,0,0,1-.688,3.718,2.55,2.55,0,0,1-2.4,1.192,2.619,2.619,0,0,1-2.442-1.23,7.408,7.408,0,0,1-.729-3.693Z" transform="translate(43.265 166.475)" fill="#77a7fb"/>
    <path id="Path_10163" data-name="Path 10163" d="M20.852,52.6H22.7l-2.588,9.311v6.74H18.227v-6.74L15.438,52.6h1.834l1.9,6.565H19.2Z" transform="translate(48.908 166.618)" fill="#77a7fb"/>
    <rect id="Rectangle_556" data-name="Rectangle 556" width="73.598" height="1.926" transform="translate(12.971 242.837)" fill="#77a7fb"/>
    <rect id="Rectangle_557" data-name="Rectangle 557" width="73.598" height="1.921" transform="translate(12.983 249.577)" fill="#77a7fb"/>
    <rect id="Rectangle_558" data-name="Rectangle 558" width="73.598" height="1.926" transform="translate(12.971 257.346)" fill="#77a7fb"/>
    <rect id="Rectangle_559" data-name="Rectangle 559" width="73.598" height="1.926" transform="translate(12.983 264.081)" fill="#77a7fb"/>
    <rect id="Rectangle_560" data-name="Rectangle 560" width="73.598" height="1.926" transform="translate(12.971 271.142)" fill="#77a7fb"/>
    <rect id="Rectangle_561" data-name="Rectangle 561" width="73.598" height="1.926" transform="translate(12.983 277.877)" fill="#77a7fb"/>
    <rect id="Rectangle_562" data-name="Rectangle 562" width="73.598" height="1.926" transform="translate(12.971 285.65)" fill="#77a7fb"/>
    <rect id="Rectangle_563" data-name="Rectangle 563" width="73.598" height="1.926" transform="translate(12.983 292.386)" fill="#77a7fb"/>
    <path id="Path_10164" data-name="Path 10164" d="M24.164,75.5a4.331,4.331,0,1,1-4.33,4.33,4.338,4.338,0,0,1,4.33-4.33m0-3.847a8.177,8.177,0,1,0,8.178,8.177,8.175,8.175,0,0,0-8.178-8.177" transform="translate(50.643 226.986)" fill="#999"/>
  </g>
</svg>
