<svg xmlns="http://www.w3.org/2000/svg" xmlns:xlink="http://www.w3.org/1999/xlink" width="434.347" height="382.645" viewBox="0 0 434.347 382.645">
  <defs>
    <clipPath id="clip-path">
      <rect id="Rectangle_527" data-name="Rectangle 527" width="434.347" height="382.645" fill="none"/>
    </clipPath>
    <clipPath id="clip-path-3">
      <rect id="Rectangle_498" data-name="Rectangle 498" width="37.332" height="22.854" transform="translate(165.119 101.575)" fill="none"/>
    </clipPath>
    <clipPath id="clip-path-4">
      <rect id="Rectangle_499" data-name="Rectangle 499" width="98.52" height="13.528" transform="translate(137.753 175.436)" fill="none"/>
    </clipPath>
    <clipPath id="clip-path-5">
      <rect id="Rectangle_500" data-name="Rectangle 500" width="99.546" height="6.763" transform="translate(137.621 195.058)" fill="none"/>
    </clipPath>
    <clipPath id="clip-path-6">
      <rect id="Rectangle_501" data-name="Rectangle 501" width="97.312" height="6.764" transform="translate(137.475 164.392)" fill="none"/>
    </clipPath>
    <clipPath id="clip-path-7">
      <rect id="Rectangle_502" data-name="Rectangle 502" width="36.51" height="26.298" transform="translate(268.439 137.699)" fill="none"/>
    </clipPath>
    <clipPath id="clip-path-8">
      <path id="Path_9790" data-name="Path 9790" d="M145.551,264.858c-15.906,0-17.023-8.592-17.023-8.592s-18.9,2.009-32.051,22.611-5.848,92.829-5.848,92.829H202.358s-5.652-78.174-10.75-95.126-31.173-21.973-31.173-21.973,1.021,10.251-14.884,10.251" fill="none"/>
    </clipPath>
    <clipPath id="clip-path-9">
      <rect id="Rectangle_504" data-name="Rectangle 504" width="16.88" height="121.034" transform="translate(176.636 255.401)" fill="none"/>
    </clipPath>
    <clipPath id="clip-path-10">
      <rect id="Rectangle_505" data-name="Rectangle 505" width="16.019" height="131.707" transform="translate(156.943 247.88)" fill="none"/>
    </clipPath>
    <clipPath id="clip-path-11">
      <rect id="Rectangle_506" data-name="Rectangle 506" width="16.102" height="143.075" transform="translate(137.797 237.949)" fill="none"/>
    </clipPath>
    <clipPath id="clip-path-12">
      <rect id="Rectangle_507" data-name="Rectangle 507" width="14.887" height="146.989" transform="translate(119.692 234.734)" fill="none"/>
    </clipPath>
    <clipPath id="clip-path-13">
      <rect id="Rectangle_508" data-name="Rectangle 508" width="11.18" height="144.369" transform="translate(97.288 238.276)" fill="none"/>
    </clipPath>
    <clipPath id="clip-path-14">
      <rect id="Rectangle_509" data-name="Rectangle 509" width="110.479" height="12.333" transform="translate(88.191 269.312)" fill="none"/>
    </clipPath>
    <clipPath id="clip-path-15">
      <rect id="Rectangle_510" data-name="Rectangle 510" width="114.375" height="10.813" transform="translate(86.501 290.103)" fill="none"/>
    </clipPath>
    <clipPath id="clip-path-16">
      <rect id="Rectangle_511" data-name="Rectangle 511" width="117.078" height="10.134" transform="translate(86.051 309.158)" fill="none"/>
    </clipPath>
    <clipPath id="clip-path-17">
      <rect id="Rectangle_512" data-name="Rectangle 512" width="120.179" height="9.524" transform="translate(86.005 327.988)" fill="none"/>
    </clipPath>
    <clipPath id="clip-path-18">
      <rect id="Rectangle_513" data-name="Rectangle 513" width="120.179" height="9.524" transform="translate(88.191 347.306)" fill="none"/>
    </clipPath>
    <clipPath id="clip-path-19">
      <rect id="Rectangle_514" data-name="Rectangle 514" width="120.179" height="9.524" transform="translate(90.378 366.625)" fill="none"/>
    </clipPath>
    <clipPath id="clip-path-21">
      <rect id="Rectangle_515" data-name="Rectangle 515" width="32.088" height="19.652" transform="translate(128.254 238.295)" fill="none"/>
    </clipPath>
    <clipPath id="clip-path-22">
      <rect id="Rectangle_516" data-name="Rectangle 516" width="28.559" height="15.247" transform="translate(246.932 261.509)" fill="none"/>
    </clipPath>
    <clipPath id="clip-path-23">
      <rect id="Rectangle_517" data-name="Rectangle 517" width="15.307" height="9.617" transform="translate(303.134 126.366)" fill="none"/>
    </clipPath>
    <clipPath id="clip-path-24">
      <rect id="Rectangle_518" data-name="Rectangle 518" width="13.177" height="12.376" transform="translate(268.563 109.228)" fill="none"/>
    </clipPath>
    <clipPath id="clip-path-25">
      <rect id="Rectangle_519" data-name="Rectangle 519" width="15.332" height="9.578" transform="translate(200.732 75.542)" fill="none"/>
    </clipPath>
    <clipPath id="clip-path-26">
      <rect id="Rectangle_520" data-name="Rectangle 520" width="15.332" height="9.578" transform="translate(154.344 75.542)" fill="none"/>
    </clipPath>
    <clipPath id="clip-path-27">
      <rect id="Rectangle_521" data-name="Rectangle 521" width="14.224" height="11.157" transform="translate(153.953 215.382)" fill="none"/>
    </clipPath>
    <clipPath id="clip-path-28">
      <rect id="Rectangle_522" data-name="Rectangle 522" width="15.527" height="9.253" transform="translate(113.445 225.864)" fill="none"/>
    </clipPath>
    <clipPath id="clip-path-29">
      <rect id="Rectangle_523" data-name="Rectangle 523" width="15.527" height="9.253" transform="translate(236.671 242.326)" fill="none"/>
    </clipPath>
    <clipPath id="clip-path-30">
      <rect id="Rectangle_524" data-name="Rectangle 524" width="15.527" height="9.253" transform="translate(272.748 243.001)" fill="none"/>
    </clipPath>
    <clipPath id="clip-path-31">
      <rect id="Rectangle_525" data-name="Rectangle 525" width="101.657" height="88.444" transform="translate(209.266 282.837)" fill="none"/>
    </clipPath>
  </defs>
  <g id="Group_1065" data-name="Group 1065" clip-path="url(#clip-path)">
    <g id="Group_994" data-name="Group 994">
      <g id="Group_993" data-name="Group 993" clip-path="url(#clip-path)">
        <path id="Path_9744" data-name="Path 9744" d="M136.51,178.251a22.8,22.8,0,0,1-6.1,2.889c-4.28,1.357-8.767,1.811-13.119,3.276a26.571,26.571,0,0,0-7.621,4.009,27.381,27.381,0,0,0-8.863,12.139,28.16,28.16,0,0,0-1.582,9.55l-.777-3.2c-.234-.959-.506-2.079-.8-3.278s-.607-2.476-.844-3.772c-1.03-5.163-2.061-10.326-2.061-10.326a26.087,26.087,0,0,1,4.235-7.654,41.769,41.769,0,0,1,5.792-6c1.805-1.539,3.7-2.955,5.6-4.406.948-.726,1.885-1.46,2.825-2.223.958-.766,1.9-1.559,2.823-2.4A47.47,47.47,0,0,0,122.1,160.1c.9-1.2,1.737-2.434,2.522-3.68s1.5-2.505,2.256-3.772c1.47-2.537,2.758-5.1,3.95-7.655.6-1.279,1.169-2.557,1.731-3.831s1.205-2.546,1.8-3.808a29.381,29.381,0,0,1-5.787,5.094,53.594,53.594,0,0,1-6.931,3.922c-4.788,2.319-9.808,4.244-14.389,7.11a36.628,36.628,0,0,0-4,2.882,34.36,34.36,0,0,0-3.594,3.542,33.176,33.176,0,0,0-4.5,6.683,30.981,30.981,0,0,0-2.871,7.929l-.355-2.27c-.157-1.369-.365-3.2-.574-5.021l-.834-7.3c.252-.9.537-1.759.861-2.587q.531-1.248,1.154-2.4a30.426,30.426,0,0,1,2.794-4.26,43.522,43.522,0,0,1,6.9-6.875c1.811-1.475,3.805-2.851,5.821-4.318a54.144,54.144,0,0,0,5.882-4.85,35.739,35.739,0,0,0,5.976-7.671,29.463,29.463,0,0,0,3.724-9.177,38.723,38.723,0,0,0,.65-4.636,30.38,30.38,0,0,0,.093-4.526,37.2,37.2,0,0,0-1.558-8.6c.168,4.973-2.711,9.711-6.431,13.094-3.634,3.49-7.842,5.636-11.921,8.445a41.926,41.926,0,0,0-7.11,6.206,37.02,37.02,0,0,0-7.841,15.219c-.09.415-.156.837-.232,1.257,0,0-.02-.28-.056-.77s-.08-1.192-.1-2.035l-.187-6.178c-.069-2.247-.137-4.494-.188-6.179-.03-.843-.048-1.545-.032-2.037s.009-.772.009-.772q1.4-4.468,2.807-8.947.681-2.217,1.363-4.444.757-2.208,1.519-4.427c.878-2.575,1.757-5.146,2.506-7.742q.542-1.947,1.09-3.913c.351-1.312.654-2.636.892-3.976a54.18,54.18,0,0,0,.71-9.823,66.769,66.769,0,0,0-.662-9.834c-.2-1.625-.538-3.257-.755-4.862-.238-1.608-.511-3.214-.807-4.821-.592-3.214-1.275-6.434-1.95-9.682a29.475,29.475,0,0,1-1.53,8.533c-.449,1.385-.977,2.749-1.56,4.091q-.9,2.009-1.786,3.967c-1.21,2.6-2.546,5.148-3.836,7.745-.645,1.3-1.278,2.609-1.877,3.943-.577,1.337-1.058,2.7-1.517,4.1a51.282,51.282,0,0,0-2.174,10.476,61.331,61.331,0,0,0,1.283,16.018c1.24,5.241,2.87,10.334,4.372,15.259,0,0,.165,5.457.331,10.914.043,1.364.087,2.728.127,4.007.092,1.276.178,2.467.252,3.488.147,2.042.246,3.4.246,3.4a56.323,56.323,0,0,0-1.768-6.005c-.7-1.994-1.365-3.98-2.175-5.922a105.367,105.367,0,0,0-7.45-15.1c-3.309-5.4-7.448-9.929-10.837-14.664a52.442,52.442,0,0,1-4.774-7.61,31.531,31.531,0,0,1-1.8-4.429,26.96,26.96,0,0,1-.941-5.008q-.271,2.309-.541,4.6-.177,2.305-.356,4.619c-.2,3.114-.3,6.335-.268,9.546a41.947,41.947,0,0,0,.293,4.827c.172,1.613.4,3.225.684,4.825a46.793,46.793,0,0,0,2.612,9.357,41.255,41.255,0,0,0,2.708,5.149,46.876,46.876,0,0,0,8.815,10.468c2.015,1.78,4.06,3.4,6.066,5.005,1.96,1.565,3.881,3.156,5.66,4.881a43.147,43.147,0,0,1,4.906,5.669l1.25,10.944c.133,1.371.357,2.729.559,4s.386,2.466.545,3.486c.32,2.04.533,3.4.533,3.4a31.96,31.96,0,0,0,.553,5.866,66.32,66.32,0,0,0-5.234-13.295c-2.393-4.828-5.167-9.688-9.174-13.693a41.212,41.212,0,0,0-7.824-6.166,48.981,48.981,0,0,0-8.757-4.14c-5.97-2.162-12.018-3.249-18.027-4.372,4.911,2.382,8.879,6.764,12.039,11.32.794,1.141,1.53,2.3,2.273,3.462s1.508,2.317,2.259,3.471c1.481,2.3,2.934,4.562,4.493,6.66a45.049,45.049,0,0,0,6.148,6.819,87.282,87.282,0,0,0,11.6,8.41,89.79,89.79,0,0,1,11.849,8.617c-.205-1.374-.494-2.75-.829-4.126.125.352.248.7.37,1.045,0,0,.711,3.561,1.421,7.122.351,1.782.7,3.563,1.05,4.88.321,1.323.536,2.2.536,2.2-.627-.919-1.286-1.823-2.008-2.684A34.82,34.82,0,0,0,82.365,193.06a31.036,31.036,0,0,0-8.572-2.7,43.017,43.017,0,0,0-8.257-.523c-5.355.116-10.5.964-16.071.586a31.568,31.568,0,0,1,6.434,3.43,72.178,72.178,0,0,1,6.136,4.563c3.956,3.222,7.644,6.692,11.465,9.287,1.163.778,2.33,1.476,3.475,2.093,1.1.616,2.2,1.159,3.3,1.661,3.576,1.62,7.131,2.539,10.739,3.78a29.646,29.646,0,0,1,4.576,1.992,19.883,19.883,0,0,1,4.319,3.031l1.069,3.709c.666,2.219,1.444,5.21,2.406,8.144,1.959,5.858,3.919,11.716,3.919,11.716a43.243,43.243,0,0,0-7.782-7.342,53.851,53.851,0,0,0-13.845-7.939c-5.858-2.082-11.547-2.455-16.97-2.705-5.44-.263-10.773-.38-16.488-2.851,2.157,1.68,4.121,3.527,6.2,5.4l6.283,5.74c2.1,1.9,4.238,3.777,6.437,5.494a47.675,47.675,0,0,0,6.982,4.492,42.17,42.17,0,0,0,8.554,3.264A80.546,80.546,0,0,0,99.8,249.251a34.38,34.38,0,0,1,10.435,2.415l2.108,5.51c.6,1.667,1.449,3.549,2.323,5.582l2.752,6.362c.469,1.082.937,2.165,1.4,3.231s1,2.078,1.473,3.076c.964,1.991,1.867,3.849,2.639,5.441l2.575,5.308,1.691-.866-2.726-5.62c-1.619-3.379-3.9-7.83-5.795-12.455-1.964-4.595-4.042-9.142-5.3-12.677l-2.232-5.833a35.983,35.983,0,0,1,8.938-14.469c3.185-3.32,6.741-6.181,9.8-9.6.937-1.041,1.812-2.137,2.681-3.294s1.722-2.375,2.511-3.625a51.1,51.1,0,0,0,4.071-7.88c.558-1.354,1.045-2.725,1.457-4.1.437-1.38.857-2.78,1.172-4.164a36.3,36.3,0,0,0,.98-8.129c-1.323,4.524-5.417,8.264-9.661,10.967-4.265,2.75-9,4.82-13.16,7.933a31.476,31.476,0,0,0-6.832,6.964,30.614,30.614,0,0,0-5.591,15.789c-.082,1.034-.1,2.071-.084,3.109l-1.195-3.574c-.359-1.073-.777-2.324-1.227-3.664s-.824-2.8-1.255-4.246l-2.3-7.968c-.314-1.087-.574-1.992-.757-2.626-.16-.64-.252-1.006-.252-1.006-.033-.164-.066-.323-.1-.489,3.224-5.306,7.685-8.488,12.377-10.867,3.6-1.81,7.384-3.144,10.85-5.231a35.345,35.345,0,0,0,6.121-4.732,40.672,40.672,0,0,0,5.36-6.189,33.158,33.158,0,0,0,3.8-7.016c.235-.6.442-1.2.636-1.8.216-.606.406-1.212.573-1.814a22.467,22.467,0,0,0,.692-3.569,12.1,12.1,0,0,1-4.245,4.819" fill="#b3e3df"/>
        <path id="Path_9745" data-name="Path 9745" d="M385.588,107.344A64,64,0,0,0,413.5,89.732a19.7,19.7,0,0,0,4.174-6.1,8.38,8.38,0,0,0-.284-7.181c-1.8-3.038-5.882-4.068-9.337-3.344s-6.437,2.826-9.309,4.88a28.3,28.3,0,0,0-.994-11.481c-1.207-3.55-4.426-6.706-8.173-6.585a8.7,8.7,0,0,0-6.684,4.183,20.661,20.661,0,0,0-2.668,7.691c-2.237,12.164,1.119,23.931,5.362,35.549" fill="#ff7383"/>
        <path id="Path_9746" data-name="Path 9746" d="M98.5,30.875a60.479,60.479,0,0,0,5.05-20.637,14.137,14.137,0,0,0-.6-6.034A5.68,5.68,0,0,0,98.534.44C96.258.217,94.139,1.9,93.123,3.949a17.1,17.1,0,0,0-1.3,6.688C89.676,9,87.273,6.815,84.619,6.329s-5.813.645-6.72,3.185c-.974,2.728.93,5.59,2.876,7.736A63.775,63.775,0,0,0,98.5,30.875" fill="#ff7383"/>
        <path id="Path_9747" data-name="Path 9747" d="M27.5,62.539c-.448-4.1.235-8.507,2.842-11.7s7.439-4.729,11.059-2.759c3.766,2.048,4.992,6.8,5.576,11.047a103.136,103.136,0,0,1-2.032,38.646A50.733,50.733,0,0,1,10.6,78.822a21.592,21.592,0,0,1-4.5-8.957c-.622-3.316.142-7.041,2.616-9.336s6.181-2.777,9.469-2.09,6.413,2.421,9.322,4.1" fill="#ff7383"/>
        <path id="Path_9748" data-name="Path 9748" d="M377.778,228.506a15.365,15.365,0,0,1-5.931.252c-3.887-.527-7.507-1.976-11.483-2.478a23.663,23.663,0,0,0-7.579.258,29.134,29.134,0,0,0-17.608,12.171s.382-1.076.956-2.69c.551-1.621,1.391-3.748,2.053-5.934,1.369-4.357,2.739-8.715,2.739-8.715a31.6,31.6,0,0,1,6.219-4.424,43.666,43.666,0,0,1,6.759-2.867c3.968-1.333,8.2-2.216,12.2-4.133a42.686,42.686,0,0,0,13.391-10.5c1.885-2.19,3.637-4.518,5.322-6.923s3.32-4.884,4.809-7.407c-3.473,3.618-8.281,5.488-12.848,6.689-4.6,1.195-9.259,1.819-13.759,3.278a36.112,36.112,0,0,0-4.014,1.563,36.61,36.61,0,0,0-4.029,2.1,33.489,33.489,0,0,0-5.674,4.342,41.383,41.383,0,0,0-4.8,5.562s.21-.769.526-1.922c.273-1.164.638-2.716,1-4.268l1.458-6.208c.469-.667.96-1.3,1.466-1.9q.725-.909,1.507-1.725a28.836,28.836,0,0,1,3.31-2.961,47.2,47.2,0,0,1,7.4-4.532c3.815-1.9,7.765-3.5,11.646-6.437a30.87,30.87,0,0,0,6.468-6.74,32.732,32.732,0,0,0,4.244-9.075,29.691,29.691,0,0,0,1.027-4.794,38.948,38.948,0,0,0,.259-4.749,40.345,40.345,0,0,0-1.055-8.955c.029,5.168-2.708,10.088-6.023,13.288-3.431,3.306-7.361,5.043-11.137,7.289a43.382,43.382,0,0,0-6.733,4.908,36.541,36.541,0,0,0-9.2,12.006c-.172.331-.324.673-.483,1.01,0,0,.046-.239.129-.658s.194-1.017.3-1.74l.836-5.3c.3-1.927.609-3.853.837-5.3.117-.722.21-1.325.252-1.749l.08-.666q1.654-3.709,3.258-7.492l1.59-3.809q.713-1.931,1.43-3.871c1.65-4.531,3.384-9.172,3.9-14.093a40.8,40.8,0,0,0,.1-8.946,62.15,62.15,0,0,0-4.544-16.977c-1.1-2.674-2.267-5.282-3.435-7.859a25.456,25.456,0,0,1,.277,7.5,35.508,35.508,0,0,1-1.509,7.348c-.741,2.366-1.6,4.67-2.4,6.974-.4,1.152-.8,2.3-1.159,3.465-.38,1.161-.775,2.33-1.094,3.518a41.1,41.1,0,0,0-1.393,8.775,53.384,53.384,0,0,0,.811,13.377c.6,4.438,1.552,8.882,2.364,13.281,0,0-.732,4.632-1.463,9.263-.184,1.157-.368,2.315-.541,3.4-.211,1.079-.409,2.085-.578,2.948-.339,1.725-.564,2.875-.564,2.875a40.268,40.268,0,0,0-.97-10.661,49.934,49.934,0,0,0-4.364-13.365,75.96,75.96,0,0,0-8.387-12.331,47.3,47.3,0,0,1-4.013-5.891,22.411,22.411,0,0,1-1.5-3.289,20.208,20.208,0,0,1-1.047-3.666q-.119,1.689-.234,3.37-.184,1.678-.369,3.363c-.213,2.267-.348,4.611-.359,6.964a65.834,65.834,0,0,0,.228,7.123,37.3,37.3,0,0,0,1.461,7.182,31.209,31.209,0,0,0,1.576,4.182,41.814,41.814,0,0,0,2.021,3.849,60.108,60.108,0,0,0,3.872,5.611c1.317,1.754,2.685,3.431,4.015,5.133a51.551,51.551,0,0,1,3.653,5.194,23.934,23.934,0,0,1,2.648,5.854l-2.163,9.209c-.526,2.307-1.223,4.569-1.67,6.285-.469,1.711-.782,2.851-.782,2.851a30.276,30.276,0,0,0-1.654,4.77,52.031,52.031,0,0,0,.558-12.153,35.1,35.1,0,0,0-3.5-13.317c-2.631-4.979-7-8.827-11.524-11.623a84.837,84.837,0,0,0-14.3-6.606c3.686,2.478,6.158,6.265,7.883,10.169.429.975.83,1.965,1.185,2.955.334.986.645,1.977.951,2.968.612,1.98,1.2,3.956,1.917,5.882a64.283,64.283,0,0,0,3.006,6.693,107.84,107.84,0,0,0,6.368,10.036,46.551,46.551,0,0,1,5.763,11.005c.414-1.119.764-2.274,1.079-3.447l-.151.937s-.935,2.975-1.871,5.95c-.464,1.489-.927,2.978-1.339,4.073-.392,1.1-.654,1.836-.654,1.836a26.672,26.672,0,0,0-.2-2.84A25.743,25.743,0,0,0,330,219.1c-3.225-4.19-7.632-6.687-11.878-8.52-4.263-1.837-8.593-3.108-12.9-5.257a25.173,25.173,0,0,1,4.019,4.4,43.9,43.9,0,0,1,3.046,5.111c1.813,3.529,3.385,7.291,5.162,10.6.518.99,1.07,1.941,1.639,2.841.533.877,1.1,1.719,1.679,2.542,1.894,2.668,4.059,4.945,6.09,7.536a23.785,23.785,0,0,1,2.364,3.626,15.042,15.042,0,0,1,1.409,4.234l-1.227,3.08c-.753,1.841-1.677,4.329-2.737,6.76l-4.289,9.7a33.719,33.719,0,0,0-.755-9.109,32.84,32.84,0,0,0-5.108-12.372c-3.007-4.277-6.829-7.234-10.546-9.937-3.681-2.684-7.6-5.284-10.766-9.14a44.763,44.763,0,0,1,2.246,5.748c.605,1.958,1.15,3.976,1.737,6.054.572,2.051,1.171,4.144,1.869,6.222a54.246,54.246,0,0,0,2.317,6.059,43.338,43.338,0,0,0,3.831,6.49c2.269,3.214,4.912,5.888,7.286,8.7a25.631,25.631,0,0,1,4.774,7.763s-.889,1.821-2.221,4.552-3.318,6.267-5.206,9.852c-.478.893-.957,1.786-1.427,2.666s-.994,1.71-1.469,2.532c-.961,1.639-1.857,3.169-2.625,4.48l-2.561,4.37,1.4.859,2.739-4.675c1.631-2.812,3.894-6.513,5.879-10.369,2.032-3.828,4.148-7.615,5.513-10.568l2.375-4.87a41.085,41.085,0,0,1,14.432-3.863c4.024-.377,8.046-.3,12.156-1.07a31.959,31.959,0,0,0,7.565-2.416,42.733,42.733,0,0,0,7.4-4.322c1.192-.86,2.353-1.792,3.473-2.783a40.924,40.924,0,0,0,3.109-3.18,45.638,45.638,0,0,0,5.185-7.148c-3.472,3.67-8.389,4.937-12.8,5.039-4.482.124-8.78-.622-13.442-.408a31.379,31.379,0,0,0-8.556,1.605,34.974,34.974,0,0,0-12.6,7.818c-.66.623-1.277,1.281-1.873,1.954l1.322-2.99c.4-.9.86-1.944,1.355-3.066s.95-2.349,1.444-3.56c.967-2.43,1.935-4.861,2.661-6.684.362-.911.665-1.67.877-2.2.194-.538.306-.845.306-.845l.16-.4A27.453,27.453,0,0,1,348,240.43c3.5.3,6.9,1.05,10.486.96a25.085,25.085,0,0,0,6.879-1.19,30.648,30.648,0,0,0,6.889-3.244,32.486,32.486,0,0,0,6.234-5.1,27.3,27.3,0,0,0,4.594-6.5,10.7,10.7,0,0,1-5.3,3.154" fill="#b3e3df"/>
        <path id="Path_9749" data-name="Path 9749" d="M93.71,360.991l3.232,4.507c.937,1.376,2.178,2.871,3.471,4.5l.645.809h2.285c-2.3-2.874-4.527-5.621-6.09-7.938L93.834,358.1a33.016,33.016,0,0,1,4.759-15.224c2.139-3.747,4.727-7.157,6.743-10.939.62-1.154,1.169-2.338,1.705-3.58s1.051-2.533,1.5-3.838a48.443,48.443,0,0,0,2.01-7.991c.218-1.337.369-2.671.452-3.99.107-1.331.2-2.681.2-3.986a32.584,32.584,0,0,0-.782-7.471c-.276,4.319-3.232,8.576-6.534,11.951-3.308,3.421-7.191,6.349-10.3,10.088a29.14,29.14,0,0,0-4.7,7.836,28.077,28.077,0,0,0-1.537,15.622c.164.959.389,1.907.642,2.848l-1.915-2.977L84.117,343.4c-.721-1.115-1.383-2.369-2.1-3.589-1.411-2.455-2.821-4.911-3.879-6.753l-1.279-2.225-.448-.864-.2-.425a27.116,27.116,0,0,1,8.959-12.605c2.9-2.425,6.074-4.458,8.8-7.094a34.044,34.044,0,0,0,4.6-5.588,38.909,38.909,0,0,0,3.643-6.716,30.8,30.8,0,0,0,2.064-7.086c.167-1.164.307-2.334.393-3.488a20.126,20.126,0,0,0-.056-3.333,11.4,11.4,0,0,1-2.95,5.2,22.031,22.031,0,0,1-5.011,3.872c-3.644,2.119-7.66,3.47-11.345,5.705a24.9,24.9,0,0,0-6.151,5.233,25.46,25.46,0,0,0-5.58,12.941,26.221,26.221,0,0,0,.619,9.058l-1.4-2.753c-.422-.826-.913-1.789-1.44-2.822s-1.092-2.131-1.578-3.269l-4.055-9.019a23.848,23.848,0,0,1,2.309-7.878,38.573,38.573,0,0,1,4.1-6.66c1.346-1.769,2.8-3.442,4.25-5.141,1.425-1.693,2.895-3.433,4.276-5.331a53.088,53.088,0,0,0,7.263-14.982c.886-2.572,1.6-5.123,2.228-7.647q.442-1.878.888-3.764c.268-1.244.659-2.512.977-3.752-2.38,4.1-6.051,7.49-10.068,10.5-3.975,3.005-8.234,5.71-11.908,9.2a33.928,33.928,0,0,0-3.133,3.4,31.537,31.537,0,0,0-2.614,3.932,30.733,30.733,0,0,0-2.831,7,28.2,28.2,0,0,0-1.065,7.843s-.315-.8-.786-2.009c-.413-1.226-.962-2.862-1.512-4.5l-2.2-6.543a25.334,25.334,0,0,1,.285-2.541q.252-1.25.607-2.425a28.246,28.246,0,0,1,1.765-4.445,40.068,40.068,0,0,1,5.059-7.6c1.387-1.686,2.973-3.315,4.566-5.026a52.147,52.147,0,0,0,4.546-5.5,33.676,33.676,0,0,0,4.136-8.038,26.91,26.91,0,0,0,1.858-8.96,37.112,37.112,0,0,0-.193-4.3,27.11,27.11,0,0,0-.66-4.108A33.88,33.88,0,0,0,75,221c.976,4.474-.9,9.24-3.774,12.953-2.762,3.792-6.266,6.478-9.544,9.764a38.666,38.666,0,0,0-5.478,6.949,34.354,34.354,0,0,0-4.452,15.418c-.005.4.014.8.024,1.2,0,0-.072-.254-.2-.7s-.3-1.081-.467-1.855c-.354-1.543-.827-3.6-1.3-5.658s-.946-4.115-1.3-5.658c-.182-.771-.327-1.414-.4-1.871s-.127-.715-.127-.715q.511-4.368,1.023-8.742.24-2.16.481-4.328.33-2.165.662-4.339c.379-2.521.76-5.034,1.018-7.547l.167-1.885.2-1.9c.115-1.265.183-2.533.189-3.8a51.716,51.716,0,0,0-.907-9.159,62.307,62.307,0,0,0-2.114-8.97c-.433-1.47-1-2.929-1.434-4.38-.453-1.452-.939-2.9-1.446-4.343-1.015-2.89-2.115-5.778-3.211-8.7a27.672,27.672,0,0,1-.185,8.141,80.087,80.087,0,0,1-1.921,7.972c-.725,2.6-1.575,5.165-2.373,7.777-.4,1.306-.785,2.623-1.137,3.957-.325,1.332-.547,2.679-.748,4.05a48.47,48.47,0,0,0-.326,10.087,57.532,57.532,0,0,0,3.877,14.645c2.067,4.639,4.464,9.064,6.715,13.342l2.3,10c.29,1.249.579,2.5.85,3.671.327,1.158.632,2.238.893,3.164.523,1.852.871,3.087.871,3.087a52.912,52.912,0,0,0-2.766-5.2c-1.02-1.707-1.988-3.419-3.092-5.063a107.061,107.061,0,0,0-9.6-12.636c-4-4.432-8.645-7.927-12.564-11.779a49.153,49.153,0,0,1-5.7-6.318,30.106,30.106,0,0,1-2.412-3.856,25.63,25.63,0,0,1-1.685-4.552c.083,1.477.165,2.947.247,4.418q.225,2.194.452,4.4c.345,2.957.794,6,1.376,9.006a36.618,36.618,0,0,0,1.112,4.476c.445,1.481.938,2.952,1.488,4.4a44.216,44.216,0,0,0,4.079,8.293,39.171,39.171,0,0,0,3.448,4.316,44.555,44.555,0,0,0,3.716,3.6,43.541,43.541,0,0,0,6.343,4.527c2.2,1.276,4.387,2.391,6.54,3.5,2.1,1.078,4.173,2.185,6.137,3.436a42.724,42.724,0,0,1,5.6,4.279s1.649,4.907,3.3,9.814c.8,2.461,1.849,4.835,2.526,6.654l1.18,3.012a29.713,29.713,0,0,0,1.7,5.272,62.9,62.9,0,0,0-7.511-11.149c-3.165-3.961-6.66-7.9-11.141-10.823a40.043,40.043,0,0,0-8.387-4.214,46.625,46.625,0,0,0-8.854-2.2,107.5,107.5,0,0,0-17.443-.726c4.984,1.326,9.486,4.686,13.276,8.342.952.914,1.852,1.859,2.763,2.8l2.773,2.8c1.822,1.857,3.61,3.677,5.463,5.322a40.986,40.986,0,0,0,7.024,5.113A80.015,80.015,0,0,0,53.2,307.314a89.932,89.932,0,0,1,12.661,5.461c-.477-1.216-1.031-2.416-1.627-3.607l.559.881,2.8,6.226c.695,1.559,1.388,3.119,2,4.246l.97,1.9c-.773-.7-1.573-1.39-2.42-2.023a33.224,33.224,0,0,0-13.015-6.821,29.509,29.509,0,0,0-8.433-.721,40.277,40.277,0,0,0-7.678,1.2c-4.886,1.2-9.424,3.031-14.619,3.8a29.952,29.952,0,0,1,6.622,1.9,70.236,70.236,0,0,1,6.614,2.981c4.325,2.173,8.444,4.621,12.508,6.211,1.238.471,2.461.866,3.646,1.191,1.139.334,2.268.6,3.384.826a105.677,105.677,0,0,0,10.65,1.153,28.082,28.082,0,0,1,4.614.827,18.978,18.978,0,0,1,4.625,1.811l1.808,3.147c1.108,1.874,2.478,4.438,4.03,6.891l6.282,9.768a41.032,41.032,0,0,0-8.79-4.9,52.737,52.737,0,0,0-14.453-4.152c-5.825-.612-11.116.29-16.137,1.242-5.045.943-9.938,1.983-15.734.9,2.358,1.1,4.564,2.4,6.907,3.7l7.084,3.95c2.362,1.3,4.753,2.564,7.159,3.663a43.925,43.925,0,0,0,7.445,2.572,39.064,39.064,0,0,0,8.579,1.053,72.461,72.461,0,0,0,12.4-1.332,32.817,32.817,0,0,1,10.076-.268" fill="#b3e3df"/>
        <path id="Path_9750" data-name="Path 9750" d="M428.462,261.578a26.151,26.151,0,0,1-7.207,5.441,32.94,32.94,0,0,1-7.64,2.527c-2.507.54-4.978.9-7.539,1.325a58.906,58.906,0,0,0-9.43,2.462,50.927,50.927,0,0,0-15.267,8.524c-.335.266-.654.552-.98.829l.445-.628c.282-.4.694-.965,1.149-1.671l3.4-5.135c1.2-1.891,2.346-3.813,3.229-5.241s1.429-2.406,1.429-2.406c2.227-2.157,4.582-4.292,6.686-6.633l3.241-3.513c1.058-1.2,2.058-2.448,3.1-3.7.885-1.1,1.828-2.182,2.666-3.336s1.663-2.33,2.465-3.533a42.239,42.239,0,0,0,4.126-7.72,30.34,30.34,0,0,0,1.641-5.118,39.268,39.268,0,0,0,.984-5.289,47.071,47.071,0,0,0-.027-10.653c-.652-6.956-3.011-13.46-5.512-19.411a26.03,26.03,0,0,1,.308,4.3,19.88,19.88,0,0,1-.418,4.3,43.17,43.17,0,0,1-1.114,4.174c-.227.679-.428,1.353-.709,2.009s-.584,1.3-.887,1.935c-.607,1.268-1.241,2.5-1.881,3.714-.617,1.216-1.425,2.382-2.115,3.555-.714,1.17-1.413,2.331-2.074,3.5-.736,1.156-1.447,2.318-2.1,3.508a64.048,64.048,0,0,0-4.041,8.923,49.564,49.564,0,0,0-2.188,7.087c-.678,2.385-1.153,4.852-1.626,7.34-.542,2.458-.947,4.991-1.421,7.506-.523,2.49-.981,5.025-1.55,7.506l-1.749,2.857-1.793,2.927-2.172,3.285c-.745,1.115-1.467,2.245-2.184,3.277s-1.4,1.985-1.986,2.806l-1.938,2.737a48.015,48.015,0,0,0,4-11.552,55.464,55.464,0,0,0,1.258-8.048,38.85,38.85,0,0,0-.043-7.759,41.938,41.938,0,0,0-1.725-8.346c-.39-1.318-.807-2.6-1.231-3.857l-1.415-3.718c-.913-2.406-1.757-4.8-2.479-7.231a22.528,22.528,0,0,1-.722-3.661,21.784,21.784,0,0,1-.179-3.745c-.39,1.011-.718,2.02-1.142,3.028s-.876,2.017-1.317,3.03c-.772,2.061-1.794,4.209-2.54,6.433a55.268,55.268,0,0,0-2.17,6.958,39.317,39.317,0,0,0-1.279,7.636,34.415,34.415,0,0,0-.021,4.894c.125,1.615.237,3.211.456,4.791a148.144,148.144,0,0,0,3.322,14.709,48.622,48.622,0,0,1,1.271,7.113,27.7,27.7,0,0,1-.152,7.342s-3.34,4.267-6.857,8.395-7.124,8.19-7.124,8.19a33.552,33.552,0,0,0-4.146,4.061,55.363,55.363,0,0,0,6.731-12.248,37.257,37.257,0,0,0,3.045-15.42,29.241,29.241,0,0,0-2.012-9.257,39.045,39.045,0,0,0-4.353-8.211,94.765,94.765,0,0,0-11.921-13.544,24.206,24.206,0,0,1,3.645,13.9,52.41,52.41,0,0,1-.586,7.008c-.294,2.318-.624,4.625-.874,6.921a73.977,73.977,0,0,0-.273,8.355c.06,2.264.275,4.506.556,6.766.259,2.255.583,4.523.887,6.845a59.363,59.363,0,0,1,.466,14.319c.977-.962,1.9-1.995,2.8-3.062l-.615.9-4.873,5.262c-2.453,2.619-4.907,5.237-4.907,5.237a31.568,31.568,0,0,0,1.118-3.1,30.4,30.4,0,0,0,1.1-15.222c-1.256-6.012-4.509-10.808-7.953-14.827-3.46-4.041-7.288-7.526-10.612-11.926a28.771,28.771,0,0,1,1.825,6.62,54.927,54.927,0,0,1,.5,6.995c.076,4.68-.337,9.443-.141,13.845.046,1.324.152,2.618.3,3.859.126,1.2.309,2.373.518,3.527.7,3.747,1.872,7.181,2.805,10.846a22.174,22.174,0,0,1,.476,10.068s-4.163,4.483-8.327,8.965c-4.145,4.506-8.191,9.111-8.191,9.111a44.252,44.252,0,0,0,2.5-10.309,46.183,46.183,0,0,0-.289-15.7c-1.3-5.96-3.994-10.872-6.67-15.491-2.65-4.621-5.52-9.123-6.808-14.923-.149,5.012-1.138,10.076-1.988,15.389a75.431,75.431,0,0,0-1.37,16.014,43.461,43.461,0,0,0,1.476,8.876,89.69,89.69,0,0,0,4.829,12.254,33.3,33.3,0,0,1,2.892,10.18s-2.64,3.1-6.039,7.367h2.426c3.712-4.6,6.625-7.977,6.625-7.977a37.786,37.786,0,0,1,16.911.686c4.431,1.1,8.712,2.749,13.246,3.642a43.369,43.369,0,0,0,8.709.8,47.6,47.6,0,0,0,9.139-.928,45.591,45.591,0,0,0,8.937-2.728,43.112,43.112,0,0,0,8.117-4.452c-5.016,1.907-10.547.741-15.162-1.262-4.679-2-8.915-4.786-13.821-6.657a32.728,32.728,0,0,0-26.048,1.126,29.005,29.005,0,0,0-2.736,1.448s4.005-4.459,8.088-8.848l8.191-8.758.353-.348A30.355,30.355,0,0,1,350,340.914c3.5,1.965,6.7,4.353,10.432,5.991a33.047,33.047,0,0,0,16.123,2.409,33.4,33.4,0,0,0,16.515-6.108,12.291,12.291,0,0,1-6.981.443,18,18,0,0,1-6.206-2.764c-3.729-2.5-6.758-5.794-10.6-8.305a26.843,26.843,0,0,0-7.9-3.523,29.965,29.965,0,0,0-15.143.157,29.6,29.6,0,0,0-8.87,3.937l7.17-7.633,7.115-7.687c5.816-1.831,11.535-1.664,17.034-.948,4.76.623,9.463,1.873,14.634,1.906a46.167,46.167,0,0,0,19.307-4.423A104.005,104.005,0,0,0,420.7,303.5a24.267,24.267,0,0,1-4.24,1.382,27.549,27.549,0,0,1-4.3.541,39.853,39.853,0,0,1-8.377-.548c-5.39-.871-10.613-2.52-16.032-3.178a46.288,46.288,0,0,0-10.184-.129,43.054,43.054,0,0,0-15.825,4.953l1.5-1.724,3.226-3.86c1.186-1.393,2.329-2.821,3.177-3.9l1.423-1.789c6.464-3.694,13.11-4.586,19.718-4.964,4.9-.2,9.869-.092,15.437-1.511a35.315,35.315,0,0,0,10.1-4.675,40.122,40.122,0,0,0,4.756-3.946c.753-.73,1.488-1.482,2.181-2.27.674-.81,1.318-1.643,1.923-2.491,5.005-6.713,7.406-14.945,8.134-22.317a23.422,23.422,0,0,1-4.849,8.506" fill="#b3e3df"/>
        <path id="Path_9751" data-name="Path 9751" d="M397.78,131.506c-5.381,0-6.038,8.393-.605,8.393,5.382,0,6.038-8.393.605-8.393" fill="#ffdc99"/>
        <path id="Path_9752" data-name="Path 9752" d="M404.057,119.4c-4.709,0-5.284,7.344-.529,7.344,4.709,0,5.283-7.344.529-7.344" fill="#ffdc99"/>
        <path id="Path_9753" data-name="Path 9753" d="M386.879,126.24c-4.036,0-4.529,6.3-.453,6.3,4.036,0,4.528-6.3.453-6.3" fill="#ffdc99"/>
        <path id="Path_9754" data-name="Path 9754" d="M112.622,80.013h-.559c-5.381,0-6.038,8.393-.6,8.393h.558c5.382,0,6.039-8.393.605-8.393" fill="#ffdc99"/>
        <path id="Path_9755" data-name="Path 9755" d="M109.281,65.726c-4.036,0-4.529,6.3-.454,6.3,4.036,0,4.529-6.3.454-6.3" fill="#ffdc99"/>
        <path id="Path_9756" data-name="Path 9756" d="M123.753,69.712c-4.709,0-5.284,7.344-.529,7.344,4.709,0,5.283-7.344.529-7.344" fill="#ffdc99"/>
        <path id="Path_9757" data-name="Path 9757" d="M36.322,140.833c-6.054,0-6.793,9.442-.68,9.442,6.054,0,6.793-9.442.68-9.442" fill="#ffdc99"/>
        <path id="Path_9758" data-name="Path 9758" d="M23.617,137.372c-4.709,0-5.284,7.344-.529,7.344,4.709,0,5.283-7.344.529-7.344" fill="#ffdc99"/>
        <path id="Path_9759" data-name="Path 9759" d="M35.307,126.169c-4.036,0-4.529,6.3-.454,6.3,4.036,0,4.529-6.3.454-6.3" fill="#ffdc99"/>
        <path id="Path_9760" data-name="Path 9760" d="M431.213,230.522c-4.477,0-5.024,6.983-.5,6.983,4.477,0,5.024-6.983.5-6.983" fill="#ffdc99"/>
        <path id="Path_9761" data-name="Path 9761" d="M8.881,260.334c-4.477,0-5.024,6.983-.5,6.983,4.477,0,5.024-6.983.5-6.983" fill="#ffdc99"/>
        <path id="Path_9762" data-name="Path 9762" d="M2.6,248.289c-3.2,0-3.588,4.988-.359,4.988,3.2,0,3.588-4.988.359-4.988" fill="#ffdc99"/>
        <path id="Path_9763" data-name="Path 9763" d="M423.688,243.942c-3.2,0-3.588,4.988-.359,4.988,3.2,0,3.588-4.988.359-4.988" fill="#ffdc99"/>
        <path id="Path_9764" data-name="Path 9764" d="M424.274,218.355c-2.558,0-2.871,3.99-.287,3.99,2.558,0,2.87-3.99.287-3.99" fill="#ffdc99"/>
        <path id="Path_9765" data-name="Path 9765" d="M3.529,238.454v.385c0,2.558,3.99,2.87,3.99.287v-.385c0-2.558-3.99-2.87-3.99-.287" fill="#ffdc99"/>
        <path id="Path_9766" data-name="Path 9766" d="M201.781,124.272c.122,2.475.335,4.959.669,7.464-11.257,7.891-26.044,6.045-38.812.964a187,187,0,0,0,1.734-19.736,74.744,74.744,0,0,0-.253-8.722c11.1,1.907,27.5,2.83,37.331-2.667a199.452,199.452,0,0,0-.669,22.7" fill="#ffbd97"/>
        <g id="Group_980" data-name="Group 980" opacity="0.5" style="mix-blend-mode: overlay;isolation: isolate">
          <g id="Group_979" data-name="Group 979">
            <g id="Group_978" data-name="Group 978" clip-path="url(#clip-path-3)">
              <path id="Path_9767" data-name="Path 9767" d="M201.781,124.272a58.805,58.805,0,0,1-18.245-1.541c-6.765-1.643-13.874-3.966-18.164-9.767a74.744,74.744,0,0,0-.253-8.722c11.1,1.907,27.5,2.83,37.331-2.667a199.452,199.452,0,0,0-.669,22.7" fill="#1d1d1b"/>
            </g>
          </g>
        </g>
        <path id="Path_9768" data-name="Path 9768" d="M201.781,124.272s-4.885,8.948-18,8.948-18.964-10.963-18.964-10.963c-2-3.755-26.846,5.209-30.259,6.576A172.229,172.229,0,0,0,95.523,150.9c-24.039,18-45.015,43.172-51.4,73.15-7.788,36.561,16.6,55.224,34.667,63.822,8.6.481,16.207-5.317,21.025-12.062-.812,6.5-2.944,13-2.644,19.495,5.9,8.993,49.094,72,105.187,76.406,60.415,4.746,73.437-211.212,73.437-211.212S255.03,132.7,201.781,124.272" fill="#6cbbd9"/>
        <g id="Group_983" data-name="Group 983" opacity="0.3" style="mix-blend-mode: overlay;isolation: isolate">
          <g id="Group_982" data-name="Group 982">
            <g id="Group_981" data-name="Group 981" clip-path="url(#clip-path-4)">
              <path id="Path_9769" data-name="Path 9769" d="M138.012,188.964h98.261c-.39-4.509-.806-9.016-1.138-13.528H137.753c.131,4.513.252,9.022.259,13.528" fill="#1d1d1b"/>
            </g>
          </g>
        </g>
        <g id="Group_986" data-name="Group 986" opacity="0.3" style="mix-blend-mode: overlay;isolation: isolate">
          <g id="Group_985" data-name="Group 985">
            <g id="Group_984" data-name="Group 984" clip-path="url(#clip-path-5)">
              <path id="Path_9770" data-name="Path 9770" d="M137.621,201.821h99.547q-.159-3.386-.4-6.764H137.941q-.09,3.384-.32,6.764" fill="#1d1d1b"/>
            </g>
          </g>
        </g>
        <g id="Group_989" data-name="Group 989" opacity="0.3" style="mix-blend-mode: overlay;isolation: isolate">
          <g id="Group_988" data-name="Group 988">
            <g id="Group_987" data-name="Group 987" clip-path="url(#clip-path-6)">
              <path id="Path_9771" data-name="Path 9771" d="M137.63,171.156h97.156c-.338-2.254-.672-4.508-.988-6.764H137.474q.057,3.384.156,6.764" fill="#1d1d1b"/>
            </g>
          </g>
        </g>
        <path id="Path_9772" data-name="Path 9772" d="M329.413,60.261c8.035,2.921,14.015,10.271,16.431,18.473s1.553,17.122-1.188,25.221-7.273,15.474-12.215,22.451c.3,8.225.511,15.059.808,23.284.237,6.584.411,13.476-2.479,19.4-3.831,7.841-12.53,12.444-21.2,13.4s-17.384-1.2-25.688-3.882c-10.62-3.429-21.269-7.949-29.051-15.947s-12.119-20.18-8.226-30.639c3.2-8.589,11.2-14.646,14.676-23.126,3.233-7.892,2.144-16.815,3.423-25.246a41.457,41.457,0,0,1,11.04-22.663,38.406,38.406,0,0,1,25.771-11.421c9.62-.356,18.852,7.41,27.9,10.7" fill="#3d6173"/>
        <path id="Path_9773" data-name="Path 9773" d="M304.949,143.054a80.9,80.9,0,0,0-5.385,20.5c-.021.152-.041.294-.051.447-.3,2.474-.487,4.969-.558,7.464-13.184,3.884-28.021,1.633-38.508-7.262,2.617-5.365,5.456-11.4,7.667-17.413.112-.284.213-.578.325-.862.355-.994.7-1.988,1.014-2.971.568-1.775,1.065-3.53,1.471-5.254a54.041,54.041,0,0,0,34.025,5.355" fill="#ffbd97"/>
        <g id="Group_992" data-name="Group 992" opacity="0.5" style="mix-blend-mode: overlay;isolation: isolate">
          <g id="Group_991" data-name="Group 991">
            <g id="Group_990" data-name="Group 990" clip-path="url(#clip-path-7)">
              <path id="Path_9774" data-name="Path 9774" d="M304.949,143.054a80.9,80.9,0,0,0-5.385,20.5c-.021.152-.041.294-.051.447-2.383-.426-4.736-.933-5.162-1.045a49.527,49.527,0,0,1-25.172-16.024,11.042,11.042,0,0,1-.74-1c.355-.994.7-1.988,1.014-2.971.568-1.775,1.065-3.53,1.471-5.254a54.041,54.041,0,0,0,34.025,5.355" fill="#1d1d1b"/>
            </g>
          </g>
        </g>
        <path id="Path_9775" data-name="Path 9775" d="M299.634,162.928s39.3,9.036,61.133,43.615S389.5,273.488,389.209,282.3c-.21,6.452-1.364,23.552-22.149,40.82-14.371,11.938-32.063,22.3-50.653,24.165-31.153-.086-40.8.078-73.278,0l-6.457-152.991-2.6-25.3s6.032-6.323,29.1-10.487c0,0,3.661,10.211,14.819,12.623s17.4-2.879,21.649-8.205" fill="#ffa1ac"/>
        <path id="Path_9776" data-name="Path 9776" d="M152.861,159.68c1.571,1.7,2.615,3.824,4.13,5.573,3.025,3.492,7.577,5.152,11.75,7.132s8.455,4.8,9.783,9.22c1.283,4.279-.555,8.9,0,13.329.764,6.161,5.86,10.765,8.672,16.3a23.161,23.161,0,0,1-17.429,33.425c-5.44.764-10.963-.421-16.453-.235-9.155.311-17.691,4.378-26.413,7.182-7.708,2.477-15.566,4.423-23.515,1.629-4.386-1.542-8.388-5.039-9.177-9.62-.688-4,1.121-8.064.726-12.1-.684-6.975-7.638-12.054-8.5-19.009-.6-4.853,1.9-9.508,4.517-13.64s5.52-8.391,5.86-13.269c.315-4.511-.933-7.355,1.544-11.439a20.777,20.777,0,0,1,24.575-8.963c-.431-.151,5.579-5.369,6.122-5.712a26.139,26.139,0,0,1,12.351-4.15,14.7,14.7,0,0,1,11.46,4.349" fill="#3d6173"/>
        <path id="Path_9777" data-name="Path 9777" d="M162.148,265.282c-9.046,7.748-22.078,5.953-33.67.974.06-3.175.1-6.552.05-9.99-.02-1.349-.05-2.718-.111-4.077-.031-1.1-.092-2.191-.162-3.286-.061-1.166-.153-2.312-.254-3.458-.213-2.444-.517-4.838-.933-7.12a72.155,72.155,0,0,0,20.08,1.167c4.605-.477,8.885-1.633,12.13-3.814.03.873.071,1.745.1,2.617.2,5.03.416,10.162.964,15.375.132,1.318.284,2.637.466,3.965.345,2.536.781,5.081,1.339,7.647" fill="#ffbd97"/>
        <path id="Path_9778" data-name="Path 9778" d="M160.435,254.607s26.076,5.021,31.173,21.973,10.75,95.126,10.75,95.126H90.629s-7.3-72.227,5.848-92.829,32.051-22.611,32.051-22.611,1.117,8.593,17.022,8.593,14.885-10.252,14.885-10.252" fill="#ffe8e2"/>
      </g>
    </g>
    <g id="Group_1029" data-name="Group 1029">
      <g id="Group_1028" data-name="Group 1028" clip-path="url(#clip-path-8)">
        <g id="Group_997" data-name="Group 997" opacity="0.3" style="mix-blend-mode: overlay;isolation: isolate">
          <g id="Group_996" data-name="Group 996">
            <g id="Group_995" data-name="Group 995" clip-path="url(#clip-path-9)">
              <path id="Path_9779" data-name="Path 9779" d="M184.916,376.435q4.308-.891,8.6-2.006-3.282-57.448-8.215-114.7c-.57-6.613-9.209-5.252-8.638,1.36q4.97,57.561,8.253,115.342" fill="#1d1d1b"/>
            </g>
          </g>
        </g>
        <g id="Group_1000" data-name="Group 1000" opacity="0.3" style="mix-blend-mode: overlay;isolation: isolate">
          <g id="Group_999" data-name="Group 999">
            <g id="Group_998" data-name="Group 998" clip-path="url(#clip-path-10)">
              <path id="Path_9780" data-name="Path 9780" d="M164.311,379.587q4.33-.459,8.651-1.071-2.783-63.24-7.361-126.3c-.482-6.627-9.119-5.257-8.638,1.36q4.578,62.9,7.348,126.008" fill="#1d1d1b"/>
            </g>
          </g>
        </g>
        <g id="Group_1003" data-name="Group 1003" opacity="0.3" style="mix-blend-mode: overlay;isolation: isolate">
          <g id="Group_1002" data-name="Group 1002">
            <g id="Group_1001" data-name="Group 1001" clip-path="url(#clip-path-11)">
              <path id="Path_9781" data-name="Path 9781" d="M145.23,381.024q4.338-.217,8.669-.522-2.457-69.227-7.445-138.214c-.48-6.628-9.117-5.257-8.638,1.36q4.967,68.553,7.414,137.376" fill="#1d1d1b"/>
            </g>
          </g>
        </g>
        <g id="Group_1006" data-name="Group 1006" opacity="0.3" style="mix-blend-mode: overlay;isolation: isolate">
          <g id="Group_1005" data-name="Group 1005">
            <g id="Group_1004" data-name="Group 1004" clip-path="url(#clip-path-12)">
              <path id="Path_9782" data-name="Path 9782" d="M125.917,381.723q4.332-.121,8.662-.263-1.695-71.305-6.233-142.383c-.425-6.636-9.062-5.259-8.639,1.36q4.51,70.511,6.21,141.286" fill="#1d1d1b"/>
            </g>
          </g>
        </g>
        <g id="Group_1009" data-name="Group 1009" opacity="0.3" style="mix-blend-mode: overlay;isolation: isolate">
          <g id="Group_1008" data-name="Group 1008">
            <g id="Group_1007" data-name="Group 1007" clip-path="url(#clip-path-13)">
              <path id="Path_9783" data-name="Path 9783" d="M99.829,382.645q4.317-.228,8.64-.388-.083-69.87-2.538-139.632c-.235-6.652-8.872-5.256-8.638,1.36q2.448,69.263,2.536,138.66" fill="#1d1d1b"/>
            </g>
          </g>
        </g>
        <g id="Group_1012" data-name="Group 1012" opacity="0.3" style="mix-blend-mode: overlay;isolation: isolate">
          <g id="Group_1011" data-name="Group 1011">
            <g id="Group_1010" data-name="Group 1010" clip-path="url(#clip-path-14)">
              <path id="Path_9784" data-name="Path 9784" d="M197.979,269.312q-52.955.84-105.853,3.658c-5.589.3-5.056,8.966.532,8.667q52.968-2.832,106.012-3.66-.381-4.329-.691-8.665" fill="#1d1d1b"/>
            </g>
          </g>
        </g>
        <g id="Group_1015" data-name="Group 1015" opacity="0.3" style="mix-blend-mode: overlay;isolation: isolate">
          <g id="Group_1014" data-name="Group 1014">
            <g id="Group_1013" data-name="Group 1013" clip-path="url(#clip-path-15)">
              <path id="Path_9785" data-name="Path 9785" d="M199.869,290.1q-56.53.041-113.033,2.115c-.108,2.906-.225,5.807-.335,8.7q57.164-2.116,114.374-2.145-.535-4.329-1.006-8.668" fill="#1d1d1b"/>
            </g>
          </g>
        </g>
        <g id="Group_1018" data-name="Group 1018" opacity="0.3" style="mix-blend-mode: overlay;isolation: isolate">
          <g id="Group_1017" data-name="Group 1017">
            <g id="Group_1016" data-name="Group 1016" clip-path="url(#clip-path-16)">
              <path id="Path_9786" data-name="Path 9786" d="M202.124,309.306q-57.967-.611-115.919,1.3-.1,4.344-.154,8.69,58.518-1.936,117.077-1.313c-.349-2.894-.677-5.788-1-8.673" fill="#1d1d1b"/>
            </g>
          </g>
        </g>
        <g id="Group_1021" data-name="Group 1021" opacity="0.3" style="mix-blend-mode: overlay;isolation: isolate">
          <g id="Group_1020" data-name="Group 1020">
            <g id="Group_1019" data-name="Group 1019" clip-path="url(#clip-path-17)">
              <path id="Path_9787" data-name="Path 9787" d="M204.608,328.831q-59.292-1.539-118.6-.278.006,4.341.065,8.68,59.82-1.273,119.65.279c.166,0,.309-.024.464-.034q-.9-4.295-1.576-8.647" fill="#1d1d1b"/>
            </g>
          </g>
        </g>
        <g id="Group_1024" data-name="Group 1024" opacity="0.3" style="mix-blend-mode: overlay;isolation: isolate">
          <g id="Group_1023" data-name="Group 1023">
            <g id="Group_1022" data-name="Group 1022" clip-path="url(#clip-path-18)">
              <path id="Path_9788" data-name="Path 9788" d="M206.795,348.149q-59.292-1.539-118.6-.278.006,4.341.065,8.68,59.82-1.273,119.65.279c.166,0,.309-.024.464-.034q-.9-4.294-1.576-8.647" fill="#1d1d1b"/>
            </g>
          </g>
        </g>
        <g id="Group_1027" data-name="Group 1027" opacity="0.3" style="mix-blend-mode: overlay;isolation: isolate">
          <g id="Group_1026" data-name="Group 1026">
            <g id="Group_1025" data-name="Group 1025" clip-path="url(#clip-path-19)">
              <path id="Path_9789" data-name="Path 9789" d="M208.981,367.468q-59.292-1.539-118.6-.278.006,4.341.065,8.68,59.82-1.273,119.65.279c.166,0,.309-.024.464-.034q-.9-4.294-1.576-8.647" fill="#1d1d1b"/>
            </g>
          </g>
        </g>
      </g>
    </g>
    <g id="Group_1064" data-name="Group 1064">
      <g id="Group_1063" data-name="Group 1063" clip-path="url(#clip-path)">
        <g id="Group_1032" data-name="Group 1032" opacity="0.5" style="mix-blend-mode: overlay;isolation: isolate">
          <g id="Group_1031" data-name="Group 1031">
            <g id="Group_1030" data-name="Group 1030" clip-path="url(#clip-path-21)">
              <path id="Path_9791" data-name="Path 9791" d="M160.342,253.67a50.815,50.815,0,0,1-9.056,3.256,28.834,28.834,0,0,1-13.438.4,19.408,19.408,0,0,1-9.432-5.142c-.03-1.1-.091-2.19-.162-3.286a31.6,31.6,0,0,1,9.482-4.513l21.024-5.933c.2-.06.406-.111.619-.162.2,5.031.415,10.162.963,15.375" fill="#1d1d1b"/>
            </g>
          </g>
        </g>
        <path id="Path_9792" data-name="Path 9792" d="M255.792,186.744c7.881-4.805,18.186-4.879,26.584-1.048s14.891,11.242,18.547,19.717,4.622,17.947,3.809,27.142c-.716,8.09-2.861,16.235-7.546,22.869-7.28,10.307-20.156,15.826-32.774,15.99s-24.932-4.526-35.561-11.328c-6.934-4.438-7.673-9.583-8.865-17.728s.279-16.43,2.011-24.479c1.2-5.586,2.55-11.2,5.022-16.348s6.171-9.871,11.161-12.656,12.554-4.791,17.612-2.131" fill="#3d6173"/>
        <path id="Path_9793" data-name="Path 9793" d="M276.475,288.679c-8.509,6.511-20.07,3.134-30.172-3.2.284-4,.568-8.326.69-12.707.03-.994.041-1.978.051-2.972.03-2.353,0-4.7-.112-6.987-.061-1.4-.152-2.779-.284-4.128-.02-.294-.05-.578-.081-.862.386.132.781.274,1.187.406,8.63,2.87,20.638,5.1,27.778.973-.01.771-.031,1.542-.041,2.312-.091,4.544-.172,9.189-.04,13.925q.075,3.393.345,6.866c.162,2.109.385,4.229.679,6.379" fill="#ffbd97"/>
        <path id="Path_9794" data-name="Path 9794" d="M308.06,310.521a6.786,6.786,0,0,0-2.761.051,2.047,2.047,0,0,0-.562,3.876,6.8,6.8,0,0,0,2.237.748l6.262,1.3a22.6,22.6,0,0,0,7.69.7c1.445-.2,4.414-1.02,5.078-2.544.915-2.093-2.182-2.255-3.508-2.413q-7.218-.859-14.436-1.723" fill="#ffbd97"/>
        <path id="Path_9795" data-name="Path 9795" d="M275.435,275.008a39.7,39.7,0,0,1,30.3,21.438c10.1,19.914,10.581,75.347,10.581,75.347l-109.629-.086s.988-61.747,11.394-77.127,28.837-19.572,28.837-19.572,1.819,9.823,14.306,9.823,14.213-9.823,14.213-9.823" fill="#b3e3df"/>
        <g id="Group_1035" data-name="Group 1035" opacity="0.5" style="mix-blend-mode: overlay;isolation: isolate">
          <g id="Group_1034" data-name="Group 1034">
            <g id="Group_1033" data-name="Group 1033" clip-path="url(#clip-path-22)">
              <path id="Path_9796" data-name="Path 9796" d="M275.451,275.434a36.962,36.962,0,0,1-14.007,1.055,25.615,25.615,0,0,1-13.011-5.477c-.5-.416-.964-.811-1.39-1.217.031-2.353,0-4.7-.111-6.987,6,1.135,11.855.77,18.163-.011q5.2-.654,10.4-1.288c-.092,4.544-.173,9.189-.04,13.925" fill="#1d1d1b"/>
            </g>
          </g>
        </g>
        <path id="Path_9797" data-name="Path 9797" d="M270.274,71.417c-6.618,5.11-7.48,13.957-8.411,21.69-.916,9.147-3.484,15.09-10.237,21.41-2.86,2.82-5.833,5.517-8.082,8.768a25.64,25.64,0,0,0-2.652,22.708,24.5,24.5,0,0,0,6.394,9.978c-7.738-6.522-10.592-18.181-7.221-27.73,1.9-5.875,6.621-10.258,10.858-14.432C257.7,107.548,259.971,102.043,261.1,93c1.073-7.684,2.254-16.828,9.17-21.587" fill="#3d6173"/>
        <path id="Path_9798" data-name="Path 9798" d="M144.41,65.357c-2.854-8.2-5.089-16.723-5.145-25.4s2.225-17.578,7.62-24.376c4.509-5.681,10.959-9.613,17.821-11.962S178.855.415,186.1.1c8.031-.345,16.358.019,23.616,3.475,11.426,5.441,18.326,17.958,19.705,30.539S227.4,59.343,222.7,71.094q.148-.719.3-1.438c-4.8,7.082-12.833,11.577-21.12,13.709-19.752,5.082-50.761,1.253-57.467-18.008" fill="#3d6173"/>
        <path id="Path_9799" data-name="Path 9799" d="M329.613,119.079c-1.694,4.249-4.381,8.124-6.714,12.058a60.864,60.864,0,0,1-8.539,11.278,46.861,46.861,0,0,1-6.237,5.426,37.128,37.128,0,0,1-6.065,3.549,27.888,27.888,0,0,1-11.977,2.708,25.369,25.369,0,0,1-19.117-9.1,20.837,20.837,0,0,1-1.511-2.048,28.3,28.3,0,0,1-2.789-5.284,44.943,44.943,0,0,1-2.952-14.543c-.862-17.241,4.858-35.273,16.8-47.819a28.876,28.876,0,0,1,23.164-8.732c11.612,1.086,22.007,9.341,26.632,20.04,4.594,10.6,3.448,22.048-.7,32.464" fill="#ffbd97"/>
        <path id="Path_9800" data-name="Path 9800" d="M295.053,229.134c-.291,4.366-1.59,8.677-2.56,12.951a58.226,58.226,0,0,1-4.443,12.769c-3.87,7.889-10.04,15.056-18.65,17.772a24.264,24.264,0,0,1-20.06-2.647c-6.3-4.021-10.381-10.782-13.037-17.768-5.862-15.423-5.962-33.515,1.209-48.435a27.623,27.623,0,0,1,18.506-14.765c10.875-2.434,22.759,2.021,30.12,10.389,7.293,8.292,9.628,19.039,8.915,29.734" fill="#ffbd97"/>
        <path id="Path_9801" data-name="Path 9801" d="M168.653,199.364c.816,4.491.6,9.183.706,13.753a60.79,60.79,0,0,1-1.246,14.049c-1.907,8.966-6.325,17.787-14.345,22.726a25.318,25.318,0,0,1-20.968,2.426c-7.4-2.465-13.245-8.266-17.71-14.658-9.856-14.111-14.56-32.388-11.1-49.308a28.82,28.82,0,0,1,14.966-19.646c10.382-5.23,23.539-3.747,33.114,2.846,9.489,6.533,14.586,16.811,16.586,27.812" fill="#ffbd97"/>
        <path id="Path_9802" data-name="Path 9802" d="M220.931,64.567c-.079,2.213-.172,4.426-.317,6.636-1.174,18.007-8.64,38.507-27.673,44.32a33.355,33.355,0,0,1-24.37-2.162c-6.513-3.3-11.718-11.144-14.168-17.863-2.733-7.5-3.481-15.552-3.947-23.516q-.586-10.021-.629-20.063c-.013-3.119-.423-6.706.384-9.69a51.262,51.262,0,0,1,3.7-8.975,33.466,33.466,0,0,1,22.615-17.641c13.206-2.806,27.545,2.749,36.35,12.983,0,.952,2.945,3.834,3.544,4.777a42.205,42.205,0,0,1,2.938,5.488c2.166,4.876,2.179,10.923,1.926,16.145-.154,3.186-.236,6.374-.349,9.561" fill="#ffbd97"/>
        <path id="Path_9803" data-name="Path 9803" d="M311.323,39.651c4.492-5.081,11.917-7.652,18.9-6.8,4.867.6,9.661,2.917,12.233,6.831a16.719,16.719,0,0,1,2.286,10.3,17.573,17.573,0,0,1-1.443,6.291,16.567,16.567,0,0,1-8.906,8.012A27.069,27.069,0,0,1,322,65.928c-14.449-1.193-19.729-16.041-10.68-26.277" fill="#3d6173"/>
        <path id="Path_9804" data-name="Path 9804" d="M335.4,63.379c11.294,9.806,16.836,26.335,12.547,40.844a48.1,48.1,0,0,1-6.781,13.366c-2.534,4.1-6.771,7.511-7.236,12.538-.664,7.452,3.038,14.424,4.5,21.608,1.486,7.228.286,15.622-4.97,21.093,4.978-5.634,5.923-13.85,4.353-20.957-1.653-7.243-5.468-14.212-4.788-21.848.418-5.195,4.712-8.8,7.318-13a47.144,47.144,0,0,0,6.733-13.061c4.255-14.286-.9-30.427-11.676-40.582" fill="#3d6173"/>
        <path id="Path_9805" data-name="Path 9805" d="M334.587,124.115c2.542,2.465,2.36,6.9.185,9.7s-5.844,4.091-9.383,4.205-7.02-.806-10.441-1.718c.441.111,4.04-5.5,4.495-6.119,1.411-1.92,2.837-4.821,4.669-6.331,2.686-2.214,7.984-2.149,10.475.266" fill="#ffbd97"/>
        <path id="Path_9806" data-name="Path 9806" d="M261.206,95.01c-3.542.032-6.47,3.371-6.822,6.894s1.41,6.994,3.895,9.516,5.639,4.258,8.746,5.957c-.4-.224.866-6.769.965-7.531.3-2.364,1.269-5.448.984-7.805-.418-3.455-4.3-7.062-7.768-7.031" fill="#ffbd97"/>
        <path id="Path_9807" data-name="Path 9807" d="M175.338,204.549c3.025.693,4.9,4.1,4.542,7.185s-2.523,5.721-5.125,7.413a31.9,31.9,0,0,1-8.607,3.454c.381-.118.532-5.958.592-6.629.185-2.08-.063-4.9.625-6.866,1.008-2.879,5.009-5.236,7.973-4.557" fill="#ffbd97"/>
        <path id="Path_9808" data-name="Path 9808" d="M99.126,219.6c-2.64,1.632-3.319,5.465-1.983,8.266s4.233,4.6,7.241,5.365a31.931,31.931,0,0,0,9.261.494c-.4.011-2.424-5.468-2.7-6.084-.846-1.909-1.521-4.66-2.805-6.3-1.883-2.4-6.431-3.342-9.017-1.743" fill="#ffbd97"/>
        <path id="Path_9809" data-name="Path 9809" d="M299.154,234c2.857,1.213,4.109,4.9,3.213,7.87s-3.486,5.19-6.344,6.4a31.922,31.922,0,0,1-9.079,1.893c.4-.05,1.567-5.772,1.743-6.423.548-2.015.8-4.837,1.819-6.65,1.5-2.658,5.849-4.278,8.648-3.09" fill="#ffbd97"/>
        <path id="Path_9810" data-name="Path 9810" d="M227.584,234.28c-2.885,1.144-4.225,4.8-3.4,7.791s3.361,5.272,6.189,6.55a31.93,31.93,0,0,0,9.031,2.109c-.394-.059-1.428-5.808-1.589-6.462-.5-2.028-.682-4.855-1.659-6.692-1.433-2.693-5.746-4.417-8.572-3.3" fill="#ffbd97"/>
        <path id="Path_9811" data-name="Path 9811" d="M230.012,61.645c3.256,1.392,4.674,5.6,3.643,8.989s-3.994,5.911-7.258,7.284-6.843,1.759-10.364,2.132c.451-.055,1.8-6.581,2.008-7.323.63-2.3.924-5.516,2.1-7.582,1.715-3.029,6.686-4.864,9.876-3.5" fill="#ffbd97"/>
        <path id="Path_9812" data-name="Path 9812" d="M140.742,61.308c-3.295,1.3-4.835,5.463-3.9,8.879s3.82,6.025,7.042,7.492,6.79,1.958,10.3,2.433c-.45-.068-1.613-6.631-1.795-7.378-.563-2.315-.763-5.541-1.873-7.64-1.627-3.077-6.542-5.056-9.77-3.786" fill="#ffbd97"/>
        <path id="Path_9813" data-name="Path 9813" d="M338.553,96.049a30.509,30.509,0,0,1,.023,7.567c-.145,1.2-.473,2.376-.622,3.573a18.222,18.222,0,0,1-.154,2.168c-1.016,4.092-4.272,8.254-7.14,11.223a2.764,2.764,0,0,1-2.181,1.129,2.633,2.633,0,0,1-1.693-1.488c-2.973-5.136-1.686-10.749-1.941-16.362a26.069,26.069,0,0,0-27.534-24.842c-8.258,6.29-18.842,10.421-29.219,10.688,1.8-4.463,3.893-10.2,6.481-14.258a26.1,26.1,0,0,1,10.371-9.765c4.223-2.02,9.043-2.451,13.718-2.232a46.106,46.106,0,0,1,25.988,9.139,36.123,36.123,0,0,1,13.9,23.46" fill="#3d6173"/>
        <path id="Path_9814" data-name="Path 9814" d="M225.638,49.261a13.913,13.913,0,0,1-3.435,4.145,8.285,8.285,0,0,1-4.99,1.844,8.943,8.943,0,0,1-4.644-1.454c-1.986-1.225-3.491-3.561-4.542-5.644-1.973,6.025-8.8,9.445-15.133,9.222s-12.2-3.346-17.44-6.916c-4.891-3.334-9.706-6.517-13.894-10.7a35.58,35.58,0,0,1-6.56,13.9A9.678,9.678,0,0,1,151.077,57a5.617,5.617,0,0,1-3.975.005,35.614,35.614,0,0,1,19.91-44.543c12.16-5.09,26.718-2.9,37.747,4.325S222,36.591,225.638,49.261" fill="#3d6173"/>
        <path id="Path_9815" data-name="Path 9815" d="M228.392,230.786A44.509,44.509,0,0,0,250.707,202.8c4.505,8.58,11.733,16.645,20.425,20.931a46.579,46.579,0,0,0,28.3,4.089c1.54-13.315-6.049-28.869-17.6-35.663a35.671,35.671,0,0,0-37.974,1.735c-10.886,7.819-18.215,23.777-15.467,36.9" fill="#3d6173"/>
        <path id="Path_9816" data-name="Path 9816" d="M171.23,200.13a13.8,13.8,0,0,1-.349,3.7,2.138,2.138,0,0,1-1.041,1.636c-.767.3-1.568-.3-2.173-.86-3.458-3.2-7.971-9.482-13.064-9.7-3.292-.14-6.049,2.286-8.6,4.373s-5.869,4.073-8.959,2.929c-2.911-1.078-4.189-4.393-5.259-7.306s-2.721-6.177-5.771-6.75c-2.13-.4-2.2,1.78-3.155,3.728a23.373,23.373,0,0,0-1.528,6.293,18.475,18.475,0,0,1-5.394,10.3c-3.034,2.99-4.772,6.918-8.316,9.51a3.86,3.86,0,0,1-3.829.582,5.074,5.074,0,0,1-2.126-2.47c-2.462-4.928-1.642-9.728-2.244-14.953a33.574,33.574,0,0,1,3.981-20.728,35.323,35.323,0,0,1,55.518-7.115c4.016,4.03,6.6,9.179,8.646,14.429,1.574,4.052,3.5,8.139,3.661,12.4" fill="#3d6173"/>
        <path id="Path_9817" data-name="Path 9817" d="M347.07,189.729c9.3,1.774,17.953,8.313,21.388,17.138a28.327,28.327,0,0,1,1.352,15.4,28.666,28.666,0,0,1-2.455,7.406c-.915,1.854-2.762,4.089-2.964.6a30.472,30.472,0,0,1,.025-3.87,30.114,30.114,0,0,1,1.438-7.309c-1.876,3.811-3.77,7.7-5.646,11.515-.487.989-1.373,2.158-2.414,1.794-.969-.338-1.031-1.67-.89-2.687a67.791,67.791,0,0,1,4.445-16.432c-1.961,4.213-4.178,8.89-6.139,13.1a5.185,5.185,0,0,1-1.082,1.7,1.768,1.768,0,0,1-1.869.418c-.981-.458-1-1.828-.846-2.9a89.733,89.733,0,0,1,5.055-19.487c-2.321,3.934-4.634,8.072-6.955,12.006a5.109,5.109,0,0,1-1.281,1.62,1.746,1.746,0,0,1-1.946.167c-.725-.493-.749-1.539-.657-2.411.5-4.755,2.124-9.313,3.04-14.005s.7-9.57-1.6-13.764" fill="#ffbd97"/>
        <path id="Path_9818" data-name="Path 9818" d="M323.483,313.039c-8.39,5.281-17.4,9.487-26.387,13.677-1.13.527-6.277,2.27-3.591,3.384,2.005.832,5.879-.1,7.915-.547a26.8,26.8,0,0,0,7.715-2.974c-2.861,1.3-5.68,2.689-8.5,4.068-1.413.69-2.836,1.36-4.248,2.051-1.126.552-2.392.582-3.448,1.145a1.647,1.647,0,0,0-.892,1.919c.368.925,1.624,1.017,2.615.929a53.456,53.456,0,0,0,16.107-4.035c-4.642,2.019-10.219,4.614-14.861,6.633-.6.261-1.3.673-1.276,1.327.031.814,1.1,1.082,1.913,1.088a37.456,37.456,0,0,0,15.8-3.37c-2.965,1.619-6.727,3.6-9.692,5.217-.785.429-1.7,1.2-1.348,2.024.322.746,1.374.724,2.172.57a126.5,126.5,0,0,0,23.257-6.848c2.514-1.012,5.1-2.179,6.8-4.287a11.231,11.231,0,0,0,1.99-8.606,27.884,27.884,0,0,0-3.067-8.51,12.4,12.4,0,0,0-3.28-4.516,5.486,5.486,0,0,0-5.693-.339" fill="#ffbd97"/>
        <path id="Path_9819" data-name="Path 9819" d="M71.927,283.523a54.883,54.883,0,0,1,59.145-19.9,4.358,4.358,0,0,1,1.9.92,1.572,1.572,0,0,1,.341,1.933,2.347,2.347,0,0,1-1.922.7l-12.78.54a21.673,21.673,0,0,1,.951,15.3c-.2.668-.722,1.485-1.374,1.238-.361-.136-.524-.547-.646-.913q-2.3-6.884-4.6-13.766a53.632,53.632,0,0,1,2.128,12.247,21.011,21.011,0,0,1-.829,6.9c-.4,1.292-2.175,4.2-3.465,1.927-.621-1.094-.341-3.07-.407-4.311a46.288,46.288,0,0,0-.682-7.281q-.817-3.846-1.916-7.627c1.185,6.787.651,15.626-2.579,21.817-.276.529-.777,1.056-1.368.97a1.177,1.177,0,0,1-.841-.7,3.456,3.456,0,0,1-.24-1.111c-.409-3.939-.623-7.912-.98-11.86-.134-1.482-.7-3.27-2.311-3.719-1.629-.454-2.28,1.2-2.988,2.431-1.6,2.776-2.769,5.916-5.345,7.98-3.623,2.9-8.84,2.764-13.321,1.548a11.106,11.106,0,0,1-3.783-1.645,5.155,5.155,0,0,1-2.092-3.612" fill="#ffbd97"/>
        <path id="Path_9820" data-name="Path 9820" d="M306.829,50.837c-4.07-11.115,6.926-21.914,17.981-16.987a12.756,12.756,0,0,1,6.925,13.226c-.954,5.272-4.994,9.1-8.846,12.438,3.473-3.553,7.347-7.465,8.086-12.559a12.009,12.009,0,0,0-6.6-12.205c-10.46-4.689-20.647,5.372-17.548,16.087" fill="#3d6173"/>
        <path id="Path_9821" data-name="Path 9821" d="M315.005,45.784c2.187-6.826,9.438-11.456,16.541-10.94,7.275.6,13.421,6.695,14.579,13.824,1.473,8.588-5.507,17.356-14.107,18.177,8.176-1.371,14.652-9.738,13.209-18.027-1.208-6.659-6.915-12.466-13.755-13.114a16.6,16.6,0,0,0-16.467,10.08" fill="#3d6173"/>
        <path id="Path_9822" data-name="Path 9822" d="M172.637,3.456A24.881,24.881,0,0,0,154.493,6.2c-11.124,6.266-16.1,19.721-15.507,32.033A64.878,64.878,0,0,0,142.7,56.688a57.357,57.357,0,0,1-4.48-18.416C137.307,25.7,142.549,11.7,154.124,5.53a24.125,24.125,0,0,1,18.513-2.074" fill="#3d6173"/>
        <path id="Path_9823" data-name="Path 9823" d="M207.508,45.709c1.678,3.3,3.313,6.777,6.206,9.14,2.758,2.374,6.889,3.259,10.121,1.223-2.9,2.858-7.88,2.093-10.757-.452-3.024-2.508-4.589-6.231-5.57-9.911" fill="#3d6173"/>
        <path id="Path_9824" data-name="Path 9824" d="M174.61,2.245a51.991,51.991,0,0,1,24.379-.283c20.439,4.434,36.634,24.326,32.665,45.62a34.224,34.224,0,0,1-4.286,11.456,36.631,36.631,0,0,0,3.621-23.629C226.028,9.569,198.976-2.924,174.61,2.245" fill="#3d6173"/>
        <path id="Path_9825" data-name="Path 9825" d="M120.791,165.23c-8.07-4.807-19.1-1.409-22.9,7.159-1.852,4.093-1.94,8.752-3.235,13.21-1.316,4.5-3.988,8.341-6.122,12.311-5.056,8.065-3.484,17.694,1.475,25.4a24.048,24.048,0,0,1,2.806,6.319c1.038,4.48-.353,9.258,1.787,13.45a7.03,7.03,0,0,0,5.105,4.054c-4.992-.573-6.834-6.27-6.9-10.611-.15-2.283-.008-4.588-.6-6.739A23.405,23.405,0,0,0,89.34,223.7c-5.267-7.8-6.817-17.986-1.689-26.265,2.2-4.023,4.844-7.784,6.13-12.093,1.3-4.278,1.366-9.019,3.412-13.278,4.1-8.773,15.508-12.133,23.6-6.833" fill="#3d6173"/>
        <path id="Path_9826" data-name="Path 9826" d="M177.845,183.589c-1.315,10.883,8.5,17.978,12.529,27.191a21.955,21.955,0,0,1-3.19,22.077,19.807,19.807,0,0,1-5.837,4.965,20.807,20.807,0,0,0,5.447-5.262c4.406-6.048,5.771-14.5,2.662-21.385-3.839-8.963-13.817-16.826-11.611-27.586" fill="#3d6173"/>
        <path id="Path_9827" data-name="Path 9827" d="M123.858,188.026c5.889.363,6.535,7.708,9.1,11.563,3.119,5,9.286,3.069,12.041-1.34a10.432,10.432,0,0,1-2.289,3.144,6.757,6.757,0,0,1-10.579-1.245c-2.805-4.136-2.57-10.839-8.27-12.122" fill="#3d6173"/>
        <path id="Path_9828" data-name="Path 9828" d="M250.029,200.542a29.369,29.369,0,0,0,35.032,23.59,25.745,25.745,0,0,1-5.884,1.133c-14.521,1.229-28.082-10.151-29.148-24.723" fill="#3d6173"/>
        <path id="Path_9829" data-name="Path 9829" d="M256.452,186.479c20.73-8.517,44.99,4.428,48.63,26.757a35.29,35.29,0,0,1-2.348,20.67,37,37,0,0,0,1.593-20.526c-3.982-21.8-27.288-34.143-47.875-26.9" fill="#3d6173"/>
        <path id="Path_9830" data-name="Path 9830" d="M224.756,207.592c-3.038,8.873-6.5,17.88-6.611,27.351-.165,9.232,3.41,19.2,11.536,24.284a19.847,19.847,0,0,1-5.637-4.34c-11.9-13.639-6.036-32.667.712-47.295" fill="#3d6173"/>
        <path id="Path_9831" data-name="Path 9831" d="M301.335,75.55c10.14-3.537,21.884,1.9,25.994,11.791,2.175,4.831,1.88,10.282,1.425,15.4-.384,5.011-.363,10.516,2.917,14.64-3.65-3.87-3.915-9.651-3.685-14.682.264-5.064.618-10.262-1.573-14.961-3.882-9.6-15.142-14.859-25.078-12.188" fill="#577987"/>
        <path id="Path_9832" data-name="Path 9832" d="M305.174,71.891c17-5.525,32.371,10.433,27.252,27.309-1.261,4.905-2.943,10.338-.315,15.082-3.039-4.533-1.542-10.355-.433-15.257a21.759,21.759,0,0,0-26.5-27.134" fill="#577987"/>
        <path id="Path_9833" data-name="Path 9833" d="M294.26,73.836a28.293,28.293,0,0,1-23.277,9.721q-.864-.083-1.72-.2c.991-.039,2.432-.105,3.433-.211a38.737,38.737,0,0,0,21.564-9.312" fill="#577987"/>
        <path id="Path_9834" data-name="Path 9834" d="M329.4,35.639A12.579,12.579,0,0,1,337.368,56.2a11.462,11.462,0,0,1-2.856,2.454A13.3,13.3,0,0,0,329.4,35.639" fill="#577987"/>
        <path id="Path_9835" data-name="Path 9835" d="M330.81,39.784c-6.681-1.037-14.921,1.629-15.36,9.4-.746-3.615,1.7-7.31,4.881-8.948a13.469,13.469,0,0,1,10.479-.453" fill="#577987"/>
        <path id="Path_9836" data-name="Path 9836" d="M329.092,42.113a8.915,8.915,0,0,0-3.31,10.779c-3.128-3.357-1.159-9.753,3.31-10.779" fill="#577987"/>
        <path id="Path_9837" data-name="Path 9837" d="M259.6,120.871c-5.092,8.588-11.253,19.722-4.963,29.266a12.326,12.326,0,0,1-2.2-3.35c-3.934-9.163,1.538-18.8,7.165-25.916" fill="#577987"/>
        <path id="Path_9838" data-name="Path 9838" d="M260.928,130.578a27.3,27.3,0,0,0-1.768,15.674,15.367,15.367,0,0,1,1.768-15.674" fill="#577987"/>
        <path id="Path_9839" data-name="Path 9839" d="M325.986,141.749c.006,5.753,2.941,13.1-2.022,17.659,3.679-5.283.6-11.845,2.022-17.659" fill="#577987"/>
        <path id="Path_9840" data-name="Path 9840" d="M164.383,26.069c3,3.129,5.945,6.317,9.2,9.143,7.7,7,19.308,12.089,29.245,6.829a16.3,16.3,0,0,0,5-4.005,15.362,15.362,0,0,1-4.763,4.433c-10,5.958-22.362.782-30-6.689a87.525,87.525,0,0,1-8.683-9.711" fill="#577987"/>
        <path id="Path_9841" data-name="Path 9841" d="M168.592,24.172c6.489,3.95,13.446,7.89,21.137,8.557,7.462.707,15.815-2.278,19.564-9.146a14.5,14.5,0,0,1-3.28,4.8c-11.324,10.327-26.947,4.129-37.421-4.215" fill="#577987"/>
        <path id="Path_9842" data-name="Path 9842" d="M158.047,30.648A25.259,25.259,0,0,1,147.315,51.73c-.455.3-.916.588-1.379.868.7-.619,1.706-1.524,2.37-2.2a34.587,34.587,0,0,0,9.741-19.75" fill="#577987"/>
        <path id="Path_9843" data-name="Path 9843" d="M213.009,10.834c8.116,5.56,12.684,15.661,12.05,25.418l-.226,2.243L224.4,40.7q-.3,1.083-.626,2.151c.23-1.259.487-3.113.576-4.41a34.177,34.177,0,0,0-11.336-27.609" fill="#577987"/>
        <path id="Path_9844" data-name="Path 9844" d="M123.791,180.311a12.189,12.189,0,0,1,10.823,7.414c.868,1.937,1.226,4.439,2.974,5.709,1.919,1.275,4.013-.264,5.767-1.282a16.485,16.485,0,0,1,13.511-1.227,15.907,15.907,0,0,1,9.5,9.406,16.467,16.467,0,0,0-9.746-8.677,15.919,15.919,0,0,0-12.768,1.365,18.111,18.111,0,0,1-3.114,1.574c-4.461,1.5-5.832-3.372-6.835-6.586a12.313,12.313,0,0,0-10.111-7.7" fill="#577987"/>
        <path id="Path_9845" data-name="Path 9845" d="M118.319,183.033a28.417,28.417,0,0,1-9.748,25.079l-1.684,1.339-1.8,1.174q-.937.523-1.884,1.013c1-.693,2.437-1.763,3.378-2.572a34.036,34.036,0,0,0,11.735-26.033" fill="#577987"/>
        <path id="Path_9846" data-name="Path 9846" d="M132.334,164.908c.907-5.41,7.738-6.407,11.843-3.932,4.312,2.2,7.094,6.4,11,9.044,3.8,2.695,8.474,4.115,12.4,6.982,3.851,2.653,7.021,7.723,5.2,12.438,1.348-4.735-1.8-9.325-5.642-11.81-3.865-2.646-8.491-4.05-12.52-6.79-4-2.818-6.707-6.92-10.8-9.19-3.818-2.507-10.246-1.753-11.48,3.258" fill="#577987"/>
        <path id="Path_9847" data-name="Path 9847" d="M108.77,171.555c-6.288,2.325-5.578,10.065-5.961,15.56a14.783,14.783,0,0,1-1.625,5.942c-2.991,5.323-9.586,7.944-10.3,14.278a6.1,6.1,0,0,0,1.952,5.322,6.165,6.165,0,0,1-2.441-5.346c.247-6.45,7.183-9.735,9.914-14.741a13.826,13.826,0,0,0,1.591-5.543c.371-5.48.263-13.758,6.866-15.472" fill="#577987"/>
        <path id="Path_9848" data-name="Path 9848" d="M183.445,214.924A16.215,16.215,0,0,1,178.3,234.9a14.869,14.869,0,0,1-2.745,1.554,20.143,20.143,0,0,0,2.436-1.934,19.171,19.171,0,0,0,5.451-19.591" fill="#577987"/>
        <path id="Path_9849" data-name="Path 9849" d="M254.631,200.336a50.857,50.857,0,0,0,28.582,21.546c1.473.429,3.618.926,5.109,1.229a48.791,48.791,0,0,1-5.23-.754,42.323,42.323,0,0,1-28.461-22.021" fill="#577987"/>
        <path id="Path_9850" data-name="Path 9850" d="M258.855,199.182a59.146,59.146,0,0,0,28.124,10.762c1.268.143,3.1.262,4.362.336-.729.056-1.46.1-2.193.137a43.523,43.523,0,0,1-30.293-11.235" fill="#577987"/>
        <path id="Path_9851" data-name="Path 9851" d="M246.653,199.68a29.477,29.477,0,0,1-13.4,21.054l-1.7,1.013-1.774.866q-.91.381-1.828.73c.981-.546,2.4-1.38,3.349-2.016a37.364,37.364,0,0,0,15.35-21.647" fill="#577987"/>
        <path id="Path_9852" data-name="Path 9852" d="M249.154,188.288a25.906,25.906,0,0,0-20.165,19.257,26.723,26.723,0,0,0-.7,4.192,21.424,21.424,0,0,1,.223-4.289c1.467-10.12,10.4-18.545,20.646-19.16" fill="#577987"/>
        <g id="Group_1038" data-name="Group 1038" opacity="0.3" style="mix-blend-mode: overlay;isolation: isolate">
          <g id="Group_1037" data-name="Group 1037">
            <g id="Group_1036" data-name="Group 1036" clip-path="url(#clip-path-23)">
              <path id="Path_9853" data-name="Path 9853" d="M303.2,129.548c.535-2.5,4.368-3.8,8.561-2.9s7.157,3.652,6.621,6.15-4.368,3.8-8.56,2.9-7.157-3.652-6.622-6.15" fill="#1d1d1b"/>
            </g>
          </g>
        </g>
        <g id="Group_1041" data-name="Group 1041" opacity="0.3" style="mix-blend-mode: overlay;isolation: isolate">
          <g id="Group_1040" data-name="Group 1040">
            <g id="Group_1039" data-name="Group 1039" clip-path="url(#clip-path-24)">
              <path id="Path_9854" data-name="Path 9854" d="M269.313,110.3c1.684-1.922,5.663-1.189,8.888,1.637s4.474,6.675,2.79,8.6-5.664,1.188-8.888-1.638-4.474-6.674-2.79-8.6" fill="#1d1d1b"/>
            </g>
          </g>
        </g>
        <g id="Group_1044" data-name="Group 1044" opacity="0.3" style="mix-blend-mode: overlay;isolation: isolate">
          <g id="Group_1043" data-name="Group 1043">
            <g id="Group_1042" data-name="Group 1042" clip-path="url(#clip-path-25)">
              <path id="Path_9855" data-name="Path 9855" d="M200.788,81.865c-.5-2.5,2.493-5.222,6.7-6.069s8.02.5,8.525,3-2.493,5.222-6.7,6.069-8.02-.5-8.525-3" fill="#1d1d1b"/>
            </g>
          </g>
        </g>
        <g id="Group_1047" data-name="Group 1047" opacity="0.3" style="mix-blend-mode: overlay;isolation: isolate">
          <g id="Group_1046" data-name="Group 1046">
            <g id="Group_1045" data-name="Group 1045" clip-path="url(#clip-path-26)">
              <path id="Path_9856" data-name="Path 9856" d="M169.621,81.865c.505-2.5-2.493-5.222-6.7-6.069s-8.02.5-8.525,3,2.493,5.222,6.7,6.069,8.02-.5,8.525-3" fill="#1d1d1b"/>
            </g>
          </g>
        </g>
        <g id="Group_1050" data-name="Group 1050" opacity="0.3" style="mix-blend-mode: overlay;isolation: isolate">
          <g id="Group_1049" data-name="Group 1049">
            <g id="Group_1048" data-name="Group 1048" clip-path="url(#clip-path-27)">
              <path id="Path_9857" data-name="Path 9857" d="M154.341,224.842c-1.278-2.213.7-5.745,4.41-7.888s7.759-2.088,9.037.124-.7,5.745-4.41,7.889-7.759,2.088-9.037-.125" fill="#1d1d1b"/>
            </g>
          </g>
        </g>
        <g id="Group_1053" data-name="Group 1053" opacity="0.3" style="mix-blend-mode: overlay;isolation: isolate">
          <g id="Group_1052" data-name="Group 1052">
            <g id="Group_1051" data-name="Group 1051" clip-path="url(#clip-path-28)">
              <path id="Path_9858" data-name="Path 9858" d="M128.972,230.49c0-2.555-3.476-4.626-7.764-4.626s-7.763,2.071-7.763,4.626,3.476,4.626,7.763,4.626,7.764-2.071,7.764-4.626" fill="#1d1d1b"/>
            </g>
          </g>
        </g>
        <g id="Group_1056" data-name="Group 1056" opacity="0.3" style="mix-blend-mode: overlay;isolation: isolate">
          <g id="Group_1055" data-name="Group 1055">
            <g id="Group_1054" data-name="Group 1054" clip-path="url(#clip-path-29)">
              <path id="Path_9859" data-name="Path 9859" d="M252.2,246.953c0-2.555-3.476-4.626-7.764-4.626s-7.763,2.071-7.763,4.626,3.476,4.626,7.763,4.626,7.764-2.071,7.764-4.626" fill="#1d1d1b"/>
            </g>
          </g>
        </g>
        <g id="Group_1059" data-name="Group 1059" opacity="0.3" style="mix-blend-mode: overlay;isolation: isolate">
          <g id="Group_1058" data-name="Group 1058">
            <g id="Group_1057" data-name="Group 1057" clip-path="url(#clip-path-30)">
              <path id="Path_9860" data-name="Path 9860" d="M288.275,247.627c0-2.555-3.476-4.626-7.764-4.626s-7.763,2.071-7.763,4.626,3.476,4.626,7.763,4.626,7.764-2.071,7.764-4.626" fill="#1d1d1b"/>
            </g>
          </g>
        </g>
        <path id="Path_9861" data-name="Path 9861" d="M202.451,57c.09,2.219,9.188,3.406,9.431.754s-9.521-2.973-9.431-.754" fill="#32586b"/>
        <path id="Path_9862" data-name="Path 9862" d="M171.527,56.28c-.09,2.219-9.188,3.406-9.431.754s9.521-2.973,9.431-.754" fill="#32586b"/>
        <path id="Path_9863" data-name="Path 9863" d="M201.764,66.29a4.627,4.627,0,0,1,.8-3.242A1.373,1.373,0,0,1,204.1,62.6a1.921,1.921,0,0,1,.843,1.79,9.564,9.564,0,0,1-.231,2.45,3.117,3.117,0,0,1-.555,1.305,1.343,1.343,0,0,1-1.255.524,1.4,1.4,0,0,1-.993-1.169,10.5,10.5,0,0,1-.142-1.209" fill="#32586b"/>
        <path id="Path_9864" data-name="Path 9864" d="M167.826,66.29a4.627,4.627,0,0,1,.8-3.242,1.373,1.373,0,0,1,1.531-.449,1.921,1.921,0,0,1,.843,1.79,9.563,9.563,0,0,1-.231,2.45,3.128,3.128,0,0,1-.554,1.305,1.345,1.345,0,0,1-1.256.524,1.4,1.4,0,0,1-.993-1.169,10.5,10.5,0,0,1-.142-1.209" fill="#32586b"/>
        <path id="Path_9865" data-name="Path 9865" d="M274.361,228.217c.09,2.219,9.188,3.406,9.431.754s-9.521-2.973-9.431-.754" fill="#32586b"/>
        <path id="Path_9866" data-name="Path 9866" d="M252.564,227.5c-.09,2.219-9.188,3.406-9.431.754s9.521-2.973,9.431-.754" fill="#32586b"/>
        <path id="Path_9867" data-name="Path 9867" d="M274.638,237.509a4.627,4.627,0,0,1,.8-3.242,1.373,1.373,0,0,1,1.531-.449,1.921,1.921,0,0,1,.843,1.79,9.564,9.564,0,0,1-.231,2.45,3.128,3.128,0,0,1-.554,1.305,1.345,1.345,0,0,1-1.256.524,1.4,1.4,0,0,1-.993-1.169,10.5,10.5,0,0,1-.142-1.209" fill="#32586b"/>
        <path id="Path_9868" data-name="Path 9868" d="M249.828,237.509a4.627,4.627,0,0,1,.8-3.242,1.373,1.373,0,0,1,1.531-.449,1.921,1.921,0,0,1,.843,1.79,9.563,9.563,0,0,1-.231,2.45,3.128,3.128,0,0,1-.554,1.305,1.345,1.345,0,0,1-1.256.524,1.4,1.4,0,0,1-.993-1.169,10.5,10.5,0,0,1-.142-1.209" fill="#32586b"/>
        <path id="Path_9869" data-name="Path 9869" d="M149.079,200.211c.779,2.08,9.792.363,9.194-2.232s-9.973.152-9.194,2.232" fill="#32586b"/>
        <path id="Path_9870" data-name="Path 9870" d="M120.5,206.154c.608,2.136-7.662,6.108-8.723,3.665s8.115-5.8,8.723-3.665" fill="#32586b"/>
        <path id="Path_9871" data-name="Path 9871" d="M152.851,210.784a4.628,4.628,0,0,1-.251-3.331,1.374,1.374,0,0,1,1.313-.9c.693.071,1.12.783,1.361,1.437a9.6,9.6,0,0,1,.546,2.4,3.119,3.119,0,0,1-.119,1.413,1.343,1.343,0,0,1-1.029.89,1.4,1.4,0,0,1-1.308-.8,10.33,10.33,0,0,1-.513-1.1" fill="#32586b"/>
        <path id="Path_9872" data-name="Path 9872" d="M121.628,218.351a4.628,4.628,0,0,1-.251-3.331,1.374,1.374,0,0,1,1.313-.9c.693.071,1.12.783,1.361,1.437a9.6,9.6,0,0,1,.546,2.4,3.119,3.119,0,0,1-.119,1.413,1.343,1.343,0,0,1-1.029.89,1.4,1.4,0,0,1-1.308-.8,10.328,10.328,0,0,1-.513-1.1" fill="#32586b"/>
        <path id="Path_9873" data-name="Path 9873" d="M313.582,108.089c-1.294,1.8,5.147,8.338,6.971,6.4s-5.677-8.2-6.971-6.4" fill="#32586b"/>
        <path id="Path_9874" data-name="Path 9874" d="M288.371,97.813c-.556,2.15-9.7,1.392-9.378-1.251s9.934-.9,9.378,1.251" fill="#32586b"/>
        <path id="Path_9875" data-name="Path 9875" d="M307.968,116.891a4.63,4.63,0,0,1,1.908-2.742,1.373,1.373,0,0,1,1.59.128,1.923,1.923,0,0,1,.148,1.973,9.568,9.568,0,0,1-1.092,2.206,3.1,3.1,0,0,1-.984,1.021,1.345,1.345,0,0,1-1.36.041,1.4,1.4,0,0,1-.509-1.447,10.166,10.166,0,0,1,.3-1.18" fill="#32586b"/>
        <path id="Path_9876" data-name="Path 9876" d="M281.453,105.757a4.63,4.63,0,0,1,1.908-2.742,1.373,1.373,0,0,1,1.59.128,1.923,1.923,0,0,1,.148,1.973,9.567,9.567,0,0,1-1.092,2.206,3.1,3.1,0,0,1-.984,1.021,1.345,1.345,0,0,1-1.36.041,1.4,1.4,0,0,1-.509-1.447,10.166,10.166,0,0,1,.3-1.18" fill="#32586b"/>
        <path id="Path_9877" data-name="Path 9877" d="M299.44,107.689q-2.084,8.165-4.166,16.33a6.228,6.228,0,0,1-1.128,2.63,3.245,3.245,0,0,1-4.9-.3" fill="none" stroke="#de8f62" stroke-linejoin="round" stroke-width="1.028"/>
        <path id="Path_9878" data-name="Path 9878" d="M326.039,129.645a6.426,6.426,0,0,1,7.726-1.248" fill="none" stroke="#de8f62" stroke-linejoin="round" stroke-width="1.028"/>
        <path id="Path_9879" data-name="Path 9879" d="M328.946,128.083l2.241,4.312" fill="none" stroke="#de8f62" stroke-linejoin="round" stroke-width="1.028"/>
        <path id="Path_9880" data-name="Path 9880" d="M265.579,103.912a5.848,5.848,0,0,0-6.638-4.138" fill="none" stroke="#de8f62" stroke-linejoin="round" stroke-width="1.028"/>
        <path id="Path_9881" data-name="Path 9881" d="M263.373,100.808l-5.037,2.9" fill="none" stroke="#de8f62" stroke-linejoin="round" stroke-width="1.028"/>
        <path id="Path_9882" data-name="Path 9882" d="M278.159,124.65a12.485,12.485,0,0,0,6.727,12.954" fill="none" stroke="#de8f62" stroke-linejoin="round" stroke-width="1.028"/>
        <path id="Path_9883" data-name="Path 9883" d="M222.115,68.915a6.147,6.147,0,0,1,8.969-2.073" fill="none" stroke="#de8f62" stroke-linejoin="round" stroke-width="1.028"/>
        <path id="Path_9884" data-name="Path 9884" d="M225.6,65.842a9.841,9.841,0,0,1,2.236,5.1" fill="none" stroke="#de8f62" stroke-linejoin="round" stroke-width="1.028"/>
        <path id="Path_9885" data-name="Path 9885" d="M148.463,67.677a6.126,6.126,0,0,0-9.5.3" fill="none" stroke="#de8f62" stroke-linejoin="round" stroke-width="1.028"/>
        <path id="Path_9886" data-name="Path 9886" d="M144.455,65.841a12.361,12.361,0,0,0-2.133,5.7" fill="none" stroke="#de8f62" stroke-linejoin="round" stroke-width="1.028"/>
        <path id="Path_9887" data-name="Path 9887" d="M187.874,60.671q1.253,9.546,2.506,19.093c.187,1.432.32,3.06-.63,4.147-1.243,1.421-3.5,1.061-5.327.581" fill="none" stroke="#de8f62" stroke-linejoin="round" stroke-width="1.028"/>
        <path id="Path_9888" data-name="Path 9888" d="M168.24,87.49a14.978,14.978,0,0,0,12.252,13.577" fill="none" stroke="#de8f62" stroke-linejoin="round" stroke-width="1.028"/>
        <path id="Path_9889" data-name="Path 9889" d="M171.07,212.176a6.135,6.135,0,0,1,6.3-2.67" fill="none" stroke="#de8f62" stroke-linejoin="round" stroke-width="1.028"/>
        <path id="Path_9890" data-name="Path 9890" d="M173.506,210.1l2.38,3.319" fill="none" stroke="#de8f62" stroke-linejoin="round" stroke-width="1.028"/>
        <path id="Path_9891" data-name="Path 9891" d="M105.646,224.628a5.377,5.377,0,0,0-6.425-.194" fill="none" stroke="#de8f62" stroke-linejoin="round" stroke-width="1.028"/>
        <path id="Path_9892" data-name="Path 9892" d="M102.754,223.54l-2.394,3.933" fill="none" stroke="#de8f62" stroke-linejoin="round" stroke-width="1.028"/>
        <path id="Path_9893" data-name="Path 9893" d="M139.81,210.82a17.94,17.94,0,0,0,4.756,10.63c.9.958,1.988,2.013,1.884,3.324a2.843,2.843,0,0,1-1.67,2.18,8.4,8.4,0,0,1-2.781.652" fill="none" stroke="#de8f62" stroke-linejoin="round" stroke-width="1.028"/>
        <path id="Path_9894" data-name="Path 9894" d="M132.042,231.4a11.493,11.493,0,0,0,12.137,6.95" fill="none" stroke="#de8f62" stroke-linejoin="round" stroke-width="1.028"/>
        <path id="Path_9895" data-name="Path 9895" d="M293.643,240.34a5.314,5.314,0,0,1,6.154-1.459" fill="none" stroke="#de8f62" stroke-linejoin="round" stroke-width="1.028"/>
        <path id="Path_9896" data-name="Path 9896" d="M296.167,238.939a4.591,4.591,0,0,1,2.223,3.291" fill="none" stroke="#de8f62" stroke-linejoin="round" stroke-width="1.028"/>
        <path id="Path_9897" data-name="Path 9897" d="M231.907,239.493a4.511,4.511,0,0,0-5.518-.262" fill="none" stroke="#de8f62" stroke-linejoin="round" stroke-width="1.028"/>
        <path id="Path_9898" data-name="Path 9898" d="M229.8,238.621a6.046,6.046,0,0,0-2.111,3.5" fill="none" stroke="#de8f62" stroke-linejoin="round" stroke-width="1.028"/>
        <path id="Path_9899" data-name="Path 9899" d="M263.578,234.4a24.424,24.424,0,0,0,2.186,12.717c.587,1.249,1.268,2.781.47,3.907-.7.984-2.114,1.03-3.318.979" fill="none" stroke="#de8f62" stroke-linejoin="round" stroke-width="1.028"/>
        <path id="Path_9900" data-name="Path 9900" d="M252.525,252.933a8.325,8.325,0,0,0,9.5,7.408" fill="none" stroke="#de8f62" stroke-linejoin="round" stroke-width="1.028"/>
        <path id="Path_9901" data-name="Path 9901" d="M234.031,158.509q.948,15.7,1.9,31.4" fill="none" stroke="#3d6173" stroke-linejoin="round" stroke-width="1.028"/>
        <path id="Path_9902" data-name="Path 9902" d="M234.641,169.347a23.71,23.71,0,0,1,6.521-12.788" fill="none" stroke="#3d6173" stroke-linejoin="round" stroke-width="1.028"/>
        <line id="Line_1" data-name="Line 1" y1="33.498" x2="31.624" transform="translate(326.602 276.225)" fill="none" stroke="#e86171" stroke-linejoin="round" stroke-width="1.028"/>
        <path id="Path_9903" data-name="Path 9903" d="M352.426,281.119c-4.441-17.548-6.167-25.279-18.792-47.848" fill="none" stroke="#e86171" stroke-linejoin="round" stroke-width="1.028"/>
        <path id="Path_9904" data-name="Path 9904" d="M305.869,328.434a35.1,35.1,0,0,0,8.534-3.969" fill="none" stroke="#de8f62" stroke-linejoin="round" stroke-width="1.028"/>
        <path id="Path_9905" data-name="Path 9905" d="M309.453,333.318l6.966-3.26" fill="none" stroke="#de8f62" stroke-linejoin="round" stroke-width="1.028"/>
        <path id="Path_9906" data-name="Path 9906" d="M312.036,338.381l6.571-2.8" fill="none" stroke="#de8f62" stroke-linejoin="round" stroke-width="1.028"/>
        <path id="Path_9907" data-name="Path 9907" d="M316.812,316.984l3.542-1.667" fill="none" stroke="#de8f62" stroke-linejoin="round" stroke-width="1.028"/>
        <path id="Path_9908" data-name="Path 9908" d="M259.336,161.756a24.934,24.934,0,0,0,43.713,3.607" fill="none" stroke="#e86171" stroke-linejoin="round" stroke-width="1.028"/>
        <path id="Path_9909" data-name="Path 9909" d="M260.1,163.951l-4.085,2.676" fill="none" stroke="#e86171" stroke-linejoin="round" stroke-width="1.028"/>
        <path id="Path_9910" data-name="Path 9910" d="M262.917,168.036l-3.522,3.24" fill="none" stroke="#e86171" stroke-linejoin="round" stroke-width="1.028"/>
        <path id="Path_9911" data-name="Path 9911" d="M266.72,171.276l-2.536,3.381" fill="none" stroke="#e86171" stroke-linejoin="round" stroke-width="1.028"/>
        <path id="Path_9912" data-name="Path 9912" d="M270.864,174.189,268.77,178" fill="none" stroke="#e86171" stroke-linejoin="round" stroke-width="1.028"/>
        <path id="Path_9913" data-name="Path 9913" d="M275.459,176.209l-1.566,3.938" fill="none" stroke="#e86171" stroke-linejoin="round" stroke-width="1.028"/>
        <path id="Path_9914" data-name="Path 9914" d="M280.651,176.347q-.139,2.535-.28,5.071" fill="none" stroke="#e86171" stroke-linejoin="round" stroke-width="1.028"/>
        <path id="Path_9915" data-name="Path 9915" d="M286.283,176.208l.282,5.071" fill="none" stroke="#e86171" stroke-linejoin="round" stroke-width="1.028"/>
        <path id="Path_9916" data-name="Path 9916" d="M291.182,175.1l1.465,4.489" fill="none" stroke="#e86171" stroke-linejoin="round" stroke-width="1.028"/>
        <path id="Path_9917" data-name="Path 9917" d="M295.7,172.57l2.55,3.794" fill="none" stroke="#e86171" stroke-linejoin="round" stroke-width="1.028"/>
        <path id="Path_9918" data-name="Path 9918" d="M299.421,169.992l2.757,3.17" fill="none" stroke="#e86171" stroke-linejoin="round" stroke-width="1.028"/>
        <path id="Path_9919" data-name="Path 9919" d="M302.375,166.61l3.289,2.784" fill="none" stroke="#e86171" stroke-linejoin="round" stroke-width="1.028"/>
        <path id="Path_9920" data-name="Path 9920" d="M161.262,124.909a24.619,24.619,0,0,0,43.339,1.242" fill="none" stroke="#3d6173" stroke-linejoin="round" stroke-width="1.028"/>
        <g id="Group_1062" data-name="Group 1062" opacity="0.3" style="mix-blend-mode: overlay;isolation: isolate">
          <g id="Group_1061" data-name="Group 1061">
            <g id="Group_1060" data-name="Group 1060" clip-path="url(#clip-path-31)">
              <path id="Path_9921" data-name="Path 9921" d="M284.668,282.837c-2.469,0-2.77,3.85-.277,3.85,2.468,0,2.769-3.85.277-3.85" fill="#1d1d1b"/>
              <path id="Path_9922" data-name="Path 9922" d="M276.427,294.511c-2.469,0-2.77,3.85-.277,3.85,2.468,0,2.769-3.85.277-3.85" fill="#1d1d1b"/>
              <path id="Path_9923" data-name="Path 9923" d="M264.753,288.331c-2.469,0-2.77,3.85-.277,3.85,2.468,0,2.769-3.85.277-3.85" fill="#1d1d1b"/>
              <path id="Path_9924" data-name="Path 9924" d="M256.054,297.029c-2.469,0-2.77,3.85-.277,3.85,2.468,0,2.769-3.85.277-3.85" fill="#1d1d1b"/>
              <path id="Path_9925" data-name="Path 9925" d="M248.271,286.271c-2.469,0-2.77,3.85-.277,3.85,2.468,0,2.769-3.85.277-3.85" fill="#1d1d1b"/>
              <path id="Path_9926" data-name="Path 9926" d="M237.742,296.343c-2.468,0-2.77,3.85-.277,3.85,2.468,0,2.769-3.85.277-3.85" fill="#1d1d1b"/>
              <path id="Path_9927" data-name="Path 9927" d="M234.308,282.837h-.458a1.93,1.93,0,1,0-.277,3.85h.458a1.93,1.93,0,0,0,.277-3.85" fill="#1d1d1b"/>
              <path id="Path_9928" data-name="Path 9928" d="M295.426,292.68c-2.469,0-2.77,3.85-.277,3.85,2.468,0,2.769-3.85.277-3.85" fill="#1d1d1b"/>
              <path id="Path_9929" data-name="Path 9929" d="M290.619,305.957c-2.469,0-2.77,3.85-.277,3.85,2.468,0,2.769-3.85.277-3.85" fill="#1d1d1b"/>
              <path id="Path_9930" data-name="Path 9930" d="M268.873,306.872c-2.469,0-2.77,3.85-.277,3.85,2.468,0,2.769-3.85.277-3.85" fill="#1d1d1b"/>
              <path id="Path_9931" data-name="Path 9931" d="M247.814,306.872c-2.469,0-2.77,3.85-.277,3.85,2.468,0,2.769-3.85.277-3.85" fill="#1d1d1b"/>
              <path id="Path_9932" data-name="Path 9932" d="M223.549,300.005c-2.469,0-2.77,3.85-.277,3.85,2.468,0,2.769-3.85.277-3.85" fill="#1d1d1b"/>
              <path id="Path_9933" data-name="Path 9933" d="M235.849,315.132l-.469-.446a1.978,1.978,0,0,0-2.72-.231,1.953,1.953,0,0,0-.23,2.72l.469.447a1.979,1.979,0,0,0,2.72.23,1.953,1.953,0,0,0,.23-2.72" fill="#1d1d1b"/>
              <path id="Path_9934" data-name="Path 9934" d="M258.8,316.715h-.229a1.93,1.93,0,1,0-.277,3.85h.229a1.93,1.93,0,0,0,.277-3.85" fill="#1d1d1b"/>
              <path id="Path_9935" data-name="Path 9935" d="M281.234,316.715h-.687a1.93,1.93,0,0,0-.277,3.85h.687a1.93,1.93,0,0,0,.277-3.85" fill="#1d1d1b"/>
              <path id="Path_9936" data-name="Path 9936" d="M304.125,312.366c-2.469,0-2.77,3.85-.277,3.85,2.468,0,2.769-3.85.277-3.85" fill="#1d1d1b"/>
              <path id="Path_9937" data-name="Path 9937" d="M271.162,326.787c-2.468,0-2.77,3.85-.277,3.85,2.468,0,2.769-3.85.277-3.85" fill="#1d1d1b"/>
              <path id="Path_9938" data-name="Path 9938" d="M246.669,324.269c-2.468,0-2.77,3.85-.277,3.85,2.468,0,2.769-3.85.277-3.85" fill="#1d1d1b"/>
              <path id="Path_9939" data-name="Path 9939" d="M216.911,312.366c-2.468,0-2.77,3.85-.277,3.85,2.468,0,2.769-3.85.277-3.85" fill="#1d1d1b"/>
              <path id="Path_9940" data-name="Path 9940" d="M224.694,326.329c-2.468,0-2.77,3.85-.277,3.85,2.468,0,2.769-3.85.277-3.85" fill="#1d1d1b"/>
              <path id="Path_9941" data-name="Path 9941" d="M259.259,337.088c-2.468,0-2.77,3.85-.277,3.85,2.468,0,2.769-3.85.277-3.85" fill="#1d1d1b"/>
              <path id="Path_9942" data-name="Path 9942" d="M286.041,333.654c-2.468,0-2.77,3.85-.277,3.85,2.468,0,2.769-3.85.277-3.85" fill="#1d1d1b"/>
              <path id="Path_9943" data-name="Path 9943" d="M235.91,335.486c-2.468,0-2.77,3.85-.277,3.85,2.468,0,2.769-3.85.277-3.85" fill="#1d1d1b"/>
              <path id="Path_9944" data-name="Path 9944" d="M213.706,333.426c-2.469,0-2.77,3.85-.277,3.85,2.468,0,2.769-3.85.277-3.85" fill="#1d1d1b"/>
              <path id="Path_9945" data-name="Path 9945" d="M274.1,346.624c-2.558,0-2.871,3.99-.288,3.99,2.559,0,2.871-3.99.288-3.99" fill="#1d1d1b"/>
              <path id="Path_9946" data-name="Path 9946" d="M245.873,347.128c-2.558,0-2.871,3.99-.288,3.99,2.559,0,2.871-3.99.288-3.99" fill="#1d1d1b"/>
              <path id="Path_9947" data-name="Path 9947" d="M221.678,344.1h-.252a2,2,0,1,0-.288,3.99h.253a2,2,0,0,0,.287-3.99" fill="#1d1d1b"/>
              <path id="Path_9948" data-name="Path 9948" d="M232.011,358.721c-2.558,0-2.871,3.99-.288,3.99,2.559,0,2.871-3.99.288-3.99" fill="#1d1d1b"/>
              <path id="Path_9949" data-name="Path 9949" d="M262.912,359.863a2.06,2.06,0,0,0-2.663-.955l-.756.252a2,2,0,0,0-.955,2.662,2.061,2.061,0,0,0,2.663.956l.756-.252a2.006,2.006,0,0,0,.955-2.663" fill="#1d1d1b"/>
              <path id="Path_9950" data-name="Path 9950" d="M287.458,357.461c-2.558,0-2.871,3.99-.288,3.99,2.559,0,2.871-3.99.288-3.99" fill="#1d1d1b"/>
              <path id="Path_9951" data-name="Path 9951" d="M297.791,345.616c-2.558,0-2.871,3.99-.288,3.99,2.559,0,2.871-3.99.288-3.99" fill="#1d1d1b"/>
              <path id="Path_9952" data-name="Path 9952" d="M309.132,357.713c-2.558,0-2.871,3.99-.287,3.99,2.558,0,2.87-3.99.287-3.99" fill="#1d1d1b"/>
              <path id="Path_9953" data-name="Path 9953" d="M211.345,357.965c-2.558,0-2.871,3.99-.288,3.99,2.559,0,2.871-3.99.288-3.99" fill="#1d1d1b"/>
              <path id="Path_9954" data-name="Path 9954" d="M246.629,367.29c-2.558,0-2.871,3.99-.287,3.99,2.558,0,2.87-3.99.287-3.99" fill="#1d1d1b"/>
              <path id="Path_9955" data-name="Path 9955" d="M275.36,366.786c-2.558,0-2.871,3.99-.287,3.99,2.558,0,2.87-3.99.287-3.99" fill="#1d1d1b"/>
              <path id="Path_9956" data-name="Path 9956" d="M299.807,366.282c-2.558,0-2.871,3.99-.288,3.99,2.559,0,2.871-3.99.288-3.99" fill="#1d1d1b"/>
              <path id="Path_9957" data-name="Path 9957" d="M220.418,366.534c-2.558,0-2.871,3.99-.288,3.99,2.559,0,2.871-3.99.288-3.99" fill="#1d1d1b"/>
            </g>
          </g>
        </g>
        <path id="Path_9958" data-name="Path 9958" d="M365.789,219.148a26.914,26.914,0,0,0,1.472-10.551" fill="none" stroke="#de8f62" stroke-linejoin="round" stroke-width="1.028"/>
        <path id="Path_9959" data-name="Path 9959" d="M361.207,213.742a40.593,40.593,0,0,0,1.249-13.524" fill="none" stroke="#de8f62" stroke-linejoin="round" stroke-width="1.028"/>
        <path id="Path_9960" data-name="Path 9960" d="M356.179,206.064a27.565,27.565,0,0,0,.6-9.548" fill="none" stroke="#de8f62" stroke-linejoin="round" stroke-width="1.028"/>
        <path id="Path_9961" data-name="Path 9961" d="M77.552,230.555,94.371,265.5" fill="none" stroke="#3d6173" stroke-linejoin="round" stroke-width="1.028"/>
        <path id="Path_9962" data-name="Path 9962" d="M99.594,276.673a13.379,13.379,0,0,0-7.142,1.29" fill="none" stroke="#de8f62" stroke-linejoin="round" stroke-width="1.028"/>
        <path id="Path_9963" data-name="Path 9963" d="M83.684,243.941l9.212-13.4" fill="none" stroke="#3d6173" stroke-linejoin="round" stroke-width="1.028"/>
        <path id="Path_9964" data-name="Path 9964" d="M112.778,268.918a9.943,9.943,0,0,0-6.94-1.635" fill="none" stroke="#de8f62" stroke-linejoin="round" stroke-width="1.028"/>
        <path id="Path_9965" data-name="Path 9965" d="M107.214,271.547a14.974,14.974,0,0,0-6.867-.416l.188-.015" fill="none" stroke="#de8f62" stroke-linejoin="round" stroke-width="1.028"/>
        <path id="Path_9966" data-name="Path 9966" d="M118.057,266.717a11.4,11.4,0,0,0-8.363-3.812" fill="none" stroke="#de8f62" stroke-linejoin="round" stroke-width="1.028"/>
      </g>
    </g>
  </g>
</svg>
