<svg xmlns="http://www.w3.org/2000/svg" width="35.535" height="35.424" viewBox="0 0 35.535 35.424">
  <path id="Path_8902" data-name="Path 8902" d="M263.323,250.771a8.878,8.878,0,1,1,2.461-6.151v2.641a2.641,2.641,0,1,0,5.283,0V244.62a14.2,14.2,0,1,0-8.756,13.1A1.78,1.78,0,0,1,263.9,260.9a1.848,1.848,0,0,1-.254.109,17.739,17.739,0,0,1-8.179,1.289,18.225,18.225,0,0,1-7.616-2.388,17.376,17.376,0,0,1-7.359-8.488,17.72,17.72,0,1,1,32.741-13.567,16.249,16.249,0,0,1,1.447,6.765v2.641a6.222,6.222,0,0,1-11.36,3.51Zm-6.367-.833a5.318,5.318,0,1,0-5.318-5.318A5.326,5.326,0,0,0,256.956,249.938Z" transform="translate(-239.148 -226.921)" fill="#fff"/>
</svg>
