<svg xmlns="http://www.w3.org/2000/svg" width="45.89" height="44.5" viewBox="0 0 45.89 44.5">
  <path id="Path_18435" data-name="Path 18435" d="M799.341,118.833c0,11.97-10.086,21.676-22.527,21.676a23.108,23.108,0,0,1-10.89-2.7l-12.473,3.844,4.066-11.629a20.966,20.966,0,0,1-3.231-11.193c0-11.972,10.085-21.678,22.529-21.678s22.527,9.706,22.527,21.678Zm-22.527-18.225c-10.446,0-18.941,8.174-18.941,18.225a17.674,17.674,0,0,0,3.607,10.686l-2.365,6.767,7.277-2.242a19.368,19.368,0,0,0,10.422,3.013c10.442,0,18.939-8.175,18.939-18.223s-8.5-18.225-18.939-18.225Zm11.376,23.218c-.14-.222-.508-.355-1.058-.621s-3.269-1.552-3.775-1.728-.876-.266-1.242.265-1.427,1.729-1.75,2.083-.643.4-1.2.133a15.218,15.218,0,0,1-4.442-2.636,16.247,16.247,0,0,1-3.073-3.68c-.32-.531-.032-.818.242-1.083.249-.239.553-.621.829-.93a3.626,3.626,0,0,0,.553-.889.94.94,0,0,0-.047-.93c-.137-.265-1.242-2.88-1.7-3.945s-.918-1.022-1.242-1.022a8.189,8.189,0,0,0-.917.093,3.175,3.175,0,0,0-1.612.664,5.867,5.867,0,0,0-1.932,4.43c0,2.614,1.977,5.142,2.253,5.494s3.819,5.9,9.434,8.023,5.614,1.417,6.627,1.328,3.266-1.285,3.727-2.525a4.29,4.29,0,0,0,.324-2.525Zm0,0" transform="translate(-753.451 -97.155)" fill="#fff" fill-rule="evenodd"/>
</svg>
