<svg xmlns="http://www.w3.org/2000/svg" width="2477.672" height="845.268" viewBox="0 0 2477.672 845.268">
  <g id="mic" transform="translate(-101.8 -81.245)">
    <g id="Group_7789" data-name="Group 7789" transform="translate(129.27 508.719)">
      <path id="Path_16907" data-name="Path 16907" d="M247.344,235.444a2.867,2.867,0,0,1-.5,1.748,4.448,4.448,0,0,1-1.873,1.249,12.192,12.192,0,0,1-3.621.749,38.768,38.768,0,0,1-5.744.25c-2.248,0-4.245-.125-5.744-.25a35.51,35.51,0,0,1-3.621-.749,4.447,4.447,0,0,1-1.873-1.249,2.983,2.983,0,0,1-.624-1.748V135.3h-.25L187.784,235.444a3.676,3.676,0,0,1-1.249,2,6.11,6.11,0,0,1-2.372,1.249,14.585,14.585,0,0,1-3.746.624c-1.5.125-3.371.125-5.494.125s-4-.125-5.494-.25a14.15,14.15,0,0,1-3.746-.749,8.415,8.415,0,0,1-2.372-1.249,3.033,3.033,0,0,1-1.124-1.748L127.724,135.3H127.6V235.444a2.867,2.867,0,0,1-.5,1.748,4.23,4.23,0,0,1-2,1.249,13.147,13.147,0,0,1-3.621.749,37.907,37.907,0,0,1-5.744.25c-2.248,0-4.245-.125-5.744-.25a35.5,35.5,0,0,1-3.621-.749,4.449,4.449,0,0,1-1.873-1.249,2.867,2.867,0,0,1-.5-1.748V125.689c0-3.247.874-5.744,2.622-7.367a9.222,9.222,0,0,1,6.868-2.622h16.357a33.017,33.017,0,0,1,7.492.749,13.139,13.139,0,0,1,9.115,6.743,29.221,29.221,0,0,1,2.622,6.743l26.6,73.42h.375l27.595-73.17a44.246,44.246,0,0,1,2.747-6.743,16.273,16.273,0,0,1,3.371-4.5,10.213,10.213,0,0,1,4.62-2.372,23.111,23.111,0,0,1,6.243-.749h16.857a14.106,14.106,0,0,1,4.37.624,7.442,7.442,0,0,1,3,2,8.455,8.455,0,0,1,1.748,3.121,14.473,14.473,0,0,1,.624,4.245v109.63Z" transform="translate(-104 -112.953)" fill="#ea6524"/>
      <path id="Path_16908" data-name="Path 16908" d="M235.8,178.057a91.654,91.654,0,0,1-3.746,27.345,54.428,54.428,0,0,1-11.363,20.478,49.283,49.283,0,0,1-18.6,12.861c-7.367,3-15.983,4.37-25.6,4.37s-17.981-1.249-25.1-3.746a43.707,43.707,0,0,1-17.856-11.487,48.677,48.677,0,0,1-10.738-19.6,99.313,99.313,0,0,1-3.621-28.219,88.831,88.831,0,0,1,3.746-26.846,55.867,55.867,0,0,1,11.363-20.353A49.283,49.283,0,0,1,152.893,120c7.367-3,15.983-4.5,25.722-4.5a74.582,74.582,0,0,1,24.723,3.746,43.468,43.468,0,0,1,17.855,11.363,50.756,50.756,0,0,1,10.863,19.479A94.8,94.8,0,0,1,235.8,178.057Zm-26.346,1.374a94.488,94.488,0,0,0-1.5-17.606,36.906,36.906,0,0,0-5.244-13.61,25.23,25.23,0,0,0-9.739-8.74,34.05,34.05,0,0,0-15.233-3.122c-6.118,0-11.238,1.124-15.358,3.5a28.438,28.438,0,0,0-9.989,9.24,37.9,37.9,0,0,0-5.369,13.61,85.464,85.464,0,0,0-1.623,16.357,99.148,99.148,0,0,0,1.5,18.105,38.87,38.87,0,0,0,5.119,13.735,23.586,23.586,0,0,0,9.739,8.74c4.121,2,9.115,3,15.358,3q9.177,0,15.358-3.371a26.644,26.644,0,0,0,9.989-9.365,39.49,39.49,0,0,0,5.369-13.735A80.091,80.091,0,0,0,209.457,179.43Z" transform="translate(70.363 -115.25)" fill="#ea6524"/>
      <path id="Path_16909" data-name="Path 16909" d="M228.636,235.9a2.983,2.983,0,0,1-.624,1.748,5,5,0,0,1-2,1.249,14.143,14.143,0,0,1-3.746.749,42.427,42.427,0,0,1-5.993.25c-2.5,0-4.5-.125-6.118-.25a32.446,32.446,0,0,1-3.746-.749,5,5,0,0,1-2-1.249,2.983,2.983,0,0,1-.624-1.748v-49.82H157.713V235.9a2.983,2.983,0,0,1-.624,1.748,4.229,4.229,0,0,1-2,1.249,14.144,14.144,0,0,1-3.746.749,43.4,43.4,0,0,1-6.119.25c-2.372,0-4.37-.125-5.993-.25-1.623-.25-2.872-.5-3.871-.749a4.229,4.229,0,0,1-2-1.249,2.983,2.983,0,0,1-.624-1.748V119.655a2.983,2.983,0,0,1,.624-1.748,5,5,0,0,1,2-1.249,14.143,14.143,0,0,1,3.871-.749,42.426,42.426,0,0,1,5.993-.25c2.5,0,4.5.125,6.119.25a32.453,32.453,0,0,1,3.746.749,4.228,4.228,0,0,1,2,1.249,2.983,2.983,0,0,1,.624,1.748v45.2h46.075v-45.2a2.983,2.983,0,0,1,.624-1.748,5,5,0,0,1,2-1.249,13.148,13.148,0,0,1,3.746-.749,43.4,43.4,0,0,1,6.118-.25c2.372,0,4.37.125,5.993.25a32.444,32.444,0,0,1,3.746.749,4.227,4.227,0,0,1,2,1.249,2.983,2.983,0,0,1,.624,1.748Z" transform="translate(226.118 -113.412)" fill="#ea6524"/>
      <path id="Path_16910" data-name="Path 16910" d="M255.561,230.026a28.066,28.066,0,0,1,1.374,5.369,2.947,2.947,0,0,1-.749,3,6.588,6.588,0,0,1-3.746,1.249c-1.748.125-4.245.25-7.367.25-3.246,0-5.744,0-7.617-.125a15.06,15.06,0,0,1-4.121-.624,2.945,2.945,0,0,1-2-1.249,5.96,5.96,0,0,1-1-2L222.1,211.171H175.9l-7.742,24.1a9.366,9.366,0,0,1-1,2.247,3.409,3.409,0,0,1-2,1.374,13.213,13.213,0,0,1-3.871.749c-1.623.125-3.871.25-6.618.25-2.872,0-5.244-.125-6.868-.25-1.623-.25-2.747-.624-3.371-1.374a3.6,3.6,0,0,1-.624-3.122,25.978,25.978,0,0,1,1.374-5.369L183.14,120.52a8.519,8.519,0,0,1,1.374-2.622,5.55,5.55,0,0,1,2.372-1.5,14.112,14.112,0,0,1,4.62-.624c2-.125,4.62-.125,7.742-.125,3.746,0,6.742,0,8.99.125a37.7,37.7,0,0,1,5.244.624,4.533,4.533,0,0,1,2.622,1.623,10.262,10.262,0,0,1,1.373,2.872ZM199,139.749h0l-17.481,52.318h34.962Z" transform="translate(352.151 -113.528)" fill="#ea6524"/>
      <path id="Path_16911" data-name="Path 16911" d="M257.354,230.42a9.31,9.31,0,0,1-.749,3.871,9.8,9.8,0,0,1-2,2.872,7.041,7.041,0,0,1-3,1.623,11.544,11.544,0,0,1-3.621.5H237.376a25.224,25.224,0,0,1-5.744-.624,13,13,0,0,1-4.5-2.372,22.74,22.74,0,0,1-4-4.745A80.19,80.19,0,0,1,218.9,223.8L188.3,166.24c-1.748-3.371-3.621-7.117-5.369-11.113-1.873-4-3.5-7.866-4.995-11.612h-.25c.25,4.62.5,9.115.624,13.61s.25,9.24.25,13.985v64.43a2.867,2.867,0,0,1-.5,1.748,4.845,4.845,0,0,1-1.748,1.249,11.282,11.282,0,0,1-3.5.749,36.994,36.994,0,0,1-5.619.25c-2.247,0-4.121-.125-5.494-.25a23.872,23.872,0,0,1-3.371-.749,3.946,3.946,0,0,1-1.748-1.249,2.867,2.867,0,0,1-.5-1.748V124.91q0-4.5,2.622-6.743a9.452,9.452,0,0,1,6.368-2.248h13.361a27.975,27.975,0,0,1,6.118.624,12.727,12.727,0,0,1,4.37,2,16.314,16.314,0,0,1,3.621,4,39.794,39.794,0,0,1,3.5,6.243l23.974,44.951c1.374,2.747,2.747,5.369,4.121,7.991s2.622,5.244,4,7.867c1.249,2.622,2.5,5.244,3.746,7.742s2.372,5.119,3.5,7.617h.125q-.374-6.743-.374-13.86c-.125-4.87-.125-9.365-.125-13.735V119.79a2.983,2.983,0,0,1,.624-1.748,4.565,4.565,0,0,1,1.873-1.374,11.278,11.278,0,0,1,3.5-.749c1.5-.125,3.371-.25,5.619-.25,2.123,0,4,.125,5.369.25a9.655,9.655,0,0,1,3.371.749,3.646,3.646,0,0,1,1.623,1.374,2.866,2.866,0,0,1,.5,1.748V230.42Z" transform="translate(494.326 -113.297)" fill="#ea6524"/>
      <path id="Path_16912" data-name="Path 16912" d="M271.029,175.385c0,11.238-1.5,20.977-4.37,28.969a49.514,49.514,0,0,1-12.736,19.6,51.915,51.915,0,0,1-20.1,11.238c-7.867,2.372-17.356,3.621-28.219,3.621H176.257a7.5,7.5,0,0,1-5.244-1.873c-1.374-1.249-2.123-3.246-2.123-5.993V123.566c0-2.747.749-4.745,2.123-5.993a7.715,7.715,0,0,1,5.244-1.873h31.466c10.988,0,20.228,1.249,27.969,3.871a52.276,52.276,0,0,1,19.354,11.363,48.4,48.4,0,0,1,11.987,18.73A76.747,76.747,0,0,1,271.029,175.385Zm-25.847.874a60.867,60.867,0,0,0-2-16.232,32.857,32.857,0,0,0-6.618-12.986,31.447,31.447,0,0,0-11.612-8.616c-4.745-2.123-10.988-3.121-18.6-3.121H193.738v83.784h12.986a50.285,50.285,0,0,0,17.356-2.622,28.927,28.927,0,0,0,11.737-7.991,34.074,34.074,0,0,0,6.992-13.36A71.352,71.352,0,0,0,245.182,176.259Z" transform="translate(641.351 -112.953)" fill="#ea6524"/>
      <path id="Path_16913" data-name="Path 16913" d="M253.775,229.066a44.611,44.611,0,0,1-.25,4.62,8.73,8.73,0,0,1-.749,3,3.5,3.5,0,0,1-1.249,1.623,2.51,2.51,0,0,1-1.623.5H188.1a7.5,7.5,0,0,1-5.244-1.873c-1.374-1.249-2.123-3.247-2.123-5.994V123.556c0-2.747.749-4.745,2.123-5.993a7.715,7.715,0,0,1,5.244-1.873H249.53a1.99,1.99,0,0,1,1.5.5,3.169,3.169,0,0,1,1.124,1.623,13.019,13.019,0,0,1,.749,3,45.3,45.3,0,0,1,.25,4.745,44.059,44.059,0,0,1-.25,4.5,8.731,8.731,0,0,1-.749,3,4.517,4.517,0,0,1-1.124,1.623,3.059,3.059,0,0,1-1.5.5H205.578v30.092h37.209a2.51,2.51,0,0,1,1.623.5,4.3,4.3,0,0,1,1.249,1.623,13.017,13.017,0,0,1,.749,3,44.1,44.1,0,0,1,.25,4.495,44.625,44.625,0,0,1-.25,4.62,7.963,7.963,0,0,1-.749,2.872,4.3,4.3,0,0,1-1.249,1.623,2.51,2.51,0,0,1-1.623.5H205.578V219.2H249.9a2.511,2.511,0,0,1,1.623.5,4.307,4.307,0,0,1,1.249,1.623,13.022,13.022,0,0,1,.749,3C253.65,225.7,253.775,227.318,253.775,229.066Z" transform="translate(777.35 -113.068)" fill="#ea6524"/>
      <path id="Path_16914" data-name="Path 16914" d="M269.917,204.383a38.216,38.216,0,0,1-3.621,16.981,34.723,34.723,0,0,1-9.739,12.237,42.9,42.9,0,0,1-14.484,7.367,62.083,62.083,0,0,1-17.731,2.5,70.05,70.05,0,0,1-11.862-1,71.106,71.106,0,0,1-9.615-2.5,41.415,41.415,0,0,1-6.992-3.122,17.44,17.44,0,0,1-4-2.872,7.047,7.047,0,0,1-1.748-3.621,30.73,30.73,0,0,1-.5-6.743,29.5,29.5,0,0,1,.25-4.995,16.63,16.63,0,0,1,.624-3.246,3.059,3.059,0,0,1,1.124-1.748,2.51,2.51,0,0,1,1.623-.5A7.4,7.4,0,0,1,197,214.747a53.325,53.325,0,0,0,6.243,3.5,66.769,66.769,0,0,0,9.115,3.5,44.688,44.688,0,0,0,12.237,1.623,28.589,28.589,0,0,0,8.241-1.124,17.675,17.675,0,0,0,6.118-3.122,13.832,13.832,0,0,0,3.871-4.995A16.065,16.065,0,0,0,244.2,207.5a11.9,11.9,0,0,0-2.247-7.242,22.952,22.952,0,0,0-5.993-5.369,74.223,74.223,0,0,0-8.366-4.37c-3.122-1.374-6.368-2.747-9.614-4.37a80.348,80.348,0,0,1-9.615-5.244,37.193,37.193,0,0,1-8.366-6.992A33.9,33.9,0,0,1,194,164.3a34.932,34.932,0,0,1-2.247-13.236A36.3,36.3,0,0,1,195,135.458a31.247,31.247,0,0,1,8.865-11.113,38.169,38.169,0,0,1,13.111-6.618,55.553,55.553,0,0,1,15.983-2.248,68.567,68.567,0,0,1,8.74.624,79.949,79.949,0,0,1,8.241,1.748,37.979,37.979,0,0,1,6.742,2.622,16.449,16.449,0,0,1,3.871,2.372,6.278,6.278,0,0,1,1.249,1.623,13.537,13.537,0,0,1,.624,1.748,14.573,14.573,0,0,1,.375,2.747c0,1.124.125,2.5.125,4.121,0,1.873,0,3.371-.125,4.62a16.3,16.3,0,0,1-.5,3.121,2.958,2.958,0,0,1-1,1.748,2.374,2.374,0,0,1-1.623.624,8.121,8.121,0,0,1-3.371-1.374,57.4,57.4,0,0,0-5.619-2.872,60.021,60.021,0,0,0-7.741-2.872,33.21,33.21,0,0,0-9.615-1.249,23.861,23.861,0,0,0-7.117,1,15.415,15.415,0,0,0-5.119,2.747,10.168,10.168,0,0,0-3,4.245,14.509,14.509,0,0,0-1,5.244,11.527,11.527,0,0,0,2.247,7.117,22.959,22.959,0,0,0,5.993,5.369,76.573,76.573,0,0,0,8.491,4.37c3.122,1.373,6.368,2.747,9.739,4.37a92.822,92.822,0,0,1,9.739,5.244,41.545,41.545,0,0,1,8.491,6.992,32.264,32.264,0,0,1,5.993,9.49A41.623,41.623,0,0,1,269.917,204.383Z" transform="translate(879.579 -115.48)" fill="#ea6524"/>
      <path id="Path_16915" data-name="Path 16915" d="M230.653,235.9a2.983,2.983,0,0,1-.624,1.748,5,5,0,0,1-2,1.249,14.143,14.143,0,0,1-3.746.749,43.4,43.4,0,0,1-6.118.25c-2.372,0-4.37-.125-5.993-.25-1.623-.25-2.872-.5-3.871-.749a4.229,4.229,0,0,1-2-1.249,2.984,2.984,0,0,1-.624-1.748V119.655a2.984,2.984,0,0,1,.624-1.748,4.747,4.747,0,0,1,2.123-1.249,14.142,14.142,0,0,1,3.871-.749,42.43,42.43,0,0,1,5.993-.25c2.5,0,4.5.125,6.118.25a32.452,32.452,0,0,1,3.746.749,4.228,4.228,0,0,1,2,1.249,2.983,2.983,0,0,1,.624,1.748V235.9Z" transform="translate(1063.935 -113.412)" fill="#ea6524"/>
      <path id="Path_16916" data-name="Path 16916" d="M313.644,230.42a9.31,9.31,0,0,1-.749,3.871,9.808,9.808,0,0,1-2,2.872,7.041,7.041,0,0,1-3,1.623,11.544,11.544,0,0,1-3.621.5H293.666a25.224,25.224,0,0,1-5.744-.624,13,13,0,0,1-4.5-2.372,22.741,22.741,0,0,1-4-4.745,80.264,80.264,0,0,1-4.245-7.742L244.594,166.24c-1.748-3.371-3.621-7.117-5.369-11.113-1.873-4-3.5-7.866-4.995-11.612h-.25c.25,4.62.5,9.115.624,13.61s.25,9.24.25,13.985v64.43a2.868,2.868,0,0,1-.5,1.748,4.847,4.847,0,0,1-1.748,1.249,11.282,11.282,0,0,1-3.5.749,36.991,36.991,0,0,1-5.619.25c-2.247,0-4.12-.125-5.494-.25a23.871,23.871,0,0,1-3.371-.749,3.946,3.946,0,0,1-1.748-1.249,2.867,2.867,0,0,1-.5-1.748V124.91q0-4.5,2.622-6.743a9.453,9.453,0,0,1,6.368-2.248h13.361a27.976,27.976,0,0,1,6.118.624,12.731,12.731,0,0,1,4.37,2,16.314,16.314,0,0,1,3.621,4,39.79,39.79,0,0,1,3.5,6.243l23.974,44.951c1.374,2.747,2.747,5.369,4.121,7.991s2.622,5.244,4,7.867c1.249,2.622,2.5,5.244,3.746,7.742s2.372,5.119,3.5,7.617h.125q-.374-6.743-.375-13.86c-.125-4.87-.125-9.365-.125-13.735V119.79a2.983,2.983,0,0,1,.624-1.748,4.563,4.563,0,0,1,1.873-1.374,11.277,11.277,0,0,1,3.5-.749c1.5-.125,3.371-.25,5.619-.25,2.123,0,4,.125,5.369.25a9.656,9.656,0,0,1,3.371.749,3.645,3.645,0,0,1,1.623,1.374,2.866,2.866,0,0,1,.5,1.748V230.42Z" transform="translate(1140.894 -113.297)" fill="#ea6524"/>
      <path id="Path_16917" data-name="Path 16917" d="M304.357,204.383a38.216,38.216,0,0,1-3.621,16.981A34.719,34.719,0,0,1,291,233.6a42.9,42.9,0,0,1-14.484,7.367,62.082,62.082,0,0,1-17.73,2.5,70.048,70.048,0,0,1-11.862-1,71.106,71.106,0,0,1-9.615-2.5,41.415,41.415,0,0,1-6.992-3.122,17.44,17.44,0,0,1-4-2.872,7.047,7.047,0,0,1-1.748-3.621,30.73,30.73,0,0,1-.5-6.743,29.521,29.521,0,0,1,.25-4.995,16.642,16.642,0,0,1,.624-3.246,3.059,3.059,0,0,1,1.124-1.748,2.51,2.51,0,0,1,1.623-.5,7.4,7.4,0,0,1,3.746,1.623c1.623,1,3.746,2.247,6.243,3.5a66.769,66.769,0,0,0,9.115,3.5,44.688,44.688,0,0,0,12.237,1.623,28.592,28.592,0,0,0,8.241-1.124,17.678,17.678,0,0,0,6.118-3.122,13.839,13.839,0,0,0,3.871-4.995,16.065,16.065,0,0,0,1.374-6.618,11.9,11.9,0,0,0-2.248-7.242,22.945,22.945,0,0,0-5.993-5.369,74.233,74.233,0,0,0-8.366-4.37c-3.121-1.374-6.368-2.747-9.615-4.37a80.348,80.348,0,0,1-9.614-5.244,37.193,37.193,0,0,1-8.366-6.992,33.9,33.9,0,0,1-5.993-9.614,34.932,34.932,0,0,1-2.247-13.236,36.3,36.3,0,0,1,3.246-15.608,31.247,31.247,0,0,1,8.865-11.113,38.169,38.169,0,0,1,13.111-6.618A55.555,55.555,0,0,1,267.4,115.48a68.565,68.565,0,0,1,8.74.624,79.93,79.93,0,0,1,8.241,1.748,37.985,37.985,0,0,1,6.743,2.622,16.449,16.449,0,0,1,3.871,2.372,6.285,6.285,0,0,1,1.249,1.623,13.565,13.565,0,0,1,.624,1.748c.125.749.25,1.623.375,2.747,0,1.124.125,2.5.125,4.121,0,1.873,0,3.371-.125,4.62a16.325,16.325,0,0,1-.5,3.121,2.958,2.958,0,0,1-1,1.748,2.374,2.374,0,0,1-1.623.624,8.12,8.12,0,0,1-3.371-1.374,57.387,57.387,0,0,0-5.619-2.872,60.027,60.027,0,0,0-7.742-2.872,33.208,33.208,0,0,0-9.614-1.249,23.862,23.862,0,0,0-7.117,1,15.413,15.413,0,0,0-5.119,2.747,10.168,10.168,0,0,0-3,4.245,14.513,14.513,0,0,0-1,5.244,11.526,11.526,0,0,0,2.248,7.117,22.948,22.948,0,0,0,5.993,5.369,76.559,76.559,0,0,0,8.491,4.37c3.121,1.373,6.368,2.747,9.739,4.37a92.82,92.82,0,0,1,9.739,5.244,41.532,41.532,0,0,1,8.491,6.992,32.262,32.262,0,0,1,5.993,9.49A41.618,41.618,0,0,1,304.357,204.383Z" transform="translate(1275.17 -115.48)" fill="#ea6524"/>
      <path id="Path_16918" data-name="Path 16918" d="M334.68,193.68a56.787,56.787,0,0,1-3.371,20.228,39.254,39.254,0,0,1-9.864,15.109,42.324,42.324,0,0,1-15.983,9.365,68.759,68.759,0,0,1-21.851,3.246,71.331,71.331,0,0,1-20.852-2.872,40.6,40.6,0,0,1-15.608-8.74,39.012,39.012,0,0,1-9.739-14.734,57.467,57.467,0,0,1-3.371-20.6V119.761a2.982,2.982,0,0,1,.624-1.748,4.227,4.227,0,0,1,2-1.249,14.142,14.142,0,0,1,3.871-.749,43.4,43.4,0,0,1,6.118-.25c2.373,0,4.37.125,5.993.25a32.449,32.449,0,0,1,3.746.749,4.23,4.23,0,0,1,2,1.249,2.984,2.984,0,0,1,.624,1.748v72.671a39.1,39.1,0,0,0,1.873,12.736,22.332,22.332,0,0,0,5.244,8.865,20.716,20.716,0,0,0,8.116,5.244,30.783,30.783,0,0,0,10.488,1.748,31.522,31.522,0,0,0,10.613-1.748,21.756,21.756,0,0,0,7.866-5.244,22.417,22.417,0,0,0,4.995-8.616,36.624,36.624,0,0,0,1.748-11.612V119.635a2.984,2.984,0,0,1,.624-1.748,4.23,4.23,0,0,1,2-1.249,14.151,14.151,0,0,1,3.871-.749,42.424,42.424,0,0,1,5.993-.25c2.373,0,4.37.125,5.993.25q2.248.375,3.746.749a4.229,4.229,0,0,1,2,1.249,2.984,2.984,0,0,1,.624,1.748V193.68Z" transform="translate(1389.689 -113.642)" fill="#ea6524"/>
      <path id="Path_16919" data-name="Path 16919" d="M337.941,235.454a3.625,3.625,0,0,1-.375,1.748,3.328,3.328,0,0,1-1.748,1.249,16.128,16.128,0,0,1-4.245.624c-1.873.125-4.37.25-7.492.25a46.321,46.321,0,0,1-6.368-.25,12.26,12.26,0,0,1-3.746-.749,4.076,4.076,0,0,1-2-1.374,7.475,7.475,0,0,1-1-2l-10.988-27.47c-1.374-3.122-2.622-5.869-3.871-8.241a24.437,24.437,0,0,0-4.245-5.993,14.111,14.111,0,0,0-5.369-3.621,17.478,17.478,0,0,0-6.993-1.249h-7.741v46.949a2.984,2.984,0,0,1-.624,1.748,5,5,0,0,1-2,1.249,14.146,14.146,0,0,1-3.746.749,43.4,43.4,0,0,1-6.118.25c-2.372,0-4.37-.125-5.993-.25-1.623-.25-2.872-.5-3.871-.749a4.229,4.229,0,0,1-2-1.249,2.984,2.984,0,0,1-.624-1.748V123.576c0-2.747.749-4.745,2.123-5.993a7.715,7.715,0,0,1,5.244-1.873H286c3.246,0,5.869.125,7.991.25s4,.25,5.744.5a52.271,52.271,0,0,1,13.36,3.621,32.58,32.58,0,0,1,10.114,6.743,28.647,28.647,0,0,1,6.368,9.739,34.939,34.939,0,0,1,2.248,12.986,35.413,35.413,0,0,1-1.623,11.238,29.9,29.9,0,0,1-4.62,9.115,30.955,30.955,0,0,1-7.492,6.992,40.688,40.688,0,0,1-10.239,4.745,28.272,28.272,0,0,1,5.244,3.246,26.911,26.911,0,0,1,4.62,4.62,41.447,41.447,0,0,1,4,6.243q1.873,3.559,3.746,7.866l10.364,24.224a34.874,34.874,0,0,1,1.873,5.244C337.691,233.956,337.941,234.83,337.941,235.454ZM305.6,151.921a17.922,17.922,0,0,0-2.747-10.239c-1.873-2.747-4.87-4.745-8.99-5.869a21.168,21.168,0,0,0-4.37-.749,50.4,50.4,0,0,0-6.743-.25H271.513v34.962h12.736a30.926,30.926,0,0,0,9.365-1.249,19.747,19.747,0,0,0,6.618-3.621,14.035,14.035,0,0,0,4-5.619A18.013,18.013,0,0,0,305.6,151.921Z" transform="translate(1536.14 -112.838)" fill="#ea6524"/>
      <path id="Path_16920" data-name="Path 16920" d="M368.54,230.026a28.039,28.039,0,0,1,1.374,5.369,2.947,2.947,0,0,1-.749,3,6.588,6.588,0,0,1-3.746,1.249c-1.748.125-4.245.25-7.367.25-3.246,0-5.744,0-7.616-.125a15.053,15.053,0,0,1-4.12-.624,2.945,2.945,0,0,1-2-1.249,5.951,5.951,0,0,1-1-2l-8.241-24.723h-46.2l-7.742,24.1a9.353,9.353,0,0,1-1,2.247,3.409,3.409,0,0,1-2,1.374,13.212,13.212,0,0,1-3.871.749c-1.623.125-3.871.25-6.618.25-2.872,0-5.245-.125-6.867-.25-1.623-.25-2.747-.624-3.371-1.374a3.6,3.6,0,0,1-.624-3.122,25.961,25.961,0,0,1,1.373-5.369L296.12,120.52a8.523,8.523,0,0,1,1.373-2.622,5.551,5.551,0,0,1,2.372-1.5,14.676,14.676,0,0,1,4.62-.624c2-.125,4.62-.125,7.742-.125,3.746,0,6.743,0,8.99.125a37.7,37.7,0,0,1,5.245.624,4.532,4.532,0,0,1,2.622,1.623,10.262,10.262,0,0,1,1.373,2.872ZM312.1,139.749h0l-17.481,52.318h34.962Z" transform="translate(1649.883 -113.528)" fill="#ea6524"/>
      <path id="Path_16921" data-name="Path 16921" d="M370.845,230.42a9.3,9.3,0,0,1-.749,3.871,9.81,9.81,0,0,1-2,2.872,6.382,6.382,0,0,1-3,1.623,11.547,11.547,0,0,1-3.621.5H350.867a25.225,25.225,0,0,1-5.744-.624,13,13,0,0,1-4.495-2.372,22.751,22.751,0,0,1-4-4.745,80.193,80.193,0,0,1-4.245-7.742L301.8,166.24c-1.748-3.371-3.621-7.117-5.369-11.113-1.873-4-3.5-7.866-4.994-11.612h-.25c.25,4.62.5,9.115.624,13.61s.25,9.24.25,13.985v64.43a2.866,2.866,0,0,1-.5,1.748,4.841,4.841,0,0,1-1.748,1.249,11.282,11.282,0,0,1-3.5.749,36.994,36.994,0,0,1-5.619.25c-2.248,0-4.121-.125-5.494-.25a23.871,23.871,0,0,1-3.371-.749,3.95,3.95,0,0,1-1.748-1.249,2.868,2.868,0,0,1-.5-1.748V124.91q0-4.5,2.622-6.743a9.453,9.453,0,0,1,6.368-2.248h13.36a27.974,27.974,0,0,1,6.118.624,12.731,12.731,0,0,1,4.37,2,16.321,16.321,0,0,1,3.621,4,39.793,39.793,0,0,1,3.5,6.243l23.974,44.951c1.373,2.747,2.747,5.369,4.12,7.991s2.622,5.244,4,7.867c1.249,2.622,2.5,5.244,3.746,7.742s2.373,5.119,3.5,7.617h.125q-.374-6.743-.374-13.86c-.125-4.87-.125-9.365-.125-13.735V119.79a2.983,2.983,0,0,1,.624-1.748,4.565,4.565,0,0,1,1.873-1.374,11.278,11.278,0,0,1,3.5-.749c1.5-.125,3.371-.25,5.619-.25,2.123,0,4,.125,5.369.25a9.652,9.652,0,0,1,3.371.749,3.646,3.646,0,0,1,1.623,1.374,2.867,2.867,0,0,1,.5,1.748V230.42Z" transform="translate(1797.914 -113.297)" fill="#ea6524"/>
      <path id="Path_16922" data-name="Path 16922" d="M372.3,222.049a37.633,37.633,0,0,1-.125,4c-.125,1.124-.25,2.123-.375,2.872a17.226,17.226,0,0,1-.749,2,16.611,16.611,0,0,1-1.5,2,19.012,19.012,0,0,1-4,2.747,46.156,46.156,0,0,1-7.367,3.246,79.916,79.916,0,0,1-9.865,2.622,61.307,61.307,0,0,1-11.987,1,62.655,62.655,0,0,1-22.85-3.871,46.21,46.21,0,0,1-17.356-11.612,53.071,53.071,0,0,1-10.988-19.354,87.954,87.954,0,0,1-3.746-26.971c0-10.488,1.374-19.728,4.245-27.845A57.607,57.607,0,0,1,297.382,132.4a49.428,49.428,0,0,1,17.98-12.611,60.571,60.571,0,0,1,23.225-4.245,50.868,50.868,0,0,1,9.865.874,83.475,83.475,0,0,1,8.865,2.247,35.214,35.214,0,0,1,7.242,3.246,24.026,24.026,0,0,1,4.495,3.122,10.034,10.034,0,0,1,1.748,2.123,5.29,5.29,0,0,1,.749,2.247,19.431,19.431,0,0,1,.374,3.122c.125,1.249.125,2.747.125,4.5a28.7,28.7,0,0,1-.25,4.87,16.672,16.672,0,0,1-.624,3.246,5.266,5.266,0,0,1-1.124,1.748,2.6,2.6,0,0,1-1.5.624,6.366,6.366,0,0,1-3.621-1.623q-2.247-1.686-5.619-3.746a50.808,50.808,0,0,0-8.241-3.746,34.42,34.42,0,0,0-11.488-1.623,28.164,28.164,0,0,0-13.111,3,26.772,26.772,0,0,0-9.739,8.616,39.38,39.38,0,0,0-6.118,13.485A70.749,70.749,0,0,0,308.5,179.72a70.323,70.323,0,0,0,2.247,18.854,37.781,37.781,0,0,0,6.368,13.111A24.632,24.632,0,0,0,327.1,219.3a33.8,33.8,0,0,0,13.235,2.5,34.927,34.927,0,0,0,11.488-1.623,48.223,48.223,0,0,0,8.366-3.5,64.473,64.473,0,0,0,5.744-3.371,7.05,7.05,0,0,1,3.5-1.5,2.662,2.662,0,0,1,1.5.375,2.851,2.851,0,0,1,1,1.5,14.894,14.894,0,0,1,.624,3.246A26.7,26.7,0,0,0,372.3,222.049Z" transform="translate(1933.684 -114.791)" fill="#ea6524"/>
      <path id="Path_16923" data-name="Path 16923" d="M365.186,229.066a44.727,44.727,0,0,1-.25,4.62,8.734,8.734,0,0,1-.749,3,3.5,3.5,0,0,1-1.249,1.623,2.51,2.51,0,0,1-1.623.5H299.507a7.5,7.5,0,0,1-5.245-1.873c-1.373-1.249-2.123-3.247-2.123-5.994V123.556c0-2.747.749-4.745,2.123-5.993a7.715,7.715,0,0,1,5.245-1.873H360.94a1.99,1.99,0,0,1,1.5.5,3.167,3.167,0,0,1,1.124,1.623,12.99,12.99,0,0,1,.749,3,45.263,45.263,0,0,1,.25,4.745,44.16,44.16,0,0,1-.25,4.5,8.727,8.727,0,0,1-.749,3,4.515,4.515,0,0,1-1.124,1.623,3.058,3.058,0,0,1-1.5.5H316.988v30.092H354.2a2.51,2.51,0,0,1,1.623.5,4.3,4.3,0,0,1,1.249,1.623,12.992,12.992,0,0,1,.749,3,44.054,44.054,0,0,1,.25,4.495,44.718,44.718,0,0,1-.25,4.62,7.963,7.963,0,0,1-.749,2.872,4.3,4.3,0,0,1-1.249,1.623,2.509,2.509,0,0,1-1.623.5H316.988V219.2h44.326a2.512,2.512,0,0,1,1.623.5,4.3,4.3,0,0,1,1.249,1.623,13.012,13.012,0,0,1,.749,3C365.061,225.7,365.186,227.318,365.186,229.066Z" transform="translate(2057.047 -113.068)" fill="#ea6524"/>
    </g>
    <g id="Group_7790" data-name="Group 7790" transform="translate(101.8 698.761)">
      <path id="Path_16924" data-name="Path 16924" d="M145.431,149.73,118.96,135.62,105.1,161.342l26.721,13.86Z" transform="translate(-63.895 -74.187)" fill="#065ea2"/>
      <path id="Path_16925" data-name="Path 16925" d="M210.979,163.02l-16.232-9.115L182.26,177.13l20.727,11.612,9.49-18.355,16.857,8.366,11.862-22.1-21.1-11.612Z" transform="translate(822.394 34.015)" fill="#065ea2"/>
      <path id="Path_16926" data-name="Path 16926" d="M1240.558,142.595c-4.121,0-9.24,2.747-15.234,8.366a72.739,72.739,0,0,0-16.607,23.724,18.316,18.316,0,0,1-10.738,10.988c-4,1.623-9.49,2.5-16.232,2.5h-14.609c-.125-13.236-1.124-23.349-3.122-30.092A54.793,54.793,0,0,0,1152.4,137.85l-9.115,27.1c4.12,4.87,6.868,8.241,7.991,10.239a33.2,33.2,0,0,1,4.5,13.111H220.67q-.187-13.485-3.371-22.476-1.873-5.432-9.739-19.853l-9.989,30.716c5.369,10.114,8.865,17.606,10.489,22.226a41.827,41.827,0,0,1,2.5,13.985c0,7.617-4.62,13.985-13.985,19.229s-20.852,7.867-34.462,7.867c-13.86,0-25.1-2.5-33.588-7.617-8.491-4.995-12.861-11.488-12.861-19.479a46.423,46.423,0,0,1,3.5-17.855c2.372-5.744,7.242-15.109,14.734-27.845l-6.868-4.745c-10.114,15.358-16.981,27.969-20.478,37.584a82.253,82.253,0,0,0-4.745,28.843c0,12.362,4.995,21.851,14.984,28.594s24.224,10.114,42.579,10.114a103.33,103.33,0,0,0,27.845-3.746c8.99-2.5,15.858-5.619,20.478-9.49A33.21,33.21,0,0,0,217.8,238.99a74.127,74.127,0,0,0,2.872-19.6h961.2a43.266,43.266,0,0,0,12.736-1.5c6.493-2,11.862-6.368,16.232-12.986a131.864,131.864,0,0,0,24.973,9.615c10.738,3.121,20.1,4.62,28.094,4.62V194.289q0-15.546-8.99-34.088C1249.3,148.464,1244.428,142.595,1240.558,142.595Zm-.375,43.7c-.749,0-4.245-1.124-10.364-3.372l-8.99-3.371c2-6.868,4.495-10.239,7.492-10.239,2.622,0,5.744,2.247,9.49,6.868q4.87,6.181,4.87,8.616C1242.68,185.8,1241.806,186.3,1240.183,186.3Z" transform="translate(-101.8 -48.572)" fill="#065ea2"/>
      <path id="Path_16927" data-name="Path 16927" d="M194.82,163.289l24.6-7.492a10.142,10.142,0,0,0,3.871-2,13.136,13.136,0,0,0,2.872-5.119,56.694,56.694,0,0,1-8.241,1.748c-1.623,0-4.245-1-7.866-3.122-3.621-2-5.494-3.621-5.494-4.5a11.867,11.867,0,0,1,2.5-1.873,9.981,9.981,0,0,1,4.121-1c1.374,0,4,1,7.741,2.872,1-1.748,1.748-3,2.123-3.871a7.8,7.8,0,0,0,.5-3.121,5.527,5.527,0,0,0-1.374-3.746,4.272,4.272,0,0,0-3.5-1.374c-4.87,0-9.739,3.246-14.734,9.864a20.738,20.738,0,0,0-2.372,3.746,7.513,7.513,0,0,0-.874,3.371,6.224,6.224,0,0,0,1.374,3.5,22.565,22.565,0,0,0,4.62,3.871,32.692,32.692,0,0,0-5.993,3A19.235,19.235,0,0,0,194.82,163.289Z" transform="translate(966.663 -130.7)" fill="#065ea2"/>
      <path id="Path_16928" data-name="Path 16928" d="M229.667,158.923l16.857,8.366,11.862-21.976L237.159,133.7l-9.115,17.98-16.107-9.115L199.45,165.79,220.178,177.4Z" transform="translate(1019.845 -96.241)" fill="#065ea2"/>
      <path id="Path_16929" data-name="Path 16929" d="M411.114,179.8a99.955,99.955,0,0,0,4.5-12.362,90.043,90.043,0,0,0,3-14.235c-6.118-2.622-10.614-4.87-13.485-6.992-3.246-2.373-4.745-4.745-4.745-7.242.25-2,.5-3.246.5-3.621l-5.244-2.747a128.847,128.847,0,0,0-8.865,20.6,46.454,46.454,0,0,0-2,13.485l7.242,4.745,13.735,77.291H364.79L352.428,178.3l4.121,1.623a99.984,99.984,0,0,0,4.495-12.362,90.059,90.059,0,0,0,3-14.234c-6.118-2.622-10.614-4.87-13.485-6.992-3.246-2.372-4.745-4.745-4.745-7.242.25-2,.5-3.246.5-3.621l-5.244-2.747a128.833,128.833,0,0,0-8.865,20.6,46.453,46.453,0,0,0-2,13.485l7.242,4.745,13.735,77.291H310.224c-.125-13.236-1.124-23.35-3.122-30.092a54.793,54.793,0,0,0-11.612-20.228l-9.115,27.1c4.121,4.87,6.868,8.241,7.991,10.239a33.2,33.2,0,0,1,4.5,13.111h-67.8c-3.621,0-6.243-2.5-7.991-7.367-2.123-6.118-3.246-17.106-3.246-32.964V186.167c0-10.738-1-19.479-3.121-26.346a57.36,57.36,0,0,0-9.365-17.855L195.1,170.309c3.621,3.746,5.869,6.618,6.867,8.491,2,4.121,3.122,9.864,3.122,17.231V228.5c0,18.979,2.248,32.59,6.618,40.581,4,7.242,10.364,10.988,19.229,10.988H419.48V249.1l-12.362-70.423Z" transform="translate(969.879 -108.876)" fill="#065ea2"/>
      <path id="Path_16930" data-name="Path 16930" d="M415.376,141.352l-10.738,15.233a13.509,13.509,0,0,0-1.873,3.246,9.513,9.513,0,0,0-.374,2.622c0,1.249,1,3.746,2.872,7.742s2.872,7.242,2.872,9.989a90.253,90.253,0,0,1-9.989-2.123c-3.5-1-6.992-2-10.488-3.122a98.325,98.325,0,0,0,1.873-16.607c0-.749,0-2.372-.125-4.87s-.25-4.37-.374-5.869l-5.369,3.746c-2.123,1.5-3.5,3-4,4.37-.624,1.374-.874,3.621-.874,6.618,0,6.992-2.248,11.862-6.743,14.484-4.495,2.747-12.486,4-23.974,4H337.586q0-12.174-2.247-19.853c-1.748-5.869-5.369-13.485-10.738-22.476L314.611,169.2c5.369,10.114,8.865,17.606,10.489,22.226a41.833,41.833,0,0,1,2.5,13.985c0,7.617-4.62,13.985-13.985,19.229s-20.852,7.866-34.462,7.866c-13.86,0-25.1-2.5-33.588-7.617C237.07,219.891,232.7,213.4,232.7,205.407a46.423,46.423,0,0,1,3.5-17.855c2.372-5.744,7.242-15.109,14.734-27.845l-6.868-4.745c-10.114,15.358-16.981,27.97-20.478,37.584a82.255,82.255,0,0,0-4.745,28.843c0,12.362,4.994,21.851,14.984,28.594S258.047,260.1,276.4,260.1c19.729,0,34.462-3.372,44.327-10.114,11.238-7.742,16.857-20.353,16.857-37.959h18.6c6.868,0,12.112-.5,15.483-1.5a39.4,39.4,0,0,0,11.737-6.118q14.609,5.244,19.853,6.368c3.621.749,9.49,1.124,17.855,1.124V168.947a67.436,67.436,0,0,0-1.374-14.609A79.37,79.37,0,0,0,415.376,141.352Z" transform="translate(1242.566 -41.335)" fill="#065ea2"/>
      <path id="Path_16931" data-name="Path 16931" d="M313.346,147.42l-26.471-14.11L273.14,159.032l26.6,13.86Z" transform="translate(1866.276 -100.72)" fill="#065ea2"/>
      <path id="Path_16932" data-name="Path 16932" d="M987.66,179.8a99.951,99.951,0,0,0,4.495-12.362,90.077,90.077,0,0,0,3-14.235c-6.118-2.622-10.614-4.87-13.485-6.992-3.246-2.373-4.745-4.745-4.745-7.242.25-2,.5-3.246.5-3.621l-5.245-2.747a128.848,128.848,0,0,0-8.865,20.6,46.454,46.454,0,0,0-2,13.485l7.242,4.745,13.735,77.291H940.836q-1.311-13.11-8.616-28.094c-5.744-11.737-10.489-17.481-14.359-17.481-4.12,0-9.24,2.747-15.233,8.366a72.736,72.736,0,0,0-16.607,23.724,18.315,18.315,0,0,1-10.738,10.988c-4,1.623-9.49,2.5-16.232,2.5H821.216c-3.871,0-8.116.125-12.611.375s-9.614.874-15.108,1.748A34.76,34.76,0,0,0,810.6,235.862q5.244-9.365,5.245-22.476a56.379,56.379,0,0,0-3.621-19.354c-2.747-7.617-6.118-11.363-9.989-11.363-4.745,0-9.989,4.5-15.733,13.361-6.493,10.114-13.859,26.721-22.351,49.446-1.873.375-5.244,1.124-9.989,2.123a71.426,71.426,0,0,1-12.486,1.124h-2.248c-.125-13.235-1.124-23.349-3.122-30.092A54.8,54.8,0,0,0,724.7,198.4l-9.115,27.1c4.12,4.87,6.867,8.241,7.991,10.239a33.2,33.2,0,0,1,4.495,13.111H304.031V243.23c0-17.731-1.873-31.84-5.744-42.579a59.7,59.7,0,0,0-20.977-28.469l-8.241,35.461A45.542,45.542,0,0,1,283.928,222c4.37,6.618,7.367,15.608,9.115,26.721H253.961a14.658,14.658,0,0,1-7.617-1.873,8.472,8.472,0,0,1-4-5.744l-4.37.25c-.624,4-1.249,7.866-1.5,11.737-.374,3.871-.5,7.492-.5,10.863,0,5.869,1.623,9.989,4.87,12.611,2.622,2.123,6.493,3.246,11.488,3.246H757.411c0,15.608,3.871,28.969,11.488,40.081s16.732,16.732,27.22,16.732a13.006,13.006,0,0,0,10.488-5.119c2.747-3.372,5.744-9.864,8.865-19.229a90.939,90.939,0,0,0,3.247-10.114,37.441,37.441,0,0,0,1.249-9.49,9.079,9.079,0,0,0-3.871-7.617c-2.747-1.5-5.494-3.122-8.241-4.62,3.621-.25,6.243-.5,8.116-.5h43.2a43.267,43.267,0,0,0,12.736-1.5c6.492-2,11.862-6.368,16.232-12.986a131.85,131.85,0,0,0,24.973,9.615,117.559,117.559,0,0,0,20.1,4.12v.624h62.557V248.849l-12.361-70.423Zm-202.9,42.578c2.622-4.245,4.87-6.368,6.867-6.368,1.5,0,3,1.5,4.5,4.37a18.185,18.185,0,0,1,2.123,7.242c0,2.622-1.623,5.119-4.994,7.242-3.247,2.123-9.365,4.745-17.981,7.741C779.013,233.365,782.134,226.622,784.757,222.377Zm14.859,83.908c-6.618,0-12.861-2.5-18.6-7.367a29.719,29.719,0,0,1-10.489-17.356C781.51,283.81,790,287.306,795.744,291.8c4.87,3.746,7.242,7.867,7.242,12.112C802.987,305.411,801.863,306.285,799.615,306.285Zm118-59.685c-.749,0-4.245-1.124-10.364-3.371l-8.99-3.371c2-6.868,4.495-10.239,7.492-10.239,2.622,0,5.744,2.248,9.49,6.868q4.87,6.181,4.87,8.616C920.109,246.1,919.235,246.6,917.612,246.6Z" transform="translate(1439.442 -108.876)" fill="#065ea2"/>
      <path id="Path_16933" data-name="Path 16933" d="M323.562,213.462c-1-11.238-2.747-24.473-5.245-39.832L311.451,133.3c-4.245,7.991-7.492,14.859-9.864,20.478s-3.5,9.614-3.5,11.987a54.239,54.239,0,0,0,1.374,8.74c2.622,12.112,4.495,22.6,5.619,31.341s2.123,17.606,2.872,26.6,1.124,15.733,1.124,20.353a130.061,130.061,0,0,1-2.747,23.724l6.867,2.747c4.495-9.365,7.616-16.857,9.24-22.476a66.237,66.237,0,0,0,2.373-18.48C324.686,230.444,324.311,222.078,323.562,213.462Z" transform="translate(2152.861 -100.835)" fill="#065ea2"/>
    </g>
    <g id="Group_7793" data-name="Group 7793" transform="translate(582.494 81.245)">
      <g id="Group_7791" data-name="Group 7791" transform="translate(651.071 21.417)">
        <path id="Path_16934" data-name="Path 16934" d="M491,384.381c-1.5-.125-3.122-.25-4.62-.25H342.033c-27.47-.624-50.57-10.863-68.925-31.341-12.362-13.735-21.1-29.593-27.47-46.824a167.511,167.511,0,0,1-8.116-31.341,191.667,191.667,0,0,1-2.622-25.347c-.125-5.119-.5-10.114-.5-15.233,0-7.117.5-14.359,1.124-21.477a204.918,204.918,0,0,1,6.743-36.96c5.369-18.6,13.36-35.961,24.848-51.569a108.561,108.561,0,0,1,21.227-22.226,86.925,86.925,0,0,1,38.208-17.106,97.891,97.891,0,0,1,17.106-1.5H486.25c1.5,0,3.122-.125,4.62-.25v62.931H358.889a56.549,56.549,0,0,0-10.239.749c-8.616,1.374-15.858,5.619-21.976,11.987a67.174,67.174,0,0,0-11.987,18.105c-6.243,13.236-9.115,27.345-9.989,41.829a154.365,154.365,0,0,0-.25,20.1,177.582,177.582,0,0,0,2.123,19.978,117.815,117.815,0,0,0,8.865,28.968,69.465,69.465,0,0,0,10.988,17.606c8.116,9.365,18.23,14.234,30.716,14.234,43.328-.125,86.655,0,129.983,0a35.3,35.3,0,0,0,3.621-.25C491,341.178,491,362.78,491,384.381Z" transform="translate(289.529 -82.96)" fill="#065ea2"/>
        <path id="Path_16935" data-name="Path 16935" d="M500.854,388.23a14.3,14.3,0,0,1-.374-4.995V168.095c0-.5-.125-1.124-.125-1.5-1.124-.375-1.249.25-1.5.874L493.612,181.7q-31.653,87.093-63.306,174.31c-3.5,9.49-6.868,19.1-10.364,28.594-.5,1.249-.624,2.622-1.748,3.5-2.622.375-64.18.375-68.176.125-1.124-.624-1.249-2-1.623-3.122-3.621-9.614-7.117-19.229-10.613-28.844q-34.462-93.461-68.8-186.8c-.375-1.124-.5-2.372-1.623-3.122-.624,0-.749.5-.749.874V383.735a10.6,10.6,0,0,1-.375,4.37,9.641,9.641,0,0,1-1.873.25h-67.8a18.429,18.429,0,0,1-2.622-.125c-.749,0-1.124-.5-1.374-1.249a4.686,4.686,0,0,1-.125-1.374V85.185c.125-1.623.5-2,2.247-2.123H303.569c3.5,0,3.5,0,4.62,3.371,6.868,20.228,13.86,40.456,20.728,60.684q26.409,77.166,53.067,154.457a7.739,7.739,0,0,0,1.5,3.246.991.991,0,0,0,1.249-.874c.749-2.123,1.5-4.121,2.123-6.243q24.91-73.233,49.7-146.465c7.242-21.352,14.484-42.828,21.851-64.18,1.5-4.245,1.124-4,5.494-4h109.88c1.5.125,1.873.5,2,2.123V383.734a27.182,27.182,0,0,1-.125,3.246,1.18,1.18,0,0,1-1.249,1.249,14.333,14.333,0,0,1-2.372.125H504.474A17.262,17.262,0,0,1,500.854,388.23Z" transform="translate(-192.44 -81.814)" fill="#065ea2"/>
        <path id="Path_16936" data-name="Path 16936" d="M227.03,83.54c3-.5,50.945-.749,62.432-.375a12.454,12.454,0,0,1,2,.25,12.484,12.484,0,0,1,.25,2V383.338a6.681,6.681,0,0,1-2,.5,10.68,10.68,0,0,1-2,0H230.777c-1.249,0-2.373-.125-3.746-.125a15.519,15.519,0,0,1-.5-2,23.983,23.983,0,0,1,0-3V88.16C226.656,86.787,226.281,85.289,227.03,83.54Z" transform="translate(198.506 -82.666)" fill="#065ea2"/>
      </g>
      <g id="Group_7792" data-name="Group 7792">
        <path id="Path_16937" data-name="Path 16937" d="M400.171,314.556s32.215,17.106,45.45,48.947c-22.85,28.344-60.808,63.056-128.11,66.927-75.792,0-160.075-42.079-176.557-162.573C131.089,150.984,234.851,86.8,293.287,81.81c43.827-3.746,115.874,10.239,152.334,69.175s88.654,69.05,109.755,71.422c23.724,2.747,34.088.874,75.293-6.118,0,0,34.587,61.932-33.339,71.8-64.3,9.365-131.232-26.346-152.833-44.826s-32.465-27.969-58.561-63.68c-23.6-29.967-78.914-34.338-93.648-29.218,0,0-88.528,16.357-85.282,114.625,9.365,91.151,93.648,98.642,105.76,98.642S369.2,362.753,400.171,314.556Z" transform="translate(-140.297 -81.245)" fill="#065ea3"/>
        <path id="Path_16938" data-name="Path 16938" d="M390.277,197.264s-32.215-17.106-47.074-48.322c22.85-28.344,62.432-63.681,129.733-67.551,75.792,0,168.441,55.939,176.557,162.573,3.5,119.37-92.4,179.429-150.711,184.674-51.194,4.62-123.116-12.486-156.454-67.177C305.245,300.651,256.3,291.786,235.2,289.413c-23.724-2.747-34.088-.874-75.293,6.118,0,0-35.711-59.435,28.843-72.546,55.689-11.238,134.728,24.348,157.2,45.575,19.1,17.98,30.716,24.6,58.187,63.306,26.346,33.214,79.413,34.712,94.022,29.718,0,0,88.528-16.357,85.282-114.625-9.365-91.151-93.648-98.642-105.76-98.642S421.243,148.941,390.277,197.264Z" transform="translate(-28.266 -79.577)" fill="#ea6525"/>
      </g>
    </g>
  </g>
</svg>
