<svg xmlns="http://www.w3.org/2000/svg" xmlns:xlink="http://www.w3.org/1999/xlink" width="1468.092" height="439.714" viewBox="0 0 1468.092 439.714">
  <defs>
    <linearGradient id="linear-gradient" x1="0.177" y1="0.723" x2="2.801" y2="-0.424" gradientUnits="objectBoundingBox">
      <stop offset="0" stop-color="#fe5a00"/>
      <stop offset="0.118" stop-color="#fe7000"/>
      <stop offset="0.325" stop-color="#fe9000"/>
      <stop offset="0.499" stop-color="#fea400"/>
      <stop offset="0.617" stop-color="#feab00"/>
      <stop offset="0.714" stop-color="#feae00"/>
      <stop offset="1" stop-color="#feb400"/>
    </linearGradient>
    <linearGradient id="linear-gradient-2" x1="0.337" y1="0.49" x2="2.962" y2="-0.658" gradientUnits="objectBoundingBox">
      <stop offset="0" stop-color="#043d1e"/>
      <stop offset="1" stop-color="#5bd0ec"/>
    </linearGradient>
  </defs>
  <g id="Group_7787" data-name="Group 7787" transform="translate(7292.092 269)">
    <g id="Group_7785" data-name="Group 7785" transform="translate(0 -52)">
      <g id="hany" transform="translate(-7297.678 -128.998)">
        <g id="logo_1_" transform="translate(5.586 15.447)">
          <path id="blue" d="M69.513,225.29a171.5,171.5,0,0,1,100.614,1.258c33.119,10.481,57.853,31.443,82.168,54.5,27.249,25.991,55.338,51.146,91.81,62.884,30.6,10.059,64.98,9.642,95.584,1.677,64.561-16.769,114.03-68.753,123.253-135.41,9.223-65.82-18.446-135.41-76.3-170.625-64.98-39.829-152.6-28.926-207.518,22.219-29.346,27.249,14.673,71.268,44.019,44.019,35.215-32.7,91.81-37.311,132.475-12.577,39.407,23.9,55.338,76.718,44.019,120.318-12.157,45.7-55.757,74.622-102.291,75.879-62.044,1.257-96.421-53.243-141.279-87.2-57.434-43.6-134.152-56.176-202.905-36.891C14.594,176.242,30.945,236.192,69.513,225.29Z" transform="translate(76.023 -15.447)" fill="url(#linear-gradient)"/>
          <path id="yellow" d="M500.757,142.005a171.5,171.5,0,0,1-100.615-1.258c-33.119-10.481-57.854-31.442-82.168-54.5-27.248-25.992-55.338-51.146-91.81-62.884-30.6-10.059-64.561-10.059-95.584-2.1C66.02,38.036,16.551,90.441,7.329,156.678-1.9,222.5,25.774,292.089,83.627,327.3c64.98,39.829,152.6,28.927,207.518-22.219,29.346-27.249-14.673-71.268-44.019-44.019-35.215,32.7-91.81,37.311-132.475,12.577-39.408-23.9-55.339-76.719-44.019-120.319,12.157-45.7,55.757-74.622,102.291-75.461,62.043-1.258,96.422,53.242,141.279,87.2,57.434,43.6,134.152,56.176,202.906,36.892,38.569-11.319,22.219-70.849-16.35-59.947Z" transform="translate(-5.586 -15.168)" fill="url(#linear-gradient-2)"/>
        </g>
        <g id="Group_207" data-name="Group 207" transform="translate(672.64 17.354)">
          <g id="Group_204" data-name="Group 204" transform="translate(0 4.192)">
            <path id="Path_422" data-name="Path 422" d="M252.737,16.9l83.426,235.605L419.17,16.9h88.037V341.8H440.131V252.924l6.708-153.437L358.8,341.8H312.687L225.069,99.907l6.708,153.018V341.8H164.7V16.9Z" transform="translate(-164.7 -16.9)" fill="#043d1e"/>
          </g>
          <g id="Group_205" data-name="Group 205" transform="translate(404.973 4.192)">
            <path id="Path_423" data-name="Path 423" d="M328.376,341.8H261.3V16.9h67.076Z" transform="translate(-261.3 -16.9)" fill="#043d1e"/>
          </g>
        </g>
      </g>
      <path id="Subtraction_1" data-name="Subtraction 1" d="M277,464V247H129a59.823,59.823,0,0,0-25.374,5.289,56.88,56.88,0,0,0-20.247,16.02c-7.092,8.636-12.767,19.749-16.865,33.03C61.528,317.494,59,336.442,59,357.659c0,20.019,2.479,37.971,7.367,53.355,4.04,12.716,9.645,23.411,16.657,31.788a58.5,58.5,0,0,0,20.409,15.886A60.755,60.755,0,0,0,129,464m148,59H129a119.291,119.291,0,0,1-50.212-10.705,117.02,117.02,0,0,1-41-31.62c-11.966-14.295-21.268-31.721-27.646-51.793C3.411,407.711,0,383.749,0,357.659c0-27.12,3.411-51.923,10.137-73.719,6.368-20.634,15.67-38.491,27.646-53.075a116.149,116.149,0,0,1,41-32.093A118.338,118.338,0,0,1,129,188H277Z" transform="translate(-6101 -302)" fill="#043d1e"/>
    </g>
    <text id="life" transform="translate(-5937 -186)" fill="#e96101" font-size="76" font-family="SugarPieW00-Regular"><tspan x="0" y="0">life</tspan></text>
  </g>
</svg>
