<svg xmlns="http://www.w3.org/2000/svg" width="709.429" height="487.293" viewBox="0 0 709.429 487.293">
  <g id="Group_7753" data-name="Group 7753" transform="translate(-41.545 -102.672)">
    <g id="Group_7696" data-name="Group 7696" transform="translate(41.545 102.672)">
      <path id="Path_16742" data-name="Path 16742" d="M687.136,239.234c-16.164-32.6-48.583-59.741-94.524-69.346-22.013-4.6-44.993-5.864-67.74-7.609-35.764-2.744-72.671-7.093-102.653-21.841-11.169-5.494-14.5-13.141-28.225-18.686a287.694,287.694,0,0,0-36.218-12.443c-41.614-10.7-88.206-7.8-129.308,3.952S151.342,145.1,120.06,168.141c-27.007,19.89-51.243,42.6-64.611,69.058-8.337,16.5-12.261,34.1-13.489,51.7-3.04,43.572,10.648,87.9,40.5,125.47s75.98,68.092,130.322,84.582c29.107,8.831,60.135,13.64,91.213,17.161,30.619,3.468,61.58,5.734,92.538,5.047A503.762,503.762,0,0,0,504.193,506.93c23.167-5.644,45.7-12.866,66.6-22.189,54.276-24.2,96.658-62.8,117.686-107.171S709.025,283.378,687.136,239.234Z" transform="translate(-41.545 -102.672)" fill="#d7eff9"/>
      <g id="Group_7689" data-name="Group 7689" transform="translate(248.674 27.857)">
        <path id="Path_16743" data-name="Path 16743" d="M255.548,121.17c.339-.847,1.021-1.885,1.908-1.607a1.672,1.672,0,0,1,.816.731,9.393,9.393,0,0,1-1.913,12.22,7.358,7.358,0,0,1,7.216,7.576c-.339,3.867-4.516,6.974-8.429,6.273a4.766,4.766,0,0,1,.236,6.248,5.075,5.075,0,0,1-6.343.928c.8.85-.31,2.166-1.415,2.578a7.426,7.426,0,0,1-9.253-3.823c-1.752-3.8.083-5.8,2.6-8.5A72.81,72.81,0,0,0,255.548,121.17Z" transform="translate(-153.645 -119.516)" fill="#fff"/>
        <path id="Path_16744" data-name="Path 16744" d="M196.189,121.17c-.338-.847-1.02-1.885-1.908-1.607a1.679,1.679,0,0,0-.816.731,9.393,9.393,0,0,0,1.913,12.22,7.359,7.359,0,0,0-7.216,7.576c.339,3.867,4.516,6.974,8.431,6.273a4.762,4.762,0,0,0-.236,6.248,5.073,5.073,0,0,0,6.341.928c-.8.85.31,2.166,1.415,2.578a7.426,7.426,0,0,0,9.253-3.823c1.754-3.8-.081-5.8-2.6-8.5A72.84,72.84,0,0,1,196.189,121.17Z" transform="translate(-188.14 -119.516)" fill="#fff"/>
        <g id="Group_7688" data-name="Group 7688" transform="translate(20.694 13.572)">
          <g id="Group_7687" data-name="Group 7687" transform="translate(22.244 9.828)">
            <path id="Path_16745" data-name="Path 16745" d="M227.308,172.229l-.366,6.9a3.089,3.089,0,0,1-.611,1.951,2.287,2.287,0,0,1-1.769.609,1.777,1.777,0,0,1-1.466-.566,2.886,2.886,0,0,1-.458-1.814v-.537l.366-6.724a10.47,10.47,0,0,1-2.41-.7,13.791,13.791,0,0,1-2.351-1.293,3.051,3.051,0,0,1-.945,1.01,2.228,2.228,0,0,1-1.221.329,2.44,2.44,0,0,1-1.922-.789,3.12,3.12,0,0,1-.7-2.157v-4.136a2.376,2.376,0,0,1,.687-1.756,2.458,2.458,0,0,1,1.815-.683q1.771,0,2.565,2.32a5.085,5.085,0,0,0,.366.982,5.79,5.79,0,0,0,3.006,2.008,13.462,13.462,0,0,0,4.867.908,7.544,7.544,0,0,0,4.624-1.308,4.05,4.05,0,0,0,1.756-3.394,3.957,3.957,0,0,0-1.252-3.02q-1.252-1.176-5.555-2.633l-5.34-1.756a10.15,10.15,0,0,1-4.914-3.405,8.47,8.47,0,0,1-1.83-5.314,7.761,7.761,0,0,1,2.731-6.187,12.755,12.755,0,0,1,7.584-2.709l.122-2.262a2.9,2.9,0,0,1,.67-1.827,2.087,2.087,0,0,1,1.588-.612,1.925,1.925,0,0,1,2.137,2.143v.357l-.183,2.38c.751.2,1.489.422,2.212.67a20.323,20.323,0,0,1,2.09.848,3.413,3.413,0,0,1,.916-.789,2.049,2.049,0,0,1,1.008-.253,1.844,1.844,0,0,1,1.5.551,3.006,3.006,0,0,1,.456,1.889v3.66a2.355,2.355,0,0,1-.55,1.682,2.082,2.082,0,0,1-1.586.58,2.637,2.637,0,0,1-2.38-1.846c-.122-.316-.226-.556-.305-.714a4.208,4.208,0,0,0-2.26-1.874,10.051,10.051,0,0,0-3.876-.686,8.588,8.588,0,0,0-4.943,1.28,3.939,3.939,0,0,0-1.861,3.393,4.132,4.132,0,0,0,1.159,2.93,7.819,7.819,0,0,0,3.418,1.948l5.859,1.905A14.725,14.725,0,0,1,236.3,157.4a8.1,8.1,0,0,1,2.09,5.7,7.9,7.9,0,0,1-2.975,6.367A13.589,13.589,0,0,1,227.308,172.229Z" transform="translate(-213.452 -133.666)" fill="#1f74c2"/>
          </g>
          <path id="Path_16746" data-name="Path 16746" d="M235.051,195.4c-19.141,0-34.712-15.18-34.712-33.841s15.571-33.839,34.712-33.839,34.71,15.18,34.71,33.839S254.191,195.4,235.051,195.4Zm0-65.567c-17.944,0-32.544,14.234-32.544,31.726s14.6,31.728,32.544,31.728,32.542-14.232,32.542-31.728S252.995,129.837,235.051,129.837Z" transform="translate(-200.339 -127.723)" fill="#1f74c2"/>
        </g>
      </g>
      <g id="Group_7692" data-name="Group 7692" transform="translate(642.217 97.992)">
        <path id="Path_16747" data-name="Path 16747" d="M451.269,163.016c.044-.478.236-1.1.728-1.09a.9.9,0,0,1,.524.256,4.961,4.961,0,0,1,.863,6.478,3.955,3.955,0,0,1,4.8,2.818,3.864,3.864,0,0,1-3.338,4.389,2.533,2.533,0,0,1,1.057,3.139,2.653,2.653,0,0,1-3.081,1.376c.533.319.166,1.144-.333,1.512a3.959,3.959,0,0,1-5.274-.622c-1.461-1.679-.829-2.957.046-4.688A37.908,37.908,0,0,0,451.269,163.016Z" transform="translate(-401.886 -161.926)" fill="#d7eff9"/>
        <path id="Path_16748" data-name="Path 16748" d="M421.855,170.932c-.3-.38-.8-.812-1.211-.544a.865.865,0,0,0-.3.488,5.014,5.014,0,0,0,2.806,5.934,3.828,3.828,0,0,0-2.528,4.877,3.986,3.986,0,0,0,5.223,1.983,2.527,2.527,0,0,0,.819,3.207,2.685,2.685,0,0,0,3.36-.433c-.28.546.482,1.055,1.106,1.106a3.864,3.864,0,0,0,4.124-3.263c.321-2.18-.913-2.934-2.6-3.946A39.333,39.333,0,0,1,421.855,170.932Z" transform="translate(-420.137 -156.448)" fill="#d7eff9"/>
        <g id="Group_7691" data-name="Group 7691" transform="translate(14.291 13.078)">
          <g id="Group_7690" data-name="Group 7690" transform="translate(10.65 5.484)">
            <path id="Path_16749" data-name="Path 16749" d="M445.429,192.744l.85,3.559a1.612,1.612,0,0,1-.017,1.077,1.189,1.189,0,0,1-.807.562.951.951,0,0,1-.829-.078,1.539,1.539,0,0,1-.5-.857l-.082-.273-.823-3.466a5.678,5.678,0,0,1-1.33-.012,7.217,7.217,0,0,1-1.388-.322,1.611,1.611,0,0,1-.329.65,1.166,1.166,0,0,1-.572.341,1.3,1.3,0,0,1-1.094-.126,1.686,1.686,0,0,1-.68-1l-.621-2.1a1.251,1.251,0,0,1,.085-.991,1.279,1.279,0,0,1,.819-.607q.9-.251,1.651.814a2.8,2.8,0,0,0,.334.447,3.123,3.123,0,0,0,1.829.59,7.121,7.121,0,0,0,2.607-.233,3.927,3.927,0,0,0,2.153-1.325,2.231,2.231,0,0,0-.707-3.329,9.152,9.152,0,0,0-3.216-.544l-2.977-.131a5.45,5.45,0,0,1-3.006-1.027,4.548,4.548,0,0,1-1.729-2.438,4.069,4.069,0,0,1,.458-3.532,6.639,6.639,0,0,1,3.445-2.457l-.276-1.166a1.514,1.514,0,0,1,.066-1.025,1.081,1.081,0,0,1,.714-.536,1.143,1.143,0,0,1,.889.053,1.16,1.16,0,0,1,.517.729l.054.182.263,1.235c.414-.007.821,0,1.225.025a10.743,10.743,0,0,1,1.189.132,1.766,1.766,0,0,1,.346-.531,1.052,1.052,0,0,1,.475-.273.98.98,0,0,1,.841.066,1.605,1.605,0,0,1,.516.893l.55,1.859a1.24,1.24,0,0,1-.025.933,1.089,1.089,0,0,1-.719.521,1.415,1.415,0,0,1-1.486-.6,3.817,3.817,0,0,0-.263-.319,2.269,2.269,0,0,0-1.428-.63,5.315,5.315,0,0,0-2.071.207,4.466,4.466,0,0,0-2.319,1.354,2.059,2.059,0,0,0-.436,1.989,2.221,2.221,0,0,0,1.03,1.323,4.2,4.2,0,0,0,2.029.5l3.262.131a7.909,7.909,0,0,1,3.876.933,4.356,4.356,0,0,1,1.917,2.595,4.128,4.128,0,0,1-.555,3.658A7.054,7.054,0,0,1,445.429,192.744Z" transform="translate(-434.84 -173.15)" fill="#1f74c2"/>
          </g>
          <path id="Path_16750" data-name="Path 16750" d="M451.992,204.907a18.438,18.438,0,0,1-22.71-12.233,17.845,17.845,0,0,1,12.548-22.139,18.437,18.437,0,0,1,22.709,12.231A17.846,17.846,0,0,1,451.992,204.907Zm-9.845-33.3a16.732,16.732,0,0,0-11.764,20.756,17.288,17.288,0,0,0,21.292,11.469,16.73,16.73,0,0,0,11.762-20.756A17.285,17.285,0,0,0,442.147,171.609Z" transform="translate(-428.562 -169.834)" fill="#1f74c2"/>
        </g>
      </g>
      <g id="Group_7695" data-name="Group 7695" transform="translate(22.994 199.797)">
        <path id="Path_16751" data-name="Path 16751" d="M103.878,224.682c.246-.612.74-1.364,1.383-1.164a1.211,1.211,0,0,1,.59.531,6.8,6.8,0,0,1-1.384,8.841,5.067,5.067,0,1,1-.879,10.022,3.446,3.446,0,0,1,.17,4.521,3.67,3.67,0,0,1-4.589.671c.578.615-.224,1.566-1.025,1.865a5.373,5.373,0,0,1-6.7-2.767c-1.269-2.75.059-4.2,1.883-6.154A52.7,52.7,0,0,0,103.878,224.682Z" transform="translate(-30.137 -223.485)" fill="#fff"/>
        <path id="Path_16752" data-name="Path 16752" d="M60.924,224.682c-.244-.612-.738-1.364-1.381-1.164a1.2,1.2,0,0,0-.59.531,6.8,6.8,0,0,0,1.384,8.841,5.067,5.067,0,1,0,.879,10.022,3.448,3.448,0,0,0-.171,4.521,3.673,3.673,0,0,0,4.59.671c-.58.615.224,1.566,1.023,1.865a5.375,5.375,0,0,0,6.7-2.767c1.269-2.75-.059-4.2-1.885-6.154A52.7,52.7,0,0,1,60.924,224.682Z" transform="translate(-55.099 -223.485)" fill="#fff"/>
        <g id="Group_7694" data-name="Group 7694" transform="translate(14.974 9.822)">
          <g id="Group_7693" data-name="Group 7693" transform="translate(16.096 7.113)">
            <path id="Path_16753" data-name="Path 16753" d="M83.443,261.631l-.265,4.994a2.243,2.243,0,0,1-.443,1.411,1.651,1.651,0,0,1-1.281.44,1.283,1.283,0,0,1-1.06-.409,2.09,2.09,0,0,1-.331-1.313v-.389l.265-4.865a7.713,7.713,0,0,1-1.744-.506,10.046,10.046,0,0,1-1.7-.936,2.248,2.248,0,0,1-.684.731,1.621,1.621,0,0,1-.885.238,1.762,1.762,0,0,1-1.389-.571,2.257,2.257,0,0,1-.509-1.561V255.9a1.72,1.72,0,0,1,.5-1.27,1.778,1.778,0,0,1,1.315-.494q1.28,0,1.854,1.679a3.966,3.966,0,0,0,.265.711,4.194,4.194,0,0,0,2.176,1.452,9.735,9.735,0,0,0,3.522.658,5.464,5.464,0,0,0,3.347-.948,2.932,2.932,0,0,0,1.271-2.456,2.863,2.863,0,0,0-.906-2.185,12.382,12.382,0,0,0-4.02-1.905l-3.864-1.272a7.342,7.342,0,0,1-3.557-2.464,6.128,6.128,0,0,1-1.325-3.843,5.623,5.623,0,0,1,1.978-4.478,9.234,9.234,0,0,1,5.488-1.96l.088-1.637a2.091,2.091,0,0,1,.485-1.323,1.511,1.511,0,0,1,1.15-.442,1.394,1.394,0,0,1,1.545,1.55v.26l-.132,1.722q.817.216,1.6.485a14.436,14.436,0,0,1,1.511.615,2.453,2.453,0,0,1,.663-.571,1.465,1.465,0,0,1,.729-.185,1.333,1.333,0,0,1,1.082.4,2.165,2.165,0,0,1,.331,1.366v2.648a1.7,1.7,0,0,1-.4,1.217,1.51,1.51,0,0,1-1.148.42,1.909,1.909,0,0,1-1.723-1.336c-.088-.228-.163-.4-.221-.516a3.046,3.046,0,0,0-1.635-1.356,7.265,7.265,0,0,0-2.8-.5,6.207,6.207,0,0,0-3.578.926,2.853,2.853,0,0,0-1.347,2.456,2.988,2.988,0,0,0,.838,2.12,5.671,5.671,0,0,0,2.473,1.411l4.241,1.378a10.672,10.672,0,0,1,4.738,2.659,5.867,5.867,0,0,1,1.513,4.123,5.71,5.71,0,0,1-2.154,4.607A9.829,9.829,0,0,1,83.443,261.631Z" transform="translate(-73.416 -233.725)" fill="#1f74c2"/>
          </g>
          <path id="Path_16754" data-name="Path 16754" d="M89.045,278.4c-13.851,0-25.118-10.984-25.118-24.487s11.267-24.489,25.118-24.489,25.119,10.986,25.119,24.489S102.9,278.4,89.045,278.4Zm0-47.447c-12.984,0-23.548,10.3-23.548,22.959s10.565,22.958,23.548,22.958,23.55-10.3,23.55-22.958S102.03,230.954,89.045,230.954Z" transform="translate(-63.927 -229.424)" fill="#1f74c2"/>
        </g>
      </g>
    </g>
    <g id="Group_7746" data-name="Group 7746" transform="translate(68.798 170.697)">
      <g id="Group_7697" data-name="Group 7697" transform="translate(0 113.909)">
        <path id="Path_16755" data-name="Path 16755" d="M608.787,255.431s15.63,35.764,14.035,60.333-21.053,39.808-31.581,49.138-61.887,54.735-69.862,60.954-12.76,8.4-27.116,10.885-22.648,4.976-52.635-7.774-136.213-25.5-225.853,22.7c0,0-43.7,27.057-66.352,26.745s-32.856-3.731-47.212-17.1-34.134-35.454-39.876-51c0,0-6.7-27.99-4.146-46.96s1.595-27.99,38.6-44.473,165.562-74.329,284.23-92.055c0,0,126.326-12.129,149.292-3.422S603.045,249.211,608.787,255.431Z" transform="translate(-57.611 -207.737)" fill="#8cb1f4"/>
        <path id="Path_16756" data-name="Path 16756" d="M228.3,250.343S133.353,284.46,95.889,307.821c0,0-19.572,8.616-19.572,14.553s5.052,26.455,29.465,33.021c0,0,12.417,4.923,24.834-1.025s163.736-65.221,163.736-65.221S243.492,269.836,228.3,250.343Z" transform="translate(-44.585 -188.064)" fill="#588edd"/>
        <path id="Path_16757" data-name="Path 16757" d="M228.83,253.615c-41.862,20.211-87.875,32.316-128.3,55.277-8.785,4.989-18.332,12.41-17.623,22.3.584,8.123,7.807,13.649,14.329,17.652,2.807,1.722,6.577,3.493,9.577,5.831a32.321,32.321,0,0,0,19.243-2.444c12.417-5.95,163.736-65.22,163.736-65.22S247.943,271.117,228.83,253.615Z" transform="translate(-40.024 -185.925)" fill="#4680c6"/>
        <path id="Path_16758" data-name="Path 16758" d="M235.4,303s-45.385-14.2-66.152-38.857c0,0,97.637-35.594,155.08-38.205L394.165,255S257.843,291.078,235.4,303Z" transform="translate(20.127 -204.022)" fill="#588edd"/>
        <path id="Path_16759" data-name="Path 16759" d="M99.162,351.034s-.126,9.21,0,15.106c0,0-23.177-12.9-32.373-25.791s-6.929-16.7-6.929-16.7l1.386-8.105S76.614,335.8,99.162,351.034Z" transform="translate(-56.217 -145.44)" fill="#2d598e"/>
        <path id="Path_16760" data-name="Path 16760" d="M62.165,317.558l.5,6.934s14.755,24.572,34.666,31.448c.014-3.463.051-6.225.051-6.225C80.411,338.25,67.508,323.937,62.165,317.558Z" transform="translate(-54.44 -144.121)" fill="#153351"/>
        <path id="Path_16761" data-name="Path 16761" d="M334.028,253.849,269.8,227.122l-22.78,2.453s41.85,21.175,71.517,28.018Z" transform="translate(74.276 -203.245)" fill="#2d598e"/>
        <path id="Path_16762" data-name="Path 16762" d="M326.022,253.833l-59.119-24.6-16.5,1.778c12.471,5.99,42.773,19.9,65.767,25.2Z" transform="translate(76.637 -201.865)" fill="#153351"/>
        <path id="Path_16763" data-name="Path 16763" d="M278.74,228.161l52.467,22.746s66.494-6.688,106.075-2.443L373.561,223.54a11.772,11.772,0,0,0-3.617-.789c-9.722-.562-54.9-2.76-90.8,2.505A1.517,1.517,0,0,0,278.74,228.161Z" transform="translate(95.719 -206.713)" fill="#74a1e2"/>
        <path id="Path_16764" data-name="Path 16764" d="M311.14,266.605s-62.452,18.924-77.5,25.369l-57.952-33.927L247,235.751Z" transform="translate(24.609 -197.604)" fill="#85b4ed"/>
        <path id="Path_16765" data-name="Path 16765" d="M165.915,274.535l10.361.427,1.783-.633a1.5,1.5,0,0,1,1.2.081l1.408.733,9.3.382v5.59l-.032,0a1.441,1.441,0,0,1-1.191,1.153c-10.784,1.909-18.088.18-21.915-1.288a1.377,1.377,0,0,1-.9-1.249l-.012,0Z" transform="translate(17.804 -172.44)" fill="#a7a9ac"/>
        <path id="Path_16766" data-name="Path 16766" d="M178.059,271.215l-11.17,3.969a1.423,1.423,0,0,0-.058,2.679c3.827,1.469,11.131,3.2,21.915,1.287a1.431,1.431,0,0,0,.446-2.687l-9.935-5.166A1.5,1.5,0,0,0,178.059,271.215Z" transform="translate(17.804 -174.476)" fill="#d1d3d4"/>
        <path id="Path_16767" data-name="Path 16767" d="M149.7,281.214l10.361.427,1.783-.633a1.5,1.5,0,0,1,1.2.081l1.408.733,9.3.382v5.59l-.032,0a1.442,1.442,0,0,1-1.189,1.153c-10.785,1.908-18.09.179-21.917-1.288a1.377,1.377,0,0,1-.9-1.249l-.012,0Z" transform="translate(6.515 -168.074)" fill="#a7a9ac"/>
        <path id="Path_16768" data-name="Path 16768" d="M161.846,277.892l-11.17,3.971a1.422,1.422,0,0,0-.058,2.679c3.827,1.467,11.131,3.2,21.917,1.287a1.431,1.431,0,0,0,.444-2.687l-9.935-5.166A1.511,1.511,0,0,0,161.846,277.892Z" transform="translate(6.515 -170.11)" fill="#d1d3d4"/>
        <path id="Path_16769" data-name="Path 16769" d="M117.35,295.861l10.361.427,1.783-.635a1.515,1.515,0,0,1,1.2.083l1.408.733,9.3.382v5.59l-.034,0a1.438,1.438,0,0,1-1.189,1.151c-10.784,1.91-18.09.18-21.917-1.287a1.376,1.376,0,0,1-.9-1.249l-.014,0Z" transform="translate(-16.013 -158.498)" fill="#a7a9ac"/>
        <path id="Path_16770" data-name="Path 16770" d="M129.494,292.539l-11.17,3.971a1.423,1.423,0,0,0-.058,2.679c3.827,1.467,11.133,3.2,21.917,1.287a1.431,1.431,0,0,0,.444-2.687l-9.934-5.166A1.515,1.515,0,0,0,129.494,292.539Z" transform="translate(-16.013 -160.534)" fill="#d1d3d4"/>
        <path id="Path_16771" data-name="Path 16771" d="M133.863,288.508l10.361.425,1.783-.633a1.511,1.511,0,0,1,1.2.083l1.408.731,9.306.384v5.59l-.034,0a1.439,1.439,0,0,1-1.189,1.153c-10.784,1.91-18.09.18-21.917-1.287a1.379,1.379,0,0,1-.9-1.25h-.012Z" transform="translate(-4.515 -163.305)" fill="#a7a9ac"/>
        <path id="Path_16772" data-name="Path 16772" d="M146.007,285.187l-11.17,3.971a1.423,1.423,0,0,0-.058,2.679c3.827,1.467,11.133,3.2,21.917,1.287a1.432,1.432,0,0,0,.444-2.689l-9.935-5.165A1.5,1.5,0,0,0,146.007,285.187Z" transform="translate(-4.515 -165.341)" fill="#d1d3d4"/>
        <path id="Path_16773" data-name="Path 16773" d="M150.293,267.8l.007-.24a4.918,4.918,0,0,1,.024-.7l.159-4.784,3.031.408a16.767,16.767,0,0,1,3.1-1.515l2.889,2.322,5.966.8v3.989l-11.954,5.373s-2.9-2.553-3.193-5.6Z" transform="translate(6.926 -181.121)" fill="#a7a9ac"/>
        <path id="Path_16774" data-name="Path 16774" d="M178.735,268.776v5.013s-10.231,7.965-18.755,3.117c0,0-4.066-1.8-3.357-8.8Z" transform="translate(11.276 -176.448)" fill="#a7a9ac"/>
        <path id="Path_16775" data-name="Path 16775" d="M134.316,273.867l.007-.238a4.906,4.906,0,0,1,.024-.7l.159-4.786,3.031.41a16.658,16.658,0,0,1,3.1-1.516l2.891,2.322,5.964.8v3.991l-11.954,5.371s-2.9-2.553-3.193-5.6Z" transform="translate(-4.199 -177.153)" fill="#a7a9ac"/>
        <path id="Path_16776" data-name="Path 16776" d="M162.758,274.846v5.013s-10.231,7.964-18.755,3.117c0,0-4.066-1.8-3.357-8.8Z" transform="translate(0.151 -172.48)" fill="#a7a9ac"/>
        <path id="Path_16777" data-name="Path 16777" d="M118.77,280.279l.007-.238a4.909,4.909,0,0,1,.024-.7l.159-4.784,3.031.408a16.8,16.8,0,0,1,3.094-1.517l2.891,2.324,5.966.8v3.989l-11.954,5.371s-2.9-2.553-3.192-5.6Z" transform="translate(-15.024 -172.961)" fill="#a7a9ac"/>
        <path id="Path_16778" data-name="Path 16778" d="M147.212,281.258v5.014s-10.231,7.965-18.755,3.116c0,0-4.066-1.8-3.357-8.795Z" transform="translate(-10.674 -168.287)" fill="#a7a9ac"/>
        <path id="Path_16779" data-name="Path 16779" d="M102.851,287.053l.008-.238a4.9,4.9,0,0,1,.024-.7l.159-4.784,3.031.408a16.741,16.741,0,0,1,3.094-1.517l2.891,2.322,5.966.805v3.989l-11.954,5.371s-2.9-2.553-3.192-5.6Z" transform="translate(-26.109 -168.533)" fill="#a7a9ac"/>
        <path id="Path_16780" data-name="Path 16780" d="M131.294,288.032v5.014s-10.231,7.965-18.756,3.116c0,0-4.066-1.8-3.357-8.795Z" transform="translate(-21.759 -163.859)" fill="#a7a9ac"/>
        <path id="Path_16781" data-name="Path 16781" d="M86.5,295.6l.008-.24a4.893,4.893,0,0,1,.024-.7l.159-4.786,3.031.408a16.8,16.8,0,0,1,3.094-1.515l2.891,2.322,5.966.8v3.991l-11.954,5.37s-2.9-2.552-3.192-5.6Z" transform="translate(-37.498 -162.947)" fill="#b22d2d"/>
        <path id="Path_16782" data-name="Path 16782" d="M101.67,293.464l-11.954,5.371s-9-7.9,3.1-12.488Z" transform="translate(-37.497 -164.525)" fill="#ff4d4d"/>
        <path id="Path_16783" data-name="Path 16783" d="M150.458,360.416C211.52,333.387,336.521,283.99,439.77,255.625c76.472-21.009,128.286-16.811,150.023-13.22a6.751,6.751,0,0,1,.509.471s15.63,35.764,14.035,60.333-21.053,39.808-31.581,49.138S510.87,407.082,502.9,413.3s-12.76,8.4-27.116,10.885-22.648,4.976-52.635-7.774-136.213-25.5-225.852,22.7c0,0-43.7,27.057-66.352,26.745-15.218-.208-24.816-1.837-33.832-6.931C65.333,367.142,95.425,384.774,150.458,360.416Z" transform="translate(-39.126 -195.181)" fill="#588edd"/>
        <path id="Path_16784" data-name="Path 16784" d="M125.721,465.858c22.649.313,66.352-26.745,66.352-26.745,89.639-48.206,195.867-35.454,225.852-22.7s38.281,10.263,52.635,7.774,19.141-4.665,27.116-10.885,59.334-51.626,69.862-60.954,29.986-24.57,31.581-49.138-14.035-60.333-14.035-60.333a6.768,6.768,0,0,0-.509-.471c-10.025-1.655-26.464-3.435-48.754-2.818a50.486,50.486,0,0,1,1.291,5.051,55.917,55.917,0,0,1-2.947,30.9c-4.244,10.794-11.985,20.353-22.519,25.872-10.556,5.532-22.668,7.381-34.059,11.017s-22.927,9.89-27.791,20.568c-2.37,5.2-2.933,11-4.648,16.442-6.76,21.451-30.432,33.955-53.256,36.864s-45.894-1.457-68.9-2.074a211.611,211.611,0,0,0-113.018,29.33c-19.626,11.674-37.241,26.54-57.731,36.7-18.638,9.245-40.973,14.188-60.588,7.983.081.235.156.456.237.691C100.905,464.02,110.5,465.649,125.721,465.858Z" transform="translate(-33.907 -195.179)" fill="#4079bf"/>
        <path id="Path_16785" data-name="Path 16785" d="M305.4,295.648l85.139,44.822c12.405-10.912,23.8-20.99,28.166-24.859,1.464-1.3,3.1-2.714,4.84-4.249l2.4-4.819Z" transform="translate(114.929 -158.445)" fill="#bcbec0" style="mix-blend-mode: multiply;isolation: isolate"/>
        <path id="Path_16786" data-name="Path 16786" d="M603.229,277.854c-15.447,5.482-36.593,7.4-65.628,10.014-24.383,2.2-54.727,4.93-91.427,10.842C312.726,320.2,181.512,378.55,156.564,390.029c-36.641,16.86-60,13.2-70.8,9.438.146.648.292,1.295.45,1.963a58.446,58.446,0,0,0,11.2,2.423,73.012,73.012,0,0,0,8.675.5c12.132,0,29.268-2.737,51.2-12.828C182.2,380.063,313.225,321.8,446.449,300.34c36.642-5.9,66.952-8.631,91.308-10.827,28.134-2.534,49.451-4.462,65.334-9.971.046-.478.1-.953.127-1.437C603.224,278.023,603.225,277.937,603.229,277.854Z" transform="translate(-38.007 -170.078)" fill="#3266a5"/>
        <path id="Path_16787" data-name="Path 16787" d="M178.7,271.328,166.1,263.716s-14.461,5.413-7.713,9.975S172.662,274.515,178.7,271.328Z" transform="translate(11.31 -179.321)" fill="#d1d3d4"/>
        <path id="Path_16788" data-name="Path 16788" d="M165.465,265.665l-11.954,5.371s-9-7.9,3.1-12.488Z" transform="translate(6.926 -182.699)" fill="#d1d3d4"/>
        <path id="Path_16789" data-name="Path 16789" d="M162.724,277.4l-12.6-7.614s-14.463,5.413-7.713,9.975S156.685,280.585,162.724,277.4Z" transform="translate(0.185 -175.353)" fill="#d1d3d4"/>
        <path id="Path_16790" data-name="Path 16790" d="M149.488,271.734l-11.954,5.371s-9-7.9,3.1-12.486Z" transform="translate(-4.199 -178.73)" fill="#d1d3d4"/>
        <path id="Path_16791" data-name="Path 16791" d="M147.178,283.811,134.573,276.2s-14.461,5.411-7.713,9.975S141.139,287,147.178,283.811Z" transform="translate(-10.641 -171.16)" fill="#d1d3d4"/>
        <path id="Path_16792" data-name="Path 16792" d="M133.943,278.148l-11.954,5.371s-9-7.9,3.1-12.488Z" transform="translate(-15.025 -174.538)" fill="#d1d3d4"/>
        <path id="Path_16793" data-name="Path 16793" d="M131.26,290.586l-12.605-7.614s-14.461,5.413-7.713,9.977S125.221,293.771,131.26,290.586Z" transform="translate(-21.725 -166.732)" fill="#d1d3d4"/>
        <path id="Path_16794" data-name="Path 16794" d="M118.025,284.922l-11.954,5.371s-9-7.9,3.1-12.488Z" transform="translate(-26.109 -170.109)" fill="#d1d3d4"/>
        <path id="Path_16795" data-name="Path 16795" d="M114.939,296.574v5.014s-10.231,7.965-18.755,3.117c0,0-4.066-1.8-3.359-8.8Z" transform="translate(-33.147 -158.274)" fill="#a7a9ac"/>
        <path id="Path_16796" data-name="Path 16796" d="M100.021,303.46l10.359.425,1.783-.633a1.515,1.515,0,0,1,1.2.083l1.408.731,9.3.384v5.588l-.032,0a1.442,1.442,0,0,1-1.191,1.153c-10.784,1.91-18.088.18-21.917-1.287a1.378,1.378,0,0,1-.9-1.25h-.012Z" transform="translate(-28.08 -153.53)" fill="#7aa537"/>
        <path id="Path_16797" data-name="Path 16797" d="M112.164,300.138l-11.17,3.971a1.422,1.422,0,0,0-.058,2.677c3.829,1.469,11.133,3.2,21.917,1.288a1.432,1.432,0,0,0,.446-2.689l-9.935-5.165A1.508,1.508,0,0,0,112.164,300.138Z" transform="translate(-28.08 -155.566)" fill="#8dc63f"/>
        <path id="Path_16798" data-name="Path 16798" d="M114.905,299.339,102.3,291.725s-14.461,5.413-7.713,9.975S108.866,302.524,114.905,299.339Z" transform="translate(-33.113 -161.01)" fill="#d1d3d4"/>
        <path id="Path_16799" data-name="Path 16799" d="M277.715,311.523a25.43,25.43,0,0,0-5.842,15.792,7.95,7.95,0,0,0,.453,3.144c1.179,2.866,4.763,3.938,7.92,4.184A32.751,32.751,0,0,0,309.971,319.8c2.373-3.825,3.771-9.015.992-12.572a11.852,11.852,0,0,0-5.135-3.375C295.888,299.9,284.383,303.488,277.715,311.523Z" transform="translate(91.584 -154.138)" fill="#4079bf"/>
        <path id="Path_16800" data-name="Path 16800" d="M261.9,321.131c-2.243,3.207-2.229,8.628,1.574,10.682a9.032,9.032,0,0,0,2.931.857,12.156,12.156,0,0,0,6.171-.344,7.446,7.446,0,0,0,4.677-5.977c.477-4.3-2.631-6.709-6.29-8.117-3.4-1.31-6.31-.468-8.719,2.446C262.122,320.824,262.006,320.976,261.9,321.131Z" transform="translate(83.581 -144.073)" fill="#4079bf"/>
        <path id="Path_16801" data-name="Path 16801" d="M333.156,239.111l-3.98,3.222v-4.746l-4.047,2.032-.626-4.268-2.816,1.829-.938-3.253-4.275,2.135V232.1l-3.752,2.5v-4.531l-3.545,2.439-.521-3.814-4.38,1.985V226.2l-4.17,2.489V225.2l-3.649,1.918-.626-3.559-3.963,1.22-.833-3.354-3.025,2.236-1.147-3.964-3.128,1.93-.938-3.557L279.15,220v-3.253l-4.9,1.831-1.147-3.559-3.545,1.932-1.25-3.05-4.275,1.525-2.085-2.744c-5.837,10.769-7.964,32-7.966,32.012,14.575,6.775,39.854,17.758,59.7,22.336l4.584-1.106c1.783-9.149,15.414-22.647,15.414-22.647Z" transform="translate(79.128 -212.684)" fill="#d1d3d4"/>
      </g>
      <path id="Path_16802" data-name="Path 16802" d="M218.464,286.988s-23.727-104.829,72.893-104.829" transform="translate(52.603 -118.731)" fill="none" stroke="#153351" stroke-linecap="round" stroke-linejoin="round" stroke-width="1" stroke-dasharray="2.835"/>
      <g id="Group_7698" data-name="Group 7698" transform="translate(332.404 0)">
        <path id="Path_16868" data-name="Path 16868" d="M40.444-1.789C64.089-1.495,83.5,18.019,83.79,41.8A41.671,41.671,0,0,1,41.508,84.317C17.863,84.023-1.544,64.51-1.838,40.732A41.671,41.671,0,0,1,40.444-1.789Z" transform="matrix(0.625, -0.781, 0.781, 0.625, 0, 69.632)" fill="#8dc63f"/>
        <path id="Path_16869" data-name="Path 16869" d="M35.268-1.613A38.522,38.522,0,0,1,73.1,36.217,36.23,36.23,0,0,1,36.217,73.1a38.522,38.522,0,0,1-37.83-37.83A36.23,36.23,0,0,1,35.268-1.613Z" transform="translate(7.273 63.427) rotate(-45)" fill="none" stroke="#153351" stroke-linecap="round" stroke-width="0.567"/>
        <path id="Path_16803" data-name="Path 16803" d="M276.126,195.614l12.536,14.346S293.02,181,315.231,170.11" transform="translate(-237.857 -126.608)" fill="none" stroke="#153351" stroke-linecap="round" stroke-linejoin="round" stroke-width="5.669"/>
      </g>
      <g id="Group_7702" data-name="Group 7702" transform="translate(12.27 21.4)">
        <rect id="Rectangle_2374" data-name="Rectangle 2374" width="194.529" height="70.111" rx="4.412" transform="translate(0.001)" fill="#fff"/>
        <g id="Group_7699" data-name="Group 7699" transform="translate(0 0.001)">
          <path id="Path_16804" data-name="Path 16804" d="M251.89,156.746H72.328a7.414,7.414,0,0,0-7.484,7.295v4.925h194.53v-4.925A7.414,7.414,0,0,0,251.89,156.746Z" transform="translate(-64.844 -156.746)" fill="#98c4e5"/>
          <ellipse id="Ellipse_206" data-name="Ellipse 206" cx="3.073" cy="2.996" rx="3.073" ry="2.996" transform="translate(5.973 3.114)" fill="#fff"/>
          <ellipse id="Ellipse_207" data-name="Ellipse 207" cx="3.073" cy="2.996" rx="3.073" ry="2.996" transform="translate(15.068 3.114)" fill="#fff"/>
          <ellipse id="Ellipse_208" data-name="Ellipse 208" cx="3.073" cy="2.996" rx="3.073" ry="2.996" transform="translate(24.163 3.114)" fill="#fff"/>
        </g>
        <rect id="Rectangle_2375" data-name="Rectangle 2375" width="194.529" height="70.111" rx="4.412" transform="translate(0.001)" fill="none" stroke="#1f74c2" stroke-miterlimit="10" stroke-width="1"/>
        <g id="Group_7701" data-name="Group 7701" transform="translate(139.358 18.948)">
          <g id="Group_7700" data-name="Group 7700" transform="translate(13.937 6.159)">
            <path id="Path_16805" data-name="Path 16805" d="M163.895,196.089l-.231,4.323a1.943,1.943,0,0,1-.382,1.224,1.433,1.433,0,0,1-1.109.38,1.112,1.112,0,0,1-.918-.354,1.8,1.8,0,0,1-.287-1.136v-.337l.229-4.212a6.6,6.6,0,0,1-1.51-.44,8.517,8.517,0,0,1-1.474-.81,1.907,1.907,0,0,1-.592.633,1.4,1.4,0,0,1-.765.207,1.53,1.53,0,0,1-1.2-.494,1.959,1.959,0,0,1-.439-1.351v-2.591a1.492,1.492,0,0,1,.429-1.1,1.546,1.546,0,0,1,1.138-.427q1.109,0,1.606,1.454a3.253,3.253,0,0,0,.229.615,3.64,3.64,0,0,0,1.885,1.258,8.446,8.446,0,0,0,3.05.569,4.728,4.728,0,0,0,2.9-.82,2.538,2.538,0,0,0,1.1-2.127,2.483,2.483,0,0,0-.784-1.892,10.752,10.752,0,0,0-3.481-1.649l-3.347-1.1a6.36,6.36,0,0,1-3.079-2.133,5.3,5.3,0,0,1-1.147-3.329,4.861,4.861,0,0,1,1.712-3.876,7.985,7.985,0,0,1,4.751-1.7l.076-1.417a1.816,1.816,0,0,1,.421-1.146,1.307,1.307,0,0,1,.994-.382A1.2,1.2,0,0,1,165,173.268v.223l-.114,1.492c.472.126.933.265,1.386.42a12.456,12.456,0,0,1,1.31.533,2.119,2.119,0,0,1,.573-.494,1.286,1.286,0,0,1,.633-.159,1.154,1.154,0,0,1,.936.344,1.878,1.878,0,0,1,.287,1.184V179.1a1.481,1.481,0,0,1-.344,1.055,1.307,1.307,0,0,1-.994.362,1.652,1.652,0,0,1-1.491-1.156c-.076-.2-.141-.347-.192-.447a2.639,2.639,0,0,0-1.415-1.174,6.307,6.307,0,0,0-2.429-.43,5.375,5.375,0,0,0-3.1.8,2.467,2.467,0,0,0-1.167,2.127,2.6,2.6,0,0,0,.726,1.836,4.908,4.908,0,0,0,2.142,1.22l3.671,1.194a9.223,9.223,0,0,1,4.1,2.3,5.084,5.084,0,0,1,1.31,3.57,4.951,4.951,0,0,1-1.864,3.989A8.517,8.517,0,0,1,163.895,196.089Z" transform="translate(-155.213 -171.927)" fill="#98c4e5"/>
          </g>
          <path id="Path_16806" data-name="Path 16806" d="M168.746,210.609c-11.993,0-21.749-9.512-21.749-21.2s9.756-21.2,21.749-21.2,21.749,9.511,21.749,21.2S180.737,210.609,168.746,210.609Zm0-41.081c-11.243,0-20.39,8.917-20.39,19.878s9.147,19.878,20.39,19.878,20.39-8.917,20.39-19.878S179.989,169.528,168.746,169.528Z" transform="translate(-146.997 -168.203)" fill="#98c4e5"/>
        </g>
        <line id="Line_372" data-name="Line 372" x2="123.386" transform="translate(5.973 20.702)" fill="#fff" stroke="#1f74c2" stroke-linecap="round" stroke-linejoin="round" stroke-width="1"/>
        <line id="Line_373" data-name="Line 373" x2="100.949" transform="translate(5.973 26.86)" fill="#fff" stroke="#1f74c2" stroke-linecap="round" stroke-linejoin="round" stroke-width="1"/>
        <line id="Line_374" data-name="Line 374" x2="114.141" transform="translate(5.973 33.018)" fill="#fff" stroke="#1f74c2" stroke-linecap="round" stroke-linejoin="round" stroke-width="1"/>
        <line id="Line_375" data-name="Line 375" x2="57.071" transform="translate(5.973 39.176)" fill="#fff" stroke="#1f74c2" stroke-linecap="round" stroke-linejoin="round" stroke-width="1"/>
        <line id="Line_376" data-name="Line 376" x2="104.547" transform="translate(5.973 45.334)" fill="#fff" stroke="#1f74c2" stroke-linecap="round" stroke-linejoin="round" stroke-width="1"/>
      </g>
      <g id="Group_7706" data-name="Group 7706" transform="translate(79.569 83.535)">
        <rect id="Rectangle_2376" data-name="Rectangle 2376" width="153.295" height="55.249" rx="3.477" fill="#fff"/>
        <g id="Group_7703" data-name="Group 7703" transform="translate(0.001 0)">
          <path id="Path_16807" data-name="Path 16807" d="M251.914,194.318h-141.5a5.841,5.841,0,0,0-5.9,5.749v3.881H257.812v-3.881A5.842,5.842,0,0,0,251.914,194.318Z" transform="translate(-104.518 -194.318)" fill="#98c4e5"/>
          <path id="Path_16808" data-name="Path 16808" d="M112.135,198.162a2.422,2.422,0,1,1-2.421-2.36A2.391,2.391,0,0,1,112.135,198.162Z" transform="translate(-102.586 -193.348)" fill="#fff"/>
          <ellipse id="Ellipse_209" data-name="Ellipse 209" cx="2.422" cy="2.361" rx="2.422" ry="2.361" transform="translate(11.873 2.454)" fill="#fff"/>
          <ellipse id="Ellipse_210" data-name="Ellipse 210" cx="2.422" cy="2.361" rx="2.422" ry="2.361" transform="translate(19.04 2.454)" fill="#fff"/>
        </g>
        <rect id="Rectangle_2377" data-name="Rectangle 2377" width="153.295" height="55.249" rx="3.477" fill="none" stroke="#1f74c2" stroke-miterlimit="10" stroke-width="1"/>
        <g id="Group_7705" data-name="Group 7705" transform="translate(109.818 14.931)">
          <g id="Group_7704" data-name="Group 7704" transform="translate(10.984 4.854)">
            <path id="Path_16809" data-name="Path 16809" d="M182.572,225.321l-.182,3.408a1.524,1.524,0,0,1-.3.962,1.123,1.123,0,0,1-.874.3.872.872,0,0,1-.723-.279,1.423,1.423,0,0,1-.227-.9v-.265l.181-3.321a5.194,5.194,0,0,1-1.191-.346,6.779,6.779,0,0,1-1.16-.638,1.532,1.532,0,0,1-.466.5,1.11,1.11,0,0,1-.6.162,1.2,1.2,0,0,1-.948-.389,1.542,1.542,0,0,1-.346-1.065v-2.042a1.178,1.178,0,0,1,.338-.868,1.22,1.22,0,0,1,.9-.337c.584,0,1,.384,1.265,1.146a2.506,2.506,0,0,0,.182.485,2.853,2.853,0,0,0,1.484.992,6.676,6.676,0,0,0,2.4.448,3.725,3.725,0,0,0,2.283-.647,2,2,0,0,0,.865-1.675,1.951,1.951,0,0,0-.617-1.49,8.483,8.483,0,0,0-2.743-1.3l-2.636-.867a5.014,5.014,0,0,1-2.427-1.682,4.176,4.176,0,0,1-.9-2.623,3.831,3.831,0,0,1,1.35-3.055,6.3,6.3,0,0,1,3.744-1.338l.061-1.116a1.414,1.414,0,0,1,.331-.9,1.029,1.029,0,0,1,.784-.3.949.949,0,0,1,1.055,1.057v.177l-.09,1.174q.557.149,1.091.332a9.775,9.775,0,0,1,1.033.418,1.685,1.685,0,0,1,.451-.389,1.009,1.009,0,0,1,.5-.126.912.912,0,0,1,.738.271,1.479,1.479,0,0,1,.226.933v1.808a1.159,1.159,0,0,1-.271.83,1.028,1.028,0,0,1-.784.286,1.3,1.3,0,0,1-1.174-.911c-.061-.155-.112-.275-.151-.352a2.085,2.085,0,0,0-1.116-.926,4.971,4.971,0,0,0-1.913-.337,4.231,4.231,0,0,0-2.441.632,1.947,1.947,0,0,0-.919,1.675,2.035,2.035,0,0,0,.573,1.447,3.871,3.871,0,0,0,1.688.962l2.892.939A7.285,7.285,0,0,1,187.01,218a4.008,4.008,0,0,1,1.031,2.815,3.9,3.9,0,0,1-1.469,3.144A6.71,6.71,0,0,1,182.572,225.321Z" transform="translate(-175.731 -206.281)" fill="#98c4e5"/>
          </g>
          <path id="Path_16810" data-name="Path 16810" d="M186.394,236.764a16.714,16.714,0,1,1,17.14-16.708A16.946,16.946,0,0,1,186.394,236.764Zm0-32.374a15.67,15.67,0,1,0,16.069,15.666A15.889,15.889,0,0,0,186.394,204.39Z" transform="translate(-169.256 -203.346)" fill="#98c4e5"/>
        </g>
        <line id="Line_377" data-name="Line 377" x2="61.186" transform="translate(4.706 16.313)" fill="#fff" stroke="#1f74c2" stroke-linecap="round" stroke-linejoin="round" stroke-width="1"/>
        <line id="Line_378" data-name="Line 378" x2="48.109" transform="translate(4.706 21.166)" fill="#fff" stroke="#1f74c2" stroke-linecap="round" stroke-linejoin="round" stroke-width="1"/>
        <line id="Line_379" data-name="Line 379" x2="89.947" transform="translate(4.706 26.019)" fill="#fff" stroke="#1f74c2" stroke-linecap="round" stroke-linejoin="round" stroke-width="1"/>
        <line id="Line_380" data-name="Line 380" x2="31.591" transform="translate(4.706 30.872)" fill="#fff" stroke="#1f74c2" stroke-linecap="round" stroke-linejoin="round" stroke-width="1"/>
      </g>
      <g id="Group_7745" data-name="Group 7745" transform="translate(82.882 350.462)">
        <g id="Group_7731" data-name="Group 7731">
          <g id="Group_7709" data-name="Group 7709" transform="translate(9.274 38.514)">
            <ellipse id="Ellipse_211" data-name="Ellipse 211" cx="49.099" cy="6.724" rx="49.099" ry="6.724" transform="translate(0 4.096)" fill="#d18f37"/>
            <rect id="Rectangle_2378" data-name="Rectangle 2378" width="98.197" height="4.303" transform="translate(0 6.517)" fill="#d18f37"/>
            <ellipse id="Ellipse_212" data-name="Ellipse 212" cx="49.099" cy="6.724" rx="49.099" ry="6.724" fill="#fbb040"/>
            <g id="Group_7707" data-name="Group 7707" transform="translate(28.805 2.852)">
              <path id="Path_16811" data-name="Path 16811" d="M136.541,384.809l-5.561-.107a5.806,5.806,0,0,1-1.571-.179c-.327-.109-.49-.281-.49-.521,0-.2.151-.341.455-.432a5.692,5.692,0,0,1,1.462-.134h.431l5.416.108a2.142,2.142,0,0,1,.563-.709,6.115,6.115,0,0,1,1.043-.691,2.985,2.985,0,0,1-.814-.278.43.43,0,0,1-.265-.359q0-.357.636-.566a5.839,5.839,0,0,1,1.737-.205h3.332a4.156,4.156,0,0,1,1.415.2c.366.134.551.313.551.534q0,.518-1.871.752c-.383.043-.646.078-.79.107a3.351,3.351,0,0,0-1.617.885,1.993,1.993,0,0,0-.731,1.432,1.545,1.545,0,0,0,1.053,1.359,6.241,6.241,0,0,0,2.733.516,6.775,6.775,0,0,0,2.433-.369,6.2,6.2,0,0,0,2.12-1.632l1.415-1.571a5.871,5.871,0,0,1,2.745-1.445,15.731,15.731,0,0,1,4.278-.537,12.973,12.973,0,0,1,4.985.8,3.238,3.238,0,0,1,2.18,2.231l1.822.036a5.161,5.161,0,0,1,1.474.2c.327.114.492.27.492.466s-.148.359-.444.466a3.928,3.928,0,0,1-1.282.162h-.287l-1.917-.055a7.018,7.018,0,0,1-.539.652,5.969,5.969,0,0,1-.684.615,2.609,2.609,0,0,1,.634.268.375.375,0,0,1,.205.3c0,.2-.149.351-.444.44a5.841,5.841,0,0,1-1.522.136h-2.948a4.358,4.358,0,0,1-1.354-.162q-.468-.161-.468-.466,0-.449,1.486-.7c.256-.036.448-.066.575-.091a3.113,3.113,0,0,0,1.511-.663,1.478,1.478,0,0,0,.55-1.139,1.633,1.633,0,0,0-1.03-1.454,5.83,5.83,0,0,0-2.733-.547,7.261,7.261,0,0,0-2.36.341,3.532,3.532,0,0,0-1.571,1.005l-1.533,1.722a6.529,6.529,0,0,1-2.96,1.925,14.623,14.623,0,0,1-4.59.615,12.82,12.82,0,0,1-5.128-.875A3.292,3.292,0,0,1,136.541,384.809Z" transform="translate(-128.919 -380.736)" fill="#fccd8d"/>
            </g>
            <g id="Group_7708" data-name="Group 7708" transform="translate(28.805 3.059)">
              <path id="Path_16812" data-name="Path 16812" d="M136.541,384.934l-5.561-.108a5.8,5.8,0,0,1-1.571-.179c-.327-.109-.49-.281-.49-.521,0-.2.151-.341.455-.432a5.692,5.692,0,0,1,1.462-.134h.431l5.416.107a2.142,2.142,0,0,1,.563-.709,6.119,6.119,0,0,1,1.043-.691,2.98,2.98,0,0,1-.814-.278.43.43,0,0,1-.265-.359q0-.357.636-.566a5.839,5.839,0,0,1,1.737-.205h3.332a4.155,4.155,0,0,1,1.415.2c.366.134.551.313.551.534q0,.518-1.871.752c-.383.043-.646.078-.79.107a3.352,3.352,0,0,0-1.617.885,1.993,1.993,0,0,0-.731,1.432,1.545,1.545,0,0,0,1.053,1.359,6.241,6.241,0,0,0,2.733.516,6.775,6.775,0,0,0,2.433-.369,6.2,6.2,0,0,0,2.12-1.632l1.415-1.571a5.855,5.855,0,0,1,2.745-1.445,15.73,15.73,0,0,1,4.278-.537,12.973,12.973,0,0,1,4.985.8,3.238,3.238,0,0,1,2.18,2.231l1.822.036a5.161,5.161,0,0,1,1.474.2c.327.114.492.27.492.466s-.148.359-.444.466a3.926,3.926,0,0,1-1.282.162h-.287l-1.917-.055a7.021,7.021,0,0,1-.539.652,5.961,5.961,0,0,1-.684.615,2.611,2.611,0,0,1,.634.268.375.375,0,0,1,.205.3c0,.2-.149.351-.444.44a5.841,5.841,0,0,1-1.522.136h-2.948a4.357,4.357,0,0,1-1.354-.162q-.468-.161-.468-.466,0-.449,1.486-.7c.256-.036.448-.066.575-.091a3.112,3.112,0,0,0,1.511-.663,1.477,1.477,0,0,0,.55-1.139,1.633,1.633,0,0,0-1.03-1.454,5.83,5.83,0,0,0-2.733-.547,7.262,7.262,0,0,0-2.36.341,3.533,3.533,0,0,0-1.571,1.005l-1.533,1.722a6.529,6.529,0,0,1-2.96,1.925,14.621,14.621,0,0,1-4.59.615,12.82,12.82,0,0,1-5.128-.875A3.292,3.292,0,0,1,136.541,384.934Z" transform="translate(-128.919 -380.861)" fill="#d18f37"/>
            </g>
          </g>
          <g id="Group_7712" data-name="Group 7712" transform="translate(2.065 32.593)">
            <ellipse id="Ellipse_213" data-name="Ellipse 213" cx="49.099" cy="6.724" rx="49.099" ry="6.724" transform="translate(0 4.096)" fill="#d18f37"/>
            <rect id="Rectangle_2379" data-name="Rectangle 2379" width="98.197" height="4.303" transform="translate(0 6.517)" fill="#d18f37"/>
            <ellipse id="Ellipse_214" data-name="Ellipse 214" cx="49.099" cy="6.724" rx="49.099" ry="6.724" fill="#fbb040"/>
            <g id="Group_7710" data-name="Group 7710" transform="translate(28.805 2.851)">
              <path id="Path_16813" data-name="Path 16813" d="M132.291,381.23l-5.561-.108a5.724,5.724,0,0,1-1.571-.18q-.491-.161-.49-.519c0-.2.151-.342.455-.432a5.7,5.7,0,0,1,1.462-.134h.431l5.416.108a2.143,2.143,0,0,1,.563-.71,6.024,6.024,0,0,1,1.043-.691,2.978,2.978,0,0,1-.814-.278.43.43,0,0,1-.265-.359q0-.36.636-.566a5.829,5.829,0,0,1,1.737-.207h3.332a4.2,4.2,0,0,1,1.415.2c.366.136.551.314.551.534q0,.521-1.871.754c-.383.043-.646.078-.79.107a3.324,3.324,0,0,0-1.617.885,1.993,1.993,0,0,0-.731,1.431,1.547,1.547,0,0,0,1.053,1.361,6.265,6.265,0,0,0,2.733.516,6.813,6.813,0,0,0,2.433-.369,6.191,6.191,0,0,0,2.12-1.634l1.415-1.569a5.855,5.855,0,0,1,2.745-1.445,15.729,15.729,0,0,1,4.278-.539,12.939,12.939,0,0,1,4.985.8,3.235,3.235,0,0,1,2.18,2.231l1.822.035a5.21,5.21,0,0,1,1.474.2c.327.114.492.268.492.466s-.148.359-.444.466a3.928,3.928,0,0,1-1.282.162h-.287l-1.917-.055a7.015,7.015,0,0,1-.539.652,5.8,5.8,0,0,1-.684.614,2.67,2.67,0,0,1,.634.27.372.372,0,0,1,.205.3c0,.2-.149.351-.444.44a5.915,5.915,0,0,1-1.522.136h-2.948a4.359,4.359,0,0,1-1.354-.162q-.468-.161-.468-.466,0-.449,1.486-.7.384-.052.575-.089a3.112,3.112,0,0,0,1.511-.663,1.478,1.478,0,0,0,.55-1.141,1.637,1.637,0,0,0-1.03-1.454,5.85,5.85,0,0,0-2.733-.547,7.259,7.259,0,0,0-2.36.342,3.545,3.545,0,0,0-1.571,1l-1.533,1.723a6.557,6.557,0,0,1-2.96,1.925,14.624,14.624,0,0,1-4.59.615,12.82,12.82,0,0,1-5.128-.875A3.292,3.292,0,0,1,132.291,381.23Z" transform="translate(-124.669 -377.155)" fill="#fccd8d"/>
            </g>
            <g id="Group_7711" data-name="Group 7711" transform="translate(28.805 3.057)">
              <path id="Path_16814" data-name="Path 16814" d="M132.291,381.355l-5.561-.107a5.723,5.723,0,0,1-1.571-.18q-.491-.161-.49-.519c0-.2.151-.342.455-.432a5.7,5.7,0,0,1,1.462-.134h.431l5.416.107a2.143,2.143,0,0,1,.563-.709,6.019,6.019,0,0,1,1.043-.691,2.981,2.981,0,0,1-.814-.278.43.43,0,0,1-.265-.359q0-.36.636-.566a5.83,5.83,0,0,1,1.737-.207h3.332a4.2,4.2,0,0,1,1.415.2c.366.136.551.313.551.534q0,.521-1.871.754c-.383.043-.646.078-.79.108a3.324,3.324,0,0,0-1.617.885,1.993,1.993,0,0,0-.731,1.43,1.547,1.547,0,0,0,1.053,1.361,6.265,6.265,0,0,0,2.733.516,6.813,6.813,0,0,0,2.433-.369,6.191,6.191,0,0,0,2.12-1.634l1.415-1.569a5.855,5.855,0,0,1,2.745-1.445,15.725,15.725,0,0,1,4.278-.539,12.939,12.939,0,0,1,4.985.8,3.235,3.235,0,0,1,2.18,2.231l1.822.035a5.21,5.21,0,0,1,1.474.2c.327.114.492.268.492.466s-.148.359-.444.466a3.928,3.928,0,0,1-1.282.162h-.287l-1.917-.055a7.011,7.011,0,0,1-.539.652,5.807,5.807,0,0,1-.684.614,2.672,2.672,0,0,1,.634.27.372.372,0,0,1,.205.3c0,.2-.149.351-.444.44a5.913,5.913,0,0,1-1.522.136h-2.948a4.359,4.359,0,0,1-1.354-.162q-.468-.161-.468-.466,0-.449,1.486-.7.384-.052.575-.089a3.114,3.114,0,0,0,1.511-.663,1.478,1.478,0,0,0,.55-1.141,1.637,1.637,0,0,0-1.03-1.454,5.85,5.85,0,0,0-2.733-.547,7.3,7.3,0,0,0-2.36.341,3.562,3.562,0,0,0-1.571,1.005l-1.533,1.723a6.557,6.557,0,0,1-2.96,1.925,14.627,14.627,0,0,1-4.59.615,12.819,12.819,0,0,1-5.128-.875A3.292,3.292,0,0,1,132.291,381.355Z" transform="translate(-124.669 -377.28)" fill="#d18f37"/>
            </g>
          </g>
          <g id="Group_7715" data-name="Group 7715" transform="translate(6.981 27.917)">
            <path id="Path_16815" data-name="Path 16815" d="M208.783,381.805c0,3.713-21.983,6.723-49.1,6.723s-49.1-3.01-49.1-6.723,21.983-6.724,49.1-6.724S208.783,378.091,208.783,381.805Z" transform="translate(-110.586 -370.985)" fill="#d18f37"/>
            <rect id="Rectangle_2380" data-name="Rectangle 2380" width="98.197" height="4.303" transform="translate(0 6.517)" fill="#d18f37"/>
            <path id="Path_16816" data-name="Path 16816" d="M208.783,379.328c0,3.713-21.983,6.724-49.1,6.724s-49.1-3.011-49.1-6.724,21.983-6.724,49.1-6.724S208.783,375.614,208.783,379.328Z" transform="translate(-110.586 -372.604)" fill="#fbb040"/>
            <g id="Group_7713" data-name="Group 7713" transform="translate(28.805 2.851)">
              <path id="Path_16817" data-name="Path 16817" d="M135.189,378.4l-5.561-.107a5.858,5.858,0,0,1-1.571-.18q-.491-.161-.49-.521c0-.2.151-.341.455-.43a5.6,5.6,0,0,1,1.462-.136h.431l5.416.107a2.122,2.122,0,0,1,.563-.708,5.93,5.93,0,0,1,1.043-.691,3.1,3.1,0,0,1-.814-.278.432.432,0,0,1-.265-.359q0-.36.636-.566a5.831,5.831,0,0,1,1.737-.207h3.332a4.2,4.2,0,0,1,1.415.2c.366.134.551.313.551.534q0,.521-1.871.754c-.383.041-.646.078-.79.107a3.346,3.346,0,0,0-1.618.883,2,2,0,0,0-.729,1.432,1.545,1.545,0,0,0,1.053,1.359,6.241,6.241,0,0,0,2.733.516,6.814,6.814,0,0,0,2.433-.367,6.232,6.232,0,0,0,2.12-1.634l1.415-1.571a5.871,5.871,0,0,1,2.745-1.444,15.729,15.729,0,0,1,4.278-.539,12.945,12.945,0,0,1,4.985.8,3.236,3.236,0,0,1,2.18,2.229l1.822.036a5.284,5.284,0,0,1,1.474.2c.327.114.492.27.492.468s-.148.359-.444.466a3.935,3.935,0,0,1-1.282.16h-.287l-1.917-.053a6.793,6.793,0,0,1-.539.65,5.672,5.672,0,0,1-.684.615,2.6,2.6,0,0,1,.634.27.37.37,0,0,1,.2.3c0,.2-.148.351-.443.44a5.931,5.931,0,0,1-1.522.134h-2.948a4.366,4.366,0,0,1-1.354-.16c-.312-.109-.468-.265-.468-.468,0-.3.5-.533,1.486-.7q.384-.055.575-.089a3.085,3.085,0,0,0,1.51-.665,1.472,1.472,0,0,0,.551-1.139,1.636,1.636,0,0,0-1.03-1.454,5.83,5.83,0,0,0-2.733-.547,7.306,7.306,0,0,0-2.36.341,3.547,3.547,0,0,0-1.571,1.005l-1.533,1.723a6.566,6.566,0,0,1-2.96,1.925,14.626,14.626,0,0,1-4.59.615,12.849,12.849,0,0,1-5.128-.875A3.294,3.294,0,0,1,135.189,378.4Z" transform="translate(-127.567 -374.328)" fill="#fccd8d"/>
            </g>
            <g id="Group_7714" data-name="Group 7714" transform="translate(28.805 3.058)">
              <path id="Path_16818" data-name="Path 16818" d="M135.189,378.528l-5.561-.107a5.856,5.856,0,0,1-1.571-.18q-.491-.161-.49-.521c0-.2.151-.341.455-.43a5.6,5.6,0,0,1,1.462-.136h.431l5.416.107a2.121,2.121,0,0,1,.563-.708,5.931,5.931,0,0,1,1.043-.691,3.1,3.1,0,0,1-.814-.278.432.432,0,0,1-.265-.359q0-.36.636-.566a5.83,5.83,0,0,1,1.737-.207h3.332a4.2,4.2,0,0,1,1.415.2c.366.134.551.313.551.534q0,.521-1.871.754c-.383.041-.646.078-.79.107a3.346,3.346,0,0,0-1.618.883,2,2,0,0,0-.729,1.432,1.545,1.545,0,0,0,1.053,1.359,6.242,6.242,0,0,0,2.733.516,6.813,6.813,0,0,0,2.433-.367,6.231,6.231,0,0,0,2.12-1.634l1.415-1.571a5.871,5.871,0,0,1,2.745-1.444,15.728,15.728,0,0,1,4.278-.539,12.945,12.945,0,0,1,4.985.8,3.236,3.236,0,0,1,2.18,2.229l1.822.036a5.283,5.283,0,0,1,1.474.2c.327.114.492.27.492.468s-.148.359-.444.466a3.935,3.935,0,0,1-1.282.16h-.287l-1.917-.053a6.793,6.793,0,0,1-.539.65,5.672,5.672,0,0,1-.684.615,2.6,2.6,0,0,1,.634.27.37.37,0,0,1,.2.3c0,.2-.148.349-.443.44a5.932,5.932,0,0,1-1.522.134h-2.948a4.367,4.367,0,0,1-1.354-.16c-.312-.109-.468-.265-.468-.468q0-.449,1.486-.7.384-.055.575-.089a3.1,3.1,0,0,0,1.51-.665,1.472,1.472,0,0,0,.551-1.139,1.636,1.636,0,0,0-1.03-1.454,5.83,5.83,0,0,0-2.733-.547,7.306,7.306,0,0,0-2.36.341,3.547,3.547,0,0,0-1.571,1.005l-1.533,1.723a6.565,6.565,0,0,1-2.96,1.925,14.625,14.625,0,0,1-4.59.615,12.817,12.817,0,0,1-5.128-.877A3.29,3.29,0,0,1,135.189,378.528Z" transform="translate(-127.567 -374.453)" fill="#d18f37"/>
            </g>
          </g>
          <g id="Group_7718" data-name="Group 7718" transform="translate(0 21.193)">
            <ellipse id="Ellipse_215" data-name="Ellipse 215" cx="49.099" cy="6.724" rx="49.099" ry="6.724" transform="translate(0 4.096)" fill="#d18f37"/>
            <rect id="Rectangle_2381" data-name="Rectangle 2381" width="98.197" height="4.303" transform="translate(0 6.517)" fill="#d18f37"/>
            <ellipse id="Ellipse_216" data-name="Ellipse 216" cx="49.099" cy="6.724" rx="49.099" ry="6.724" fill="#fbb040"/>
            <g id="Group_7716" data-name="Group 7716" transform="translate(28.806 2.851)">
              <path id="Path_16819" data-name="Path 16819" d="M131.074,374.337l-5.561-.107a5.791,5.791,0,0,1-1.571-.18c-.327-.108-.49-.281-.49-.521,0-.2.151-.341.455-.43a5.694,5.694,0,0,1,1.462-.134h.431l5.416.108a2.126,2.126,0,0,1,.563-.709,6.019,6.019,0,0,1,1.043-.691,3.039,3.039,0,0,1-.814-.278.432.432,0,0,1-.265-.359q0-.36.636-.566a5.829,5.829,0,0,1,1.737-.207h3.332a4.179,4.179,0,0,1,1.413.2c.368.136.551.313.551.534q0,.521-1.869.754c-.383.041-.646.078-.79.108a3.336,3.336,0,0,0-1.618.885,2,2,0,0,0-.731,1.43,1.547,1.547,0,0,0,1.055,1.359,6.237,6.237,0,0,0,2.733.516,6.816,6.816,0,0,0,2.433-.367,6.211,6.211,0,0,0,2.12-1.634l1.415-1.569a5.856,5.856,0,0,1,2.745-1.445,15.719,15.719,0,0,1,4.278-.539,12.93,12.93,0,0,1,4.984.8,3.235,3.235,0,0,1,2.181,2.229l1.822.036a5.211,5.211,0,0,1,1.474.2c.327.112.492.268.492.466s-.149.359-.444.466a3.927,3.927,0,0,1-1.282.162h-.287L158.2,374.8a6.517,6.517,0,0,1-.538.65,5.671,5.671,0,0,1-.684.615,2.632,2.632,0,0,1,.634.27.37.37,0,0,1,.2.3c0,.2-.148.351-.443.44a5.936,5.936,0,0,1-1.522.134h-2.948a4.36,4.36,0,0,1-1.354-.16q-.468-.161-.468-.466,0-.449,1.486-.7.384-.052.575-.089a3.086,3.086,0,0,0,1.51-.665,1.472,1.472,0,0,0,.551-1.139,1.636,1.636,0,0,0-1.03-1.454,5.83,5.83,0,0,0-2.733-.547,7.325,7.325,0,0,0-2.361.341,3.542,3.542,0,0,0-1.569,1.005l-1.533,1.723a6.566,6.566,0,0,1-2.96,1.925,14.624,14.624,0,0,1-4.59.615,12.848,12.848,0,0,1-5.128-.875A3.292,3.292,0,0,1,131.074,374.337Z" transform="translate(-123.452 -370.262)" fill="#fccd8d"/>
            </g>
            <g id="Group_7717" data-name="Group 7717" transform="translate(28.806 3.058)">
              <path id="Path_16820" data-name="Path 16820" d="M131.074,374.462l-5.561-.107a5.791,5.791,0,0,1-1.571-.18c-.327-.107-.49-.281-.49-.521,0-.2.151-.341.455-.43a5.7,5.7,0,0,1,1.462-.134h.431l5.416.108a2.127,2.127,0,0,1,.563-.709,6.017,6.017,0,0,1,1.043-.691,3.043,3.043,0,0,1-.814-.278.432.432,0,0,1-.265-.359q0-.36.636-.566a5.829,5.829,0,0,1,1.737-.207h3.332a4.179,4.179,0,0,1,1.413.2c.368.136.551.313.551.534q0,.521-1.869.754c-.383.041-.646.078-.79.108a3.336,3.336,0,0,0-1.618.885,2,2,0,0,0-.731,1.431,1.547,1.547,0,0,0,1.055,1.359,6.237,6.237,0,0,0,2.733.516,6.816,6.816,0,0,0,2.433-.367,6.233,6.233,0,0,0,2.12-1.634l1.415-1.569a5.856,5.856,0,0,1,2.745-1.445,15.718,15.718,0,0,1,4.278-.539,12.929,12.929,0,0,1,4.984.8,3.235,3.235,0,0,1,2.181,2.229l1.822.036a5.212,5.212,0,0,1,1.474.2c.327.112.492.268.492.466s-.149.359-.444.466a3.928,3.928,0,0,1-1.282.162h-.287l-1.919-.055a6.521,6.521,0,0,1-.538.65,5.684,5.684,0,0,1-.684.615,2.631,2.631,0,0,1,.634.27.37.37,0,0,1,.2.3c0,.2-.148.351-.443.44a5.938,5.938,0,0,1-1.522.134h-2.948a4.36,4.36,0,0,1-1.354-.16q-.468-.161-.468-.466,0-.449,1.486-.7c.256-.035.448-.066.575-.089a3.086,3.086,0,0,0,1.51-.665,1.472,1.472,0,0,0,.551-1.139,1.636,1.636,0,0,0-1.03-1.454,5.83,5.83,0,0,0-2.733-.547,7.323,7.323,0,0,0-2.361.341,3.541,3.541,0,0,0-1.569,1.005l-1.533,1.723a6.566,6.566,0,0,1-2.96,1.925,14.625,14.625,0,0,1-4.59.615,12.848,12.848,0,0,1-5.128-.875A3.292,3.292,0,0,1,131.074,374.462Z" transform="translate(-123.452 -370.387)" fill="#d18f37"/>
            </g>
          </g>
          <g id="Group_7721" data-name="Group 7721" transform="translate(9.274 16.517)">
            <ellipse id="Ellipse_217" data-name="Ellipse 217" cx="49.099" cy="6.724" rx="49.099" ry="6.724" transform="translate(0 4.096)" fill="#d18f37"/>
            <rect id="Rectangle_2382" data-name="Rectangle 2382" width="98.197" height="4.303" transform="translate(0 6.517)" fill="#d18f37"/>
            <ellipse id="Ellipse_218" data-name="Ellipse 218" cx="49.099" cy="6.724" rx="49.099" ry="6.724" fill="#fbb040"/>
            <g id="Group_7719" data-name="Group 7719" transform="translate(28.805 2.851)">
              <path id="Path_16821" data-name="Path 16821" d="M136.541,371.508l-5.561-.107a5.8,5.8,0,0,1-1.571-.179c-.327-.107-.49-.281-.49-.521,0-.2.151-.341.455-.43a5.6,5.6,0,0,1,1.462-.136h.431l5.416.107a2.121,2.121,0,0,1,.563-.708,5.926,5.926,0,0,1,1.043-.691,3.1,3.1,0,0,1-.814-.278.432.432,0,0,1-.265-.36q0-.357.636-.564a5.778,5.778,0,0,1,1.737-.207h3.332a4.2,4.2,0,0,1,1.415.2c.366.134.551.313.551.534q0,.521-1.871.754c-.383.041-.646.078-.79.108a3.333,3.333,0,0,0-1.617.883,2,2,0,0,0-.731,1.432,1.545,1.545,0,0,0,1.053,1.359,6.241,6.241,0,0,0,2.733.516,6.775,6.775,0,0,0,2.433-.369,6.2,6.2,0,0,0,2.12-1.632l1.415-1.571a5.885,5.885,0,0,1,2.745-1.445,15.728,15.728,0,0,1,4.278-.538,12.939,12.939,0,0,1,4.985.8,3.233,3.233,0,0,1,2.18,2.229l1.822.036a5.285,5.285,0,0,1,1.474.2c.327.114.492.27.492.466s-.148.359-.444.468a3.935,3.935,0,0,1-1.282.16h-.287l-1.917-.053a6.788,6.788,0,0,1-.539.65,5.816,5.816,0,0,1-.684.615,2.539,2.539,0,0,1,.634.27.372.372,0,0,1,.205.3c0,.2-.149.349-.444.44a5.935,5.935,0,0,1-1.522.134h-2.948a4.307,4.307,0,0,1-1.354-.162q-.468-.161-.468-.466,0-.449,1.486-.7.384-.055.575-.089a3.13,3.13,0,0,0,1.511-.665,1.475,1.475,0,0,0,.55-1.139,1.635,1.635,0,0,0-1.03-1.454,5.83,5.83,0,0,0-2.733-.547,7.3,7.3,0,0,0-2.36.341,3.533,3.533,0,0,0-1.571,1.005l-1.533,1.723a6.556,6.556,0,0,1-2.96,1.925,14.629,14.629,0,0,1-4.59.614,12.82,12.82,0,0,1-5.128-.875A3.289,3.289,0,0,1,136.541,371.508Z" transform="translate(-128.919 -367.435)" fill="#fccd8d"/>
            </g>
            <g id="Group_7720" data-name="Group 7720" transform="translate(28.805 3.058)">
              <path id="Path_16822" data-name="Path 16822" d="M136.541,371.633l-5.561-.107a5.8,5.8,0,0,1-1.571-.179c-.327-.107-.49-.281-.49-.521,0-.2.151-.341.455-.43a5.6,5.6,0,0,1,1.462-.136h.431l5.416.108a2.121,2.121,0,0,1,.563-.708,5.929,5.929,0,0,1,1.043-.691,3.1,3.1,0,0,1-.814-.278.432.432,0,0,1-.265-.361q0-.357.636-.564a5.778,5.778,0,0,1,1.737-.207h3.332a4.2,4.2,0,0,1,1.415.2c.366.134.551.313.551.534q0,.521-1.871.754c-.383.041-.646.078-.79.107a3.334,3.334,0,0,0-1.617.883,2,2,0,0,0-.731,1.432,1.545,1.545,0,0,0,1.053,1.359,6.242,6.242,0,0,0,2.733.516,6.775,6.775,0,0,0,2.433-.369,6.2,6.2,0,0,0,2.12-1.632l1.415-1.571a5.885,5.885,0,0,1,2.745-1.445,15.731,15.731,0,0,1,4.278-.537,12.973,12.973,0,0,1,4.985.8,3.238,3.238,0,0,1,2.18,2.231l1.822.036a5.222,5.222,0,0,1,1.474.2c.327.114.492.27.492.466s-.148.359-.444.468a3.935,3.935,0,0,1-1.282.16h-.287l-1.917-.053a6.792,6.792,0,0,1-.539.65,5.975,5.975,0,0,1-.684.615,2.537,2.537,0,0,1,.634.27.372.372,0,0,1,.205.3c0,.2-.149.349-.444.44a5.933,5.933,0,0,1-1.522.134h-2.948a4.308,4.308,0,0,1-1.354-.162q-.468-.161-.468-.466,0-.449,1.486-.7.384-.055.575-.089a3.13,3.13,0,0,0,1.511-.665,1.475,1.475,0,0,0,.55-1.139,1.633,1.633,0,0,0-1.03-1.454,5.83,5.83,0,0,0-2.733-.547,7.261,7.261,0,0,0-2.36.341,3.533,3.533,0,0,0-1.571,1.005l-1.533,1.723a6.556,6.556,0,0,1-2.96,1.925,14.627,14.627,0,0,1-4.59.614,12.819,12.819,0,0,1-5.128-.875A3.289,3.289,0,0,1,136.541,371.633Z" transform="translate(-128.919 -367.56)" fill="#d18f37"/>
            </g>
          </g>
          <g id="Group_7724" data-name="Group 7724" transform="translate(6.028 10.596)">
            <path id="Path_16823" data-name="Path 16823" d="M208.222,371.331c0,3.714-21.983,6.724-49.1,6.724s-49.1-3.01-49.1-6.724,21.981-6.724,49.1-6.724S208.222,367.619,208.222,371.331Z" transform="translate(-110.024 -360.511)" fill="#d18f37"/>
            <rect id="Rectangle_2383" data-name="Rectangle 2383" width="98.197" height="4.303" transform="translate(0 6.518)" fill="#d18f37"/>
            <path id="Path_16824" data-name="Path 16824" d="M208.222,368.854c0,3.714-21.983,6.724-49.1,6.724s-49.1-3.01-49.1-6.724,21.981-6.724,49.1-6.724S208.222,365.141,208.222,368.854Z" transform="translate(-110.024 -362.13)" fill="#fbb040"/>
            <g id="Group_7722" data-name="Group 7722" transform="translate(28.804 2.853)">
              <path id="Path_16825" data-name="Path 16825" d="M134.627,367.928l-5.561-.108a5.8,5.8,0,0,1-1.569-.179c-.327-.109-.492-.281-.492-.521,0-.2.153-.341.456-.432a5.7,5.7,0,0,1,1.462-.134h.431l5.416.107a2.143,2.143,0,0,1,.563-.71,5.96,5.96,0,0,1,1.043-.69,3.066,3.066,0,0,1-.816-.28.429.429,0,0,1-.263-.359c0-.24.212-.427.634-.566a5.848,5.848,0,0,1,1.739-.205H141a4.14,4.14,0,0,1,1.413.2q.552.2.551.534,0,.518-1.869.753c-.383.043-.646.078-.79.107a3.348,3.348,0,0,0-1.618.885,2,2,0,0,0-.731,1.432,1.545,1.545,0,0,0,1.055,1.359,6.232,6.232,0,0,0,2.733.516,6.773,6.773,0,0,0,2.433-.369,6.2,6.2,0,0,0,2.12-1.632l1.415-1.571a5.862,5.862,0,0,1,2.743-1.445,15.739,15.739,0,0,1,4.278-.538,12.969,12.969,0,0,1,4.986.8,3.241,3.241,0,0,1,2.181,2.231l1.822.036a5.161,5.161,0,0,1,1.474.2c.327.114.49.27.49.466s-.148.359-.443.466a3.882,3.882,0,0,1-1.282.162h-.287l-1.919-.053a6.693,6.693,0,0,1-.539.65,5.937,5.937,0,0,1-.682.615,2.644,2.644,0,0,1,.634.268.372.372,0,0,1,.2.3c0,.2-.148.349-.443.438a5.856,5.856,0,0,1-1.522.136h-2.948a4.369,4.369,0,0,1-1.355-.162c-.31-.107-.466-.263-.466-.466q0-.449,1.486-.7c.256-.036.448-.066.575-.091a3.106,3.106,0,0,0,1.51-.663,1.471,1.471,0,0,0,.551-1.139,1.633,1.633,0,0,0-1.03-1.454,5.83,5.83,0,0,0-2.733-.547,7.281,7.281,0,0,0-2.361.341,3.539,3.539,0,0,0-1.569,1l-1.535,1.723a6.523,6.523,0,0,1-2.958,1.925,14.621,14.621,0,0,1-4.59.615,12.835,12.835,0,0,1-5.13-.875A3.292,3.292,0,0,1,134.627,367.928Z" transform="translate(-127.005 -363.855)" fill="#fccd8d"/>
            </g>
            <g id="Group_7723" data-name="Group 7723" transform="translate(28.804 3.058)">
              <path id="Path_16826" data-name="Path 16826" d="M134.627,368.054l-5.561-.108a5.8,5.8,0,0,1-1.569-.179c-.327-.109-.492-.281-.492-.521,0-.2.153-.341.456-.432a5.7,5.7,0,0,1,1.462-.134h.431l5.416.107a2.143,2.143,0,0,1,.563-.709,5.958,5.958,0,0,1,1.043-.69,3.067,3.067,0,0,1-.816-.28.431.431,0,0,1-.263-.359c0-.24.212-.427.634-.566a5.841,5.841,0,0,1,1.739-.207H141a4.135,4.135,0,0,1,1.413.2c.368.134.551.313.551.533q0,.521-1.869.754c-.383.043-.646.078-.79.108a3.349,3.349,0,0,0-1.618.885,2,2,0,0,0-.731,1.432,1.545,1.545,0,0,0,1.055,1.359,6.231,6.231,0,0,0,2.733.516,6.774,6.774,0,0,0,2.433-.369,6.2,6.2,0,0,0,2.12-1.632l1.415-1.571a5.849,5.849,0,0,1,2.743-1.445,15.738,15.738,0,0,1,4.278-.538,12.938,12.938,0,0,1,4.986.8,3.241,3.241,0,0,1,2.181,2.231l1.822.036a5.163,5.163,0,0,1,1.474.2c.327.114.49.27.49.466s-.148.359-.443.466a3.928,3.928,0,0,1-1.282.162h-.287l-1.919-.055a6.51,6.51,0,0,1-.539.652,5.94,5.94,0,0,1-.682.615,2.642,2.642,0,0,1,.634.268.372.372,0,0,1,.2.3c0,.2-.148.349-.443.438a5.857,5.857,0,0,1-1.522.136h-2.948a4.371,4.371,0,0,1-1.355-.162c-.31-.108-.466-.263-.466-.466q0-.449,1.486-.7c.256-.036.448-.066.575-.091a3.107,3.107,0,0,0,1.51-.663,1.474,1.474,0,0,0,.551-1.139,1.633,1.633,0,0,0-1.03-1.454A5.83,5.83,0,0,0,155,365.7a7.28,7.28,0,0,0-2.361.341,3.539,3.539,0,0,0-1.569,1l-1.535,1.723a6.524,6.524,0,0,1-2.958,1.925,14.624,14.624,0,0,1-4.59.615,12.834,12.834,0,0,1-5.13-.875A3.292,3.292,0,0,1,134.627,368.054Z" transform="translate(-127.005 -363.979)" fill="#d18f37"/>
            </g>
          </g>
          <g id="Group_7727" data-name="Group 7727" transform="translate(0 4.676)">
            <ellipse id="Ellipse_219" data-name="Ellipse 219" cx="49.099" cy="6.724" rx="49.099" ry="6.724" transform="translate(0 4.096)" fill="#d18f37"/>
            <rect id="Rectangle_2384" data-name="Rectangle 2384" width="98.197" height="4.303" transform="translate(0 6.517)" fill="#d18f37"/>
            <ellipse id="Ellipse_220" data-name="Ellipse 220" cx="49.099" cy="6.724" rx="49.099" ry="6.724" fill="#fbb040"/>
            <g id="Group_7725" data-name="Group 7725" transform="translate(28.806 2.851)">
              <path id="Path_16827" data-name="Path 16827" d="M131.074,364.349l-5.561-.108a5.789,5.789,0,0,1-1.571-.18c-.327-.107-.49-.281-.49-.519,0-.2.151-.342.455-.432a5.691,5.691,0,0,1,1.462-.134h.431l5.416.107a2.143,2.143,0,0,1,.563-.709,6.021,6.021,0,0,1,1.043-.691,2.984,2.984,0,0,1-.814-.278.43.43,0,0,1-.265-.359q0-.36.636-.566a5.83,5.83,0,0,1,1.737-.207h3.332a4.181,4.181,0,0,1,1.413.2c.368.136.551.313.551.534q0,.521-1.869.754c-.383.043-.646.078-.79.108a3.337,3.337,0,0,0-1.618.885,2,2,0,0,0-.731,1.431,1.547,1.547,0,0,0,1.055,1.359,6.212,6.212,0,0,0,2.733.518,6.813,6.813,0,0,0,2.433-.369,6.19,6.19,0,0,0,2.12-1.634l1.415-1.569a5.856,5.856,0,0,1,2.745-1.445,15.719,15.719,0,0,1,4.278-.539,12.93,12.93,0,0,1,4.984.8,3.234,3.234,0,0,1,2.181,2.231l1.822.035a5.213,5.213,0,0,1,1.474.2c.327.114.492.27.492.466s-.149.359-.444.466a3.927,3.927,0,0,1-1.282.162h-.287l-1.919-.055a6.73,6.73,0,0,1-.538.652,5.818,5.818,0,0,1-.684.614,2.7,2.7,0,0,1,.634.27.372.372,0,0,1,.2.3c0,.2-.148.351-.443.44a5.842,5.842,0,0,1-1.522.136h-2.948a4.351,4.351,0,0,1-1.354-.162q-.468-.161-.468-.466,0-.449,1.486-.7.384-.052.575-.089a3.1,3.1,0,0,0,1.51-.663,1.477,1.477,0,0,0,.551-1.141,1.636,1.636,0,0,0-1.03-1.454,5.85,5.85,0,0,0-2.733-.547,7.325,7.325,0,0,0-2.361.341,3.555,3.555,0,0,0-1.569,1.005l-1.533,1.723a6.565,6.565,0,0,1-2.96,1.925,14.623,14.623,0,0,1-4.59.615,12.819,12.819,0,0,1-5.128-.875A3.292,3.292,0,0,1,131.074,364.349Z" transform="translate(-123.452 -360.274)" fill="#fccd8d"/>
            </g>
            <g id="Group_7726" data-name="Group 7726" transform="translate(28.806 3.057)">
              <path id="Path_16828" data-name="Path 16828" d="M131.074,364.474l-5.561-.107a5.794,5.794,0,0,1-1.571-.18c-.327-.108-.49-.281-.49-.519,0-.2.151-.342.455-.432a5.691,5.691,0,0,1,1.462-.134h.431l5.416.107a2.142,2.142,0,0,1,.563-.709,6.021,6.021,0,0,1,1.043-.691,2.985,2.985,0,0,1-.814-.278.43.43,0,0,1-.265-.359q0-.36.636-.566a5.833,5.833,0,0,1,1.737-.207h3.332a4.181,4.181,0,0,1,1.413.2c.368.136.551.313.551.534q0,.521-1.869.754c-.383.043-.646.078-.79.107a3.336,3.336,0,0,0-1.618.885,2,2,0,0,0-.731,1.431,1.547,1.547,0,0,0,1.055,1.359,6.213,6.213,0,0,0,2.733.516,6.813,6.813,0,0,0,2.433-.367,6.19,6.19,0,0,0,2.12-1.634l1.415-1.569a5.857,5.857,0,0,1,2.745-1.445,15.72,15.72,0,0,1,4.278-.539,12.93,12.93,0,0,1,4.984.8,3.234,3.234,0,0,1,2.181,2.231l1.822.035a5.213,5.213,0,0,1,1.474.2c.327.114.492.27.492.466s-.149.359-.444.466a3.928,3.928,0,0,1-1.282.162h-.287l-1.919-.055a6.738,6.738,0,0,1-.538.652,5.812,5.812,0,0,1-.684.614,2.7,2.7,0,0,1,.634.27.372.372,0,0,1,.2.3c0,.2-.148.351-.443.44a5.918,5.918,0,0,1-1.522.136h-2.948a4.352,4.352,0,0,1-1.354-.162q-.468-.161-.468-.466,0-.449,1.486-.7.384-.052.575-.089a3.1,3.1,0,0,0,1.51-.663,1.477,1.477,0,0,0,.551-1.141,1.637,1.637,0,0,0-1.03-1.454,5.85,5.85,0,0,0-2.733-.547,7.325,7.325,0,0,0-2.361.341,3.541,3.541,0,0,0-1.569,1.005l-1.533,1.723a6.564,6.564,0,0,1-2.96,1.925,14.622,14.622,0,0,1-4.59.615,12.818,12.818,0,0,1-5.128-.875A3.292,3.292,0,0,1,131.074,364.474Z" transform="translate(-123.452 -360.399)" fill="#d18f37"/>
            </g>
          </g>
          <g id="Group_7730" data-name="Group 7730" transform="translate(9.274)">
            <path id="Path_16829" data-name="Path 16829" d="M210.135,364.924c0,3.713-21.983,6.724-49.1,6.724s-49.1-3.012-49.1-6.724,21.983-6.724,49.1-6.724S210.135,361.21,210.135,364.924Z" transform="translate(-111.938 -354.104)" fill="#d18f37"/>
            <rect id="Rectangle_2385" data-name="Rectangle 2385" width="98.197" height="4.303" transform="translate(0 6.517)" fill="#d18f37"/>
            <path id="Path_16830" data-name="Path 16830" d="M210.135,362.447c0,3.713-21.983,6.724-49.1,6.724s-49.1-3.011-49.1-6.724,21.983-6.724,49.1-6.724S210.135,358.733,210.135,362.447Z" transform="translate(-111.938 -355.723)" fill="#fbb040"/>
            <g id="Group_7728" data-name="Group 7728" transform="translate(28.805 2.851)">
              <path id="Path_16831" data-name="Path 16831" d="M136.541,361.522l-5.561-.107a5.859,5.859,0,0,1-1.571-.18c-.327-.107-.49-.281-.49-.521,0-.2.151-.341.455-.43a5.678,5.678,0,0,1,1.462-.136h.431l5.416.109a2.109,2.109,0,0,1,.563-.709,5.926,5.926,0,0,1,1.043-.691,3.1,3.1,0,0,1-.814-.278.432.432,0,0,1-.265-.359q0-.36.636-.566a5.832,5.832,0,0,1,1.737-.207h3.332a4.2,4.2,0,0,1,1.415.2c.366.134.551.313.551.534q0,.521-1.871.754c-.383.041-.646.078-.79.107a3.324,3.324,0,0,0-1.617.885,1.99,1.99,0,0,0-.731,1.43,1.545,1.545,0,0,0,1.053,1.359,6.242,6.242,0,0,0,2.733.516,6.816,6.816,0,0,0,2.433-.367,6.233,6.233,0,0,0,2.12-1.634l1.415-1.571a5.871,5.871,0,0,1,2.745-1.444,15.73,15.73,0,0,1,4.278-.539,12.939,12.939,0,0,1,4.985.8,3.233,3.233,0,0,1,2.18,2.229l1.822.036a5.285,5.285,0,0,1,1.474.2c.327.114.492.27.492.468s-.148.359-.444.466a3.935,3.935,0,0,1-1.282.16h-.287l-1.917-.053a6.788,6.788,0,0,1-.539.65,5.679,5.679,0,0,1-.684.615,2.6,2.6,0,0,1,.634.27.372.372,0,0,1,.205.3c0,.2-.149.351-.444.44a5.938,5.938,0,0,1-1.522.134h-2.948a4.365,4.365,0,0,1-1.354-.161c-.312-.109-.468-.265-.468-.468q0-.449,1.486-.7.384-.055.575-.089a3.1,3.1,0,0,0,1.511-.665,1.475,1.475,0,0,0,.55-1.139,1.636,1.636,0,0,0-1.03-1.454,5.83,5.83,0,0,0-2.733-.547,7.3,7.3,0,0,0-2.36.341,3.547,3.547,0,0,0-1.571,1.005l-1.533,1.723a6.556,6.556,0,0,1-2.96,1.925,14.623,14.623,0,0,1-4.59.615,12.848,12.848,0,0,1-5.128-.875A3.292,3.292,0,0,1,136.541,361.522Z" transform="translate(-128.919 -357.447)" fill="#fccd8d"/>
            </g>
            <g id="Group_7729" data-name="Group 7729" transform="translate(28.805 3.058)">
              <path id="Path_16832" data-name="Path 16832" d="M136.541,361.647l-5.561-.109a5.8,5.8,0,0,1-1.571-.179c-.327-.108-.49-.281-.49-.521,0-.2.151-.341.455-.43a5.679,5.679,0,0,1,1.462-.136h.431l5.416.109a2.111,2.111,0,0,1,.563-.709,5.928,5.928,0,0,1,1.043-.691,3.1,3.1,0,0,1-.814-.278.432.432,0,0,1-.265-.359q0-.36.636-.566a5.831,5.831,0,0,1,1.737-.207h3.332a4.2,4.2,0,0,1,1.415.2c.366.134.551.313.551.534q0,.521-1.871.754c-.383.041-.646.078-.79.108a3.334,3.334,0,0,0-1.617.883,2,2,0,0,0-.731,1.432,1.545,1.545,0,0,0,1.053,1.359,6.242,6.242,0,0,0,2.733.516,6.816,6.816,0,0,0,2.433-.367,6.233,6.233,0,0,0,2.12-1.634l1.415-1.571a5.87,5.87,0,0,1,2.745-1.444,15.726,15.726,0,0,1,4.278-.539,12.94,12.94,0,0,1,4.985.8,3.233,3.233,0,0,1,2.18,2.229l1.822.036a5.283,5.283,0,0,1,1.474.2c.327.114.492.27.492.466s-.148.361-.444.468a3.934,3.934,0,0,1-1.282.16h-.287l-1.917-.053a6.787,6.787,0,0,1-.539.65,5.674,5.674,0,0,1-.684.615,2.6,2.6,0,0,1,.634.27.372.372,0,0,1,.205.3c0,.2-.149.351-.444.44a5.936,5.936,0,0,1-1.522.134h-2.948a4.309,4.309,0,0,1-1.354-.162q-.468-.161-.468-.466,0-.449,1.486-.7.384-.055.575-.089a3.113,3.113,0,0,0,1.511-.665,1.475,1.475,0,0,0,.55-1.139,1.637,1.637,0,0,0-1.03-1.454,5.83,5.83,0,0,0-2.733-.547,7.307,7.307,0,0,0-2.36.341,3.548,3.548,0,0,0-1.571,1.005l-1.533,1.723a6.557,6.557,0,0,1-2.96,1.925,14.626,14.626,0,0,1-4.59.615,12.848,12.848,0,0,1-5.128-.875A3.292,3.292,0,0,1,136.541,361.647Z" transform="translate(-128.919 -357.572)" fill="#d18f37"/>
            </g>
          </g>
        </g>
        <path id="Path_16833" data-name="Path 16833" d="M159.347,383.659s2.884,6.5-1.89,9.364h14.5l1.5-10.493Z" transform="translate(-70.968 -338.198)" fill="#a7a9ac" style="mix-blend-mode: multiply;isolation: isolate"/>
        <g id="Group_7744" data-name="Group 7744" transform="translate(88.114 33.941)">
          <g id="Group_7734" data-name="Group 7734" transform="translate(9.274 17.321)">
            <ellipse id="Ellipse_221" data-name="Ellipse 221" cx="49.099" cy="6.724" rx="49.099" ry="6.724" transform="translate(0 4.096)" fill="#d18f37"/>
            <rect id="Rectangle_2386" data-name="Rectangle 2386" width="98.197" height="4.303" transform="translate(0 6.517)" fill="#d18f37"/>
            <ellipse id="Ellipse_222" data-name="Ellipse 222" cx="49.099" cy="6.724" rx="49.099" ry="6.724" fill="#fbb040"/>
            <g id="Group_7732" data-name="Group 7732" transform="translate(28.805 2.851)">
              <path id="Path_16834" data-name="Path 16834" d="M188.485,392.519l-5.561-.108a5.858,5.858,0,0,1-1.571-.18c-.327-.107-.49-.281-.49-.521,0-.2.151-.341.455-.43a5.6,5.6,0,0,1,1.462-.136h.431l5.416.108a2.122,2.122,0,0,1,.563-.708,5.929,5.929,0,0,1,1.043-.691,3.1,3.1,0,0,1-.814-.278.432.432,0,0,1-.265-.359q0-.36.636-.566a5.828,5.828,0,0,1,1.737-.207h3.332a4.2,4.2,0,0,1,1.415.2c.366.134.551.313.551.534q0,.521-1.871.754c-.383.041-.646.078-.79.108a3.334,3.334,0,0,0-1.617.883,2,2,0,0,0-.731,1.432,1.545,1.545,0,0,0,1.053,1.359,6.241,6.241,0,0,0,2.733.516,6.815,6.815,0,0,0,2.433-.367,6.233,6.233,0,0,0,2.12-1.634l1.415-1.571a5.87,5.87,0,0,1,2.745-1.444,15.661,15.661,0,0,1,4.278-.539,12.938,12.938,0,0,1,4.986.8,3.236,3.236,0,0,1,2.18,2.229l1.822.036a5.284,5.284,0,0,1,1.474.2c.327.114.492.27.492.468s-.148.359-.444.466a3.935,3.935,0,0,1-1.282.16h-.287l-1.917-.053a6.789,6.789,0,0,1-.539.65,5.667,5.667,0,0,1-.684.615,2.6,2.6,0,0,1,.634.27.372.372,0,0,1,.205.3c0,.2-.149.349-.444.44a5.934,5.934,0,0,1-1.522.134h-2.948a4.367,4.367,0,0,1-1.354-.16q-.468-.164-.468-.468,0-.449,1.486-.7.384-.055.575-.089a3.115,3.115,0,0,0,1.511-.665,1.475,1.475,0,0,0,.55-1.139,1.637,1.637,0,0,0-1.03-1.454,5.83,5.83,0,0,0-2.733-.547,7.306,7.306,0,0,0-2.36.341,3.534,3.534,0,0,0-1.571,1.005l-1.533,1.723a6.557,6.557,0,0,1-2.96,1.925,14.625,14.625,0,0,1-4.59.615,12.818,12.818,0,0,1-5.128-.876A3.29,3.29,0,0,1,188.485,392.519Z" transform="translate(-180.863 -388.444)" fill="#fccd8d"/>
            </g>
            <g id="Group_7733" data-name="Group 7733" transform="translate(28.805 3.058)">
              <path id="Path_16835" data-name="Path 16835" d="M188.485,392.644l-5.561-.107a5.86,5.86,0,0,1-1.571-.18c-.327-.108-.49-.281-.49-.521,0-.2.151-.341.455-.43a5.6,5.6,0,0,1,1.462-.136h.431l5.416.107a2.122,2.122,0,0,1,.563-.708,5.928,5.928,0,0,1,1.043-.691,3.1,3.1,0,0,1-.814-.278.432.432,0,0,1-.265-.359q0-.36.636-.566a5.829,5.829,0,0,1,1.737-.207h3.332a4.2,4.2,0,0,1,1.415.2c.366.134.551.313.551.534q0,.521-1.871.754c-.383.041-.646.078-.79.107a3.334,3.334,0,0,0-1.617.883,2,2,0,0,0-.731,1.432,1.545,1.545,0,0,0,1.053,1.359,6.241,6.241,0,0,0,2.733.516,6.814,6.814,0,0,0,2.433-.367,6.232,6.232,0,0,0,2.12-1.634l1.415-1.571a5.87,5.87,0,0,1,2.745-1.444,15.663,15.663,0,0,1,4.278-.539,12.938,12.938,0,0,1,4.986.8,3.236,3.236,0,0,1,2.18,2.229l1.822.036a5.283,5.283,0,0,1,1.474.2c.327.114.492.27.492.468s-.148.359-.444.466a3.935,3.935,0,0,1-1.282.16h-.287l-1.917-.053a6.793,6.793,0,0,1-.539.65,5.67,5.67,0,0,1-.684.615,2.6,2.6,0,0,1,.634.27.372.372,0,0,1,.205.3c0,.2-.149.349-.444.44a5.934,5.934,0,0,1-1.522.134h-2.948a4.367,4.367,0,0,1-1.354-.16q-.468-.164-.468-.468,0-.449,1.486-.7.384-.055.575-.089a3.114,3.114,0,0,0,1.511-.665,1.475,1.475,0,0,0,.55-1.139,1.637,1.637,0,0,0-1.03-1.454,5.83,5.83,0,0,0-2.733-.547,7.306,7.306,0,0,0-2.36.341,3.533,3.533,0,0,0-1.571,1.005l-1.533,1.723a6.556,6.556,0,0,1-2.96,1.925,14.624,14.624,0,0,1-4.59.615,12.818,12.818,0,0,1-5.128-.876A3.29,3.29,0,0,1,188.485,392.644Z" transform="translate(-180.863 -388.569)" fill="#d18f37"/>
            </g>
          </g>
          <g id="Group_7737" data-name="Group 7737" transform="translate(2.065 11.4)">
            <path id="Path_16836" data-name="Path 16836" d="M257.829,392.34c0,3.714-21.983,6.724-49.1,6.724s-49.1-3.01-49.1-6.724,21.983-6.723,49.1-6.723S257.829,388.627,257.829,392.34Z" transform="translate(-159.632 -381.52)" fill="#d18f37"/>
            <rect id="Rectangle_2387" data-name="Rectangle 2387" width="98.197" height="4.303" transform="translate(0 6.517)" fill="#d18f37"/>
            <ellipse id="Ellipse_223" data-name="Ellipse 223" cx="49.099" cy="6.724" rx="49.099" ry="6.724" fill="#fbb040"/>
            <g id="Group_7735" data-name="Group 7735" transform="translate(28.805 2.852)">
              <path id="Path_16837" data-name="Path 16837" d="M184.235,388.937l-5.561-.108a5.8,5.8,0,0,1-1.571-.179c-.327-.107-.49-.281-.49-.521,0-.2.151-.341.455-.432a5.69,5.69,0,0,1,1.462-.134h.431l5.416.107a2.142,2.142,0,0,1,.563-.709,6.023,6.023,0,0,1,1.043-.69,3.03,3.03,0,0,1-.814-.279.428.428,0,0,1-.265-.359q0-.357.636-.566a5.837,5.837,0,0,1,1.737-.205h3.332a4.156,4.156,0,0,1,1.415.2c.366.134.551.313.551.534q0,.521-1.871.753c-.383.043-.646.078-.79.109a3.334,3.334,0,0,0-1.617.883,2,2,0,0,0-.731,1.432,1.545,1.545,0,0,0,1.053,1.359,6.24,6.24,0,0,0,2.733.516,6.773,6.773,0,0,0,2.433-.369,6.2,6.2,0,0,0,2.12-1.632l1.415-1.571a5.871,5.871,0,0,1,2.745-1.445,15.733,15.733,0,0,1,4.278-.537,12.974,12.974,0,0,1,4.985.8,3.238,3.238,0,0,1,2.18,2.231l1.822.036a5.222,5.222,0,0,1,1.474.2c.327.114.492.27.492.466s-.148.359-.444.468a3.937,3.937,0,0,1-1.282.16h-.287l-1.917-.053a6.79,6.79,0,0,1-.539.65,5.962,5.962,0,0,1-.684.615,2.539,2.539,0,0,1,.634.27.37.37,0,0,1,.205.3c0,.2-.149.349-.444.44a5.937,5.937,0,0,1-1.522.134h-2.948a4.359,4.359,0,0,1-1.354-.162q-.468-.161-.468-.466,0-.449,1.486-.7.384-.055.575-.089a3.129,3.129,0,0,0,1.511-.665,1.475,1.475,0,0,0,.55-1.139,1.633,1.633,0,0,0-1.03-1.454,5.83,5.83,0,0,0-2.733-.547,7.261,7.261,0,0,0-2.36.341,3.533,3.533,0,0,0-1.571,1.005l-1.533,1.723a6.555,6.555,0,0,1-2.96,1.925,14.676,14.676,0,0,1-4.59.614,12.82,12.82,0,0,1-5.128-.875A3.292,3.292,0,0,1,184.235,388.937Z" transform="translate(-176.613 -384.864)" fill="#fccd8d"/>
            </g>
            <g id="Group_7736" data-name="Group 7736" transform="translate(28.805 3.058)">
              <path id="Path_16838" data-name="Path 16838" d="M184.235,389.062l-5.561-.108a5.8,5.8,0,0,1-1.571-.179c-.327-.108-.49-.281-.49-.521,0-.2.151-.341.455-.432a5.694,5.694,0,0,1,1.462-.134h.431l5.416.107a2.143,2.143,0,0,1,.563-.71,6.023,6.023,0,0,1,1.043-.69,3.029,3.029,0,0,1-.814-.28.428.428,0,0,1-.265-.359q0-.357.636-.566a5.836,5.836,0,0,1,1.737-.205h3.332a4.156,4.156,0,0,1,1.415.2c.366.134.551.313.551.534q0,.521-1.871.753c-.383.043-.646.078-.79.109a3.335,3.335,0,0,0-1.617.883,2,2,0,0,0-.731,1.432,1.545,1.545,0,0,0,1.053,1.359,6.241,6.241,0,0,0,2.733.516,6.775,6.775,0,0,0,2.433-.369,6.2,6.2,0,0,0,2.12-1.632l1.415-1.571a5.87,5.87,0,0,1,2.745-1.445,15.733,15.733,0,0,1,4.278-.537,12.973,12.973,0,0,1,4.985.8,3.238,3.238,0,0,1,2.18,2.231l1.822.036a5.161,5.161,0,0,1,1.474.2c.327.114.492.27.492.466s-.148.359-.444.466a3.884,3.884,0,0,1-1.282.162h-.287l-1.917-.053a6.987,6.987,0,0,1-.539.65,5.959,5.959,0,0,1-.684.615,2.54,2.54,0,0,1,.634.27.37.37,0,0,1,.205.3c0,.2-.149.349-.444.44a5.935,5.935,0,0,1-1.522.134h-2.948a4.357,4.357,0,0,1-1.354-.162q-.468-.161-.468-.466,0-.449,1.486-.7.384-.054.575-.089a3.129,3.129,0,0,0,1.511-.665,1.475,1.475,0,0,0,.55-1.139,1.633,1.633,0,0,0-1.03-1.454,5.83,5.83,0,0,0-2.733-.547,7.262,7.262,0,0,0-2.36.341,3.533,3.533,0,0,0-1.571,1.005l-1.533,1.723a6.539,6.539,0,0,1-2.96,1.923,14.622,14.622,0,0,1-4.59.615,12.82,12.82,0,0,1-5.128-.875A3.292,3.292,0,0,1,184.235,389.062Z" transform="translate(-176.613 -384.989)" fill="#d18f37"/>
            </g>
          </g>
          <g id="Group_7740" data-name="Group 7740" transform="translate(6.981 6.724)">
            <ellipse id="Ellipse_224" data-name="Ellipse 224" cx="49.099" cy="6.724" rx="49.099" ry="6.724" transform="translate(0 4.096)" fill="#d18f37"/>
            <rect id="Rectangle_2388" data-name="Rectangle 2388" width="98.197" height="4.303" transform="translate(0 6.517)" fill="#d18f37"/>
            <ellipse id="Ellipse_225" data-name="Ellipse 225" cx="49.099" cy="6.724" rx="49.099" ry="6.724" fill="#fbb040"/>
            <g id="Group_7738" data-name="Group 7738" transform="translate(28.805 2.851)">
              <path id="Path_16839" data-name="Path 16839" d="M187.133,386.111,181.572,386a5.789,5.789,0,0,1-1.571-.18c-.327-.107-.49-.281-.49-.519,0-.2.151-.342.455-.432a5.7,5.7,0,0,1,1.462-.134h.431l5.416.107a2.127,2.127,0,0,1,.563-.709,6.022,6.022,0,0,1,1.043-.691,2.978,2.978,0,0,1-.814-.278.43.43,0,0,1-.265-.359q0-.36.636-.566a5.829,5.829,0,0,1,1.737-.207h3.332a4.2,4.2,0,0,1,1.415.2c.366.136.551.313.551.534q0,.521-1.871.754c-.383.041-.646.078-.79.108a3.324,3.324,0,0,0-1.617.885,1.993,1.993,0,0,0-.731,1.431,1.549,1.549,0,0,0,1.053,1.361,6.242,6.242,0,0,0,2.733.516,6.812,6.812,0,0,0,2.433-.369,6.211,6.211,0,0,0,2.12-1.634l1.415-1.569a5.856,5.856,0,0,1,2.745-1.445,15.729,15.729,0,0,1,4.278-.539,12.945,12.945,0,0,1,4.986.8,3.235,3.235,0,0,1,2.18,2.231l1.822.035a5.213,5.213,0,0,1,1.474.2c.327.112.492.27.492.466s-.148.359-.444.466a3.927,3.927,0,0,1-1.282.162h-.287l-1.917-.055a7.018,7.018,0,0,1-.539.652,5.809,5.809,0,0,1-.684.614,2.671,2.671,0,0,1,.634.27.37.37,0,0,1,.2.3c0,.2-.148.351-.443.44a5.915,5.915,0,0,1-1.522.136h-2.948a4.358,4.358,0,0,1-1.354-.162q-.468-.161-.468-.466,0-.449,1.486-.7.384-.052.575-.089a3.1,3.1,0,0,0,1.51-.663,1.477,1.477,0,0,0,.551-1.141,1.636,1.636,0,0,0-1.03-1.454,5.85,5.85,0,0,0-2.733-.547,7.307,7.307,0,0,0-2.36.341,3.547,3.547,0,0,0-1.571,1.005l-1.533,1.723a6.565,6.565,0,0,1-2.96,1.925,14.624,14.624,0,0,1-4.59.615,12.82,12.82,0,0,1-5.128-.875A3.292,3.292,0,0,1,187.133,386.111Z" transform="translate(-179.511 -382.036)" fill="#fccd8d"/>
            </g>
            <g id="Group_7739" data-name="Group 7739" transform="translate(28.805 3.057)">
              <path id="Path_16840" data-name="Path 16840" d="M187.133,386.236l-5.561-.108a5.787,5.787,0,0,1-1.571-.18c-.327-.107-.49-.281-.49-.519,0-.2.151-.342.455-.432a5.693,5.693,0,0,1,1.462-.134h.431l5.416.107a2.126,2.126,0,0,1,.563-.709,6.02,6.02,0,0,1,1.043-.691,2.983,2.983,0,0,1-.814-.278.43.43,0,0,1-.265-.359q0-.36.636-.566a5.83,5.83,0,0,1,1.737-.207h3.332a4.2,4.2,0,0,1,1.415.2c.366.136.551.313.551.534q0,.521-1.871.754c-.383.041-.646.078-.79.107a3.324,3.324,0,0,0-1.617.885,1.993,1.993,0,0,0-.731,1.431,1.549,1.549,0,0,0,1.053,1.361,6.241,6.241,0,0,0,2.733.516,6.811,6.811,0,0,0,2.433-.369,6.211,6.211,0,0,0,2.12-1.634l1.415-1.569a5.856,5.856,0,0,1,2.745-1.445,15.73,15.73,0,0,1,4.278-.539,12.945,12.945,0,0,1,4.986.8,3.235,3.235,0,0,1,2.18,2.231l1.822.035a5.213,5.213,0,0,1,1.474.2c.327.112.492.27.492.466s-.148.359-.444.466a3.926,3.926,0,0,1-1.282.162h-.287l-1.917-.055a7.022,7.022,0,0,1-.539.652,5.806,5.806,0,0,1-.684.614,2.672,2.672,0,0,1,.634.27.37.37,0,0,1,.2.3c0,.2-.148.351-.443.44a5.912,5.912,0,0,1-1.522.136h-2.948a4.359,4.359,0,0,1-1.354-.162q-.468-.161-.468-.466,0-.449,1.486-.7.384-.052.575-.089a3.1,3.1,0,0,0,1.51-.663,1.477,1.477,0,0,0,.551-1.141,1.637,1.637,0,0,0-1.03-1.454,5.85,5.85,0,0,0-2.733-.547,7.305,7.305,0,0,0-2.36.341,3.547,3.547,0,0,0-1.571,1.005l-1.533,1.723a6.565,6.565,0,0,1-2.96,1.925,14.623,14.623,0,0,1-4.59.615,12.849,12.849,0,0,1-5.128-.875A3.292,3.292,0,0,1,187.133,386.236Z" transform="translate(-179.511 -382.161)" fill="#d18f37"/>
            </g>
          </g>
          <g id="Group_7743" data-name="Group 7743">
            <ellipse id="Ellipse_226" data-name="Ellipse 226" cx="49.099" cy="6.724" rx="49.099" ry="6.724" transform="translate(0 4.096)" fill="#d18f37"/>
            <rect id="Rectangle_2389" data-name="Rectangle 2389" width="98.197" height="4.303" transform="translate(0 6.517)" fill="#d18f37"/>
            <ellipse id="Ellipse_227" data-name="Ellipse 227" cx="49.099" cy="6.724" rx="49.099" ry="6.724" fill="#fbb040"/>
            <g id="Group_7741" data-name="Group 7741" transform="translate(28.806 2.85)">
              <path id="Path_16841" data-name="Path 16841" d="M183.018,382.045l-5.561-.107a5.8,5.8,0,0,1-1.571-.179c-.327-.109-.49-.281-.49-.521,0-.2.151-.341.455-.432a5.7,5.7,0,0,1,1.462-.134h.431l5.416.107a2.142,2.142,0,0,1,.563-.709,6.022,6.022,0,0,1,1.043-.69,3.03,3.03,0,0,1-.814-.279.43.43,0,0,1-.265-.359c0-.24.212-.427.636-.566a5.831,5.831,0,0,1,1.737-.207h3.332a4.135,4.135,0,0,1,1.413.2c.368.134.551.313.551.533q0,.521-1.869.754c-.383.043-.646.078-.79.108a3.35,3.35,0,0,0-1.618.885,2,2,0,0,0-.731,1.431,1.548,1.548,0,0,0,1.055,1.361,6.236,6.236,0,0,0,2.733.516,6.773,6.773,0,0,0,2.433-.369,6.2,6.2,0,0,0,2.12-1.632l1.415-1.571a5.856,5.856,0,0,1,2.745-1.445,15.723,15.723,0,0,1,4.278-.537,12.933,12.933,0,0,1,4.984.8,3.237,3.237,0,0,1,2.181,2.231l1.822.036a5.162,5.162,0,0,1,1.474.2c.327.114.492.27.492.466s-.149.359-.444.466a3.928,3.928,0,0,1-1.282.162h-.287l-1.919-.055a6.74,6.74,0,0,1-.538.652,5.967,5.967,0,0,1-.684.615,2.641,2.641,0,0,1,.634.268.372.372,0,0,1,.2.3c0,.2-.148.349-.443.438a5.839,5.839,0,0,1-1.522.136h-2.948a4.351,4.351,0,0,1-1.354-.162q-.468-.161-.468-.466,0-.449,1.486-.7c.256-.036.448-.066.575-.091a3.1,3.1,0,0,0,1.51-.663,1.474,1.474,0,0,0,.551-1.139,1.633,1.633,0,0,0-1.03-1.454,5.828,5.828,0,0,0-2.733-.549,7.276,7.276,0,0,0-2.361.342,3.539,3.539,0,0,0-1.569,1l-1.533,1.723a6.538,6.538,0,0,1-2.96,1.925,14.624,14.624,0,0,1-4.59.615,12.82,12.82,0,0,1-5.128-.875A3.292,3.292,0,0,1,183.018,382.045Z" transform="translate(-175.396 -377.97)" fill="#fccd8d"/>
            </g>
            <g id="Group_7742" data-name="Group 7742" transform="translate(28.806 3.057)">
              <path id="Path_16842" data-name="Path 16842" d="M183.018,382.17l-5.561-.107a5.8,5.8,0,0,1-1.571-.179c-.327-.109-.49-.281-.49-.521,0-.2.151-.341.455-.432a5.7,5.7,0,0,1,1.462-.134h.431l5.416.107a2.143,2.143,0,0,1,.563-.71,6.026,6.026,0,0,1,1.043-.69,3.028,3.028,0,0,1-.814-.28.43.43,0,0,1-.265-.359c0-.24.212-.427.636-.566a5.829,5.829,0,0,1,1.737-.207h3.332a4.135,4.135,0,0,1,1.413.2c.368.134.551.313.551.533q0,.521-1.869.754c-.383.043-.646.078-.79.107a3.35,3.35,0,0,0-1.618.885,2,2,0,0,0-.731,1.43,1.548,1.548,0,0,0,1.055,1.361,6.236,6.236,0,0,0,2.733.516,6.774,6.774,0,0,0,2.433-.369,6.2,6.2,0,0,0,2.12-1.632l1.415-1.571a5.856,5.856,0,0,1,2.745-1.445,15.723,15.723,0,0,1,4.278-.538,12.935,12.935,0,0,1,4.984.8,3.237,3.237,0,0,1,2.181,2.231l1.822.036a5.162,5.162,0,0,1,1.474.2c.327.114.492.27.492.466s-.149.359-.444.466a3.928,3.928,0,0,1-1.282.162h-.287l-1.919-.055a6.732,6.732,0,0,1-.538.652,5.962,5.962,0,0,1-.684.615,2.641,2.641,0,0,1,.634.268.372.372,0,0,1,.2.3c0,.2-.148.351-.443.44a5.839,5.839,0,0,1-1.522.136h-2.948a4.351,4.351,0,0,1-1.354-.162q-.468-.161-.468-.466,0-.449,1.486-.7c.256-.036.448-.066.575-.091a3.1,3.1,0,0,0,1.51-.663,1.474,1.474,0,0,0,.551-1.139,1.637,1.637,0,0,0-1.03-1.455,5.85,5.85,0,0,0-2.733-.547,7.277,7.277,0,0,0-2.361.342,3.539,3.539,0,0,0-1.569,1l-1.533,1.723a6.552,6.552,0,0,1-2.96,1.925,14.624,14.624,0,0,1-4.59.615,12.82,12.82,0,0,1-5.128-.875A3.292,3.292,0,0,1,183.018,382.17Z" transform="translate(-175.396 -378.095)" fill="#d18f37"/>
            </g>
          </g>
        </g>
      </g>
    </g>
    <g id="Group_7752" data-name="Group 7752" transform="translate(480.316 211.399)">
      <g id="Group_7747" data-name="Group 7747" transform="translate(31.605 65.8)">
        <path id="Path_16843" data-name="Path 16843" d="M354.037,244.333a118.72,118.72,0,0,1-25.855-2.78,11.714,11.714,0,0,1-9.041-14.034,12.024,12.024,0,0,1,14.4-8.815c36.591,8.146,70.477-8.968,70.815-9.142a12.178,12.178,0,0,1,16.244,4.9,11.577,11.577,0,0,1-5.021,15.835A146.772,146.772,0,0,1,354.037,244.333Z" transform="translate(-318.835 -208.205)" fill="#eeb399"/>
        <path id="Path_16844" data-name="Path 16844" d="M397.332,214.458a12.178,12.178,0,0,0-16.244-4.9,119.547,119.547,0,0,1-28.846,9.24,51.648,51.648,0,0,0,8.675,22.154,139.8,139.8,0,0,0,31.394-10.663A11.577,11.577,0,0,0,397.332,214.458Z" transform="translate(-295.573 -208.205)" fill="#af374e"/>
      </g>
      <path id="Path_16845" data-name="Path 16845" d="M358.361,381.738l-7.63,6.312s21.967,4.508,41.39,1.126l-2.081-9.243Z" transform="translate(-265.02 -30.134)" fill="#171e26"/>
      <path id="Path_16846" data-name="Path 16846" d="M403.208,381.056l-7.63,6.312s21.967,4.508,41.39,1.128l-2.081-9.243Z" transform="translate(-233.792 -30.58)" fill="#171e26"/>
      <path id="Path_16847" data-name="Path 16847" d="M374.512,270.8s-28.483,125.709-20.266,188.862c0,0,20.085,7.43,35.6,0,0,0,3.82-123.272,23.9-162.175l18.09,160.318s10.643,9.284,33.467-1.861L448.572,263.663Z" transform="translate(-263.609 -106.148)" fill="#0a3759"/>
      <path id="Path_16848" data-name="Path 16848" d="M377.17,282.072l-15.1,20.657c-1.315,7.338-2.672,15.3-3.993,23.66L395.9,338.479c3.189-19.959,7.365-38.227,12.806-50.215Z" transform="translate(-259.902 -94.113)" fill="#062a3f"/>
      <path id="Path_16849" data-name="Path 16849" d="M388.925,286.018l6.382,56.559,37.26,11.912-5.305-60.943Z" transform="translate(-238.425 -91.533)" fill="#062a3f"/>
      <path id="Path_16850" data-name="Path 16850" d="M391.561,292.767a.45.45,0,0,1-.064,0l-2.1-.323a.424.424,0,0,1-.315-.232c-4.049-8.449-4.448-20.151-4.45-20.269a.421.421,0,0,1,.841-.025c0,.116.39,11.469,4.276,19.748l1.34.207c-.276-2.658-1.394-14.246-.472-20.006a.44.44,0,0,1,.482-.342.414.414,0,0,1,.351.47c-1.006,6.286.517,20.181.534,20.322a.406.406,0,0,1-.131.341A.418.418,0,0,1,391.561,292.767Z" transform="translate(-241.417 -101.013)" fill="#06263a"/>
      <path id="Path_16851" data-name="Path 16851" d="M361.96,232.028l6.154,77.631s17.981,9.547,43.363,6.67,30.941-13.811,30.941-13.811-4.385-76.174-5.125-76.928-3.74-25.784-40.464-20.67S361.96,232.028,361.96,232.028Z" transform="translate(-257.212 -145.003)" fill="#e54c64"/>
      <path id="Path_16852" data-name="Path 16852" d="M415.337,215.949l-22.792,1.366c.092.351,9.7,12.309,25.436,26.03-.9-13.84-1.712-25.129-1.995-25.417A14.755,14.755,0,0,1,415.337,215.949Z" transform="translate(-235.904 -137.342)" fill="#af374e"/>
      <g id="Group_7748" data-name="Group 7748" transform="translate(128.038 38.118)">
        <path id="Path_16853" data-name="Path 16853" d="M395.751,191.466v21.539l-10.18,23.146-9.888-19.983V203.215Z" transform="translate(-375.683 -191.466)" fill="#eeb399"/>
      </g>
      <path id="Path_16854" data-name="Path 16854" d="M392.992,198.034l-17.309,5.59v6.9C385.342,209.261,392.992,198.034,392.992,198.034Z" transform="translate(-247.646 -149.055)" fill="#cc957f"/>
      <path id="Rectangle_2390" data-name="Rectangle 2390" d="M8.364,0H29.14A8.364,8.364,0,0,1,37.5,8.364v35.55a8.364,8.364,0,0,1-8.364,8.364H8.365A8.365,8.365,0,0,1,0,43.914V8.364A8.364,8.364,0,0,1,8.364,0Z" transform="translate(110.601 5.475)" fill="#eeb399"/>
      <path id="Path_16855" data-name="Path 16855" d="M378.739,178.561s1.818,15.8,14.66,17.356c0,0,1.064-13.124.185-16.44S378.739,178.561,378.739,178.561Z" transform="translate(-245.518 -162.333)" fill="#4f3524"/>
      <path id="Path_16856" data-name="Path 16856" d="M403.34,288.134a.425.425,0,0,1-.244-.076c-7.019-4.842-21.822-3.658-21.969-3.647a.405.405,0,0,1-.455-.374.413.413,0,0,1,.382-.443c.619-.053,15.258-1.224,22.529,3.794a.4.4,0,0,1,.1.572A.422.422,0,0,1,403.34,288.134Z" transform="translate(-244.173 -93.219)" fill="#06263a"/>
      <path id="Path_16857" data-name="Path 16857" d="M393.863,191.739a4.6,4.6,0,1,1-4.6-4.482A4.539,4.539,0,0,1,393.863,191.739Z" transform="translate(-241.387 -156.1)" fill="#eeb399"/>
      <path id="Path_16858" data-name="Path 16858" d="M374.9,207.982l-.571,22.443L386.66,228.2l13.3,3.184-1.878-26.4" transform="translate(-248.589 -144.516)" fill="none" stroke="#8e263a" stroke-linecap="round" stroke-linejoin="round" stroke-width="0.567"/>
      <path id="Path_16859" data-name="Path 16859" d="M381,219.128l1.01,12.153h3.669" transform="translate(-243.941 -135.264)" fill="none" stroke="#8e263a" stroke-linecap="round" stroke-linejoin="round" stroke-width="0.567"/>
      <g id="Group_7750" data-name="Group 7750" transform="translate(0 66.208)">
        <path id="Path_16870" data-name="Path 16870" d="M17.624,4.742l220.261-.895a14.84,14.84,0,0,1,15.1,14.743l-.463,111.279A15.137,15.137,0,0,1,237.3,144.735l-220.261.895a14.84,14.84,0,0,1-15.1-14.743L2.4,19.608A15.137,15.137,0,0,1,17.624,4.742Z" transform="translate(21.726 0) rotate(9.439)" fill="#383838"/>
        <path id="Path_16871" data-name="Path 16871" d="M.319,3.138l154.9-.629-.06,14.414-154.9.629Z" transform="translate(40.744 16.658) rotate(9.439)" fill="#e4af76"/>
        <path id="Path_16872" data-name="Path 16872" d="M.09,3.134l154.9-.629-.01,2.305L.08,5.439Z" transform="translate(24.956 110.61) rotate(9.439)" fill="#e4af76"/>
        <path id="Path_16873" data-name="Path 16873" d="M.084,2.7,133.656,2.16l-.01,2.305L.074,5.008Z" transform="matrix(0.986, 0.164, -0.164, 0.986, 23.966, 116.467)" fill="#e4af76"/>
        <path id="Path_16874" data-name="Path 16874" d="M.088,2.972l146.89-.6-.01,2.305-146.89.6Z" transform="translate(23.08 121.632) rotate(9.439)" fill="#e4af76"/>
        <text id="_123456_1234_764_456" data-name="123456 1234 764 456" transform="translate(26.143 104.639) rotate(9.439)" fill="#e4af76" font-size="16" font-family="SegoeUI, Segoe UI"><tspan x="0" y="0">123456 1234 764 456</tspan></text>
        <g id="Group_7749" data-name="Group 7749" transform="translate(30.799 61.046)">
          <path id="Path_16860" data-name="Path 16860" d="M336.129,253.209a5.4,5.4,0,0,1,4.58,5.19l12.11,1.963.7-4.128a6.427,6.427,0,0,0-5.389-7.348l-21.2-3.435a6.547,6.547,0,0,0-7.481,5.056Z" transform="translate(-317.597 -245.365)" fill="#e4af76"/>
          <path id="Path_16861" data-name="Path 16861" d="M339.307,256.266a3.436,3.436,0,0,0-2.887-3.938l-16.7-2.706-1.152,6.754,16.7,2.706A3.506,3.506,0,0,0,339.307,256.266Z" transform="translate(-318.212 -242.581)" fill="#e4af76"/>
          <path id="Path_16862" data-name="Path 16862" d="M341.148,254.4a5.514,5.514,0,0,1-6.058,3.468l-16.673-2.7a6.419,6.419,0,0,0,5.4,7.143l21.2,3.435a6.553,6.553,0,0,0,7.537-5.252l.7-4.129Z" transform="translate(-318.36 -239.459)" fill="#e4af76"/>
        </g>
      </g>
      <g id="Group_7751" data-name="Group 7751" transform="translate(151.949 62.807)">
        <path id="Path_16863" data-name="Path 16863" d="M428.74,291.224s13.365,3.895,23.9,2.565l6.354-56.3a11.683,11.683,0,0,0-7.408-12.134l-45-17.9a12.128,12.128,0,0,0-15.671,6.423,11.618,11.618,0,0,0,6.589,15.278l36.6,14.556Z" transform="translate(-389.608 -206.267)" fill="#eeb399"/>
        <path id="Path_16864" data-name="Path 16864" d="M436.817,265.416a8.406,8.406,0,0,1-1.145,4,3.167,3.167,0,0,1-3.747,1.26c-.673-.327-1.218-.986-1.968-1.012-.947-.035-1.55.915-2.315,1.447a3.723,3.723,0,0,1-4.66-.852c-.375-.422-.714-.944-1.269-1.087-1.232-.318-2.27,1.452-3.494,1.113-.938-.258-1.194-1.583-2.125-1.865a6.883,6.883,0,0,0-1.574.022,2.244,2.244,0,0,1-1.852-1.629,6.2,6.2,0,0,1-.076-2.548l.438-4.015a6.1,6.1,0,0,1,.563-2.3c.826-1.507,2.728-2.085,4.455-2.449a29.1,29.1,0,0,1,10.083-.64,14.369,14.369,0,0,1,7.657,3.324C437.639,259.9,437.064,263.152,436.817,265.416Z" transform="translate(-373.961 -174.848)" fill="#eeb399"/>
        <path id="Path_16865" data-name="Path 16865" d="M406.652,207.283a12.355,12.355,0,0,0-15.962,6.544,11.837,11.837,0,0,0,6.712,15.562l31.323,12.458a68.59,68.59,0,0,0,6.651-23.14Z" transform="translate(-389.779 -206.395)" fill="#e54c64"/>
      </g>
      <path id="Path_16866" data-name="Path 16866" d="M309.668,224.755a15.681,15.681,0,0,0-.775,2.755,9.506,9.506,0,0,0,4.1,8.795,7.43,7.43,0,0,0,2.631,1.282,4.355,4.355,0,0,0,2.892-.25,1.676,1.676,0,0,0,1.057-1.33,1.733,1.733,0,0,0-.334-.946,9.419,9.419,0,0,0-3-2.586c1.756.455,3.727.886,5.3,0a2.09,2.09,0,0,0,1.106-1.358,1.96,1.96,0,0,0-.56-1.621,5.989,5.989,0,0,0-1.447-1.058l-1.284-.757a6.805,6.805,0,0,0,2.392.2,2.674,2.674,0,0,0,1.978-1.2,3.143,3.143,0,0,0-.643-3.351,7.628,7.628,0,0,0-2.024-1.816c-.682-.418-1.427-.739-2.085-1.192a2.431,2.431,0,0,1-.882-3.308,7.562,7.562,0,0,1,1.289-1.511,9.634,9.634,0,0,0-6.456,2.616C310.975,219.943,310.512,222.341,309.668,224.755Z" transform="translate(-294.213 -137.635)" fill="#eeb399"/>
      <path id="Path_16867" data-name="Path 16867" d="M364.77,171.539s-5.243,12.41,11.362,13.9,16.2-2.461,27.766,2.284c0,0,.707-15.871-10.034-14.852S366.3,163.388,364.77,171.539Z" transform="translate(-255.792 -168.417)" fill="#441f04"/>
    </g>
  </g>
</svg>
