<svg xmlns="http://www.w3.org/2000/svg" width="406" height="165.186" viewBox="0 0 406 165.186">
  <g id="Group_10" data-name="Group 10" transform="translate(-238 -272)">
    <g id="Logo_1_" data-name="Logo (1)" transform="translate(239 272)">
      <g id="Group_3" data-name="Group 3" transform="translate(80.981 34.96)">
        <g id="Group_1" data-name="Group 1" transform="translate(106.431 3.521)">
          <path id="Path_1" data-name="Path 1" d="M278.206,127.794c-.245-.02-.51-.041-.755-.041h-23.6a14.969,14.969,0,0,1-11.267-5.123,23.356,23.356,0,0,1-4.491-7.654,27.382,27.382,0,0,1-1.327-5.123,31.328,31.328,0,0,1-.429-4.144c-.02-.837-.082-1.653-.082-2.49,0-1.163.082-2.347.184-3.511a33.5,33.5,0,0,1,1.1-6.042,26.417,26.417,0,0,1,4.062-8.43,17.747,17.747,0,0,1,3.47-3.633,14.21,14.21,0,0,1,6.246-2.8,16,16,0,0,1,2.8-.245h23.31c.245,0,.51-.02.755-.041V88.807H256.61a9.245,9.245,0,0,0-1.674.122,6.289,6.289,0,0,0-3.592,1.96,10.981,10.981,0,0,0-1.96,2.96,18.451,18.451,0,0,0-1.633,6.838,25.227,25.227,0,0,0-.041,3.286,29.032,29.032,0,0,0,.347,3.266,19.26,19.26,0,0,0,1.449,4.735,11.357,11.357,0,0,0,1.8,2.878,6.36,6.36,0,0,0,5.021,2.327c7.083-.02,14.166,0,21.248,0a5.771,5.771,0,0,0,.592-.041C278.206,120.711,278.206,124.242,278.206,127.794Z" transform="translate(-150.613 -78.52)" fill="#0a3d22"/>
          <path id="Path_2" data-name="Path 2" d="M244.717,128.506a2.338,2.338,0,0,1-.061-.816V92.521c0-.082-.02-.184-.02-.245-.184-.061-.2.041-.245.143l-.857,2.327q-5.174,14.237-10.349,28.495c-.572,1.551-1.123,3.123-1.694,4.674-.082.2-.1.429-.286.572-.429.061-10.492.061-11.145.02-.184-.1-.2-.327-.265-.51-.592-1.572-1.163-3.143-1.735-4.715Q212.426,108,206.812,92.745c-.061-.184-.082-.388-.265-.51-.1,0-.122.082-.122.143v35.394a1.732,1.732,0,0,1-.061.714,1.575,1.575,0,0,1-.306.041H194.974a3.014,3.014,0,0,1-.429-.02c-.122,0-.184-.082-.225-.2a.766.766,0,0,1-.02-.225V78.967c.02-.265.082-.327.367-.347h17.8c.572,0,.572,0,.755.551,1.123,3.307,2.266,6.613,3.388,9.92q4.317,12.614,8.675,25.249a1.265,1.265,0,0,0,.245.531.162.162,0,0,0,.2-.143c.122-.347.245-.674.347-1.021q4.072-11.971,8.124-23.943c1.184-3.49,2.368-7,3.572-10.492.245-.694.184-.653.9-.653h17.962c.245.02.306.082.327.347v48.8a4.439,4.439,0,0,1-.02.531.193.193,0,0,1-.2.2,2.343,2.343,0,0,1-.388.02H245.309C245.084,128.527,244.921,128.506,244.717,128.506Z" transform="translate(-194.3 -78.416)" fill="#0a3d22"/>
          <path id="Path_3" data-name="Path 3" d="M228.426,78.636c.49-.082,8.328-.122,10.206-.061a2.036,2.036,0,0,1,.327.041,2.038,2.038,0,0,1,.041.327v48.7a1.092,1.092,0,0,1-.327.082,1.745,1.745,0,0,1-.327,0h-9.308c-.2,0-.388-.02-.612-.02a2.531,2.531,0,0,1-.082-.327,3.922,3.922,0,0,1,0-.49v-47.5A2.447,2.447,0,0,1,228.426,78.636Z" transform="translate(-158.864 -78.493)" fill="#0a3d22"/>
        </g>
        <g id="Group_2" data-name="Group 2">
          <path id="Path_4" data-name="Path 4" d="M184.639,114.934s5.266,2.8,7.43,8a27.706,27.706,0,0,1-20.942,10.941c-12.39,0-26.168-6.858-28.862-26.576-1.612-19.105,15.35-29.6,24.9-30.413,7.164-.612,18.942,1.674,24.9,11.308a23.755,23.755,0,0,0,17.942,11.675c3.878.449,5.572.143,12.308-1,0,0,5.654,10.124-5.45,11.737-10.512,1.531-21.453-4.307-24.984-7.328a48.173,48.173,0,0,1-9.573-10.41c-3.858-4.9-12.9-5.613-15.309-4.776,0,0-14.472,2.674-13.941,18.738,1.531,14.9,15.309,16.125,17.289,16.125A16.335,16.335,0,0,0,184.639,114.934Z" transform="translate(-142.157 -76.795)" fill="#0d3d23"/>
          <path id="Path_5" data-name="Path 5" d="M191.181,95.882a19.759,19.759,0,0,1-7.7-7.9A28.374,28.374,0,0,1,204.693,76.94c12.39,0,27.535,9.144,28.862,26.576.572,19.513-15.1,29.331-24.637,30.189-8.369.755-20.126-2.041-25.576-10.981-6.062-9.94-14.064-11.39-17.513-11.777-3.878-.449-5.572-.143-12.308,1,0,0-5.838-9.716,4.715-11.859,9.1-1.837,22.024,3.98,25.7,7.45,3.123,2.939,5.021,4.021,9.512,10.349,4.307,5.429,12.982,5.674,15.37,4.858,0,0,14.472-2.674,13.941-18.738-1.531-14.9-15.309-16.125-17.289-16.125S196.263,87.983,191.181,95.882Z" transform="translate(-132.003 -76.644)" fill="#ea6524"/>
        </g>
      </g>
      <text id="Life" transform="translate(277.459 27)" fill="#ea6525" font-size="25" font-family="SegoeUI, Segoe UI"><tspan x="0" y="0">Life</tspan></text>
      <text id="المهنــــــدس_لتـأميـــــــــنات_الحـيــاة" data-name="المهنــــــدس لتـأميـــــــــنات الحـيــاة" transform="translate(202 158.186)" fill="#0d3d23" font-size="35" font-family="Arial-BoldMT, Arial" font-weight="700"><tspan x="-202.275" y="0">المهنــــــدس لتـأميـــــــــنات الحـيــاة</tspan></text>
    </g>
    <g id="Group_9" data-name="Group 9" transform="translate(239 372.497)">
      <path id="Path_6" data-name="Path 6" d="M127.433,135.275a.469.469,0,0,1-.082.286.727.727,0,0,1-.306.2,1.994,1.994,0,0,1-.592.122,6.339,6.339,0,0,1-.939.041c-.367,0-.694-.02-.939-.041a5.811,5.811,0,0,1-.592-.122.727.727,0,0,1-.306-.2.488.488,0,0,1-.1-.286V118.9h-.041l-5.838,16.37a.6.6,0,0,1-.2.327,1,1,0,0,1-.388.2,2.383,2.383,0,0,1-.612.1c-.245.02-.551.02-.9.02s-.653-.02-.9-.041a2.313,2.313,0,0,1-.612-.122,1.375,1.375,0,0,1-.388-.2.5.5,0,0,1-.184-.286l-5.634-16.37h-.02v16.37a.469.469,0,0,1-.082.286.691.691,0,0,1-.327.2,2.147,2.147,0,0,1-.592.122,6.194,6.194,0,0,1-.939.041c-.367,0-.694-.02-.939-.041a5.8,5.8,0,0,1-.592-.122.727.727,0,0,1-.306-.2.469.469,0,0,1-.082-.286V117.333a1.576,1.576,0,0,1,.429-1.2,1.508,1.508,0,0,1,1.123-.429h2.674a5.4,5.4,0,0,1,1.225.122,2.148,2.148,0,0,1,1.49,1.1,4.776,4.776,0,0,1,.429,1.1l4.348,12h.061l4.511-11.961a7.232,7.232,0,0,1,.449-1.1,2.66,2.66,0,0,1,.551-.735,1.67,1.67,0,0,1,.755-.388,3.779,3.779,0,0,1,1.021-.122h2.756a2.305,2.305,0,0,1,.714.1,1.216,1.216,0,0,1,.49.327,1.382,1.382,0,0,1,.286.51,2.366,2.366,0,0,1,.1.694v17.921Z" transform="translate(-104 -115.251)" fill="#ea6524"/>
      <path id="Path_7" data-name="Path 7" d="M138.244,125.726a14.984,14.984,0,0,1-.612,4.47,8.9,8.9,0,0,1-1.857,3.347,8.056,8.056,0,0,1-3.041,2.1,11.1,11.1,0,0,1-4.184.714,12.4,12.4,0,0,1-4.1-.612,7.145,7.145,0,0,1-2.919-1.878,7.957,7.957,0,0,1-1.755-3.2,16.234,16.234,0,0,1-.592-4.613,14.521,14.521,0,0,1,.612-4.389,9.132,9.132,0,0,1,1.857-3.327,8.056,8.056,0,0,1,3.041-2.1,11.129,11.129,0,0,1,4.2-.735,12.192,12.192,0,0,1,4.042.612,7.106,7.106,0,0,1,2.919,1.857,8.3,8.3,0,0,1,1.776,3.184A15.5,15.5,0,0,1,138.244,125.726Zm-4.307.225a15.445,15.445,0,0,0-.245-2.878,6.033,6.033,0,0,0-.857-2.225,4.125,4.125,0,0,0-1.592-1.429,5.567,5.567,0,0,0-2.49-.51,4.967,4.967,0,0,0-2.511.572,4.649,4.649,0,0,0-1.633,1.51,6.2,6.2,0,0,0-.878,2.225,13.97,13.97,0,0,0-.265,2.674,16.207,16.207,0,0,0,.245,2.96,6.354,6.354,0,0,0,.837,2.245,3.855,3.855,0,0,0,1.592,1.429,5.672,5.672,0,0,0,2.511.49,5.191,5.191,0,0,0,2.511-.551,4.356,4.356,0,0,0,1.633-1.531,6.456,6.456,0,0,0,.878-2.245A13.093,13.093,0,0,0,133.938,125.951Z" transform="translate(-88.195 -115.459)" fill="#ea6524"/>
      <path id="Path_8" data-name="Path 8" d="M148.416,135.316a.488.488,0,0,1-.1.286.817.817,0,0,1-.327.2,2.314,2.314,0,0,1-.612.122,6.938,6.938,0,0,1-.98.041c-.408,0-.735-.02-1-.041a5.313,5.313,0,0,1-.612-.122.817.817,0,0,1-.327-.2.488.488,0,0,1-.1-.286v-8.144h-7.532v8.144a.488.488,0,0,1-.1.286.691.691,0,0,1-.327.2,2.314,2.314,0,0,1-.612.122,7.1,7.1,0,0,1-1,.041c-.388,0-.714-.02-.98-.041-.265-.041-.469-.082-.633-.122a.691.691,0,0,1-.327-.2.488.488,0,0,1-.1-.286v-19a.488.488,0,0,1,.1-.286.817.817,0,0,1,.327-.2,2.312,2.312,0,0,1,.633-.122,6.936,6.936,0,0,1,.98-.041c.408,0,.735.02,1,.041a5.3,5.3,0,0,1,.612.122.691.691,0,0,1,.327.2.488.488,0,0,1,.1.286V123.7h7.532v-7.389a.488.488,0,0,1,.1-.286.817.817,0,0,1,.327-.2,2.15,2.15,0,0,1,.612-.122,7.1,7.1,0,0,1,1-.041c.388,0,.714.02.98.041a5.306,5.306,0,0,1,.612.122.691.691,0,0,1,.327.2.488.488,0,0,1,.1.286Z" transform="translate(-74.077 -115.293)" fill="#ea6524"/>
      <path id="Path_9" data-name="Path 9" d="M162,134.347a4.586,4.586,0,0,1,.225.878.482.482,0,0,1-.122.49,1.077,1.077,0,0,1-.612.2c-.286.02-.694.041-1.2.041-.531,0-.939,0-1.245-.02a2.461,2.461,0,0,1-.674-.1.482.482,0,0,1-.327-.2.974.974,0,0,1-.163-.327l-1.347-4.042h-7.552l-1.266,3.939a1.532,1.532,0,0,1-.163.367.558.558,0,0,1-.327.225,2.161,2.161,0,0,1-.633.122c-.265.02-.633.041-1.082.041-.469,0-.857-.02-1.123-.041a.867.867,0,0,1-.551-.225.588.588,0,0,1-.1-.51,4.243,4.243,0,0,1,.225-.878l6.205-17.86a1.393,1.393,0,0,1,.225-.429.907.907,0,0,1,.388-.245,2.307,2.307,0,0,1,.755-.1c.327-.02.755-.02,1.266-.02.612,0,1.1,0,1.47.02a6.164,6.164,0,0,1,.857.1.741.741,0,0,1,.429.265,1.678,1.678,0,0,1,.225.469Zm-9.246-14.758h0l-2.858,8.552h5.715Z" transform="translate(-62.653 -115.303)" fill="#ea6524"/>
      <path id="Path_10" data-name="Path 10" d="M172.644,134.428a1.522,1.522,0,0,1-.122.633,1.6,1.6,0,0,1-.327.469,1.151,1.151,0,0,1-.49.265,1.888,1.888,0,0,1-.592.082h-1.735a4.125,4.125,0,0,1-.939-.1,2.126,2.126,0,0,1-.735-.388,3.718,3.718,0,0,1-.653-.776,13.109,13.109,0,0,1-.694-1.266l-5-9.41c-.286-.551-.592-1.163-.878-1.817-.306-.653-.572-1.286-.816-1.9h-.041c.041.755.082,1.49.1,2.225s.041,1.51.041,2.286v10.532a.469.469,0,0,1-.082.286.792.792,0,0,1-.286.2,1.843,1.843,0,0,1-.572.122,6.045,6.045,0,0,1-.919.041c-.367,0-.674-.02-.9-.041a3.9,3.9,0,0,1-.551-.122.645.645,0,0,1-.286-.2.469.469,0,0,1-.082-.286V117.18a1.372,1.372,0,0,1,.429-1.1,1.545,1.545,0,0,1,1.041-.367h2.184a4.572,4.572,0,0,1,1,.1,2.08,2.08,0,0,1,.714.327,2.667,2.667,0,0,1,.592.653,6.505,6.505,0,0,1,.572,1.021l3.919,7.348c.225.449.449.878.674,1.306s.429.857.653,1.286c.2.429.408.857.612,1.266s.388.837.572,1.245h.02q-.061-1.1-.061-2.266c-.02-.8-.02-1.531-.02-2.245v-9.41a.488.488,0,0,1,.1-.286.746.746,0,0,1,.306-.225,1.844,1.844,0,0,1,.572-.122c.245-.02.551-.041.918-.041.347,0,.653.02.878.041a1.578,1.578,0,0,1,.551.122.6.6,0,0,1,.265.225.469.469,0,0,1,.082.286v18.085Z" transform="translate(-49.766 -115.282)" fill="#ea6524"/>
      <path id="Path_11" data-name="Path 11" d="M185.587,125.457a14.1,14.1,0,0,1-.714,4.735,8.094,8.094,0,0,1-2.082,3.2,8.487,8.487,0,0,1-3.286,1.837,16.134,16.134,0,0,1-4.613.592h-4.8a1.226,1.226,0,0,1-.857-.306,1.268,1.268,0,0,1-.347-.98V116.986a1.136,1.136,0,0,1,1.2-1.286h5.144a14.291,14.291,0,0,1,4.572.633,8.546,8.546,0,0,1,3.164,1.857,7.912,7.912,0,0,1,1.96,3.062A12.546,12.546,0,0,1,185.587,125.457Zm-4.225.143a9.95,9.95,0,0,0-.327-2.654,5.372,5.372,0,0,0-1.082-2.123,5.141,5.141,0,0,0-1.9-1.408,7.556,7.556,0,0,0-3.041-.51h-2.062v13.7h2.123a8.22,8.22,0,0,0,2.837-.429,4.729,4.729,0,0,0,1.919-1.306,5.571,5.571,0,0,0,1.143-2.184A11.664,11.664,0,0,0,181.361,125.6Z" transform="translate(-36.439 -115.251)" fill="#ea6524"/>
      <path id="Path_12" data-name="Path 12" d="M192.671,134.224a7.3,7.3,0,0,1-.041.755,1.427,1.427,0,0,1-.122.49.571.571,0,0,1-.2.265.41.41,0,0,1-.265.082h-10.1a1.226,1.226,0,0,1-.857-.306,1.268,1.268,0,0,1-.347-.98V116.976a1.136,1.136,0,0,1,1.2-1.286h10.043a.325.325,0,0,1,.245.082.518.518,0,0,1,.184.265,2.127,2.127,0,0,1,.122.49,7.4,7.4,0,0,1,.041.776,7.194,7.194,0,0,1-.041.735,1.426,1.426,0,0,1-.122.49.738.738,0,0,1-.184.265.5.5,0,0,1-.245.082h-7.185v4.919h6.083a.41.41,0,0,1,.265.082.7.7,0,0,1,.2.265,2.129,2.129,0,0,1,.122.49,7.211,7.211,0,0,1,.041.735,7.3,7.3,0,0,1-.041.755,1.3,1.3,0,0,1-.122.469.7.7,0,0,1-.2.265.41.41,0,0,1-.265.082h-6.083v5.674h7.246a.41.41,0,0,1,.265.082.7.7,0,0,1,.2.265,2.129,2.129,0,0,1,.122.49C192.65,133.673,192.671,133.938,192.671,134.224Z" transform="translate(-24.112 -115.261)" fill="#ea6524"/>
      <path id="Path_13" data-name="Path 13" d="M202.755,130.013a6.247,6.247,0,0,1-.592,2.776,5.676,5.676,0,0,1-1.592,2,7.013,7.013,0,0,1-2.368,1.2,10.149,10.149,0,0,1-2.9.408,11.455,11.455,0,0,1-1.939-.163,11.629,11.629,0,0,1-1.572-.408,6.771,6.771,0,0,1-1.143-.51,2.851,2.851,0,0,1-.653-.469,1.152,1.152,0,0,1-.286-.592,5.025,5.025,0,0,1-.082-1.1,4.823,4.823,0,0,1,.041-.816,2.723,2.723,0,0,1,.1-.531.5.5,0,0,1,.184-.286.41.41,0,0,1,.265-.082,1.209,1.209,0,0,1,.612.265,8.715,8.715,0,0,0,1.021.572,10.908,10.908,0,0,0,1.49.572,7.3,7.3,0,0,0,2,.265,4.674,4.674,0,0,0,1.347-.184,2.889,2.889,0,0,0,1-.51,2.262,2.262,0,0,0,.633-.816,2.627,2.627,0,0,0,.225-1.082,1.945,1.945,0,0,0-.367-1.184,3.752,3.752,0,0,0-.98-.878,12.132,12.132,0,0,0-1.368-.714c-.51-.225-1.041-.449-1.572-.714a13.135,13.135,0,0,1-1.572-.857,6.08,6.08,0,0,1-1.368-1.143,5.541,5.541,0,0,1-.98-1.572,5.71,5.71,0,0,1-.367-2.164,5.935,5.935,0,0,1,.531-2.551,5.108,5.108,0,0,1,1.449-1.817,6.239,6.239,0,0,1,2.143-1.082,9.081,9.081,0,0,1,2.613-.367,11.207,11.207,0,0,1,1.429.1,13.068,13.068,0,0,1,1.347.286,6.209,6.209,0,0,1,1.1.429,2.69,2.69,0,0,1,.633.388,1.028,1.028,0,0,1,.2.265,2.218,2.218,0,0,1,.1.286,2.385,2.385,0,0,1,.061.449c0,.184.02.408.02.674,0,.306,0,.551-.02.755a2.668,2.668,0,0,1-.082.51.484.484,0,0,1-.163.286.388.388,0,0,1-.265.1,1.328,1.328,0,0,1-.551-.225,9.381,9.381,0,0,0-.919-.469,9.814,9.814,0,0,0-1.266-.469,5.428,5.428,0,0,0-1.572-.2,3.9,3.9,0,0,0-1.163.163,2.52,2.52,0,0,0-.837.449,1.662,1.662,0,0,0-.49.694,2.372,2.372,0,0,0-.163.857,1.884,1.884,0,0,0,.367,1.163,3.753,3.753,0,0,0,.98.878,12.517,12.517,0,0,0,1.388.714c.51.225,1.041.449,1.592.714a15.17,15.17,0,0,1,1.592.857,6.79,6.79,0,0,1,1.388,1.143,5.274,5.274,0,0,1,.98,1.551A6.8,6.8,0,0,1,202.755,130.013Z" transform="translate(-14.845 -115.48)" fill="#ea6524"/>
      <path id="Path_14" data-name="Path 14" d="M209.762,135.316a.488.488,0,0,1-.1.286.817.817,0,0,1-.327.2,2.314,2.314,0,0,1-.612.122,7.1,7.1,0,0,1-1,.041c-.388,0-.714-.02-.98-.041-.265-.041-.469-.082-.633-.122a.691.691,0,0,1-.327-.2.488.488,0,0,1-.1-.286v-19a.488.488,0,0,1,.1-.286.776.776,0,0,1,.347-.2,2.312,2.312,0,0,1,.633-.122,6.935,6.935,0,0,1,.98-.041c.408,0,.735.02,1,.041a5.306,5.306,0,0,1,.612.122.691.691,0,0,1,.327.2.488.488,0,0,1,.1.286v19Z" transform="translate(1.865 -115.293)" fill="#ea6524"/>
      <path id="Path_15" data-name="Path 15" d="M228.934,134.428a1.522,1.522,0,0,1-.122.633,1.6,1.6,0,0,1-.327.469,1.151,1.151,0,0,1-.49.265,1.888,1.888,0,0,1-.592.082h-1.735a4.125,4.125,0,0,1-.939-.1,2.126,2.126,0,0,1-.735-.388,3.718,3.718,0,0,1-.653-.776,13.109,13.109,0,0,1-.694-1.266l-5-9.41c-.286-.551-.592-1.163-.878-1.817-.306-.653-.572-1.286-.816-1.9h-.041c.041.755.082,1.49.1,2.225s.041,1.51.041,2.286v10.532a.469.469,0,0,1-.082.286.792.792,0,0,1-.286.2,1.843,1.843,0,0,1-.572.122,6.045,6.045,0,0,1-.919.041c-.367,0-.674-.02-.9-.041a3.9,3.9,0,0,1-.551-.122.645.645,0,0,1-.286-.2.469.469,0,0,1-.082-.286V117.18a1.372,1.372,0,0,1,.429-1.1,1.545,1.545,0,0,1,1.041-.367h2.184a4.572,4.572,0,0,1,1,.1,2.08,2.08,0,0,1,.714.327,2.667,2.667,0,0,1,.592.653,6.505,6.505,0,0,1,.572,1.021l3.919,7.348c.225.449.449.878.674,1.306s.429.857.653,1.286c.2.429.408.857.612,1.266s.388.837.572,1.245h.02q-.061-1.1-.061-2.266c-.02-.8-.02-1.531-.02-2.245v-9.41a.488.488,0,0,1,.1-.286.746.746,0,0,1,.306-.225,1.844,1.844,0,0,1,.572-.122c.245-.02.551-.041.918-.041.347,0,.653.02.878.041a1.578,1.578,0,0,1,.551.122.6.6,0,0,1,.265.225.469.469,0,0,1,.082.286v18.085Z" transform="translate(8.841 -115.282)" fill="#ea6524"/>
      <path id="Path_16" data-name="Path 16" d="M237.195,130.013a6.247,6.247,0,0,1-.592,2.776,5.676,5.676,0,0,1-1.592,2,7.013,7.013,0,0,1-2.368,1.2,10.148,10.148,0,0,1-2.9.408,11.455,11.455,0,0,1-1.939-.163,11.63,11.63,0,0,1-1.572-.408,6.771,6.771,0,0,1-1.143-.51,2.852,2.852,0,0,1-.653-.469,1.152,1.152,0,0,1-.286-.592,5.023,5.023,0,0,1-.082-1.1,4.823,4.823,0,0,1,.041-.816,2.719,2.719,0,0,1,.1-.531.5.5,0,0,1,.184-.286.41.41,0,0,1,.265-.082,1.209,1.209,0,0,1,.612.265c.265.163.612.367,1.021.572a10.909,10.909,0,0,0,1.49.572,7.3,7.3,0,0,0,2,.265,4.674,4.674,0,0,0,1.347-.184,2.889,2.889,0,0,0,1-.51,2.262,2.262,0,0,0,.633-.816,2.626,2.626,0,0,0,.225-1.082,1.945,1.945,0,0,0-.367-1.184,3.752,3.752,0,0,0-.98-.878,12.129,12.129,0,0,0-1.368-.714c-.51-.225-1.041-.449-1.572-.714a13.137,13.137,0,0,1-1.572-.857,6.081,6.081,0,0,1-1.368-1.143,5.541,5.541,0,0,1-.98-1.572,5.71,5.71,0,0,1-.367-2.164,5.935,5.935,0,0,1,.531-2.551,5.108,5.108,0,0,1,1.449-1.817,6.24,6.24,0,0,1,2.143-1.082,9.082,9.082,0,0,1,2.613-.367,11.207,11.207,0,0,1,1.429.1,13.068,13.068,0,0,1,1.347.286,6.208,6.208,0,0,1,1.1.429,2.688,2.688,0,0,1,.633.388,1.027,1.027,0,0,1,.2.265,2.218,2.218,0,0,1,.1.286c.02.122.041.265.061.449,0,.184.02.408.02.674,0,.306,0,.551-.02.755a2.665,2.665,0,0,1-.082.51.484.484,0,0,1-.163.286.388.388,0,0,1-.265.1,1.328,1.328,0,0,1-.551-.225,9.381,9.381,0,0,0-.919-.469,9.817,9.817,0,0,0-1.266-.469,5.428,5.428,0,0,0-1.572-.2,3.9,3.9,0,0,0-1.163.163,2.52,2.52,0,0,0-.837.449,1.662,1.662,0,0,0-.49.694,2.372,2.372,0,0,0-.163.857,1.884,1.884,0,0,0,.367,1.163,3.752,3.752,0,0,0,.98.878,12.517,12.517,0,0,0,1.388.714c.51.225,1.041.449,1.592.714a15.173,15.173,0,0,1,1.592.857,6.79,6.79,0,0,1,1.388,1.143,5.274,5.274,0,0,1,.98,1.551A6.8,6.8,0,0,1,237.195,130.013Z" transform="translate(21.012 -115.48)" fill="#ea6524"/>
      <path id="Path_17" data-name="Path 17" d="M250.492,128.4a9.283,9.283,0,0,1-.551,3.307,6.417,6.417,0,0,1-1.613,2.47,6.918,6.918,0,0,1-2.613,1.531,11.24,11.24,0,0,1-3.572.531,11.661,11.661,0,0,1-3.409-.469,6.636,6.636,0,0,1-2.551-1.429,6.377,6.377,0,0,1-1.592-2.409,9.4,9.4,0,0,1-.551-3.368V116.314a.488.488,0,0,1,.1-.286.691.691,0,0,1,.327-.2,2.312,2.312,0,0,1,.633-.122,7.1,7.1,0,0,1,1-.041c.388,0,.714.02.98.041a5.306,5.306,0,0,1,.612.122.691.691,0,0,1,.327.2.488.488,0,0,1,.1.286v11.88a6.392,6.392,0,0,0,.306,2.082,3.651,3.651,0,0,0,.857,1.449,3.387,3.387,0,0,0,1.327.857,5.033,5.033,0,0,0,1.715.286,5.153,5.153,0,0,0,1.735-.286,3.556,3.556,0,0,0,1.286-.857,3.665,3.665,0,0,0,.816-1.408,5.987,5.987,0,0,0,.286-1.9V116.293a.488.488,0,0,1,.1-.286.691.691,0,0,1,.327-.2,2.312,2.312,0,0,1,.633-.122,6.935,6.935,0,0,1,.98-.041c.388,0,.714.02.98.041q.367.061.612.122a.691.691,0,0,1,.327.2.488.488,0,0,1,.1.286v12.1Z" transform="translate(31.392 -115.313)" fill="#ea6524"/>
      <path id="Path_18" data-name="Path 18" d="M261.69,135.285a.593.593,0,0,1-.061.286.544.544,0,0,1-.286.2,2.638,2.638,0,0,1-.694.1c-.306.02-.714.041-1.225.041a7.569,7.569,0,0,1-1.041-.041,2,2,0,0,1-.612-.122.666.666,0,0,1-.327-.225,1.221,1.221,0,0,1-.163-.327l-1.8-4.491c-.225-.51-.429-.959-.633-1.347a4,4,0,0,0-.694-.98,2.307,2.307,0,0,0-.878-.592,2.857,2.857,0,0,0-1.143-.2h-1.266v7.675a.488.488,0,0,1-.1.286.817.817,0,0,1-.327.2,2.314,2.314,0,0,1-.612.122,7.1,7.1,0,0,1-1,.041c-.388,0-.714-.02-.98-.041-.265-.041-.469-.082-.633-.122a.691.691,0,0,1-.327-.2.488.488,0,0,1-.1-.286V117a1.136,1.136,0,0,1,1.2-1.286h5.2c.531,0,.959.02,1.306.041s.653.041.939.082a8.545,8.545,0,0,1,2.184.592,5.325,5.325,0,0,1,1.653,1.1,4.683,4.683,0,0,1,1.041,1.592,5.712,5.712,0,0,1,.367,2.123,5.788,5.788,0,0,1-.265,1.837,4.886,4.886,0,0,1-.755,1.49,5.061,5.061,0,0,1-1.225,1.143,6.651,6.651,0,0,1-1.674.776,4.623,4.623,0,0,1,.857.531,4.4,4.4,0,0,1,.755.755,6.779,6.779,0,0,1,.653,1.021q.306.582.612,1.286l1.694,3.96a5.7,5.7,0,0,1,.306.857C261.65,135.04,261.69,135.183,261.69,135.285ZM256.4,121.629a2.93,2.93,0,0,0-.449-1.674,2.5,2.5,0,0,0-1.47-.959,3.461,3.461,0,0,0-.714-.122,8.239,8.239,0,0,0-1.1-.041h-1.837v5.715h2.082a5.055,5.055,0,0,0,1.531-.2,3.228,3.228,0,0,0,1.082-.592,2.294,2.294,0,0,0,.653-.919A2.944,2.944,0,0,0,256.4,121.629Z" transform="translate(44.667 -115.241)" fill="#ea6524"/>
      <path id="Path_19" data-name="Path 19" d="M274.976,134.347a4.588,4.588,0,0,1,.224.878.482.482,0,0,1-.122.49,1.077,1.077,0,0,1-.612.2c-.286.02-.694.041-1.2.041-.531,0-.939,0-1.245-.02a2.46,2.46,0,0,1-.674-.1.482.482,0,0,1-.327-.2.974.974,0,0,1-.163-.327l-1.347-4.042h-7.552l-1.266,3.939a1.53,1.53,0,0,1-.163.367.558.558,0,0,1-.327.225,2.161,2.161,0,0,1-.633.122c-.265.02-.633.041-1.082.041-.469,0-.857-.02-1.123-.041a.867.867,0,0,1-.551-.225.588.588,0,0,1-.1-.51,4.248,4.248,0,0,1,.224-.878l6.205-17.86a1.4,1.4,0,0,1,.224-.429.907.907,0,0,1,.388-.245,2.4,2.4,0,0,1,.755-.1c.327-.02.755-.02,1.266-.02.612,0,1.1,0,1.47.02a6.165,6.165,0,0,1,.857.1.741.741,0,0,1,.429.265,1.677,1.677,0,0,1,.224.469Zm-9.226-14.758h0l-2.858,8.552h5.715Z" transform="translate(54.977 -115.303)" fill="#ea6524"/>
      <path id="Path_20" data-name="Path 20" d="M286.134,134.428a1.521,1.521,0,0,1-.122.633,1.6,1.6,0,0,1-.327.469,1.043,1.043,0,0,1-.49.265,1.888,1.888,0,0,1-.592.082h-1.735a4.124,4.124,0,0,1-.939-.1,2.125,2.125,0,0,1-.735-.388,3.72,3.72,0,0,1-.653-.776,13.116,13.116,0,0,1-.694-1.266l-5-9.41c-.286-.551-.592-1.163-.878-1.817-.306-.653-.572-1.286-.816-1.9h-.041c.041.755.082,1.49.1,2.225s.041,1.51.041,2.286v10.532a.469.469,0,0,1-.082.286.792.792,0,0,1-.286.2,1.843,1.843,0,0,1-.572.122,6.045,6.045,0,0,1-.919.041c-.367,0-.674-.02-.9-.041a3.9,3.9,0,0,1-.551-.122.645.645,0,0,1-.286-.2.468.468,0,0,1-.082-.286V117.18a1.372,1.372,0,0,1,.429-1.1,1.545,1.545,0,0,1,1.041-.367h2.184a4.571,4.571,0,0,1,1,.1,2.08,2.08,0,0,1,.714.327,2.667,2.667,0,0,1,.592.653,6.505,6.505,0,0,1,.572,1.021l3.919,7.348c.225.449.449.878.674,1.306s.429.857.653,1.286c.2.429.408.857.612,1.266s.388.837.572,1.245h.02q-.061-1.1-.061-2.266c-.02-.8-.02-1.531-.02-2.245v-9.41a.488.488,0,0,1,.1-.286.746.746,0,0,1,.306-.225,1.843,1.843,0,0,1,.571-.122c.245-.02.551-.041.919-.041.347,0,.653.02.878.041a1.578,1.578,0,0,1,.551.122.6.6,0,0,1,.265.225.469.469,0,0,1,.082.286v18.085Z" transform="translate(68.395 -115.282)" fill="#ea6524"/>
      <path id="Path_21" data-name="Path 21" d="M296.26,132.951a6.142,6.142,0,0,1-.02.653c-.02.184-.041.347-.061.469a2.814,2.814,0,0,1-.122.327,2.717,2.717,0,0,1-.245.327,3.108,3.108,0,0,1-.653.449,7.541,7.541,0,0,1-1.2.531,13.066,13.066,0,0,1-1.613.429,10.02,10.02,0,0,1-1.959.163,10.242,10.242,0,0,1-3.735-.633,7.555,7.555,0,0,1-2.837-1.9,8.676,8.676,0,0,1-1.8-3.164,14.378,14.378,0,0,1-.612-4.409,13.587,13.587,0,0,1,.694-4.552,9.416,9.416,0,0,1,1.919-3.347,8.08,8.08,0,0,1,2.939-2.062,9.9,9.9,0,0,1,3.8-.694,8.317,8.317,0,0,1,1.613.143,13.649,13.649,0,0,1,1.449.367,5.756,5.756,0,0,1,1.184.531,3.931,3.931,0,0,1,.735.51,1.643,1.643,0,0,1,.286.347.865.865,0,0,1,.122.367,3.172,3.172,0,0,1,.061.51c.02.2.02.449.02.735a4.7,4.7,0,0,1-.041.8,2.723,2.723,0,0,1-.1.531.86.86,0,0,1-.184.286.424.424,0,0,1-.245.1,1.041,1.041,0,0,1-.592-.265q-.367-.276-.919-.612a8.311,8.311,0,0,0-1.347-.612,5.627,5.627,0,0,0-1.878-.265,4.6,4.6,0,0,0-2.143.49,4.377,4.377,0,0,0-1.592,1.408,6.437,6.437,0,0,0-1,2.2,12.781,12.781,0,0,0,.02,6,6.176,6.176,0,0,0,1.041,2.143,4.027,4.027,0,0,0,1.633,1.245,5.526,5.526,0,0,0,2.164.408,5.71,5.71,0,0,0,1.878-.265,7.884,7.884,0,0,0,1.368-.572,10.548,10.548,0,0,0,.939-.551,1.152,1.152,0,0,1,.572-.245.435.435,0,0,1,.245.061.466.466,0,0,1,.163.245,2.438,2.438,0,0,1,.1.531A4.367,4.367,0,0,0,296.26,132.951Z" transform="translate(80.702 -115.418)" fill="#ea6524"/>
      <path id="Path_22" data-name="Path 22" d="M304.081,134.224a7.323,7.323,0,0,1-.041.755,1.428,1.428,0,0,1-.122.49.571.571,0,0,1-.2.265.41.41,0,0,1-.265.082h-10.1a1.226,1.226,0,0,1-.857-.306,1.268,1.268,0,0,1-.347-.98V116.976a1.136,1.136,0,0,1,1.2-1.286h10.043a.325.325,0,0,1,.245.082.518.518,0,0,1,.184.265,2.129,2.129,0,0,1,.122.49,7.392,7.392,0,0,1,.041.776,7.213,7.213,0,0,1-.041.735,1.428,1.428,0,0,1-.122.49.739.739,0,0,1-.184.265.5.5,0,0,1-.245.082H296.2v4.919h6.083a.41.41,0,0,1,.265.082.7.7,0,0,1,.2.265,2.126,2.126,0,0,1,.122.49,7.194,7.194,0,0,1,.041.735,7.3,7.3,0,0,1-.041.755,1.3,1.3,0,0,1-.122.469.7.7,0,0,1-.2.265.41.41,0,0,1-.265.082H296.2v5.674h7.246a.41.41,0,0,1,.265.082.7.7,0,0,1,.2.265,2.129,2.129,0,0,1,.122.49C304.06,133.673,304.081,133.938,304.081,134.224Z" transform="translate(91.884 -115.261)" fill="#ea6524"/>
    </g>
  </g>
</svg>
