<svg xmlns="http://www.w3.org/2000/svg" width="225.852" height="55.178" viewBox="0 0 225.852 55.178">
  <g id="Group_8179" data-name="Group 8179" transform="translate(-1046.879 -225.251)">
    <g id="Your" transform="translate(1046.252 219.363)">
      <path id="Color_Overlay" data-name="Color Overlay" d="M4.56,16.715a5,5,0,0,0-1.136,1.824,9.17,9.17,0,0,0-.592,2.32,4.573,4.573,0,0,0,.128,1.92.883.883,0,0,0,1.088.656,2.543,2.543,0,0,0,1.392-.864,16.9,16.9,0,0,0,1.824-2.192q.976-1.36,2-3.1t1.92-3.616A36.32,36.32,0,0,0,12.736,9.9a20.67,20.67,0,0,0,.912-3.488q-.64,1.056-1.408,2.3a16.95,16.95,0,0,1-1.728,2.336A9.6,9.6,0,0,1,8.4,12.859a4.9,4.9,0,0,1-2.528.752,3.624,3.624,0,0,1-1.7-.432,4.206,4.206,0,0,1-1.216-1.04,2.768,2.768,0,0,1-.4-2.112A13.561,13.561,0,0,1,3.3,7.115a32.489,32.489,0,0,1,1.28-3.024Q5.3,2.6,5.808,1.611a4.854,4.854,0,0,0-1.472.848,12.082,12.082,0,0,0-1.248,1.2q-.576.64-1.04,1.248T1.264,5.9q-.16.256-.336.24a.459.459,0,0,1-.32-.208A1.43,1.43,0,0,1,.384,5.4a2.11,2.11,0,0,1-.016-.784,5.487,5.487,0,0,1,1.1-2.512A7.628,7.628,0,0,1,3.568.235,8.215,8.215,0,0,1,6.176-.789a5.789,5.789,0,0,1,2.64.032.426.426,0,0,1,.192.048.609.609,0,0,1,.16.112q.288.224.3.4a.636.636,0,0,1-.208.432.816.816,0,0,0-.192.384q-.288.608-.8,1.664t-1.04,2.3Q6.7,5.835,6.208,7.163a18.784,18.784,0,0,0-.752,2.48,7.305,7.305,0,0,0-.208,1.968,1.069,1.069,0,0,0,.592,1.04q.384.064,1.088-.624A19.258,19.258,0,0,0,8.5,10.251q.864-1.088,1.776-2.48T12,5q.816-1.376,1.424-2.592A16.03,16.03,0,0,0,14.288.427a4.358,4.358,0,0,1,.288-.592.474.474,0,0,1,.416-.272,1.653,1.653,0,0,1,.72.224,4.529,4.529,0,0,1,.816.544,5.121,5.121,0,0,1,.64.624.686.686,0,0,1,.224.5,20.64,20.64,0,0,1-.3,2.736q-.24,1.328-.592,2.688t-.784,2.784q-.432,1.424-.912,2.96-.576,1.5-1.36,3.344a28.428,28.428,0,0,1-1.84,3.584,19.231,19.231,0,0,1-2.384,3.168,8.425,8.425,0,0,1-2.96,2.1,2.989,2.989,0,0,1-1.312.272,5.145,5.145,0,0,1-1.328-.208A4.812,4.812,0,0,1,2.4,24.331a5.372,5.372,0,0,1-.944-.736A3.8,3.8,0,0,1,.432,21.307a5.836,5.836,0,0,1,.3-2.544,5.694,5.694,0,0,1,1.312-2.112,3.259,3.259,0,0,1,1.968-1.024,1.735,1.735,0,0,1,.768.112.284.284,0,0,1,.176.272.821.821,0,0,1-.16.368Q4.656,16.587,4.56,16.715Zm18.4-.832a3.309,3.309,0,0,0,.832-.192q.448-.16.832-.256.448-.128.944-.3a7.588,7.588,0,0,1,.944-.272q.32,0,.256.176a1.257,1.257,0,0,1-.3.416,4.763,4.763,0,0,1-.544.464q-.3.224-.464.32a8.986,8.986,0,0,1-1.52.544,6.549,6.549,0,0,0-1.424.544q-.288.512-.8,1.36a16.784,16.784,0,0,1-1.136,1.648,9.013,9.013,0,0,1-1.312,1.376,2.1,2.1,0,0,1-1.328.576,2.382,2.382,0,0,1-1.536-.512,1.917,1.917,0,0,1-.72-.992,5.266,5.266,0,0,1-.288-1.456,8.165,8.165,0,0,1,.048-1.536,9.686,9.686,0,0,1,.224-1.232.67.67,0,0,1,.1-.3.4.4,0,0,1,.128-.112q.064-.032.144-.064a.323.323,0,0,0,.144-.128q.1-.352.192-.736a2.572,2.572,0,0,1,.288-.7,7.8,7.8,0,0,1,1.392-1.776,3.32,3.32,0,0,1,1.968-.944,2.626,2.626,0,0,1,1.3.064,2.235,2.235,0,0,1,1.04.736,2.444,2.444,0,0,1,.544.912,4.031,4.031,0,0,1,.192.96,3.644,3.644,0,0,1-.032.848Zm-1.824.32a.226.226,0,0,0,.192-.192,3.244,3.244,0,0,0,.24-1.344,1.655,1.655,0,0,0-.464-1.184.837.837,0,0,0-.576-.288,1.227,1.227,0,0,0-.672.128,3.522,3.522,0,0,0-1.024.9q-.384.512-.736,1.056a.312.312,0,0,0,.064.224.75.75,0,0,1,.288.64q0,.16.368.192a6.931,6.931,0,0,0,.832.016,7.992,7.992,0,0,0,.9-.08A4.88,4.88,0,0,1,21.136,16.2Zm-2.848,4.928a1.533,1.533,0,0,0,.72-.464,7.363,7.363,0,0,0,.768-.912,8.281,8.281,0,0,0,.64-1.04,4.757,4.757,0,0,0,.368-.88q-.64.064-1.376.064a7.014,7.014,0,0,1-1.376-.128,3.117,3.117,0,0,0-.128.752,7.206,7.206,0,0,0,0,.96,6.5,6.5,0,0,0,.128.944A2.222,2.222,0,0,0,18.288,21.131ZM39.76,15.915h.032v.256a6.462,6.462,0,0,1-.992,2.08,9.822,9.822,0,0,0-.624.912,9.178,9.178,0,0,1-.656.944q-.672.736-1.264,1.3a6.634,6.634,0,0,1-1.424,1.008,5.619,5.619,0,0,1-.848.336,3.116,3.116,0,0,1-.928.144,2.43,2.43,0,0,1-.88-.16,1.515,1.515,0,0,1-.7-.576,2.6,2.6,0,0,1-.56-1.52,4.393,4.393,0,0,1,.3-1.808l-.192.192-.288.288-.3.3a1.036,1.036,0,0,1-.208.176,8.345,8.345,0,0,1-.96.832,6.878,6.878,0,0,1-.992.608,2.369,2.369,0,0,1-.72.224.919.919,0,0,1-.56-.112,1.824,1.824,0,0,1-.5-.432q-.24-.288-.528-.672a4.823,4.823,0,0,1-.624-1.136,2.165,2.165,0,0,1-.08-1.2q.064-.224.112-.448a1.742,1.742,0,0,1,.144-.416q.192-.544.464-1.248t.56-1.408q.288-.7.56-1.328t.464-1.008q.224-.576.672-.576a1.156,1.156,0,0,1,.816.352,2.233,2.233,0,0,1,.56.928,1.374,1.374,0,0,1-.1,1.12q-.16.384-.48,1.088t-.656,1.456q-.336.752-.592,1.424a4.405,4.405,0,0,0-.288.992q0,.7.272.736a1.125,1.125,0,0,0,.736-.352,7.763,7.763,0,0,0,1.024-1.072q.56-.688,1.136-1.456T31.744,15.2q.5-.72.848-1.168.448-.8.752-1.424a4.646,4.646,0,0,1,.912-1.232,1.031,1.031,0,0,1,.768.048,2.324,2.324,0,0,1,.8.528,2,2,0,0,1,.5.784.8.8,0,0,1-.08.752q-.576.736-1.04,1.248a6.227,6.227,0,0,0-.88,1.312q-.224.512-.512,1.136t-.528,1.28a10.8,10.8,0,0,0-.384,1.28,3.118,3.118,0,0,0-.08,1.1q0,.544.544.448a4.082,4.082,0,0,0,1.7-.816,17.392,17.392,0,0,0,1.824-1.568q.9-.88,1.664-1.728T39.76,15.915ZM46.192,13a7.119,7.119,0,0,0-2.24,1.616A19.817,19.817,0,0,0,42.016,17q-.912,1.312-1.776,2.72t-1.728,2.624a.516.516,0,0,1-.608.16.68.68,0,0,1-.448-.5,1.261,1.261,0,0,1,.064-.784q.224-.768.432-1.728t.4-2.016q.192-1.056.4-2.112t.432-2.016a.633.633,0,0,1,.3-.4,1.133,1.133,0,0,1,.528-.16.908.908,0,0,1,.512.112.588.588,0,0,1,.288.384,3.683,3.683,0,0,1-.08,1.536q-.208.9-.464,1.76.576-.7,1.264-1.648a14.872,14.872,0,0,1,1.5-1.76,8.4,8.4,0,0,1,1.728-1.344,3.121,3.121,0,0,1,1.9-.432,1.677,1.677,0,0,1,.816.528,2.652,2.652,0,0,1,.464.832,3.133,3.133,0,0,1,.176.912,2.394,2.394,0,0,1-.08.768q-.224.448-.528.976a5.605,5.605,0,0,0-.48,1.072,2.892,2.892,0,0,0-.144,1.072,1.342,1.342,0,0,0,.512.944q.192.256-.032.384a1.342,1.342,0,0,1-.608.144,2.69,2.69,0,0,1-.768-.08,1.008,1.008,0,0,1-.544-.288,3.282,3.282,0,0,1-.624-1.424,3.944,3.944,0,0,1,.048-1.456,6.118,6.118,0,0,1,.512-1.44A10.63,10.63,0,0,1,46.192,13Z" transform="translate(0.288 6.813)" fill="#fff"/>
    </g>
    <g id="Safety" transform="translate(1101.865 219)">
      <path id="Color_Overlay-2" data-name="Color Overlay" d="M5.847,14.262a11.544,11.544,0,0,0-2.09,2.02A13.111,13.111,0,0,0,2.2,18.646a6.037,6.037,0,0,0-.676,2.141,1.289,1.289,0,0,0,.576,1.35,1.759,1.759,0,0,0,1.489.01A8.92,8.92,0,0,0,5.643,21.1,20.256,20.256,0,0,0,7.88,19.375a24.745,24.745,0,0,0,2.074-2.051,14.649,14.649,0,0,0,1.532-2.007,3.768,3.768,0,0,0,.643-1.613,1.492,1.492,0,0,0-.307-1.155,3.187,3.187,0,0,0-1.059-.811,8.766,8.766,0,0,0-1.518-.583q-.843-.243-1.7-.454T5.9,10.26A5.462,5.462,0,0,1,4.588,9.7a3.056,3.056,0,0,1-.951-.86,3.713,3.713,0,0,1-.522-1.057,3.88,3.88,0,0,1-.168-1.143,4.345,4.345,0,0,1,.143-1.12A4.535,4.535,0,0,1,4.172,3.512,10.089,10.089,0,0,1,6.16,1.773,10.01,10.01,0,0,1,8.519.6,5.31,5.31,0,0,1,10.744.28a4.408,4.408,0,0,1,1.562.489,2.267,2.267,0,0,1,.961,1.248A2.932,2.932,0,0,1,13.306,3.6a6.153,6.153,0,0,1-.627,1.612,8.156,8.156,0,0,1-1,1.42,6.064,6.064,0,0,1-1.092,1,1.85,1.85,0,0,1-.52.292,2.754,2.754,0,0,1-.524.137.746.746,0,0,1-.388-.021q-.141-.059-.082-.184.356-.66.754-1.476t.751-1.615q.352-.8.584-1.487a6.118,6.118,0,0,0,.283-1.092q.054-.342-.18-.368a1.488,1.488,0,0,0-.572.076,10.471,10.471,0,0,0-1.4.623,15.673,15.673,0,0,0-1.589.954A9.584,9.584,0,0,0,6.338,4.59a2.375,2.375,0,0,0-.7,1.087.806.806,0,0,0-.063.591,1.567,1.567,0,0,0,.26.505,1.863,1.863,0,0,0,.413.393q.237.165.426.284a14.872,14.872,0,0,0,1.7.873q.846.367,1.647.766t1.556.861a7.717,7.717,0,0,1,1.423,1.128,4.78,4.78,0,0,1,1.312,2.293,4.625,4.625,0,0,1-.109,2.514,9.992,9.992,0,0,1-1.583,3.093A14.161,14.161,0,0,1,10,21.695a12.571,12.571,0,0,1-3.133,1.845,6.5,6.5,0,0,1-3.1.51,4.767,4.767,0,0,1-2.442-.932A3.79,3.79,0,0,1,.027,20.979,5.314,5.314,0,0,1,0,18.623,6.128,6.128,0,0,1,.88,16.554a8.478,8.478,0,0,1,1.508-1.712,8.866,8.866,0,0,1,1.861-1.255,6.016,6.016,0,0,1,1.2-.51,10.609,10.609,0,0,1,1.233-.294q.586-.138.59.032A.763.763,0,0,1,7,13.272a6.539,6.539,0,0,1-.652.59ZM19.27,20.413l-.608.5a4.515,4.515,0,0,1-.732.483,4,4,0,0,1-.845.331,2.235,2.235,0,0,1-.945.039,1.772,1.772,0,0,1-.688-.247,3.636,3.636,0,0,1-.6-.466,1.321,1.321,0,0,1-.361-.8,4.071,4.071,0,0,1-.052-.836,15.911,15.911,0,0,1,.392-1.715,14.157,14.157,0,0,1,.638-1.783,9.888,9.888,0,0,1,1.673-2.584,4.755,4.755,0,0,1,2.506-1.488,2.681,2.681,0,0,1,1.037-.072,2.175,2.175,0,0,1,.954.333,1.908,1.908,0,0,1,.637.682,1.26,1.26,0,0,1,.115.912q-.057.187-.13.375a1.122,1.122,0,0,1-.178.314.375.375,0,0,1-.2.144q-.093.018-.19-.166-.033-.092-.084-.262a1.582,1.582,0,0,0-.148-.337,1.055,1.055,0,0,0-.271-.3.688.688,0,0,0-.453-.128,2.064,2.064,0,0,0-1.315.761,11.965,11.965,0,0,0-1.384,1.74,16.343,16.343,0,0,0-1.13,1.981,7.906,7.906,0,0,0-.584,1.487q-.166.81.052.851t.673-.358a9.443,9.443,0,0,0,1.027-1.1q.572-.7,1.083-1.376t.885-1.2q.375-.521.405-.553a1.165,1.165,0,0,1,.8-.3,1.15,1.15,0,0,1,.7.277,1.34,1.34,0,0,1,.419.641,1.118,1.118,0,0,1-.058.792q-.2.5-.544,1.192a4.3,4.3,0,0,0-.42,1.22q-.073.808.212,1.049t1.022-.056a4.147,4.147,0,0,0,1.218-.914q.635-.651,1.253-1.38t1.16-1.393a8.486,8.486,0,0,1,.906-.984,2.514,2.514,0,0,1,.227-.207q.137-.112.231-.052.156.058.175.166a1.646,1.646,0,0,1,.021.232,15.525,15.525,0,0,1-.913,1.976,12.251,12.251,0,0,1-1.211,1.813,9.392,9.392,0,0,1-1.514,1.495A7.446,7.446,0,0,1,22.322,22.2a2.308,2.308,0,0,1-1.112.167,2.15,2.15,0,0,1-1.576-1.031A2.961,2.961,0,0,1,19.27,20.413Zm10.241-3.446a10.7,10.7,0,0,0,3.046.282q1.486-.083,3.064-.246.31-.008.282.133t-.089.173A8.712,8.712,0,0,1,33,18.37a8.021,8.021,0,0,1-2.963-.051q.176.833.311,1.915a19.916,19.916,0,0,1,.148,2.245q.013,1.163-.083,2.3a11.021,11.021,0,0,1-.367,2.087,5.8,5.8,0,0,1-.735,1.646,2.256,2.256,0,0,1-1.14.927,4.038,4.038,0,0,1-1.009-.037,1.091,1.091,0,0,1-.775-.6,5.994,5.994,0,0,1-.767-2.8q-.02-1.426.07-2.824a52.116,52.116,0,0,1,.909-5.294q.6-2.682,1.437-5.229a46.876,46.876,0,0,1,1.881-4.837,30.647,30.647,0,0,1,2.27-4.149,3.808,3.808,0,0,1,.6-.62,1.041,1.041,0,0,1,.8-.221.769.769,0,0,1,.674.309.731.731,0,0,1,.1.726l.012.5q.02.806-.005,1.675a7.369,7.369,0,0,1-.253,1.712,19.364,19.364,0,0,1-1.9,4.869,46.808,46.808,0,0,1-2.687,4.206A.51.51,0,0,1,29.512,16.967Zm.263-1.929a14.909,14.909,0,0,0,1.434-2.221,25.389,25.389,0,0,0,1.222-2.635,26.3,26.3,0,0,0,.91-2.7,19.3,19.3,0,0,0,.528-2.494A11.77,11.77,0,0,0,32.7,7.121q-.632,1.411-1.214,2.945t-1.045,2.91Q29.975,14.351,29.774,15.038ZM27.842,25.97q.281.086.5-.338a4.213,4.213,0,0,0,.36-1.141,12.834,12.834,0,0,0,.193-1.6q.056-.885.051-1.707a10.519,10.519,0,0,0-.1-1.455,2.038,2.038,0,0,0-.253-.847q-.3,1.775-.581,3.5A16.292,16.292,0,0,0,27.842,25.97Zm6.1-6.786a8.438,8.438,0,0,1,.188-2.454A8.793,8.793,0,0,1,35,14.367a5.57,5.57,0,0,1,1.522-1.789,3.856,3.856,0,0,1,2.2-.767,1.667,1.667,0,0,1,1.023.626,1.454,1.454,0,0,1,.231,1.2,4.541,4.541,0,0,1-.328,1.171,3.6,3.6,0,0,1-.765,1.027q-.273.255-.759.67t-.94.86a7.014,7.014,0,0,0-.784.9,1.363,1.363,0,0,0-.322.768q-.073.808.273,1.032a1.328,1.328,0,0,0,.888.164,3.425,3.425,0,0,0,1.093-.321q.552-.262.888-.456.4-.289.882-.719t.97-.908l.939-.922q.454-.445.757-.732.242-.254.438-.476a1.925,1.925,0,0,1,.471-.384.89.89,0,0,1,.387-.041q.14.028-.035.466a5.418,5.418,0,0,1-.58,1.007q-.345.474-.736.948-.543.634-1.161,1.331a13.814,13.814,0,0,1-1.3,1.288,9.549,9.549,0,0,1-1.432,1.028,4.712,4.712,0,0,1-1.552.581,3.42,3.42,0,0,1-2.354-.531A2.6,2.6,0,0,1,33.939,19.184Zm4.815-5.948a3.488,3.488,0,0,0-1.3.838,3,3,0,0,0-.661,1.474,12.5,12.5,0,0,0,1.2-1.037A3,3,0,0,0,38.754,13.236Zm5.2,10.819a.512.512,0,0,0,.768.353,4.357,4.357,0,0,0,1.31-.962,18.157,18.157,0,0,0,1.553-1.775q.812-1.043,1.546-2.054t1.273-1.83q.538-.819.718-1.072a3.085,3.085,0,0,1,.345-.474,4.755,4.755,0,0,1,.5-.477q.122-.1.289-.209a.463.463,0,0,1,.292-.1q.124.012.113.2a2.059,2.059,0,0,1-.217.626q-.177.376-.561,1.146t-.95,1.729q-.566.96-1.254,1.984a17.06,17.06,0,0,1-1.488,1.913,14.086,14.086,0,0,1-1.636,1.56,4.35,4.35,0,0,1-1.7.879,6.848,6.848,0,0,1-1.421.236,1.52,1.52,0,0,1-1.158-.452,2.018,2.018,0,0,1-.56-1.32,8.676,8.676,0,0,1,.032-1.846,15.7,15.7,0,0,1,.341-1.9q.225-.92.368-1.42.456-1.624.867-3.2t.806-3.167q.431-1.406.782-2.888t.725-2.669q-.621-.016-1.272-.015h-1.3q-.651,0-1.288-.046a6.992,6.992,0,0,1-1.2-.188,1.339,1.339,0,0,1-.738-.385.8.8,0,0,1-.231-.552.623.623,0,0,1,.3-.488,1.506,1.506,0,0,1,.847-.222q.341-.008,1.117.035t1.629.053q.853.01,1.581-.023a3.136,3.136,0,0,0,.943-.132q.092-.033.091-.1.172-.562.374-1.188t.4-1.219q.2-.594.391-1.126t.334-.907a.437.437,0,0,1,.506-.245,2.372,2.372,0,0,1,.812.244,2.736,2.736,0,0,1,.742.524.787.787,0,0,1,.294.6,5.463,5.463,0,0,1-.4,1.591,11.054,11.054,0,0,0-.545,1.781q1.952-.079,3.361-.129t2.742-.083q.434-.011.868-.006a3.182,3.182,0,0,1,.668.061q.234.056.113.168a2.8,2.8,0,0,1-.8.314,29.739,29.739,0,0,1-3.758,1.038q-1.82.37-3.583.569-.154.035-.138.065t-.073.188a.089.089,0,0,1-.029.063.089.089,0,0,0-.029.063q-.462,1.376-1.009,3.095T46.272,13.8q-.545,1.812-1.029,3.56t-.821,3.168q-.337,1.419-.484,2.369A1.976,1.976,0,0,0,43.95,24.054Zm9.684-3.432a2.114,2.114,0,0,1-1.509-.211,1.7,1.7,0,0,1-.882-1.188,8.722,8.722,0,0,1-.162-1.546,16.722,16.722,0,0,1,.05-1.753q.071-.886.221-1.726t.32-1.5a.513.513,0,0,1,.473-.291,1.87,1.87,0,0,1,.685.123,2.265,2.265,0,0,1,.629.341.922.922,0,0,1,.336.426,2.822,2.822,0,0,1-.139,1.29q-.242.89-.528,1.858t-.452,1.794q-.166.826.088,1.037.222.212.571-.123a4.778,4.778,0,0,0,.736-.979q.387-.645.8-1.508t.811-1.71q.4-.847.721-1.568t.531-1.1q.059-.125.292-.116a1.263,1.263,0,0,1,.484.128,1.992,1.992,0,0,1,.473.314.914.914,0,0,1,.29.443,7.213,7.213,0,0,1,.243,2.335,16.576,16.576,0,0,1-.283,2.379q1.125-.927,2.207-1.667a16.693,16.693,0,0,1,2.34-1.329,1.108,1.108,0,0,1,.477-.151,2.437,2.437,0,0,1,.6-.03q.249.025.268.195t-.56.556a33.908,33.908,0,0,0-2.832,2.116q-1.428,1.182-2.674,2.236a.74.74,0,0,0-.267.5,27.588,27.588,0,0,1-.773,3.864,42.656,42.656,0,0,1-1.4,4.283,36.309,36.309,0,0,1-1.883,4.124,20.647,20.647,0,0,1-2.227,3.388,4.43,4.43,0,0,1-1.612,1.3,2.514,2.514,0,0,1-1.592.21,2.043,2.043,0,0,1-1.231-.885,3.772,3.772,0,0,1-.56-1.986,15.585,15.585,0,0,1,1.21-3.766,25.765,25.765,0,0,1,2.066-3.617q1.212-1.782,2.688-3.57t3.1-3.627a1.473,1.473,0,0,0,.385-.738,10.087,10.087,0,0,0,.28-1.232,11.56,11.56,0,0,0,.14-1.228,1.862,1.862,0,0,0-.033-.7q-.3.565-.649,1.334t-.739,1.476a10.216,10.216,0,0,1-.776,1.228A1.21,1.21,0,0,1,53.634,20.622ZM48.207,35.733q.344.116.975-.691a18.9,18.9,0,0,0,1.4-2.143q.773-1.337,1.57-2.984t1.456-3.2q.66-1.551,1.094-2.8a7.152,7.152,0,0,0,.452-1.779q-.784.888-1.715,2.135t-1.827,2.619q-.9,1.371-1.684,2.786a26.816,26.816,0,0,0-1.3,2.637,9.646,9.646,0,0,0-.661,2.14A1.409,1.409,0,0,0,48.207,35.733Z" transform="translate(1.052 7.836)" fill="#fff"/>
    </g>
    <text id="OUR" transform="matrix(1, 0, 0, 1, 1125.107, 275.129)" fill="#ff7400" font-size="15" font-family="SegoeUI, Segoe UI"><tspan x="-30.586" y="0">OUR</tspan></text>
    <text id="RESPONSIBILITY" transform="matrix(1, 0, 0, 1, 1272.731, 276.428)" fill="#ff7400" font-size="15" font-family="SegoeUI, Segoe UI"><tspan x="-107.505" y="0">RESPONSIBILITY</tspan></text>
  </g>
</svg>
