<svg xmlns="http://www.w3.org/2000/svg" xmlns:xlink="http://www.w3.org/1999/xlink" width="412.509" height="406.268" viewBox="0 0 412.509 406.268">
  <defs>
    <linearGradient id="linear-gradient" x1="1.091" y1="1.163" x2="0.386" y2="0.408" gradientUnits="objectBoundingBox">
      <stop offset="0" stop-color="#dae3fe"/>
      <stop offset="1" stop-color="#e9effd"/>
    </linearGradient>
    <linearGradient id="linear-gradient-2" x1="0.506" y1="-0.271" x2="0.497" y2="0.846" gradientUnits="objectBoundingBox">
      <stop offset="0" stop-color="#09005d"/>
      <stop offset="1" stop-color="#1a0f91"/>
    </linearGradient>
    <linearGradient id="linear-gradient-3" x1="0.99" y1="-3.704" x2="0.483" y2="0.649" gradientUnits="objectBoundingBox">
      <stop offset="0" stop-color="#4f52ff"/>
      <stop offset="1" stop-color="#4042e2"/>
    </linearGradient>
    <linearGradient id="linear-gradient-4" x1="0.8" y1="-3.549" x2="0.487" y2="0.68" xlink:href="#linear-gradient-3"/>
    <linearGradient id="linear-gradient-5" x1="0.82" y1="-3.608" x2="0.519" y2="0.727" xlink:href="#linear-gradient-3"/>
    <linearGradient id="linear-gradient-6" x1="0.802" y1="-3.586" x2="0.48" y2="0.767" xlink:href="#linear-gradient-3"/>
    <linearGradient id="linear-gradient-7" x1="1.519" y1="-0.775" x2="-1.484" y2="2.907" xlink:href="#linear-gradient-2"/>
    <linearGradient id="linear-gradient-8" x1="1.004" y1="-2.464" x2="-0.074" y2="4.125" xlink:href="#linear-gradient-2"/>
    <linearGradient id="linear-gradient-9" x1="1.16" y1="-1.137" x2="0.038" y2="1.479" xlink:href="#linear-gradient-3"/>
    <linearGradient id="linear-gradient-10" x1="0.783" y1="-3.287" x2="0.564" y2="-0.511" xlink:href="#linear-gradient-3"/>
    <linearGradient id="linear-gradient-11" x1="0.695" y1="0.089" x2="0.337" y2="1.18" xlink:href="#linear-gradient-3"/>
    <linearGradient id="linear-gradient-12" x1="1.397" y1="-0.306" x2="0.491" y2="1.753" xlink:href="#linear-gradient-3"/>
    <linearGradient id="linear-gradient-13" x1="1.588" y1="-1.282" x2="0.3" y2="0.76" gradientUnits="objectBoundingBox">
      <stop offset="0" stop-color="#ff928e"/>
      <stop offset="1" stop-color="#fe7062"/>
    </linearGradient>
    <linearGradient id="linear-gradient-14" x1="1.336" y1="-2.548" x2="0.403" y2="0.86" xlink:href="#linear-gradient-13"/>
    <linearGradient id="linear-gradient-15" x1="2.55" y1="-7.538" x2="0.321" y2="1.204" xlink:href="#linear-gradient-13"/>
    <linearGradient id="linear-gradient-16" x1="-10.493" y1="0.5" x2="-9.493" y2="0.5" xlink:href="#linear-gradient-3"/>
    <linearGradient id="linear-gradient-17" x1="-10.826" y1="0.5" x2="-9.826" y2="0.5" xlink:href="#linear-gradient-2"/>
    <linearGradient id="linear-gradient-18" x1="-39.147" y1="0.5" x2="-38.147" y2="0.5" gradientUnits="objectBoundingBox">
      <stop offset="0" stop-color="#febbba"/>
      <stop offset="1" stop-color="#ff928e"/>
    </linearGradient>
    <linearGradient id="linear-gradient-19" x1="-39.395" y1="0.5" x2="-38.395" y2="0.5" xlink:href="#linear-gradient-3"/>
    <linearGradient id="linear-gradient-20" x1="-26.511" y1="0.5" x2="-25.511" y2="0.5" xlink:href="#linear-gradient-2"/>
    <linearGradient id="linear-gradient-21" x1="-43.231" y1="0.5" x2="-42.231" y2="0.5" xlink:href="#linear-gradient-18"/>
    <linearGradient id="linear-gradient-22" x1="-3.627" y1="0.221" x2="-5.029" y2="1.513" xlink:href="#linear-gradient-3"/>
    <linearGradient id="linear-gradient-23" x1="2.543" y1="-11.307" x2="1.871" y2="-10.151" xlink:href="#linear-gradient-13"/>
    <linearGradient id="linear-gradient-24" x1="2.584" y1="-5.022" x2="0.95" y2="-0.693" xlink:href="#linear-gradient-3"/>
    <linearGradient id="linear-gradient-25" x1="-23.915" y1="0.1" x2="-26.304" y2="1.142" xlink:href="#linear-gradient-18"/>
    <linearGradient id="linear-gradient-26" x1="2.82" y1="-19.868" x2="1.347" y2="-17.858" xlink:href="#linear-gradient-13"/>
    <linearGradient id="linear-gradient-27" x1="16.39" y1="-27.017" x2="14.903" y2="-25.093" xlink:href="#linear-gradient-13"/>
    <linearGradient id="linear-gradient-28" x1="-6.185" y1="5.025" x2="-5.131" y2="5.025" xlink:href="#linear-gradient-18"/>
    <linearGradient id="linear-gradient-29" x1="-12.578" y1="-0.004" x2="-12.592" y2="1.888" xlink:href="#linear-gradient-18"/>
    <linearGradient id="linear-gradient-30" x1="-17.992" y1="12.825" x2="-19.512" y2="14.163" xlink:href="#linear-gradient-18"/>
    <linearGradient id="linear-gradient-31" x1="-10.604" y1="8.513" x2="-9.582" y2="8.513" xlink:href="#linear-gradient-2"/>
    <linearGradient id="linear-gradient-32" x1="-57.515" y1="38.397" x2="-54.225" y2="36.041" xlink:href="#linear-gradient-18"/>
    <linearGradient id="linear-gradient-33" x1="0.272" y1="1.004" x2="-1.199" y2="2.426" xlink:href="#linear-gradient-2"/>
    <linearGradient id="linear-gradient-34" x1="3.837" y1="2.094" x2="5.218" y2="0.643" xlink:href="#linear-gradient-2"/>
    <linearGradient id="linear-gradient-35" x1="2.931" y1="0.644" x2="-0.512" y2="4.443" xlink:href="#linear-gradient-18"/>
    <linearGradient id="linear-gradient-36" x1="-15.456" y1="-1.222" x2="-17.149" y2="3.818" xlink:href="#linear-gradient-18"/>
    <linearGradient id="linear-gradient-37" x1="-22.05" y1="0.5" x2="-21.05" y2="0.5" xlink:href="#linear-gradient-18"/>
  </defs>
  <g id="Group_4905" data-name="Group 4905" transform="translate(-442.496 -455)">
    <path id="Path_13805" data-name="Path 13805" d="M826.437,802.488a155.472,155.472,0,0,1-27.306,22.165c-70.718,47.219-151.556,33.61-176.55,28.958-40.324-7.505-74.362-12.8-103.607-39.222-66.454-60.039-63.222-185.284-12.443-262.867,6.021-9.2,56.723-84.355,137.736-94.946,1.981-.259,3.46-.406,4.755-.544,12.533-1.327,90.195-8.33,153.52,44.724a188.914,188.914,0,0,1,37.18,42.185C889.185,619.334,889.342,737.648,826.437,802.488Z" transform="translate(-22.396)" fill="url(#linear-gradient)"/>
    <g id="Group_4880" data-name="Group 4880" transform="translate(734.061 534.681)" opacity="0.77">
      <path id="Path_13806" data-name="Path 13806" d="M2510.309,1002.162c14.056,27.2,89.5,188.443-46.814,277.408,0,0-76.585-94.994,42.386-277.817A2.586,2.586,0,0,1,2510.309,1002.162Z" transform="translate(-2439.234 -1000.68)" fill="#91b3fa"/>
      <path id="Path_13807" data-name="Path 13807" d="M2736.986,1209.578c1.261,10.16,2.112,20.271,2.8,30.37q.988,15.141,1.31,30.2a596.376,596.376,0,0,1-1.6,59.628q-1.222,14.714-3.276,29.184-2.173,14.423-5.338,28.479c-2.223,9.316-4.8,18.478-7.87,27.391A213.877,213.877,0,0,1,2712,1440.5a.847.847,0,0,1-1.291.219,1.184,1.184,0,0,1-.442-1.437l0,0,.007-.013a211.732,211.732,0,0,0,11.043-25.377c3.088-8.826,5.7-17.911,7.955-27.158q3.238-13.938,5.45-28.3,2.124-14.382,3.4-29.044a593.4,593.4,0,0,0,1.874-59.43q-.251-15.01-1.169-30.124c-.636-10.072-1.441-20.179-2.651-30.291v-.009a.343.343,0,0,1,.354-.413A.519.519,0,0,1,2736.986,1209.578Z" transform="translate(-2670.603 -1178.685)" fill="#fff" opacity="0.5"/>
    </g>
    <g id="Group_4881" data-name="Group 4881" transform="translate(487.177 462.521)">
      <path id="Path_13808" data-name="Path 13808" d="M748.6,509.4a2.227,2.227,0,0,1,3.459-2.45c17.57,13.1,60.789,53.412,60.152,132.512-.8,99.243,23.651,132.643,51.509,151.545,0,0-36.022-6.284-62.072-40.034C737.688,668.11,760.428,545.913,748.6,509.4Z" transform="translate(-748.486 -506.502)" fill="#91b3fa"/>
      <path id="Path_13809" data-name="Path 13809" d="M855.662,721.985c3.225,10.671,6.237,21.4,8.853,32.225q4.008,16.213,7.017,32.635c1.959,10.949,3.712,21.933,5,32.975,1.333,11.036,2.191,22.116,3.014,33.244.884,11.117,1.712,22.322,3.689,33.475a113.091,113.091,0,0,0,10.534,32.35c1.311,2.527,2.673,5.04,4.17,7.448,1.453,2.437,3.014,4.809,4.617,7.153a117.264,117.264,0,0,0,37.08,34.659,2.155,2.155,0,0,0,2.275-3.66l-.007,0c-2.317-1.484-4.614-2.992-6.836-4.6-1.124-.785-2.211-1.619-3.313-2.432-1.07-.853-2.173-1.666-3.216-2.551a113.589,113.589,0,0,1-11.889-11.273,124.535,124.535,0,0,1-18.657-26.892,108.508,108.508,0,0,1-6.263-15.1,123.03,123.03,0,0,1-4-15.92c-2-10.817-2.913-21.9-3.877-33.01s-2.038-22.27-3.556-33.368q-1.115-8.325-2.529-16.605c-.455-2.762-.963-5.514-1.467-8.267q-.795-4.122-1.642-8.233-3.434-16.434-7.874-32.619c-3.014-10.768-6.313-21.453-10.018-31.992a.578.578,0,0,0-1.1.359Z" transform="translate(-839.991 -689.883)" fill="#fff" style="mix-blend-mode: soft-light;isolation: isolate"/>
    </g>
    <g id="Group_4883" data-name="Group 4883" transform="translate(442.496 534.606)">
      <g id="Group_4882" data-name="Group 4882" transform="translate(0 0)">
        <path id="Path_13810" data-name="Path 13810" d="M551.54,1238.317a5.6,5.6,0,0,1-8.517,3.73c-18.546-11.731-67.983-49.641-76.933-124.867-7.558-63.525-17.693-97.253-23.355-112.245a3.512,3.512,0,0,1,5.195-4.187C479.33,1021.044,576.537,1096.388,551.54,1238.317Z" transform="translate(-442.496 -1000.169)" fill="#bdd0fb"/>
        <path id="Path_13811" data-name="Path 13811" d="M748.221,1625.857a1.555,1.555,0,0,1-2.38-.293c-.521-.821-52.308-83.054-66.807-170.907a1.553,1.553,0,0,1,3.065-.506c14.393,87.213,65.845,168.932,66.363,169.747A1.553,1.553,0,0,1,748.221,1625.857Z" transform="translate(-644.477 -1386.75)" fill="#fff" style="mix-blend-mode: soft-light;isolation: isolate"/>
      </g>
    </g>
    <g id="Group_4888" data-name="Group 4888" transform="translate(533.978 458.415)">
      <path id="Path_13812" data-name="Path 13812" d="M1068.994,814.2a24.355,24.355,0,0,1,24.355-24.355h207.118a21.457,21.457,0,0,1,21.43,20.366l15.288,300.283a15.823,15.823,0,0,1-15.515,16.625l-237.384,4.314a15.02,15.02,0,0,1-15.293-15.017Z" transform="translate(-1068.994 -744.362)" fill="url(#linear-gradient-2)"/>
      <path id="Path_13813" data-name="Path 13813" d="M1161.733,2758.908h-.008l-26.562-.343a16.381,16.381,0,0,1-16.107-16.317v-40.1a.567.567,0,0,1,1.134,0v40.1a15.243,15.243,0,0,0,14.988,15.183l26.561.344a.567.567,0,0,1-.007,1.134Z" transform="translate(-1111.746 -2376.946)" fill="#fff"/>
      <path id="Path_13814" data-name="Path 13814" d="M1119.623,2579.656a.567.567,0,0,1-.567-.567v-6.495a.567.567,0,0,1,1.134,0v6.495A.567.567,0,0,1,1119.623,2579.656Z" transform="translate(-1111.746 -2266.313)" fill="#fff"/>
      <g id="Group_4887" data-name="Group 4887" transform="translate(16.968 42.979)">
        <path id="Path_13815" data-name="Path 13815" d="M1185.2,779.844a7.074,7.074,0,0,1,8.024-7.056c28.284,3.835,125.545,15.7,205.959,9.525a6.542,6.542,0,0,1,7.045,6.17l16.031,301.621a7.528,7.528,0,0,1-7.073,7.917c-33.821,2-173.1,9.739-222.785,4.535a5.964,5.964,0,0,1-5.337-5.9Z" transform="translate(-1185.198 -772.723)" fill="#91b3fa"/>
        <path id="Path_13816" data-name="Path 13816" d="M1208.014,833.175a6.808,6.808,0,0,1,7.722-6.79c27.219,3.691,120.817,15.107,198.2,9.167a6.3,6.3,0,0,1,6.78,5.938l15.427,290.263a7.245,7.245,0,0,1-6.806,7.619c-32.547,1.926-166.586,9.372-214.4,4.364a5.739,5.739,0,0,1-5.136-5.68Z" transform="translate(-1204.683 -818.496)" fill="#fff" opacity="0.6"/>
        <g id="Group_4884" data-name="Group 4884" transform="translate(6.303 214.821)">
          <path id="Path_13817" data-name="Path 13817" d="M1228.538,2248.495c.612,1.621,2.72,2.746,5.121,2.732l195.6-1.165c2.213-.013,3.983-1.288,3.934-2.833-.047-1.5-1.8-2.706-3.95-2.712l-195.608-.624C1230.185,2243.881,1227.658,2246.162,1228.538,2248.495Z" transform="translate(-1228.362 -2243.892)" fill="#91b3fa"/>
          <path id="Path_13818" data-name="Path 13818" d="M1228.538,2465.283c.612,1.621,2.72,2.746,5.121,2.732l195.6-1.165c2.213-.013,3.983-1.288,3.934-2.834-.047-1.5-1.8-2.706-3.95-2.712l-195.608-.623C1230.185,2460.67,1227.658,2462.951,1228.538,2465.283Z" transform="translate(-1228.362 -2429.025)" fill="#91b3fa"/>
          <path id="Path_13819" data-name="Path 13819" d="M1228.45,2682.072h0c.3,1.621,1.351,2.746,2.542,2.732l97.116-1.165c1.1-.013,1.977-1.288,1.953-2.834-.023-1.5-.893-2.706-1.961-2.713l-97.118-.623C1229.267,2677.458,1228.013,2679.739,1228.45,2682.072Z" transform="translate(-1228.362 -2614.157)" fill="#91b3fa"/>
        </g>
        <g id="Group_4885" data-name="Group 4885" transform="translate(27.146 88.502)">
          <path id="Path_13820" data-name="Path 13820" d="M1371.255,1383.42a4.436,4.436,0,0,0,4.375,2.732l167.105-1.165c1.891-.013,3.4-1.288,3.361-2.833a3.143,3.143,0,0,0-3.375-2.713l-167.109-.623C1372.662,1378.807,1370.5,1381.088,1371.255,1383.42Z" transform="translate(-1371.105 -1378.818)" fill="#91b3fa"/>
          <path id="Path_13821" data-name="Path 13821" d="M1371.179,1600.208c.256,1.621,1.137,2.746,2.141,2.732l81.781-1.165c.925-.013,1.665-1.288,1.645-2.834-.02-1.5-.752-2.706-1.651-2.713l-81.783-.623C1371.867,1595.595,1370.81,1597.876,1371.179,1600.208Z" transform="translate(-1371.105 -1563.95)" fill="#91b3fa"/>
          <path id="Path_13822" data-name="Path 13822" d="M1371.255,1817a4.436,4.436,0,0,0,4.375,2.732l167.105-1.165c1.891-.013,3.4-1.288,3.361-2.833a3.143,3.143,0,0,0-3.375-2.713l-167.109-.623C1372.662,1812.384,1370.5,1814.665,1371.255,1817Z" transform="translate(-1371.105 -1749.084)" fill="#91b3fa"/>
          <path id="Path_13823" data-name="Path 13823" d="M1371.182,2033.785h0c.269,1.621,1.195,2.746,2.25,2.732l85.937-1.165c.972-.013,1.75-1.288,1.729-2.834-.021-1.5-.79-2.706-1.736-2.713l-85.939-.623C1371.906,2029.172,1370.8,2031.453,1371.182,2033.785Z" transform="translate(-1371.105 -1934.216)" fill="#91b3fa"/>
        </g>
        <g id="Group_4886" data-name="Group 4886" transform="translate(66.263 36.378)">
          <path id="Path_13824" data-name="Path 13824" d="M1638.993,1054.912v-29.843h5.552v24.985h7.7v4.858Z" transform="translate(-1638.993 -1024.6)" fill="url(#linear-gradient-3)"/>
          <path id="Path_13825" data-name="Path 13825" d="M1769.2,1037.2q0,7.41-2.776,11.39a9.938,9.938,0,0,1-15.9.01q-2.776-3.97-2.776-11.441,0-7.41,2.776-11.359a9.179,9.179,0,0,1,8-3.95,9.055,9.055,0,0,1,7.92,3.97Q1769.2,1029.794,1769.2,1037.2Zm-15.778,0a18.514,18.514,0,0,0,1.286,7.777,4.067,4.067,0,0,0,3.776,2.674q5.021,0,5.021-10.451t-4.981-10.451a4.092,4.092,0,0,0-3.817,2.664A18.5,18.5,0,0,0,1753.424,1037.2Z" transform="translate(-1731.869 -1021.854)" fill="url(#linear-gradient-4)"/>
          <path id="Path_13826" data-name="Path 13826" d="M1923.169,1054.2l-1.715-7.532h-7.777l-1.715,7.532h-5.552l7.389-29.965h7.532l7.41,29.965Zm-2.756-12.451-1.592-6.94q-.143-.632-.643-3.174t-.6-3.4q-.266,1.756-.674,3.868t-2.123,9.645Z" transform="translate(-1867.363 -1023.883)" fill="url(#linear-gradient-5)"/>
          <path id="Path_13827" data-name="Path 13827" d="M2098.275,1054.912H2091.5l-9.227-21.617h-.265a26.263,26.263,0,0,1,.51,5.307v16.309h-5.144v-29.843h6.818l9.145,21.392h.225a29.056,29.056,0,0,1-.388-5.1v-16.289h5.1Z" transform="translate(-2013.361 -1024.6)" fill="url(#linear-gradient-6)"/>
        </g>
      </g>
      <path id="Path_13828" data-name="Path 13828" d="M1886.221,482.924c-7.481-5.2-13.987-5.1-18.566-3.75a9.134,9.134,0,0,0-6.488,9.6l1.975,21.556,23.5,2.086S1900.893,493.131,1886.221,482.924Zm-10.334,17.39a5.86,5.86,0,1,1,5.86-5.86A5.859,5.859,0,0,1,1875.886,500.314Z" transform="translate(-1745.461 -478.387)" fill="url(#linear-gradient-7)"/>
      <path id="Path_13829" data-name="Path 13829" d="M1882.479,519.724a.567.567,0,0,1-.564-.516l-.315-3.433a.567.567,0,1,1,1.129-.1l.315,3.433a.567.567,0,0,1-.513.616C1882.514,519.723,1882.5,519.724,1882.479,519.724Zm-.616-6.727a.567.567,0,0,1-.564-.516l-.239-2.606a8.719,8.719,0,0,1,6.182-9.148,17.564,17.564,0,0,1,8.589-.353.567.567,0,1,1-.228,1.111,16.461,16.461,0,0,0-8.04.33,7.583,7.583,0,0,0-5.373,7.957l.239,2.606a.567.567,0,0,1-.513.617Z" transform="translate(-1762.451 -496.847)" fill="#91b3fa"/>
      <path id="Path_13830" data-name="Path 13830" d="M1655.268,690.5V679.66a6.613,6.613,0,0,1,6.84-6.609l74.72,2.56a6.432,6.432,0,0,1,6.2,6.043l.624,10.413Z" transform="translate(-1569.66 -644.622)" fill="url(#linear-gradient-8)"/>
      <path id="Path_13831" data-name="Path 13831" d="M1823.962,694.407h-3.213a.567.567,0,1,1,0-1.134h3.213a.567.567,0,1,1,0,1.134Z" transform="translate(-1710.493 -661.895)" fill="#91b3fa"/>
      <path id="Path_13832" data-name="Path 13832" d="M1679.649,704.367a.567.567,0,0,1-.567-.567v-4.384a6.15,6.15,0,0,1,6.143-6.143h11.814a.567.567,0,1,1,0,1.134h-11.814a5.015,5.015,0,0,0-5.009,5.009V703.8A.567.567,0,0,1,1679.649,704.367Z" transform="translate(-1589.997 -661.895)" fill="#91b3fa"/>
      <path id="Path_13833" data-name="Path 13833" d="M1445.045,772.075a7.041,7.041,0,0,1,7.033-6.7l130.661,0a9.657,9.657,0,0,1,9.516,8.01l.111.639a8.294,8.294,0,0,1-8.172,9.708H1450.143a5.392,5.392,0,0,1-5.386-5.651Z" transform="translate(-1389.882 -723.463)" fill="#7d97f4"/>
      <path id="Path_13834" data-name="Path 13834" d="M1877.726,2589.536a56.986,56.986,0,0,1,8.479-25.357,58.991,58.991,0,0,1,8.41-10.627c.824-.779,1.629-1.581,2.473-2.339.869-.731,1.717-1.488,2.605-2.2.909-.682,1.808-1.38,2.742-2.028l1.425-.94.713-.469.357-.234c.129-.081.3-.184.457-.266a7.162,7.162,0,0,1,8.525.992,6.4,6.4,0,0,1,1.309,1.981,7.556,7.556,0,0,1,.356,1.042,8.491,8.491,0,0,1,.219,1.025,14.439,14.439,0,0,1,.027,3.823c-.064.606-.163,1.2-.269,1.781l-.325,1.637c-.208,1.093-.453,2.179-.691,3.266-.48,2.173-1.024,4.332-1.595,6.482a150.266,150.266,0,0,1-9.205,25.024l-1.457,3c-.51.988-1.007,1.983-1.528,2.966l-.79,1.469-.395.735-.435.767a22.434,22.434,0,0,1-2.057,2.952,13.818,13.818,0,0,1-2.784,2.6,7.892,7.892,0,0,1-4.02,1.433,5.437,5.437,0,0,1-1.14-.042,6.228,6.228,0,0,1-1.1-.231,6.455,6.455,0,0,1-2.019-.976,7.764,7.764,0,0,1-2.634-3.347,10.421,10.421,0,0,1-.762-3.891,15.616,15.616,0,0,1,.443-3.68,32.156,32.156,0,0,1,.978-3.316l.547-1.607.616-1.581a60.563,60.563,0,0,1,15.241-22.1l.618-.576.644-.547,1.29-1.09c.439-.352.89-.69,1.334-1.035s.885-.7,1.353-1.009c.923-.645,1.836-1.3,2.8-1.886l.714-.45.357-.225c.063-.039.11-.072.188-.116l.235-.131a5.691,5.691,0,0,1,2.046-.633,5.207,5.207,0,0,1,4.079,1.27,4.233,4.233,0,0,1,1.239,1.97,5.441,5.441,0,0,1,.148,2.11,11.844,11.844,0,0,1-.356,1.8l-.447,1.6-.891,3.171c-1.178,4.231-2.4,8.449-3.6,12.674l0,.01-1.855-.332a9.718,9.718,0,0,1,1.306-4.147,6.806,6.806,0,0,1,1.5-1.726,5.919,5.919,0,0,1,2.076-1.074,5.466,5.466,0,0,1,2.367-.154,4.641,4.641,0,0,1,1.735.654l.374.235a3.383,3.383,0,0,0,2.972.2,3.049,3.049,0,0,0,.656-.376,2.885,2.885,0,0,0,.289-.248l.141-.137.169-.18,1.351-1.441,2.7-2.883,2.7-2.883,1.351-1.441a2.612,2.612,0,0,1,1.338-.764,2.509,2.509,0,0,1,1.547.175,2.6,2.6,0,0,1,1.151,1.013,2.444,2.444,0,0,1,.335,1.538,1.7,1.7,0,0,1-.07.378c-.031.115-.074.266-.1.321l-.162.455-.307.916q-.6,1.837-1.013,3.726t-.657,3.8c-.018.157-.042.325-.054.474l-.012.39a1.435,1.435,0,0,0,.025.384,2.034,2.034,0,0,0,.061.376,3.147,3.147,0,0,0,.7,1.33,3.235,3.235,0,0,0,1.247.885,3.8,3.8,0,0,0,.739.223,3.627,3.627,0,0,0,.764.029,2.977,2.977,0,0,0,1.434-.458l.167-.094.15-.125.305-.249.7-.684q2.789-2.739,5.326-5.719a87.678,87.678,0,0,0,9-12.761l.957-1.7.462-.861.231-.431.058-.107c0-.012,0-.006,0-.008s-.008.012,0,.022c0,.073.029.087.021.08a.068.068,0,0,0,.043.007c.029-.006.067-.013.067-.019h0l-.083.084-.166.169c-.112.112-.221.226-.328.343-.218.229-.427.467-.636.7a23.577,23.577,0,0,0-2.239,3.064q-.5.81-.929,1.657c-.142.283-.282.567-.414.856l-.194.434-.1.217-.063.195a4,4,0,0,0,.085,3.115,4.2,4.2,0,0,0,2.3,2.145,4.075,4.075,0,0,0,1.558.278,4.216,4.216,0,0,0,1.548-.386l.372-.17.418-.243c.278-.164.561-.321.834-.493.554-.334,1.1-.681,1.639-1.036a49.162,49.162,0,0,0,11.391-10.426l0,0a.945.945,0,0,1,1.48,1.176,51.064,51.064,0,0,1-11.831,10.83c-.561.368-1.126.729-1.7,1.075-.284.179-.578.342-.866.512l-.436.253-.524.247a6.1,6.1,0,0,1-2.261.553,5.962,5.962,0,0,1-2.3-.4,6.082,6.082,0,0,1-3.33-3.116,5.9,5.9,0,0,1-.14-4.567l.094-.273.1-.235.209-.468c.142-.311.293-.618.446-.923q.467-.913,1-1.789a25.488,25.488,0,0,1,2.419-3.311c.226-.257.452-.514.688-.762.116-.125.234-.25.355-.371l.18-.183.09-.092c.058-.052.122-.107.186-.158a1.752,1.752,0,0,1,.974-.366,1.848,1.848,0,0,1,.99.233,1.823,1.823,0,0,1,.938,1.711,1.764,1.764,0,0,1-.114.5c-.029.074-.065.157-.1.22l-.059.11-.236.44-.472.88-.979,1.741a89.58,89.58,0,0,1-9.2,13.039q-2.587,3.044-5.442,5.844l-.714.7-.457.38-.233.186-.26.154a4.87,4.87,0,0,1-2.288.728,5.526,5.526,0,0,1-1.205-.051,5.718,5.718,0,0,1-1.149-.341,5.125,5.125,0,0,1-1.942-1.382,5.039,5.039,0,0,1-1.115-2.135,3.724,3.724,0,0,1-.1-.6,2.829,2.829,0,0,1-.038-.6l.022-.6.059-.508q.249-2.006.687-3.98c.293-1.314.644-2.616,1.059-3.9l.321-.958.169-.476a.984.984,0,0,0,.044-.152.248.248,0,0,0,.021-.1.546.546,0,0,0-.072-.358.712.712,0,0,0-.314-.27.6.6,0,0,0-.726.159l-1.351,1.441-2.7,2.883-2.7,2.883-1.351,1.441-.169.18-.212.209a4.829,4.829,0,0,1-.461.395,4.977,4.977,0,0,1-1.052.6,5.276,5.276,0,0,1-4.641-.29l-.464-.289a2.538,2.538,0,0,0-.317-.169,2.583,2.583,0,0,0-.7-.211,3.583,3.583,0,0,0-1.543.106,4.3,4.3,0,0,0-2.487,1.973,7.846,7.846,0,0,0-1.033,3.332l-1.855-.332,0-.01c1.063-4.262,2.1-8.53,3.186-12.786l.807-3.194.4-1.583a9.445,9.445,0,0,0,.248-1.431,2.953,2.953,0,0,0-.1-1.153,1.645,1.645,0,0,0-.517-.762,2.58,2.58,0,0,0-2.046-.553,3,3,0,0,0-1.071.365l-.122.073-.16.105-.334.223-.668.447c-.9.577-1.754,1.228-2.615,1.863-.437.309-.844.658-1.261.993s-.834.671-1.242,1.016l-1.2,1.068-.6.532-.578.557a56.83,56.83,0,0,0-8.242,9.793,56.085,56.085,0,0,0-5.855,11.351l-.557,1.5-.489,1.52a28.967,28.967,0,0,0-.84,3.012,8.823,8.823,0,0,0,.218,5.377,4.107,4.107,0,0,0,1.4,1.749,2.762,2.762,0,0,0,.939.429,2.865,2.865,0,0,0,1.008.106,4.159,4.159,0,0,0,2.083-.8,10.112,10.112,0,0,0,1.991-1.909,18.588,18.588,0,0,0,1.682-2.463l.372-.669.379-.719.758-1.438c.5-.962.976-1.936,1.465-2.9l1.4-2.936a153.206,153.206,0,0,0,8.848-24.415c.55-2.1,1.073-4.2,1.535-6.314.229-1.058.464-2.116.664-3.18l.313-1.594c.09-.5.17-.989.219-1.475a10.5,10.5,0,0,0-.011-2.744,3.4,3.4,0,0,0-.784-1.854,2.125,2.125,0,0,0-.686-.481,3.146,3.146,0,0,0-.949-.24,3.729,3.729,0,0,0-2.059.449c-.088.046-.151.083-.255.147l-.333.216-.665.432-1.331.864c-.875.594-1.707,1.252-2.572,1.864-.842.643-1.646,1.335-2.472,2-.8.693-1.568,1.428-2.356,2.14a60.817,60.817,0,0,0-17.7,33.477.946.946,0,0,1-1.876-.231Z" transform="translate(-1759.633 -2242.482)" fill="url(#linear-gradient-9)"/>
    </g>
    <g id="Group_4890" data-name="Group 4890" transform="translate(454.305 623.858)">
      <path id="Path_13835" data-name="Path 13835" d="M867.923,1621.683c2.186-2.94,8.724-3.077,13.878-6.919a7.19,7.19,0,0,1,1.229-.733,26.229,26.229,0,0,1,25.416,1.4.682.682,0,0,1,.063.046c5.128,4.161,11.4-1.947,20.283,3.527.2.121.366.264.238.456a67.2,67.2,0,0,1-26.067,23.338.654.654,0,0,1-.632-.017l-34.218-20.142A.653.653,0,0,1,867.923,1621.683Z" transform="translate(-817.5 -1611.401)" fill="url(#linear-gradient-10)"/>
      <path id="Path_13836" data-name="Path 13836" d="M590.062,1879.988c-40.341,22.094-72.031,100.964-65.941,166.032-5.754,36.678,211.021,55.282,172.416-47.165-19.365-43.075-39.4-95.92-79.433-118.948Z" transform="translate(-523.368 -1840.7)" fill="url(#linear-gradient-11)"/>
      <path id="Path_13837" data-name="Path 13837" d="M882.151,1688.95a215.941,215.941,0,0,0-14.889-27.256.148.148,0,0,1,.174-.213c6.159,1.9,12.546.765,22.565-2.064a.148.148,0,0,0,.04-.018c5.665-3.65,12.14-2.411,18.886.47a.152.152,0,0,0,.03.009c7.283,1.453,9.76,2.7,19.465-1.606a.146.146,0,0,1,.185.209,136.737,136.737,0,0,0-18.227,29.694.183.183,0,0,0-.015.14C911.242,1693.518,882.768,1694.638,882.151,1688.95Z" transform="translate(-817.029 -1650.465)" fill="url(#linear-gradient-12)"/>
      <g id="Group_4889" data-name="Group 4889" transform="translate(47.925 86.411)">
        <path id="Path_13838" data-name="Path 13838" d="M878.057,2306.378l-.268-7.713a62.939,62.939,0,0,1-21.805-3.94,4.465,4.465,0,0,1-2.649-5.185l1.71-7.252a4.5,4.5,0,0,1,6-3.155,52.257,52.257,0,0,0,20.128,3.513c7.745-.269,13.429-3.1,13.242-8.478-.169-4.857-4.732-7.589-15.6-10.1-15.5-3.667-26.763-9.978-27.233-23.5-.424-12.208,8.178-21.838,23.58-24.87l-.268-7.714a4.5,4.5,0,0,1,4.338-4.65l4.532-.157a4.5,4.5,0,0,1,4.65,4.338l.241,6.926a57.38,57.38,0,0,1,17.261,2.484,4.475,4.475,0,0,1,2.982,5.3l-1.571,6.707a4.484,4.484,0,0,1-5.811,3.232,46.826,46.826,0,0,0-16.931-2.47c-9.188.319-11.681,4.217-11.562,7.63.146,4.2,5.759,6.9,17.832,10.157,17.242,4.526,24.577,11.367,25.02,24.1.406,11.682-7.892,22.485-24.6,25.694l.3,8.632a4.5,4.5,0,0,1-4.338,4.65l-4.532.158A4.5,4.5,0,0,1,878.057,2306.378Z" transform="translate(-851.573 -2203.173)" fill="url(#linear-gradient-13)"/>
      </g>
      <path id="Path_13839" data-name="Path 13839" d="M963.034,1871.841c-3.515,0-9.831-.325-13.554-2.448-2.825-1.611-2.915-3.633-2.718-4.7a1.632,1.632,0,0,1,1.886-1.192,1.477,1.477,0,0,1,1.356,1.657c-.055.295-.183.984,1.265,1.81,2.351,1.341,7.3,2.1,12.908,1.971,5.467-.122,10.512-1.074,12.853-2.425.839-.484,1.224-.937,1.145-1.348a1.474,1.474,0,0,1,1.346-1.663,1.634,1.634,0,0,1,1.893,1.182c.178.925.079,2.706-2.58,4.241-2.9,1.676-8.352,2.759-14.573,2.9C963.907,1871.835,963.495,1871.841,963.034,1871.841Z" transform="translate(-884.883 -1826.676)" fill="#7d97f4"/>
    </g>
    <g id="Group_4893" data-name="Group 4893" transform="translate(794.029 605.647)">
      <g id="Group_4891" data-name="Group 4891" transform="translate(20.54)">
        <path id="Path_13840" data-name="Path 13840" d="M3008.4,1502.028c-2.806,8.92-8.054,12.206-12.322,10.864-4.364-1.372-6.479-7.046-3.968-15.2,2.518-8.009,7.581-12.211,12.376-10.7C3009.425,1488.543,3010.794,1494.411,3008.4,1502.028Zm-17.816,28.668,31.838-38.067,3.357,1.055-31.838,38.067Zm6.115-31.847c-1.583,4.868-1.415,8.856.935,9.595s4.565-2.285,6.182-7.428c1.475-4.688,1.7-8.766-.838-9.565C3000.58,1490.7,2998.193,1494.1,2996.7,1498.85Zm27.655,27.514c-2.784,8.854-8.006,12.221-12.322,10.864s-6.478-7.046-3.9-15.249c2.5-7.943,7.581-12.211,12.329-10.719C3025.4,1512.813,3026.749,1518.746,3024.353,1526.364Zm-11.7-3.179c-1.563,4.8-1.415,8.856.934,9.6,2.4.754,4.566-2.285,6.183-7.428,1.495-4.753,1.7-8.766-.838-9.565C3016.535,1515.033,3014.148,1518.432,3012.654,1523.185Z" transform="translate(-2990.583 -1486.686)" fill="url(#linear-gradient-14)"/>
      </g>
      <g id="Group_4892" data-name="Group 4892" transform="translate(0 14.161)">
        <path id="Path_13841" data-name="Path 13841" d="M2855.226,1595.791h-5.309v-4.327h5.309v-7.8h4.118v7.8h5.31v4.327h-5.31v7.692h-4.118Z" transform="translate(-2849.917 -1583.667)" fill="url(#linear-gradient-15)"/>
      </g>
    </g>
    <g id="Group_4904" data-name="Group 4904" transform="translate(679.525 667.917)">
      <g id="Group_4899" data-name="Group 4899" transform="translate(50.32 14.955)">
        <g id="Group_4894" data-name="Group 4894" transform="translate(23.595 163.176)">
          <path id="Path_13842" data-name="Path 13842" d="M2572.569,3222.637c3.783.327,10.35.858,15.527,1.086a14.958,14.958,0,0,0,5.935-.581c0,.116,0,.226-.01.328a1.07,1.07,0,0,1-1.017,1.011,181.833,181.833,0,0,1-20.331.02.763.763,0,0,1-.621-1.146A6.245,6.245,0,0,1,2572.569,3222.637Z" transform="translate(-2571.945 -3209.553)" fill="url(#linear-gradient-16)"/>
          <path id="Path_13843" data-name="Path 13843" d="M2591.743,3179.042c-5.177-.228-11.743-.759-15.527-1.086,3.72-4.564,15.527-7.64,15.527-7.64h3.335a13.986,13.986,0,0,1,2.6,8.145A14.958,14.958,0,0,1,2591.743,3179.042Z" transform="translate(-2575.593 -3164.872)" fill="url(#linear-gradient-17)"/>
          <path id="Path_13844" data-name="Path 13844" d="M2672.849,3133.033l-.312,6.175a1.41,1.41,0,0,1-1.2,1.326,5.482,5.482,0,0,1-2.5-.207,1.668,1.668,0,0,1-1.122-1.283l-1.078-6.011Z" transform="translate(-2652.802 -3133.033)" fill="url(#linear-gradient-18)"/>
        </g>
        <g id="Group_4896" data-name="Group 4896" transform="translate(75.757 157.404)">
          <g id="Group_4895" data-name="Group 4895" transform="translate(1.469 5.731)">
            <path id="Path_13845" data-name="Path 13845" d="M2972.474,3218.105a3,3,0,0,0,2.695-1.992l.006.025a2.133,2.133,0,0,1-1.437,2.431,9.389,9.389,0,0,1-3.979.623,3.956,3.956,0,0,1-2.983-1.376l-.009-.012C2968,3218.415,2969.738,3218.487,2972.474,3218.105Z" transform="translate(-2962.746 -3203.941)" fill="url(#linear-gradient-19)"/>
            <path id="Path_13846" data-name="Path 13846" d="M2941.223,3132.758h2.75c4.189-.085,6.819,8.75,7.68,12.171a3,3,0,0,1-2.694,1.993c-2.736.382-4.472.31-5.708-.3-2.263-2.978-3.385-7.34-3.924-9.885A3.471,3.471,0,0,1,2941.223,3132.758Z" transform="translate(-2939.23 -3132.758)" fill="url(#linear-gradient-20)"/>
          </g>
          <path id="Path_13847" data-name="Path 13847" d="M2935.027,3093.51l1.527,6.073a1.648,1.648,0,0,1-.858,1.868,5.853,5.853,0,0,1-3.162.766,1.377,1.377,0,0,1-1.124-.918l-2.242-6.39Z" transform="translate(-2929.169 -3093.51)" fill="url(#linear-gradient-21)"/>
        </g>
        <path id="Path_13848" data-name="Path 13848" d="M2638.44,2600.493c-1.9,1.686-8.08,1.908-8.08,1.908-22.26-53.427-31.366-61.017-31.366-61.017,3.214,20.166.518,64.81.518,64.81-3.673,1.621-8.409,0-8.409,0a344.13,344.13,0,0,0-11.367-84.5c15.045-.338,23.046-5.487,25.659-7.553C2617.936,2534.357,2638.44,2600.493,2638.44,2600.493Z" transform="translate(-2555.004 -2441.334)" fill="url(#linear-gradient-22)"/>
        <path id="Path_13849" data-name="Path 13849" d="M2485.747,2091.228c2.848,14.2,1.827,39.628,1.157,51.224-.188,3.259,2.086,7.775,3.925,10.858a.968.968,0,0,1-.385,1.361c-3.071,1.579-13.484,6.477-25.559,7.1a1.747,1.747,0,0,1-1.78-1.289c-7.66-28.6-16.376-48.381-18.755-53.541a2.627,2.627,0,0,1,.238-2.628C2456.678,2087.428,2485.747,2091.228,2485.747,2091.228Z" transform="translate(-2439.177 -2079.865)" fill="url(#linear-gradient-23)"/>
        <path id="Path_13850" data-name="Path 13850" d="M2647.179,2640.51a.713.713,0,0,0,.608-1.083,22.362,22.362,0,0,0-8.826-7.662.713.713,0,1,0-.62,1.284,21.32,21.32,0,0,1,8.228,7.12A.714.714,0,0,0,2647.179,2640.51Z" transform="translate(-2604.708 -2541.724)" fill="url(#linear-gradient-24)"/>
        <g id="Group_4897" data-name="Group 4897" transform="translate(43.389 11.363)">
          <path id="Path_13851" data-name="Path 13851" d="M2786.823,2366.779c-.915,6.617-3.617,13.835-9.024,21.5l-2.055-1.676a63.46,63.46,0,0,0,1.024-20.55C2780.1,2365.4,2784.042,2366.075,2786.823,2366.779Z" transform="translate(-2765.78 -2326.012)" fill="url(#linear-gradient-25)"/>
          <path id="Path_13852" data-name="Path 13852" d="M2707.5,2110.9l3.181-17.527s21.252,16.245,17.863,40.767c-2.781-.7-6.72-1.374-10.055-.724C2717.521,2125.543,2714.619,2117,2707.5,2110.9Z" transform="translate(-2707.505 -2093.369)" fill="url(#linear-gradient-26)"/>
        </g>
        <g id="Group_4898" data-name="Group 4898" transform="translate(0 27.338)">
          <path id="Path_13853" data-name="Path 13853" d="M2446.971,2202.769l19.615,21.428c3.607,10.125.561,16.819-4.164,21.175a37.489,37.489,0,0,0-7.63-9.041C2458.182,2225.5,2446.971,2202.769,2446.971,2202.769Z" transform="translate(-2441.625 -2202.769)" fill="url(#linear-gradient-27)"/>
          <path id="Path_13854" data-name="Path 13854" d="M2423.528,2432.621a37.494,37.494,0,0,1,7.63,9.041c-11.852,13.119-20.263,8.507-20.263,8.507l-.438-1.974a3.96,3.96,0,0,1,2.021-4.385C2417.808,2441.067,2422.291,2436.569,2423.528,2432.621Z" transform="translate(-2410.361 -2399.058)" fill="url(#linear-gradient-28)"/>
        </g>
        <path id="Path_13855" data-name="Path 13855" d="M2493.243,2019.475l3.96,14.558a2.833,2.833,0,0,0,3.788,1.885,57.55,57.55,0,0,0,5.708-2.607,3.816,3.816,0,0,0,1.346-5.485l-8.233-12.277Z" transform="translate(-2481.141 -2015.549)" fill="url(#linear-gradient-29)"/>
      </g>
      <g id="Group_4900" data-name="Group 4900" transform="translate(49.643 0)">
        <path id="Path_13856" data-name="Path 13856" d="M2433.906,1953.021c-.036.25,3.3,16.614,3.3,16.614l9.3-2.105-.861-15.979S2434.51,1948.835,2433.906,1953.021Z" transform="translate(-2429.792 -1945.2)" fill="url(#linear-gradient-30)"/>
        <path id="Path_13857" data-name="Path 13857" d="M2419.495,1923.041l1.112,8.376a1.167,1.167,0,0,1,0,.321c-.094.657-.582,2.892-2.839,2.253-2.047-.58-3.925-1.079-5.221-.682a1.179,1.179,0,0,0-.812,1.364,51.008,51.008,0,0,0,2.141,7.624,1.177,1.177,0,0,0,1.429.7,38.032,38.032,0,0,0,8.2-3.355,1.181,1.181,0,0,0,.575-1.062c-.089-2.115-.337-8.542-.128-10.344.2-1.691,2.271-2.7,3.173-3.068a1.159,1.159,0,0,0,.645-.648c.418-1.046.993-3.468-2.058-4.46a1.182,1.182,0,0,1-.749-1.528,3.065,3.065,0,0,0-1.718-4.237,4.324,4.324,0,0,0-5.159,1.244,1.181,1.181,0,0,1-1.5.178.934.934,0,0,0-1.063.036,1.163,1.163,0,0,1-1.646-.5,3.525,3.525,0,0,0-4.1-2.041c-4.169.714-4.641,5.333-3.541,8.04s5.575,1.676,7.82.311c1.707-1.037,3.922.05,4.885.631A1.17,1.17,0,0,1,2419.495,1923.041Z" transform="translate(-2405.727 -1913.132)" fill="url(#linear-gradient-31)"/>
        <path id="Path_13858" data-name="Path 13858" d="M2528.723,1999.322s-1.714-4.8.047-5.974,4.368-.565,3.794,2.911C2531.85,2000.583,2528.723,1999.322,2528.723,1999.322Z" transform="translate(-2510.124 -1981.168)" fill="url(#linear-gradient-32)"/>
      </g>
      <g id="Group_4903" data-name="Group 4903" transform="translate(0 19.212)">
        <g id="Group_4902" data-name="Group 4902">
          <path id="Path_13859" data-name="Path 13859" d="M2405.681,2045.759l-127.273,89.121,13.043,18.781,128.428-88.237a6.824,6.824,0,0,0,2.346-8.446c-1.4-3.1-4.2-7.089-9.741-11.154A5.845,5.845,0,0,0,2405.681,2045.759Z" transform="translate(-2247.356 -2044.699)" fill="url(#linear-gradient-33)"/>
          <g id="Group_4901" data-name="Group 4901" transform="translate(0 90.181)">
            <path id="Path_13860" data-name="Path 13860" d="M2066.024,2805.011l13.743-15.04c2.256,1.631,4.662,4.46,6.24,9.368l-18.866,7.305A1.016,1.016,0,0,1,2066.024,2805.011Z" transform="translate(-2065.752 -2771.327)" fill="url(#linear-gradient-34)"/>
            <path id="Path_13861" data-name="Path 13861" d="M2178.772,2662.29a28.172,28.172,0,0,1,13.043,18.781l-23.84,9.231c-1.578-4.908-3.984-7.737-6.24-9.368Z" transform="translate(-2147.72 -2662.29)" fill="url(#linear-gradient-35)"/>
          </g>
        </g>
        <path id="Path_13862" data-name="Path 13862" d="M2464.427,2084.3a.43.43,0,0,0-.6-.6l-121.51,85.447a.43.43,0,1,0,.495.7l121.509-85.447A.429.429,0,0,0,2464.427,2084.3Z" transform="translate(-2301.779 -2077.94)" fill="#7d97f4"/>
        <path id="Path_13863" data-name="Path 13863" d="M2501.941,2131.29a.43.43,0,0,0-.6-.6l-121.51,85.447a.43.43,0,0,0,.495.7l121.51-85.447A.434.434,0,0,0,2501.941,2131.29Z" transform="translate(-2333.814 -2118.065)" fill="#7d97f4"/>
      </g>
      <path id="Path_13864" data-name="Path 13864" d="M2701.145,2501.762l-9.593-.782-4.155,3.83s.983,1.359,4.056.577a44.017,44.017,0,0,1,7.282-.972s4.242,1.912,4.294-1.666Z" transform="translate(-2596.624 -2415.142)" fill="url(#linear-gradient-36)"/>
      <path id="Path_13865" data-name="Path 13865" d="M2398.525,2526.25c-.83.648-3.672-.705-5.412-1.641a2,2,0,0,1-.967-2.365c.418-1.32,1.116-3.024,1.975-3.239C2395.548,2518.65,2401.944,2523.579,2398.525,2526.25Z" transform="translate(-2344.407 -2430.521)" fill="url(#linear-gradient-37)"/>
    </g>
  </g>
</svg>
