<svg xmlns="http://www.w3.org/2000/svg" width="350.279" height="356.999" viewBox="0 0 350.279 356.999">
  <g id="Group_3714" data-name="Group 3714" transform="translate(0.002)">
    <rect id="Rectangle_1915" data-name="Rectangle 1915" width="350.279" height="356.998" transform="translate(-0.002)" fill="#c6e2ed"/>
    <g id="Group_3664" data-name="Group 3664" transform="translate(230.437 74.081)">
      <path id="Path_12910" data-name="Path 12910" d="M1493.578,470.574a1.744,1.744,0,1,0,1.711,1.743A1.726,1.726,0,0,0,1493.578,470.574Z" transform="translate(-1491.868 -470.574)" fill="#e6e6e7"/>
      <path id="Path_12911" data-name="Path 12911" d="M1497.806,475.574a.956.956,0,1,0,.937.956A.948.948,0,0,0,1497.806,475.574Z" transform="translate(-1496.096 -474.787)" fill="#4b4b70"/>
    </g>
    <rect id="Rectangle_1916" data-name="Rectangle 1916" width="350.279" height="11.974" transform="translate(-0.002 296.301)" fill="#a0cfe6"/>
    <rect id="Rectangle_1917" data-name="Rectangle 1917" width="350.279" height="48.723" transform="translate(-0.002 308.276)" fill="#629abf"/>
    <g id="Group_3665" data-name="Group 3665" transform="translate(209.639 21.513)">
      <rect id="Rectangle_1918" data-name="Rectangle 1918" width="45.015" height="45.878" fill="#8bb8dc"/>
      <rect id="Rectangle_1919" data-name="Rectangle 1919" width="38.782" height="39.526" transform="translate(3.117 3.176)" fill="#f0f1f1"/>
    </g>
    <rect id="Rectangle_1920" data-name="Rectangle 1920" width="66.065" height="100.404" transform="translate(263.387 21.513)" fill="#8bb8dc"/>
    <rect id="Rectangle_1921" data-name="Rectangle 1921" width="59.814" height="94.42" transform="translate(266.513 24.548)" fill="#f0f1f1"/>
    <g id="Group_3666" data-name="Group 3666" transform="translate(209.659 76.826)">
      <rect id="Rectangle_1922" data-name="Rectangle 1922" width="44.977" height="45.841" fill="#8bb8dc"/>
      <rect id="Rectangle_1923" data-name="Rectangle 1923" width="38.748" height="39.494" transform="translate(3.114 3.174)" fill="#f0f1f1"/>
    </g>
    <path id="Path_12912" data-name="Path 12912" d="M1814.054,220.676c-10.592,0-19.179,2.577-19.179,5.756s8.587,5.755,19.179,5.755,19.18-2.577,19.18-5.755S1824.648,220.676,1814.054,220.676Z" transform="translate(-1517.635 -185.936)" fill="#c3dfed"/>
    <g id="Group_3667" data-name="Group 3667" transform="translate(270.535 57.721)">
      <rect id="Rectangle_1924" data-name="Rectangle 1924" width="23.169" height="1.799" fill="#c3dfed"/>
      <rect id="Rectangle_1925" data-name="Rectangle 1925" width="23.169" height="1.8" transform="translate(0 3.823)" fill="#c3dfed"/>
      <rect id="Rectangle_1926" data-name="Rectangle 1926" width="23.169" height="1.799" transform="translate(0 7.646)" fill="#c3dfed"/>
      <rect id="Rectangle_1927" data-name="Rectangle 1927" width="23.169" height="1.799" transform="translate(0 11.47)" fill="#c3dfed"/>
      <rect id="Rectangle_1928" data-name="Rectangle 1928" width="23.169" height="1.799" transform="translate(0 15.293)" fill="#c3dfed"/>
      <rect id="Rectangle_1929" data-name="Rectangle 1929" width="23.169" height="1.799" transform="translate(0 19.116)" fill="#c3dfed"/>
    </g>
    <g id="Group_3668" data-name="Group 3668" transform="translate(270.535 84.821)">
      <rect id="Rectangle_1930" data-name="Rectangle 1930" width="23.169" height="1.799" fill="#c3dfed"/>
      <rect id="Rectangle_1931" data-name="Rectangle 1931" width="23.169" height="1.799" transform="translate(0 3.823)" fill="#c3dfed"/>
      <rect id="Rectangle_1932" data-name="Rectangle 1932" width="23.169" height="1.799" transform="translate(0 7.646)" fill="#c3dfed"/>
      <rect id="Rectangle_1933" data-name="Rectangle 1933" width="23.169" height="1.799" transform="translate(0 11.47)" fill="#c3dfed"/>
      <rect id="Rectangle_1934" data-name="Rectangle 1934" width="23.169" height="1.799" transform="translate(0 15.293)" fill="#c3dfed"/>
      <rect id="Rectangle_1935" data-name="Rectangle 1935" width="23.169" height="1.799" transform="translate(0 19.116)" fill="#c3dfed"/>
    </g>
    <g id="Group_3669" data-name="Group 3669" transform="translate(299.662 57.721)">
      <rect id="Rectangle_1936" data-name="Rectangle 1936" width="23.169" height="1.799" fill="#c3dfed"/>
      <rect id="Rectangle_1937" data-name="Rectangle 1937" width="23.169" height="1.8" transform="translate(0 3.823)" fill="#c3dfed"/>
      <rect id="Rectangle_1938" data-name="Rectangle 1938" width="23.169" height="1.799" transform="translate(0 7.646)" fill="#c3dfed"/>
      <rect id="Rectangle_1939" data-name="Rectangle 1939" width="23.169" height="1.799" transform="translate(0 11.47)" fill="#c3dfed"/>
      <rect id="Rectangle_1940" data-name="Rectangle 1940" width="23.169" height="1.799" transform="translate(0 15.293)" fill="#c3dfed"/>
      <rect id="Rectangle_1941" data-name="Rectangle 1941" width="23.169" height="1.799" transform="translate(0 19.116)" fill="#c3dfed"/>
    </g>
    <g id="Group_3670" data-name="Group 3670" transform="translate(302.861 84.529)">
      <path id="Path_12913" data-name="Path 12913" d="M1976.783,614.177l6.349-3.748,6.35,3.748V594.085h-12.7Z" transform="translate(-1974.306 -585.089)" fill="#8bb8dc"/>
      <path id="Path_12914" data-name="Path 12914" d="M1969.572,536.942a9,9,0,1,0,8.826,9A8.913,8.913,0,0,0,1969.572,536.942Z" transform="translate(-1960.746 -536.942)" fill="#a0cfe6"/>
      <path id="Path_12915" data-name="Path 12915" d="M1983.132,552.984a6.472,6.472,0,1,0,6.35,6.47A6.41,6.41,0,0,0,1983.132,552.984Z" transform="translate(-1974.306 -550.459)" fill="#8bb8dc"/>
    </g>
    <path id="Path_12916" data-name="Path 12916" d="M1444.028,185.116c-3.336-1.509-4.321.473-4.861-.006-1.261-1.119-.186-1.8.787-3.606.49-.91,1.564-1.7,1.281-2.11a7.2,7.2,0,0,0-1.3-1.2l-2.518,3.094a17.736,17.736,0,0,0-3.879,10.191c-.2,6-2.662,7.291-5.859,10.325a9.975,9.975,0,0,0-2.886,8.55c.124,1.181,2.466.216,2.466.216s-1.458-3.814,1.057-5.7,6.816,4.473,13.028.607C1448.281,201.151,1451.72,188.6,1444.028,185.116Z" transform="translate(-1204.649 -150.142)" fill="#a0cfe6"/>
    <path id="Path_12917" data-name="Path 12917" d="M1509.466,304.749a2.4,2.4,0,1,0,2.354,2.4A2.376,2.376,0,0,0,1509.466,304.749Z" transform="translate(-1274.321 -256.773)" fill="#8bb8dc"/>
    <path id="Path_12918" data-name="Path 12918" d="M1480.8,319.983a1.275,1.275,0,1,0,1.251,1.274A1.263,1.263,0,0,0,1480.8,319.983Z" transform="translate(-1251.012 -269.609)" fill="#8bb8dc"/>
    <path id="Path_12919" data-name="Path 12919" d="M1498.048,282.378a1.274,1.274,0,1,0,1.322,1.2A1.265,1.265,0,0,0,1498.048,282.378Z" transform="translate(-1265.661 -237.922)" fill="#8bb8dc"/>
    <path id="Path_12920" data-name="Path 12920" d="M1523.267,270.3a.937.937,0,1,0,.92.936A.929.929,0,0,0,1523.267,270.3Z" transform="translate(-1287.202 -227.748)" fill="#8bb8dc"/>
    <path id="Path_12921" data-name="Path 12921" d="M1511.359,251.282a.937.937,0,1,0,.919.937A.929.929,0,0,0,1511.359,251.282Z" transform="translate(-1277.133 -211.724)" fill="#8bb8dc"/>
    <g id="Group_3672" data-name="Group 3672" transform="translate(216.621 87.782)">
      <path id="Path_12922" data-name="Path 12922" d="M1459.047,611.817c-2.493-1.509-.742,1.51-.742,1.51s1.753,2.264,1.753,3.843-2.289,1.031-2.627.687-.4,1.991-.4,1.991,1.885-.409,3.03-.685,1.685,9.605,2.02,10.774,1.818,0,1.818,0S1461.539,613.326,1459.047,611.817Z" transform="translate(-1448.593 -602.927)" fill="#a0cfe6"/>
      <path id="Path_12923" data-name="Path 12923" d="M1414.563,559.938c-.763-2.3-6.278-4.049-9.506.522s-3.631,13.635-.414,17.462,5.953,3.95,8.147,2.525c2.991-1.936-.721-5.122-.4-10.528S1415.943,564.074,1414.563,559.938Z" transform="translate(-1402.422 -557.604)" fill="#8bb8dc"/>
      <g id="Group_3671" data-name="Group 3671" transform="translate(15.75)">
        <path id="Path_12924" data-name="Path 12924" d="M1510.851,617.857c-.338.344-2.627.892-2.627-.687s1.752-3.843,1.752-3.843,1.75-3.018-.742-1.51-4.848,18.119-4.848,18.119,1.481,1.168,1.818,0,.876-11.049,2.02-10.774,3.029.685,3.029.685S1511.189,617.514,1510.851,617.857Z" transform="translate(-1504.386 -602.927)" fill="#a0cfe6"/>
        <path id="Path_12925" data-name="Path 12925" d="M1522.991,559.938c-1.379,4.136,1.856,4.573,2.173,9.982s-3.391,8.592-.4,10.528c2.2,1.424,4.93,1.3,8.147-2.525s2.817-12.89-.414-17.462S1523.754,557.642,1522.991,559.938Z" transform="translate(-1519.829 -557.604)" fill="#8bb8dc"/>
      </g>
    </g>
    <g id="Group_3682" data-name="Group 3682" transform="translate(17.289 128.746)">
      <g id="Group_3674" data-name="Group 3674" transform="translate(126.703 16.003)">
        <g id="Group_3673" data-name="Group 3673" transform="translate(3.3 113.42)">
          <rect id="Rectangle_1942" data-name="Rectangle 1942" width="9.833" height="9.134" transform="translate(30.613)" fill="#78abce"/>
          <rect id="Rectangle_1943" data-name="Rectangle 1943" width="9.833" height="4.566" transform="translate(30.613 34.859)" fill="#78abce"/>
          <rect id="Rectangle_1944" data-name="Rectangle 1944" width="6.86" height="25.724" transform="translate(32.099 9.134)" fill="#8bb8dc"/>
          <rect id="Rectangle_1945" data-name="Rectangle 1945" width="61.789" height="5.068" transform="translate(4.634 39.237)" fill="#78abce"/>
          <path id="Path_12926" data-name="Path 12926" d="M958.215,1898.214a4.724,4.724,0,1,0,4.632,4.725A4.681,4.681,0,0,0,958.215,1898.214Z" transform="translate(-953.579 -1857.554)" fill="#629abf"/>
          <path id="Path_12927" data-name="Path 12927" d="M1358.241,1898.214a4.724,4.724,0,1,0,4.633,4.725A4.68,4.68,0,0,0,1358.241,1898.214Z" transform="translate(-1291.817 -1857.554)" fill="#629abf"/>
        </g>
        <path id="Path_12928" data-name="Path 12928" d="M985.949,919.47c-16.409,0-36.678,9.524-36.678,24.968s10.617,72.112,10.617,72.112l54.051.753s7.721-57.486,7.721-71.48C1021.661,928.994,1002.357,919.47,985.949,919.47Z" transform="translate(-946.637 -919.47)" fill="#78abce"/>
        <path id="Path_12929" data-name="Path 12929" d="M970.826,1500.088c-21.323,0-38.609,0-38.609,11.795,0,6.514,17.286,11.793,38.609,11.793s38.608-5.279,38.608-11.793C1009.433,1500.088,992.149,1500.088,970.826,1500.088Z" transform="translate(-932.217 -1408.683)" fill="#8bb8dc"/>
      </g>
      <rect id="Rectangle_1946" data-name="Rectangle 1946" width="103.276" height="104.237" transform="translate(14.477 75.293)" fill="#8bb8dc"/>
      <rect id="Rectangle_1947" data-name="Rectangle 1947" width="25.095" height="104.237" transform="translate(213.309 75.293)" fill="#8bb8dc"/>
      <g id="Group_3679" data-name="Group 3679" transform="translate(222.345 24.357)">
        <g id="Group_3675" data-name="Group 3675" transform="translate(11.249)">
          <path id="Path_12930" data-name="Path 12930" d="M1627.329,1220.444l.278.481.327-.415.131-1.253-.607-.064Z" transform="translate(-1626.851 -1180.363)" fill="#f0f1f1"/>
          <path id="Path_12931" data-name="Path 12931" d="M1625.927,1213.707l1.074.117.41-1.666-1.538-.183Z" transform="translate(-1625.621 -1174.282)" fill="#be1e2c"/>
          <path id="Path_12932" data-name="Path 12932" d="M1629.27,972.568l-.178-.02a1.541,1.541,0,0,0-1.687,1.391l-2.805,27.01c-.083.792-.579,9.41-.255,9.709a2.81,2.81,0,0,0,1.7.141c.266-.183,1.724-8.956,1.78-9.5l2.806-27.01A1.557,1.557,0,0,0,1629.27,972.568Z" transform="translate(-1624.236 -972.539)" fill="#8bb8dc"/>
          <path id="Path_12933" data-name="Path 12933" d="M1627.4,973.939l-2.805,27.01c-.083.792-.579,9.41-.255,9.709a2.252,2.252,0,0,0,.85.2l3.978-38.3-.081-.009A1.541,1.541,0,0,0,1627.4,973.939Z" transform="translate(-1624.236 -972.539)" fill="#a0cfe6"/>
          <path id="Path_12934" data-name="Path 12934" d="M1644.454,985.518l-3.383-.366a.3.3,0,0,0-.357.211c-.015.135-.1.237.085.257l3.6.388a.3.3,0,0,0,.357-.209C1644.773,985.662,1644.636,985.537,1644.454,985.518Z" transform="translate(-1638.142 -983.165)" fill="#78abce"/>
          <path id="Path_12935" data-name="Path 12935" d="M1634.167,986.042c-.043.433-.919,10.277-.853,10.523s.533-.181.578-.613a1.524,1.524,0,0,0-.135-.731c.023,0,.883-9.406.883-9.406l.215-.692S1634.281,984.942,1634.167,986.042Z" transform="translate(-1631.908 -983.132)" fill="#78abce"/>
        </g>
        <g id="Group_3677" data-name="Group 3677" transform="translate(0 2.989)">
          <g id="Group_3676" data-name="Group 3676">
            <path id="Path_12936" data-name="Path 12936" d="M1553.759,991.724a.294.294,0,0,0-.379-.182l-1.776.647a.306.306,0,0,0-.178.389l.611,1.74a.3.3,0,0,0,.38.181l1.775-.647a.306.306,0,0,0,.18-.386Z" transform="translate(-1551.409 -991.523)" fill="#8bb8dc"/>
            <path id="Path_12937" data-name="Path 12937" d="M1631.6,1213.318l.009-3.6-2.358.861Z" transform="translate(-1617.228 -1175.371)" fill="#f7cf9c"/>
            <path id="Path_12938" data-name="Path 12938" d="M1640.2,1226.475l.045-1.14-.822.3Z" transform="translate(-1625.831 -1188.527)" fill="#221f1f"/>
            <path id="Path_13421" data-name="Path 13421" d="M0,0,2.509-.015,2.3,34.383-.206,34.4Z" transform="translate(0.615 2.759) rotate(-19.713)" fill="#a0cfe6"/>
            <path id="Path_12939" data-name="Path 12939" d="M1553.992,1000.508l.216.619,2.357-.86-.218-.62Z" transform="translate(-1553.593 -998.369)" fill="#f0f1f1"/>
            <path id="Path_13422" data-name="Path 13422" d="M0,0,1.266-.008,1.06,34.39-.206,34.4Z" transform="translate(1.783 2.332) rotate(-19.713)" fill="#8bb8dc"/>
          </g>
        </g>
        <g id="Group_3678" data-name="Group 3678" transform="translate(2.883 18.993)">
          <rect id="Rectangle_1950" data-name="Rectangle 1950" width="17.636" height="23.119" fill="#8bb8dc"/>
          <rect id="Rectangle_1951" data-name="Rectangle 1951" width="8.818" height="23.119" transform="translate(8.818)" fill="#78abce"/>
        </g>
      </g>
      <g id="Group_3681" data-name="Group 3681" transform="translate(25.152)">
        <g id="Group_3680" data-name="Group 3680">
          <path id="Path_12940" data-name="Path 12940" d="M278.687,817.818a3.946,3.946,0,0,0-3.91,3.985v42.184a3.943,3.943,0,0,0,3.9,3.984h50.044l-29.707-50.153Z" transform="translate(-274.777 -817.818)" fill="#78abce"/>
          <path id="Path_12941" data-name="Path 12941" d="M476.617,817.818h-44.9l29.706,50.153h15.193a3.945,3.945,0,0,0,3.907-3.984v-7.56h0V821.8A3.945,3.945,0,0,0,476.617,817.818Z" transform="translate(-407.473 -817.818)" fill="#81b2d3"/>
        </g>
        <path id="Path_12942" data-name="Path 12942" d="M473.125,1017.564a6.768,6.768,0,0,0-6.7,6.831v22.131c0,3.775,3,4.521,6.7,4.521s6.7-.746,6.7-4.521V1024.4A6.768,6.768,0,0,0,473.125,1017.564Z" transform="translate(-436.822 -986.119)" fill="#8bb8dc"/>
        <path id="Path_12943" data-name="Path 12943" d="M429.1,1189.7H399.275a2.842,2.842,0,0,0-2.817,2.867v5.059h35.461v-5.057A2.843,2.843,0,0,0,429.1,1189.7Z" transform="translate(-377.663 -1131.155)" fill="#78abce"/>
      </g>
      <rect id="Rectangle_1952" data-name="Rectangle 1952" width="252.883" height="8.822" transform="translate(0 66.47)" fill="#a0cfe6"/>
    </g>
    <g id="Group_3688" data-name="Group 3688" transform="translate(17.289 24.211)">
      <rect id="Rectangle_1953" data-name="Rectangle 1953" width="29.128" height="10.795" transform="translate(97.532 57.573)" fill="#8bb8dc"/>
      <rect id="Rectangle_1954" data-name="Rectangle 1954" width="29.127" height="10.795" transform="translate(15.888 57.573)" fill="#8bb8dc"/>
      <g id="Group_3683" data-name="Group 3683" transform="translate(112.979 20.916)">
        <rect id="Rectangle_1955" data-name="Rectangle 1955" width="9.488" height="30.06" fill="#a0cfe6"/>
        <rect id="Rectangle_1956" data-name="Rectangle 1956" width="9.488" height="3.823" fill="#8bb8dc"/>
        <rect id="Rectangle_1957" data-name="Rectangle 1957" width="9.488" height="2.923" transform="translate(0 27.137)" fill="#8bb8dc"/>
      </g>
      <rect id="Rectangle_1958" data-name="Rectangle 1958" width="10.592" height="38.83" transform="translate(102.387 12.145)" fill="#78abce"/>
      <rect id="Rectangle_1959" data-name="Rectangle 1959" width="4.855" height="27.325" transform="translate(105.256 16.417)" fill="#8bb8dc"/>
      <rect id="Rectangle_1960" data-name="Rectangle 1960" width="8.091" height="32.834" transform="translate(94.296 18.141)" fill="#8bb8dc"/>
      <g id="Group_3684" data-name="Group 3684" transform="translate(54.716)">
        <rect id="Rectangle_1961" data-name="Rectangle 1961" width="14.564" height="50.975" transform="translate(0)" fill="#8bb8dc"/>
        <path id="Path_12944" data-name="Path 12944" d="M479.5,190.94v24.438h10.445V190.94l-5.222,3.3Z" transform="translate(-477.442 -185.092)" fill="#fff"/>
        <path id="Path_12945" data-name="Path 12945" d="M492.182,367.375a3.935,3.935,0,1,0,3.862,3.934A3.9,3.9,0,0,0,492.182,367.375Z" transform="translate(-484.9 -333.752)" fill="#c3dfed"/>
        <path id="Path_12946" data-name="Path 12946" d="M496.259,372.2a3.176,3.176,0,1,0,3.114,3.175A3.146,3.146,0,0,0,496.259,372.2Z" transform="translate(-488.977 -337.814)" fill="#629abf"/>
      </g>
      <g id="Group_3685" data-name="Group 3685" transform="translate(40.152)">
        <rect id="Rectangle_1962" data-name="Rectangle 1962" width="14.564" height="50.975" fill="#78abce"/>
        <path id="Path_12947" data-name="Path 12947" d="M385.219,190.94v24.438h10.445V190.94l-5.222,3.3Z" transform="translate(-383.16 -185.092)" fill="#fff"/>
        <path id="Path_12948" data-name="Path 12948" d="M397.893,367.375a3.935,3.935,0,1,0,3.862,3.934A3.9,3.9,0,0,0,397.893,367.375Z" transform="translate(-390.611 -333.752)" fill="#c3dfed"/>
        <path id="Path_12949" data-name="Path 12949" d="M401.976,372.2a3.176,3.176,0,1,0,3.115,3.175A3.146,3.146,0,0,0,401.976,372.2Z" transform="translate(-394.694 -337.814)" fill="#629abf"/>
      </g>
      <g id="Group_3686" data-name="Group 3686" transform="translate(25.588)">
        <rect id="Rectangle_1963" data-name="Rectangle 1963" width="14.564" height="50.975" fill="#8bb8dc"/>
        <path id="Path_12950" data-name="Path 12950" d="M290.93,190.94v24.438h10.445V190.94l-5.222,3.3Z" transform="translate(-288.871 -185.092)" fill="#fff"/>
        <path id="Path_12951" data-name="Path 12951" d="M303.608,367.375a3.935,3.935,0,1,0,3.862,3.934A3.9,3.9,0,0,0,303.608,367.375Z" transform="translate(-296.326 -333.752)" fill="#c3dfed"/>
        <path id="Path_12952" data-name="Path 12952" d="M307.688,372.2a3.176,3.176,0,1,0,3.115,3.175A3.146,3.146,0,0,0,307.688,372.2Z" transform="translate(-300.405 -337.814)" fill="#629abf"/>
      </g>
      <g id="Group_3687" data-name="Group 3687" transform="translate(11.024)">
        <rect id="Rectangle_1964" data-name="Rectangle 1964" width="14.564" height="50.975" fill="#78abce"/>
        <path id="Path_12953" data-name="Path 12953" d="M196.645,190.94v24.438H207.09V190.94l-5.223,3.3Z" transform="translate(-194.586 -185.092)" fill="#fff"/>
        <path id="Path_12954" data-name="Path 12954" d="M209.319,367.375a3.935,3.935,0,1,0,3.862,3.934A3.9,3.9,0,0,0,209.319,367.375Z" transform="translate(-202.037 -333.752)" fill="#c3dfed"/>
        <path id="Path_12955" data-name="Path 12955" d="M213.4,372.2a3.176,3.176,0,1,0,3.115,3.175A3.146,3.146,0,0,0,213.4,372.2Z" transform="translate(-206.12 -337.814)" fill="#629abf"/>
      </g>
      <path id="Path_13423" data-name="Path 13423" d="M0,0,30.019-.147l-.026,5.261L-.026,5.261Z" transform="matrix(0.269, -0.963, 0.963, 0.269, 81.307, 49.534)" fill="#78abce"/>
      <rect id="Rectangle_1966" data-name="Rectangle 1966" width="140.487" height="6.598" transform="translate(0 50.975)" fill="#fff"/>
    </g>
    <g id="Group_3689" data-name="Group 3689" transform="translate(291.439 145.393)">
      <rect id="Rectangle_1967" data-name="Rectangle 1967" width="58.839" height="6.481" fill="#629abf"/>
      <rect id="Rectangle_1968" data-name="Rectangle 1968" width="53.365" height="155.858" transform="translate(5.473 6.481)" fill="#f0f1f1"/>
      <rect id="Rectangle_1969" data-name="Rectangle 1969" width="47.255" height="22.762" transform="translate(11.584 13.313)" fill="#a0cfe6"/>
      <rect id="Rectangle_1970" data-name="Rectangle 1970" width="47.255" height="22.762" transform="translate(11.584 40.369)" fill="#a0cfe6"/>
      <rect id="Rectangle_1971" data-name="Rectangle 1971" width="47.255" height="22.762" transform="translate(11.584 67.426)" fill="#a0cfe6"/>
      <rect id="Rectangle_1972" data-name="Rectangle 1972" width="47.255" height="22.762" transform="translate(11.584 94.482)" fill="#a0cfe6"/>
      <rect id="Rectangle_1973" data-name="Rectangle 1973" width="47.255" height="22.761" transform="translate(11.584 121.539)" fill="#a0cfe6"/>
    </g>
    <g id="Group_3713" data-name="Group 3713" transform="translate(93.284 22.598)">
      <g id="Group_3693" data-name="Group 3693" transform="translate(0 126.891)">
        <g id="Group_3690" data-name="Group 3690" transform="translate(0 12.522)">
          <path id="Path_12956" data-name="Path 12956" d="M808.905,1755.8l-2.844.128A2.787,2.787,0,0,0,808.905,1755.8Z" transform="translate(-774.84 -1641.399)" fill="#fff"/>
          <path id="Path_12957" data-name="Path 12957" d="M623.833,1043.6c-22.059,4.831-18.914,47.406-19.9,86.617l3.473,14.687,27.749-1.256c-1.956-1.142-3.994-5.616-2.754-20.351,2.154-25.617,1.526-35.849,1.526-35.849l25.156-58.325S632.23,1041.764,623.833,1043.6Z" transform="translate(-603.934 -1029.123)" fill="#fff"/>
        </g>
        <path id="Path_12958" data-name="Path 12958" d="M775.533,1436.966l3.047-.735-.609-39.666Z" transform="translate(-749.027 -1326.198)" fill="#e6e6e7"/>
        <path id="Path_12959" data-name="Path 12959" d="M857.381,2155.878l-.1,16.56H898.3l.557-17.8Z" transform="translate(-818.145 -1964.929)" fill="#343444"/>
        <path id="Path_12960" data-name="Path 12960" d="M1158.012,2162.523l.518,16.56h41.049l-.1-15.315Z" transform="translate(-1072.428 -1971.574)" fill="#343444"/>
        <g id="Group_3691" data-name="Group 3691" transform="translate(107.557 12.522)">
          <path id="Path_12961" data-name="Path 12961" d="M1477.227,1755.852l-.988-.056S1476.788,1756.824,1477.227,1755.852Z" transform="translate(-1449.057 -1641.399)" fill="#f0f1f1"/>
          <path id="Path_12962" data-name="Path 12962" d="M1335.513,1043.6c-8.4-1.837-35.251-14.478-35.251-14.478l25.157,58.325s.592,10.233,2.747,35.849c1.216,14.437.832,19.024.265,20.278l23.508,1.328,3.47-14.687C1354.424,1091.007,1357.568,1048.432,1335.513,1043.6Z" transform="translate(-1300.262 -1029.123)" fill="#f0f1f1"/>
        </g>
        <path id="Path_12963" data-name="Path 12963" d="M819.818,1050.519l-36.722,14.07-.041,135.281,107.232.039.048-135.283-34.659-18.967Z" transform="translate(-755.388 -1030.534)" fill="#d34a4a"/>
        <path id="Path_12964" data-name="Path 12964" d="M1075.767,1181.127l-5.619,80.458,10.209,18.217,10.554-17.413-6.813-81.26Z" transform="translate(-998.135 -1144.675)" fill="#3d3d77"/>
        <path id="Path_12965" data-name="Path 12965" d="M1070.091,1064.305s-8.325.173-10.353,3.978c-4.484,8.408,6.3,15.613,6.3,15.613h8.325s8.921-6.53,6.4-12.849C1078.732,1065.955,1070.091,1064.305,1070.091,1064.305Z" transform="translate(-988.411 -1046.245)" fill="#262260"/>
        <g id="Group_3692" data-name="Group 3692" transform="translate(53.622)">
          <path id="Path_12966" data-name="Path 12966" d="M951.083,964.546l12.877,18.129L979.6,966.969l-26.162-17.388Z" transform="translate(-951.083 -949.581)" fill="#ea5e5e"/>
          <path id="Path_12967" data-name="Path 12967" d="M1129.675,967.068l15.643,15.72,11.709-16.918-1.177-16.166Z" transform="translate(-1102.089 -949.685)" fill="#ea5e5e"/>
        </g>
        <path id="Path_12968" data-name="Path 12968" d="M777.97,1037.036l-26.6,12.238-5.213,32.733s-1.943,93.364-2.6,148.77h61.53l1.738-84.989Z" transform="translate(-721.995 -1023.268)" fill="#fff"/>
        <path id="Path_12969" data-name="Path 12969" d="M877.27,1003.767l-6.935,29.091,11.213,11.211-1.023,8.8,33.5,59.651L883.678,997.557Z" transform="translate(-829.186 -990.004)" fill="#f0f1f1"/>
        <path id="Path_12970" data-name="Path 12970" d="M819.528,1995.54l23.84.007v-3.2l-23.84-.01Z" transform="translate(-786.227 -1828.178)" fill="#d0d2d3"/>
        <path id="Path_12971" data-name="Path 12971" d="M1165.778,1049.406l-26.6-12.251-28.926,108.734.045,84.989h63.205c-.631-55.412-2.539-148.731-2.539-148.731Z" transform="translate(-1032.047 -1023.369)" fill="#f0f1f1"/>
        <path id="Path_12972" data-name="Path 12972" d="M1147.077,1003.9l-6.4-6.216-30.422,114.947L1147.322,1053l-4.55-8.805,11.217-11.2Z" transform="translate(-1032.047 -990.111)" fill="#fff"/>
        <path id="Path_12973" data-name="Path 12973" d="M1141.675,1801.614a2.4,2.4,0,1,0,2.351,2.4A2.381,2.381,0,0,0,1141.675,1801.614Z" transform="translate(-1056.617 -1667.481)" fill="#d0d2d3"/>
        <path id="Path_12974" data-name="Path 12974" d="M1141.624,1961.829a2.4,2.4,0,1,0,2.358,2.4A2.378,2.378,0,0,0,1141.624,1961.829Z" transform="translate(-1056.577 -1802.474)" fill="#d0d2d3"/>
        <path id="Path_12975" data-name="Path 12975" d="M1142.59,2132.021a2.4,2.4,0,1,0,2.349,2.4A2.39,2.39,0,0,0,1142.59,2132.021Z" transform="translate(-1057.388 -1945.874)" fill="#d0d2d3"/>
        <path id="Path_12976" data-name="Path 12976" d="M1284.856,1995.714l23.838.013,0-3.211-23.841,0Z" transform="translate(-1179.679 -1828.329)" fill="#d0d2d3"/>
        <path id="Path_12977" data-name="Path 12977" d="M952.712,1696.8l85.985,16.78v-7.458l-84.767-17.4Z" transform="translate(-898.839 -1572.361)" fill="#d0d2d3"/>
        <path id="Path_12978" data-name="Path 12978" d="M1192.246,1579.38l.71,8.868,42.94,5.7-.207-7.854Z" transform="translate(-1101.373 -1480.233)" fill="#d0d2d3"/>
        <path id="Path_12979" data-name="Path 12979" d="M1458.074,1436.23l3.05.735-2.438-40.4Z" transform="translate(-1326.141 -1326.198)" fill="#d0d2d3"/>
        <path id="Path_12980" data-name="Path 12980" d="M771.745,1520.406c-1.115,2.537,2.959,5.174,2.959,5.174s-9.781-2.706-13.3-1.627-5.477,5.518-5.96,8.648,2.6,8.919,7.969,10.869,21.753,4.374,23.306,2.437,4.186-17.289,4.186-17.289l-13.087-9.009S772.866,1517.867,771.745,1520.406Z" transform="translate(-732.003 -1429.381)" fill="#ffba7f"/>
        <path id="Path_12981" data-name="Path 12981" d="M1037.465,1568.308l-81.841-16.491-4.519,26.351s75.656,15.045,93.227,18,15.317-29.774,15.317-29.774Z" transform="translate(-897.48 -1457.009)" fill="#f0f1f1"/>
        <path id="Path_12982" data-name="Path 12982" d="M751.828,1706.125v7.458l85.99-16.78-1.222-8.083Z" transform="translate(-728.984 -1572.361)" fill="#d0d2d3"/>
        <path id="Path_12983" data-name="Path 12983" d="M1261.487,1555.538c-9.559-.654-15.131,2.573-15.131,2.573s2.635,15.358,4.188,17.29,8.739-5.94,14.112-7.893,10.578-1.171,13.884-1.577C1281.629,1565.555,1270.243,1556.133,1261.487,1555.538Z" transform="translate(-1147.125 -1460.071)" fill="#ffba7f"/>
        <path id="Path_12984" data-name="Path 12984" d="M629.1,1552.508l-22.181.578s-2.255,32.728,15.316,29.774,93.224-18,93.224-18l-4.519-28.838Z" transform="translate(-606.376 -1443.7)" fill="#fff"/>
      </g>
      <g id="Group_3701" data-name="Group 3701" transform="translate(27.44 177.816)">
        <g id="Group_3696" data-name="Group 3696" transform="translate(0.473 26.492)">
          <g id="Group_3694" data-name="Group 3694">
            <path id="Path_12985" data-name="Path 12985" d="M797.916,1475.311c-2.949.453-6.646.335-7.922-.889-.84-.62-1.771-3.212-2.187-6.762-.938-7.089-.632-17.843-.727-26.311l-2.436.028c.1,8.407-.228,19.176.742,26.611.537,3.741,1.2,6.67,3.031,8.337,2.631,2.133,6.644,1.834,9.822,1.453a36.764,36.764,0,0,0,4.64-.938l-.649-2.39A35.089,35.089,0,0,1,797.916,1475.311Z" transform="translate(-784.644 -1441.349)" fill="#bbbdbf"/>
          </g>
          <g id="Group_3695" data-name="Group 3695" transform="translate(13.425 32.064)">
            <path id="Path_12986" data-name="Path 12986" d="M874.144,1645.125c-1.648.36-2.789,1.552-2.559,2.673s1.754,1.736,3.406,1.383,2.79-1.556,2.558-2.674S875.793,1644.767,874.144,1645.125Z" transform="translate(-871.555 -1645.024)" fill="#57585a"/>
          </g>
        </g>
        <g id="Group_3699" data-name="Group 3699" transform="translate(27.826 21.412)">
          <g id="Group_3697" data-name="Group 3697" transform="translate(1.647)">
            <path id="Path_12987" data-name="Path 12987" d="M980.831,1409.08l-2.36.628c2.1,8.195,5.158,18.488,6.091,25.576.5,3.534.282,6.288-.364,7.114-.917,1.518-4.452,2.63-7.42,2.98a37.67,37.67,0,0,1-4.382.323l0,2.483a37.959,37.959,0,0,0,4.711-.341c3.166-.485,7.12-1.272,9.106-4.035,1.329-2.1,1.221-5.1.768-8.852C986,1427.518,982.9,1417.219,980.831,1409.08Z" transform="translate(-972.392 -1409.08)" fill="#bbbdbf"/>
          </g>
          <g id="Group_3698" data-name="Group 3698" transform="translate(0 35.289)">
            <path id="Path_12988" data-name="Path 12988" d="M964.666,1633.251c-1.684.1-3,1.105-2.933,2.248s1.48,1.987,3.161,1.892,2.991-1.105,2.93-2.245S966.345,1633.153,964.666,1633.251Z" transform="translate(-961.731 -1633.243)" fill="#57585a"/>
          </g>
        </g>
        <g id="Group_3700" data-name="Group 3700">
          <path id="Path_12989" data-name="Path 12989" d="M797.665,1273.189c-10.909,1.592-17.566,14.208-15.8,27.835l3.156-.433h0a26.933,26.933,0,0,1,2.751-16.387c2.436-4.37,6.062-7.219,10.315-7.8s8.485,1.2,11.961,4.76a26.7,26.7,0,0,1,6.881,15.07l3.157-.428C818.274,1282.188,808.6,1271.8,797.665,1273.189Z" transform="translate(-781.585 -1273.064)" fill="#57585a"/>
        </g>
      </g>
      <g id="Group_3702" data-name="Group 3702" transform="translate(39.636 127.997)">
        <path id="Path_12990" data-name="Path 12990" d="M867.544,964.159a34.721,34.721,0,0,0-6.467,14.182,35.13,35.13,0,0,0-.537,6.331c.009,8.394,2.262,24.329,2.285,24.41l3.052-.909h-.005a32.106,32.106,0,0,0-.656-4.571,179.6,179.6,0,0,1-1.625-18.93,29,29,0,0,1,6.366-18.616c2.663-3.573,5.813-6.026,7.625-6.437l-.74-3.014C873.771,957.438,870.524,960.27,867.544,964.159Z" transform="translate(-860.54 -956.605)" fill="#57585a"/>
      </g>
      <g id="Group_3703" data-name="Group 3703" transform="translate(106.658 127.997)">
        <path id="Path_12991" data-name="Path 12991" d="M1304.476,964.159c-2.978-3.891-6.227-6.722-9.3-7.554l-.74,3.017c1.809.413,4.96,2.866,7.621,6.435a31.651,31.651,0,0,1,5.89,12.856,40.085,40.085,0,0,1,.476,6.789c.006,10.427-2.334,24.226-2.333,24.251l3.008.535v0c0-.041,2.369-13.934,2.377-24.781a42.806,42.806,0,0,0-.53-7.36A34.734,34.734,0,0,0,1304.476,964.159Z" transform="translate(-1294.44 -956.605)" fill="#57585a"/>
      </g>
      <g id="Group_3704" data-name="Group 3704" transform="translate(105.619 180.475)">
        <path id="Path_12992" data-name="Path 12992" d="M1298.692,1289.951a11.19,11.19,0,1,0,10.976,11.19A11.085,11.085,0,0,0,1298.692,1289.951Z" transform="translate(-1287.713 -1289.951)" fill="#929597"/>
        <path id="Path_12993" data-name="Path 12993" d="M1329.824,1326.811a5.389,5.389,0,1,0,5.283,5.387A5.341,5.341,0,0,0,1329.824,1326.811Z" transform="translate(-1318.846 -1321.008)" fill="#d0d2d3"/>
      </g>
      <g id="Group_3709" data-name="Group 3709" transform="translate(22.959)">
        <path id="Path_12994" data-name="Path 12994" d="M756.735,604.991c-5.257,1.558-4.042,9.6-4.046,12.591s4.394,13.594,7.341,14.756c7.466,2.952,7.469-8.14,7.469-8.14v-12.9S761.988,603.438,756.735,604.991Z" transform="translate(-752.57 -532.176)" fill="#ffba7f"/>
        <path id="Path_12995" data-name="Path 12995" d="M1413.475,605.821c-5.258-1.554-10.769,6.286-10.769,6.286v12.91s-.013,11.436,7.458,8.148c2.9-1.28,7.348-11.762,7.353-14.756S1418.731,607.377,1413.475,605.821Z" transform="translate(-1302.284 -532.874)" fill="#ffba7f"/>
        <path id="Path_12996" data-name="Path 12996" d="M881.05,246.8l-26.114-.006c-18.956-.01-34.323,20.414-34.336,45.614l-.009,34.716c-.01,25.2,25.761,42.867,34.306,45.642a42.99,42.99,0,0,0,26.115.007c8.979-2.7,34.326-20.416,34.339-45.614l.009-34.719C915.366,267.242,900,246.806,881.05,246.8Z" transform="translate(-810.085 -230.541)" fill="#ffba7f"/>
        <path id="Path_12997" data-name="Path 12997" d="M807.677,373.008c3.512-2.883,12.257-51.419,12.7-53.982l-14.973,4.866S804.622,375.52,807.677,373.008Z" transform="translate(-797.17 -291.401)" fill="#3b2314"/>
        <path id="Path_12998" data-name="Path 12998" d="M1361.824,338.457s8.864,49.617,11.619,51.979,2.073-44.371,2.073-44.371Z" transform="translate(-1267.717 -307.773)" fill="#3b2314"/>
        <g id="Group_3707" data-name="Group 3707" transform="translate(19.841 65.622)">
          <path id="Path_12999" data-name="Path 12999" d="M959.762,640.483a5.733,5.733,0,1,0,5.619,5.737A5.681,5.681,0,0,0,959.762,640.483Z" transform="translate(-942.84 -627.873)" fill="#221f1f"/>
          <path id="Path_13000" data-name="Path 13000" d="M1237.1,640.565a5.734,5.734,0,1,0,5.621,5.734A5.683,5.683,0,0,0,1237.1,640.565Z" transform="translate(-1177.339 -627.942)" fill="#221f1f"/>
          <g id="Group_3705" data-name="Group 3705" transform="translate(48.172)">
            <path id="Path_13001" data-name="Path 13001" d="M1218.757,563.52c-6.546-4.466-19.05-2.913-20.958-2.716-1.667.164-5.078,1.682-4.907,3.382s6.029,2.955,7.693,2.785c6.356-.641,12.238-1.266,21.195.848C1223.415,568.206,1220.151,564.472,1218.757,563.52Z" transform="translate(-1192.886 -560.384)" fill="#3b2314"/>
          </g>
          <g id="Group_3706" data-name="Group 3706" transform="translate(0 0.26)">
            <path id="Path_13002" data-name="Path 13002" d="M905.451,562.457c-1.9-.19-14.41-1.753-20.96,2.71-1.4.946-4.656,4.717-3.021,4.3,9.125-2.364,14.839-1.478,21.19-.837,1.668.173,7.537-1.072,7.706-2.773S907.124,562.631,905.451,562.457Z" transform="translate(-881.021 -562.038)" fill="#3b2314"/>
          </g>
        </g>
        <g id="Group_3708" data-name="Group 3708" transform="translate(40.89 109.87)">
          <path id="Path_13003" data-name="Path 13003" d="M1017.295,846.188c2.739,5.787,6.769,15.227,18.983,15.209,12.8-.021,20.734-19.941,20.734-19.941C1040.862,849.255,1031.653,850.188,1017.295,846.188Z" transform="translate(-1017.295 -841.457)" fill="#d15c58"/>
          <path id="Path_13004" data-name="Path 13004" d="M1038.135,857.431c1.022,3.423,5.742,4.83,15.28,4.141,12.632-.924,15.445-4.094,17.009-7.757C1060.239,858.572,1046.34,859.246,1038.135,857.431Z" transform="translate(-1034.916 -851.87)" fill="#fff"/>
          <path id="Path_13005" data-name="Path 13005" d="M1065.9,920.6a9.39,9.39,0,0,0-5.214-1.932c-2.82,0-8.142,1.8-8.142,1.8,2.443,3.433,6.914,5.912,13.175,5.942,7.92.042,12.74-6.482,12.74-6.482a45.43,45.43,0,0,0-8.381-1.261A6.947,6.947,0,0,0,1065.9,920.6Z" transform="translate(-1047.096 -906.511)" fill="#f88976"/>
        </g>
        <path id="Path_13006" data-name="Path 13006" d="M1100.037,790.7c-4.891,4.158-11.827,2.9-13.863-.007,0,0,2.038,7.469,6.93,7.236S1104.928,786.546,1100.037,790.7Z" transform="translate(-1034.644 -688.041)" fill="#f69d5e"/>
        <path id="Path_13007" data-name="Path 13007" d="M860.59,146.052c-21.7-5.109-33.738,3.441-33.738,3.441s-3.186-2.6-.726-5.949c-6.016.839-7.659,7.155-9.576,11.989a14.826,14.826,0,0,0-10.846.649s4.831,3.807-.364,8.176c-14.588,12.269-7.659,26.574-7.659,26.574s5.372,13.624,7.931,10.873c9.572-10.316,17.1-15.753,18.739-23.557,0,0,10.175,13.435,23.885,16.586,11.3,2.6,25.3,4.835,31.223,3.628-5.109-5.207-6.565-15.057-6.565-15.057s16.24,30.327,24.067,7.806C905.265,167.332,876.109,149.711,860.59,146.052Z" transform="translate(-789.323 -143.544)" fill="#3b2314"/>
      </g>
      <g id="Group_3712" data-name="Group 3712" transform="translate(29.674 71.444)">
        <g id="Group_3710" data-name="Group 3710" transform="translate(9.69 4.686)">
          <path id="Path_13008" data-name="Path 13008" d="M898.979,634.728s0,12.759-6,15.85c-4.779,2.463-18.178,2.214-21.846-1.273s-5.225-15.786-5.225-15.786" transform="translate(-864.81 -632.514)" fill="none" stroke="#221f1f" stroke-miterlimit="10" stroke-width="9.967"/>
          <path id="Path_13009" data-name="Path 13009" d="M858.776,629.077s22.386-4.665,35.272.473" transform="translate(-858.776 -627.137)" fill="none" stroke="#221f1f" stroke-linecap="round" stroke-miterlimit="10" stroke-width="21.544"/>
        </g>
        <line id="Line_340" data-name="Line 340" x1="11.791" y1="8.219" fill="none" stroke="#221f1f" stroke-miterlimit="10" stroke-width="19.48"/>
        <g id="Group_3711" data-name="Group 3711" transform="translate(58.043 4.874)">
          <path id="Path_13010" data-name="Path 13010" d="M1178.979,634.715s0,12.809,6.018,15.911c4.8,2.472,18.247,2.221,21.931-1.28s5.246-15.842,5.246-15.842" transform="translate(-1177.872 -632.689)" fill="none" stroke="#221f1f" stroke-miterlimit="10" stroke-width="9.967"/>
          <path id="Path_13011" data-name="Path 13011" d="M1171.814,630.557c13.9-4.718,35.409-.475,35.409-.475" transform="translate(-1171.814 -628.329)" fill="none" stroke="#221f1f" stroke-linecap="round" stroke-miterlimit="10" stroke-width="21.626"/>
        </g>
        <line id="Line_341" data-name="Line 341" y1="8.219" x2="11.804" transform="translate(91.337)" fill="none" stroke="#221f1f" stroke-miterlimit="10" stroke-width="19.48"/>
        <path id="Path_13012" data-name="Path 13012" d="M1087.131,645.031s4.029-2.092,6.808-2.092a13.86,13.86,0,0,1,6.272,1.722" transform="translate(-1042.169 -635.765)" fill="none" stroke="#221f1f" stroke-linecap="square" stroke-miterlimit="10" stroke-width="18"/>
      </g>
    </g>
  </g>
</svg>
