<svg xmlns="http://www.w3.org/2000/svg" xmlns:xlink="http://www.w3.org/1999/xlink" width="594" height="363.133" viewBox="0 0 594 363.133">
  <defs>
    <clipPath id="clip-path">
      <path id="Path_14051" data-name="Path 14051" d="M209.827,112.025C101.95,145.72,1.217,141.485,16.184,323.472c3.207,38.988,62.578,54.908,71.914,78.45,8.383,21.137,19.557,37.114,29.4,44.22,36.751,26.53,111.2,24.462,184.492,21.936,100.413-3.46,92.574,2.741,183.587-9.75C506.226,455.495,648.836,396.366,597.7,248.7c-10.759-31.07-48.129-53.567-69.3-58.219-32.914-7.231-55.072-6.356-110.431-18.583C350.055,156.894,293.108,86.012,209.827,112.025Z" transform="translate(-14.701 -106.342)" fill="none"/>
    </clipPath>
    <linearGradient id="linear-gradient" x1="0.819" y1="0.36" x2="-0.399" y2="1.375" gradientUnits="objectBoundingBox">
      <stop offset="0.441" stop-color="#feb5b6"/>
      <stop offset="0.667" stop-color="#fdb9ba"/>
      <stop offset="0.91" stop-color="#fbc6c5"/>
      <stop offset="1" stop-color="#fbcdcc"/>
    </linearGradient>
    <linearGradient id="linear-gradient-2" x1="0.966" y1="-0.145" x2="0.1" y2="1.233" gradientUnits="objectBoundingBox">
      <stop offset="0" stop-color="#fbcdcc"/>
      <stop offset="1" stop-color="#f8a6a0"/>
    </linearGradient>
    <linearGradient id="linear-gradient-3" x1="0.531" y1="0.13" x2="0.306" y2="1.382" gradientUnits="objectBoundingBox">
      <stop offset="0" stop-color="#88c0ff"/>
      <stop offset="1" stop-color="#3b85f7"/>
    </linearGradient>
    <linearGradient id="linear-gradient-4" x1="0.507" y1="0.322" x2="0.475" y2="1.188" xlink:href="#linear-gradient-3"/>
    <linearGradient id="linear-gradient-5" y1="0.5" x2="1" y2="0.5" gradientUnits="objectBoundingBox">
      <stop offset="0.524" stop-color="#285bd4"/>
      <stop offset="1" stop-color="#2355b7"/>
    </linearGradient>
    <linearGradient id="linear-gradient-6" x1="0" y1="0.5" x2="1" y2="0.5" xlink:href="#linear-gradient"/>
    <linearGradient id="linear-gradient-10" x1="0.174" y1="0.401" x2="2.09" y2="1.583" xlink:href="#linear-gradient-3"/>
    <linearGradient id="linear-gradient-11" x1="0.363" y1="0.815" x2="0.618" y2="0.416" gradientUnits="objectBoundingBox">
      <stop offset="0" stop-color="#172459"/>
      <stop offset="1" stop-color="#111b4f"/>
    </linearGradient>
    <linearGradient id="linear-gradient-12" x1="0.394" y1="0.536" x2="-0.444" y2="1.135" xlink:href="#linear-gradient-3"/>
    <linearGradient id="linear-gradient-13" x1="8.32" y1="-0.151" x2="8.426" y2="2.332" gradientUnits="objectBoundingBox">
      <stop offset="0.378" stop-color="#98acd7"/>
      <stop offset="0.506" stop-color="#8298c6"/>
      <stop offset="0.687" stop-color="#6b82b3"/>
      <stop offset="0.856" stop-color="#5c74a7"/>
      <stop offset="1" stop-color="#5870a4"/>
    </linearGradient>
  </defs>
  <g id="Group_4946" data-name="Group 4946" transform="translate(-14.701 -106.342)">
    <g id="Group_4945" data-name="Group 4945" transform="translate(14.701 106.342)" clip-path="url(#clip-path)">
      <path id="Path_13937" data-name="Path 13937" d="M308.217,222.32c-217.156,67.827-152.335,254.2-110.989,284.048,36.751,26.53,111.2,24.462,184.492,21.936,100.413-3.46,92.574,2.741,183.587-9.75,20.648-2.834,163.258-61.962,112.126-209.632-10.759-31.07-48.129-53.567-69.3-58.219-32.914-7.231-57.607,11.877-112.966-.351C427.249,235.352,391.5,196.308,308.217,222.32Z" transform="translate(-94.431 -166.569)" fill="#e9efff"/>
      <path id="Path_13938" data-name="Path 13938" d="M725.683,279.306s-.447,3.761-5.569,9.307S705.2,301.488,705.2,301.488l10.57-26.995Z" transform="translate(-407.149 -200.76)" fill="#0c163f"/>
      <path id="Path_13939" data-name="Path 13939" d="M513.909,401.706l-11.679,5.1-26.453,173.9,59.482-2.247,26.017-150.686L546.987,415.44Z" transform="translate(-276.757 -272.19)" fill="#fff"/>
      <path id="Path_13940" data-name="Path 13940" d="M585.72,323.963a93.56,93.56,0,0,1-3.478,14.021c-2.134,5.829-7.556,13.428-7.556,13.428s2.794,9.209,14.66,15.672c6.319,3.442,11.7-1.631,11.7-1.631a6.135,6.135,0,0,1-.9-4.6,7.655,7.655,0,0,1,1.667-3.385Z" transform="translate(-332.972 -228.537)" fill="url(#linear-gradient)"/>
      <path id="Path_13941" data-name="Path 13941" d="M603.168,365.629c.205-.326-4.675,13.194,4.589,18.049,5.07,2.657,8.276-.525,8.276-.525s-.032-.146.41-.958a9.686,9.686,0,0,1,.924-1.394S602.963,365.955,603.168,365.629Z" transform="translate(-348.534 -251.929)" fill="#f8a6a0"/>
      <path id="Path_13942" data-name="Path 13942" d="M650.536,248.47s-24.155,56.517-44.217,50.311c-16.727-5.174-12.326-39.563-12.326-39.563a21.736,21.736,0,0,1-4.568-9.7c-.791-4.654,1.286-9.939,5.808-11.033,4.751-1.149,5.7,4.855,5.7,4.855s3.058-26.408,26.8-23.884C647.95,221.6,650.536,248.47,650.536,248.47Z" transform="translate(-341.256 -169.758)" fill="#fbcdcc"/>
      <path id="Path_13943" data-name="Path 13943" d="M621.347,249.558a8.21,8.21,0,0,1,3.526-2.247c2.453-.677,6.46-.534,8.594-1.291,3.922-1.393,4.916-3.248,4.916-3.248s5.547,7.117,10.529,9.89,8.656.984,8.656.984,2.665,3.518,5.061,4.71a5.224,5.224,0,0,0,4.521.054l1.383-3.019-28.58-24.421-14.919,8.473Z" transform="translate(-359.493 -176.322)" fill="#f8a6a0" opacity="0.71"/>
      <path id="Path_13944" data-name="Path 13944" d="M585.109,245.462S581.528,243.2,580,235.1a69.431,69.431,0,0,1,8.16-50.488c9.978-16.917,17.841-20.567,26.247-20.231,4.028.161,7.393,3.774,7.393,3.774s14.9-9.47,30.927,7.19c13.736,14.282,10.956,39.478,3.923,42.926a6.44,6.44,0,0,1-6.435-.4s-1.149,2.376-5.317,1.032c-5.77-1.86-10.771-7.276-10.771-7.276s-.962,2.029-4.606,0c-7.2-4.018-14.347-15.925-14.347-15.925a11.631,11.631,0,0,1-4.56,5.814c-2.942,1.943-5.2.889-9.218,3.922-1.856,1.4-2.817,4.379-4.233,6.418a4.117,4.117,0,0,1-2.623,1.79,9.817,9.817,0,0,0-.59-3.4c-.6-1.289-4.237-4.643-7.423-.14-4.614,6.363,1.057,17.905,1.057,17.905l-.249,10.189-1.189,3.919Z" transform="translate(-335.077 -138.919)" fill="#111b4f"/>
      <path id="Path_13945" data-name="Path 13945" d="M667.173,319.185c1.8.128-1.16,5.691-1.821,10.351-.574,4.05,2.255,7-.109,8.289-1.522.83-3.162.026-4.067-1.446a9.481,9.481,0,0,1-.839-6.154C661.1,325.473,665.378,319.056,667.173,319.185Z" transform="translate(-381.566 -225.853)" fill="url(#linear-gradient-2)"/>
      <path id="Path_13946" data-name="Path 13946" d="M701.066,261.918a.429.429,0,0,1-.279-.1,18.644,18.644,0,0,1-5.471-8.727.441.441,0,0,1,.317-.532.433.433,0,0,1,.524.322,18.034,18.034,0,0,0,5.188,8.263.446.446,0,0,1,.052.62A.431.431,0,0,1,701.066,261.918Z" transform="translate(-401.527 -188.435)" fill="#091035"/>
      <path id="Path_13947" data-name="Path 13947" d="M737.889,278.987a.422.422,0,0,1-.219-.061c-.176-.105-4.323-2.621-5.527-6.206a.442.442,0,0,1,.27-.559.43.43,0,0,1,.55.275c1.1,3.28,5.107,5.707,5.147,5.732a.444.444,0,0,1,.154.6A.432.432,0,0,1,737.889,278.987Z" transform="translate(-422.452 -199.437)" fill="#091035"/>
      <path id="Path_13948" data-name="Path 13948" d="M662.326,229.47a.43.43,0,0,1-.359-.193c-.11-.165-2.68-4.078-1.272-7.193a.429.429,0,0,1,.574-.216.443.443,0,0,1,.213.583c-1.206,2.67,1.178,6.3,1.2,6.333a.444.444,0,0,1-.115.611A.427.427,0,0,1,662.326,229.47Z" transform="translate(-381.618 -171.187)" fill="#091035"/>
      <path id="Path_13949" data-name="Path 13949" d="M601.353,276.127c-2.721-.333-2.526,5.367-.629,5.531C602.924,281.848,603.266,276.362,601.353,276.127Z" transform="translate(-346.964 -201.669)" fill="#f8a6a0" opacity="0.71"/>
      <path id="Path_13950" data-name="Path 13950" d="M710.575,303a15.959,15.959,0,0,1-2.453.7,6.956,6.956,0,0,1-2.542.2.468.468,0,0,1-.152-.866,6.976,6.976,0,0,1,2.453-.7,15.9,15.9,0,0,1,2.542-.2.449.449,0,0,1,.152.866Z" transform="translate(-407.148 -216.278)" fill="#111b4f"/>
      <path id="Path_13951" data-name="Path 13951" d="M658.414,278.858a3.018,3.018,0,0,1-.9-.8c-.235-.314-.448-.645-.661-.975a14.449,14.449,0,0,1-1.129-2.089.453.453,0,0,1,.232-.591.439.439,0,0,1,.475.083,14.277,14.277,0,0,1,1.563,1.776c.236.314.471.628.685.958a3.088,3.088,0,0,1,.444,1.131.489.489,0,0,1-.4.562A.472.472,0,0,1,658.414,278.858Z" transform="translate(-379.01 -200.688)" fill="#111b4f"/>
      <path id="Path_13952" data-name="Path 13952" d="M644.853,294.556c1.034-1.947,2.751-3.126,3.836-2.633s1.127,2.471.093,4.418-2.752,3.126-3.836,2.633S643.818,296.5,644.853,294.556Z" transform="translate(-372.427 -210.483)" fill="#111b4f"/>
      <path id="Path_13953" data-name="Path 13953" d="M695.279,318.9c.851-1.788,2.35-2.839,3.349-2.349s1.12,2.337.269,4.124-2.349,2.839-3.349,2.349S694.429,320.688,695.279,318.9Z" transform="translate(-401.191 -224.308)" fill="#111b4f"/>
      <path id="Path_13954" data-name="Path 13954" d="M619.686,355.515c.056-3.074,5.448-4.259,8.628-1.339,6.533,6,1.4,10.29-.095,10.327-2.391.06-1.478-2.506-3.251-4.264C622.77,358.058,619.628,358.639,619.686,355.515Z" transform="translate(-358.549 -244.561)" fill="#ff9493"/>
      <path id="Path_13955" data-name="Path 13955" d="M462.466,405.17l-31.92,5.9L396.89,469.717s1.773,26.4,3.131,54.982,2.3,59.351,2.3,59.351,10.126.44,21.974.127c19.793-.522,18.175-2.726,18.175-2.726S459.82,536.78,462.728,453.5C464.156,412.592,462.466,405.17,462.466,405.17Z" transform="translate(-231.921 -274.135)" fill="url(#linear-gradient-3)"/>
      <path id="Path_13956" data-name="Path 13956" d="M617.47,444.009s-.031.1-.091.285c-.992,3.141-9.974,32.054-19.088,77.875-4,20.119-8.354,47.754-8.026,61.232.483,19.869,8.026,24.792,8.026,24.792l28.293-3.279s-8.8-10.531-8.638-24.342c.323-27.206,11.03-48.7,21.457-90.516,6.224-24.959-.814-27.589-.814-27.589L626.125,451.3Z" transform="translate(-341.818 -295.944)" fill="url(#linear-gradient-4)"/>
      <path id="Path_13957" data-name="Path 13957" d="M589.728,431.768l.157,10.085,8.6,1.966,4.794-10.732-4.146-9.452Z" transform="translate(-341.522 -284.504)" fill="url(#linear-gradient-5)"/>
      <path id="Path_13958" data-name="Path 13958" d="M494.865,422.275l-10.089,23.45,14.415-.493L484.2,462.188a255.426,255.426,0,0,0,3.9,45.47c4.332,23.479,13.425,48.448,13.425,48.448l1.306-113.835Z" transform="translate(-281.538 -283.74)" fill="#285bd4" opacity="0.08"/>
      <path id="Path_13959" data-name="Path 13959" d="M625.382,459.613l1.864,24.807-8.458.194,6.642,14.516s-2.524,11.6-11.177,32.421-23.433,50.872-23.433,50.872l24.041-105.271Z" transform="translate(-342.143 -304.705)" fill="#285bd4" opacity="0.08"/>
      <path id="Path_13960" data-name="Path 13960" d="M739.334,216.793a.647.647,0,0,1-.551-.31,15.536,15.536,0,0,0-8.165-6.167.66.66,0,0,1-.458-.809.648.648,0,0,1,.8-.466,16.592,16.592,0,0,1,8.93,6.743.666.666,0,0,1-.208.909A.642.642,0,0,1,739.334,216.793Z" transform="translate(-421.325 -163.995)" fill="#1b2c6d"/>
      <path id="Path_13961" data-name="Path 13961" d="M592.645,204.1l-1.673,3.321-1.453,3.238a7.055,7.055,0,0,0,3.525-1.245,14.413,14.413,0,0,0,3.323-3.562s-.635,2.764.48,3.183c4.483,1.685,12.068-12.964,12.068-12.964l-5.578-2.824Z" transform="translate(-341.403 -155.139)" fill="#091035"/>
      <path id="Path_13962" data-name="Path 13962" d="M766.924,210.114s-6.547-3.965-9.389-3.357c-1.755.375-2.21,4.084-2.21,4.084Z" transform="translate(-435.641 -162.69)" fill="url(#linear-gradient-6)"/>
      <path id="Path_13963" data-name="Path 13963" d="M736.267,234.7a.643.643,0,0,1-.435-.17c-2.467-2.265-8.064-2.593-8.12-2.6a.657.657,0,0,1-.614-.695.649.649,0,0,1,.684-.624c.248.014,6.116.36,8.922,2.935a.667.667,0,0,1,.046.932A.643.643,0,0,1,736.267,234.7Z" transform="translate(-419.597 -176.122)" fill="#1b2c6d"/>
      <path id="Path_13964" data-name="Path 13964" d="M499.5,742.265a2.362,2.362,0,1,1,2.361,2.4A2.38,2.38,0,0,1,499.5,742.265Z" transform="translate(-290.242 -462.069)" fill="url(#linear-gradient-5)"/>
      <path id="Path_13965" data-name="Path 13965" d="M496.314,769.614a2.345,2.345,0,1,1,2.343,2.437A2.392,2.392,0,0,1,496.314,769.614Z" transform="translate(-288.43 -477.404)" fill="url(#linear-gradient-5)"/>
      <path id="Path_13966" data-name="Path 13966" d="M272.647,512.284c6.125-1.656,9.26-24.526-2.622-27.083s-20.428,14.075-15.4,21.688c3.241,4.908,6.876.564,9.97,1.3C266.9,508.735,268,513.54,272.647,512.284Z" transform="translate(-150.228 -318.925)" fill="#bbe2ff"/>
      <path id="Path_13967" data-name="Path 13967" d="M144.792,688.092c-3.963-3.539-21.635-4.431-24.15,6.039-1.293,5.383,4.271,6.8,10.089,8.962,4.487,1.666,8.679,2.823,11.31,2.068C146.868,703.778,149.391,692.2,144.792,688.092Z" transform="translate(-74.806 -431.639)" fill="#bbe2ff"/>
      <path id="Path_13968" data-name="Path 13968" d="M170.664,712.148a.435.435,0,0,1-.429-.383,275.372,275.372,0,0,0-8.567-39.453c-5.55-18.326-15.3-40.948-30.219-44.642a.44.44,0,0,1-.318-.531.432.432,0,0,1,.523-.324c12.3,3.045,22.677,18.269,30.845,45.248a276.4,276.4,0,0,1,8.595,39.587.439.439,0,0,1-.374.493A.354.354,0,0,1,170.664,712.148Z" transform="translate(-80.868 -398.583)" fill="#88c0ff"/>
      <path id="Path_13969" data-name="Path 13969" d="M248.125,720.49a.436.436,0,0,1-.433-.437,279.065,279.065,0,0,1,2.784-37.99c3.892-25.909,11.078-40.49,21.358-43.338a.435.435,0,0,1,.532.309.441.441,0,0,1-.3.54c-23.756,6.581-23.509,79.734-23.5,80.472a.437.437,0,0,1-.43.443Z" transform="translate(-147.123 -405.269)" fill="#88c0ff"/>
      <rect id="Rectangle_2118" data-name="Rectangle 2118" width="615.372" height="68.364" transform="translate(59.92 305.868)" fill="#d7e0ff"/>
      <path id="Path_13970" data-name="Path 13970" d="M207.035,616.112a.436.436,0,0,1-.433-.435c-.009-.988-1.112-99.4-18.807-150.366a.442.442,0,0,1,.264-.561.431.431,0,0,1,.553.269c17.743,51.107,18.847,149.66,18.856,150.65a.437.437,0,0,1-.429.444Z" transform="translate(-113.066 -307.575)" fill="#88c0ff"/>
      <path id="Path_13971" data-name="Path 13971" d="M515.042,403.633l-15.75,3.124-8.6,27.328,9.422,1.088a58.479,58.479,0,0,1-10.385,12.767s-.858,16.3,2.791,40.955S504.361,547.1,504.361,547.1A465.008,465.008,0,0,0,515.626,464C517.161,428.2,515.042,403.633,515.042,403.633Z" transform="translate(-284.64 -273.272)" fill="#a9d6ff"/>
      <path id="Path_13972" data-name="Path 13972" d="M617.517,442.716s-10.277,33.456-16.875,65.957-9.437,65.463-9.437,65.463,9.117-21.217,17.413-42.942,15.773-43.961,15.773-43.961-1.956-3.8-3.173-6.877a35.929,35.929,0,0,1-1.7-5.427l6.059-.776.126-24.51Z" transform="translate(-342.362 -295.218)" fill="#a9d6ff"/>
      <path id="Path_13973" data-name="Path 13973" d="M558.234,545.067S545.766,595,564.3,622.034c14.032,20.467,33,16.121,33,16.121s.129-2.941.313-6.029.335-6.43.335-6.43Z" transform="translate(-321.291 -352.688)" fill="#09124b" opacity="0.15"/>
      <path id="Path_13974" data-name="Path 13974" d="M503.453,549.929a.434.434,0,0,1-.42-.335c-1.351-5.573-8.251-34.484-11.5-56.445-3.613-24.422-2.8-40.881-2.8-41.045a.447.447,0,0,1,.141-.3,67.784,67.784,0,0,0,5.61-5.982,66.165,66.165,0,0,0,4.333-6.1l-8.737-1.009a.433.433,0,0,1-.315-.2.445.445,0,0,1-.049-.373l8.411-26.742a.43.43,0,0,1,.544-.285.441.441,0,0,1,.281.553l-8.25,26.231,8.9,1.027a.433.433,0,0,1,.34.244.445.445,0,0,1-.019.423,58.849,58.849,0,0,1-10.33,12.737c-.076,1.836-.6,17.72,2.795,40.689,3.244,21.923,10.137,50.8,11.486,56.366a.442.442,0,0,1-.317.533A.476.476,0,0,1,503.453,549.929Z" transform="translate(-284.075 -277.46)" fill="#69a6ff"/>
      <path id="Path_13975" data-name="Path 13975" d="M590.635,583.688a.424.424,0,0,1-.173-.036.443.443,0,0,1-.224-.579c.092-.212,9.208-21.457,17.406-42.925,7.81-20.452,14.981-41.615,15.707-43.767-.393-.773-2.039-4.054-3.106-6.748a35.974,35.974,0,0,1-1.719-5.5.444.444,0,0,1,.072-.345.432.432,0,0,1,.3-.181l5.682-.728.121-23.494a.433.433,0,1,1,.866,0l-.123,23.88a.438.438,0,0,1-.379.435l-5.582.714a37.941,37.941,0,0,0,1.569,4.888c1.2,3.021,3.136,6.8,3.155,6.837a.447.447,0,0,1,.026.346c-.075.223-7.574,22.492-15.779,43.978s-17.329,42.747-17.42,42.959A.433.433,0,0,1,590.635,583.688Z" transform="translate(-341.791 -304.33)" fill="#69a6ff"/>
      <path id="Path_13976" data-name="Path 13976" d="M544.51,406.194s11.274,24.759,12.9,24.825c2.6.106,15.409-14.176,15.539-14.1.881.537,4.054,16.578,5.249,17s11.938-12.437,11.938-12.437L573.622,413Z" transform="translate(-315.822 -274.71)" fill="#3e3566" opacity="0.1"/>
      <path id="Path_13977" data-name="Path 13977" d="M559.96,377.458a49.035,49.035,0,0,1-7.534,8.42,22.915,22.915,0,0,1-7.916,4.181l13.456,20.989s3.988-2.684,7.83-5.888,7.537-6.926,7.537-6.926l4.957,16.147,11.846-9.032L582.8,391.86a9.692,9.692,0,0,1-3.659,3.1,22.607,22.607,0,0,1-5.518,1.912,46.637,46.637,0,0,1-8.213-8.611A49.216,49.216,0,0,1,559.96,377.458Z" transform="translate(-315.822 -258.575)" fill="#fff"/>
      <path id="Path_13978" data-name="Path 13978" d="M578.005,414.321a.207.207,0,0,1-.066-.011.218.218,0,0,1-.14-.144l-4.852-15.8c-.9.893-4.065,3.99-7.3,6.686-3.807,3.174-7.808,5.874-7.848,5.9a.207.207,0,0,1-.163.032.215.215,0,0,1-.138-.1L544.044,389.9a.222.222,0,0,1-.02-.2.217.217,0,0,1,.149-.133,22.9,22.9,0,0,0,7.833-4.139,49.157,49.157,0,0,0,7.492-8.375.215.215,0,0,1,.3-.052.222.222,0,0,1,.052.307,49.648,49.648,0,0,1-7.574,8.464,23.735,23.735,0,0,1-7.71,4.139l13.176,20.553c.822-.563,4.3-2.975,7.631-5.751,3.789-3.159,7.485-6.874,7.522-6.912a.216.216,0,0,1,.36.091l4.866,15.849,11.6-8.844a.215.215,0,0,1,.3.044.222.222,0,0,1-.043.308l-11.846,9.032A.214.214,0,0,1,578.005,414.321Z" transform="translate(-315.537 -258.294)" fill="#97ceff"/>
      <path id="Path_13979" data-name="Path 13979" d="M573.714,464.533s-26.19,36.737-3.962,90.026c12.992,31.147,47.184,37.965,47.184,37.965l15.558-6.68,16.892-7.253a33,33,0,0,1-8.607-4.024,51.515,51.515,0,0,1-8.132-7.226S601.589,555.474,588.5,530.3c-16.349-31.445-6.59-63.538-6.59-63.538Z" transform="translate(-325.084 -307.468)" fill="url(#linear-gradient-5)"/>
      <g id="Group_4933" data-name="Group 4933" transform="translate(239.327 166.736)">
        <path id="Path_13980" data-name="Path 13980" d="M592.324,490.126a.649.649,0,0,1-.593-.388.664.664,0,0,1,.325-.873l4.833-2.218a.646.646,0,0,1,.859.33.664.664,0,0,1-.325.873l-4.833,2.218A.636.636,0,0,1,592.324,490.126Z" transform="translate(-581.955 -486.588)" fill="#f54dd5"/>
        <path id="Path_13981" data-name="Path 13981" d="M611.829,626.12a.649.649,0,0,1-.593-.388.664.664,0,0,1,.325-.873l4.834-2.217a.645.645,0,0,1,.859.33.664.664,0,0,1-.325.873l-4.833,2.218A.637.637,0,0,1,611.829,626.12Z" transform="translate(-593.041 -562.95)" fill="#f54dd5"/>
        <path id="Path_13982" data-name="Path 13982" d="M572.859,555.068a.652.652,0,0,1-.639-.55l-.879-5.313a.659.659,0,0,1,.533-.76.65.65,0,0,1,.748.541l.879,5.314a.658.658,0,0,1-.533.76A.615.615,0,0,1,572.859,555.068Z" transform="translate(-570.393 -521.315)" fill="#f54dd5"/>
        <path id="Path_13983" data-name="Path 13983" d="M600.365,583.65a.57.57,0,0,1-.563-.533l-.364-5.175a.572.572,0,0,1,.524-.613.565.565,0,0,1,.6.531l.364,5.175a.571.571,0,0,1-.524.613Z" transform="translate(-586.367 -537.539)" fill="#f54dd5"/>
        <path id="Path_13984" data-name="Path 13984" d="M628.779,689.965a.569.569,0,0,1-.563-.533l-.365-5.176a.571.571,0,0,1,.524-.614.565.565,0,0,1,.6.532l.365,5.176a.572.572,0,0,1-.524.613Z" transform="translate(-602.516 -597.235)" fill="#f54dd5"/>
        <path id="Path_13985" data-name="Path 13985" d="M641.4,731.185a.569.569,0,0,1-.563-.534l-.255-3.683a.571.571,0,0,1,.524-.613.563.563,0,0,1,.6.532l.255,3.683a.571.571,0,0,1-.524.613Z" transform="translate(-609.753 -621.218)" fill="#f54dd5"/>
        <path id="Path_13986" data-name="Path 13986" d="M578.627,515.187a.639.639,0,0,1-.409-.148l-5.464-4.506a.667.667,0,0,1-.095-.928.642.642,0,0,1,.914-.1l5.464,4.506a.667.667,0,0,1,.1.928A.644.644,0,0,1,578.627,515.187Z" transform="translate(-571.065 -499.375)" fill="#f54dd5"/>
        <path id="Path_13987" data-name="Path 13987" d="M672.3,724.928a.641.641,0,0,1-.409-.148l-5.464-4.506a.667.667,0,0,1-.095-.928.642.642,0,0,1,.914-.1l5.464,4.506a.667.667,0,0,1,.095.928A.643.643,0,0,1,672.3,724.928Z" transform="translate(-624.305 -617.146)" fill="#f54dd5"/>
        <path id="Path_13988" data-name="Path 13988" d="M668.19,687.42a.648.648,0,0,1-.579-.36.665.665,0,0,1,.284-.888l6.27-3.247a.646.646,0,0,1,.874.289.664.664,0,0,1-.284.888l-6.27,3.247A.643.643,0,0,1,668.19,687.42Z" transform="translate(-625.074 -596.792)" fill="#f54dd5"/>
        <path id="Path_13989" data-name="Path 13989" d="M714.377,722.272a.653.653,0,0,1-.647-.609l-.537-7.129a.65.65,0,1,1,1.3-.1l.537,7.129a.656.656,0,0,1-.6.709Z" transform="translate(-651.021 -614.182)" fill="#f54dd5"/>
        <path id="Path_13990" data-name="Path 13990" d="M578.627,594.652a.638.638,0,0,1-.409-.147L572.754,590a.667.667,0,0,1-.095-.928.642.642,0,0,1,.914-.1l5.464,4.506a.667.667,0,0,1,.1.928A.644.644,0,0,1,578.627,594.652Z" transform="translate(-571.065 -543.995)" fill="#f54dd5"/>
        <path id="Path_13991" data-name="Path 13991" d="M647.979,663.213a.651.651,0,0,1-.61-.434l-2.417-6.714a.664.664,0,0,1,.387-.847.647.647,0,0,1,.833.394l2.417,6.714a.663.663,0,0,1-.387.846A.631.631,0,0,1,647.979,663.213Z" transform="translate(-612.214 -581.252)" fill="#f54dd5"/>
        <path id="Path_13992" data-name="Path 13992" d="M595.8,664.089a.66.66,0,0,1-.043-1.319l7.022-.478a.66.66,0,0,1,.087,1.317l-7.022.478Z" transform="translate(-583.931 -585.247)" fill="#f54dd5"/>
        <path id="Path_13993" data-name="Path 13993" d="M591.721,538.815a.647.647,0,0,1-.537-.288.667.667,0,0,1,.171-.917l4.093-2.838a.643.643,0,0,1,.9.173.667.667,0,0,1-.17.917l-4.093,2.838A.64.64,0,0,1,591.721,538.815Z" transform="translate(-581.613 -513.579)" fill="#f54dd5"/>
        <path id="Path_13994" data-name="Path 13994" d="M569.809,629.238a.647.647,0,0,1-.537-.288.667.667,0,0,1,.17-.918l4.093-2.838a.644.644,0,0,1,.9.173.667.667,0,0,1-.17.917l-4.093,2.838A.639.639,0,0,1,569.809,629.238Z" transform="translate(-569.158 -564.351)" fill="#f54dd5"/>
      </g>
      <path id="Path_13995" data-name="Path 13995" d="M598.122,467.024a.443.443,0,0,1-.1-.011l-8.6-1.966a.44.44,0,0,1-.327-.526.434.434,0,0,1,.518-.332l8.6,1.966a.44.44,0,0,1,.328.526A.435.435,0,0,1,598.122,467.024Z" transform="translate(-341.159 -307.269)" fill="#1c3a91"/>
      <path id="Path_13996" data-name="Path 13996" d="M779.2,253.317l-6-11.413s-1.547-22.7-3.586-25.422c-2.819-3.758-16.664-5.765-20.172-4.231-.972.425-1.454,5.669-1.454,5.669a2.307,2.307,0,0,0-1.537,1.717,10.489,10.489,0,0,0,.522,3.763,2.341,2.341,0,0,0-.822,2.518c.7,2.307,5.22,4.567,6.781,4.919.543.123.82-.542.55-1.146-.5-1.13-2.451-2.557-1.466-2.612a5.974,5.974,0,0,1,4.676,3.978c1.44,4.42-.156,7.3,1.828,12.235a17.213,17.213,0,0,0,6.11,7.522l6.168,9.149Z" transform="translate(-430.368 -165.519)" fill="#fbcdcc"/>
      <path id="Path_13997" data-name="Path 13997" d="M747.644,236.663a.43.43,0,0,1-.346-.175.444.444,0,0,1,.084-.614c.132-.1,3.3-2.474,9.227-1.2a.44.44,0,0,1,.334.522.432.432,0,0,1-.514.339c-5.51-1.188-8.5,1.016-8.524,1.039A.427.427,0,0,1,747.644,236.663Z" transform="translate(-431.029 -178.191)" fill="#ff9493"/>
      <path id="Path_13998" data-name="Path 13998" d="M750.316,224.175a.432.432,0,0,1-.4-.267.442.442,0,0,1,.227-.577,16.669,16.669,0,0,1,11.147-.261.442.442,0,0,1,.275.556.432.432,0,0,1-.547.279,16.088,16.088,0,0,0-10.534.235A.433.433,0,0,1,750.316,224.175Z" transform="translate(-432.547 -171.416)" fill="#ff9493"/>
      <path id="Path_13999" data-name="Path 13999" d="M800.512,309.733l-1.1-1.632s1.755-3.416,4.093-4.8c2.446-1.448,4.63-1.745,5.075-.952a17.642,17.642,0,0,0,1.234,1.8Z" transform="translate(-460.697 -216.159)" fill="#f8a6a0" opacity="0.29"/>
      <path id="Path_14000" data-name="Path 14000" d="M815.578,310.391l-4.663-5.8s-2.109-.091-6.259,2.309a18.075,18.075,0,0,0-5.84,4.983l4.488,6.882Z" transform="translate(-460.359 -217.66)" fill="#fff"/>
      <path id="Path_14001" data-name="Path 14001" d="M685.839,445.457s78.211-3.456,98.455-41.13c12.474-23.215-32.339-89.168-32.339-89.168a28.229,28.229,0,0,0-8.788,3.424,29.539,29.539,0,0,0-6.892,6.632s21.886,51.634,12.151,61.018c-18.057,17.407-57.389,3.677-57.389,3.677a99.85,99.85,0,0,0-5.558,24.029C684.083,427.5,685.839,445.457,685.839,445.457Z" transform="translate(-395.637 -223.594)" fill="url(#linear-gradient-10)"/>
      <path id="Path_14002" data-name="Path 14002" d="M602.266,170.8s-18.2,15.793-16.976,21.417c.768,3.527,13.02-7.54,13.02-7.54s-4.856,8.453-1.365,7.281c7.568-2.54,13.145-16.227,13.145-16.227l-.057-6.108Z" transform="translate(-338.966 -141.875)" fill="url(#linear-gradient-11)"/>
      <path id="Path_14003" data-name="Path 14003" d="M614.141,197.013a.427.427,0,0,1-.209-.055.443.443,0,0,1-.169-.6c.1-.187,2.547-4.609,6.284-6.463a.43.43,0,0,1,.579.2.444.444,0,0,1-.2.588c-3.488,1.73-5.883,6.055-5.907,6.1A.432.432,0,0,1,614.141,197.013Z" transform="translate(-355.152 -153.234)" fill="#091035"/>
      <path id="Path_14004" data-name="Path 14004" d="M537.964,158.145c2.363-1.128,4.78-2.391,7.05-3.636,6.175-3.383,11.271-6.627,11.271-6.627s11.677-10.737,13.51-11.218c4.187-1.1,15.041-.119,18.474,2.111,1.917,1.246,2.783,5.506,2.889,9.022a7,7,0,0,1-2.881,5.554s-1.925,3.127-2.9,3.468c-1.152.4-2.117-.859-2.117-.859s-4.544,5.688-7.37,5.014c-1.64-.391,5.609-7.749,1.837-7.906-2.761-.115-8.6,6.381-11.86,8.545-2.656,1.761-8.642.372-8.642.372s-14.822,9.384-19.7,8.333S531.913,161.034,537.964,158.145Z" transform="translate(-309.647 -123.115)" fill="#fbcdcc"/>
      <path id="Path_14005" data-name="Path 14005" d="M655.376,167.452a.426.426,0,0,1-.23-.068.445.445,0,0,1-.136-.606,6.692,6.692,0,0,0,.205-4.55,4.864,4.864,0,0,0-2.061-3.167.443.443,0,0,1-.176-.6.43.43,0,0,1,.587-.179A5.71,5.71,0,0,1,656.053,162a7.5,7.5,0,0,1-.31,5.243A.433.433,0,0,1,655.376,167.452Z" transform="translate(-377.441 -135.479)" fill="#ff9493"/>
      <path id="Path_14006" data-name="Path 14006" d="M645.1,173.572a.43.43,0,0,1-.331-.156.445.445,0,0,1,.049-.619,4.768,4.768,0,0,0,1.257-4.172,5.226,5.226,0,0,0-1.808-2.913.445.445,0,0,1-.077-.617.428.428,0,0,1,.607-.078,6.069,6.069,0,0,1,2.136,3.494,5.637,5.637,0,0,1-1.555,4.956A.429.429,0,0,1,645.1,173.572Z" transform="translate(-372.427 -139.237)" fill="#ff9493"/>
      <path id="Path_14007" data-name="Path 14007" d="M662.263,158.3a.437.437,0,0,1-.433-.44c0-.044-.032-4.4-2.243-6.2a.445.445,0,0,1-.067-.619.427.427,0,0,1,.609-.068c2.538,2.069,2.568,6.689,2.568,6.885a.437.437,0,0,1-.433.44Z" transform="translate(-381.135 -131.35)" fill="#ff9493"/>
      <path id="Path_14008" data-name="Path 14008" d="M554.608,179.431l2.066-1.3s2.424-.032,3.021,4.717a17.923,17.923,0,0,1-1.569,8.656l-1.905.842Z" transform="translate(-321.561 -146.654)" fill="#f8a6a0" opacity="0.29"/>
      <path id="Path_14009" data-name="Path 14009" d="M535.25,181.484l8.725-3.247a27.221,27.221,0,0,1,2.058,7.485,21.977,21.977,0,0,1-1.216,10.94l-6.98,2.7Z" transform="translate(-310.559 -146.711)" fill="#fff"/>
      <path id="Path_14010" data-name="Path 14010" d="M388.52,286.943s-24.1-36.534-19.063-47.365c6.109-13.136,48.174-34.655,48.174-34.655a55.552,55.552,0,0,0-.22-11.942,37.633,37.633,0,0,0-3.208-10.113,168.791,168.791,0,0,0-41.86,12.074c-19.915,8.826-39.554,21.349-45.953,31.366C310.368,251.39,350.8,345.991,357.768,348.618c3.083,1.162,15.638,1.942,26.715-22.271C394.423,304.618,388.52,286.943,388.52,286.943Z" transform="translate(-189.735 -149.311)" fill="url(#linear-gradient-12)"/>
      <path id="Path_14011" data-name="Path 14011" d="M444.3,873.541s29.384-.307,46.426,1.247c7.976.727-1.329,3.324-1.329,3.324s33.429-.449,30.575,4.986c-4.09,7.791-37.12,6.752-51.436,7.584-8.27.48-12.86,5.329-23.929,4.051-18-2.078-20.145-10.7-20.145-10.7Z" transform="translate(-247.591 -537.113)" fill="#5c7abc"/>
      <path id="Path_14012" data-name="Path 14012" d="M446.827,876.43s29.384-.307,46.426,1.246c7.976.727-1.329,3.324-1.329,3.324s33.429-.449,30.575,4.987c-4.091,7.791-37.12,6.752-51.437,7.583-8.27.48-12.86,5.329-23.929,4.051-18-2.078-20.145-10.7-20.145-10.7Z" transform="translate(-249.028 -538.736)" fill="#4862aa" opacity="0.49"/>
      <path id="Path_14013" data-name="Path 14013" d="M250.9,594.156c8.233,7.429,6.026,19.469,3.824,28.262-4.435,17.711-18.937,30.32-29.037,29.131-14.035-1.652-10.515-11.018-14.027-16.077-4.094-5.9-16.94-.451-19.695-14.529C187.668,598.967,232.526,577.575,250.9,594.156Z" transform="translate(-115.288 -376.939)" fill="#a9d6ff"/>
      <g id="Group_4934" data-name="Group 4934" transform="translate(97.672 219.637)">
        <path id="Path_14014" data-name="Path 14014" d="M241.2,645.67a.215.215,0,0,1-.087-.018.221.221,0,0,1-.112-.29c.089-.207,9.225-20.8,35.847-29.338a.215.215,0,0,1,.272.143.221.221,0,0,1-.141.276c-26.427,8.472-35.493,28.89-35.581,29.095A.216.216,0,0,1,241.2,645.67Z" transform="translate(-240.982 -612.162)" fill="#fff"/>
        <path id="Path_14015" data-name="Path 14015" d="M295.275,617.049a.214.214,0,0,1-.162-.074.223.223,0,0,1,.018-.311c.059-.053,5.86-5.379,4-9.114a.223.223,0,0,1,.1-.3.214.214,0,0,1,.291.1c2.006,4.037-3.852,9.415-4.1,9.642A.217.217,0,0,1,295.275,617.049Z" transform="translate(-271.716 -607.23)" fill="#fff"/>
        <path id="Path_14016" data-name="Path 14016" d="M295.879,638.681a.216.216,0,0,1-.164-.076c-6.662-7.776-15.476-2.465-15.563-2.41a.215.215,0,0,1-.3-.073.223.223,0,0,1,.073-.3c.091-.056,9.211-5.561,16.116,2.5a.223.223,0,0,1-.022.31A.215.215,0,0,1,295.879,638.681Z" transform="translate(-263.058 -622.223)" fill="#fff"/>
        <path id="Path_14017" data-name="Path 14017" d="M248.3,642.682a.21.21,0,0,1-.113-.032.221.221,0,0,1-.072-.3c.09-.15,8.9-15.042.226-22.049a.222.222,0,0,1-.035-.309.214.214,0,0,1,.3-.036c8.978,7.249-.034,22.471-.126,22.623A.215.215,0,0,1,248.3,642.682Z" transform="translate(-245.019 -614.347)" fill="#fff"/>
        <path id="Path_14018" data-name="Path 14018" d="M267.053,671.2a.215.215,0,0,1-.126-.041c-10.61-7.656-19.859-1.641-19.951-1.579a.216.216,0,0,1-.3-.063.223.223,0,0,1,.062-.305c.095-.064,9.593-6.239,20.441,1.589a.222.222,0,0,1,.051.307A.215.215,0,0,1,267.053,671.2Z" transform="translate(-244.198 -640.7)" fill="#fff"/>
      </g>
      <path id="Path_14019" data-name="Path 14019" d="M85.924,595.752c-.667,7.393,5.533,12.7,1.6,18.142-8.288,11.477-44.8-3.436-44.21-24.511.476-17.123,44.23-21.36,46.877-5.062C91.049,589.6,86.591,588.36,85.924,595.752Z" transform="translate(-30.961 -368.979)" fill="#a9d6ff"/>
      <g id="Group_4935" data-name="Group 4935" transform="translate(17.37 212.848)">
        <path id="Path_14020" data-name="Path 14020" d="M90.727,613.122a.209.209,0,0,1-.095-.022c-.228-.113-22.987-11.206-35.392-6.051a.216.216,0,0,1-.282-.121.221.221,0,0,1,.119-.287c12.584-5.229,35.515,5.949,35.744,6.063a.221.221,0,0,1,.1.294A.215.215,0,0,1,90.727,613.122Z" transform="translate(-54.942 -599.328)" fill="#fff"/>
        <path id="Path_14021" data-name="Path 14021" d="M79.341,600.153c-.079,0-6.529-.5-9.5-5.964a.222.222,0,0,1,.085-.3.215.215,0,0,1,.294.086c2.857,5.261,9.072,5.733,9.135,5.737a.22.22,0,0,1-.014.439Z" transform="translate(-63.395 -592.935)" fill="#fff"/>
        <path id="Path_14022" data-name="Path 14022" d="M77.423,618.122a.216.216,0,0,1-.057-.008.221.221,0,0,1-.152-.27c2.406-8.934,11.349-8.121,11.438-8.113a.22.22,0,0,1-.043.438c-.354-.036-8.669-.781-10.977,7.791A.216.216,0,0,1,77.423,618.122Z" transform="translate(-67.596 -601.832)" fill="#fff"/>
        <path id="Path_14023" data-name="Path 14023" d="M106.426,601.668a.211.211,0,0,1-.1-.028c-.294-.164-7.214-4.1-7.536-9.66a.218.218,0,0,1,.2-.232.2.2,0,0,1,.229.207c.308,5.322,7.242,9.262,7.312,9.3a.222.222,0,0,1,.085.3A.216.216,0,0,1,106.426,601.668Z" transform="translate(-79.861 -591.746)" fill="#fff"/>
        <path id="Path_14024" data-name="Path 14024" d="M101.537,627.057a.221.221,0,0,1-.216-.232c.392-7.421,11.448-9.227,11.559-9.244a.22.22,0,0,1,.066.435c-.108.017-10.819,1.768-11.193,8.833A.218.218,0,0,1,101.537,627.057Z" transform="translate(-81.302 -606.252)" fill="#fff"/>
      </g>
      <path id="Path_14025" data-name="Path 14025" d="M111.277,404.5c21.648-20.3,68.158,14.933,52.92,35.58-5.516,7.475-10.724,3.985-18.341,9.949-5.074,3.973-2.844,11.715-11.938,14.155C117.68,468.539,85.8,428.4,111.277,404.5Z" transform="translate(-64.174 -270.339)" fill="#bbe2ff"/>
      <path id="Path_14026" data-name="Path 14026" d="M166.7,468.062a.218.218,0,0,1-.214-.191c-.03-.228-3.286-22.918-26.259-30.888a.221.221,0,0,1-.135-.279.215.215,0,0,1,.275-.137c23.233,8.06,26.518,31.014,26.548,31.245a.22.22,0,0,1-.186.247A.167.167,0,0,1,166.7,468.062Z" transform="translate(-85.96 -291.758)" fill="#fff"/>
      <path id="Path_14027" data-name="Path 14027" d="M163.188,440.092a.217.217,0,0,1-.183-.1,20.678,20.678,0,0,1-3.432-9.126.217.217,0,1,1,.432-.023,20.664,20.664,0,0,0,3.364,8.911.222.222,0,0,1-.065.3A.213.213,0,0,1,163.188,440.092Z" transform="translate(-97.04 -288.434)" fill="#fff"/>
      <path id="Path_14028" data-name="Path 14028" d="M163.355,461.715a.213.213,0,0,1-.141-.053c-.284-.246-7.029-5.969-13.718-.051a.214.214,0,0,1-.306-.021.222.222,0,0,1,.022-.31c6.975-6.169,14.211-.014,14.284.049a.222.222,0,0,1,.024.31A.215.215,0,0,1,163.355,461.715Z" transform="translate(-91.109 -304.1)" fill="#fff"/>
      <path id="Path_14029" data-name="Path 14029" d="M192.907,463a.218.218,0,0,1-.215-.193,7.106,7.106,0,0,0-.3-.877c-1.086-2.873-4.39-11.615,1.4-19.4a.214.214,0,0,1,.3-.043.222.222,0,0,1,.042.308c-5.646,7.587-2.407,16.157-1.342,18.974a6.075,6.075,0,0,1,.328.981.22.22,0,0,1-.189.246Z" transform="translate(-114.599 -295.064)" fill="#fff"/>
      <path id="Path_14030" data-name="Path 14030" d="M177.32,499.318a.215.215,0,0,1-.173-.088c-.03-.041-3.1-4.107-7.962-4.7-3.177-.392-6.418.761-9.63,3.422a.215.215,0,0,1-.3-.031.222.222,0,0,1,.031-.309c3.309-2.741,6.659-3.929,9.961-3.518,5.047.622,8.221,4.833,8.252,4.875a.223.223,0,0,1-.043.308A.211.211,0,0,1,177.32,499.318Z" transform="translate(-96.829 -324.02)" fill="#fff"/>
      <path id="Path_14031" data-name="Path 14031" d="M455.748,895.174c0,2.128-6.934,3.854-15.487,3.854s-18.293-3.257-18.293-5.385,9.74-2.323,18.293-2.323S455.748,893.045,455.748,895.174Z" transform="translate(-246.174 -547.111)" fill="#172459" opacity="0.42"/>
      <g id="Group_4936" data-name="Group 4936" transform="translate(150.604 310.577)">
        <path id="Path_14032" data-name="Path 14032" d="M399.841,824.689c-.024,0-.048,0-.072,0a1.094,1.094,0,0,1-1.01-1.169c.006-.089.688-8.9,10.6-8.9,4.525,0,7.721,1.151,9.5,3.422a7.3,7.3,0,0,1,1.335,5.731,1.082,1.082,0,0,1-1.3.823,1.1,1.1,0,0,1-.811-1.32,5.012,5.012,0,0,0-.938-3.888c-1.332-1.681-4.024-2.569-7.785-2.569-7.911,0-8.425,6.562-8.443,6.841A1.09,1.09,0,0,1,399.841,824.689Z" transform="translate(-383.587 -814.62)" fill="#dc2eb5"/>
        <path id="Path_14033" data-name="Path 14033" d="M368.7,834.456h43.279a39.831,39.831,0,0,1,3.081,12.972c.379,7.087-3.081,15.931-3.081,15.931H368.7s-5.579-2.605-5.049-14.776C364.154,836.963,368.7,834.456,368.7,834.456Z" transform="translate(-363.612 -825.758)" fill="#dc2eb5"/>
        <path id="Path_14034" data-name="Path 14034" d="M409.792,884.15s-5.853,1.99-23.38,1.8c-18.588-.2-21.652-4.467-21.652-4.467l-.221-.076c1.2,6.689,4.684,8.316,4.684,8.316H412.5a6.532,6.532,0,0,1-1.737-2.57A23.1,23.1,0,0,1,409.792,884.15Z" transform="translate(-364.139 -852.121)" fill="#ca1ca2"/>
        <ellipse id="Ellipse_172" data-name="Ellipse 172" cx="3.49" cy="14.439" rx="3.49" ry="14.439" transform="translate(45.095 8.664)" fill="#ca1ca2"/>
        <path id="Path_14035" data-name="Path 14035" d="M469.1,865.88a42.148,42.148,0,0,1-1.012-10.16,48.869,48.869,0,0,1,.77-9.048s1.5.994,1.346,9.072S469.1,865.88,469.1,865.88Z" transform="translate(-422.99 -832.617)" fill="#b21695"/>
        <path id="Path_14036" data-name="Path 14036" d="M432.2,863.937a.427.427,0,0,1-.224-.064c-.2-.121-4.812-3.117-4.739-15.855.049-8.483,4.079-13.045,4.251-13.235a.427.427,0,0,1,.611-.027.445.445,0,0,1,.028.621c-.04.044-3.977,4.521-4.023,12.646-.07,12.163,4.281,15.071,4.325,15.1a.446.446,0,0,1,.14.605A.431.431,0,0,1,432.2,863.937Z" transform="translate(-399.775 -825.862)" fill="#fff" opacity="0.43"/>
        <path id="Path_14037" data-name="Path 14037" d="M471.289,863.194c-2.32,0-3.706-7.453-3.706-14.659s1.386-14.659,3.706-14.659a.22.22,0,0,1,0,.44c-1.58,0-3.273,5.714-3.273,14.22s1.693,14.219,3.273,14.219a.22.22,0,0,1,0,.44Z" transform="translate(-422.705 -825.432)" fill="#f54dd5"/>
      </g>
      <g id="Group_4942" data-name="Group 4942" transform="translate(272.77 317.826)">
        <path id="Path_14038" data-name="Path 14038" d="M812.25,845.637H648.066a1.578,1.578,0,0,1,0-3.142H812.25a1.578,1.578,0,0,1,0,3.142Z" transform="translate(-646.637 -837.521)" fill="#09124b" opacity="0.21"/>
        <path id="Path_14039" data-name="Path 14039" d="M812.337,840.6H650.857a2.367,2.367,0,0,1,0-4.713h161.48a2.367,2.367,0,0,1,0,4.713Z" transform="translate(-647.817 -833.811)" fill="#becff4"/>
        <g id="Group_4941" data-name="Group 4941" transform="translate(2.087)">
          <path id="Path_14040" data-name="Path 14040" d="M813.905,835.179H652.425a1.052,1.052,0,0,1,0-2.095h161.48a1.052,1.052,0,0,1,0,2.095Z" transform="translate(-651.472 -832.237)" fill="#b1c2fc"/>
          <g id="Group_4937" data-name="Group 4937" transform="translate(116.679)">
            <rect id="Rectangle_2119" data-name="Rectangle 2119" width="8.239" height="3.365" rx="1.574" fill="#e9efff"/>
            <rect id="Rectangle_2120" data-name="Rectangle 2120" width="8.239" height="3.365" rx="1.574" transform="translate(8.741)" fill="#e9efff"/>
            <path id="Rectangle_2121" data-name="Rectangle 2121" d="M1.574,0h5.09A1.575,1.575,0,0,1,8.239,1.575v.216A1.574,1.574,0,0,1,6.665,3.365H1.574A1.574,1.574,0,0,1,0,1.791V1.574A1.574,1.574,0,0,1,1.574,0Z" transform="translate(17.853)" fill="#e9efff"/>
            <rect id="Rectangle_2122" data-name="Rectangle 2122" width="8.239" height="3.365" rx="1.574" transform="translate(27.119)" fill="#e9efff"/>
            <rect id="Rectangle_2123" data-name="Rectangle 2123" width="8.239" height="3.365" rx="1.574" transform="translate(35.86)" fill="#e9efff"/>
          </g>
          <g id="Group_4938" data-name="Group 4938" transform="translate(71.75)">
            <rect id="Rectangle_2124" data-name="Rectangle 2124" width="8.239" height="3.365" rx="1.574" fill="#e9efff"/>
            <rect id="Rectangle_2125" data-name="Rectangle 2125" width="8.239" height="3.365" rx="1.574" transform="translate(8.741)" fill="#e9efff"/>
            <rect id="Rectangle_2126" data-name="Rectangle 2126" width="8.239" height="3.365" rx="1.574" transform="translate(17.853)" fill="#e9efff"/>
            <rect id="Rectangle_2127" data-name="Rectangle 2127" width="8.239" height="3.365" rx="1.574" transform="translate(27.119)" fill="#e9efff"/>
            <rect id="Rectangle_2128" data-name="Rectangle 2128" width="8.239" height="3.365" rx="1.574" transform="translate(35.86)" fill="#e9efff"/>
          </g>
          <g id="Group_4939" data-name="Group 4939" transform="translate(27.082)">
            <rect id="Rectangle_2129" data-name="Rectangle 2129" width="8.239" height="3.365" rx="1.574" fill="#e9efff"/>
            <rect id="Rectangle_2130" data-name="Rectangle 2130" width="8.239" height="3.365" rx="1.574" transform="translate(8.741)" fill="#e9efff"/>
            <rect id="Rectangle_2131" data-name="Rectangle 2131" width="8.239" height="3.365" rx="1.574" transform="translate(17.853)" fill="#e9efff"/>
            <rect id="Rectangle_2132" data-name="Rectangle 2132" width="8.239" height="3.365" rx="1.574" transform="translate(27.119)" fill="#e9efff"/>
            <rect id="Rectangle_2133" data-name="Rectangle 2133" width="8.239" height="3.365" rx="1.574" transform="translate(35.86)" fill="#e9efff"/>
          </g>
          <g id="Group_4940" data-name="Group 4940" transform="translate(0.005)">
            <path id="Rectangle_2134" data-name="Rectangle 2134" d="M1.574,0h5.09A1.575,1.575,0,0,1,8.239,1.575v.216A1.574,1.574,0,0,1,6.665,3.365H1.574A1.574,1.574,0,0,1,0,1.791V1.574A1.574,1.574,0,0,1,1.574,0Z" fill="#e9efff"/>
            <rect id="Rectangle_2135" data-name="Rectangle 2135" width="8.239" height="3.365" rx="1.574" transform="translate(9.267)" fill="#e9efff"/>
            <rect id="Rectangle_2136" data-name="Rectangle 2136" width="8.239" height="3.365" rx="1.574" transform="translate(18.008)" fill="#e9efff"/>
          </g>
        </g>
      </g>
      <g id="Group_4943" data-name="Group 4943" transform="translate(455.494 89.807)">
        <path id="Path_14053" data-name="Path 14053" d="M26.7-.142A26.206,26.206,0,0,1,53.255,26.107,26.891,26.891,0,0,1,26.415,52.64,26.206,26.206,0,0,1-.142,26.391,26.891,26.891,0,0,1,26.7-.142Z" transform="matrix(0.364, -0.931, 0.931, 0.364, 2.308, 54.445)" fill="#3b85f7" opacity="0.1"/>
        <path id="Path_14052" data-name="Path 14052" d="M24.541-.193A24.08,24.08,0,0,1,48.889,24.155,25.013,25.013,0,0,1,24.155,48.889,24.08,24.08,0,0,1-.193,24.541,25.013,25.013,0,0,1,24.541-.193Z" transform="translate(0 34.98) rotate(-45)" fill="#acbef9"/>
        <path id="Path_14054" data-name="Path 14054" d="M20.525-.065A20.224,20.224,0,0,1,40.986,20.1,20.539,20.539,0,0,1,20.395,40.4,20.224,20.224,0,0,1-.065,20.232,20.539,20.539,0,0,1,20.525-.065Z" transform="translate(10.34 50.802) rotate(-78.004)" fill="#869ee0" opacity="0.46"/>
        <path id="Path_14055" data-name="Path 14055" d="M18.42-.068a18.131,18.131,0,0,1,18.352,18.1A18.458,18.458,0,0,1,18.284,36.263,18.131,18.131,0,0,1-.068,18.165,18.458,18.458,0,0,1,18.42-.068Z" transform="translate(12.43 48.449) rotate(-75.986)" fill="#fff"/>
        <path id="Path_14041" data-name="Path 14041" d="M1148.619,388.439a1.732,1.732,0,1,1-1.732-1.76A1.746,1.746,0,0,1,1148.619,388.439Z" transform="translate(-1112.698 -353.559)" fill="#869ee0"/>
        <path id="Path_14042" data-name="Path 14042" d="M1138.452,379.529a1.181,1.181,0,0,1-.917-.436l-6.6-8.048a1.225,1.225,0,0,1,.153-1.706,1.18,1.18,0,0,1,1.68.155l6.6,8.048a1.225,1.225,0,0,1-.153,1.706A1.176,1.176,0,0,1,1138.452,379.529Z" transform="translate(-1104.459 -343.665)" fill="#869ee0"/>
        <path id="Path_14043" data-name="Path 14043" d="M1134.994,401.716a.585.585,0,0,1-.313-.09.611.611,0,0,1-.194-.834l5.779-9.51a.591.591,0,0,1,.821-.2.611.611,0,0,1,.194.834l-5.779,9.51A.6.6,0,0,1,1134.994,401.716Z" transform="translate(-1106.584 -355.983)" fill="#869ee0"/>
      </g>
      <path id="Path_14044" data-name="Path 14044" d="M690.061,253.649a14.926,14.926,0,0,1-1.457,2.706,5.638,5.638,0,0,1-1.094,1.169,4.305,4.305,0,0,1-.691.446,7.757,7.757,0,0,1-.721.328,6.766,6.766,0,0,1-3.149.441,7.188,7.188,0,0,1-1.577-.338,6.468,6.468,0,0,1-1.5-.714l.966-.242a2.462,2.462,0,0,1-.226.37,3.14,3.14,0,0,1-.239.292,3.81,3.81,0,0,1-.551.488,4.011,4.011,0,0,1-1.294.59,6,6,0,0,1-2.654.029,10.229,10.229,0,0,1-1.234-.314c-.386-.145-.777-.278-1.157-.435s-.754-.325-1.12-.507-.732-.365-1.084-.568a30.156,30.156,0,0,1-4.022-2.726,31.57,31.57,0,0,1-3.565-3.3l1.059-.165a2.632,2.632,0,0,1-.155.323,1.914,1.914,0,0,1-.17.253,2.378,2.378,0,0,1-.425.422,2.812,2.812,0,0,1-1.051.494,3.546,3.546,0,0,1-1.077.095,4.579,4.579,0,0,1-.995-.154,7.614,7.614,0,0,1-1.742-.7,17.633,17.633,0,0,1-1.508-.933,30.509,30.509,0,0,1-5.126-4.612,57.836,57.836,0,0,1-4.232-5.321c-.661-.916-1.278-1.863-1.881-2.818s-1.185-1.915-1.73-2.924l1.177-.156a10.636,10.636,0,0,1-1.028,2.145,12.345,12.345,0,0,1-1.406,1.846,11.061,11.061,0,0,1-3.708,2.711,36.341,36.341,0,0,1-4.289,1.136,13.1,13.1,0,0,0-3.849,1.875.2.2,0,0,1-.283-.052.211.211,0,0,1,.041-.28,12.909,12.909,0,0,1,3.881-2.219,37.039,37.039,0,0,0,4.111-1.344,10.633,10.633,0,0,0,3.235-2.609,11.135,11.135,0,0,0,1.2-1.72,10.067,10.067,0,0,0,.847-1.865.653.653,0,0,1,.821-.435.66.66,0,0,1,.357.279c.621.9,1.269,1.806,1.922,2.694s1.339,1.758,2.013,2.63A65.684,65.684,0,0,0,654,244.932a32.178,32.178,0,0,0,4.838,4.23,13.829,13.829,0,0,0,2.624,1.434,3.823,3.823,0,0,0,1.2.268,1.715,1.715,0,0,0,.5-.063,1.225,1.225,0,0,0,.228-.091l.107-.06c.029-.011.076-.064.073-.028l1.059-.164a37.115,37.115,0,0,0,3.492,3.058,28.715,28.715,0,0,0,3.853,2.549c.334.187.68.345,1.02.519s.695.3,1.041.457.708.255,1.061.384a9.248,9.248,0,0,0,1.05.282,5.141,5.141,0,0,0,2.03.047,3.046,3.046,0,0,0,.871-.337,2.475,2.475,0,0,0,.36-.271,1.836,1.836,0,0,0,.152-.157c.043-.045.1-.127.1-.128l.966-.242a5.389,5.389,0,0,0,1.149.635,6.042,6.042,0,0,0,1.307.375,5.768,5.768,0,0,0,2.712-.2,6.772,6.772,0,0,0,.654-.246,3.439,3.439,0,0,0,.587-.323,4.871,4.871,0,0,0,1.015-.947,14.286,14.286,0,0,0,1.563-2.488.244.244,0,0,1,.332-.106A.255.255,0,0,1,690.061,253.649Z" transform="translate(-365.111 -178.206)" fill="#091035"/>
      <path id="Path_14045" data-name="Path 14045" d="M1047.044,881.633c.078,1.98-15.729,2.2-35.132,2.112-29.727-.132-34.95-1.579-34.95-2.745s15.547-1.478,34.95-1.478S1046.966,879.653,1047.044,881.633Z" transform="translate(-561.609 -540.485)" fill="#0c1447" opacity="0.09"/>
      <g id="Group_4944" data-name="Group 4944" transform="translate(340.775 175.964)">
        <path id="Path_14046" data-name="Path 14046" d="M968.032,616.33,811.07,618.81a6.962,6.962,0,0,1-6.75-8.359l19.047-97.194a6.911,6.911,0,0,1,6.75-5.625H987.964a6.962,6.962,0,0,1,6.75,8.36l-21.283,95.839A5.529,5.529,0,0,1,968.032,616.33Z" transform="translate(-804.185 -507.632)" fill="#bbcaea"/>
        <path id="Path_14047" data-name="Path 14047" d="M975.675,623.263H817.5a5.57,5.57,0,0,1-5.4-6.687l19.134-97.511a5.529,5.529,0,0,1,5.4-4.5H994.826a5.57,5.57,0,0,1,5.4,6.688l-19.151,97.511A5.529,5.529,0,0,1,975.675,623.263Z" transform="translate(-808.621 -511.525)" fill="url(#linear-gradient-13)"/>
        <path id="Path_14048" data-name="Path 14048" d="M1003.2,676.631l-.767,37.661,38.5-.08a98.243,98.243,0,0,0-6.213-16.941c-7.143-15.481-10.781-20.639-10.781-20.639Z" transform="translate(-916.86 -602.526)" fill="#091035" opacity="0.19"/>
        <path id="Path_14049" data-name="Path 14049" d="M976.47,766.676l55.6.481a2.475,2.475,0,0,0,2.473-2.628c-.436-8.007-2.194-32.6-8.041-52.078-6.651-22.166-12.916-37.613-12.916-37.613l-26.515.787s12.47,67.96,7.169,81.542c-2.428,6.217-14.175,3.39-19.137,5.464a1.439,1.439,0,0,0-.682.683C973.36,765.276,974.778,766.661,976.47,766.676Z" transform="translate(-900.732 -601.518)" fill="#bbcaea"/>
        <path id="Path_14050" data-name="Path 14050" d="M979.8,766.665l55,.492a2.471,2.471,0,0,0,2.477-2.477c.041-7.685-.346-31.627-6.209-51.164-6.651-22.166-13.331-38.679-13.331-38.679l-26.515.787s12.885,69.026,7.584,82.608c-2.428,6.217-14.175,3.39-19.137,5.464a1.962,1.962,0,0,0-1.059,1.474A1.234,1.234,0,0,0,979.8,766.665Z" transform="translate(-903.301 -601.518)" fill="#7b97c6"/>
        <ellipse id="Ellipse_177" data-name="Ellipse 177" cx="6.268" cy="6.368" rx="6.268" ry="6.368" transform="translate(94.314 47.738)" fill="#fff" opacity="0.53"/>
      </g>
    </g>
  </g>
</svg>
