<svg xmlns="http://www.w3.org/2000/svg" xmlns:xlink="http://www.w3.org/1999/xlink" width="368.839" height="277.387" viewBox="0 0 368.839 277.387">
  <defs>
    <clipPath id="clip-path">
      <path id="Path_13513" data-name="Path 13513" d="M53.966,304.778c4.583,2.273,16.55,3.911,26.141,4.013,21.807.236,51.2-2.618,53.033-8.868,1.328-4.5-3.364-6.119-7.216-8.65s-57.247-.476-63.138,1.845S53.966,304.778,53.966,304.778Z" transform="translate(-53.966 -290.111)" fill="none"/>
    </clipPath>
  </defs>
  <g id="Group_4759" data-name="Group 4759" transform="translate(-26.686 -231.071)">
    <g id="Group_4709" data-name="Group 4709" transform="translate(63.656 245.894)">
      <g id="Group_4699" data-name="Group 4699" transform="translate(132.325 93.268)">
        <rect id="Rectangle_2073" data-name="Rectangle 2073" width="76.942" height="132.557" fill="#1f398c"/>
        <rect id="Rectangle_2074" data-name="Rectangle 2074" width="70.222" height="123.731" transform="translate(4.05 2.883)" fill="#1f398c" opacity="0.56" style="mix-blend-mode: screen;isolation: isolate"/>
        <rect id="Rectangle_2075" data-name="Rectangle 2075" width="59.97" height="101.56" transform="translate(8.484 9.38)" fill="#1f398c" opacity="0.75" style="mix-blend-mode: multiply;isolation: isolate"/>
      </g>
      <g id="Group_4707" data-name="Group 4707" transform="translate(25.272)">
        <path id="Path_13424" data-name="Path 13424" d="M151.8,329.967c.008-1.812-.128-6.663-.826-13.371-2.118-20.078-14.439-61.173-30.638-74.188-8.357-2.335-69.614-7.255-69.614-7.255l-8.053,4.928,27.492,95.035Z" transform="translate(-42.67 -235.153)" fill="#96c3f2"/>
        <g id="Group_4706" data-name="Group 4706" transform="translate(19.455 8.624)">
          <g id="Group_4705" data-name="Group 4705">
            <g id="Group_4700" data-name="Group 4700">
              <path id="Path_13425" data-name="Path 13425" d="M47.666,237.528c5.541,5.363,13.567,20.125,24.05,74.442,17.438-1.333,43.411-1.108,43.411-1.108s-1.3-49.43-26.071-69.954C73.067,239.148,47.666,237.528,47.666,237.528Z" transform="translate(-47.666 -237.528)" fill="#7aa7d6"/>
            </g>
            <g id="Group_4702" data-name="Group 4702" transform="translate(0.397 0.007)" opacity="0.54" style="mix-blend-mode: multiply;isolation: isolate">
              <g id="Group_4701" data-name="Group 4701">
                <path id="Path_13426" data-name="Path 13426" d="M60.1,265.753,89.3,266.8c4.587-4.732,2.644-20.419-.152-25.895-15.989-1.761-41.382-3.377-41.382-3.377C50.147,239.959,54.832,247.883,60.1,265.753Z" transform="translate(-47.768 -237.53)" fill="#7aa7d6"/>
              </g>
            </g>
            <g id="Group_4703" data-name="Group 4703" transform="translate(12.283 27.383)" style="mix-blend-mode: multiply;isolation: isolate">
              <path id="Path_13427" data-name="Path 13427" d="M50.82,245.069l29.951,1.28,10.017,34.444-31.594.89Z" transform="translate(-50.82 -245.069)" fill="#7aa7d6"/>
            </g>
            <g id="Group_4704" data-name="Group 4704" transform="translate(20.657 62.852)" opacity="0.54" style="mix-blend-mode: multiply;isolation: isolate">
              <path id="Path_13428" data-name="Path 13428" d="M84.507,254.836,99.5,265.443l-43.135.982-3.392-10.444Z" transform="translate(-52.971 -254.836)" fill="#7aa7d6"/>
            </g>
          </g>
        </g>
        <path id="Path_13429" data-name="Path 13429" d="M75.818,247.291l4.445,16.192-25.574.437-3.9-17.093Z" transform="translate(-19.165 -204.436)" fill="#96c3f2"/>
        <path id="Path_13430" data-name="Path 13430" d="M76.377,255.225c.175.421-.21.781-.888.8l-21.456.69c-.67.022-1.219-.305-1.238-.723l-.047-1.253c-.016-.4.495-.734,1.129-.759l20.51-.654a1.575,1.575,0,0,1,1.46.668Z" transform="translate(-13.504 -187.338)" fill="#7aa7d6" style="mix-blend-mode: multiply;isolation: isolate"/>
        <path id="Path_13431" data-name="Path 13431" d="M66.231,253.187c.093.185-.109.356-.463.363l-11.18.479c-.354.015-.639-.134-.654-.323l-.023-.57c-.012-.182.253-.338.588-.349l10.7-.454a.866.866,0,0,1,.755.3Z" transform="translate(-10.141 -189.948)" fill="#7aa7d6" style="mix-blend-mode: multiply;isolation: isolate"/>
        <path id="Path_13432" data-name="Path 13432" d="M51.245,237.925c2.216,3.366,7.5,10.353,15.272,40.137s8.769,38.575,8.769,41.165-6.826-1.315-6.826-1.315S59.017,270.814,52.9,254.5s-6.382-18.131-6.382-18.131Z" transform="translate(-31.525 -231.966)" fill="#96c3f2"/>
        <path id="Path_13433" data-name="Path 13433" d="M76.5,255.137a.911.911,0,0,1-.662,1.282l-7.364.076a1.681,1.681,0,0,1-1.674-1.242l-2.745-8.185a.91.91,0,0,1,.989-1.249l7.4.483a1.736,1.736,0,0,1,1.367,1.264Z" transform="translate(19.091 -207.102)" fill="#7aa7d6"/>
        <path id="Path_13434" data-name="Path 13434" d="M75.377,250.194l-10.21-.105.794,3.642,10.3-.171Zm-8.917,5.719.74,3.511,10.436-.625-.841-3.221Z" transform="translate(22.438 -195.852)" fill="#7aa7d6"/>
      </g>
      <g id="Group_4708" data-name="Group 4708" transform="translate(57.695 93.268)">
        <path id="Path_13435" data-name="Path 13435" d="M51.639,404.132l75.413-10.812.654-132.483L51,264.561Z" transform="translate(-50.996 -260.837)" fill="#1a1a4f"/>
        <path id="Path_13436" data-name="Path 13436" d="M54.422,370.6l56.722-8.131.5-98.6-57.715,2.805Z" transform="translate(-42.512 -252.861)" fill="#11103d" style="mix-blend-mode: multiply;isolation: isolate"/>
      </g>
      <path id="Path_13437" data-name="Path 13437" d="M96.16,471.715s.491-135.481-.97-152.014c-2.776-31.458-13.742-68.363-25.685-84.548L36.18,245.51l.557,217.3Z" transform="translate(-36.18 -235.153)" fill="#1f398c"/>
    </g>
    <path id="Path_13438" data-name="Path 13438" d="M108.343,243.21c-8.146,2.106-7.461,10.124-8.364,15.611-.9,5.425-4.077,15.193-8.15,19.838S78.25,298.918,78.25,301.028s13.123,8.443,13.123,8.443,17.586-15.967,21.273-23.633c4.981-10.346,11.312-25.325,8.6-33.343S108.343,243.21,108.343,243.21Z" transform="translate(149.229 31.941)"/>
    <g id="Group_4712" data-name="Group 4712" transform="translate(295.707 321.405)">
      <g id="Group_4711" data-name="Group 4711">
        <g id="Group_4710" data-name="Group 4710" transform="translate(0.651 134.125)">
          <path id="Path_13439" data-name="Path 13439" d="M132.97,293.29c1.881,10.843,3.03,16.337-3.22,17.245-5.584.813-7.072-2.1-10.428-.566-8.614,3.918-12.009,3.344-14.77,3.344-11,0-10.892-7.081-2.921-9.394,7.991-2.335,14.17-11.036,14.17-11.036Z" transform="translate(-95.938 -292.883)"/>
          <path id="Path_13440" data-name="Path 13440" d="M124.17,294.272c-2.227,1.816-7.924,5.193-9.887,6.674a30.637,30.637,0,0,1-15.806,5.57c-1.974.08-2.761-1.355-.709-2.255a34.522,34.522,0,0,0,8.606-4.27c5.031-3.159,7.017-6.689,8.24-6.881,1.238-.181,4.556,1.1,4.556,1.1Z" transform="translate(-94.133 -292.333)" fill="#1e2123"/>
        </g>
        <path id="Path_13441" data-name="Path 13441" d="M133.987,339.328c-4.287-7.6,1.546-55.948-3.614-74.565-4.054-20.887-34.6,1.9-34.6,1.9,2.722,13.3,7.126,11.381,7.126,17.416s1.456,57.342,4.7,60.367.755,53.228.755,53.228l30.14,1.649S141.764,353.131,133.987,339.328Z" transform="translate(-95.771 -255.947)"/>
      </g>
      <path id="Path_13442" data-name="Path 13442" d="M111.844,266.163c-1.137,13.926-2.488,38.833-.23,43.685s7.017,20.684,6.11,42.21-.845,20.383-.845,20.383l-13.641-1.6,7.469-2.328c.678-.211-8.777-2.538-5.857-3.384s5.4.723,6.994-1.532-.8-37.268-2.04-44.255C104.149,287.689,111.844,266.163,111.844,266.163Z" transform="translate(-74.161 -229.067)" fill="#1e2123"/>
    </g>
    <path id="Path_13443" data-name="Path 13443" d="M93.749,265.043c-.23-2.237-5.533-7.2-9.276-6.823a11.3,11.3,0,0,0-5.191,2.31,11,11,0,0,0-2.177,2.792c-.623,1.667-1.663,4.223-.347,5.472s1.308-3.148,2.395-4.136,1.355-.842,1.355-.842a15.828,15.828,0,0,1-1.733,3.515s-.946,5.029.826,6.729c.6.566.483-1.62,1.546-4.459,1.11-2.967,1.978-3.4,1.978-3.4a8.648,8.648,0,0,0-1.842,3.043c-.981,2.382-1.787,6.1-.849,6.754,1.137.77,2.309-1.907,3.216-4.158a5.758,5.758,0,0,1,1.893-2.429c.4-.243-4.731,3.918-2.508,7.183,1.1,1.619,4.895-6.286,6.118-7.379.506-.465,1.569.628.716,1.511-2.979,3.123-2.551,3.591-1.46,3.138,2.554-1.06,4.28-1.206,4.961-2.524C94.609,268.874,93.749,265.043,93.749,265.043Z" transform="translate(143.076 71.383)"/>
    <g id="Group_4713" data-name="Group 4713" transform="translate(222.666 239.514)">
      <path id="Path_13444" data-name="Path 13444" d="M91.682,236.955c2.738,2.349,5.553,5.273,11.1,6.424s5.07,2.4,5.07,2.4l1.219,12.194s-19.61.53-23.878.425S91.682,236.955,91.682,236.955Z" transform="translate(-56.242 -224.032)" fill="#d3a994"/>
      <path id="Path_13445" data-name="Path 13445" d="M85.589,261.495c-.043-.044-.467-.8-.506-.839-5.362-4.91-7.893-8.7-8.068-13.2a17.143,17.143,0,0,1,1.46-2.8c.779-9.685,23.1-14.449,26.445-8.919,14.221,23.611,4.124,32.083-.483,34.781-2.364,1.326-2.621,2.2-5.109,1.7-2.57-.516-3.917-1.907-7.5-4.6-1.737.439-3.473,1.2-4.12.4a.89.89,0,0,1-.276-.385C87.439,265.678,85.784,262.795,85.589,261.495Z" transform="translate(-77.014 -233.396)" fill="#d3a994"/>
    </g>
    <g id="Group_4714" data-name="Group 4714" transform="translate(219.629 237.536)">
      <path id="Path_13446" data-name="Path 13446" d="M78.926,247.217c-2.29,2.916-4.264,5.109-.771,4.75S86.7,247.954,88.1,245.5c2.227-3.827,1.429-6.409,1.429-6.409Z" transform="translate(-76.166 -216.426)"/>
      <path id="Path_13447" data-name="Path 13447" d="M115.478,243.8c-2.262,1.155-18.466,5.578-18.466,5.578s-3.4,9.674-6.791,11.943-11.336,3.65-13.987,6.05c2.7-6.8,4.33-8.428,4.33-8.428s-4.217-8.312-2.352-14.159c1.18-3.686,7.819-7.982,10.537-8.962s10.37-4.753,16.464-1.63S115.478,243.8,115.478,243.8Z" transform="translate(-76.234 -232.51)" fill="#1e2123"/>
      <path id="Path_13448" data-name="Path 13448" d="M96.07,234.059c6.094,3.13,10.284,9.6,10.284,9.6-1.92.97-15.031,4.514-18.47,5.589-1.511-4.989-4.677-11.457-8.956-13.243a5.955,5.955,0,0,1,.681-.312C82.324,234.72,89.991,230.947,96.07,234.059Z" transform="translate(-68.437 -232.852)" fill="#4f2948"/>
    </g>
    <path id="Path_13449" data-name="Path 13449" d="M84.851,262.088c6.394-12.982,24.63-24.381,24.63-24.381,11.312-.316,17.243,3.708,22.874,7.364,6.951,4.517,24.755,22.489,25.8,24.054,8.189,12.277,17.652,10.128,20.37,30.7.323,2.448-46.982,34.229-50.241,26.273-3.8-9.271-24.131-35.173-26.69-38.586C93.309,276.479,83.107,265.622,84.851,262.088Z" transform="translate(167.764 17.417)"/>
    <path id="Path_13450" data-name="Path 13450" d="M99.524,259.227S88.333,266.5,87.258,267.6a14.328,14.328,0,0,0-2.5,4.931,14.112,14.112,0,0,0-.463,3.78c-.109,1.681,1.639,1.028,2.235-.538.51-1.311,1.048-2.861,1.048-2.861l1.1-1.089s-1.534,4.4-1.694,4.877c-.175.49-.312,3.159-.479,3.849-.218.955,1.612,1.834,2.29.436a52.105,52.105,0,0,0,1.807-5.327c.347-.966.6-1.118.6-1.118-.907,2.705-1.947,6.01-1.713,6.965s2.037.694,2.6-.915a28.471,28.471,0,0,1,2.282-4.3l-2.083,4.27a1.2,1.2,0,0,0,1.246.149,16.094,16.094,0,0,0,4.221-3.9c2.126-2.571,2.753-3.326,4.373-5.454,1.009-1.3,4.918-2.324,4.977-2.622C107.819,264.8,103.905,258.25,99.524,259.227Z" transform="translate(166.72 73.829)"/>
    <g id="Group_4717" data-name="Group 4717" transform="translate(304.36 299.87)">
      <g id="Group_4715" data-name="Group 4715" transform="translate(55.77 149.857)">
        <path id="Path_13451" data-name="Path 13451" d="M140.657,291.285c5.884,6.907,9.973,15.324,4.435,18.785-4.977,3.119-6.129.6-8.618,3.464-6.367,7.343-10.857,7.644-13.493,8.784-10.561,4.583-13.843-2.262-7.294-7.807,6.53-5.552,7.469-15.782,7.469-15.782Z" transform="translate(-112.315 -291.285)"/>
        <path id="Path_13452" data-name="Path 13452" d="M133.805,292.491c-1.258,2.669-5.109,8.3-6.281,10.52a29.785,29.785,0,0,1-12.5,11.929c-1.861.886-3.31-.152-1.76-1.888,1.558-1.714,4.2-3.6,6.542-9.173s1.32-7.052,2.422-7.749c1.083-.7,6.76-1.612,6.76-1.612Z" transform="translate(-111.452 -288.112)" fill="#1e2123"/>
      </g>
      <g id="Group_4716" data-name="Group 4716">
        <path id="Path_13453" data-name="Path 13453" d="M97.993,280.375c2.835,6.794,5.946,6.961,11.375,16.671,5.588,9.983,28.672,58.032,31.908,58.032s19.217,59.256,19.217,59.256,25.724-8.171,25.572-10.295C183.141,362.254,162,339.968,162,339.968s-7.005-9.4-9.03-25.259-6.059-28.092-6.939-32.442c-2.508-12.383-10.685-22.58-26.25-32.072C115.049,247.315,97.993,280.375,97.993,280.375Z" transform="translate(-97.993 -250.017)"/>
      </g>
      <path id="Path_13454" data-name="Path 13454" d="M110.677,260.469c1.819,8.439,7.247,51.7,9.957,54.659s3.17,2.531,3.17,4.637,3.17.421,4.977,3.377,15.389,35.453,14.034,42.624-10.4,11.824-7.695,10.978,9.05-2.535,9.05-2.535l-6.336,3.8,11.523-1.474s1.149-28.7-18.31-58.461C122.157,304.477,110.677,260.469,110.677,260.469Z" transform="translate(-61.285 -222.515)" fill="#1e2123"/>
    </g>
    <path id="Path_13455" data-name="Path 13455" d="M79.586,251.529c2.714-.632,14.034-8.86,14.49-12.027s13.575,12.659,13.575,12.659l-6.791,7.6s-6.784,2.742-9.276.207-6.11-4.637-8.828-4.637S79.586,251.529,79.586,251.529Z" transform="translate(153.096 21.084)" fill="#11103d"/>
    <g id="Group_4757" data-name="Group 4757" transform="translate(26.686 365.779)">
      <g id="Group_4749" data-name="Group 4749" transform="translate(90.24 79.684)">
        <g id="Group_4718" data-name="Group 4718" transform="translate(0 2.178)">
          <path id="Path_13456" data-name="Path 13456" d="M141.613,290.723c-12.609.984-30.681,5.727-46.024,2.858a92.254,92.254,0,0,0-36.359.49c-10.054,2.135-10.187,34.824-8.656,37.2,9.537,14.827,89.5,6.66,101-1.925C163.088,320.758,150.814,290.008,141.613,290.723Z" transform="translate(-49.86 -290.711)"/>
          <path id="Path_13457" data-name="Path 13457" d="M55.535,295.591c3.446,2.142,3.368,15.843,8.547,23.887s-1.149,17.71,10.935,19.852,41.476,2.36,53.212-2.949c10.058-4.568,8.913-8.86.28-17.971s-13.224-23.6-13.224-23.6l-7.484.534S122.474,316,124.775,322.971s1.149,9.118-12.079,10.723-32.492,6.7-35.95-4.024-7.48-13.944-9.209-21.454a83.683,83.683,0,0,0-4.023-12.877Z" transform="translate(-33.435 -279.932)" fill="#1e2123"/>
        </g>
        <path id="Path_13458" data-name="Path 13458" d="M54.216,300.494c4.977-1.264,6.565,3.853,21.043,5.538s50.973-1.739,58.216-5.066c6.036-2.767,7.013-8.065,2.492-8.915s-17.819,2.055-31.857,1.634-27.153-1.634-37.165-2.052-12.282,1.685-14.093,3.8S54.216,300.494,54.216,300.494Z" transform="translate(-42.809 -286.248)" fill="#1e2123"/>
        <g id="Group_4748" data-name="Group 4748" transform="translate(15.99)">
          <g id="Group_4747" data-name="Group 4747" clip-path="url(#clip-path)">
            <g id="Group_4725" data-name="Group 4725" transform="translate(10.491 5.219)">
              <g id="Group_4719" data-name="Group 4719" transform="translate(0 7.167)">
                <path id="Path_13533" data-name="Path 13533" d="M0,0,20.244.143l.015,2.027L.015,2.027Z" transform="translate(2.932 4.163) rotate(-6.022)" fill="#d3d3d3"/>
                <path id="Path_13459" data-name="Path 13459" d="M79.216,295.7l-4.567-2.181-17.809,1.709,2.232,2.454Z" transform="translate(-56.137 -293.522)" fill="#e8e8e8"/>
                <path id="Path_13460" data-name="Path 13460" d="M59.816,298.461,56.8,296.333l.593-.823-.738-.557,1.224,0-.521-.965,2.232,2.454Z" transform="translate(-56.66 -292.283)" fill="#bfbbb8"/>
              </g>
              <g id="Group_4721" data-name="Group 4721" transform="translate(3.43 3.777)">
                <g id="Group_4720" data-name="Group 4720">
                  <path id="Path_13534" data-name="Path 13534" d="M0,0,20.242.143l.015,2.025L.015,2.025Z" transform="matrix(0.994, -0.105, 0.105, 0.994, 2.938, 4.162)" fill="#d3d3d3"/>
                  <path id="Path_13461" data-name="Path 13461" d="M80.1,294.769l-4.563-2.181L57.723,294.3l2.232,2.447Z" transform="translate(-57.015 -292.588)" fill="#e8e8e8"/>
                  <path id="Path_13462" data-name="Path 13462" d="M60.7,297.521,57.7,295.4l.589-.823-.745-.564,1.229.011-.521-.965,2.232,2.447Z" transform="translate(-57.541 -291.347)" fill="#bfbbb8"/>
                </g>
                <path id="Path_13463" data-name="Path 13463" d="M58.4,295.125l20.189-1.8-.171.273Z" transform="translate(-55.059 -290.643)" fill="#e8e8e8" opacity="0.65"/>
                <path id="Path_13464" data-name="Path 13464" d="M78.315,293.4l-19.881,2.142.175.305,19.741-2.131Z" transform="translate(-54.958 -290.445)" fill="#e8e8e8" opacity="0.65"/>
                <path id="Path_13465" data-name="Path 13465" d="M58.445,295.741,78.523,293.9l-.1-.312-20,1.936Z" transform="translate(-54.992 -289.967)" fill="#e8e8e8" opacity="0.65"/>
              </g>
              <g id="Group_4724" data-name="Group 4724" transform="translate(0.228)">
                <g id="Group_4723" data-name="Group 4723">
                  <g id="Group_4722" data-name="Group 4722" transform="translate(0 2.054)">
                    <path id="Path_13466" data-name="Path 13466" d="M78,292.931l-.323.255.164.684-.072.131.042.333-20.147,1.979-.228-2.011,20.33-1.99Z" transform="translate(-54.65 -291.587)" fill="#d3d3d3"/>
                    <path id="Path_13467" data-name="Path 13467" d="M59.73,296.841l-3.012-2.124.327-.684-.137-.408.3-.539-.065-.972L59.5,294.83Z" transform="translate(-56.719 -292.114)" fill="#bfbbb8"/>
                  </g>
                  <path id="Path_13468" data-name="Path 13468" d="M57.537,294.247l20.185-1.791-.175.27Z" transform="translate(-54.351 -289.158)" fill="#e8e8e8" opacity="0.65"/>
                  <path id="Path_13469" data-name="Path 13469" d="M77.448,292.531,57.571,294.68l.175.294,19.741-2.124Z" transform="translate(-54.252 -288.962)" fill="#e8e8e8" opacity="0.65"/>
                  <path id="Path_13470" data-name="Path 13470" d="M56.754,293.378c.576.708,18.882-1.431,19.478-1.83a17.207,17.207,0,0,0,3.657,2.734c-1.086.447-20.6,2.233-20.6,2.233Z" transform="translate(-56.617 -291.548)" fill="#e8e8e8"/>
                </g>
                <path id="Path_13471" data-name="Path 13471" d="M57.582,294.866l19.9-2.046.083-.106-20,1.933Z" transform="translate(-54.288 -288.482)" fill="#e8e8e8" opacity="0.65"/>
              </g>
            </g>
            <g id="Group_4732" data-name="Group 4732" transform="translate(29.589 12.173)">
              <g id="Group_4726" data-name="Group 4726" transform="translate(0 7.005)">
                <path id="Path_13537" data-name="Path 13537" d="M0,0,20.26.007V2.032L0,2.025Z" transform="translate(2.767 2.692) rotate(-0.291)" fill="#d3d3d3"/>
                <path id="Path_13472" data-name="Path 13472" d="M83.991,297.988l-4.309-2.6-17.911.046,1.962,2.645Z" transform="translate(-60.965 -295.392)" fill="#e8e8e8"/>
                <path id="Path_13473" data-name="Path 13473" d="M64.341,300.075l-2.769-2.39.677-.766-.685-.627,1.221.121-.415-1.007,1.962,2.645Z" transform="translate(-61.564 -295.358)" fill="#bfbbb8"/>
              </g>
              <g id="Group_4728" data-name="Group 4728" transform="translate(3.787 3.955)">
                <g id="Group_4727" data-name="Group 4727">
                  <path id="Path_13538" data-name="Path 13538" d="M0,0,20.256.007V2.034L0,2.027Z" transform="matrix(1, -0.005, 0.005, 1, 2.761, 2.69)" fill="#d3d3d3"/>
                  <path id="Path_13474" data-name="Path 13474" d="M84.952,297.144l-4.3-2.592-17.9.042L64.7,297.24Z" transform="translate(-61.938 -294.552)" fill="#e8e8e8"/>
                  <path id="Path_13475" data-name="Path 13475" d="M65.31,299.238l-2.773-2.393.677-.766-.677-.624,1.217.121-.41-1.011,1.954,2.645Z" transform="translate(-62.537 -294.521)" fill="#bfbbb8"/>
                </g>
                <path id="Path_13476" data-name="Path 13476" d="M63.34,295.389l20.284.1-.21.252Z" transform="translate(-60.214 -292.35)" fill="#e8e8e8" opacity="0.65"/>
                <path id="Path_13477" data-name="Path 13477" d="M83.364,295.487l-20.007.284.137.312,19.869-.28Z" transform="translate(-60.163 -292.093)" fill="#e8e8e8" opacity="0.65"/>
                <path id="Path_13478" data-name="Path 13478" d="M63.336,295.948l20.174.032-.069-.308-20.109.057Z" transform="translate(-60.236 -291.607)" fill="#e8e8e8" opacity="0.65"/>
              </g>
              <g id="Group_4731" data-name="Group 4731" transform="translate(0.783)">
                <g id="Group_4730" data-name="Group 4730">
                  <g id="Group_4729" data-name="Group 4729" transform="translate(0 0.259)">
                    <path id="Path_13479" data-name="Path 13479" d="M83.083,294.946l-.35.224.083.7-.076.124v.341l-20.257.089-.008-2.022,20.44-.085Z" transform="translate(-59.711 -291.481)" fill="#d3d3d3"/>
                    <path id="Path_13480" data-name="Path 13480" d="M64.538,298.475l-2.772-2.39.41-.652-.1-.422.361-.507.042-.968,2.05,2.919Z" transform="translate(-61.766 -293.534)" fill="#bfbbb8"/>
                  </g>
                  <path id="Path_13481" data-name="Path 13481" d="M62.568,294.436l20.276.1-.2.252Z" transform="translate(-59.443 -290.903)" fill="#e8e8e8" opacity="0.65"/>
                  <path id="Path_13482" data-name="Path 13482" d="M82.59,294.533l-20,.284.137.312,19.873-.276Z" transform="translate(-59.386 -290.649)" fill="#e8e8e8" opacity="0.65"/>
                  <path id="Path_13483" data-name="Path 13483" d="M61.879,293.474c.5.752,18.952.33,19.575-.011a16.9,16.9,0,0,0,3.357,3.061c-1.129.341-20.744.305-20.744.305Z" transform="translate(-61.438 -293.463)" fill="#bfbbb8"/>
                </g>
                <path id="Path_13484" data-name="Path 13484" d="M62.565,295l20-.188.107-.1-20.113.06Z" transform="translate(-59.462 -290.166)" fill="#e8e8e8" opacity="0.65"/>
              </g>
            </g>
            <g id="Group_4739" data-name="Group 4739" transform="translate(32.6 2.332)">
              <g id="Group_4733" data-name="Group 4733" transform="translate(0 6.92)">
                <path id="Path_13535" data-name="Path 13535" d="M0,0,2.027.019l.178,20.228L.178,20.228Z" transform="matrix(0.131, -0.991, 0.991, 0.131, 2.4, 4.879)" fill="#d3d3d3"/>
                <path id="Path_13485" data-name="Path 13485" d="M84.259,298.01l-3.89-3.117-17.74-2.234,1.552,2.872Z" transform="translate(-61.496 -292.659)" fill="#e8e8e8"/>
                <path id="Path_13486" data-name="Path 13486" d="M64.737,297.538l-2.4-2.72.783-.674-.582-.706,1.19.273-.259-1.053,1.552,2.872Z" transform="translate(-62.338 -292.659)" fill="#bfbbb8"/>
              </g>
              <g id="Group_4735" data-name="Group 4735" transform="translate(4.198 4.38)">
                <g id="Group_4734" data-name="Group 4734">
                  <path id="Path_13536" data-name="Path 13536" d="M0,0,2.027.019,2.2,20.251.178,20.232Z" transform="matrix(0.131, -0.991, 0.991, 0.131, 2.392, 4.876)" fill="#d3d3d3"/>
                  <path id="Path_13487" data-name="Path 13487" d="M85.338,297.307l-3.887-3.117L63.7,291.959l1.555,2.869Z" transform="translate(-62.582 -291.959)" fill="#e8e8e8"/>
                  <path id="Path_13488" data-name="Path 13488" d="M65.808,296.835l-2.392-2.724.78-.67-.589-.709,1.194.277-.262-1.05,1.555,2.869Z" transform="translate(-63.416 -291.959)" fill="#bfbbb8"/>
                </g>
                <path id="Path_13489" data-name="Path 13489" d="M64.184,292.859l20.079,2.67-.243.227Z" transform="translate(-61.194 -289.592)" fill="#e8e8e8" opacity="0.65"/>
                <path id="Path_13490" data-name="Path 13490" d="M84.036,295.3l-19.858-2.262.087.33,19.729,2.244Z" transform="translate(-61.211 -289.132)" fill="#e8e8e8" opacity="0.65"/>
                <path id="Path_13491" data-name="Path 13491" d="M64.127,293.372l19.987,2.592-.023-.322-19.934-2.49Z" transform="translate(-61.358 -288.822)" fill="#e8e8e8" opacity="0.65"/>
              </g>
              <g id="Group_4738" data-name="Group 4738" transform="translate(1.727)">
                <g id="Group_4737" data-name="Group 4737">
                  <g id="Group_4736" data-name="Group 4736" transform="translate(0 0.285)">
                    <path id="Path_13492" data-name="Path 13492" d="M84.023,294.862l-.38.177-.023.7-.1.114-.046.337L63.4,293.705l.285-2.007,20.257,2.511Z" transform="translate(-61.001 -288.549)" fill="#d3d3d3"/>
                    <path id="Path_13493" data-name="Path 13493" d="M65.177,295.987l-2.4-2.716.5-.6-.034-.436.43-.454.182-.95,1.605,3.149Z" transform="translate(-62.781 -290.831)" fill="#bfbbb8"/>
                  </g>
                  <path id="Path_13494" data-name="Path 13494" d="M63.55,291.809l20.071,2.67-.236.223Z" transform="translate(-60.557 -287.975)" fill="#e8e8e8" opacity="0.65"/>
                  <path id="Path_13495" data-name="Path 13495" d="M83.4,294.245l-19.862-2.262.091.337,19.729,2.241Z" transform="translate(-60.577 -287.517)" fill="#e8e8e8" opacity="0.65"/>
                  <path id="Path_13496" data-name="Path 13496" d="M63,290.753c.389.813,18.727,2.731,19.392,2.477a16.785,16.785,0,0,0,2.878,3.461c-1.172.192-20.6-2.335-20.6-2.335Z" transform="translate(-62.154 -290.753)" fill="#e8e8e8"/>
                </g>
                <path id="Path_13497" data-name="Path 13497" d="M63.494,292.321l19.843,2.358.118-.085L63.521,292.1Z" transform="translate(-60.718 -287.206)" fill="#e8e8e8" opacity="0.65"/>
              </g>
            </g>
            <g id="Group_4746" data-name="Group 4746" transform="translate(50.619 5.368)">
              <g id="Group_4740" data-name="Group 4740" transform="translate(1.189 7.267)">
                <path id="Path_13498" data-name="Path 13498" d="M88.124,295.91,68.7,301.25l-.609-1.94,19.429-5.341Z" transform="translate(-64.908 -292.591)" fill="#d3d3d3"/>
                <path id="Path_13499" data-name="Path 13499" d="M89.5,294.97l-4.913-1.379L67.4,298.268l2.673,2.043Z" transform="translate(-66.895 -293.59)" fill="#e8e8e8"/>
                <path id="Path_13500" data-name="Path 13500" d="M71.058,298.861l-3.373-1.582.426-.9-.841-.433,1.206-.2-.7-.865,2.673,2.043Z" transform="translate(-67.27 -290.201)" fill="#bfbbb8"/>
              </g>
              <g id="Group_4742" data-name="Group 4742" transform="translate(3.909 3.359)">
                <g id="Group_4741" data-name="Group 4741">
                  <path id="Path_13501" data-name="Path 13501" d="M88.833,294.833,69.4,300.17l-.616-1.939,19.428-5.337Z" transform="translate(-65.606 -291.517)" fill="#d3d3d3"/>
                  <path id="Path_13502" data-name="Path 13502" d="M90.2,293.89l-4.909-1.376L68.1,297.188l2.67,2.039Z" transform="translate(-67.59 -292.514)" fill="#e8e8e8"/>
                  <path id="Path_13503" data-name="Path 13503" d="M71.764,297.78,68.395,296.2l.418-.9-.844-.429,1.209-.2-.7-.862,2.67,2.039Z" transform="translate(-67.969 -289.127)" fill="#bfbbb8"/>
                </g>
                <path id="Path_13504" data-name="Path 13504" d="M68.9,298.171l19.512-5.163-.118.3Z" transform="translate(-65.267 -291.214)" fill="#e8e8e8" opacity="0.65"/>
                <path id="Path_13505" data-name="Path 13505" d="M88.1,293.092l-19.135,5.447.228.269,19-5.419Z" transform="translate(-65.075 -290.993)" fill="#e8e8e8" opacity="0.65"/>
                <path id="Path_13506" data-name="Path 13506" d="M69.05,298.752l19.394-5.2-.167-.287-19.3,5.27Z" transform="translate(-65.049 -290.535)" fill="#e8e8e8" opacity="0.65"/>
              </g>
              <g id="Group_4745" data-name="Group 4745">
                <g id="Group_4744" data-name="Group 4744">
                  <g id="Group_4743" data-name="Group 4743" transform="translate(0.334 2.143)">
                    <path id="Path_13507" data-name="Path 13507" d="M87.744,292.743l-.27.305.285.646-.038.145.107.319L68.4,299.495l-.616-1.94,19.607-5.376Z" transform="translate(-64.942 -292.179)" fill="#d3d3d3"/>
                    <path id="Path_13508" data-name="Path 13508" d="M70.5,297.246l-3.377-1.575.2-.734-.216-.383.194-.578-.251-.943,2.837,2.273Z" transform="translate(-67.051 -289.931)" fill="#bfbbb8"/>
                  </g>
                  <path id="Path_13509" data-name="Path 13509" d="M67.9,297.47l19.5-5.163-.118.294Z" transform="translate(-64.264 -289.7)" fill="#e8e8e8" opacity="0.65"/>
                  <path id="Path_13510" data-name="Path 13510" d="M87.1,292.388l-19.136,5.454.228.266,19-5.415Z" transform="translate(-64.077 -289.486)" fill="#e8e8e8" opacity="0.65"/>
                  <path id="Path_13511" data-name="Path 13511" d="M66.965,296.666c.7.6,18.306-4.594,18.8-5.077a18.444,18.444,0,0,0,4.124,2.07c-.977.621-19.829,5.669-19.829,5.669Z" transform="translate(-66.965 -291.589)" fill="#e8e8e8"/>
                </g>
                <path id="Path_13512" data-name="Path 13512" d="M68.041,298.043,87.2,292.681l.072-.117-19.3,5.27Z" transform="translate(-64.049 -289.024)" fill="#e8e8e8" opacity="0.65"/>
              </g>
            </g>
          </g>
        </g>
      </g>
      <path id="Path_13514" data-name="Path 13514" d="M63.474,289.249c1.367,1.656,9.864,2.909,11.768,3.987,0,0,3.59,4.162,3.894,5.262s.767,4.957-.678,4.118-1.768-3.348-2.835-3.9a55.517,55.517,0,0,0-6.036-1.8s3.711,2.044,4.011,3.148-1.075,1.148-4.49-.545-5.23-.345-7.664-2.393-5.736-4.568-5.736-4.568Z" transform="translate(57.308 -212.694)" fill="#96a6bc"/>
      <path id="Path_13515" data-name="Path 13515" d="M63.707,277.647c2.34,2.288,12.22,27.228,14.6,32.6,0,0,12.9,8.341,12.558,10.244s-8.372,6.751-8.372,6.751-24.1-14.031-25.8-19.409-9.949-18.469-8.937-24.486S63.707,277.647,63.707,277.647Z" transform="translate(34.034 -243.23)" fill="#4f2948"/>
      <g id="Group_4752" data-name="Group 4752" transform="translate(3.107 45.959)">
        <path id="Path_13516" data-name="Path 13516" d="M44.8,294.6c-5.2,2.153-9.677,1.725-12.554,3.646-2.741,1.83-6.125,4.1-2.667,8.962,3.462,4.819,1.355,11.954,5.385,16.8s16.616,3.192,18.022,1.761c3.575-3.6-3.271-6.555-4.428-10.317s.28-2.578,3.734-7.412S44.8,294.6,44.8,294.6Z" transform="translate(-25.66 -244.578)"/>
        <g id="Group_4750" data-name="Group 4750" transform="translate(25.444 16.231)">
          <path id="Path_13517" data-name="Path 13517" d="M34.018,292.726c4.552-.33,3.929-2.415,16.441-5.443,1.515-.363,8.668,2.1,10.366,1.663,15.331-3.962,30.152-4.477,37.29-2.618,8.719,2.266,9.938,6.4,6,15.4-1.172,2.68-17.2,37.225-17.2,37.225s-21.752-2.335-27.165-2.335S82.717,304.35,80.976,304.35C49.524,304.35,34.018,292.726,34.018,292.726Z" transform="translate(-34.018 -285.293)"/>
          <path id="Path_13518" data-name="Path 13518" d="M43.913,297.44c-2.449,6.111-8.89,17.848-1.153,18.97,7.956,1.148,5.062-2.745,14.077.319s11.892,2.132,18.762.646c5.323-1.148,4.077-7.753-5.132-8.752-6.822-.726-7.944-4.688-12.052-8.5C54.326,296.3,43.913,297.44,43.913,297.44Z" transform="translate(-19.404 -253.752)"/>
        </g>
        <path id="Path_13519" data-name="Path 13519" d="M72.188,281.85c-12.866-5.559-37.547,13.276-37.547,13.276-8,10.6-13.123,32.649,6.133,36.7,0,0,12.7,1.54,44.521-6.635,0,0-30.043.044-46.908,7.738,3.053,7.967,14.54,19.337,14.54,19.337s57.48-12.506,60.977-17.692c5.054-7.506.732-13.483-.487-16.326s-3.781-6.649-34.758-15.088C76.444,302.552,76.892,283.872,72.188,281.85Z" transform="translate(-27.484 -280.823)"/>
        <g id="Group_4751" data-name="Group 4751" transform="translate(19.72 25.863)">
          <path id="Path_13520" data-name="Path 13520" d="M99.249,315.832c6.355-7.422,3.481-11.508,2.27-14.351-1.067-2.466-17.687-11.333-45.019-13.512-3.758-.236-3.271,1.416-4.821,1.5,4.023.541,30.58,1.965,40.4,10.335,1.608,1.369,5.3,5.716,2.083,11.046-3,4.96-49,14.482-61.62,18a35.7,35.7,0,0,0,4.361,7.775S95.153,320.622,99.249,315.832Z" transform="translate(-32.548 -287.946)" fill="#1e2123"/>
        </g>
      </g>
      <path id="Path_13521" data-name="Path 13521" d="M100.218,271.943c-4.435-.556-19.338,2.437-24.895,5.058-21.776,10.277-48.481,33.223-48.637,55.563-.016,1.376,1.893.378,2.079,1.67.23,1.5,1.32,5.327-.07,5.973,30.023-14,33.758-9.02,39.4-11.083,12.157-4.448,14.065-4,26.215-7.339C100.373,320.127,122.4,296,122.4,296Z" transform="translate(-26.686 -258.409)" fill="#7c4a75"/>
      <g id="Group_4756" data-name="Group 4756" transform="translate(66.452)">
        <g id="Group_4755" data-name="Group 4755">
          <g id="Group_4753" data-name="Group 4753" transform="translate(13.811 1.463)">
            <path id="Path_13522" data-name="Path 13522" d="M81.625,287.747c2.753-7.622-12.714-25.387-22.243-16.958-17.321,15.346-10.935,28.637-10.935,28.637,2.15,2.9,5.9,6.5,9.587,7.531,1.811.512,4.2-2.048,7.126-3.911,1.441.646,3.1,1.184,3.641.272.292-1.572,1.939-5.218,4.346-6.671C76.532,294.454,78.868,295.336,81.625,287.747Z" transform="translate(-47.298 -268.57)" fill="#d3a994"/>
          </g>
          <path id="Path_13523" data-name="Path 13523" d="M80.344,291.7c-3.828-1.195-10.662-5.963-13.154-10.378,0,0-4.139,3.461-4.463,4.768s2.745,7.426,12.087,11.272c.9.367-1.877,2.774-3.664,2.774-1.8,0-3.614,4.249-6.121,4.183s-3.964-1.057-4.8.973c-.631,1.558-6.5-1.979-9.875-6.722-1.16-1.623-4.206-1.972-4.576-5.193s13.3-20.023,19.1-22.162,17.578,3.5,20.919,7.5S80.344,291.7,80.344,291.7Z" transform="translate(-37.911 -261.379)" fill="#6a7b9b"/>
          <g id="Group_4754" data-name="Group 4754">
            <path id="Path_13524" data-name="Path 13524" d="M64.562,289.137c3.111.131,7.052.57,9.171,3.29,1.4,1.794-.245-10.44-4.354-16.112-4.248-5.876-16.686-10.513-18.575-6.569C48.172,275.207,64.562,289.137,64.562,289.137Z" transform="translate(-24.166 -267.869)" fill="#4f2948"/>
            <path id="Path_13525" data-name="Path 13525" d="M90.2,290.448c-7.255-3.123-21.927,5.342-25.374,9.441s-5.284,9.561-7.885,10.415c-2.391.788-13.193-24.261-13.193-24.261s11.534-10.487,18.076-15.306c6.281-4.634,17.208-2.164,20.409.853C89.222,278.178,90.2,290.448,90.2,290.448Z" transform="translate(-43.751 -268.167)" fill="#7c4a75"/>
          </g>
        </g>
        <path id="Path_13526" data-name="Path 13526" d="M51.03,293.7c-1.34-5.774-4.942-19.384-4.431-21.356-1.379,3.915-.078,19.384,2.317,20.876S51.03,293.7,51.03,293.7Z" transform="translate(-37.139 -257.176)" fill="#4f2948"/>
      </g>
      <path id="Path_13527" data-name="Path 13527" d="M56.753,289.378s12.956,2.6,14.369,3.214a15.113,15.113,0,0,1,4.221,3.541,14.554,14.554,0,0,1,1.939,3.228c.779,1.463-1.055,1.492-2.22.3-.989-.988-2.091-2.2-2.091-2.2l-1.421-.581s3.139,3.4,3.477,3.773,1.558,2.72,1.966,3.272c.584.8-.7,2.211-1.865,1.2a54.639,54.639,0,0,1-3.762-4.136c-.709-.748-.989-.8-.989-.8,1.916,2.106,4.163,4.706,4.342,5.643s-1.55,1.329-2.7.087a30.253,30.253,0,0,0-3.781-3.061l3.594,3.1a1.106,1.106,0,0,1-1.063.563,16.817,16.817,0,0,1-5.35-2.019c-2.936-1.558-3.8-2.016-6.118-3.363-1.421-.8-6.083-1.739-6.258-1.99C50.815,295.889,52.435,290.039,56.753,289.378Z" transform="translate(46.708 -212.355)" fill="#6a7b9b"/>
      <path id="Path_13528" data-name="Path 13528" d="M54.509,275.149c2.224,1.71,7.5,5.759,9.622,11.446A191.626,191.626,0,0,0,73.862,307.7s20.257,15.4,21.5,17.514-7.664,13.24-8.146,15.194-27.679-12.75-32.765-19.46c-6.312-8.341-20.276-37.933-12.247-42.788S54.509,275.149,54.509,275.149Z" transform="translate(11.208 -250.697)" fill="#4f2948"/>
    </g>
    <g id="Group_4758" data-name="Group 4758" transform="translate(219.249 231.071)">
      <path id="Path_13529" data-name="Path 13529" d="M76.22,253.8c3.057.922,31.951,6.337,46.842,28.273a113.078,113.078,0,0,1,14.6-23.738s-19.167-32.246-37.679-26.592C73.436,239.868,76.22,253.8,76.22,253.8Z" transform="translate(-76.137 -231.04)"/>
      <path id="Path_13530" data-name="Path 13530" d="M116.606,270.082c1.7-5.066-20.366-34.029-38.356-30.863,7.044-5.3,12.9-8.708,19.35-8.072s13.579-.948,32.586,24.057C127.814,258.687,116.606,270.082,116.606,270.082Z" transform="translate(-70.02 -231.071)" fill="#1e2123"/>
    </g>
    <path id="Path_13531" data-name="Path 13531" d="M96.09,252.605c0,6.308,8.913,27.318,6.277,30.125s-14.622,28.016-14.622,28.016l12.426,15.433s26.18-31.233,26.18-39.654-6.009-43.946-15.666-45.951C93.761,237.067,96.09,252.605,96.09,252.605Z" transform="translate(176.708 23.65)" fill="#1e2123"/>
    <path id="Path_13532" data-name="Path 13532" d="M89.321,245.918l7.465,2.375s11.877-4.223,20.027,2.426,21.047,23.633,24.439,26.167,10,10.81,10.183,14.772c.339,7.277-7.239,12.666-7.465,13.294-1.141,3.192,14.256-7.6,14.256-7.6s-11.585,9.136-9.505,8.653c8.146-1.906,15.163-9.917,15.163-9.917a21.23,21.23,0,0,0-8.376-16.464c-8.82-6.965-27.87-28.629-36.433-34.813s-23.22-8.392-23.1-6.732S89.321,245.918,89.321,245.918Z" transform="translate(181.269 17.043)" fill="#1e2123"/>
  </g>
</svg>
