<svg xmlns="http://www.w3.org/2000/svg" width="603.132" height="399.119" viewBox="0 0 603.132 399.119">
  <g id="Group_1401" data-name="Group 1401" transform="translate(-75.339 -74.381)">
    <g id="Group_1356" data-name="Group 1356" transform="translate(161.318 228.555)">
      <g id="Group_1354" data-name="Group 1354">
        <path id="Path_10202" data-name="Path 10202" d="M216.036,322.673l-7.217-5.81,2.4-3.133,5.84,2.905.433-2,5.558,5.709L221,323.934Z" transform="translate(-208.819 -313.73)" fill="#eac1a4"/>
      </g>
      <g id="Group_1355" data-name="Group 1355" transform="translate(9.323 4.064)">
        <path id="Path_10203" data-name="Path 10203" d="M297.368,320.7l-32.347,16.6L226.976,320.04l-3.684,7.321L263.606,357.5l44.231-11.581Z" transform="translate(-223.292 -320.04)" fill="#8c9498"/>
      </g>
    </g>
    <g id="Group_1359" data-name="Group 1359" transform="translate(309.638 74.381)">
      <g id="Group_1357" data-name="Group 1357" transform="translate(78.214)">
        <path id="Path_10204" data-name="Path 10204" d="M563.975,82.487q-.023-1.982-.048-3.964l1.827-3.757a1.314,1.314,0,0,1,1.876.017l1.612,3.678.048,3.964c1.476-.017,3.892,1.083,3.909,2.474a2.6,2.6,0,0,1-2.642,2.549l-1.207.014,1.62,134.339c.091,7.58,4.277,13.837,10.178,13.633,4.573-.158,8.517-4,9.114-10.193a2.778,2.778,0,0,1,2.782-2.458h.106a2.721,2.721,0,0,1,2.84,2.941c-1.061,8.816-8.149,15.2-14.95,15.276a13.592,13.592,0,0,1-12.291-6.589c-3.207-5.323-3.077-11.218-3.148-17.1l-.2-16.713q-.141-11.668-.281-23.335-.16-13.3-.321-26.607-.159-13.264-.32-26.528-.139-11.549-.279-23.1-.081-6.753-.163-13.5l-.827.01a2.6,2.6,0,0,1-2.7-2.488C560.489,83.655,562.5,82.5,563.975,82.487Z" transform="translate(-560.506 -74.381)" fill="#3b455a"/>
        <path id="Path_10205" data-name="Path 10205" d="M567.206,195.868l5.3-5.505-.108-8.992-5.37.062Z" transform="translate(-562.828 -112.454)" opacity="0.26"/>
      </g>
      <g id="Group_1358" data-name="Group 1358" transform="translate(0 11.17)">
        <path id="Path_10206" data-name="Path 10206" d="M517.409,203.193c-.18.087-.359.174-.535.262q-.387-.126-.779-.247l.823-.009Z" transform="translate(-466.487 -131.39)" fill="none"/>
        <path id="Path_10207" data-name="Path 10207" d="M606.084,162.076l-.884-4.939a114.764,114.764,0,0,0-20.346-47.474L571.8,91.787a83.552,83.552,0,0,1,71.724,44.393,79.33,79.33,0,0,1,8.226,25.495,82.834,82.834,0,0,0-23.018-2.837A84.685,84.685,0,0,0,606.084,162.076Z" transform="translate(-486.31 -91.744)" fill="#d7e8f4"/>
        <path id="Path_10208" data-name="Path 10208" d="M491.583,152.88l-2.072,10.65-.823.009a81.5,81.5,0,0,0-24.795-3.36,83.218,83.218,0,0,0-24.812,3.912,79.444,79.444,0,0,1,10.914-32.134,83.731,83.731,0,0,1,70.984-40.231c.893-.01,1.783,0,2.67.015l-10.081,14.742C501.176,121.709,495.587,137.053,491.583,152.88Z" transform="translate(-439.081 -91.721)" fill="#d7e8f4"/>
        <path id="Path_10209" data-name="Path 10209" d="M585.832,157.124l.884,4.939-.221.065c-8.7-3.652-20.589-5.666-33.689-5.514-13.8.16-26.216,2.69-34.943,6.921l-.492.006,2.072-10.649c4-15.827,9.593-31.171,21.985-46.4L551.51,91.751c.307.006.613.014.919.023l13.057,17.875A114.764,114.764,0,0,1,585.832,157.124Z" transform="translate(-466.942 -91.732)" fill="#7db5db"/>
      </g>
    </g>
    <g id="Group_1367" data-name="Group 1367" transform="translate(405.249 193.108)">
      <g id="Group_1366" data-name="Group 1366">
        <g id="Group_1361" data-name="Group 1361" transform="translate(0 36.303)">
          <g id="Group_1360" data-name="Group 1360">
            <path id="Path_10210" data-name="Path 10210" d="M603.605,328.268l-3.91-3.619L599.633,320l-1.011-.487-.662,1.2-1.178-3.845-2.766-1.8-4.132,1.54-2.37,3.829,1.994,3.862,4.4,2.812,5.133,5.182Z" transform="translate(-587.513 -315.059)" fill="#eac1a4"/>
          </g>
          <path id="Path_10211" data-name="Path 10211" d="M608.025,328.29l-7.034,8.17,18.867,28.108,7.022,2.222L656.79,343.4l-8-16.018-22.307,18.595Z" transform="translate(-592.31 -319.443)" fill="#3b455a"/>
        </g>
        <g id="Group_1364" data-name="Group 1364" transform="translate(36.24 120.477)">
          <g id="Group_1362" data-name="Group 1362" transform="translate(20.793 0.865)">
            <path id="Path_10212" data-name="Path 10212" d="M752.112,668.8l1.044,4.7-8.277,6.692-5.7-3.7,3.616-5.7,8.277-6.692Z" transform="translate(-698.517 -524.31)" fill="#3b455a"/>
            <path id="Path_10213" data-name="Path 10213" d="M700.7,447.079l9.236,20.888.871,58.77,18.99,63.215-8.83,3.841-38.752-73.4-4.41-23.249-1.753-48.964Z" transform="translate(-676.056 -447.079)" fill="#8c9295"/>
          </g>
          <g id="Group_1363" data-name="Group 1363">
            <path id="Path_10214" data-name="Path 10214" d="M644.5,451.283l-.726,61.591,11.834,79.412h9.1l5.747-73.275,12.451-73.275Z" transform="translate(-643.775 -445.737)" fill="#8c9295"/>
            <path id="Path_10215" data-name="Path 10215" d="M668.037,671.6v4.825l-9.84,4.825-4.92-4.825,4.92-4.825Z" transform="translate(-647.156 -526.114)" fill="#3b455a"/>
          </g>
        </g>
        <path id="Path_10216" data-name="Path 10216" d="M655.714,324.387l24.171-.878s14.46,12.443,21.932,44.778c7.609,32.925-1.406,80.324-1.406,80.324s-64.846-8.477-75.479-9.786l16.222-65.008Z" transform="translate(-600.83 -281.763)" fill="#3b455a"/>
        <g id="Group_1365" data-name="Group 1365" transform="translate(35.965)">
          <path id="Path_10217" data-name="Path 10217" d="M679.952,312.23l8.468-.812a40.892,40.892,0,0,0-.45-6.633c2.353-.808,5.073-2.021,5.486-4.433a6.767,6.767,0,0,0-.135-2.3q-.823-4.707-1.645-9.415a8.293,8.293,0,0,0-.993-3.134c-1.053-1.634-3.1-2.35-5.043-2.683a17.788,17.788,0,0,0-14.2,3.373,7.552,7.552,0,0,0-2.4,3.1c-.7,1.9-.181,4.007.341,5.965l1.443,5.422c.553,2.079,1.353,4.442,3.393,5.224,1.083.415,2.363.3,3.344.91C679.291,307.9,679.054,310.421,679.952,312.23Z" transform="translate(-652.37 -267.184)" fill="#eac1a4"/>
          <path id="Path_10218" data-name="Path 10218" d="M643.353,272.377a26.17,26.17,0,0,1,.692-6.291c.753-3.371,4.808-4.886,8.319-5.125,7.582-.517,14.9-3.887,22.3-1.286,4.233,1.488,9.917,1.845,13.747,3.942a11.211,11.211,0,0,1,3.868,3.751,16.441,16.441,0,0,1,.023,17.672,24.057,24.057,0,0,1-2.656,3.274c-2,2.122-4.394,4.743-7.143,5.527-.062-2.411,2.188-10.011.3-11.99-2.992-3.14-9.768-2.055-13.486-1.288-4.055.837-7.673,3.648-11.693,4.244-2.893.429-6.582-.967-9.04-2.437C644.738,280.07,643.453,276.265,643.353,272.377Z" transform="translate(-643.347 -258.7)" fill="#3b455a"/>
        </g>
        <path id="Path_10219" data-name="Path 10219" d="M667.881,328.745l-25.41,99.687-2.083,13.074,31.658,4.086s-1.25-47.737-.833-54.1,5.112-20.131,5.832-34.964c.416-8.579,3.195-23.99,1.25-29.007Z" transform="translate(-606.33 -283.191)" fill="#fff"/>
      </g>
    </g>
    <g id="Group_1368" data-name="Group 1368" transform="translate(229.831 262.869)">
      <path id="Path_10220" data-name="Path 10220" d="M425.49,374.488l6.8-4.552L430.428,367l-5.357,2.107-.222-1.787-5.331,4.59,1.511,3.3Z" transform="translate(-352.311 -367.003)" fill="#ebceb1"/>
      <path id="Path_10221" data-name="Path 10221" d="M383.662,371.229l2.656,6.708c.364,1.1-25.376,15.351-27.668,16.374-5.046,2.253-14.2,7.567-14.2,7.567-7.018.086-20.233-3.438-24.647-5.3-1.778-.75-3.045-4.612-4.124-6.148-1.368-1.948.374-5.381,1.547-6.97a16.646,16.646,0,0,1,10.121-6.358,9.7,9.7,0,0,1,4.379.022c1.463.4,3.333-6.209,4.575-5.351,2.2,1.525,3.427,11.583,6.052,12.46C345.654,385.333,382.884,369.65,383.662,371.229Z" transform="translate(-315.182 -368.467)" fill="#8c9498"/>
    </g>
    <path id="Path_10222" data-name="Path 10222" d="M301.364,323.538c-.152,0-.3.011-.454.018-7.221.345-15.965,9.641-21.03,15.129-13.075,14.164-22.207,30.4-29.042,48.543-3.68,9.772-6.93,19.7-9.976,29.688-.841,2.759-6.751,27.992-8.184,28.171,14.7-1.841,29.493-3.281,44.132-2.284s29.2,4.517,41.747,12.089c6.426-32.383,11.176-65.915,12.733-98.729.186-3.925.8-7.974.419-11.874-.434-4.493-2.691-6.517-5.254-9.927a22.657,22.657,0,0,0-2.835-3.311C317.963,325.958,308.929,323.3,301.364,323.538Z" transform="translate(-55.992 -88.661)" fill="#8c9498"/>
    <g id="Group_1370" data-name="Group 1370" transform="translate(194.096 334.049)">
      <g id="Group_1369" data-name="Group 1369">
        <path id="Path_10223" data-name="Path 10223" d="M259.7,488.343,275,549.228l.342,44.878,7.426,1.575,2.9-41.738,7.29-76.436Z" transform="translate(-259.705 -477.507)" fill="#ebceb1"/>
      </g>
      <path id="Path_10224" data-name="Path 10224" d="M291.166,662.051l1.2,4.552-1.053,8.93-6.018.011-2.254-12.909.7-2.159Z" transform="translate(-268.009 -542.619)" fill="#3b455a"/>
    </g>
    <g id="Group_1371" data-name="Group 1371" transform="translate(221.786 335.727)">
      <path id="Path_10225" data-name="Path 10225" d="M333.4,482.545l1.349,52.61-7.16,74.3-7.331.527-2.634-68.119-14.93-61.755Z" transform="translate(-302.693 -480.113)" fill="#ebceb1"/>
      <path id="Path_10226" data-name="Path 10226" d="M336.37,678.993l9.875,5.143-.784,4.524-17.444-2.1.839-6.51Z" transform="translate(-311.705 -550.887)" fill="#3b455a"/>
    </g>
    <path id="Path_10227" data-name="Path 10227" d="M335.98,491.256l4.969,60.783-5.055,41.686-19.858-1.1L312.5,545.229l-8.587-51.669,1.334-8.044,28.62.411Z" transform="translate(-81.34 -146.308)" fill="#3b455a"/>
    <path id="Path_10228" data-name="Path 10228" d="M290.315,545.983l-2.333,43.6-17.261-.868.352-41.348L260.188,495.44l2.483-14.515L291.7,482.7Z" transform="translate(-65.781 -144.675)" fill="#3b455a"/>
    <path id="Path_10229" data-name="Path 10229" d="M323.867,438.866c-17.711-3-46.409-10.256-64.121-13.252,9.268-30.182,24.021-63.711,41.221-90.223,3.12-4.808,7.018-9.826,12.6-10.966,5.982-1.223,16.468,2.645,17.63,9.206,1.7,9.6-1.828,22.84-2.917,32.547C325.816,388.14,328.149,417.167,323.867,438.866Z" transform="translate(-65.624 -88.901)" fill="#fff"/>
    <g id="Group_1374" data-name="Group 1374" transform="translate(239.781 198.922)">
      <path id="Path_10230" data-name="Path 10230" d="M352.4,288.528c6.66-11.37,21.418-3.985,22.375,7.386.63,7.49-6.794,15.737-14.468,16.319q-.234,2.7-.7,5.377l-5.82-1.558c-.6-.161-1.288-.4-1.483-.979a1.837,1.837,0,0,1,.09-1.088l1.052-3.594c-.13-.09-.26-.181-.389-.278-3.194-2.389-4.646-6.553-4.462-10.489A24.651,24.651,0,0,1,352.4,288.528Z" transform="translate(-337.018 -273.109)" fill="#eac1a4"/>
      <g id="Group_1373" data-name="Group 1373">
        <g id="Group_1372" data-name="Group 1372">
          <path id="Path_10231" data-name="Path 10231" d="M346.442,289.672c-3.217,3.027-3.515,7.874-3.727,12.038-.188,3.692-.748,5.9-4.743,4.856-2.251-.587-6.267-1.586-7.22-4-.72-1.831,1.924-4.974,3.326-6.041,1.071-.815,2.674-.681,3.722-1.523a4.273,4.273,0,0,0,.993-1.31,21.982,21.982,0,0,0,2.321-6.286,22.192,22.192,0,0,1,1.055-4.428c.872-2.03,3.487-3.57,5.18-4.974,3.151-2.613,10.306-4.6,12.9.061a6.352,6.352,0,0,1,.5,3.546,5.286,5.286,0,0,1-.462,2.1c-1.337,2.564-3.941,1.769-6.231,2.136A14.81,14.81,0,0,0,346.442,289.672Z" transform="translate(-330.63 -270.405)" fill="#3b455a"/>
          <path id="Path_10232" data-name="Path 10232" d="M378.028,297.334c-.82,1.881-2.862,3.389-2.664,5.426a8.757,8.757,0,0,0,.992,2.54,7.124,7.124,0,0,1-.882,7.076l11.277,5.29a3.8,3.8,0,0,0,1.792.5c1.34-.079,2.146-1.452,2.7-2.65,1.1-2.359,2.227-4.91,1.737-7.459-.227-1.182-.794-2.281-1.018-3.464-1.074-5.687,5.875-11.11,3.746-16.5-.949-2.407-3.436-3.833-5.118-5.817-2.934-3.46-3.351-8.546-6.508-11.812-5.961-6.169-17.656-1.118-16.758,7.448C368.06,284.894,381.332,289.759,378.028,297.334Z" transform="translate(-343.672 -267.727)" fill="#3b455a"/>
        </g>
      </g>
    </g>
    <path id="Path_10233" data-name="Path 10233" d="M304.2,326.324s-30.63,72.449-23.865,90.928,9.912,25.639,9.912,25.639l-46.9,1.923S273.279,338.973,304.2,326.324Z" transform="translate(-59.786 -89.658)" fill="#8c9498"/>
    <g id="Group_1385" data-name="Group 1385" transform="translate(149.791 251.547)">
      <g id="Group_1384" data-name="Group 1384" transform="translate(0)">
        <path id="Path_10234" data-name="Path 10234" d="M570.456,461.864l-20.783-21.658-.658-.032-3.328-7.777L528.12,391.35c-5.151-12.035-9.25-32.37-25.369-33.273l-153.212-8.583a44.168,44.168,0,0,0-41.325,23.787l-28.631,53.906-2.553-.123-52.252,13a51.711,51.711,0,0,0-32.131,44.671l-1.723,29.592,389.008,21.792,2.451-42.1A42.832,42.832,0,0,0,570.456,461.864Z" transform="translate(-190.924 -349.426)" fill="#587bc9"/>
        <path id="Path_10235" data-name="Path 10235" d="M550.1,439.085l102.22,5.727-19.947-57.453a7.336,7.336,0,0,0-6.486-4.988l-72.25-4.048Z" transform="translate(-318.741 -359.71)" fill="#d7e8f4"/>
        <path id="Path_10236" data-name="Path 10236" d="M467.5,374.965l-58.555-3.281a32.207,32.207,0,0,0-30.133,17.345l-21.624,40.715,106.775,5.981Z" transform="translate(-250.091 -357.329)" fill="#d7e8f4"/>
        <g id="Group_1375" data-name="Group 1375" transform="translate(128.51 19.165)" opacity="0.2">
          <path id="Path_10237" data-name="Path 10237" d="M662.713,402.783q1.976,1.186,3.951,2.375l-5.458-15.72a7.337,7.337,0,0,0-6.486-4.988l-25.029-1.4C640.654,389.695,651.715,396.191,662.713,402.783Z" transform="translate(-475.575 -380.556)" fill="#fffdf1"/>
          <path id="Path_10238" data-name="Path 10238" d="M639.328,414.916c-18.182-11.022-37.258-23.44-55.228-34.79l-23.5-.948c15.3,14.457,34.937,27.642,52.272,39.5,10.42,7.125,21.086,13.906,32.051,20.2,3.594,2.061,7.371,3.96,11.156,5.876l-8.635-24.87Q643.393,417.381,639.328,414.916Z" transform="translate(-450.988 -379.178)" fill="#fffdf1"/>
          <path id="Path_10239" data-name="Path 10239" d="M458.787,413.056c-7.6-5.451-15.507-10.529-23.475-15.443-8.07-4.977-16.253-9.977-24.766-14.194-2.807-1.39-5.652-2.7-8.488-4.015a33.059,33.059,0,0,0-11.416,12.39l-.21.4c8.482,6.558,17.028,13.042,25.447,19.645,12.453,9.768,26.379,17.414,39.965,25.539l19.949,1.118.641-11.011C470.557,422.664,464.974,417.494,458.787,413.056Z" transform="translate(-390.432 -379.258)" fill="#fffdf1"/>
        </g>
        <g id="Group_1376" data-name="Group 1376" transform="translate(88.917 133.668)">
          <path id="Path_10240" data-name="Path 10240" d="M387.315,596.426a27.019,27.019,0,0,0,.826-5.243c1.029-17.682-15.35-32.98-36.586-34.169a43.838,43.838,0,0,0-22.589,4.664,73.477,73.477,0,0,1,33.028,19.459A58.006,58.006,0,0,1,372.6,595.51Z" transform="translate(-328.965 -556.94)" fill="#000100" opacity="0.1"/>
        </g>
        <g id="Group_1377" data-name="Group 1377" transform="translate(291.775 145.006)">
          <path id="Path_10241" data-name="Path 10241" d="M700.821,613.974a27.633,27.633,0,0,0,.814-5.244c1.029-17.681-14.944-32.957-35.677-34.118a42.032,42.032,0,0,0-22.063,4.693,71.16,71.16,0,0,1,32.222,19.415,57.713,57.713,0,0,1,10.34,14.358Z" transform="translate(-643.895 -574.542)" fill="#000100" opacity="0.1"/>
        </g>
        <g id="Group_1380" data-name="Group 1380" transform="translate(67.231 133.128)">
          <ellipse id="Ellipse_69" data-name="Ellipse 69" cx="34.255" cy="33.64" rx="34.255" ry="33.64" transform="translate(0 0.227) rotate(-0.19)" fill="#3b455a"/>
          <g id="Group_1379" data-name="Group 1379" transform="translate(14.861 14.596)">
            <g id="Group_1378" data-name="Group 1378">
              <ellipse id="Ellipse_70" data-name="Ellipse 70" cx="19.443" cy="19.093" rx="19.443" ry="19.093" transform="translate(0 0.128) rotate(-0.188)" fill="#fffdf1"/>
            </g>
            <path id="Path_10242" data-name="Path 10242" d="M345.556,627.434a16.036,16.036,0,0,0,10.309-3.587,11.177,11.177,0,0,1-7.91,6.532,18.433,18.433,0,0,1-3.632.319,18.774,18.774,0,0,1-3.851-.275,11.411,11.411,0,0,1-7.925-6.072c.491,1,4.257,1.892,5.192,2.113A31.574,31.574,0,0,0,345.556,627.434Z" transform="translate(-323.415 -594.806)" fill="#000100" opacity="0.1"/>
          </g>
        </g>
        <g id="Group_1383" data-name="Group 1383" transform="translate(269.315 144.448)">
          <ellipse id="Ellipse_71" data-name="Ellipse 71" cx="34.255" cy="33.64" rx="34.255" ry="33.64" transform="translate(0 0.227) rotate(-0.19)" fill="#3b455a"/>
          <g id="Group_1382" data-name="Group 1382" transform="translate(14.862 14.597)">
            <g id="Group_1381" data-name="Group 1381">
              <ellipse id="Ellipse_72" data-name="Ellipse 72" cx="19.443" cy="19.093" rx="19.443" ry="19.093" transform="translate(0 0.126) rotate(-0.185)" fill="#fffdf1"/>
            </g>
            <path id="Path_10243" data-name="Path 10243" d="M659.283,645.009a16.038,16.038,0,0,0,10.309-3.587,11.177,11.177,0,0,1-7.911,6.532,18.428,18.428,0,0,1-3.632.319A18.776,18.776,0,0,1,654.2,648a11.409,11.409,0,0,1-7.924-6.072c.491,1,4.256,1.893,5.192,2.113A31.575,31.575,0,0,0,659.283,645.009Z" transform="translate(-637.144 -612.382)" fill="#000100" opacity="0.1"/>
          </g>
        </g>
      </g>
      <path id="Path_10244" data-name="Path 10244" d="M492.97,504.2l-10.595-.594a3.958,3.958,0,0,1-3.771-4.146v0a3.978,3.978,0,0,1,4.227-3.7l10.595.593A3.957,3.957,0,0,1,497.2,500.5v.005A3.979,3.979,0,0,1,492.97,504.2Z" transform="translate(-293.297 -401.498)" fill="#29313f" opacity="0.5"/>
    </g>
    <g id="Group_1386" data-name="Group 1386" transform="translate(449.348 244.302)">
      <path id="Path_10245" data-name="Path 10245" d="M671.62,425.439l-4.394,3.92L662,429.035l-.633,1.052,1.289.816-4.418.95-2.26,2.837,1.382,4.595,4.1,2.883,4.506-1.83,3.529-4.514,6.252-5.111Z" transform="translate(-655.976 -369.231)" fill="#eac1a4"/>
      <path id="Path_10246" data-name="Path 10246" d="M673.727,396.713,695.1,380.367c1.918-1.467,4.1-2.581,6.008-4.064,2.794-2.168,3.532-2.817,2.592-5.958-2.725-9.1-8.508-17.211-11.141-26.2,3.01-1.733,5.712-3.844,8.952-5.259,5.292-2.309,6.5,1.445,8.657,5.265,2.555,4.53,4.974,9.139,7.216,13.826,1.858,3.884,11.111,20.189,5.856,24.063-3.759,2.789-44.867,24.041-44.45,24.88Z" transform="translate(-662.293 -338.178)" fill="#3b455a"/>
    </g>
    <g id="Group_1389" data-name="Group 1389" transform="translate(75.339 165.036)">
      <g id="Group_1388" data-name="Group 1388">
        <path id="Path_10247" data-name="Path 10247" d="M210.9,215.12c-40.526,19.845-67.388,5.749-71.074,3.6,0,0-.135-.274-.219-.129-.144-.087-.129.216-.129.216-2.184,3.62-18.873,28.618-64.139,30.249,0,0,13.11,77.341,46.15,101.96,35.29,26.3,60.425,30.625,60.516,30.511.135.057,20.324-15.415,38.206-55.223C236.942,289.059,210.9,215.12,210.9,215.12Z" transform="translate(-75.339 -215.12)" fill="#3b455a"/>
        <path id="Path_10248" data-name="Path 10248" d="M211.234,229.646c-36.816,17.852-61.1,5.4-64.436,3.494,0,0-.121-.243-.2-.115-.13-.077-.117.193-.117.193-2,3.235-17.227,25.584-58.262,27.22,0,0,11.559,68.883,41.4,90.694,31.875,23.3,55.088,28.862,55.17,28.759.122.051,18.038-15.63,34.414-51.184C234.528,295.445,211.234,229.646,211.234,229.646Z" transform="translate(-79.923 -220.289)" fill="#7db5db"/>
        <g id="Group_1387" data-name="Group 1387" transform="translate(7.379 5.859)" opacity="0.06">
          <path id="Path_10249" data-name="Path 10249" d="M147.689,237.932s-.013-.283.123-.2c.081-.135.207.12.207.12,3.422,1.953,27.948,14.53,65.254-2.607-1.977-6.82-3.466-11.026-3.466-11.026-36.816,17.852-61.1,5.4-64.436,3.493,0,0-.121-.243-.2-.115-.13-.077-.117.194-.117.194-2,3.236-17.226,25.584-58.262,27.22,0,0,.738,4.392,2.32,11.308C130.251,263.832,145.639,241.256,147.689,237.932Z" transform="translate(-86.794 -224.216)"/>
        </g>
      </g>
      <path id="Path_10250" data-name="Path 10250" d="M213.727,263.2c-27.785,13.606-49.883,4.128-52.41,2.653,0,0-.093-.187-.15-.089-.1-.059-.088.149-.088.149-1.5,2.482-16.084,21.1-47.119,22.221,0,0,12.134,51.541,34.785,68.42,24.194,18.028,41.427,21,41.489,20.918.093.039,13.934-10.569,26.194-37.861C227.9,314.079,213.727,263.2,213.727,263.2Z" transform="translate(-89.083 -232.23)" fill="#fff" opacity="0.34"/>
    </g>
    <g id="Group_1390" data-name="Group 1390" transform="translate(567.039 238.276)">
      <path id="Path_10251" data-name="Path 10251" d="M853.329,344.822l-3.932-2.087-1.066-3.723-.919-.179-.271,1.1-1.786-2.842-2.616-.869-2.984,2.106-1.068,3.575,2.446,2.684,4.147,1.336,5.256,3.085Z" transform="translate(-838.687 -331.456)" fill="#eac1a4"/>
      <path id="Path_10252" data-name="Path 10252" d="M855.624,337.888l23.153,15.873,23.688-24.938,2.823,28.289L882.2,372.006l-30.8-26.634Z" transform="translate(-843.212 -328.823)" fill="#93aa9d"/>
    </g>
    <g id="Group_1393" data-name="Group 1393" transform="translate(589.237 196.219)">
      <g id="Group_1391" data-name="Group 1391" transform="translate(44.537 140.189)">
        <path id="Path_10253" data-name="Path 10253" d="M981.558,662.3l.394,3.819-7.074,4.762-4.129-3.347,3.34-4.29,7.074-4.762Z" transform="translate(-952.418 -544.269)" fill="#22252d"/>
        <path id="Path_10254" data-name="Path 10254" d="M971.253,482.443l1.2,11.6-10.608,39.848,9.85,64.033-7.251,2.45-19.119-62.515-3.034-18.186.111-38.5Z" transform="translate(-942.29 -481.17)" fill="#eac1a4"/>
      </g>
      <g id="Group_1392" data-name="Group 1392" transform="translate(17.734 144.635)">
        <path id="Path_10255" data-name="Path 10255" d="M900.68,497.826l15.251,107.3h6.932l1.248-68.777,12.617-48.274Z" transform="translate(-900.68 -488.071)" fill="#eac1a4"/>
        <path id="Path_10256" data-name="Path 10256" d="M928.844,668.471v3.854l-7.5,3.854-3.748-3.854,3.748-3.854Z" transform="translate(-906.701 -552.269)" fill="#22252d"/>
      </g>
      <path id="Path_10257" data-name="Path 10257" d="M907.914,330a6.177,6.177,0,0,1,2.289-2.187c6.887-3.812,18.3-.455,25.776-.455,2.208,22.807,8.314,44.543,12.257,66.935q6.283,35.673,14.143,71.056c.3,1.335-20.8.662-22.788.694-20.295.336-46.86.267-66.443-5.751,12.5-32.907,17.061-68.314,26.9-102.077,1.728-5.927,3.779-11.766,5.335-17.741C906.288,337.015,906.148,332.835,907.914,330Z" transform="translate(-873.148 -285.76)" fill="#7db5db"/>
      <path id="Path_10258" data-name="Path 10258" d="M933.918,275.619a13.5,13.5,0,0,0-9.745,11.235,11.88,11.88,0,0,1-3.724-10.233,12.024,12.024,0,0,1,6.374-8.886,13.738,13.738,0,0,1,6.711,7.972Z" transform="translate(-889.944 -265.027)" fill="#3b455a"/>
      <path id="Path_10259" data-name="Path 10259" d="M924.809,285.226c2.655-13.745,20.163-11.37,25.186-.24,2.856,6.33-.136,15.291-5.85,19.694-.122,1.217-.283,4.574-1.232,5.388-1.027.881-4.263.041-5.532-.247a1.979,1.979,0,0,1-.974-.429,3.53,3.53,0,0,1-.379-2.084,11.88,11.88,0,0,1-2.854-.553c-4.073-1.311-7.022-5.009-8.242-9.039S924.011,289.356,924.809,285.226Z" transform="translate(-891.285 -267.883)" fill="#eac1a4"/>
      <path id="Path_10260" data-name="Path 10260" d="M952.458,335.435a3.893,3.893,0,0,1-.4-.039c-3.089-.52-8.045-1.5-9.479-4.69-1.469-3.27,1.141-9.2,1.572-12.6.655-5.165.872-10.376,1.126-15.571.229-4.685-1.478-9.3-3.976-13.3a74.943,74.943,0,0,0-8.986-10.939c-1.339-1.442-2.724-2.985-3.133-4.894a7.142,7.142,0,0,1,1.828-5.987,10.417,10.417,0,0,1,8.077-3.875c11.58-.271,20.286,6.448,23.571,17.54,4.708,15.9-1.173,31.062-.3,46.879a14.923,14.923,0,0,0,2.6,7.6C964.555,334.96,954.956,335.574,952.458,335.435Z" transform="translate(-893.045 -263.531)" fill="#3b455a"/>
    </g>
    <g id="Group_1394" data-name="Group 1394" transform="translate(625.434 244.351)">
      <path id="Path_10261" data-name="Path 10261" d="M944.844,407.861l-4.657,1.495-3.823-1.975-.838.582.688,1.041-3.651-.749-2.678,1.386-.542,3.916,2.094,3.528,4.021.115,4.21-2.228,6.465-1.775Z" transform="translate(-929.343 -362.854)" fill="#eac1a4"/>
      <path id="Path_10262" data-name="Path 10262" d="M964.3,378.33a7.289,7.289,0,0,0,3.487-5.876,31.467,31.467,0,0,0-.88-7.477,60.333,60.333,0,0,1,.542-23.8c1.75-7.759,10.979,2,12.126,5.5,1.272,3.88.914,8.1,1.224,12.116q.625,8.078.591,16.189c-.014,3.417.843,11.489-2.825,13.444a10.247,10.247,0,0,1-3.245.891c-1.751.278-22.653,2.864-22.981,1.851l-2.888-8.935C953.8,381.357,960.312,380.973,964.3,378.33Z" transform="translate(-936.498 -338.255)" fill="#7db5db"/>
    </g>
    <g id="Group_1400" data-name="Group 1400" transform="translate(500.736 208.015)">
      <g id="Group_1398" data-name="Group 1398">
        <path id="Path_10263" data-name="Path 10263" d="M845.43,454.858,735.754,438.3l22.527-143.55,109.677,16.557Z" transform="translate(-735.754 -286.437)" fill="#3b455a"/>
        <path id="Path_10264" data-name="Path 10264" d="M749.959,444.581l1.642.248L847.993,462.4l18.771-136.141-4.7.59Z" transform="translate(-740.809 -297.648)" opacity="0.26"/>
        <path id="Path_10265" data-name="Path 10265" d="M844.457,450.843l-98.614-14.887,20.842-132.812L865.3,318.032Z" transform="translate(-739.344 -289.424)" fill="#f4f4f2"/>
        <g id="Group_1396" data-name="Group 1396" transform="translate(54.725)">
          <g id="Group_1395" data-name="Group 1395" transform="translate(0)">
            <path id="Path_10266" data-name="Path 10266" d="M857.254,292.286l-.665-.1.069-.439c.65-4.14-2.754-8.089-7.6-8.821l-6.386-.964c-4.849-.732-9.305,2.031-9.955,6.171l-.069.439-.664-.1c-4.848-.732-9.305,2.031-9.955,6.171l-1.314,8.374,42.829,6.466,1.314-8.375C865.506,296.968,862.1,293.018,857.254,292.286Zm-7.021-.883-11.284-1.7a2.093,2.093,0,0,1-1.774-2.373,2.123,2.123,0,0,1,2.42-1.74l11.283,1.7a2.092,2.092,0,0,1,1.775,2.373A2.123,2.123,0,0,1,850.233,291.4Z" transform="translate(-820.713 -281.844)" fill="#dfe5e5"/>
          </g>
          <path id="Path_10267" data-name="Path 10267" d="M863.541,319l-42.828-6.465.619-3.943,42.828,6.465Z" transform="translate(-820.713 -291.363)" opacity="0.12"/>
        </g>
        <g id="Group_1397" data-name="Group 1397" transform="translate(25.484 64.198)">
          <path id="Path_10268" data-name="Path 10268" d="M859.959,394.652l-74.107-11.187.307-1.955L860.266,392.7Z" transform="translate(-779.066 -381.51)" fill="#cdced0"/>
          <path id="Path_10269" data-name="Path 10269" d="M856.447,417.03,782.34,405.842l.307-1.955,74.107,11.187Z" transform="translate(-777.816 -389.473)" fill="#cdced0"/>
          <path id="Path_10270" data-name="Path 10270" d="M852.936,439.407,778.828,428.22l.307-1.955,74.107,11.187Z" transform="translate(-776.566 -397.436)" fill="#cdced0"/>
          <path id="Path_10271" data-name="Path 10271" d="M849.424,461.785,775.317,450.6l.307-1.955,74.107,11.187Z" transform="translate(-775.317 -405.4)" fill="#cdced0"/>
        </g>
        <path id="Path_10272" data-name="Path 10272" d="M795.752,498.117,768.511,494l-.108.69,27.241,4.112Z" transform="translate(-747.372 -357.344)" fill="#cdced0"/>
        <path id="Path_10273" data-name="Path 10273" d="M866.678,489.6a5.123,5.123,0,0,0-4.03-.35,5.027,5.027,0,0,0-.528-.338,5.134,5.134,0,0,0-5.809.667,4.9,4.9,0,0,0-1.279,5.474,5.076,5.076,0,0,0,4.843,3.082,4.88,4.88,0,0,0,1.429-.257,5.178,5.178,0,0,0,3.129.946,5.043,5.043,0,0,0,4.774-4.169A4.966,4.966,0,0,0,866.678,489.6Zm-6.174,7.665a4.281,4.281,0,0,1-4.405-1.9,4.1,4.1,0,0,1,.343-4.772,4.3,4.3,0,0,1,4.685-1.256,4.208,4.208,0,0,1,.639.292,4.888,4.888,0,0,0-2.177,6.109,4.829,4.829,0,0,0,.983,1.507Zm3.339-3.42a4.243,4.243,0,0,1-2.405,3.123,4.052,4.052,0,0,1-.438-5.684,2,2,0,1,1,2.843,2.56Zm1.219,4.108a4.306,4.306,0,0,1-2.886-.468,5.111,5.111,0,0,0,2.472-3.518,4.993,4.993,0,0,0-1.282-4.084,4.247,4.247,0,0,1,2.318.147,4.168,4.168,0,0,1,2.717,4.5A4.214,4.214,0,0,1,865.063,497.956Z" transform="translate(-778.074 -355.316)" fill="#cdced0"/>
      </g>
      <g id="Group_1399" data-name="Group 1399" transform="translate(36.992 30.57)">
        <path id="Path_10274" data-name="Path 10274" d="M794.727,329.3l1.21.183-1.545,9.845-1.21-.182Z" transform="translate(-793.182 -329.303)" fill="#202020"/>
        <path id="Path_10275" data-name="Path 10275" d="M807.236,331.192l1.21.182L806.9,341.22l-1.32-.2-3.554-8.572L800.8,340.3l-1.21-.182,1.545-9.846,1.32.2L806,339.055Z" transform="translate(-795.461 -329.647)" fill="#202020"/>
        <path id="Path_10276" data-name="Path 10276" d="M821.375,339.061a2.407,2.407,0,0,1,.318,1.877,2.6,2.6,0,0,1-1.171,1.853,3.647,3.647,0,0,1-2.61.4,3.59,3.59,0,0,1-2.282-1.02,3.06,3.06,0,0,1-.651-2.045L816,340.1a1.978,1.978,0,0,0,1.962,2.119q2.241.338,2.514-1.4a1.426,1.426,0,0,0-.237-1.182,3.478,3.478,0,0,0-1.277-.828l-.868-.393a4.418,4.418,0,0,1-1.842-1.266,2.484,2.484,0,0,1-.3-1.88,2.67,2.67,0,0,1,1.138-1.865,3.412,3.412,0,0,1,2.522-.421,3.325,3.325,0,0,1,2.186,1.007,3.177,3.177,0,0,1,.609,2.039l-1.018.026a1.9,1.9,0,0,0-1.811-2.1q-2.132-.322-2.4,1.418a1.524,1.524,0,0,0,.2,1.183,2.942,2.942,0,0,0,1.189.808l.909.4A4.88,4.88,0,0,1,821.375,339.061Z" transform="translate(-800.939 -330.59)" fill="#202020"/>
        <path id="Path_10277" data-name="Path 10277" d="M835.569,335.433l1.21.183-1.035,6.6a4.922,4.922,0,0,1-.463,1.518,2.917,2.917,0,0,1-.7.922,2.3,2.3,0,0,1-.921.441,3.782,3.782,0,0,1-.983.12,8.428,8.428,0,0,1-1.019-.1,8.274,8.274,0,0,1-1-.207,3.629,3.629,0,0,1-.894-.4,2.263,2.263,0,0,1-.736-.691,2.857,2.857,0,0,1-.386-1.086,4.9,4.9,0,0,1,.024-1.585l1.035-6.595,1.21.182-1.029,6.555a2.377,2.377,0,0,0,.43,2.191,2.253,2.253,0,0,0,.678.434,4.525,4.525,0,0,0,1.691.255,2.287,2.287,0,0,0,.779-.214q.835-.385,1.083-1.963Z" transform="translate(-805.781 -331.169)" fill="#202020"/>
        <path id="Path_10278" data-name="Path 10278" d="M844.658,336.841l3.039.459a4.157,4.157,0,0,1,1.493.488,2.093,2.093,0,0,1,.846.846,3.308,3.308,0,0,1,.286,2.032,2.574,2.574,0,0,1-2.155,2.435,2.255,2.255,0,0,1,.52.989l.958,3.583-1.293-.2-.887-3.406a1.34,1.34,0,0,0-.446-.744,2.227,2.227,0,0,0-.89-.341l-1.169-.177-.637,4.059-1.21-.183Zm.45,5.024,1.774.268a1.82,1.82,0,0,0,1.552-.339,2.153,2.153,0,0,0,.678-1.319,2.131,2.131,0,0,0-.242-1.459,1.8,1.8,0,0,0-1.377-.781l-1.773-.267Z" transform="translate(-810.951 -331.986)" fill="#202020"/>
        <path id="Path_10279" data-name="Path 10279" d="M859.693,339.384l1.609.243,1.741,10.341-1.2-.18-.511-3.114-3.822-.577-1.442,2.819-1.2-.18Zm.647,1.174-2.376,4.639,3.2.484Z" transform="translate(-815.136 -332.89)" fill="#202020"/>
        <path id="Path_10280" data-name="Path 10280" d="M877.831,341.849l1.21.183-1.545,9.845-1.32-.2-3.554-8.572-1.232,7.849-1.21-.182,1.545-9.846,1.32.2,3.552,8.586Z" transform="translate(-820.583 -333.44)" fill="#202020"/>
        <path id="Path_10281" data-name="Path 10281" d="M891,344.764a2.487,2.487,0,0,0-2.021.412,3.41,3.41,0,0,0-1,1.892q-.146.572-.279,1.421t-.173,1.458a5.354,5.354,0,0,0,.048,1.174,2.365,2.365,0,0,0,.325.933,2.46,2.46,0,0,0,1.8.989,2.018,2.018,0,0,0,2.533-1.882l.982.2a3.783,3.783,0,0,1-1.195,2.187,3.064,3.064,0,0,1-2.473.462,3.323,3.323,0,0,1-2.878-1.843,4.669,4.669,0,0,1-.35-1.668,13.918,13.918,0,0,1,.68-4.329,4.714,4.714,0,0,1,.846-1.487,3.376,3.376,0,0,1,3.308-.9,3.227,3.227,0,0,1,2.122,1,3.044,3.044,0,0,1,.595,2.043l-1,.028A1.944,1.944,0,0,0,891,344.764Z" transform="translate(-826.324 -334.433)" fill="#202020"/>
        <path id="Path_10282" data-name="Path 10282" d="M901.227,345.381l5.335.805-.148.944-4.125-.623-.538,3.425,3.836.579-.148.944-3.836-.579-.563,3.587,4.4.664-.149.944-5.61-.847Z" transform="translate(-831.081 -335.025)" fill="#202020"/>
        <path id="Path_10283" data-name="Path 10283" d="M820.083,365.189l-1.746-.263-.574,3.655-1.21-.183,1.545-9.845,2.957.446q3.107.47,2.622,3.565T820.083,365.189Zm-1.6-1.208,1.677.253q1.966.3,2.3-1.854t-1.629-2.448l-1.677-.253Z" transform="translate(-801.499 -339.712)" fill="#202020"/>
        <path id="Path_10284" data-name="Path 10284" d="M836.1,370.142a2.834,2.834,0,0,1-1.4.928,5.269,5.269,0,0,1-3.913-.584,2.7,2.7,0,0,1-1.035-1.3,5.318,5.318,0,0,1-.341-1.687,9.843,9.843,0,0,1,.126-1.921,13.727,13.727,0,0,1,.372-1.738,5.962,5.962,0,0,1,.583-1.341,3.5,3.5,0,0,1,.87-1.015,3.772,3.772,0,0,1,2.93-.552,3.358,3.358,0,0,1,2.939,1.99,5.129,5.129,0,0,1,.348,1.681,12.041,12.041,0,0,1-.633,4.033A5.175,5.175,0,0,1,836.1,370.142Zm-3.176.059a2.562,2.562,0,0,0,1.322-.124,2.1,2.1,0,0,0,.987-.776,4.859,4.859,0,0,0,.616-1.232,10.882,10.882,0,0,0,.51-3.25,4.909,4.909,0,0,0-.209-1.364,2.246,2.246,0,0,0-2.01-1.545,2.371,2.371,0,0,0-2.05.505,7.509,7.509,0,0,0-1.05,6.689A2.445,2.445,0,0,0,832.923,370.2Z" transform="translate(-806.073 -340.536)" fill="#202020"/>
        <path id="Path_10285" data-name="Path 10285" d="M844.517,372.619l1.545-9.846,1.21.183-1.4,8.9,3.74.564-.148.944Z" transform="translate(-811.45 -341.214)" fill="#202020"/>
        <path id="Path_10286" data-name="Path 10286" d="M856.352,364.326l1.21.183-1.545,9.845-1.21-.182Z" transform="translate(-815.112 -341.766)" fill="#202020"/>
        <path id="Path_10287" data-name="Path 10287" d="M866.146,366.733a2.485,2.485,0,0,0-2.021.413,3.407,3.407,0,0,0-1,1.892q-.146.572-.279,1.422t-.173,1.458a5.39,5.39,0,0,0,.048,1.174,2.366,2.366,0,0,0,.325.933,2.456,2.456,0,0,0,1.8.989,2.018,2.018,0,0,0,2.533-1.882l.982.2a3.779,3.779,0,0,1-1.195,2.188,3.059,3.059,0,0,1-2.473.462,3.323,3.323,0,0,1-2.878-1.842,4.655,4.655,0,0,1-.35-1.668,13.91,13.91,0,0,1,.68-4.329,4.709,4.709,0,0,1,.846-1.488,3.376,3.376,0,0,1,3.308-.895,3.227,3.227,0,0,1,2.122,1,3.045,3.045,0,0,1,.594,2.043l-1,.028A1.944,1.944,0,0,0,866.146,366.733Z" transform="translate(-817.48 -342.251)" fill="#202020"/>
        <path id="Path_10288" data-name="Path 10288" d="M877.853,377.522l-1.21-.183.538-3.426-2.086-6.886,1.237.187,1.636,5.631,3.286-4.888,1.238.187-4.1,5.952Z" transform="translate(-822.331 -342.728)" fill="#202020"/>
      </g>
    </g>
  </g>
</svg>
