<svg xmlns="http://www.w3.org/2000/svg" width="503.957" height="321.237" viewBox="0 0 503.957 321.237">
  <g id="Group_2921" data-name="Group 2921" transform="translate(-58.666 -29.349)">
    <path id="Path_11825" data-name="Path 11825" d="M275.043,96.1H242.849V76.066a16.1,16.1,0,1,1,32.194,0Z" transform="translate(70.564 12.061)" fill="#9ac9dd" stroke="#284356" stroke-miterlimit="10" stroke-width="2.957"/>
    <g id="Group_2887" data-name="Group 2887" transform="translate(137.854 62.05)">
      <path id="Path_11826" data-name="Path 11826" d="M116.2,132.859l38.861-80.073L176.686,62.4l-38.047,78.4Z" transform="translate(-116.203 -52.787)" fill="#f05e2f" stroke="#284356" stroke-miterlimit="10" stroke-width="2.957"/>
    </g>
    <g id="Group_2888" data-name="Group 2888" transform="translate(188.115 32.89)">
      <path id="Path_11827" data-name="Path 11827" d="M287.912,94.677,237.2,52.191,158.717,71.279,152.46,54.632l88.051-22.745,57.481,48.167Z" transform="translate(-152.46 -31.887)" fill="#f05e2f" stroke="#284356" stroke-miterlimit="10" stroke-width="2.957"/>
    </g>
    <rect id="Rectangle_1240" data-name="Rectangle 1240" width="72.068" height="22.707" transform="translate(116.046 235.801)" fill="#fbb323" stroke="#284356" stroke-miterlimit="10" stroke-width="2.957"/>
    <rect id="Rectangle_1241" data-name="Rectangle 1241" width="91.009" height="82.201" transform="translate(106.575 258.509)" fill="#9ac9dd" stroke="#284356" stroke-miterlimit="10" stroke-width="2.957"/>
    <g id="Group_2890" data-name="Group 2890" transform="translate(316.934 76.621)">
      <path id="Path_11828" data-name="Path 11828" d="M256.491,84.08a9.686,9.686,0,1,1,9.623-9.687A9.666,9.666,0,0,1,256.491,84.08Z" transform="translate(-244.818 -62.646)" fill="#9ac9dd"/>
      <g id="Group_2889" data-name="Group 2889" transform="translate(0 0)">
        <path id="Path_11829" data-name="Path 11829" d="M257.062,67.356a7.622,7.622,0,1,1-7.574,7.621,7.6,7.6,0,0,1,7.574-7.621m0-4.126a11.749,11.749,0,1,0,11.673,11.747A11.724,11.724,0,0,0,257.062,63.23Z" transform="translate(-245.389 -63.23)" fill="#284356"/>
      </g>
    </g>
    <rect id="Rectangle_1242" data-name="Rectangle 1242" width="69.404" height="14.931" transform="translate(117.378 146.323)" fill="#fbb323" stroke="#284356" stroke-miterlimit="10" stroke-width="2.957"/>
    <rect id="Rectangle_1243" data-name="Rectangle 1243" width="86.758" height="14.932" transform="translate(109.387 131.342)" fill="#fbb323" stroke="#284356" stroke-miterlimit="10" stroke-width="2.957"/>
    <g id="Group_2900" data-name="Group 2900" transform="translate(60.144 237.485)">
      <g id="Group_2895" data-name="Group 2895" transform="translate(14.743 32.617)">
        <g id="Group_2893" data-name="Group 2893" transform="translate(179.291)">
          <g id="Group_2891" data-name="Group 2891" transform="translate(232.214)">
            <rect id="Rectangle_1244" data-name="Rectangle 1244" width="10.523" height="76.358" transform="translate(2.051 2.064)" fill="#9ac9dd"/>
            <path id="Path_11830" data-name="Path 11830" d="M378.158,206.028V278.26h-6.424V206.028h6.424m4.1-4.127H367.634v80.485h14.625V201.9Z" transform="translate(-367.634 -201.901)" fill="#284356"/>
          </g>
          <g id="Group_2892" data-name="Group 2892">
            <rect id="Rectangle_1245" data-name="Rectangle 1245" width="10.525" height="76.358" transform="translate(2.051 2.064)" fill="#9ac9dd"/>
            <path id="Path_11831" data-name="Path 11831" d="M210.644,206.028V278.26h-6.425V206.028h6.425m4.1-4.127H200.118v80.485h14.626V201.9Z" transform="translate(-200.118 -201.901)" fill="#284356"/>
          </g>
        </g>
        <g id="Group_2894" data-name="Group 2894" transform="translate(0 66.482)">
          <path id="Path_11832" data-name="Path 11832" d="M72.259,260.854v-5.161a4.653,4.653,0,0,1,4.634-4.664H537.72a4.653,4.653,0,0,1,4.631,4.664v5.161Z" transform="translate(-70.209 -248.965)" fill="#9ac9dd"/>
          <path id="Path_11833" data-name="Path 11833" d="M538.291,253.676a2.591,2.591,0,0,1,2.583,2.6v3.1H74.88v-3.1a2.594,2.594,0,0,1,2.584-2.6H538.291m0-4.126H77.464a6.714,6.714,0,0,0-6.684,6.728V263.5H544.972v-7.225a6.712,6.712,0,0,0-6.682-6.728Z" transform="translate(-70.78 -249.55)" fill="#284356"/>
        </g>
      </g>
      <g id="Group_2899" data-name="Group 2899" transform="translate(155.44)">
        <g id="Group_2898" data-name="Group 2898" transform="translate(0)">
          <path id="Path_11834" data-name="Path 11834" d="M485.066,204.516a19.586,19.586,0,0,1-19.522,19.646h-267.4a19.649,19.649,0,0,1,0-39.3h267.4A19.587,19.587,0,0,1,485.066,204.516Z" transform="translate(-169.829 -176.018)" fill="#284356"/>
          <g id="Group_2897" data-name="Group 2897">
            <g id="Group_2896" data-name="Group 2896" transform="translate(2.05 2.064)">
              <path id="Path_11835" data-name="Path 11835" d="M200.017,232.865a26.431,26.431,0,0,1,0-52.862h267.4a26.431,26.431,0,0,1,0,52.862Zm0-39.3a12.869,12.869,0,0,0,0,25.737h267.4a12.869,12.869,0,0,0,0-25.737Z" transform="translate(-173.756 -180.003)" fill="#9ac9dd"/>
            </g>
            <path id="Path_11836" data-name="Path 11836" d="M467.992,182.651a24.368,24.368,0,0,1,0,48.736h-267.4a24.368,24.368,0,0,1,0-48.736h267.4m-267.4,39.3h267.4a14.931,14.931,0,0,0,0-29.861h-267.4a14.931,14.931,0,0,0,0,29.861m267.4-43.426h-267.4a28.495,28.495,0,0,0,0,56.989h267.4a28.495,28.495,0,0,0,0-56.989Zm-267.4,39.3a10.8,10.8,0,0,1,0-21.61h267.4a10.8,10.8,0,0,1,0,21.61Z" transform="translate(-172.277 -178.524)" fill="#284356"/>
          </g>
        </g>
        <path id="Path_11837" data-name="Path 11837" d="M400.628,202.347a11.916,11.916,0,1,1-11.917-11.995A11.956,11.956,0,0,1,400.628,202.347Z" transform="translate(-93.287 -173.849)" fill="#9ac9dd" stroke="#284356" stroke-miterlimit="10" stroke-width="2.957"/>
        <path id="Path_11838" data-name="Path 11838" d="M208.588,202.347a11.915,11.915,0,1,1-11.916-11.995A11.955,11.955,0,0,1,208.588,202.347Z" transform="translate(-167.456 -173.849)" fill="#9ac9dd" stroke="#284356" stroke-miterlimit="10" stroke-width="2.957"/>
        <path id="Path_11839" data-name="Path 11839" d="M272.6,202.347a11.913,11.913,0,1,1-11.913-11.995A11.951,11.951,0,0,1,272.6,202.347Z" transform="translate(-142.733 -173.849)" fill="#9ac9dd" stroke="#284356" stroke-miterlimit="10" stroke-width="2.957"/>
        <path id="Path_11840" data-name="Path 11840" d="M304.608,202.347a11.915,11.915,0,1,1-11.913-11.995A11.954,11.954,0,0,1,304.608,202.347Z" transform="translate(-130.371 -173.849)" fill="#9ac9dd" stroke="#284356" stroke-miterlimit="10" stroke-width="2.957"/>
        <path id="Path_11841" data-name="Path 11841" d="M336.616,202.347A11.916,11.916,0,1,1,324.7,190.352,11.953,11.953,0,0,1,336.616,202.347Z" transform="translate(-118.01 -173.849)" fill="#9ac9dd" stroke="#284356" stroke-miterlimit="10" stroke-width="2.957"/>
        <path id="Path_11842" data-name="Path 11842" d="M368.62,202.347a11.914,11.914,0,1,1-11.913-11.995A11.951,11.951,0,0,1,368.62,202.347Z" transform="translate(-105.648 -173.849)" fill="#9ac9dd" stroke="#284356" stroke-miterlimit="10" stroke-width="2.957"/>
        <path id="Path_11843" data-name="Path 11843" d="M240.594,202.347a11.915,11.915,0,1,1-11.912-11.995A11.952,11.952,0,0,1,240.594,202.347Z" transform="translate(-155.095 -173.849)" fill="#9ac9dd" stroke="#284356" stroke-miterlimit="10" stroke-width="2.957"/>
      </g>
      <line id="Line_297" data-name="Line 297" x1="501" transform="translate(0 111.297)" fill="#737987" stroke="#284356" stroke-linecap="round" stroke-linejoin="round" stroke-width="2.957"/>
    </g>
    <rect id="Rectangle_1246" data-name="Rectangle 1246" width="42.11" height="18.323" transform="translate(248.429 219.821)" fill="#fbb323" stroke="#284356" stroke-linecap="round" stroke-linejoin="round" stroke-width="2.957"/>
    <rect id="Rectangle_1247" data-name="Rectangle 1247" width="42.112" height="18.323" transform="translate(381.995 219.821)" fill="#fbb323" stroke="#284356" stroke-linecap="round" stroke-linejoin="round" stroke-width="2.957"/>
    <rect id="Rectangle_1248" data-name="Rectangle 1248" width="42.11" height="18.323" transform="translate(315.212 219.821)" fill="#fbb323" stroke="#284356" stroke-linecap="round" stroke-linejoin="round" stroke-width="2.957"/>
    <rect id="Rectangle_1249" data-name="Rectangle 1249" width="42.111" height="18.323" transform="translate(448.779 219.821)" fill="#fbb323" stroke="#284356" stroke-linecap="round" stroke-linejoin="round" stroke-width="2.957"/>
    <rect id="Rectangle_1250" data-name="Rectangle 1250" width="44.738" height="82.294" transform="translate(129.711 153.601)" fill="#fbb323" stroke="#284356" stroke-miterlimit="10" stroke-width="2.957"/>
    <g id="Group_2902" data-name="Group 2902" transform="translate(123.609 113.484)">
      <path id="Path_11844" data-name="Path 11844" d="M133.82,144.321a26.6,26.6,0,1,1,26.427-26.6A26.536,26.536,0,0,1,133.82,144.321Z" transform="translate(-105.356 -89.065)" fill="#9ac9dd"/>
      <g id="Group_2901" data-name="Group 2901" transform="translate(0 0)">
        <path id="Path_11845" data-name="Path 11845" d="M134.392,93.777a24.534,24.534,0,1,1-24.364,24.533,24.455,24.455,0,0,1,24.364-24.533m0-4.127a28.66,28.66,0,1,0,28.477,28.66,28.6,28.6,0,0,0-28.477-28.66Z" transform="translate(-105.927 -89.65)" fill="#284356"/>
      </g>
    </g>
    <g id="Group_2904" data-name="Group 2904" transform="translate(137.431 177.392)">
      <rect id="Rectangle_1251" data-name="Rectangle 1251" width="20.217" height="45.604" rx="1.923" transform="translate(5.171)" fill="#86b0bf" stroke="#284356" stroke-miterlimit="10" stroke-width="1.479"/>
      <g id="Group_2903" data-name="Group 2903" transform="translate(0 5.972)">
        <path id="Rectangle_1252" data-name="Rectangle 1252" d="M1.923,0H27.374A1.923,1.923,0,0,1,29.3,1.923V6.333a1.924,1.924,0,0,1-1.924,1.924H1.922A1.922,1.922,0,0,1,0,6.335V1.923A1.923,1.923,0,0,1,1.923,0Z" fill="#9ac9dd" stroke="#284356" stroke-miterlimit="10" stroke-width="1.479"/>
        <path id="Rectangle_1253" data-name="Rectangle 1253" d="M1.923,0H27.374A1.923,1.923,0,0,1,29.3,1.923V6.332a1.924,1.924,0,0,1-1.924,1.924H1.922A1.922,1.922,0,0,1,0,6.334V1.923A1.923,1.923,0,0,1,1.923,0Z" transform="translate(0 12.701)" fill="#9ac9dd" stroke="#284356" stroke-miterlimit="10" stroke-width="1.479"/>
        <path id="Rectangle_1254" data-name="Rectangle 1254" d="M1.923,0H27.376A1.922,1.922,0,0,1,29.3,1.922v4.41a1.924,1.924,0,0,1-1.924,1.924H1.923A1.923,1.923,0,0,1,0,6.333V1.923A1.923,1.923,0,0,1,1.923,0Z" transform="translate(0 25.403)" fill="#9ac9dd" stroke="#284356" stroke-miterlimit="10" stroke-width="1.479"/>
      </g>
    </g>
    <path id="Path_11846" data-name="Path 11846" d="M237.342,85.835l12.4,15.986-8.528,13.813v26.242l-12.034-3.744-4.763-24.277Z" transform="translate(63.447 22.326)" fill="#9ac9dd" stroke="#284356" stroke-linecap="round" stroke-linejoin="round" stroke-width="2.957"/>
    <g id="Group_2905" data-name="Group 2905" transform="translate(304.842 108.794)">
      <path id="Path_11847" data-name="Path 11847" d="M285.764,104.13h-49.1l.009-17.841,49.1.041Z" transform="translate(-236.666 -86.289)" fill="#fbb323" stroke="#284356" stroke-miterlimit="10" stroke-width="2.957"/>
    </g>
    <g id="Group_2906" data-name="Group 2906" transform="translate(292.329 104.145)">
      <path id="Path_11848" data-name="Path 11848" d="M240.552,107.45a11.508,11.508,0,1,1,11.432-11.507A11.484,11.484,0,0,1,240.552,107.45Z" transform="translate(-227.068 -82.373)" fill="#9ac9dd"/>
      <path id="Path_11849" data-name="Path 11849" d="M241.123,87.083a9.444,9.444,0,1,1-9.385,9.444,9.413,9.413,0,0,1,9.385-9.444m0-4.126a13.57,13.57,0,1,0,13.482,13.57,13.542,13.542,0,0,0-13.482-13.57Z" transform="translate(-227.639 -82.957)" fill="#284356"/>
    </g>
    <path id="Path_11850" data-name="Path 11850" d="M278.326,85.835l-12.4,15.986,8.527,13.813v26.242l12.035-3.744,4.762-24.277Z" transform="translate(79.475 22.326)" fill="#9ac9dd" stroke="#284356" stroke-linecap="round" stroke-linejoin="round" stroke-width="2.957"/>
    <g id="Group_2907" data-name="Group 2907" transform="translate(339.295 104.145)">
      <path id="Path_11851" data-name="Path 11851" d="M274.431,107.45a11.508,11.508,0,1,1,11.434-11.507A11.482,11.482,0,0,1,274.431,107.45Z" transform="translate(-260.949 -82.373)" fill="#9ac9dd"/>
      <path id="Path_11852" data-name="Path 11852" d="M275,87.083a9.444,9.444,0,1,1-9.383,9.444A9.414,9.414,0,0,1,275,87.083m0-4.126a13.57,13.57,0,1,0,13.484,13.57A13.542,13.542,0,0,0,275,82.957Z" transform="translate(-261.52 -82.957)" fill="#284356"/>
    </g>
    <g id="Group_2910" data-name="Group 2910" transform="translate(122.943 272.628)">
      <g id="Group_2908" data-name="Group 2908">
        <rect id="Rectangle_1255" data-name="Rectangle 1255" width="24.284" height="35.438" fill="#505d68"/>
        <rect id="Rectangle_1256" data-name="Rectangle 1256" width="20.435" height="4.232" transform="translate(1.926 29.676)" fill="#3e4b54" opacity="0.21" style="mix-blend-mode: multiply;isolation: isolate"/>
        <rect id="Rectangle_1257" data-name="Rectangle 1257" width="20.435" height="4.233" transform="translate(1.926 1.921)" fill="#3e4b54" opacity="0.21" style="mix-blend-mode: multiply;isolation: isolate"/>
        <rect id="Rectangle_1258" data-name="Rectangle 1258" width="20.435" height="4.234" transform="translate(1.926 8.86)" fill="#3e4b54" opacity="0.21" style="mix-blend-mode: multiply;isolation: isolate"/>
        <rect id="Rectangle_1259" data-name="Rectangle 1259" width="20.435" height="4.231" transform="translate(1.926 15.799)" fill="#3e4b54" opacity="0.21" style="mix-blend-mode: multiply;isolation: isolate"/>
        <rect id="Rectangle_1260" data-name="Rectangle 1260" width="20.435" height="4.231" transform="translate(1.926 22.738)" fill="#3e4b54" opacity="0.21" style="mix-blend-mode: multiply;isolation: isolate"/>
      </g>
      <g id="Group_2909" data-name="Group 2909" transform="translate(31.839)">
        <rect id="Rectangle_1261" data-name="Rectangle 1261" width="24.283" height="35.438" fill="#505d68"/>
        <rect id="Rectangle_1262" data-name="Rectangle 1262" width="20.435" height="4.232" transform="translate(1.924 29.676)" fill="#3e4b54" opacity="0.21" style="mix-blend-mode: multiply;isolation: isolate"/>
        <rect id="Rectangle_1263" data-name="Rectangle 1263" width="20.435" height="4.233" transform="translate(1.924 1.921)" fill="#3e4b54" opacity="0.21" style="mix-blend-mode: multiply;isolation: isolate"/>
        <rect id="Rectangle_1264" data-name="Rectangle 1264" width="20.435" height="4.234" transform="translate(1.924 8.86)" fill="#3e4b54" opacity="0.21" style="mix-blend-mode: multiply;isolation: isolate"/>
        <rect id="Rectangle_1265" data-name="Rectangle 1265" width="20.435" height="4.231" transform="translate(1.924 15.799)" fill="#3e4b54" opacity="0.21" style="mix-blend-mode: multiply;isolation: isolate"/>
        <rect id="Rectangle_1266" data-name="Rectangle 1266" width="20.435" height="4.231" transform="translate(1.924 22.738)" fill="#3e4b54" opacity="0.21" style="mix-blend-mode: multiply;isolation: isolate"/>
      </g>
    </g>
    <g id="Group_2912" data-name="Group 2912" transform="translate(139.301 129.279)">
      <path id="Path_11853" data-name="Path 11853" d="M129.737,125.376a11.833,11.833,0,1,1,11.758-11.833A11.805,11.805,0,0,1,129.737,125.376Z" transform="translate(-116.962 -100.679)" fill="#86b0bf"/>
      <g id="Group_2911" data-name="Group 2911">
        <path id="Path_11854" data-name="Path 11854" d="M130.022,103.035a10.8,10.8,0,1,1-10.725,10.8,10.768,10.768,0,0,1,10.725-10.8m0-2.064A12.865,12.865,0,1,0,142.8,113.835a12.834,12.834,0,0,0-12.782-12.864Z" transform="translate(-117.247 -100.971)" fill="#284356"/>
      </g>
    </g>
    <g id="Group_2916" data-name="Group 2916" transform="translate(256.744 29.349)">
      <g id="Group_2914" data-name="Group 2914">
        <path id="Path_11855" data-name="Path 11855" d="M218.536,61.2a15.188,15.188,0,1,1,15.09-15.189A15.156,15.156,0,0,1,218.536,61.2Z" transform="translate(-201.398 -28.764)" fill="#9ac9dd"/>
        <g id="Group_2913" data-name="Group 2913">
          <path id="Path_11856" data-name="Path 11856" d="M219.107,33.476A13.125,13.125,0,1,1,206.069,46.6a13.082,13.082,0,0,1,13.037-13.122m0-4.127A17.251,17.251,0,1,0,236.247,46.6a17.213,17.213,0,0,0-17.141-17.249Z" transform="translate(-201.969 -29.349)" fill="#284356"/>
        </g>
      </g>
      <g id="Group_2915" data-name="Group 2915" transform="translate(8.091 8.144)">
        <path id="Path_11857" data-name="Path 11857" d="M216.567,52.076A8.075,8.075,0,1,1,224.592,44,8.059,8.059,0,0,1,216.567,52.076Z" transform="translate(-207.521 -34.894)" fill="#86b0bf"/>
        <path id="Path_11858" data-name="Path 11858" d="M216.852,37.25a7.043,7.043,0,1,1-7,7.042,7.028,7.028,0,0,1,7-7.042m0-2.064a9.107,9.107,0,1,0,9.049,9.105,9.077,9.077,0,0,0-9.049-9.105Z" transform="translate(-207.806 -35.186)" fill="#284356"/>
      </g>
    </g>
    <g id="Group_2920" data-name="Group 2920" transform="translate(169.608 53.312)">
      <g id="Group_2918" data-name="Group 2918" transform="translate(0)">
        <path id="Path_11859" data-name="Path 11859" d="M155.675,78.377a15.188,15.188,0,1,1,15.092-15.189A15.154,15.154,0,0,1,155.675,78.377Z" transform="translate(-138.539 -45.939)" fill="#9ac9dd"/>
        <g id="Group_2917" data-name="Group 2917">
          <path id="Path_11860" data-name="Path 11860" d="M156.246,50.65A13.125,13.125,0,1,1,143.21,63.773,13.083,13.083,0,0,1,156.246,50.65m0-4.126a17.251,17.251,0,1,0,17.142,17.249,17.213,17.213,0,0,0-17.142-17.249Z" transform="translate(-139.11 -46.524)" fill="#284356"/>
        </g>
      </g>
      <g id="Group_2919" data-name="Group 2919" transform="translate(8.091 8.144)">
        <path id="Path_11861" data-name="Path 11861" d="M153.706,69.25a8.074,8.074,0,1,1,8.026-8.076A8.056,8.056,0,0,1,153.706,69.25Z" transform="translate(-144.661 -52.069)" fill="#86b0bf"/>
        <path id="Path_11862" data-name="Path 11862" d="M153.992,54.425A7.043,7.043,0,1,1,147,61.466a7.03,7.03,0,0,1,6.995-7.042m0-2.064a9.107,9.107,0,1,0,9.052,9.105,9.077,9.077,0,0,0-9.052-9.105Z" transform="translate(-144.947 -52.361)" fill="#284356"/>
      </g>
    </g>
  </g>
</svg>
