<svg xmlns="http://www.w3.org/2000/svg" width="468" height="330.492" viewBox="0 0 468 330.492">
  <g id="Group_3056" data-name="Group 3056" transform="translate(-33.615 -324.436)">
    <g id="Group_2923" data-name="Group 2923" transform="translate(33.752 324.683)">
      <path id="Path_11863" data-name="Path 11863" d="M353.647,425.526H499.4a2,2,0,0,1,1.96,2.034v6.487a2.007,2.007,0,0,1-1.96,2.034H35.62a2,2,0,0,1-1.96-2.034V427.56a2,2,0,0,1,1.96-2.034H353.647Z" transform="translate(-33.66 -106.041)" fill="#ff6d00"/>
      <path id="Path_11864" data-name="Path 11864" d="M182.936,382.693l29.279-43.309,15.126,5.427s.53,9.944-1.881,26.248l-1.96-.689-1.978-.712c-2.527,3.049-4.862,6.158-7.054,9.311l7.075,2.543,1.939.689c-.686,3.46-1.53,7.1-2.49,10.94l-1.939-.693-10.681-3.843c-1.9,3.315-3.664,6.629-5.249,9.944l12.931,4.659,1.942.686c-1.039,3.435-2.195,6.914-3.509,10.577l-1.92-.7-13.934-5c-1.408,3.558-2.643,7.056-3.762,10.494l13.736,4.918,1.923.693c-1.372,3.356-2.862,6.75-4.469,10.225l-1.881-.674-12.425-4.45c-.982,3.824-1.783,7.483-2.451,10.959l9.956,3.558,1.9.671q-2.5,4.91-5.35,9.925l-1.92-.693-6.411-2.3c-.585,4.558-.921,8.419-1.116,11.449l1.664.588,1.9.67a271.983,271.983,0,0,1-20.36,28.162l-7.566-2.7,6.606-79.074.7-8.356Z" transform="translate(229.232 -292.352)" fill="#2eaeb7"/>
      <path id="Path_11865" data-name="Path 11865" d="M186.759,373.148l1.92.7c1.314-3.662,2.469-7.142,3.509-10.577l-1.942-.686L178,358.169q-1.591,5.337-3.4,10.618Z" transform="translate(255.039 -251.723)" fill="#1f636e" style="mix-blend-mode: screen;isolation: isolate"/>
      <path id="Path_11866" data-name="Path 11866" d="M183.741,379.385l1.881.674c1.606-3.476,3.1-6.87,4.469-10.225l-1.923-.693-12.013-4.3q-2,5.2-4.17,10.336Z" transform="translate(249.67 -237.304)" fill="#1f636e" style="mix-blend-mode: screen;isolation: isolate"/>
      <path id="Path_11867" data-name="Path 11867" d="M169.439,428.2a271.983,271.983,0,0,0,20.36-28.162l-1.9-.67-1.664-.588c.2-3.03.53-6.892,1.116-11.449l6.411,2.3,1.92.693q2.849-5.005,5.35-9.925l-1.9-.671-9.956-3.558c.424-2.2.924-4.5,1.463-6.841-8.352,19.214-18.305,37.885-28.563,56.235Z" transform="translate(229.365 -227.582)" fill="#1f636e" style="mix-blend-mode: screen;isolation: isolate"/>
      <path id="Path_11868" data-name="Path 11868" d="M198.523,344.571l-14.141-5.076a211.23,211.23,0,0,1-8.307,55.3c1.1-2.141,2.25-4.286,3.478-6.43l10.681,3.843,1.939.693c.96-3.843,1.8-7.48,2.49-10.94l-1.939-.689-7.075-2.543c2.192-3.153,4.527-6.262,7.054-9.311l1.978.712,1.96.689C199.053,354.515,198.523,344.571,198.523,344.571Z" transform="translate(258.05 -292.112)" fill="#1f636e" style="mix-blend-mode: screen;isolation: isolate"/>
      <path id="Path_11869" data-name="Path 11869" d="M186.27,348.956l1.978.712c-.509,3.438-1.155,7.154-1.957,11.12v.022l-7.075-2.543C181.408,355.114,183.743,352.005,186.27,348.956Z" transform="translate(264.483 -271.65)" fill="#1d7d7d"/>
      <path id="Path_11870" data-name="Path 11870" d="M196.437,426v.876a1.988,1.988,0,0,1-1.96,2.031H176.254a1.99,1.99,0,0,1-1.963-2.031V426a1.993,1.993,0,0,1,1.963-2.034h18.223A1.99,1.99,0,0,1,196.437,426Z" transform="translate(254.396 -109.419)" fill="#2b4449"/>
      <path id="Path_11871" data-name="Path 11871" d="M196.437,417.48v.873a1.991,1.991,0,0,1-1.96,2.037H176.254a1.994,1.994,0,0,1-1.963-2.037v-.873a1.993,1.993,0,0,1,1.963-2.034h18.223A1.99,1.99,0,0,1,196.437,417.48Z" transform="translate(254.396 -127.842)" fill="#2b4449"/>
      <rect id="Rectangle_1267" data-name="Rectangle 1267" width="17.029" height="21.998" transform="translate(431.352 292.547)" fill="#1d7d7d"/>
      <path id="Path_11872" data-name="Path 11872" d="M180.743,354.947l10.681,3.843q-1.294,5.186-3,10.738v.022l-12.931-4.659C177.079,361.576,178.844,358.262,180.743,354.947Z" transform="translate(256.86 -258.692)" fill="#1d7d7d"/>
      <path id="Path_11873" data-name="Path 11873" d="M176.549,361.324l13.934,5c-.646,1.831-1.311,3.666-2.036,5.532v.022c-.61,1.607-1.256,3.232-1.923,4.858l-13.736-4.918C173.906,368.38,175.14,364.882,176.549,361.324Z" transform="translate(251.315 -244.9)" fill="#1d7d7d"/>
      <path id="Path_11874" data-name="Path 11874" d="M181.234,418.043v1.711a1.988,1.988,0,0,1-1.96,2.031h-.04a2,2,0,0,1-1.96-2.031v-12.2a2,2,0,0,1,1.96-2.031h.04a1.99,1.99,0,0,1,1.96,2.031Z" transform="translate(260.506 -149.309)" fill="#2b4449"/>
      <path id="Path_11875" data-name="Path 11875" d="M173.412,368.029l12.425,4.45c-1.53,3.3-3.176,6.673-4.92,10.067l-9.956-3.558C171.629,375.512,172.43,371.853,173.412,368.029Z" transform="translate(247.575 -230.398)" fill="#1d7d7d"/>
      <path id="Path_11876" data-name="Path 11876" d="M171.113,375.023l6.411,2.3q-2.766,4.82-5.862,9.739L170,386.472C170.192,383.442,170.527,379.581,171.113,375.023Z" transform="translate(245.6 -215.271)" fill="#1d7d7d"/>
      <path id="Path_11877" data-name="Path 11877" d="M137.956,340.078l114.755,41.114L239.091,401.34l-.705,8.355L127.941,370.128Z" transform="translate(159.457 -290.851)" fill="#ff6d00"/>
      <path id="Path_11878" data-name="Path 11878" d="M140.012,414.309l7-1.281v-.019l3.234-.592a1.982,1.982,0,0,1,2.271,1.648,2.028,2.028,0,0,1-1.585,2.359l-3.195.588-7,1.3-4.1.753a1.911,1.911,0,0,0-1.725-1.079l-.488-2.644Z" transform="translate(172.744 -134.451)" fill="#2b4449"/>
      <path id="Path_11879" data-name="Path 11879" d="M338.013,416.195v33.912H36.231V416.195a1.99,1.99,0,0,1,1.96-2.034H336.053a1.911,1.911,0,0,1,1.725,1.079A1.939,1.939,0,0,1,338.013,416.195Z" transform="translate(-28.394 -130.621)" fill="#2b4449"/>
      <path id="Path_11880" data-name="Path 11880" d="M179.337,449.432V415.52a1.939,1.939,0,0,0-.235-.955.665.665,0,0,0-.061-.092A684.55,684.55,0,0,1,113.7,449.432Z" transform="translate(130.282 -129.947)" fill="#031417" style="mix-blend-mode: screen;isolation: isolate"/>
      <path id="Path_11881" data-name="Path 11881" d="M190.014,414.161H136.983q-42.474,17.592-84.618,35.946H183.589q38.4-18.038,76.854-35.946Z" transform="translate(4.654 -130.621)" fill="#031417" style="mix-blend-mode: screen;isolation: isolate"/>
      <path id="Path_11882" data-name="Path 11882" d="M151.5,459.762l17.519,96.093.49,2.644H154.243l-36.7-201.051,3.038-10.023,11.15,4.006,2.2,12.015.723,4.006,16.109,88.3Z" transform="translate(138.152 -274.959)" fill="#2eaeb7"/>
      <path id="Path_11883" data-name="Path 11883" d="M141.016,381.28l2.57-.471a1.989,1.989,0,0,1,2.271,1.645,2.046,2.046,0,0,1-1.585,2.363l-2.53.465-7,1.3-5.563,1.037-.747-4,5.588-1.034Z" transform="translate(160.47 -202.817)" fill="#2b4449"/>
      <path id="Path_11884" data-name="Path 11884" d="M157.69,348.911l.881-2.641,11.13,3.984-.881,2.644-10.014,30.05-1.02,3.092-2.585-.914-7.761-2.786-6.153-2.2-11.15-4.006L126,374.653l-8.858-3.169-4.27-1.526,1.018-3.092,9.995-30.072.881-2.644,11.131,3.988-.881,2.641-7.192,21.636,22.693,8.111Z" transform="translate(128.593 -303.672)" fill="#2b4449"/>
      <path id="Path_11885" data-name="Path 11885" d="M119.633,350.595l36.7,201.051h-5l-34.8-190.8h-.018Z" transform="translate(136.059 -268.106)" fill="#1b7777"/>
      <path id="Path_11886" data-name="Path 11886" d="M140.178,353.288a2.058,2.058,0,0,1-1.588,2.359l-2.372.427v.019l-7.014,1.281-5.566,1.037-.722-4.007,5.563-1.015,7-1.3,2.43-.449A1.953,1.953,0,0,1,140.178,353.288Z" transform="translate(149.162 -265.918)" fill="#2b4449"/>
      <path id="Path_11887" data-name="Path 11887" d="M147.643,344.379l-7.173,21.615-22.693-8.111,7.192-21.636Z" transform="translate(138.639 -299.139)" fill="#ff6d00"/>
      <path id="Path_11888" data-name="Path 11888" d="M164.663,348.442l-3.038,10.023-3.115,10.249L100.6,559.515H96.017l64.51-212.537v-.022Z" transform="translate(94.067 -275.975)" fill="#2eaeb7"/>
      <path id="Path_11889" data-name="Path 11889" d="M167.124,349.123v.022l-64.51,212.537H92.8L97.3,546.819l60.963-200.865Z" transform="translate(87.47 -278.142)" fill="#1b7777"/>
      <path id="Path_12019" data-name="Path 12019" d="M0,0,31.686-.355,30.826,74.16l-31.686.355Z" transform="matrix(0.326, -0.945, 0.945, 0.326, 172.325, 38.075)" fill="#ff6d00"/>
      <path id="Path_11890" data-name="Path 11890" d="M136.379,340.078l-7.667,23c32.821,11.6,66,22.045,99.762,31.341,4.816-5.722,9.776-11.171,14.367-16.2Z" transform="translate(161.036 -290.852)" fill="#ff6d00"/>
      <path id="Path_11891" data-name="Path 11891" d="M147.643,344.379l-22.673-8.133-7.192,21.636,22.693,8.111Z" transform="translate(138.639 -299.139)" fill="#ff6d00"/>
      <g id="Group_2922" data-name="Group 2922" transform="translate(172.33 7.992)">
        <path id="Path_11892" data-name="Path 11892" d="M175.806,352.138c-4.591,5.029-9.55,10.478-14.367,16.2q5.789,1.594,11.587,3.15l11.071-16.38Z" transform="translate(55.741 -272.76)" fill="#ffb985" style="mix-blend-mode: multiply;isolation: isolate"/>
        <path id="Path_11893" data-name="Path 11893" d="M127.941,354.4l110.446,39.567.7-8.356,2.548-3.767c-37.772-10.064-74.778-21.561-111.349-34.491Z" transform="translate(-12.874 -283.114)" fill="#ffb985" style="mix-blend-mode: multiply;isolation: isolate"/>
        <path id="Path_11894" data-name="Path 11894" d="M110.967,330.9l-10.782-3.862-6.31,18.987L90.193,357.11l70.154,25.132,2.515-7.565q-30.073-11.695-59.963-24.724A128.474,128.474,0,0,1,110.967,330.9Z" transform="translate(-90.193 -327.041)" fill="#ffb985" style="mix-blend-mode: multiply;isolation: isolate"/>
      </g>
      <path id="Path_11895" data-name="Path 11895" d="M161.8,349.529,102.43,328.262a128.474,128.474,0,0,0-8.069,19.05q29.918,13,59.963,24.724Z" transform="translate(90.674 -316.408)" fill="#ff6d00"/>
      <path id="Path_11896" data-name="Path 11896" d="M112.855,481.277l-4.507,14.863H95.16V446.894L85.2,436.584V376.258l27.651,12.018Z" transform="translate(71.918 -212.6)" fill="#d85700"/>
      <path id="Path_11897" data-name="Path 11897" d="M112.011,327.705l-1.606,4.8-9.992,30.069L91.4,389.7l-6.194-2.22a250.405,250.405,0,0,1,17.872-62.969Z" transform="translate(71.918 -324.514)" fill="#2b4449"/>
      <path id="Path_11898" data-name="Path 11898" d="M117.7,358.029l-2,5.51-.723-.247-3.744-1.239-27.924-9.272-3.743-1.241-1.392-.467,2.45-6.65H99.6l6.193,2.221Z" transform="translate(57.526 -281.454)" fill="#1d7d7d"/>
      <path id="Path_11899" data-name="Path 11899" d="M93.937,351.237l-1.707,4.434a1.952,1.952,0,0,1-1.823,1.281,1.871,1.871,0,0,1-.722-.146,2.077,2.077,0,0,1-1.1-2.641L90.194,350Z" transform="translate(78.57 -269.398)" fill="#2b4449"/>
      <path id="Path_11900" data-name="Path 11900" d="M131.49,398.591v49.246H67.468V398.591Z" transform="translate(35.589 -164.297)" fill="#ff8b00"/>
      <path id="Path_11901" data-name="Path 11901" d="M123.959,407.042q-26.3,11.472-52.815,22.516h52.815Z" transform="translate(43.119 -146.019)" fill="#ff8b00"/>
      <path id="Path_11902" data-name="Path 11902" d="M131.489,398.591h-1.411c-20.936,7.838-41.792,15.906-62.609,23.832v25.413H78.674q26.534-11,52.815-22.516Z" transform="translate(35.589 -164.297)" fill="#ff3000" style="mix-blend-mode: screen;isolation: isolate"/>
      <path id="Path_11903" data-name="Path 11903" d="M67.468,398.591v23.832c20.817-7.926,41.673-15.995,62.609-23.832Z" transform="translate(35.589 -164.297)" fill="#ff8b00"/>
      <path id="Path_11904" data-name="Path 11904" d="M140.825,405.905H76.8l-1.136-.874L62.91,395.209h67.959v.386Z" transform="translate(26.253 -171.612)" fill="#ff6d00"/>
      <path id="Path_11905" data-name="Path 11905" d="M62.91,388.6v-12.24l.1-.1H84.465l20.695,21.469a9.553,9.553,0,0,0,13.855,0l.646-.671a10.407,10.407,0,0,0,0-14.375l-6.173-6.424h17.381V436.2H62.91V411.8a12.607,12.607,0,0,0,8.133,4.7l6.975,2.663h.021a15.389,15.389,0,0,0,4.859.772c8.837,0,16.01-7.439,16.01-16.608S91.735,386.7,82.9,386.7a16.234,16.234,0,0,0-4.682.737l-8.779,3.049a12.643,12.643,0,0,0-6.526,4.352Z" transform="translate(26.253 -212.6)" fill="#ff8b00"/>
      <path id="Path_11906" data-name="Path 11906" d="M111.81,416.992H96.093L71.4,391.373l8.682-24.686,20.792-8.375c5.057-2.037,6.036-.446,2.213,3.517L84.726,380.882a6.192,6.192,0,0,0,.043,8.581l16.7,17Z" transform="translate(43.647 -253.334)" fill="#2b4449"/>
      <path id="Path_11907" data-name="Path 11907" d="M113.706,394.841,138.4,420.46l6.173,6.424a10.407,10.407,0,0,1,0,14.375l-.646.671a9.553,9.553,0,0,1-13.855,0L109.375,420.46,98.715,409.4l-9.66-10.023L78.413,388.335a5.727,5.727,0,0,0-8.307,0L54.9,404.111c-3.823,3.988-5.271,2.989-3.213-2.214l13.833-35.073,10.581-11,20.323,21.087,4.076,4.229Zm-2.448,6.952a3.544,3.544,0,0,0-1.393-.262,4.086,4.086,0,1,0,1.393.262Zm30.55,33.02A4.049,4.049,0,1,0,137.77,439,4.128,4.128,0,0,0,141.809,434.813Z" transform="translate(1.343 -256.802)" fill="#1b7777"/>
      <path id="Path_11908" data-name="Path 11908" d="M82.02,379.466a4.2,4.2,0,1,1-4.054,4.207A4.128,4.128,0,0,1,82.02,379.466Z" transform="translate(57.092 -205.661)" fill="#ff6d00"/>
      <path id="Path_11909" data-name="Path 11909" d="M83.85,347.913,81.7,353.527a1.968,1.968,0,0,1-1.823,1.281,1.855,1.855,0,0,1-.725-.142,2.07,2.07,0,0,1-1.1-2.644l2.058-5.348Z" transform="translate(56.988 -276.588)" fill="#2b4449"/>
      <path id="Path_11910" data-name="Path 11910" d="M88.958,360.353l-8.682,24.685-13.207-13.7,3.391-3.54Z" transform="translate(34.773 -246.999)" fill="#2b4449"/>
      <path id="Path_11911" data-name="Path 11911" d="M78.512,379.561c8.837,0,16.01,7.445,16.01,16.618s-7.173,16.608-16.01,16.608a15.389,15.389,0,0,1-4.859-.772h-.021l-6.975-2.663a11.946,11.946,0,0,0,1.725.123,13.309,13.309,0,0,0,0-26.6,11.933,11.933,0,0,0-3.332.471L73.83,380.3A16.234,16.234,0,0,1,78.512,379.561Z" transform="translate(30.638 -205.456)" fill="#1b7777"/>
      <path id="Path_11912" data-name="Path 11912" d="M74.247,370.535a4.007,4.007,0,1,1-1.393-.262A3.544,3.544,0,0,1,74.247,370.535Z" transform="translate(38.354 -225.544)" fill="#ff6d00"/>
      <path id="Path_11913" data-name="Path 11913" d="M71.411,381.08a11.933,11.933,0,0,1,3.332-.471,13.309,13.309,0,0,1,0,26.6,11.946,11.946,0,0,1-1.725-.123,12.607,12.607,0,0,1-8.133-4.7,13.7,13.7,0,0,1,0-16.956A12.643,12.643,0,0,1,71.411,381.08Zm12.23,12.832a8.9,8.9,0,1,0-8.9,9.226A9.076,9.076,0,0,0,83.641,393.912Z" transform="translate(24.278 -203.189)" fill="#2eaeb7"/>
      <path id="Path_11914" data-name="Path 11914" d="M72.111,381.9a9.236,9.236,0,1,1-8.88,9.232A9.076,9.076,0,0,1,72.111,381.9Z" transform="translate(26.91 -200.406)" fill="#062f3f"/>
      <path id="Path_11915" data-name="Path 11915" d="M73.2,365.017l-3.393,3.539-4.076-4.229,2.018-2.1a1.908,1.908,0,0,1,2.765,0Z" transform="translate(32.033 -244.222)" fill="#d85700"/>
      <path id="Path_11916" data-name="Path 11916" d="M49.888,408.613h76.955V426.16H38.481V410.647a2,2,0,0,1,1.96-2.034h9.447Z" transform="translate(-23.785 -142.621)" fill="#2eaeb7"/>
      <path id="Path_11917" data-name="Path 11917" d="M122.635,437.581l-.021.038L91.262,470.153H80.8c-.079-9.678-7.642-17.487-16.991-17.487s-16.912,7.809-16.988,17.487H39.98V452.665l69.9-72.505V386.4a13.7,13.7,0,0,0,0,16.956v24.4Z" transform="translate(-20.715 -204.16)" fill="#1b7777"/>
      <path id="Path_11918" data-name="Path 11918" d="M83.092,437.581l-12.757-9.824v-24.4a13.7,13.7,0,0,1,0-16.956V380.16l-11.05,11.462a317.283,317.283,0,0,0,9.471,60.85l14.315-14.853Z" transform="translate(18.828 -204.16)" fill="#9ac3c3" style="mix-blend-mode: multiply;isolation: isolate"/>
      <path id="Path_11919" data-name="Path 11919" d="M39.98,444.827v17.487h6.837c.076-9.678,7.642-17.487,16.988-17.487s16.912,7.809,16.991,17.487H91.262l17.037-17.68a317.283,317.283,0,0,1-9.471-60.85Z" transform="translate(-20.715 -196.322)" fill="#1b7777"/>
      <path id="Path_11920" data-name="Path 11920" d="M70.384,369.592l9.66,10.023a5.655,5.655,0,0,0-.823.731l-9.974,10.33h-.1v.1l-5.133,5.329c-3.823,3.982-5.274,2.986-3.216-2.22Z" transform="translate(20.014 -227.017)" fill="#2b4449"/>
      <path id="Path_11921" data-name="Path 11921" d="M68.363,358.132l-10.581,11L55.1,366.349a2.109,2.109,0,0,1,0-2.888l7.822-8.116a1.9,1.9,0,0,1,2.762,0Z" transform="translate(9.079 -259.113)" fill="#ff6d00"/>
      <path id="Path_11922" data-name="Path 11922" d="M76.2,420.571H68.365a9.155,9.155,0,1,0-18.305,0H42.223c.076-9.678,7.642-17.487,16.988-17.487S76.123,410.893,76.2,420.571Z" transform="translate(-16.12 -154.579)" fill="#ff8b00"/>
      <path id="Path_11923" data-name="Path 11923" d="M63.1,415.011H44.794a9.155,9.155,0,1,1,18.305,0Z" transform="translate(-10.854 -149.019)" fill="#d85700"/>
    </g>
    <g id="Group_3055" data-name="Group 3055" transform="translate(33.615 324.436)">
      <g id="Group_2924" data-name="Group 2924" transform="translate(445.9 292.8)">
        <path id="Path_11924" data-name="Path 11924" d="M182.682,417.011c.128,3.663.094,7.328.146,10.991-.052,3.666-.021,7.331-.146,10.994h-.3a18.156,18.156,0,0,1-1.942-5.5,29.231,29.231,0,0,1-.552-5.5c.037-.914.058-1.831.128-2.749.14-.914.186-1.831.418-2.745a17.932,17.932,0,0,1,1.948-5.5Z" transform="translate(-179.893 -417.011)" fill="#248989"/>
      </g>
      <g id="Group_2925" data-name="Group 2925" transform="translate(431.225 292.8)">
        <path id="Path_11925" data-name="Path 11925" d="M175.222,439c-.125-3.663-.095-7.328-.143-10.994.052-3.663.018-7.328.143-10.991h.3a18.159,18.159,0,0,1,1.942,5.5,29.214,29.214,0,0,1,.555,5.494c-.04.914-.061,1.831-.131,2.749a27.458,27.458,0,0,1-.418,2.749,17.854,17.854,0,0,1-1.948,5.5Z" transform="translate(-175.079 -417.011)" fill="#2e998f"/>
      </g>
      <g id="Group_2926" data-name="Group 2926" transform="translate(157.167 163.62)">
        <path id="Path_11926" data-name="Path 11926" d="M112.636,481.472a229.876,229.876,0,0,1-3.274-23.25c-.372-3.875-.6-7.752-.914-11.627l-.54-11.623c-.165-7.749-.354-15.5-.149-23.25l.088-5.813.244-5.813c.174-3.875.317-7.749.655-11.623l2.567,4c-2.222-1.205-4.472-2.334-6.67-3.6l-6.593-3.792c-2.161-1.344-4.353-2.628-6.5-4.023-2.155-1.373-4.28-2.824-6.38-4.324l.229-.566,27.7,11.883.271.114v.307l.11,23.25c.07,7.749-.006,15.5-.034,23.25l-.223,46.5Z" transform="translate(-85.174 -376.168)" fill="#eb6600"/>
      </g>
      <g id="Group_2927" data-name="Group 2927" transform="translate(97.228 116.658)">
        <path id="Path_11927" data-name="Path 11927" d="M72.979,366.428l-2.682-2.78a.976.976,0,0,0-1.387,0L66.9,365.736,65.511,364.3l2.012-2.091a2.874,2.874,0,0,1,4.158,0l2.686,2.783Z" transform="translate(-65.511 -361.32)" fill="#ff6d00"/>
      </g>
      <g id="Group_2928" data-name="Group 2928" transform="translate(144.576 87.536)">
        <path id="Path_11928" data-name="Path 11928" d="M82.423,418.2l-1.38-.525,23.063-65.564,1.38.525Z" transform="translate(-81.043 -352.112)" fill="#266871"/>
      </g>
      <g id="Group_2929" data-name="Group 2929" transform="translate(80.908 152.765)">
        <path id="Path_11929" data-name="Path 11929" d="M60.157,391.628a9.871,9.871,0,0,0,2.137-2.489c.625-.9,1.3-1.885,2-2.767a65.388,65.388,0,0,1,4.451-5.149,63.5,63.5,0,0,1,4.969-4.615,26.806,26.806,0,0,1,5.7-3.871l.113.168c-1.661,1.468-3.143,3.232-4.725,4.833l-4.673,4.921-4.74,4.845L63,389.923a7.271,7.271,0,0,1-2.8,1.9Z" transform="translate(-60.157 -372.736)" fill="#0e2a31"/>
      </g>
      <g id="Group_2930" data-name="Group 2930" transform="translate(125.117 104.681)">
        <path id="Path_11930" data-name="Path 11930" d="M98.745,357.533a1.449,1.449,0,0,1-.091,1.294A6.027,6.027,0,0,1,98,359.918a17.878,17.878,0,0,1-1.622,1.895l-3.426,3.571L86.1,372.528l-6.853,7.148a18.092,18.092,0,0,0-1.637,1.822,5.988,5.988,0,0,0,.03,6.838c4.441,4.789,9.175,9.457,13.751,14.192l13.836,14.154-.14.146c-2.573-2.075-5-4.308-7.5-6.458l-7.261-6.718c-2.451-2.2-4.734-4.586-7.1-6.882l-3.521-3.476-1.759-1.736-.881-.867a8.674,8.674,0,0,1-1-1.161,7.983,7.983,0,0,1-1.222-6.215,7.89,7.89,0,0,1,1.311-2.96,19.039,19.039,0,0,1,1.835-1.989c2.344-2.315,4.6-4.725,7.035-6.955l7.2-6.788,3.7-3.286a17.465,17.465,0,0,0,1.719-1.7c.479-.576,1.149-1.284.93-2.005Z" transform="translate(-74.66 -357.533)" fill="#0e2a31"/>
      </g>
      <g id="Group_2931" data-name="Group 2931" transform="translate(101.761 104.187)">
        <path id="Path_11931" data-name="Path 11931" d="M69.284,379.508l2.814-2.97c3.451-1.423,6.9-2.837,10.312-4.355l5.4-2.35,5.341-2.5c3.554-1.686,7.142-3.28,10.669-5.042l5.271-2.692c.887-.456,1.738-.9,2.609-1.268a7.511,7.511,0,0,1,1.329-.456c.439-.085.921-.161,1.213.139l.226-.19a1.6,1.6,0,0,0-1.478-.433,7.815,7.815,0,0,0-1.463.3,28.835,28.835,0,0,0-2.771,1.022l-5.46,2.179-10.925,4.358-21.844,8.72-.055.022-.043.044-3.408,3.52-.021.022Z" transform="translate(-66.998 -357.377)" fill="#53686c"/>
      </g>
      <g id="Group_2932" data-name="Group 2932" transform="translate(79.889 142.723)">
        <path id="Path_11932" data-name="Path 11932" d="M70.27,369.561l-5.737,14.666-2.868,7.335c-.466,1.224-.985,2.423-1.393,3.694a9.521,9.521,0,0,0-.436,1.958,2.366,2.366,0,0,0,.107,1.05.812.812,0,0,0,.948.481l-.049-.3c-.637.047-.6-.591-.488-1.18a11.151,11.151,0,0,1,.616-1.768c.488-1.148,1.122-2.334,1.692-3.511,1.143-2.366,2.39-4.684,3.438-7.091l3.262-7.164c1.036-2.3,2.106-4.577,3.109-6.885Z" transform="translate(-59.823 -369.561)" fill="#53686c"/>
      </g>
      <g id="Group_2933" data-name="Group 2933" transform="translate(26.169 248.555)">
        <path id="Path_11933" data-name="Path 11933" d="M42.2,420.845a18.113,18.113,0,0,1,4.969-12.566,16.583,16.583,0,0,1,24.225,0,18.117,18.117,0,0,1,4.966,12.566h-.2a19.675,19.675,0,0,0-2.033-6.38,16.646,16.646,0,0,0-3.813-5.073,16.2,16.2,0,0,0-22.07.006,16.46,16.46,0,0,0-3.813,5.07,19.513,19.513,0,0,0-2.039,6.379Z" transform="translate(-42.2 -403.022)" fill="#ffb300"/>
      </g>
      <g id="Group_2934" data-name="Group 2934" transform="translate(33.903 256.485)">
        <path id="Path_11934" data-name="Path 11934" d="M44.743,415.416a9.633,9.633,0,0,1,2.646-6.936,9.068,9.068,0,0,1,13.388,0,9.645,9.645,0,0,1,2.646,6.943H63.03a12.177,12.177,0,0,0-4.454-4.659,9.329,9.329,0,0,0-4.493-1.167,9.458,9.458,0,0,0-4.487,1.17,12.239,12.239,0,0,0-4.46,4.662Z" transform="translate(-44.737 -405.529)" fill="#ba4a00"/>
      </g>
      <g id="Group_2935" data-name="Group 2935" transform="translate(33.73 255.064)">
        <path id="Path_11935" data-name="Path 11935" d="M44.957,416.394a8.776,8.776,0,0,1,1.789-7.73,9.536,9.536,0,0,1,14.9,0,8.779,8.779,0,0,1,1.789,7.727h-.2a9.518,9.518,0,0,0-2.686-6.6,8.871,8.871,0,0,0-12.718,0,9.549,9.549,0,0,0-2.689,6.6Z" transform="translate(-44.68 -405.08)" fill="#ff9517"/>
      </g>
      <g id="Group_2936" data-name="Group 2936" transform="translate(70.017 232.99)">
        <path id="Path_12020" data-name="Path 12020" d="M0,0,45.167-.833l-.037,2L-.037,2Z" transform="matrix(0.707, -0.707, 0.707, 0.707, 0, 32.544)" fill="#004d52"/>
      </g>
      <g id="Group_2937" data-name="Group 2937" transform="translate(19.17 175.939)">
        <path id="Path_11936" data-name="Path 11936" d="M110.344,380.348c-5.045,6.879-10.355,13.483-15.836,19.913-5.5,6.4-11.111,12.7-16.9,18.806-5.74,6.158-11.638,12.149-17.622,18.054C53.978,443,47.9,448.8,41.578,454.355l.585-1.471c-.177,2.913-.546,5.826-.811,8.742s-.576,5.826-1,8.742h-.39L39.9,452.884v-.108l.073-.079c11.657-12.136,23.231-24.351,34.946-36.42l35.141-36.215Z" transform="translate(-39.904 -380.063)" fill="#2e998f"/>
      </g>
      <g id="Group_2938" data-name="Group 2938" transform="translate(14.656 265.941)">
        <path id="Path_11937" data-name="Path 11937" d="M126.986,408.974c-4.35.588-8.7.841-13.053,1.271l-13.053.721c-8.7.471-17.4.541-26.106.6-8.7-.063-17.4-.133-26.106-.607l-6.526-.351-1.549-.089a.386.386,0,0,0-.329.063.456.456,0,0,0-.122.142c-.03.089-.049.019-.061.4-.034.566-.043,1.126-.1,1.692-.412,4.516-.655,9.027-1.216,13.543h-.3l-.037-13.543-.006-1.692a2.424,2.424,0,0,1,.509-1.708,2.116,2.116,0,0,1,1.564-.787l1.64-.013,6.526-.016,26.106-.076,52.211.149Z" transform="translate(-38.423 -408.519)" fill="#59cdd3"/>
      </g>
      <g id="Group_2939" data-name="Group 2939" transform="translate(189.295 70.94)">
        <path id="Path_12021" data-name="Path 12021" d="M0,4.281,222.1,1.968l-.021,1.968L-.021,6.248Z" transform="translate(-4.083 211.242) rotate(-72.511)" fill="#004d52"/>
      </g>
      <g id="Group_2940" data-name="Group 2940" transform="translate(254.894 82.538)">
        <path id="Path_12022" data-name="Path 12022" d="M0,0,1.962-.013.607,204.353l-1.962.013Z" transform="translate(0 0.378) rotate(-10.722)" fill="#004d52"/>
      </g>
      <g id="Group_2941" data-name="Group 2941" transform="translate(179.439 67.772)">
        <path id="Path_12023" data-name="Path 12023" d="M0,4.316,225.419,1.967,225.4,3.934-.021,6.283Z" transform="translate(-4.116 214.389) rotate(-72.495)" fill="#2e998f"/>
      </g>
      <g id="Group_2942" data-name="Group 2942" transform="translate(251.783 92.789)">
        <path id="Path_12024" data-name="Path 12024" d="M0,0,1.961-.013.676,193.932l-1.961.013Z" transform="matrix(0.983, -0.186, 0.186, 0.983, 0, 0.378)" fill="#2e998f"/>
      </g>
      <g id="Group_2943" data-name="Group 2943" transform="translate(439.199 127.201)">
        <rect id="Rectangle_1274" data-name="Rectangle 1274" width="1.47" height="129.253" fill="#266871"/>
      </g>
      <g id="Group_2964" data-name="Group 2964" transform="translate(275.229 78.726)">
        <g id="Group_2944" data-name="Group 2944" transform="translate(44.448 203.892)">
          <path id="Path_12025" data-name="Path 12025" d="M0,0,1.962-.013,1.713,37.528l-1.962.013Z" transform="translate(0 0.378) rotate(-10.724)" fill="#1b7777"/>
        </g>
        <g id="Group_2945" data-name="Group 2945" transform="translate(26.182 103.799)">
          <path id="Path_12026" data-name="Path 12026" d="M0,0,1.962-.013,1.314,97.677l-1.962.013Z" transform="matrix(0.983, -0.186, 0.186, 0.983, 0, 0.378)" fill="#1b7777"/>
        </g>
        <g id="Group_2946" data-name="Group 2946" transform="translate(9.34 11.493)">
          <path id="Path_12027" data-name="Path 12027" d="M0,0,1.962-.013,1.367,89.754l-1.962.013Z" transform="translate(0 0.378) rotate(-10.719)" fill="#1b7777"/>
        </g>
        <g id="Group_2947" data-name="Group 2947" transform="translate(7.749 2.78)">
          <path id="Path_12028" data-name="Path 12028" d="M0,0,1.962-.013,1.93,4.781l-1.962.013Z" transform="translate(0 0.379) rotate(-10.735)" fill="#1b7777"/>
        </g>
        <g id="Group_2948" data-name="Group 2948" transform="translate(37.444 205.193)">
          <path id="Path_12029" data-name="Path 12029" d="M0,0,1.962-.013l-.24,36.228-1.962.013Z" transform="translate(0 0.378) rotate(-10.718)" fill="#1b7777"/>
        </g>
        <g id="Group_2949" data-name="Group 2949" transform="translate(19.175 105.093)">
          <path id="Path_12030" data-name="Path 12030" d="M0,0,1.962-.013,1.314,97.68l-1.962.013Z" transform="translate(0 0.378) rotate(-10.722)" fill="#1b7777"/>
        </g>
        <g id="Group_2950" data-name="Group 2950" transform="translate(2.334 12.79)">
          <path id="Path_12031" data-name="Path 12031" d="M0,0,1.961-.013,1.367,89.751l-1.961.013Z" transform="matrix(0.983, -0.186, 0.186, 0.983, 0, 0.378)" fill="#1b7777"/>
        </g>
        <g id="Group_2951" data-name="Group 2951">
          <path id="Path_12032" data-name="Path 12032" d="M0,0,1.962-.013,1.9,8.928l-1.962.013Z" transform="matrix(0.983, -0.186, 0.186, 0.983, 0, 0.378)" fill="#1b7777"/>
        </g>
        <g id="Group_2952" data-name="Group 2952" transform="translate(4.633 19.254)">
          <path id="Path_12033" data-name="Path 12033" d="M0,0,7.2-.055,7.181,1.976l-7.2.055Z" transform="matrix(0.978, -0.209, 0.209, 0.978, 0, 1.557)" fill="#1b7777"/>
        </g>
        <g id="Group_2953" data-name="Group 2953" transform="translate(7.559 35.421)">
          <path id="Path_12034" data-name="Path 12034" d="M0,0,7.2-.055,7.181,1.977l-7.2.055Z" transform="translate(0 1.555) rotate(-12.038)" fill="#1b7777"/>
        </g>
        <g id="Group_2954" data-name="Group 2954" transform="translate(10.483 51.586)">
          <path id="Path_12035" data-name="Path 12035" d="M0,0,7.2-.055,7.184,1.976l-7.2.055Z" transform="matrix(0.978, -0.209, 0.209, 0.978, 0, 1.562)" fill="#1b7777"/>
        </g>
        <g id="Group_2955" data-name="Group 2955" transform="translate(13.407 67.754)">
          <path id="Path_12036" data-name="Path 12036" d="M0,0,7.2-.055,7.183,1.976l-7.2.055Z" transform="matrix(0.978, -0.209, 0.209, 0.978, 0, 1.557)" fill="#1b7777"/>
        </g>
        <g id="Group_2956" data-name="Group 2956" transform="translate(16.333 83.921)">
          <path id="Path_12037" data-name="Path 12037" d="M0,0,7.2-.055,7.181,1.977l-7.2.055Z" transform="translate(0 1.557) rotate(-12.055)" fill="#1b7777"/>
        </g>
        <g id="Group_2957" data-name="Group 2957" transform="translate(22.294 116.236)">
          <path id="Path_12038" data-name="Path 12038" d="M0,0,7.312-.056,7.3,1.975l-7.312.056Z" transform="translate(0 1.592) rotate(-12.133)" fill="#1b7777"/>
        </g>
        <g id="Group_2958" data-name="Group 2958" transform="translate(25.108 132.386)">
          <path id="Path_12039" data-name="Path 12039" d="M0,0,7.521-.058,7.506,1.975l-7.521.058Z" transform="matrix(0.978, -0.209, 0.209, 0.978, 0, 1.627)" fill="#1b7777"/>
        </g>
        <g id="Group_2959" data-name="Group 2959" transform="translate(28.208 148.58)">
          <path id="Path_12040" data-name="Path 12040" d="M0,0,7.268-.056,7.253,1.977l-7.268.056Z" transform="matrix(0.978, -0.209, 0.209, 0.978, 0, 1.572)" fill="#1b7777"/>
        </g>
        <g id="Group_2960" data-name="Group 2960" transform="translate(31.17 164.751)">
          <path id="Path_12041" data-name="Path 12041" d="M0,0,7.241-.055,7.226,1.975l-7.241.055Z" transform="matrix(0.978, -0.209, 0.209, 0.978, 0, 1.566)" fill="#1b7777"/>
        </g>
        <g id="Group_2961" data-name="Group 2961" transform="translate(34.098 180.898)">
          <path id="Path_12042" data-name="Path 12042" d="M0,0,7.417-.057,7.4,1.974l-7.417.057Z" transform="matrix(0.978, -0.209, 0.209, 0.978, 0, 1.604)" fill="#1b7777"/>
        </g>
        <g id="Group_2962" data-name="Group 2962" transform="translate(40.004 213.239)">
          <path id="Path_12043" data-name="Path 12043" d="M0,0,7.34-.056,7.325,1.976l-7.34.056Z" transform="matrix(0.978, -0.209, 0.209, 0.978, 0, 1.588)" fill="#1b7777"/>
        </g>
        <g id="Group_2963" data-name="Group 2963" transform="translate(42.856 229.406)">
          <path id="Path_12044" data-name="Path 12044" d="M0,0,7.227-.056,7.212,1.973l-7.227.056Z" transform="translate(0 1.592) rotate(-12.282)" fill="#1b7777"/>
        </g>
      </g>
      <g id="Group_2965" data-name="Group 2965" transform="translate(417.252 161.732)">
        <path id="Path_11938" data-name="Path 11938" d="M174.924,375.571c-1.4,3.387-3.039,6.711-4.429,10.187l.326.221c2.067-3.191,4.018-6.462,5.9-9.77Z" transform="translate(-170.495 -375.571)" fill="#2c9c96"/>
      </g>
      <g id="Group_2966" data-name="Group 2966" transform="translate(426.083 141.237)">
        <path id="Path_11939" data-name="Path 11939" d="M177.833,369.091c-.25.6-.53,1.24-.777,1.838l-2.432,5.728-1.232,2.828,2.811.854c.384-.731.771-1.458,1.155-2.186,1.314-2.59,2.6-5.216,3.813-7.866Z" transform="translate(-173.392 -369.091)" fill="#2c9c96"/>
      </g>
      <g id="Group_2967" data-name="Group 2967" transform="translate(434.7 120.507)">
        <path id="Path_11940" data-name="Path 11940" d="M180.206,362.537c-.61,1.679-1.323,3.52-2,5.238l-1.094,2.9-.893,2.255,3.637,1.3c.692-1.638,1.363-3.289,1.991-4.956.7-1.8,1.347-3.625,1.969-5.456Z" transform="translate(-176.219 -362.537)" fill="#2c9c96"/>
      </g>
      <g id="Group_2968" data-name="Group 2968" transform="translate(442.428 99.443)">
        <path id="Path_11941" data-name="Path 11941" d="M182.284,355.877l-.9,2.84-2,5.908-.506,1.5-.125.37,3.314,1.148c.82-2.676,1.573-5.377,2.28-8.075.222-.9.439-1.812.658-2.717Z" transform="translate(-178.754 -355.877)" fill="#2c9c96"/>
      </g>
      <g id="Group_2969" data-name="Group 2969" transform="translate(449.375 78.227)">
        <path id="Path_11942" data-name="Path 11942" d="M182.792,360.426c.762-3.707,1.43-7.436,1.945-11.19l-.387-.066c-1.2,3.546-2.137,7.145-3.317,10.608Z" transform="translate(-181.033 -349.169)" fill="#2c9c96"/>
      </g>
      <g id="Group_2971" data-name="Group 2971" transform="translate(415.627 159.768)" style="mix-blend-mode: multiply;isolation: isolate">
        <g id="Group_2970" data-name="Group 2970">
          <path id="Path_11943" data-name="Path 11943" d="M179.5,378.261a25.167,25.167,0,0,1-4.515-.424,43.012,43.012,0,0,1-4.313-1.012l2.2-1.4c-.14,1.895-.357,3.773-.619,5.655-.3,1.869-.613,3.745-1.091,5.617l-.713-1.116a23.746,23.746,0,0,1,3.24,2.22l-.064.19-3.566-1.237-.091-.035.006-.1c.232-3.827.524-7.657,1.076-11.449l.034-.215.2.073,8.285,3.052Z" transform="translate(-169.962 -374.95)" fill="#66a7a7"/>
        </g>
      </g>
      <g id="Group_2973" data-name="Group 2973" transform="translate(418.511 137.637)" style="mix-blend-mode: multiply;isolation: isolate">
        <g id="Group_2972" data-name="Group 2972">
          <path id="Path_11944" data-name="Path 11944" d="M187.823,373.415c-1.289-.139-2.533-.414-3.792-.639s-2.49-.538-3.731-.816c-2.463-.626-4.9-1.335-7.31-2.1l2.195-1.214c-.445,1.8-.786,3.618-1.253,5.415-.418,1.8-.826,3.609-1.289,5.405l-1.03-1.869c1.957.765,3.835,1.768,5.758,2.638.963.43,1.9.943,2.832,1.461s1.875,1.015,2.786,1.607l-.064.187L171.042,379.3l-.134-.047.027-.145c.692-3.682,1.478-7.347,2.439-10.962l.052-.193.174.066,14.284,5.2Z" transform="translate(-170.908 -367.953)" fill="#66a7a7"/>
        </g>
      </g>
      <g id="Group_2975" data-name="Group 2975" transform="translate(424.044 116.453)" style="mix-blend-mode: multiply;isolation: isolate">
        <g id="Group_2974" data-name="Group 2974">
          <path id="Path_11945" data-name="Path 11945" d="M192.531,367.255c-1.417-.193-2.789-.512-4.176-.794-1.393-.266-2.75-.626-4.118-.962-2.725-.708-5.414-1.518-8.09-2.366l2.106-.987q-.96,2.576-1.872,5.178l-1.859,5.19-1.036-2.192,3.853,1.581,3.8,1.74c1.268.579,2.545,1.135,3.78,1.819,1.244.655,2.5,1.275,3.71,2.018l-.061.19-15.69-5.538-.159-.057.052-.168c1.119-3.549,2.362-7.053,3.762-10.494l.064-.158.149.054,15.842,5.76Z" transform="translate(-172.723 -361.255)" fill="#66a7a7"/>
        </g>
      </g>
      <g id="Group_2977" data-name="Group 2977" transform="translate(432.259 96.296)" style="mix-blend-mode: multiply;isolation: isolate">
        <g id="Group_2976" data-name="Group 2976">
          <path id="Path_11946" data-name="Path 11946" d="M193.507,359.708c-1.131-.136-2.234-.36-3.338-.572s-2.213-.43-3.3-.705c-2.18-.525-4.338-1.11-6.472-1.774l1.893-.715c-.829,1.664-1.716,3.289-2.561,4.94l-2.551,4.944-.963-2.454c2.454.971,4.883,2.015,7.27,3.175,1.2.576,2.417,1.085,3.582,1.755,1.174.642,2.365,1.243,3.509,1.974l-.064.193-14.909-5.26-.186-.066.088-.187c1.6-3.4,3.384-6.718,5.274-9.953l.07-.12.125.047,12.6,4.589Z" transform="translate(-175.418 -354.882)" fill="#66a7a7"/>
        </g>
      </g>
      <g id="Group_2979" data-name="Group 2979" transform="translate(443.589 77.392)" style="mix-blend-mode: multiply;isolation: isolate">
        <g id="Group_2978" data-name="Group 2978">
          <path id="Path_11947" data-name="Path 11947" d="M190.356,350.569a25.423,25.423,0,0,1-4.258-.427l1.189-.335c-.969,1.714-2.036,3.324-3.118,4.921s-2.225,3.134-3.393,4.662l-.82-2.663c1.472.636,2.926,1.313,4.35,2.091a30.111,30.111,0,0,1,4.149,2.692l-.064.19-9.038-3.157-.216-.073.134-.2c1.1-1.613,2.234-3.2,3.426-4.741s2.414-3.058,3.658-4.545l.061-.076.082.035,3.923,1.436Z" transform="translate(-179.135 -348.905)" fill="#66a7a7"/>
        </g>
      </g>
      <g id="Group_2980" data-name="Group 2980" transform="translate(398.925 52.699)">
        <path id="Path_11948" data-name="Path 11948" d="M222.331,341.1a122.646,122.646,0,0,1-.393,13.177c-.335,4.377-.841,8.745-1.478,13.091l-.012.073-.064-.022-3.935-1.4.064-.019q-3.717,4.483-7.039,9.305l-.034-.1,9.017,3.223.055.019-.012.06q-1.111,5.5-2.49,10.94l-.021.079-.073-.028-12.62-4.516.091-.035q-2.807,4.867-5.255,9.944l-.043-.114,14.885,5.329.076.029-.024.082c-1.082,3.555-2.259,7.078-3.5,10.58l-.034.085-.082-.032-15.866-5.677.119-.054c-1.372,3.444-2.612,6.942-3.752,10.475l-.061-.127,15.662,5.62.091.032-.04.095c-1.408,3.448-2.911,6.851-4.469,10.232l-.034.073-.073-.028-14.309-5.13.1-.06q-1.39,5.432-2.451,10.947l-.052-.092L196.14,441.4l.082.028-.04.082q-2.588,5.01-5.371,9.906l-.03.054-.055-.022-8.31-2.979.085-.057c-.494,3.8-.875,7.61-1.122,11.43l-.04-.066,3.554,1.271.076.025-.046.073A273.828,273.828,0,0,1,164.559,489.3l-.076-.066a273.019,273.019,0,0,0,20.015-28.38l.229.7-3.56-1.246-.344-.12.024-.38c.229-3.837.594-7.66,1.076-11.472l.079-.651.607.212,8.325,2.945-.662.25q2.762-4.887,5.313-9.909l.335.889-11.879-4.2-.533-.187.11-.585q1.043-5.536,2.414-11l.189-.753.713.256,14.327,5.064-.93.4c1.539-3.375,3.024-6.778,4.411-10.213l.476,1.107-15.683-5.544-.811-.288.268-.851c1.119-3.561,2.408-7.069,3.8-10.532l.308-.772.756.275,15.842,5.747-.985.484c1.253-3.479,2.439-6.987,3.533-10.523l.46.955-14.86-5.4-.729-.263.347-.708q2.474-5.091,5.319-9.969l.265-.459.479.177,12.6,4.577-.741.411q1.395-5.418,2.533-10.9l.344.633-9-3.267-.625-.228.387-.547q1.687-2.4,3.454-4.738c1.2-1.547,2.432-3.055,3.685-4.548l.183-.215.253.095,3.917,1.452-.46.291c.686-4.327,1.247-8.679,1.634-13.05a122.987,122.987,0,0,0,.546-13.148Z" transform="translate(-164.483 -341.098)" fill="#6fd2d6"/>
      </g>
      <g id="Group_2981" data-name="Group 2981" transform="translate(172.421 38.119)">
        <path id="Path_11949" data-name="Path 11949" d="M160.292,362.126,90.178,336.874l.128-.386c9.642,2.625,19.146,5.674,28.724,8.5l28.5,9.188c4.652,1.461,9.276,3.011,13.894,4.583Z" transform="translate(-90.178 -336.488)" fill="#d85700"/>
      </g>
      <g id="Group_2982" data-name="Group 2982" transform="translate(287.428 76.085)">
        <path id="Path_11950" data-name="Path 11950" d="M129.186,348.492c18,6.538,35.988,13.091,53.821,20.119l27.889,11.01c9.215,3.9,18.509,7.584,27.66,11.687l-.128.386L127.906,352.316Z" transform="translate(-127.906 -348.492)" fill="#d85700"/>
      </g>
      <g id="Group_2983" data-name="Group 2983" transform="translate(182.422 8.053)">
        <path id="Path_11951" data-name="Path 11951" d="M162.637,355.315q-6.283-2.4-12.547-4.861l-28.429-11.2c-9.4-3.969-18.869-7.714-28.2-11.883l.131-.386,70.16,25.005Z" transform="translate(-93.459 -326.982)" fill="#ffa234"/>
      </g>
      <g id="Group_2984" data-name="Group 2984" transform="translate(262.697 37.027)">
        <path id="Path_11952" data-name="Path 11952" d="M142.393,348.007q-11.312-4.128-22.6-8.322l1.155-3.542,22.695,8.084Z" transform="translate(-119.793 -336.143)" fill="#ffa234"/>
      </g>
      <g id="Group_2985" data-name="Group 2985" transform="translate(296.265 49.034)">
        <path id="Path_11953" data-name="Path 11953" d="M132.082,339.939l114.863,41.354-.128.383c-9.825-2.692-19.506-5.8-29.264-8.688l-29.038-9.381c-9.7-3.058-19.281-6.474-28.925-9.71L130.8,343.776Z" transform="translate(-130.805 -339.939)" fill="#ffa234"/>
      </g>
      <g id="Group_2986" data-name="Group 2986" transform="translate(279.164 42.632)">
        <path id="Path_11954" data-name="Path 11954" d="M125.195,362.357c2.673-8.094,5.243-16.225,8.014-24.284l.055-.158.149.057,11.093,4.039-.061.193c-1-.1-1.981-.281-2.957-.462s-1.963-.335-2.914-.6c-1.905-.5-3.85-.876-5.725-1.474l2-1.012c-.543,2.068-1.2,4.1-1.841,6.13-.7,2.015-1.36,4.039-2.161,6.016q-1.139,2.984-2.487,5.9-.654,1.461-1.421,2.885c-.5.952-.978,1.91-1.555,2.837Z" transform="translate(-125.195 -337.915)" fill="#53686c"/>
      </g>
      <g id="Group_2987" data-name="Group 2987" transform="translate(241.523 30.544)">
        <path id="Path_11955" data-name="Path 11955" d="M112.847,370.048c3.932-11.943,7.807-23.911,11.864-35.81l.049-.146.137.047,11.1,4.029-.061.19c-1.972-.3-3.877-.81-5.816-1.208-1.908-.493-3.8-1.031-5.706-1.543l1.719-.867c-.372,1.54-.8,3.055-1.253,4.561q-.645,2.277-1.378,4.517c-.927,3-1.972,5.968-3.015,8.935-1.082,2.948-2.213,5.883-3.435,8.786s-2.554,5.76-4.015,8.574Z" transform="translate(-112.847 -334.093)" fill="#53686c"/>
      </g>
      <g id="Group_2988" data-name="Group 2988" transform="translate(157.137)">
        <path id="Path_11956" data-name="Path 11956" d="M112.065,328.023c-1.582-.256-3.146-.563-4.694-.933l-4.658-1.031,1.728-.746c-1.728,5.1-3.335,10.32-4.987,15.466-1.628,5.165-3.2,10.343-4.78,15.52L90.1,371.907l-4.646,15.764-.293-.044a241.666,241.666,0,0,1,6.77-32.169c1.46-5.279,3.17-10.482,5-15.634,1.847-5.149,3.816-10.251,6.069-15.229l.07-.158.155.06,8.928,3.236Z" transform="translate(-85.164 -324.436)" fill="#53686c"/>
      </g>
      <g id="Group_2989" data-name="Group 2989" transform="translate(163.371 3.41)">
        <path id="Path_11957" data-name="Path 11957" d="M87.209,387.493c.5-2.707,1.207-5.345,1.808-8.021l2.137-7.907c1.469-5.253,3.2-10.415,4.795-15.621,1.85-5.121,3.545-10.292,5.524-15.368l3.015-7.588c1.119-2.489,2.131-5.019,3.344-7.474l.186.066L97.8,356.6l-10.4,30.958Z" transform="translate(-87.209 -325.514)" fill="#0e2a31"/>
      </g>
      <g id="Group_2990" data-name="Group 2990" transform="translate(434.335 267.845)">
        <path id="Path_11958" data-name="Path 11958" d="M181.488,420.539c-2.972,0-5.389-2.676-5.389-5.968a6.052,6.052,0,0,1,3.176-5.45l.847,1.831a4.006,4.006,0,0,0-2.064,3.618,3.462,3.462,0,1,0,6.859,0,4.1,4.1,0,0,0-1.759-3.444L184.2,409.4a6.159,6.159,0,0,1,2.682,5.168C186.878,417.863,184.46,420.539,181.488,420.539Z" transform="translate(-176.099 -409.121)" fill="#0e2a31"/>
      </g>
      <g id="Group_2991" data-name="Group 2991" transform="translate(434.335 281.746)">
        <path id="Path_11959" data-name="Path 11959" d="M184.549,420.632h-5.511a3,3,0,0,1-2.939-3.052v-1.018a3,3,0,0,1,2.939-3.046h5.511a3,3,0,0,1,2.939,3.046v1.018A3,3,0,0,1,184.549,420.632Zm-5.511-5.086a1,1,0,0,0-.979,1.015v1.018a1,1,0,0,0,.979,1.015h5.511a1,1,0,0,0,.982-1.015v-1.018a1,1,0,0,0-.982-1.015Z" transform="translate(-176.099 -413.516)" fill="#0e2a31"/>
      </g>
      <g id="Group_2992" data-name="Group 2992" transform="translate(428.743 287.642)">
        <path id="Path_11960" data-name="Path 11960" d="M174.266,417.61a2.123,2.123,0,0,1,2.027-2.154l3.048-.025,6.1-.051,6.1.051,3.054.025a2.119,2.119,0,0,1,2.021,2.16h-.2a1.507,1.507,0,0,0-1.878-1.088c-.924.2-2.006.383-3,.5a51.205,51.205,0,0,1-6.1.383,50.6,50.6,0,0,1-6.1-.38c-1.009-.114-2.045-.3-3.033-.5a1.493,1.493,0,0,0-1.847,1.091Z" transform="translate(-174.265 -415.38)" fill="#485e62"/>
      </g>
      <g id="Group_2993" data-name="Group 2993" transform="translate(428.721 314.58)">
        <path id="Path_11961" data-name="Path 11961" d="M176.332,429.157a2.027,2.027,0,0,1-1.765-1.028,3.9,3.9,0,0,1-.3-2.1,2.176,2.176,0,0,1,1.085-1.806,4.264,4.264,0,0,1,2.042-.272l8.063-.051,8.066.051a4.252,4.252,0,0,1,2.039.272,2.179,2.179,0,0,1,1.088,1.806,3.862,3.862,0,0,1-.308,2.1,2.03,2.03,0,0,1-1.771,1.028v-.2a1.812,1.812,0,0,0,1.219-1.173,1.449,1.449,0,0,0,.015-.74c-.058-.256-.119-.724-.186-.962a.969.969,0,0,0-.665-.693.782.782,0,0,0-.207-.019c-.043-.006-.024.022-.037.016-.04.006-.229.01-.183.022l-1.006.117a79.165,79.165,0,0,1-8.066.4c-2.689-.032-5.377-.1-8.063-.38l-1.006-.1a1.142,1.142,0,0,0-.409-.022.9.9,0,0,0-.677.652c-.07.244-.131.693-.192.977a1.4,1.4,0,0,0,.015.724,1.806,1.806,0,0,0,1.219,1.173Z" transform="translate(-174.257 -423.897)" fill="#485e62"/>
      </g>
      <g id="Group_2994" data-name="Group 2994" transform="translate(2.115 321.775)">
        <path id="Path_11962" data-name="Path 11962" d="M500.142,426.172l0,3.833v1.917a3.185,3.185,0,0,1-.338,1.91,2.049,2.049,0,0,1-1.634.955l-1.85,0h-3.7l-14.784.01-29.569.01-59.137.028-118.274.051-236.552-.1v-.2l59.137-.841,59.137-.484,118.277-.4,118.274.4,59.137.487,29.569.421,14.784.212,3.7.051c1.216-.035,2.591.329,3.231-.762a2.879,2.879,0,0,0,.32-1.74l.024-1.917.049-3.833Z" transform="translate(-34.309 -426.172)" fill="#d85700"/>
      </g>
      <g id="Group_2995" data-name="Group 2995" transform="translate(193.876 72.417)">
        <path id="Path_12045" data-name="Path 12045" d="M0,4.264l220.556-2.3-.021,1.968L-.021,6.232Z" transform="translate(-4.067 209.77) rotate(-72.511)" fill="#59cdd3"/>
      </g>
      <g id="Group_2996" data-name="Group 2996" transform="translate(156.896 163.902)">
        <path id="Path_11963" data-name="Path 11963" d="M85.667,376.257c.735,5.029,1.058,10.052,1.591,15.077.39,5.029.744,10.055.966,15.084.3,5.026.4,10.055.558,15.077s.128,10.052.2,15.08L87.953,434c1.686,1.692,3.3,3.463,4.944,5.19l4.92,5.216,1.036,1.094-.04,1.4-.348,12.307c-.146,4.1-.39,8.208-.588,12.31-.308,4.1-.506,8.208-.951,12.31-.412,4.1-.725,8.2-1.314,12.307h-.393L95.065,446.9l.1.256L85.2,436.86l-.113-.117v-.168l.192-60.319Z" transform="translate(-85.085 -376.257)" fill="#d84a00"/>
      </g>
      <g id="Group_2997" data-name="Group 2997" transform="translate(156.411 163.902)">
        <path id="Path_11964" data-name="Path 11964" d="M95.805,446.833l-9.91-10.3-.049-60.278h-.1l-.4,15.077L85.2,406.418l-.274,30.158,0,.36.259.275c1.631,1.749,3.335,3.422,5,5.133l4.8,4.886.216,24.284c.052,4.1.034,8.208.174,12.31l.32,12.307h.1L95.83,446.9v-.038Z" transform="translate(-84.926 -376.257)" fill="#ff9e00"/>
      </g>
      <g id="Group_2998" data-name="Group 2998" transform="translate(89.318 223.534)">
        <path id="Path_11965" data-name="Path 11965" d="M62.916,395.263l33.983-.152,33.983.152v.307a150.239,150.239,0,0,1-16.991,2.018c-5.664.408-11.328.522-16.991.573l-8.5-.136c-2.832-.146-5.664-.19-8.5-.43a148.136,148.136,0,0,1-16.991-2.024Z" transform="translate(-62.916 -395.111)" fill="#f26300"/>
      </g>
      <g id="Group_2999" data-name="Group 2999" transform="translate(89.318 222.927)">
        <path id="Path_11966" data-name="Path 11966" d="M62.916,395.779l8.5-.421,8.5-.244c5.664-.136,11.328-.13,16.991-.2,5.664.07,11.327.06,16.991.2l8.5.244,8.5.417v.1H62.916Z" transform="translate(-62.916 -394.919)" fill="#ff9e00"/>
      </g>
      <g id="Group_3000" data-name="Group 3000" transform="translate(138.728 163.775)">
        <path id="Path_11967" data-name="Path 11967" d="M80.689,377.34c5.664-.278,11.327-.484,16.991-.9v-.2l-18.555-.028Z" transform="translate(-79.125 -376.217)" fill="#ffb300"/>
      </g>
      <g id="Group_3001" data-name="Group 3001" transform="translate(89.184 199.272)">
        <path id="Path_11968" data-name="Path 11968" d="M62.872,387.44l.037,24.569h.2c.341-5,.5-9.991.753-14.982.11-2.726.186-5.443.259-8.167Z" transform="translate(-62.872 -387.44)" fill="#ffb300"/>
      </g>
      <g id="Group_3002" data-name="Group 3002" transform="translate(89.132 163.706)">
        <path id="Path_11969" data-name="Path 11969" d="M64.6,393.347l.018-1.971.125-13.2c5.1.06,10.194-.032,15.293-.066,2.329-.028,4.658-.047,6.987-.07l-1.552-1.806-22.426-.035h-.186v.2l.024,18.8Z" transform="translate(-62.855 -376.195)" fill="#ffb300"/>
      </g>
      <g id="Group_3003" data-name="Group 3003" transform="translate(89.26 223.759)">
        <path id="Path_11970" data-name="Path 11970" d="M63.013,395.182c1.274.727,2.524,1.493,3.756,2.284l3.7,2.353,7.243,4.947.552.373.034.829c.155,4.1.168,8.2.262,12.307.146,4.1-.076,8.208-.1,12.31-.052,2.05-.049,4.1-.137,6.155l-.335,6.155c-.186,4.1-.564,8.2-1.033,12.307h-.2l-.073-24.616c-.043-8.208,0-16.412.021-24.616l.061.123L62.9,395.343Z" transform="translate(-62.897 -395.182)" fill="#ffb300"/>
      </g>
      <g id="Group_3004" data-name="Group 3004" transform="translate(103.218 234.035)">
        <path id="Path_11971" data-name="Path 11971" d="M131.487,398.94q-8,.275-16,.389l-16,.117-16-.117q-8-.1-16-.389,8-.285,16-.392l16-.117,16,.12Q123.486,398.651,131.487,398.94Z" transform="translate(-67.476 -398.431)" fill="#ff5700"/>
      </g>
      <g id="Group_3005" data-name="Group 3005" transform="translate(104.386 172.736)">
        <path id="Path_11972" data-name="Path 11972" d="M68.045,381.2c4.42-2.973,11-2.888,15.961.437A18.079,18.079,0,0,1,90.1,388.32a19.3,19.3,0,0,1-.113,18.13,17.924,17.924,0,0,1-6.164,6.607c-5.011,3.261-11.544,3.283-15.964.259l.119-.389a15.353,15.353,0,0,0,14.034-2.454,16.834,16.834,0,0,0,.146-26.267,15.374,15.374,0,0,0-14.016-2.616Z" transform="translate(-67.859 -379.05)" fill="#d84a00"/>
      </g>
      <g id="Group_3006" data-name="Group 3006" transform="translate(104.386 174.127)">
        <path id="Path_11973" data-name="Path 11973" d="M68.045,380.246a15.85,15.85,0,0,1,14.467,2.518,17.15,17.15,0,0,1-.155,27.251,15.824,15.824,0,0,1-14.5,2.35l.119-.389a17.1,17.1,0,0,0,12.565-4.545,15.373,15.373,0,0,0,3.5-5.1,15.445,15.445,0,0,0,.061-11.854,15.488,15.488,0,0,0-3.439-5.14,17.149,17.149,0,0,0-12.522-4.7Z" transform="translate(-67.859 -379.49)" fill="#00857f"/>
      </g>
      <g id="Group_3007" data-name="Group 3007" transform="translate(93.4 184.242)">
        <path id="Path_11974" data-name="Path 11974" d="M76.183,382.688a8.423,8.423,0,0,1,2.365,2.717,9.663,9.663,0,0,1-1.238,10.779,9.222,9.222,0,0,1-6.624,3.144,6.962,6.962,0,0,1-.93-.044,8.116,8.116,0,0,1-.881-.13,7.88,7.88,0,0,1-1.759-.535,8.281,8.281,0,0,1-2.862-2.138l.064-.076a8.583,8.583,0,0,0,12.26-.9,9.381,9.381,0,0,0-.463-12.746Z" transform="translate(-64.255 -382.688)" fill="#5ad7ce"/>
      </g>
      <g id="Group_3008" data-name="Group 3008" transform="translate(52.104 98.912)">
        <path id="Path_11975" data-name="Path 11975" d="M143.926,442.067a10.6,10.6,0,0,0,2.887-6.266,9.571,9.571,0,0,0-1.622-6.376,14.521,14.521,0,0,0-2.314-2.445l-2.634-2.454-5.167-5.013c-6.853-6.724-13.852-13.3-20.524-20.217L94.339,378.763l-19.79-20.976,3.314,0-5.35,5.44c-1.8,1.793-3.64,3.549-5.456,5.326l.445-.693L58.96,387.625l-4.457,9.8-2.237,4.9a16.847,16.847,0,0,0-.966,2.439c-.2.746-.442,1.955.43,1.857l.052.3a.873.873,0,0,1-.738-.165,1.153,1.153,0,0,1-.317-.7,4.653,4.653,0,0,1,.1-1.4,16.793,16.793,0,0,1,.817-2.594l1.966-5.013,3.932-10.03,7.868-20.052.018-.041.03-.035,10.572-11,.174-.183.171.183L116.384,397.4l19.966,20.789,4.993,5.2,2.5,2.6a15.041,15.041,0,0,1,2.335,2.79,10.646,10.646,0,0,1,1.408,7.151,10.854,10.854,0,0,1-3.451,6.351Z" transform="translate(-50.708 -355.709)" fill="#2e998f"/>
      </g>
      <g id="Group_3009" data-name="Group 3009" transform="translate(53.129 128.595)">
        <path id="Path_11976" data-name="Path 11976" d="M51.044,386.374a8.129,8.129,0,0,0,2.893-2.432l2.588-2.96,5.179-5.927,5.28-5.823a19.605,19.605,0,0,1,2.99-2.96,6.967,6.967,0,0,1,4.5-1.151,7.184,7.184,0,0,1,4.307,1.964l2.78,2.809,5.5,5.6,11,11.19c7.164,7.632,14.44,15.147,21.506,22.88L130.12,421.2a8.941,8.941,0,0,0,6.289,3.093,9.556,9.556,0,0,0,6.862-2.492l.14.142a9.654,9.654,0,0,1-14.019.016l-10.91-11.282L96.668,388.113,85.795,376.8l-5.435-5.658c-1.847-1.781-3.411-4.26-6.054-4.45a5.563,5.563,0,0,0-3.6.822,19.8,19.8,0,0,0-2.814,2.663l-5.453,5.639-5.453,5.643-2.731,2.818a8.377,8.377,0,0,1-3.161,2.3Z" transform="translate(-51.044 -365.094)" fill="#004d52"/>
      </g>
      <g id="Group_3010" data-name="Group 3010" transform="translate(63.621 95.753)">
        <path id="Path_11977" data-name="Path 11977" d="M57.809,369.287l-2.21-2.255a3.619,3.619,0,0,1-.982-1.294,2.261,2.261,0,0,1,.064-1.676A5.188,5.188,0,0,1,55.7,362.8l1.088-1.148,2.173-2.29,2.21-2.255,1.1-1.129a5.064,5.064,0,0,1,1.216-1.06,2.033,2.033,0,0,1,1.619-.07,3.61,3.61,0,0,1,1.25,1.019l2.173,2.293-.137.146a26,26,0,0,1-2.768-1.679c-.207-.136-.454-.348-.619-.427a.752.752,0,0,0-.351-.063c-.2.01-.436.111-.466.206,0,.038.082-.07-.052.079l-.134.149-.034.038-.018.019-.009,0c-.1.1.134-.12.107-.095l0,0-.058.082-.5.614-1.015,1.224c-.692.8-1.417,1.559-2.125,2.344L58.1,363l-1.177,1.053-.594.522c-.168.149-.165.089-.247.174-.207.259-.46.6.256,1.521a25.813,25.813,0,0,1,1.616,2.872Z" transform="translate(-54.486 -354.71)" fill="#ff8b00"/>
      </g>
      <g id="Group_3011" data-name="Group 3011" transform="translate(135.075 173.905)">
        <path id="Path_11978" data-name="Path 11978" d="M79.183,386.8a4.424,4.424,0,0,1-1.256-3.033,4.471,4.471,0,0,1,1.192-3.112,4.091,4.091,0,0,1,5.926.073l-.14.142a5.6,5.6,0,0,0-2.859.146,4.841,4.841,0,0,0-1.539,1.078,4.328,4.328,0,0,0-1.033,1.673,5.673,5.673,0,0,0-.143,2.9Z" transform="translate(-77.927 -379.42)" fill="#ff8b00"/>
      </g>
      <g id="Group_3012" data-name="Group 3012" transform="translate(136.372 175.25)">
        <path id="Path_11979" data-name="Path 11979" d="M84.141,379.845a4.386,4.386,0,0,1,.03,6.038,4.009,4.009,0,0,1-5.819-.035l.067-.07a4.7,4.7,0,0,0,1.454.506,4.451,4.451,0,0,0,.692.089,6.613,6.613,0,0,0,.716-.044,3.623,3.623,0,0,0,2.2-1.164,3.789,3.789,0,0,0,1.116-2.318,5.128,5.128,0,0,0-.53-2.935Z" transform="translate(-78.352 -379.845)" fill="#d85700"/>
      </g>
      <g id="Group_3013" data-name="Group 3013" transform="translate(95.442 175.013)">
        <path id="Path_11980" data-name="Path 11980" d="M64.925,382.939l4.554-1.661,4.6-1.509.046.142a9.251,9.251,0,0,1-4.182,2.812,8.82,8.82,0,0,1-4.975.354Z" transform="translate(-64.925 -379.77)" fill="#2e998f"/>
      </g>
      <g id="Group_3014" data-name="Group 3014" transform="translate(97.436 203.765)">
        <path id="Path_11981" data-name="Path 11981" d="M65.628,389.162a5.636,5.636,0,0,1,3.92.114,5.932,5.932,0,0,1,3.057,2.549l-.049.142-3.515-1.262-3.463-1.4Z" transform="translate(-65.579 -388.861)" fill="#2e998f"/>
      </g>
      <g id="Group_3015" data-name="Group 3015" transform="translate(135.722 62.915)">
        <path id="Path_11982" data-name="Path 11982" d="M78.139,351.223l2.414-6.667.043-.123h.128l18.976-.1h.046l.049.016,6.173,2.233.055.019.04.041,11.855,11.453.088.082-.043.117-2.024,5.506-.274-.108c.137-.993.259-2,.466-2.964l.558-2.932.3,1.335c-1.161-.759-2.237-1.616-3.344-2.435s-2.158-1.7-3.237-2.552-2.125-1.743-3.161-2.641-2.1-1.768-3.1-2.711l.9.557c-2.064-.721-4.158-1.363-6.2-2.144l.857.149-4.743-.085-4.743-.247c-1.582-.076-3.164-.262-4.746-.389-1.579-.142-3.161-.376-4.743-.563l1.3-.927c-1.21,2.062-2.256,4.188-3.606,6.193Z" transform="translate(-78.139 -344.328)" fill="#2e998f"/>
      </g>
      <g id="Group_3016" data-name="Group 3016" transform="translate(166.201 80.469)">
        <path id="Path_11983" data-name="Path 11983" d="M89.992,358.007a2.972,2.972,0,0,1-1.613-1.623,3.131,3.131,0,0,1-.031-2.337l1.594-4.169,1.823.75-1.6,4.172a1.041,1.041,0,0,0,.009.778,1,1,0,0,0,.54.544Z" transform="translate(-88.138 -349.878)" fill="#485e62"/>
      </g>
      <g id="Group_3017" data-name="Group 3017" transform="translate(168.065 81.715)">
        <path id="Path_11984" data-name="Path 11984" d="M89.825,357.373a2.844,2.844,0,0,1-1.076-.215l.707-1.891a.974.974,0,0,0,1.277-.566l1.7-4.428,1.82.75-1.695,4.425A2.928,2.928,0,0,1,89.825,357.373Z" transform="translate(-88.749 -350.272)" fill="#0e2a31"/>
      </g>
      <g id="Group_3018" data-name="Group 3018" transform="translate(112.016 78.083)">
        <path id="Path_12046" data-name="Path 12046" d="M0,0,70.928-.834,70.91.642-.018,1.476Z" transform="matrix(0.344, -0.939, 0.939, 0.344, 0, 66.879)" fill="#68969c"/>
      </g>
      <g id="Group_3019" data-name="Group 3019" transform="translate(272.783 87.431)">
        <path id="Path_11985" data-name="Path 11985" d="M123.443,358.386l-.341-2,14.952-2.768a.961.961,0,0,0,.628-.417,1.045,1.045,0,0,0,.165-.766l1.93-.354a3.109,3.109,0,0,1-.488,2.284,2.9,2.9,0,0,1-1.89,1.252Z" transform="translate(-123.102 -352.079)" fill="#0e2a31"/>
      </g>
      <g id="Group_3020" data-name="Group 3020" transform="translate(272.055 84.917)">
        <path id="Path_11986" data-name="Path 11986" d="M123.207,356.11l-.344-2,14.992-2.78a2.958,2.958,0,0,1,3.411,2.464l-1.93.361a.992.992,0,0,0-1.137-.822Z" transform="translate(-122.863 -351.284)" fill="#485e62"/>
      </g>
      <g id="Group_3021" data-name="Group 3021" transform="translate(289.625 179.71)">
        <path id="Path_11987" data-name="Path 11987" d="M128.971,387.587l-.344-2,15.1-2.8a.944.944,0,0,0,.631-.417,1.046,1.046,0,0,0,.162-.762l1.93-.354a3.106,3.106,0,0,1-.488,2.284,2.9,2.9,0,0,1-1.89,1.252Z" transform="translate(-128.627 -381.255)" fill="#0e2a31"/>
      </g>
      <g id="Group_3022" data-name="Group 3022" transform="translate(288.897 177.195)">
        <path id="Path_11988" data-name="Path 11988" d="M128.732,385.312l-.344-2,15.135-2.8a2.955,2.955,0,0,1,3.411,2.464l-1.93.361a.984.984,0,0,0-1.14-.826Z" transform="translate(-128.388 -380.46)" fill="#485e62"/>
      </g>
      <g id="Group_3023" data-name="Group 3023" transform="translate(309.369 279.681)">
        <path id="Path_11989" data-name="Path 11989" d="M135.448,419.053l-.344-2,14.29-2.65a.974.974,0,0,0,.631-.417,1.052,1.052,0,0,0,.162-.762l1.93-.36a3.133,3.133,0,0,1-.485,2.287,2.9,2.9,0,0,1-1.9,1.252Z" transform="translate(-135.104 -412.863)" fill="#0e2a31"/>
      </g>
      <g id="Group_3024" data-name="Group 3024" transform="translate(307.162 277.173)">
        <path id="Path_11990" data-name="Path 11990" d="M134.724,417.048l-.344-2,15.809-2.932a2.978,2.978,0,0,1,3.411,2.464l-1.93.36a.965.965,0,0,0-1.146-.819Z" transform="translate(-134.38 -412.07)" fill="#485e62"/>
      </g>
      <g id="Group_3025" data-name="Group 3025" transform="translate(269.067 76.521)">
        <path id="Path_12047" data-name="Path 12047" d="M0,0,1.962-.013.567,210.469l-1.962.013Z" transform="translate(0 0.378) rotate(-10.722)" fill="#59cdd3"/>
      </g>
      <g id="Group_3026" data-name="Group 3026" transform="translate(391.171 47)">
        <path id="Path_11991" data-name="Path 11991" d="M169.669,493.355l-7.572-2.692-.159-.054.012-.174,7.145-87.431.009-.108.061-.089,43.009-63.365.1-.149.162.06,15.12,5.446-.128.386c-2.591-.693-5.21-1.306-7.776-2.065l-7.737-2.2,1.57-.525c-3.192,5.567-6.575,10.991-9.956,16.422L193.4,373.113,182.981,389.2l-10.617,15.941.625-1.781L171.032,425.2c-.741,7.275-1.466,14.552-2.283,21.817l-2.67,21.776c-.8,7.265-2.045,14.492-3.064,21.738l-.573-.911c2.475,1.047,4.9,2.239,7.356,3.353Z" transform="translate(-161.939 -339.296)" fill="#0fc6cc"/>
      </g>
      <g id="Group_3027" data-name="Group 3027" transform="translate(134.078 69.949)">
        <path id="Path_11992" data-name="Path 11992" d="M79.451,355.876a3.1,3.1,0,0,1-1.646-3.96l2.058-5.364,1.82.75-2.055,5.361a1.036,1.036,0,0,0,.549,1.322Z" transform="translate(-77.599 -346.552)" fill="#485e62"/>
      </g>
      <g id="Group_3028" data-name="Group 3028" transform="translate(135.939 71.192)">
        <path id="Path_11993" data-name="Path 11993" d="M79.289,355.238a2.853,2.853,0,0,1-1.079-.212l.707-1.895a.977.977,0,0,0,1.283-.566l2.149-5.62,1.823.753-2.152,5.617A2.926,2.926,0,0,1,79.289,355.238Z" transform="translate(-78.21 -346.945)" fill="#0e2a31"/>
      </g>
      <g id="Group_3029" data-name="Group 3029" transform="translate(107.174 144.823)">
        <path id="Path_11994" data-name="Path 11994" d="M70.03,377.607a4.412,4.412,0,0,1-1.256-3.036,4.464,4.464,0,0,1,1.192-3.109,4.081,4.081,0,0,1,5.923.073l-.134.142a5.54,5.54,0,0,0-2.862.142,4.891,4.891,0,0,0-1.539,1.079,4.351,4.351,0,0,0-1.033,1.673,5.717,5.717,0,0,0-.143,2.9Z" transform="translate(-68.774 -370.225)" fill="#ff8b00"/>
      </g>
      <g id="Group_3030" data-name="Group 3030" transform="translate(108.471 146.168)">
        <path id="Path_11995" data-name="Path 11995" d="M74.988,370.65a4.39,4.39,0,0,1,.03,6.041,4.013,4.013,0,0,1-5.819-.038l.067-.073a4.545,4.545,0,0,0,1.454.509,4.416,4.416,0,0,0,.692.092,6.624,6.624,0,0,0,.713-.047,3.591,3.591,0,0,0,2.2-1.164,3.767,3.767,0,0,0,1.119-2.318,5.085,5.085,0,0,0-.53-2.932Z" transform="translate(-69.199 -370.65)" fill="#d85700"/>
      </g>
      <g id="Group_3031" data-name="Group 3031" transform="translate(241.584 46.788)">
        <path id="Path_11996" data-name="Path 11996" d="M169.822,339.3l-11.834,35.829-.058.18-.174-.063L112.867,359.07l.064-.193c3.874.949,7.691,2.068,11.513,3.16l11.4,3.52,11.288,3.849,5.642,1.926,5.591,2.078-2.143,1.085,3.1-8.907c1-2.983,2.137-5.911,3.256-8.849,1.137-2.932,2.192-5.892,3.4-8.8s2.356-5.832,3.658-8.707Z" transform="translate(-112.867 -339.229)" fill="#0e2a31"/>
      </g>
      <g id="Group_3032" data-name="Group 3032" transform="translate(254.32 34.681)">
        <path id="Path_11997" data-name="Path 11997" d="M127.458,335.471l-7.983,24.3-.122-.256,22.661,8.223-.061.19c-2.012-.313-3.957-.832-5.935-1.246l-5.825-1.578c-3.884-1.053-7.679-2.359-11.474-3.672l-1.674-.579.582-1.74c1.357-4.042,2.774-8.059,4.368-12.016.78-1.986,1.619-3.947,2.475-5.905.939-1.926,1.765-3.893,2.8-5.788Z" transform="translate(-117.045 -335.401)" fill="#0e2a31"/>
      </g>
      <g id="Group_3033" data-name="Group 3033" transform="translate(7.759 283.372)">
        <path id="Path_11998" data-name="Path 11998" d="M36.2,450.4l-.024-23.955-.006-5.99,0-2.992a8.248,8.248,0,0,1,.067-1.55,2.293,2.293,0,0,1,.911-1.338,2.361,2.361,0,0,1,1.509-.376l1.442,0,2.887,0,5.773-.006,46.176-.054,92.355-.1,92.358.1,46.176.047,5.773.006,2.884,0,1.445,0a2.344,2.344,0,0,1,1.506.376,2.265,2.265,0,0,1,.911,1.338,7.754,7.754,0,0,1,.067,1.55l0,2.992,0,5.99-.024,23.955h-.393q-.535-11.975-.878-23.955l-.186-5.99-.095-2.992c-.012-1.309-.064-1.234-.326-1.436-.174-.06-.07-.054-.576-.041l-1.445.054-2.884.092-5.773.2-46.176.961c-15.394.414-30.788.338-46.179.5l-46.179.313-46.176-.31c-15.394-.164-30.785-.066-46.179-.487l-46.176-.962-5.773-.2-2.887-.1-1.442-.051-.4-.009a.355.355,0,0,0-.174.051c-.256.2-.308.114-.32,1.427l-.094,2.992-.189,5.99q-.329,11.979-.881,23.955Z" transform="translate(-36.161 -414.03)" fill="#53686c"/>
      </g>
      <g id="Group_3034" data-name="Group 3034" transform="translate(0 319.438)">
        <path id="Path_11999" data-name="Path 11999" d="M35.721,436.437a2.109,2.109,0,0,1-1.713-.927,3.062,3.062,0,0,1-.387-1.951l0-3.887,0-1.948a2.218,2.218,0,0,1,.921-1.768,2.907,2.907,0,0,1,1.893-.38h1.872l14.976-.01,29.956-.019,59.905-.038,119.814-.076,119.814.076,59.908.038,29.953.019,14.976.01,7.49,0h3.743a2.819,2.819,0,0,1,1.884.4,2.225,2.225,0,0,1,.89,1.787h-.3a1.891,1.891,0,0,0-.786-1.505,2.488,2.488,0,0,0-1.692-.3l-3.743.079-7.49.158-14.976.313-29.953.633-59.908.721c-19.97.313-39.936.253-59.908.37l-59.905.237-59.908-.231c-19.966-.123-39.936-.047-59.905-.367l-59.905-.724-29.956-.636L38.306,426.2l-1.872-.038a2.429,2.429,0,0,0-1.594.24,1.682,1.682,0,0,0-.732,1.341l-.04,1.923-.076,3.887a2.745,2.745,0,0,0,.29,1.755,1.782,1.782,0,0,0,1.454.816Z" transform="translate(-33.615 -425.433)" fill="#ffa100"/>
      </g>
      <g id="Group_3035" data-name="Group 3035" transform="translate(86.262 177.569)">
        <path id="Path_12000" data-name="Path 12000" d="M66.42,404.1a13.566,13.566,0,0,1-4.457-9.027,13.728,13.728,0,0,1,2.926-9.7,12.782,12.782,0,0,1,8.679-4.728,12.6,12.6,0,0,1,9.355,2.932l-.091.123a13.636,13.636,0,0,0-4.524-1.774,11.781,11.781,0,0,0-4.63-.1,12.035,12.035,0,0,0-7.663,4.523,12.833,12.833,0,0,0-2.908,8.638,12.63,12.63,0,0,0,.924,4.7,14.764,14.764,0,0,0,2.487,4.308Z" transform="translate(-61.913 -380.578)" fill="#5ad7ce"/>
      </g>
      <g id="Group_3036" data-name="Group 3036" transform="translate(90.769 180.567)">
        <path id="Path_12001" data-name="Path 12001" d="M79.9,381.526a13.55,13.55,0,0,1,4.761,9.087,13.724,13.724,0,0,1-2.905,9.928,12.79,12.79,0,0,1-8.895,4.744,12.584,12.584,0,0,1-9.468-3.233l.095-.12A13.719,13.719,0,0,0,68.05,403.9a11.744,11.744,0,0,0,4.722.212,11.992,11.992,0,0,0,7.855-4.545,13.517,13.517,0,0,0,1.847-13.61,14.764,14.764,0,0,0-2.673-4.311Z" transform="translate(-63.392 -381.526)" fill="#058f94"/>
      </g>
      <g id="Group_3037" data-name="Group 3037" transform="translate(89.566 181.043)">
        <path id="Path_12002" data-name="Path 12002" d="M66.831,398.669a8.552,8.552,0,0,1-2.558-2.7,9.865,9.865,0,0,1-1.213-3.694,9.979,9.979,0,0,1,2.289-7.436,9.211,9.211,0,0,1,6.877-3.16,8.991,8.991,0,0,1,3.67.848,8.366,8.366,0,0,1,2.862,2.35l-.067.073a8.585,8.585,0,0,0-12.617.566,9.379,9.379,0,0,0,.82,13.078Z" transform="translate(-62.997 -381.676)" fill="#058f94"/>
      </g>
      <g id="Group_3038" data-name="Group 3038" transform="translate(135.56 68.896)">
        <path id="Path_12048" data-name="Path 12048" d="M0,0,2.026-.021,1.6,39.518l-2.026.021Z" transform="matrix(0.305, -0.952, 0.952, 0.305, 0, 1.936)" fill="#004d52"/>
      </g>
      <g id="Group_3039" data-name="Group 3039" transform="translate(436.956 255.438)">
        <path id="Path_12003" data-name="Path 12003" d="M179.9,423.5a3,3,0,0,1-2.942-3.049v-12.2A3,3,0,0,1,179.9,405.2v2.034a1,1,0,0,0-.982,1.018v12.2a1,1,0,0,0,.982,1.015Z" transform="translate(-176.959 -405.198)" fill="#485e62"/>
      </g>
      <g id="Group_3040" data-name="Group 3040" transform="translate(439.898 255.438)">
        <path id="Path_12004" data-name="Path 12004" d="M177.97,423.5l-.046-2.034a1.009,1.009,0,0,0,1.027-1.015v-12.2a1,1,0,0,0-.982-1.018l-.046-2.034h.046a3,3,0,0,1,2.942,3.052v12.2A3,3,0,0,1,177.97,423.5Z" transform="translate(-177.924 -405.198)" fill="#0e2a31"/>
      </g>
      <g id="Group_3041" data-name="Group 3041" transform="translate(438.944 275.645)">
        <path id="Path_12005" data-name="Path 12005" d="M178.59,420.734a1,1,0,0,1-.979-1.015V412.6a.979.979,0,1,1,1.957,0v7.116A1,1,0,0,1,178.59,420.734Z" transform="translate(-177.611 -411.587)" fill="#2b4449"/>
      </g>
      <g id="Group_3042" data-name="Group 3042" transform="translate(428.789 289.878)">
        <path id="Path_12006" data-name="Path 12006" d="M196.53,416.087a4.688,4.688,0,0,1-.146,1.692,2.069,2.069,0,0,1-1.183,1.17,5.233,5.233,0,0,1-1.637.13l-1.631.006-6.526.025-6.523-.025-1.634-.006a5.333,5.333,0,0,1-1.637-.13,2.064,2.064,0,0,1-1.18-1.17,4.691,4.691,0,0,1-.149-1.692h.1a4.961,4.961,0,0,0,.351,1.562,1.593,1.593,0,0,0,1.055.8,6.129,6.129,0,0,0,1.463-.032l1.634-.12c2.174-.139,4.35-.126,6.523-.2,2.177.067,4.35.06,6.526.2l1.631.117a5.786,5.786,0,0,0,1.463.028,1.584,1.584,0,0,0,1.055-.791,5.067,5.067,0,0,0,.351-1.562Z" transform="translate(-174.28 -416.087)" fill="#0e2a31"/>
      </g>
      <g id="Group_3043" data-name="Group 3043" transform="translate(12.168 285.056)">
        <path id="Path_12007" data-name="Path 12007" d="M37.607,415.325l28.078-.371,28.078-.213,56.156-.179,56.156.176,28.078.213,28.078.374-28.078.374-28.078.21-56.156.179-56.156-.179L65.685,415.7Z" transform="translate(-37.607 -414.563)" fill="#fff"/>
      </g>
      <g id="Group_3044" data-name="Group 3044" transform="translate(107.738 145.288)">
        <path id="Path_12008" data-name="Path 12008" d="M73.7,370.859a5.012,5.012,0,0,0-2.835,1.736,5.667,5.667,0,0,0-1.137,3.223,2.949,2.949,0,0,1-.765-2.027,3.534,3.534,0,0,1,.771-2.167,3.376,3.376,0,0,1,1.905-1.186A2.481,2.481,0,0,1,73.7,370.859Z" transform="translate(-68.959 -370.372)" fill="#fff"/>
      </g>
      <g id="Group_3045" data-name="Group 3045" transform="translate(135.765 174.533)">
        <path id="Path_12009" data-name="Path 12009" d="M83.61,380.367a3.182,3.182,0,0,0-1.96.443,5.244,5.244,0,0,0-1.46,1.167,4.7,4.7,0,0,0-1.073,3.735,3.158,3.158,0,0,1-.963-2.29,3.769,3.769,0,0,1,.948-2.47,3.959,3.959,0,0,1,2.2-1.272A2.321,2.321,0,0,1,83.61,380.367Z" transform="translate(-78.153 -379.618)" fill="#fff"/>
      </g>
      <g id="Group_3046" data-name="Group 3046" transform="translate(86.602 178.565)">
        <path id="Path_12010" data-name="Path 12010" d="M71.856,380.893a13.859,13.859,0,0,0-4.563,2.91,14.832,14.832,0,0,0-3.179,4.339,13.729,13.729,0,0,0-1.326,5.254,19.372,19.372,0,0,0,.616,5.544,13.7,13.7,0,0,1-1.369-5.557,12.275,12.275,0,0,1,1.2-5.693,12.892,12.892,0,0,1,3.576-4.485A10.492,10.492,0,0,1,71.856,380.893Z" transform="translate(-62.025 -380.893)" fill="#fff"/>
      </g>
      <g id="Group_3047" data-name="Group 3047" transform="translate(102.679 186.826)">
        <path id="Path_12011" data-name="Path 12011" d="M72.259,383.505a8.956,8.956,0,0,1,.652,7.894,9.387,9.387,0,0,1-2.262,3.368,10.629,10.629,0,0,1-3.35,2.106,11.235,11.235,0,0,0,5.155-5.661,9.969,9.969,0,0,0,.668-3.855A8.8,8.8,0,0,0,72.259,383.505Z" transform="translate(-67.299 -383.505)" fill="#fff"/>
      </g>
      <g id="Group_3048" data-name="Group 3048" transform="translate(27.355 249.96)">
        <path id="Path_12012" data-name="Path 12012" d="M42.589,417.468a14.179,14.179,0,0,1,5.261-10.219,15.462,15.462,0,0,1,10.633-3.761,20.368,20.368,0,0,0-10.014,4.548A17.273,17.273,0,0,0,42.589,417.468Z" transform="translate(-42.589 -403.466)" fill="#fff"/>
      </g>
      <g id="Group_3049" data-name="Group 3049" transform="translate(27.355 190.969)">
        <path id="Path_12013" data-name="Path 12013" d="M42.589,436.967c3.9-4.643,7.95-9.128,12.023-13.588,4.06-4.479,8.224-8.843,12.394-13.208,4.2-4.327,8.4-8.653,12.714-12.87l6.469-6.316c2.207-2.059,4.368-4.162,6.618-6.171-1.936,2.337-3.963,4.58-5.938,6.87l-6.084,6.721c-4.057,4.475-8.224,8.84-12.394,13.2-4.2,4.324-8.4,8.654-12.714,12.867C51.38,428.709,47.061,432.916,42.589,436.967Z" transform="translate(-42.589 -384.815)" fill="#fff"/>
      </g>
      <g id="Group_3050" data-name="Group 3050" transform="translate(159.508 2.179)">
        <path id="Path_12014" data-name="Path 12014" d="M101.811,325.125l-3.887,13.458-3.932,13.426-3.975,13.41c-1.338,4.466-2.652,8.944-4.076,13.4.832-4.615,1.875-9.179,2.987-13.72s2.4-9.039,3.661-13.54c1.381-4.463,2.737-8.932,4.268-13.344S99.979,329.414,101.811,325.125Z" transform="translate(-85.942 -325.125)" fill="#fff"/>
      </g>
      <g id="Group_3051" data-name="Group 3051" transform="translate(5.148 320.127)">
        <path id="Path_12015" data-name="Path 12015" d="M35.3,426.416c9.471-.313,18.942-.465,28.413-.585l28.413-.18,28.416.18c9.471.12,18.942.266,28.413.585-9.471.316-18.942.465-28.413.585l-28.416.177L63.717,427C54.246,426.878,44.775,426.73,35.3,426.416Z" transform="translate(-35.304 -425.651)" fill="#fff"/>
      </g>
      <g id="Group_3052" data-name="Group 3052" transform="translate(304.137 319.959)">
        <path id="Path_12016" data-name="Path 12016" d="M293.766,426.361l-20.046.371-20.047.213-40.1.179-40.1-.176-20.047-.213-20.046-.374,20.046-.374,20.047-.213,40.1-.176,40.1.179,20.047.213Z" transform="translate(-133.388 -425.598)" fill="#fff"/>
      </g>
      <g id="Group_3053" data-name="Group 3053" transform="translate(243.663 32.84)">
        <path id="Path_12017" data-name="Path 12017" d="M124.617,334.819c-1.463,5.459-3.286,10.782-5.072,16.115-1.9,5.295-3.768,10.6-6,15.767,1.46-5.453,3.28-10.779,5.072-16.108C120.52,345.3,122.392,339.99,124.617,334.819Z" transform="translate(-113.549 -334.819)" fill="#fff"/>
      </g>
      <g id="Group_3054" data-name="Group 3054" transform="translate(280.069 44.707)">
        <path id="Path_12018" data-name="Path 12018" d="M134.265,338.571c-1.107,4.039-2.487,7.964-3.929,11.857-1.481,3.89-3.027,7.749-4.844,11.494,1.1-4.036,2.484-7.958,3.929-11.858C130.9,346.181,132.445,342.319,134.265,338.571Z" transform="translate(-125.492 -338.571)" fill="#fff"/>
      </g>
    </g>
  </g>
</svg>
