<svg xmlns="http://www.w3.org/2000/svg" xmlns:xlink="http://www.w3.org/1999/xlink" width="648" height="330" viewBox="0 0 648 330">
  <defs>
    <clipPath id="clip-path">
      <path id="Path_12633" data-name="Path 12633" d="M2289.656,1218.356l20.412-46.064h37.2l1.285,81.3H2303.29l-13.634-19.042Z" transform="translate(-2289.656 -1172.292)" fill="#233862"/>
    </clipPath>
    <clipPath id="clip-path-2">
      <path id="Path_12638" data-name="Path 12638" d="M2105.656,1218.05l18.581-42.758h44.836l-19.944,46.977Z" transform="translate(-2105.656 -1175.292)" fill="#2b478b"/>
    </clipPath>
  </defs>
  <g id="Group_3617" data-name="Group 3617" transform="translate(-113.751 -311.443)">
    <g id="Group_3605" data-name="Group 3605" transform="translate(171.445 311.443)">
      <path id="Path_12619" data-name="Path 12619" d="M455.933,934.4s-52.055-1.208-74.3-31.991c-40.3-55.766-22.137-104.671,49.6-101.03,80.256,4.072,70.358-168.8,209.324-85.568,30.176,18.073,97.335-19.882,124.166,59.2,6.38,18.8,54.3,20.114,85.262,35.193C898.566,833.859,884.849,934.8,838.959,935.2S455.933,934.4,455.933,934.4Z" transform="translate(-360.596 -606.09)" fill="#ebf2f9"/>
      <path id="Path_12620" data-name="Path 12620" d="M1960.646,365.748l1.676.579L1915.6,335.175,1806.646,367.2l-.557,31.842H1803.6a2.658,2.658,0,0,0-2.682,2.617v2.617a2.658,2.658,0,0,0,2.682,2.617h8.642a2.658,2.658,0,0,0,2.682-2.617v-2.617a2.658,2.658,0,0,0-2.682-2.617h-4.206l20.5-21.516h73.551V658.4h17.88V377.524h15.2v6.106a2.658,2.658,0,0,0,2.682,2.617h22.8a2.658,2.658,0,0,0,2.682-2.617V368.365A2.658,2.658,0,0,0,1960.646,365.748ZM1807.654,397.2l.527-19.342,18.22-.33Zm130.195-31.448a2.671,2.671,0,0,0-2.641,2.181H1809.583l105.758-31.084,43.906,28.9Z" transform="translate(-1464.277 -329.763)" fill="#d2e4ff"/>
      <path id="Path_12621" data-name="Path 12621" d="M567.84,637.441h-1.709l-.382-21.842-74.737-21.967-31.806,21.208a1.85,1.85,0,0,0-.255.17l0,0h0a1.776,1.776,0,0,0-.676,1.387v10.471a1.823,1.823,0,0,0,1.84,1.795h15.638a1.823,1.823,0,0,0,1.84-1.795v-4.188h10.425V815.347h12.265V622.682h50.452L564.8,637.441h-2.885a1.823,1.823,0,0,0-1.84,1.8v1.8a1.823,1.823,0,0,0,1.84,1.795h5.928a1.823,1.823,0,0,0,1.84-1.795v-1.8A1.823,1.823,0,0,0,567.84,637.441ZM477.563,616.1a1.833,1.833,0,0,0-1.812-1.5H461.072l30.117-19.826L563.734,616.1Zm87.495,20.076L552.2,622.682l12.55.3Z" transform="translate(-435.443 -529.282)" fill="#ebf2f9"/>
      <g id="Group_3603" data-name="Group 3603" transform="translate(43.985 15.609)">
        <rect id="Rectangle_1905" data-name="Rectangle 1905" width="103.185" height="313.285" transform="translate(128.633)" fill="#d2e4ff"/>
        <g id="Group_3602" data-name="Group 3602" transform="translate(157.133 43.227)">
          <rect id="Rectangle_1906" data-name="Rectangle 1906" width="74.685" height="45.896" fill="#aed3ff" opacity="0.5"/>
          <rect id="Rectangle_1907" data-name="Rectangle 1907" width="74.685" height="45.896" transform="translate(0 84.043)" fill="#aed3ff" opacity="0.5"/>
          <rect id="Rectangle_1908" data-name="Rectangle 1908" width="74.685" height="45.896" transform="translate(0 167.001)" fill="#aed3ff" opacity="0.5"/>
        </g>
        <path id="Path_12622" data-name="Path 12622" d="M548.788,635.72h13.925V593.279H677.421V379.89h28.5V693.351h-28.5v-.176H548.788Z" transform="translate(-548.788 -379.89)" fill="#aed3ff"/>
      </g>
      <path id="Path_12623" data-name="Path 12623" d="M1676.345,720.718v-1.691h3.793v-11.16h3.139v11.16h7.952v-11.16h3.139v11.16h8.646v-11.16h3.139v11.16h7.952v-11.16h3.139v11.16h4.159v1.691h-4.159v5.434h4.159v1.691h-4.159v5.433h4.159v1.691h-4.159V740.4h4.159v1.691h-4.159v5.433h4.159v1.691h-4.159v5.433h4.159v1.691h-4.159v4.4h4.159v1.691h-4.159v5.434h4.159v1.691h-4.159v5.433h4.159v1.691h-4.159v5.434h4.159V783.8h-4.159v5.433h4.159v1.691h-4.159v5.434h4.159v1.691h-4.159v5.185h4.159v1.691h-4.159v5.433h4.159v1.691h-4.159v5.433h4.159v1.691h-4.159v5.434h4.159V826.3h-4.159v5.433h4.159v1.691h-4.159v5.433h4.159v1.691h-4.159v4.4h4.159v1.691h-4.159v5.434h4.159v1.691h-4.159v5.433h4.159v1.691h-4.159v5.433h4.159v1.691h-4.159v5.433h4.159v1.691h-4.159v5.433h4.159v1.691h-4.159V887.1h4.159v1.691h-4.159v5.434h4.159v1.691h-4.159v5.433h4.159v1.691h-4.159v5.434h4.159v1.691h-4.159V915.6h4.159v1.691h-4.159v5.433h4.159v1.691h-4.159v4.4h4.159V930.5h-4.159v5.433h4.159v1.691h-4.159v5.434h4.159v1.691h-45.06v-1.691h3.793v-5.434h-3.793v-1.691h3.793V930.5h-3.793v-1.691h3.793v-4.4h-3.793v-1.691h3.793v-5.433h-3.793V915.6h3.793v-5.433h-3.793v-1.691h3.793v-5.434h-3.793v-1.691h3.793v-5.433h-3.793v-1.691h3.793v-5.434h-3.793V887.1h3.793v-4.847h-3.793v-1.691h3.793v-5.433h-3.793v-1.691h3.793v-5.433h-3.793v-1.691h3.793v-5.433h-3.793v-1.691h3.793v-5.433h-3.793v-1.691h3.793v-5.434h-3.793v-1.691h3.793v-4.4h-3.793v-1.691h3.793v-5.433h-3.793v-1.691h3.793V826.3h-3.793v-1.691h3.793v-5.434h-3.793v-1.691h3.793V812.05h-3.793v-1.691h3.793v-5.433h-3.793v-1.691h3.793v-5.185h-3.793v-1.691h3.793v-5.434h-3.793v-1.691h3.793V783.8h-3.793v-1.691h3.793v-5.434h-3.793v-1.691h3.793v-5.433h-3.793v-1.691h3.793v-5.434h-3.793v-1.691h3.793v-4.4h-3.793v-1.691h3.793v-5.433h-3.793v-1.691h3.793v-5.433h-3.793V740.4h3.793v-5.434h-3.793v-1.691h3.793v-5.433h-3.793v-1.691h3.793v-5.434Zm18.024,0v5.434h8.646v-5.434Zm8.646,215.219V930.5h-8.646v5.433Zm-8.646,1.691v5.434h8.646v-5.434Zm8.646-8.815v-4.4h-8.646v4.4Zm0-6.087v-5.433h-8.646v5.433Zm0-7.124v-5.433h-8.646V915.6Zm0-7.124v-5.434h-8.646v5.434Zm0-7.125v-5.433h-8.646v5.433Zm0-7.124v-5.434h-8.646v5.434Zm0-7.125v-4.847h-8.646V887.1Zm0-6.538v-5.433h-8.646v5.433Zm0-7.124v-5.433h-8.646v5.433Zm0-7.124v-5.433h-8.646v5.433Zm0-7.124v-5.433h-8.646v5.433Zm0-7.124v-5.434h-8.646v5.434Zm0-7.124v-4.4h-8.646v4.4Zm0-6.087v-5.433h-8.646v5.433Zm0-7.124V826.3h-8.646v5.433Zm0-7.124v-5.434h-8.646v5.434Zm0-7.124V812.05h-8.646v5.433Zm0-7.125v-5.433h-8.646v5.433Zm0-7.124v-5.185h-8.646v5.185Zm0-6.876v-5.434h-8.646v5.434Zm0-7.125V783.8h-8.646v5.433Zm0-7.124v-5.434h-8.646v5.434Zm0-7.124v-5.433h-8.646v5.433Zm0-7.124v-5.434h-8.646v5.434Zm0-7.124v-4.4h-8.646v4.4Zm0-6.087v-5.433h-8.646v5.433Zm0-7.124v-5.433h-8.646v5.433Zm0-7.124v-5.434h-8.646V740.4Zm0-7.124v-5.433h-8.646v5.433Zm11.092-12.558h-7.952v5.434h7.952Zm0,7.125h-7.952v5.433h7.952Zm0,7.124h-7.952V740.4h7.952Zm0,7.124h-7.952v5.433h7.952Zm0,7.125h-7.952v5.433h7.952Zm0,7.124h-7.952v4.4h7.952Zm0,6.087h-7.952v5.434h7.952Zm0,7.125h-7.952v5.433h7.952Zm0,7.124h-7.952v5.434h7.952Zm0,7.124h-7.952v5.433h7.952Zm0,7.124h-7.952v5.434h7.952Zm0,7.124h-7.952v5.185h7.952Zm0,6.876h-7.952v5.433h7.952Zm0,7.124h-7.952v5.433h7.952Zm0,7.124h-7.952v5.434h7.952Zm0,7.124h-7.952v5.433h7.952Zm0,7.124h-7.952v5.433h7.952Zm0,7.124h-7.952v4.4h7.952Zm0,6.087h-7.952v5.434h7.952Zm0,7.125h-7.952v5.433h7.952Zm0,7.124h-7.952v5.433h7.952Zm0,7.124h-7.952v5.433h7.952Zm0,7.124h-7.952v5.433h7.952Zm0,7.124h-7.952V887.1h7.952Zm0,6.538h-7.952v5.434h7.952Zm0,7.124h-7.952v5.433h7.952Zm0,7.124h-7.952v5.434h7.952Zm0,7.124h-7.952V915.6h7.952Zm0,7.124h-7.952v5.433h7.952Zm0,7.125h-7.952v4.4h7.952Zm0,6.088h-7.952v5.433h7.952Zm0,7.124h-7.952v5.434h7.952Zm-30.829,5.434h7.952v-5.434h-7.952Zm0-7.124h7.952V930.5h-7.952Zm0-7.124h7.952v-4.4h-7.952Zm0-6.087h7.952v-5.433h-7.952Zm0-7.124h7.952v-5.433h-7.952Zm0-7.124h7.952v-5.434h-7.952Zm0-7.125h7.952v-5.433h-7.952Zm0-7.124h7.952v-5.434h-7.952Zm0-7.125h7.952v-4.847h-7.952Zm0-6.538h7.952v-5.433h-7.952Zm0-7.124h7.952v-5.433h-7.952Zm0-7.124h7.952v-5.433h-7.952Zm0-7.124h7.952v-5.433h-7.952Zm0-7.124h7.952v-5.434h-7.952Zm0-7.124h7.952v-4.4h-7.952Zm0-6.087h7.952v-5.433h-7.952Zm0-7.124h7.952V826.3h-7.952Zm0-7.124h7.952v-5.434h-7.952Zm0-7.124h7.952V812.05h-7.952Zm0-7.125h7.952v-5.433h-7.952Zm0-7.124h7.952v-5.185h-7.952Zm0-6.876h7.952v-5.434h-7.952Zm0-7.125h7.952V783.8h-7.952Zm0-7.124h7.952v-5.434h-7.952Zm0-7.124h7.952v-5.433h-7.952Zm0-7.124h7.952v-5.434h-7.952Zm0-7.124h7.952v-4.4h-7.952Zm0-6.087h7.952v-5.433h-7.952Zm0-7.124h7.952v-5.433h-7.952Zm0-7.124h7.952v-5.434h-7.952Zm0-7.124h7.952v-5.433h-7.952Zm0-7.124h7.952v-5.434h-7.952Z" transform="translate(-1368.823 -617.466)" fill="#d2e4ff"/>
      <g id="Group_3604" data-name="Group 3604" transform="translate(202.249)">
        <rect id="Rectangle_1909" data-name="Rectangle 1909" width="1.111" height="19.294" transform="translate(67.102)" fill="#d2e4ff"/>
        <rect id="Rectangle_1910" data-name="Rectangle 1910" width="1.111" height="19.294" transform="translate(5.555)" fill="#d2e4ff"/>
        <rect id="Rectangle_1911" data-name="Rectangle 1911" width="1.111" height="19.294" transform="translate(59.325)" fill="#d2e4ff"/>
        <rect id="Rectangle_1912" data-name="Rectangle 1912" width="1.111" height="19.294" transform="translate(0)" fill="#d2e4ff"/>
      </g>
    </g>
    <path id="Path_12624" data-name="Path 12624" d="M761.04,1753.85H114.462a.7.7,0,0,1-.711-.694h0a.7.7,0,0,1,.711-.694H761.04a.705.705,0,0,1,.711.694h0A.705.705,0,0,1,761.04,1753.85Z" transform="translate(0 -1112.407)" fill="#283250"/>
    <path id="Path_12625" data-name="Path 12625" d="M344.122,1655.733H235.675c7.386-5.32,41.825-29.351,60.049-28.555,4.755.209,10.045,1.989,15.367,4.6C324.726,1638.459,338.563,1650.59,344.122,1655.733Z" transform="translate(-93.427 -1015.679)" fill="#e69d43"/>
    <path id="Path_12626" data-name="Path 12626" d="M522.4,1485.229a.914.914,0,0,0-1.091.668l-8.267,35.227c-2.233.065-4.5,2.424-5.274,5.71l-.787,3.356a4.5,4.5,0,0,0-.108.565l9.18,2.051a2.318,2.318,0,0,0,.179-.549l.787-3.356c.769-3.277-.216-6.357-2.2-7.375l8.268-35.232A.891.891,0,0,0,522.4,1485.229Z" transform="translate(-301.237 -906.097)" fill="#2b478b"/>
    <path id="Path_12627" data-name="Path 12627" d="M470.508,1676.459s19.068-4.819,25.156-.9-3.1,8.069-3.1,8.069Z" transform="translate(-273.374 -1051.857)" fill="#e69d43"/>
    <g id="Group_3611" data-name="Group 3611" transform="translate(345.664 490.497)">
      <g id="Group_3607" data-name="Group 3607" transform="translate(276.649 17.255)">
        <path id="Path_12628" data-name="Path 12628" d="M2289.656,1218.356l20.412-46.064h37.2l1.285,81.3H2303.29l-13.634-19.042Z" transform="translate(-2289.656 -1172.292)" fill="#233862"/>
        <g id="Group_3606" data-name="Group 3606" clip-path="url(#clip-path)">
          <path id="Path_12629" data-name="Path 12629" d="M2271.231,1232.063l-9.585-1.488,35.873-77.819,9.585,1.488Z" transform="translate(-2268.192 -1157.211)" fill="#fff" opacity="0.6"/>
          <path id="Path_12630" data-name="Path 12630" d="M2327.929,1241.107l-3.078-.478,35.873-77.819,3.078.478Z" transform="translate(-2316.625 -1164.973)" fill="#fff" opacity="0.6"/>
          <path id="Path_12631" data-name="Path 12631" d="M2389.4,1250.86l-9.585-1.488,35.873-77.819,9.585,1.488Z" transform="translate(-2358.739 -1171.721)" fill="#fff" opacity="0.6"/>
          <path id="Path_12632" data-name="Path 12632" d="M2446.093,1259.9l-3.078-.478,35.872-77.819,3.078.478Z" transform="translate(-2407.171 -1179.483)" fill="#fff" opacity="0.6"/>
        </g>
      </g>
      <g id="Group_3609" data-name="Group 3609" transform="translate(233.644 17.939)">
        <path id="Path_12634" data-name="Path 12634" d="M2105.656,1218.05l18.581-42.758h44.836l-19.944,46.977Z" transform="translate(-2105.656 -1175.292)" fill="#2b478b"/>
        <g id="Group_3608" data-name="Group 3608" clip-path="url(#clip-path-2)">
          <path id="Path_12635" data-name="Path 12635" d="M2064.035,1172.457l-8.941-3.683,49.038-55.889,8.942,3.683Z" transform="translate(-2066.911 -1127.117)" fill="#fff" opacity="0.6"/>
          <path id="Path_12636" data-name="Path 12636" d="M2116.925,1194.849l-2.871-1.183,49.038-55.889,2.871,1.183Z" transform="translate(-2112.092 -1146.333)" fill="#fff" opacity="0.6"/>
          <path id="Path_12637" data-name="Path 12637" d="M2174.264,1218.994l-8.942-3.683,49.038-55.889,8.942,3.683Z" transform="translate(-2151.377 -1163.041)" fill="#fff" opacity="0.6"/>
        </g>
      </g>
      <path id="Path_12639" data-name="Path 12639" d="M2632.664,1118.821h-4.675v-15.346a6.945,6.945,0,0,1,7.021-6.851h.458v4.561h-.458a2.321,2.321,0,0,0-2.347,2.29Z" transform="translate(-2272.263 -1096.625)" fill="#2b478b"/>
      <path id="Path_12640" data-name="Path 12640" d="M2112.777,1166.625l-19.789,45.76,5.337-1.824,17.646-40.591h40.2l1.411-3.345Z" transform="translate(-1862.306 -1150.662)" fill="#ffa412"/>
      <path id="Path_12641" data-name="Path 12641" d="M2578.78,1522.292l17.841,19.383v2.508h-41.594v-20.3Z" transform="translate(-2216.354 -1425.222)" fill="#e27f2b"/>
      <path id="Path_12642" data-name="Path 12642" d="M1510.667,1369.344l7.479-10.053h159.322L1701,1396.463H1503.656Z" transform="translate(-1410.714 -1299.393)" fill="#ffa412"/>
      <path id="Rectangle_1913" data-name="Rectangle 1913" d="M0,0H162.169a23.564,23.564,0,0,1,23.564,23.564v0A20.676,20.676,0,0,1,165.057,44.24H0a0,0,0,0,1,0,0V0A0,0,0,0,1,0,0Z" transform="translate(185.73 102.771)" fill="#4a75cb"/>
      <path id="Path_12643" data-name="Path 12643" d="M1947.016,1533.292H1776.865c-14.2,0-25.71,11.231-25.71,25.084h0c0,13.854,11.511,25.085,25.71,25.085h170.151c14.2,0,25.71-11.231,25.71-25.085h0C1972.726,1544.523,1961.215,1533.292,1947.016,1533.292Zm23.84,25.084a20.508,20.508,0,0,1-20.756,20.251H1812.735a20.508,20.508,0,0,1-20.756-20.251h0a20.508,20.508,0,0,1,20.756-20.251H1950.1a20.508,20.508,0,0,1,20.756,20.251Z" transform="translate(-1600.367 -1433.714)" fill="#233862"/>
      <g id="Group_3610" data-name="Group 3610" transform="translate(218.53 117.422)">
        <ellipse id="Ellipse_144" data-name="Ellipse 144" cx="6.077" cy="7.297" rx="6.077" ry="7.297" transform="translate(0 1.007)" fill="#233862"/>
        <ellipse id="Ellipse_145" data-name="Ellipse 145" cx="6.077" cy="7.297" rx="6.077" ry="7.297" transform="translate(39.266 0.627)" fill="#233862"/>
        <ellipse id="Ellipse_146" data-name="Ellipse 146" cx="6.077" cy="7.297" rx="6.077" ry="7.297" transform="translate(78.531 0.209)" fill="#233862"/>
        <ellipse id="Ellipse_147" data-name="Ellipse 147" cx="6.077" cy="7.297" rx="6.077" ry="7.297" transform="translate(117.797)" fill="#233862"/>
      </g>
      <path id="Path_12644" data-name="Path 12644" d="M1707.656,1547.832l41.837,2.318,19.866-25.35h160.1v-2.508H1730.093Z" transform="translate(-1567.034 -1425.222)" fill="#ffa412"/>
      <path id="Path_12645" data-name="Path 12645" d="M1707.656,1550.151v-2.318h40.785l20.1-25.541H1929.46v2.508h-160.1l-19.866,25.35Z" transform="translate(-1567.034 -1425.222)" fill="#e27f2b"/>
      <path id="Path_12646" data-name="Path 12646" d="M1921.419,1210.609v-43.922h-44.806l-18.994,43.922H1741.146l-7.479,10.053-7.012,27.118H1924v-37.171Zm-14.329,35.156h-27.346l-17.1-20.105v-15.051h-.009l17.173-40.577H1912.3v35.5a5.143,5.143,0,0,1-5.205,5.079h0Z" transform="translate(-1581.593 -1150.71)" fill="#e27f2b"/>
      <path id="Path_12647" data-name="Path 12647" d="M2538.22,1260.292h29.2a2.482,2.482,0,0,1,2.513,2.451v66.645l-10.751-7.867h-23.022Z" transform="translate(-2201.893 -1222.969)" fill="#e27f2b"/>
      <path id="Path_12648" data-name="Path 12648" d="M1239.143,1479.314l-133.143-.05,52.677-80.715H1291.5Z" transform="translate(-1106 -1329.698)" fill="#4a75cb"/>
      <path id="Path_12649" data-name="Path 12649" d="M1315.542,1475.387H1205.75l97.94-9.6,64.829-72.5Z" transform="translate(-1182.436 -1325.639)" fill="#233862"/>
      <path id="Path_12650" data-name="Path 12650" d="M2207.345,1154.759H2158.77a1.924,1.924,0,0,1-1.948-1.9h0a1.925,1.925,0,0,1,1.948-1.9h48.576a1.925,1.925,0,0,1,1.948,1.9h0A1.924,1.924,0,0,1,2207.345,1154.759Z" transform="translate(-1911.219 -1138.568)" fill="#ffa412"/>
      <path id="Path_12651" data-name="Path 12651" d="M2402.975,1154.759H2353.27a1.924,1.924,0,0,1-1.948-1.9h0a1.925,1.925,0,0,1,1.948-1.9h49.705a1.924,1.924,0,0,1,1.948,1.9h0A1.924,1.924,0,0,1,2402.975,1154.759Z" transform="translate(-2060.26 -1138.568)" fill="#e27f2b"/>
      <rect id="Rectangle_1914" data-name="Rectangle 1914" width="10.284" height="57.618" rx="5.142" transform="translate(352.921 14.899)" fill="#233862"/>
      <path id="Path_12652" data-name="Path 12652" d="M1820.811,1511.458l2.075-3.2,176.922,3.428Z" transform="translate(-1653.742 -1414.389)" fill="#ffa412"/>
    </g>
    <path id="Path_12653" data-name="Path 12653" d="M1454.072,1715.8H1345.625a419.028,419.028,0,0,1,40.944-9.266,115.121,115.121,0,0,1,19.105-1.778C1422.608,1705.044,1446.344,1713.036,1454.072,1715.8Z" transform="translate(-943.955 -1075.576)" fill="#e27f2b"/>
    <path id="Path_12654" data-name="Path 12654" d="M1306.578,1715.8H1198.131c7.386-2.057,41.825-11.352,60.049-11.044a93.181,93.181,0,0,1,15.367,1.778A237,237,0,0,1,1306.578,1715.8Z" transform="translate(-830.934 -1075.576)" fill="#e69d43"/>
    <g id="Group_3613" data-name="Group 3613" transform="translate(341.123 399.016)">
      <path id="Path_12655" data-name="Path 12655" d="M1187.661,917.292c3.9-19.514,7.478-38.2,7.478-38.2s-11.107,1.642-15.89,5.53-5.266,28.647-6.86,35.646a53.512,53.512,0,0,0-.838,6.3c-.906,10.066.222,25.141,1.076,29.367a22.534,22.534,0,0,1-2.293,6.228s-.974,2.938,5.4,7.345C1179.8,972.316,1183.422,938.5,1187.661,917.292Z" transform="translate(-1150.717 -837.221)" fill="#d9935c"/>
      <path id="Path_12656" data-name="Path 12656" d="M1199.3,879.1s-2.062,10.767-4.761,24.49c-.855,4.355-1.777,9.005-2.717,13.706-3.822,7.31-7.1,12.28-8.116,11.345-2.067-1.9-5.7-2.139-7.993-2.069a53.518,53.518,0,0,1,.838-6.3c.126-.553.245-1.217.36-1.972,1.337-8.807,2.1-30.094,6.5-33.675C1188.2,880.738,1199.3,879.1,1199.3,879.1Z" transform="translate(-1154.881 -837.221)" fill="#739af0"/>
      <path id="Path_12657" data-name="Path 12657" d="M1194.542,944.928c-.855,4.355-1.777,9.005-2.717,13.706-3.822,7.31-7.1,12.28-8.116,11.345-2.067-1.9-5.7-2.14-7.993-2.069a53.512,53.512,0,0,1,.838-6.3c.126-.553.245-1.217.36-1.972l11.46-26.992Z" transform="translate(-1154.881 -878.563)" fill="#4a75cb"/>
      <path id="Path_12658" data-name="Path 12658" d="M1292.324,837.041a80.553,80.553,0,0,0-.5-12.067l-15.413,2.458s0,4.589.068,9.681l-.015,0s-.421,4.724,5.543,5.415S1292.485,840.686,1292.324,837.041Z" transform="translate(-1232.041 -795.441)" fill="#d9935c"/>
      <path id="Path_12659" data-name="Path 12659" d="M1276.226,839.818s3.631,7.258,7.793,7.258,8.059-6.826,8.059-6.826Z" transform="translate(-1231.899 -806.9)" fill="#cb7d45"/>
      <path id="Path_12660" data-name="Path 12660" d="M1320.18,1726.123a25.976,25.976,0,0,1,1.86-6.8c1.3-2.535,9.564-.922,9.564-.922s1.653,1.383,2.007,7.834Z" transform="translate(-1265.58 -1484.741)" fill="#233862"/>
      <path id="Path_12661" data-name="Path 12661" d="M1112.875,1707.661c1.942-1.157.837-9.786.837-9.786s-9.05-7.064-10.295-1.656-8.6,7.837-12.783,8.5c-2.889.457-3.784,2.019-4.061,2.942Z" transform="translate(-1086.573 -1466.433)" fill="#233862"/>
      <path id="Path_12662" data-name="Path 12662" d="M1281.187,746.17s10.289-15.828-9.468-16.876c0,0-7.41.851-9.088-.786,0,0-5.748,8.524-.38,17.662S1281.187,746.17,1281.187,746.17Z" transform="translate(-1219.435 -720.973)" fill="#233862"/>
      <path id="Path_12663" data-name="Path 12663" d="M1271.771,777.925c1.5,1.15,5.889,2.292,7.158,2.425,0,0,6.512-1.417,7.7-2.113,1.833-1.084,1.715-3.279,1.809-6.33.113-3.611.486-6.448.073-8.53-.491-2.49-2.11-3.907-6.641-4.292-8.318-.7-11.783,1.328-11.928,4.049-.038.731-.072,1.427-.1,2.087C1269.508,773.706,1270.2,776.715,1271.771,777.925Z" transform="translate(-1226.944 -744.469)" fill="#d9935c"/>
      <path id="Path_12664" data-name="Path 12664" d="M1178.808,1247.734a39.806,39.806,0,0,0-.664,4.77c-.841,16.011-13.814,52.62-16.134,53.474-3.59,1.322-9.244-1.488-12.2-2.407a2.472,2.472,0,0,1-1.78-2.812c6.424-28.815,8.785-70.308,9.644-94.874a108.9,108.9,0,0,1,2.611-20.921s31.639-8.236,31.827,2.183C1192.277,1196.366,1181.63,1232.524,1178.808,1247.734Z" transform="translate(-1133.625 -1070.953)" fill="#2b478b"/>
      <path id="Path_12665" data-name="Path 12665" d="M1210.6,1247.734l-21.136-41.849a108.9,108.9,0,0,1,2.611-20.921s31.639-8.236,31.827,2.183C1224.067,1196.366,1213.42,1232.524,1210.6,1247.734Z" transform="translate(-1165.415 -1070.953)" fill="#233862"/>
      <path id="Path_12666" data-name="Path 12666" d="M1249.775,1192.42,1266.5,1310.7s7.345,1.728,13.058.346c0,0,4.9-62.9,4.488-78.112s3.515-40.693-.9-43.5S1249.775,1192.42,1249.775,1192.42Z" transform="translate(-1211.631 -1076.189)" fill="#2b478b"/>
      <path id="Path_12667" data-name="Path 12667" d="M1244.334,950.445a2.465,2.465,0,0,1-2.46,2.533l-26.358.392-19.359.288c-.907.016,1.959-7.061,2.017-53.2.014-10.3,16.352-21.375,16.653-21.375l0,0c0,1.483,2.395,4.22,6.084,4.455,4.378.28,9.75-1.846,9.75-4.307a11.508,11.508,0,0,1,1.327,1.671c2.185,3.107,6.589,10.683,9.4,23.873,2.219,10.416,1.366,24.341,2.963,42.308C1244.472,948.383,1244.3,949.536,1244.334,950.445Z" transform="translate(-1170.409 -837.209)" fill="#ffa412"/>
      <path id="Path_12668" data-name="Path 12668" d="M1243.362,953.122a54.635,54.635,0,0,1-10.057,2.857,101.489,101.489,0,0,1-19.485,1.91c-12.811.08-17.663-4.229-17.663-4.229-.907.016,1.959-7.061,2.017-53.2.014-10.3,16.352-21.375,16.653-21.375l0,0s-.42,13.711,3.831,17.743c0,0,5.962-4.493,13.7-17.281,2.186,3.107,6.223,12.042,9.033,25.231a69.752,69.752,0,0,1,1.2,8.756c.745,9.1.579,20.212,1.766,33.552.117,1.3-.055,2.451-.021,3.36C1244.389,951.815,1244.766,953.1,1243.362,953.122Z" transform="translate(-1170.409 -837.209)" fill="#739af0"/>
      <path id="Path_12669" data-name="Path 12669" d="M1349.214,1040.5a54.638,54.638,0,0,1-10.057,2.857c-2.062-3.067-4.66-8.6-5.02-17.33-.609-14.755,13.756-33.757,13.756-33.757l.548,8.641c.745,9.1.579,20.212,1.766,33.552.117,1.3-.055,2.451-.021,3.36C1350.241,1039.19,1350.619,1040.476,1349.214,1040.5Z" transform="translate(-1276.261 -924.584)" fill="#4a75cb"/>
      <path id="Path_12719" data-name="Path 12719" d="M0,0,28.1.3l.408,38.078-28.1-.3Z" transform="translate(36.024 79.744) rotate(-30)" fill="#2b478b"/>
      <path id="Path_12670" data-name="Path 12670" d="M1286.082,884.554c-3-2.212-10.043-3.781-13.509-4.448-1.222-.235-2-.358-2-.358.361,1.626,1.174,4.177,2.237,7.239,4.453,12.835,13.279,34.66,11.5,35.125a49.993,49.993,0,0,1-5.335,1c-7.741,1.106-18.158,1.6-19.248,1.644-.085-.078-3.8-3.453-5.24-3.453-1.462,0-5.675,1.5-6.1,2.65s-.6,3.226.6,3.687a55.267,55.267,0,0,0,7.48,1.728,3.534,3.534,0,0,0,.62-.005,133.509,133.509,0,0,0,23.381,4.577,77.484,77.484,0,0,0,13.587.382C1300.263,921.284,1290.138,887.545,1286.082,884.554Z" transform="translate(-1210.317 -837.724)" fill="#d9935c"/>
      <path id="Path_12671" data-name="Path 12671" d="M1373.415,935.384a77.487,77.487,0,0,1-13.587-.382,15.492,15.492,0,0,0-1.49-10.829,49.99,49.99,0,0,0,5.335-1c1.778-.465-7.048-22.29-11.5-35.125-.356-4.149-.544-6.926-.544-6.926l.306.045c3.466.667,10.511,2.236,13.509,4.448C1369.5,888.6,1379.625,922.343,1373.415,935.384Z" transform="translate(-1289.679 -838.784)" fill="#739af0"/>
      <path id="Path_12672" data-name="Path 12672" d="M1293.024,892.057s11.926-5.127,12.1-5.53a9.056,9.056,0,0,0-1.417-4.435s5.727.518,6.081-.173.62-6.379.62-6.379a9.7,9.7,0,0,0-5.336-2.638s-2.592,6.284-3.55,8.153C1298.987,886.009,1293.024,892.057,1293.024,892.057Z" transform="translate(-1244.771 -832.44)" fill="#4a75cb"/>
      <path id="Path_12673" data-name="Path 12673" d="M1260.463,882a38.044,38.044,0,0,0,2.834,10.138s-6.229-4.234-6.76-5.616,1.505-4.061,1.505-4.061-3.719-.086-3.808-1.3,1.151-5.962,1.151-5.962,3.2-2.279,4.085-2.193Z" transform="translate(-1215.044 -832.522)" fill="#4a75cb"/>
      <g id="Group_3612" data-name="Group 3612" transform="translate(39.115)">
        <path id="Path_12674" data-name="Path 12674" d="M1280.422,711.846l-26.485.276s-.389-7.792,4.2-12.761q.314-.345.666-.669a11.846,11.846,0,0,1,3.618-2.294,12.357,12.357,0,0,1,12.429,1.871c.271.2.525.4.761.6a15.709,15.709,0,0,1,2.324,2.34S1280.508,704.631,1280.422,711.846Z" transform="translate(-1253.928 -695.467)" fill="#ffa412"/>
        <path id="Path_12675" data-name="Path 12675" d="M1273.009,722.362c-.073-1.049-.54-9.985,2.677-13.015a4.94,4.94,0,0,0-.439-.358c-3.43,3.483-3.7,12.278-3.689,13.388l-8.467.088c-.251-6.329-3.831-12.631-4.261-13.334a5.806,5.806,0,0,0-.489.489,36.974,36.974,0,0,1,3.182,12.862l-7.561.079a59.135,59.135,0,0,0,12.367,1.715c5.313-.064,14.118-1.991,14.118-1.991Z" transform="translate(-1253.955 -705.905)" fill="#e27f2b"/>
      </g>
    </g>
    <g id="P297LW" transform="translate(493.943 397.214)">
      <path id="Path_12676" data-name="Path 12676" d="M1778.477,910.607c2.524,7.537,16.277,20.565,18.178,21.864,0,0,3.2-5.2,2.56-8.118-.523-2.379-5.877-10.859-7.71-15.026-.1-.216-.181-.423-.256-.614a3.675,3.675,0,0,1-.354-1.428c.092-.905,3.008-3.108,6.4-5.72,4.405-3.4,9.611-7.483,10.455-10.308,1.493-5,6.667-24.775,6.667-24.775s-12.853,2.712-16.48,5.834-19.2,29.14-19.84,35.8A6.112,6.112,0,0,0,1778.477,910.607Z" transform="translate(-1769.276 -825.682)" fill="#ffa412"/>
      <path id="Path_12677" data-name="Path 12677" d="M1779.787,1052.556c2.524,7.537,16.277,20.565,18.178,21.863,0,0,3.2-5.2,2.56-8.118-.55-2.5-6.447-11.756-7.966-15.64A20.438,20.438,0,0,0,1779.787,1052.556Z" transform="translate(-1770.586 -967.632)" fill="#d9935c"/>
      <path id="Path_12678" data-name="Path 12678" d="M1933.383,828.866l.009,1.536s-.429,4.8,5.634,5.505,10.628-1.443,10.464-5.149a46.81,46.81,0,0,1-1.159-7.647,16.33,16.33,0,0,1,.216-2.876l-11.748-.229-3.46.552Z" transform="translate(-1888.249 -789.803)" fill="#d9935c"/>
      <path id="Path_12679" data-name="Path 12679" d="M1933.338,820.557l.045,8.309a10.144,10.144,0,0,0,4.235.912c5.4,0,8.889-3.863,10.713-6.667a16.33,16.33,0,0,1,.216-2.876l-11.748-.229Z" transform="translate(-1888.249 -789.803)" fill="#cb7d45"/>
      <path id="Path_12680" data-name="Path 12680" d="M1977.835,1723.794a26.42,26.42,0,0,1,1.891-6.911c1.321-2.577,9.724-.937,9.724-.937s1.681,1.406,2.041,7.965Z" transform="translate(-1922.346 -1481.036)" fill="#ffa412"/>
      <path id="Path_12681" data-name="Path 12681" d="M1767.162,1706.17c1.975-1.176.851-9.949.851-9.949s-9.2-7.182-10.466-1.683-8.741,7.968-13,8.641c-2.938.465-3.847,2.052-4.129,2.991Z" transform="translate(-1740.421 -1463.307)" fill="#ffa412"/>
      <path id="Path_12682" data-name="Path 12682" d="M1834.1,1241.29a40.474,40.474,0,0,0-.675,4.849c-.855,16.279-14.044,53.5-16.4,54.367-3.65,1.344-9.4-1.513-12.406-2.448a2.513,2.513,0,0,1-1.81-2.859c6.532-29.3,8.932-71.482,9.805-96.458a110.739,110.739,0,0,1,2.654-21.27s32.168-8.374,32.358,2.219C1847.8,1189.065,1836.972,1225.827,1834.1,1241.29Z" transform="translate(-1788.187 -1063.328)" fill="#2b478b"/>
      <path id="Path_12683" data-name="Path 12683" d="M1866.425,1241.29l-21.489-42.548a110.74,110.74,0,0,1,2.654-21.27s32.168-8.374,32.359,2.219C1880.118,1189.065,1869.293,1225.827,1866.425,1241.29Z" transform="translate(-1820.508 -1063.328)" fill="#233862"/>
      <path id="Path_12684" data-name="Path 12684" d="M1906.255,1185.052,1923.26,1305.3s7.468,1.757,13.276.351c0,0,4.978-63.955,4.563-79.417s3.573-41.373-.91-44.23S1906.255,1185.052,1906.255,1185.052Z" transform="translate(-1867.496 -1068.651)" fill="#2b478b"/>
      <path id="Path_12685" data-name="Path 12685" d="M1851.742,942.3a45.631,45.631,0,0,0,21.276,4.8,96.659,96.659,0,0,0,12.8-.939c10.095-1.461,15.189-4.211,15.148-5.235-.034-.924-.1-3.994-.22-5.314-1.6-18.05-.774-32.09-2.933-42.636-.026-.127-.051-.254-.079-.379-2.856-13.409-7.334-21.112-9.557-24.272a12.028,12.028,0,0,0-1.348-1.7c0,2.5-5.461,4.662-9.914,4.379-3.75-.239-6.184-3.022-6.184-4.529l0,0c-.307,0-16.917,11.265-16.932,21.732C1853.734,935.126,1850.82,942.321,1851.742,942.3Z" transform="translate(-1825.586 -825.682)" fill="#ffa412"/>
      <path id="Path_12686" data-name="Path 12686" d="M1994.962,1035.734c.008.052.015.1.023.154,10.095-1.461,15.189-4.211,15.149-5.235-.034-.924-.1-3.995-.22-5.314-1.6-18.05-.774-32.09-2.933-42.636C2001.682,989.613,1990.79,1007.711,1994.962,1035.734Z" transform="translate(-1934.756 -915.4)" fill="#e27f2b"/>
      <g id="Group_3614" data-name="Group 3614" transform="translate(31.56 80.567)">
        <path id="Path_12687" data-name="Path 12687" d="M1879.7,1058.2l1.357,4.4,1.348,4.371,58.56-17.187a.712.712,0,0,0,.241-.027.774.774,0,0,0,.226-.108c.738-.51.873-2.377.305-4.481-.03-.117-.064-.233-.1-.352-.685-2.263-1.931-3.936-2.886-3.951a.758.758,0,0,0-.228.029.773.773,0,0,0-.215.1Z" transform="translate(-1878.71 -1040.865)" fill="#e9f3fe"/>
        <path id="Path_12688" data-name="Path 12688" d="M1885.51,1077.164l1.348,4.371,58.56-17.187a.719.719,0,0,0,.241-.027.78.78,0,0,0,.226-.108c.738-.51.873-2.377.305-4.481-2.393,1.753-13.826,9.506-33.339,13.278C1892.68,1076.908,1886.438,1077.152,1885.51,1077.164Z" transform="translate(-1883.159 -1055.43)" fill="#bed4f4"/>
        <path id="Path_12689" data-name="Path 12689" d="M1876.333,1116.648c.979-.282,2.374,1.474,3.115,3.921s.548,4.661-.432,4.943-2.374-1.473-3.115-3.921S1875.353,1116.931,1876.333,1116.648Z" transform="translate(-1875.45 -1099.344)" fill="#afcdfb"/>
      </g>
      <g id="Group_3615" data-name="Group 3615" transform="translate(35.887 77.91)">
        <path id="Path_12690" data-name="Path 12690" d="M1953.219,1030.389l6.9-1.093a.812.812,0,0,1,.228-.073.765.765,0,0,1,.228,0c.947.137,1.956,1.954,2.332,4.286.021.123.039.242.053.362a9.093,9.093,0,0,1-.026,2.752,2.313,2.313,0,0,1-.855,1.636l-.023.015a.774.774,0,0,1-.239.079.738.738,0,0,1-.243,0l-60.362,9.556-.749-4.5-.753-4.539Z" transform="translate(-1898.37 -1029.215)" fill="#e9f3fe"/>
        <path id="Path_12691" data-name="Path 12691" d="M1930.6,1042.774c12.911-.81,19.754-7.47,25.09-12.385l6.9-1.093a.813.813,0,0,1,.228-.073.764.764,0,0,1,.228,0c.948.137,1.957,1.954,2.332,4.286.021.123.039.242.053.362a9.09,9.09,0,0,1-.026,2.752,4.343,4.343,0,0,1-.855,1.636l-.023.015a.771.771,0,0,1-.239.079.738.738,0,0,1-.243,0l-60.362,9.556-.749-4.5C1903.857,1043.506,1910.077,1044.062,1930.6,1042.774Z" transform="translate(-1900.839 -1029.215)" fill="#bed4f4"/>
        <path id="Path_12692" data-name="Path 12692" d="M1895.2,1071.305c1.008-.155,2.155,1.764,2.562,4.285s-.083,4.691-1.091,4.845-2.156-1.764-2.562-4.285S1894.191,1071.46,1895.2,1071.305Z" transform="translate(-1893.966 -1061.7)" fill="#afcdfb"/>
      </g>
      <path id="Path_12693" data-name="Path 12693" d="M1981.836,931.05a62.778,62.778,0,0,0,27.054-10.665c1.3-.945,1.958-1.546,1.958-1.546,7.174-14.716-5.8-40.518-8.177-44.891-2.56-4.717-18.191-6.789-18.191-6.789a81.293,81.293,0,0,1,3.471,16.5c.975,9.339,11.377,27.544,10.95,29.072-.106.385-1.363,1.193-3.2,2.212-5.433,3.018-15.934,7.885-16.572,9.027C1978.282,925.5,1981.836,931.05,1981.836,931.05Z" transform="translate(-1923.241 -826.204)" fill="#d9935c"/>
      <path id="Path_12694" data-name="Path 12694" d="M1930.84,1109.176s-7.822-3.053-9.742-1.8-5.12,3.122-5.12,4.371,4.053,4.579,7.467,5.62,10.1-1.11,10.1-1.11Z" transform="translate(-1874.946 -1011.407)" fill="#d9935c"/>
      <path id="Path_12695" data-name="Path 12695" d="M2005.914,883.661c.975,9.339,11.377,27.544,10.95,29.072-.107.385-1.363,1.193-3.2,2.212a3.289,3.289,0,0,0,.352.006c8.183-.352,11.887,4.065,12.832,5.432,1.3-.945,1.958-1.546,1.958-1.546,7.174-14.716-5.8-40.518-8.177-44.891-2.56-4.717-18.191-6.789-18.191-6.789A81.288,81.288,0,0,1,2005.914,883.661Z" transform="translate(-1941.202 -826.204)" fill="#ffa412"/>
      <path id="Path_12696" data-name="Path 12696" d="M1921.88,758.1s15.046,2.966,16.795-6.205,4.868-14.964-4.664-17.245-12.072.878-13.419,3.8S1918.011,757.094,1921.88,758.1Z" transform="translate(-1877.477 -723.311)" fill="#d9935c"/>
      <path id="Path_12697" data-name="Path 12697" d="M1940.737,741.7s2.909-6.057,5.335-8.747,1.1-16.138-9.373-15.708-14.225,7.746-14.335,9.145,8.38.323,10.7,2.152.11,4.842,2.757,5.917,4.742,1.076,4.3,3.443A5.091,5.091,0,0,0,1940.737,741.7Z" transform="translate(-1879.838 -710.467)" fill="#233862"/>
      <path id="Path_12698" data-name="Path 12698" d="M1926.792,688.1a16.731,16.731,0,0,1,6.925,3.322c.167.139.329.283.484.429l0,0c6.212,5.78,3.733,14.98,3.733,14.98a23.906,23.906,0,0,1-1.4,3.226c-.569.9-8.818-.139-9.244-1.873a10.1,10.1,0,0,0-2.062-3.539s-8.7-.583-9.28-.624c-1.964-.139-7.57-2.042-7.57-2.042C1908.448,701.441,1911.6,684.375,1926.792,688.1Z" transform="translate(-1869.127 -687.566)" fill="#ffa412"/>
      <path id="Path_12699" data-name="Path 12699" d="M1884.734,713.153a30.23,30.23,0,0,1,5.753-.631,23.7,23.7,0,0,0,7.353,3.5c2.3-2.827,8.849-9.639,17.378-11.631l.075-.019c.181.223.284.3.41.447l0,0a1.784,1.784,0,0,1,.124.16c-6.943,1.18-13.542,8.789-15.807,11.637a39.576,39.576,0,0,0,6.715,1s-15.2.277-22.142-3.292A.629.629,0,0,1,1884.734,713.153Z" transform="translate(-1850.628 -700.544)" fill="#e27f2b"/>
      <path id="Path_12700" data-name="Path 12700" d="M1820.111,990.21a4.277,4.277,0,0,0,3.6,3.707c-.1-.216-.181-.423-.256-.614a3.669,3.669,0,0,1-.354-1.428c.092-.905,3.008-3.107,6.4-5.72.28-1.482.962-5.88,0-9.371C1828.324,972.518,1819.791,988.44,1820.111,990.21Z" transform="translate(-1801.479 -910.272)" fill="#e27f2b"/>
      <path id="Path_12701" data-name="Path 12701" d="M2052.1,1071.971s10.453-.833,13.867,5.1a1.691,1.691,0,0,1-2.315,1.39s-8.842-5.9-13.184-5.439A2.353,2.353,0,0,1,2052.1,1071.971Z" transform="translate(-1978.005 -984.28)" fill="#e27f2b"/>
      <path id="Path_12702" data-name="Path 12702" d="M1791.912,1049.968a38.708,38.708,0,0,0-12.25,3.123s-1.516-1.453-.911-2.285S1788.967,1046.98,1791.912,1049.968Z" transform="translate(-1769.683 -966.323)" fill="#e27f2b"/>
    </g>
    <g id="Group_3616" data-name="Group 3616" transform="translate(273.948 501.533)">
      <path id="Path_12703" data-name="Path 12703" d="M812.781,1235.189s-10.731,10.808-11.246,14.883,5.105,10.451,5.105,10.451Z" transform="translate(-800.956 -1214.627)" fill="#4a75cb"/>
      <path id="Path_12704" data-name="Path 12704" d="M869.389,1720.787s.365,5.746,1.5,5.828c.151.011,5.778.011,5.778.011l7.183-.041a2.292,2.292,0,0,0-2.147-2.046c-2.1-.357-5.614-1.8-6.886-4.5C873.484,1717.187,869.389,1720.787,869.389,1720.787Z" transform="translate(-852.975 -1588.062)" fill="#163560"/>
      <path id="Path_12705" data-name="Path 12705" d="M800.935,1720.787s.365,5.746,1.5,5.828c.151.011,5.779.011,5.779.011l7.2-.025a2.337,2.337,0,0,0-2.168-2.061c-2.1-.357-5.614-1.8-6.886-4.5C805.03,1717.187,800.935,1720.787,800.935,1720.787Z" transform="translate(-800.521 -1588.062)" fill="#163560"/>
      <path id="Path_12706" data-name="Path 12706" d="M823.531,1426.926s-1.879,11.723-8.887,32.534-7.963,29.823-7.963,29.823a31.6,31.6,0,0,1-3.9.268,25.248,25.248,0,0,1-3.62-.474s-.064-22.744,3.166-33.208.7-37.728.7-37.728Z" transform="translate(-799.163 -1355.859)" fill="#233862"/>
      <path id="Path_12707" data-name="Path 12707" d="M847.674,1420.957a277.736,277.736,0,0,1-2.867,39.357c-3.133,21.691-2.071,30.9-2.071,30.9s-2.579.451-3.485.48c-.97.031-4.018-.237-4.018-.237s-4.484-21.7-3.2-32.556-6.14-37.255-6.14-37.255Z" transform="translate(-819.647 -1358.033)" fill="#2b478b"/>
      <path id="Path_12708" data-name="Path 12708" d="M856.933,1210.1l3.539,2.557,5.115-1.051c-.071-.455-.408-2.341-.716-4.049-.018-.1-.037-.2-.054-.3-.263-1.454-.491-2.7-.491-2.7l-4.777-2.323-1.781-.866c0,.031.138,1.613.157,1.844A14.605,14.605,0,0,1,856.933,1210.1Z" transform="translate(-843.431 -1188.518)" fill="#ffb27d"/>
      <path id="Path_12709" data-name="Path 12709" d="M863.3,1227.923c-.112-.046-6.958-2.017-7.7-1.778s-1.184,1.644-1.184,1.644l11.2,2.47A5.474,5.474,0,0,0,863.3,1227.923Z" transform="translate(-841.498 -1207.631)" fill="#4a75cb"/>
      <path id="Path_12710" data-name="Path 12710" d="M812.621,1278.173c1.16,5.164,20.471,5.777,25.448,1.089.566-.534.594-3.02.381-6.372-.418-6.549-1.759-16.4-1.811-21.434a38.927,38.927,0,0,0-.824-7.174,57.168,57.168,0,0,0-2.449-8.587s-9.432-2.975-11.2-2.469C813.666,1235.663,811.46,1273.008,812.621,1278.173Z" transform="translate(-809.256 -1213.067)" fill="#739af0"/>
      <path id="Path_12711" data-name="Path 12711" d="M893.234,1307.2c-.418-6.549-1.759-16.4-1.811-21.434a38.91,38.91,0,0,0-.824-7.174l-5.674-.977S879.378,1299.726,893.234,1307.2Z" transform="translate(-864.04 -1247.382)" fill="#4a75cb"/>
      <path id="Path_12712" data-name="Path 12712" d="M901.3,1364.409a1.281,1.281,0,0,0,.425,1.508,2.5,2.5,0,0,1,1.153,2.3c-.186.717-1.968,1.887-2.585,1.7s-1.874-1.133-1.739-1.511-.845-3.319.66-4.451S901.3,1364.409,901.3,1364.409Z" transform="translate(-875.177 -1313.716)" fill="#ffb27d"/>
      <path id="Path_12713" data-name="Path 12713" d="M881.629,1238.439s5.534,1.01,9.943,7.35,7.31,11.053,6.5,13.338-8.216,10.209-9.492,10.209-3.336-.906-3.452-2.943c0,0,5.212-7.622,4.186-8.764-.439-.488-6.767-5.5-7.671-3.236C880.146,1258.139,881.629,1238.439,881.629,1238.439Z" transform="translate(-861.852 -1217.136)" fill="#739af0"/>
      <path id="Path_12714" data-name="Path 12714" d="M862.259,1206.213c1.049,1.958,4.958,3.652,6.588,4.275-.018-.1-.037-.2-.054-.3-.263-1.454-.491-2.7-.491-2.7l-4.777-2.323C862.469,1205.147,861.826,1205.407,862.259,1206.213Z" transform="translate(-847.407 -1191.448)" fill="#fca56b"/>
      <path id="Path_12715" data-name="Path 12715" d="M863.82,1171.156s-8.436.946-8.959-4.189-1.964-8.471,3.4-9.292,6.612,1.036,7.214,2.709S866,1170.777,863.82,1171.156Z" transform="translate(-841.402 -1154.635)" fill="#ffb27d"/>
      <path id="Path_12716" data-name="Path 12716" d="M855.469,1150.246s-1.61,5.564-2.762,5.1-2.2-.852-2.36.886,1.122,4.016-2.632,3.632-7.255-10.669-5.9-12.242C845.738,1143.081,860.912,1144.834,855.469,1150.246Z" transform="translate(-831.62 -1145.023)" fill="#233862"/>
    </g>
    <path id="Path_12717" data-name="Path 12717" d="M491.615,1655.733H383.168c5.223-3.76,23.967-16.875,40.944-23.957,7.036-2.934,13.767-4.832,19.106-4.6C460.152,1627.919,483.887,1648.584,491.615,1655.733Z" transform="translate(-206.448 -1015.678)" fill="#e27f2b"/>
    <path id="Path_12718" data-name="Path 12718" d="M838.386,1147.483l18.577-3.649-1.325-.532s-2.649-7.6-12.076-5.853S838.386,1147.483,838.386,1147.483Z" transform="translate(-554.538 -637.441)" fill="#ffa412"/>
  </g>
</svg>
