<svg xmlns="http://www.w3.org/2000/svg" xmlns:xlink="http://www.w3.org/1999/xlink" width="431.957" height="302.227" viewBox="0 0 431.957 302.227">
  <defs>
    <clipPath id="clip-path">
      <path id="Path_11692" data-name="Path 11692" d="M412.446,464.83a6.469,6.469,0,0,1-6.643,6.283H111.445a6.469,6.469,0,0,1-6.643-6.283V319.219a6.474,6.474,0,0,1,6.643-6.284H405.8a6.474,6.474,0,0,1,6.643,6.284Z" transform="translate(-104.802 -312.935)" fill="none"/>
    </clipPath>
  </defs>
  <g id="Group_2850" data-name="Group 2850" transform="translate(-65.164 -307.21)">
    <g id="Group_2816" data-name="Group 2816" transform="translate(114.871 307.21)">
      <g id="Group_2800" data-name="Group 2800">
        <path id="Rectangle_1208" data-name="Rectangle 1208" d="M6.406,0H315.144a6.4,6.4,0,0,1,6.4,6.4V174.286a6.4,6.4,0,0,1-6.4,6.4H6.4a6.4,6.4,0,0,1-6.4-6.4V6.406A6.406,6.406,0,0,1,6.406,0Z" transform="translate(2.224 2.107)" fill="#707070"/>
        <g id="Group_2799" data-name="Group 2799">
          <path id="Path_11674" data-name="Path 11674" d="M412.843,311.422a7.222,7.222,0,0,1,7.407,7.012V480.889a7.219,7.219,0,0,1-7.407,7.011H110.563a7.216,7.216,0,0,1-7.412-7.011V318.435a7.219,7.219,0,0,1,7.412-7.012h302.28m0-4.212H110.563c-6.539,0-11.86,5.036-11.86,11.225V480.889c0,6.188,5.321,11.222,11.86,11.222h302.28c6.538,0,11.855-5.034,11.855-11.222V318.435c0-6.189-5.318-11.225-11.855-11.225Z" transform="translate(-98.703 -307.21)" fill="#284356"/>
        </g>
      </g>
      <g id="Group_2813" data-name="Group 2813" transform="translate(9.175 8.153)">
        <g id="Group_2812" data-name="Group 2812" clip-path="url(#clip-path)">
          <path id="Path_11675" data-name="Path 11675" d="M412.446,464.83a6.469,6.469,0,0,1-6.643,6.283H111.445a6.469,6.469,0,0,1-6.643-6.283V319.219a6.474,6.474,0,0,1,6.643-6.284H405.8a6.474,6.474,0,0,1,6.643,6.284Z" transform="translate(-104.802 -312.935)" fill="#b9f3ff"/>
          <g id="Group_2810" data-name="Group 2810" transform="translate(-52.097 91.437)">
            <g id="Group_2805" data-name="Group 2805" transform="translate(14.304 54.451)">
              <g id="Group_2803" data-name="Group 2803" transform="translate(47.246)">
                <g id="Group_2801" data-name="Group 2801" transform="translate(271.997)">
                  <rect id="Rectangle_1209" data-name="Rectangle 1209" width="11.971" height="83.789" transform="translate(2.225 2.106)" fill="#9ac9dd"/>
                  <path id="Path_11676" data-name="Path 11676" d="M303.869,419.59v79.579h-7.522V419.59h7.522m4.45-4.211H291.9v88h16.421v-88Z" transform="translate(-291.898 -415.379)" fill="#284356"/>
                </g>
                <g id="Group_2802" data-name="Group 2802">
                  <rect id="Rectangle_1210" data-name="Rectangle 1210" width="11.971" height="83.789" transform="translate(2.225 2.106)" fill="#9ac9dd"/>
                  <path id="Path_11677" data-name="Path 11677" d="M123.057,419.59v79.579h-7.522V419.59h7.522m4.45-4.211H111.086v88h16.421v-88Z" transform="translate(-111.086 -415.379)" fill="#284356"/>
                </g>
              </g>
              <g id="Group_2804" data-name="Group 2804" transform="translate(0 73.242)">
                <path id="Path_11678" data-name="Path 11678" d="M81.158,478.779v-5.52a5.121,5.121,0,0,1,5.25-4.97h363.45a5.12,5.12,0,0,1,5.249,4.97v5.52Z" transform="translate(-78.933 -466.183)" fill="#9ac9dd"/>
                <path id="Path_11679" data-name="Path 11679" d="M450.6,471.022a2.947,2.947,0,0,1,3.025,2.864V477.3H84.129v-3.415a2.95,2.95,0,0,1,3.025-2.864H450.6m0-4.212H87.154a7.293,7.293,0,0,0-7.475,7.076v7.626h378.4v-7.626a7.291,7.291,0,0,0-7.473-7.076Z" transform="translate(-79.679 -466.81)" fill="#284356"/>
              </g>
            </g>
            <g id="Group_2809" data-name="Group 2809" transform="translate(16.344 18.519)">
              <g id="Group_2808" data-name="Group 2808">
                <path id="Path_11680" data-name="Path 11680" d="M446.591,418.405c0,11.951-10.238,21.645-22.865,21.645H110.511c-12.629,0-22.87-9.694-22.87-21.645s10.241-21.65,22.87-21.65H423.726C436.353,396.755,446.591,406.447,446.591,418.405Z" transform="translate(-77.704 -387.345)" fill="#284356"/>
                <g id="Group_2807" data-name="Group 2807">
                  <g id="Group_2806" data-name="Group 2806" transform="translate(2.225 2.106)">
                    <path id="Path_11681" data-name="Path 11681" d="M113.1,449.529c-16.863,0-30.583-12.986-30.583-28.949s13.719-28.954,30.583-28.954H426.311c16.865,0,30.584,12.989,30.584,28.954s-13.719,28.949-30.584,28.949Zm0-43.295c-8.356,0-15.156,6.435-15.156,14.346s6.8,14.339,15.156,14.339H426.311c8.353,0,15.15-6.433,15.15-14.339s-6.8-14.346-15.15-14.346Z" transform="translate(-82.514 -391.626)" fill="#9ac9dd"/>
                  </g>
                  <path id="Path_11682" data-name="Path 11682" d="M427.057,394.359c15.637,0,28.361,12.042,28.361,26.848s-12.723,26.844-28.361,26.844H113.842c-15.636,0-28.358-12.043-28.358-26.844s12.722-26.848,28.358-26.848H427.057M113.842,437.653H427.057c9.582,0,17.375-7.378,17.375-16.445s-7.792-16.451-17.375-16.451H113.842c-9.584,0-17.381,7.38-17.381,16.451s7.8,16.445,17.381,16.445m313.215-47.506H113.842c-18.089,0-32.807,13.933-32.807,31.06s14.718,31.055,32.807,31.055H427.057c18.091,0,32.809-13.932,32.809-31.055s-14.718-31.06-32.809-31.06ZM113.842,433.44c-7.13,0-12.931-5.488-12.931-12.233s5.8-12.24,12.931-12.24H427.057c7.127,0,12.925,5.491,12.925,12.24s-5.8,12.233-12.925,12.233Z" transform="translate(-81.035 -390.147)" fill="#284356"/>
                </g>
              </g>
              <path id="Path_11683" data-name="Path 11683" d="M329.465,415.893c0,7.3-6.249,13.213-13.955,13.213s-13.955-5.917-13.955-13.213,6.247-13.214,13.955-13.214S329.465,408.592,329.465,415.893Z" transform="translate(30.174 -384.833)" fill="#9ac9dd" stroke="#284356" stroke-miterlimit="10" stroke-width="2.957"/>
              <path id="Path_11684" data-name="Path 11684" d="M122.185,415.893c0,7.3-6.249,13.213-13.958,13.213s-13.954-5.917-13.954-13.213,6.246-13.214,13.954-13.214S122.185,408.592,122.185,415.893Z" transform="translate(-74.359 -384.833)" fill="#9ac9dd" stroke="#284356" stroke-miterlimit="10" stroke-width="2.957"/>
              <path id="Path_11685" data-name="Path 11685" d="M191.276,415.893c0,7.3-6.246,13.213-13.954,13.213s-13.954-5.917-13.954-13.213,6.243-13.214,13.954-13.214S191.276,408.592,191.276,415.893Z" transform="translate(-39.514 -384.833)" fill="#9ac9dd" stroke="#284356" stroke-miterlimit="10" stroke-width="2.957"/>
              <path id="Path_11686" data-name="Path 11686" d="M225.823,415.893c0,7.3-6.247,13.213-13.954,13.213s-13.955-5.917-13.955-13.213,6.246-13.214,13.955-13.214S225.823,408.592,225.823,415.893Z" transform="translate(-22.092 -384.833)" fill="#9ac9dd" stroke="#284356" stroke-miterlimit="10" stroke-width="2.957"/>
              <path id="Path_11687" data-name="Path 11687" d="M260.372,415.893c0,7.3-6.247,13.213-13.957,13.213s-13.955-5.917-13.955-13.213,6.249-13.214,13.955-13.214S260.372,408.592,260.372,415.893Z" transform="translate(-4.67 -384.833)" fill="#9ac9dd" stroke="#284356" stroke-miterlimit="10" stroke-width="2.957"/>
              <path id="Path_11688" data-name="Path 11688" d="M294.917,415.893c0,7.3-6.241,13.213-13.956,13.213s-13.957-5.917-13.957-13.213,6.252-13.214,13.957-13.214S294.917,408.592,294.917,415.893Z" transform="translate(12.751 -384.833)" fill="#9ac9dd" stroke="#284356" stroke-miterlimit="10" stroke-width="2.957"/>
              <path id="Path_11689" data-name="Path 11689" d="M156.731,415.893c0,7.3-6.246,13.213-13.957,13.213s-13.954-5.917-13.954-13.213,6.25-13.214,13.954-13.214S156.731,408.592,156.731,415.893Z" transform="translate(-56.937 -384.833)" fill="#9ac9dd" stroke="#284356" stroke-miterlimit="10" stroke-width="2.957"/>
            </g>
            <line id="Line_295" data-name="Line 295" x1="406.499" transform="translate(0 140.796)" fill="#737987" stroke="#284356" stroke-linecap="round" stroke-linejoin="round" stroke-width="2.957"/>
            <rect id="Rectangle_1211" data-name="Rectangle 1211" width="45.698" height="18.703" transform="translate(77.055)" fill="#fbb323" stroke="#284356" stroke-linecap="round" stroke-linejoin="round" stroke-width="1.479"/>
            <rect id="Rectangle_1212" data-name="Rectangle 1212" width="45.699" height="18.703" transform="translate(222)" fill="#fbb323" stroke="#284356" stroke-linecap="round" stroke-linejoin="round" stroke-width="1.479"/>
            <rect id="Rectangle_1213" data-name="Rectangle 1213" width="45.697" height="18.703" transform="translate(149.529)" fill="#fbb323" stroke="#284356" stroke-linecap="round" stroke-linejoin="round" stroke-width="1.479"/>
            <rect id="Rectangle_1214" data-name="Rectangle 1214" width="45.699" height="18.703" transform="translate(294.472)" fill="#fbb323" stroke="#284356" stroke-linecap="round" stroke-linejoin="round" stroke-width="1.479"/>
          </g>
          <g id="Group_2811" data-name="Group 2811" transform="translate(0 7.757)" opacity="0.2" style="mix-blend-mode: hard-light;isolation: isolate">
            <path id="Path_11690" data-name="Path 11690" d="M405.392,361.309V377.6l-239.669,73H118.79Z" transform="translate(-97.748 -300.178)" fill="#fff"/>
            <path id="Path_11691" data-name="Path 11691" d="M412.446,318.382v48.656L104.8,462.367V409.819Z" transform="translate(-104.802 -318.382)" fill="#fff"/>
          </g>
        </g>
      </g>
      <g id="Group_2814" data-name="Group 2814" transform="translate(9.175 8.153)">
        <path id="Path_11693" data-name="Path 11693" d="M405.8,317.147A2.139,2.139,0,0,1,408,319.219V464.83A2.138,2.138,0,0,1,405.8,466.9H111.445a2.137,2.137,0,0,1-2.193-2.071V319.219a2.138,2.138,0,0,1,2.193-2.072H405.8m0-4.212H111.445a6.474,6.474,0,0,0-6.643,6.284V464.83a6.469,6.469,0,0,0,6.643,6.283H405.8a6.469,6.469,0,0,0,6.643-6.283V319.219a6.474,6.474,0,0,0-6.643-6.284Z" transform="translate(-104.802 -312.935)" fill="#284356"/>
      </g>
      <g id="Group_2815" data-name="Group 2815" transform="translate(154.847 165.401)">
        <path id="Path_11694" data-name="Path 11694" d="M209.046,436.057a5.619,5.619,0,1,1,5.921-5.612A5.783,5.783,0,0,1,209.046,436.057Z" transform="translate(-200.893 -422.729)" fill="#868686"/>
        <path id="Path_11695" data-name="Path 11695" d="M209.792,427.568a3.51,3.51,0,1,1-3.705,3.5,3.6,3.6,0,0,1,3.705-3.5m0-4.212a7.728,7.728,0,1,0,8.146,7.716,7.953,7.953,0,0,0-8.146-7.716Z" transform="translate(-201.639 -423.356)" fill="#424242"/>
      </g>
    </g>
    <g id="Group_2820" data-name="Group 2820" transform="translate(154.358 502.498)">
      <path id="Path_11696" data-name="Path 11696" d="M124.952,476.694h25.575V456.147a7.513,7.513,0,0,0-7.711-7.3H124.952Z" transform="translate(-124.952 -442.432)" fill="#798290" stroke="#284356" stroke-miterlimit="10" stroke-width="2.957"/>
      <g id="Group_2817" data-name="Group 2817" transform="translate(11.249 26.928)">
        <path id="Path_11697" data-name="Path 11697" d="M132.43,465.169a1.973,1.973,0,0,0,2.025,1.915h7.38a1.919,1.919,0,1,0,0-3.832h-7.38A1.973,1.973,0,0,0,132.43,465.169Z" transform="translate(-132.43 -463.252)" fill="#34495a"/>
        <path id="Path_11698" data-name="Path 11698" d="M134.5,465.169a1.973,1.973,0,0,1,2.026-1.917h4.262a1.919,1.919,0,1,1,0,3.832h-4.262A1.973,1.973,0,0,1,134.5,465.169Z" transform="translate(-131.385 -463.252)" fill="#f9dac7"/>
      </g>
      <path id="Path_11699" data-name="Path 11699" d="M130.262,467.084a1.919,1.919,0,1,0-2.029-1.915A1.972,1.972,0,0,0,130.262,467.084Z" transform="translate(-123.297 -436.325)" fill="#f05e2f"/>
      <g id="Group_2819" data-name="Group 2819" transform="translate(8.99)">
        <g id="Group_2818" data-name="Group 2818" transform="translate(8.643)">
          <path id="Path_11757" data-name="Path 11757" d="M0,0,28.717.3,28.8,7.754.082,7.454Z" transform="matrix(0.98, -0.2, 0.2, 0.98, 0, 11.306)" fill="#3d566d" stroke="#284356" stroke-width="1.479"/>
          <path id="Path_11700" data-name="Path 11700" d="M155.055,454.123a5.091,5.091,0,0,0,6.008,3.764l20.719-3.995a4.839,4.839,0,0,0,3.976-5.689,5.1,5.1,0,0,0-6.01-3.762l-20.719,4A4.833,4.833,0,0,0,155.055,454.123Z" transform="translate(-127.456 -444.343)" fill="#f05e2f" stroke="#284356" stroke-miterlimit="10" stroke-width="1.479"/>
        </g>
        <path id="Path_11701" data-name="Path 11701" d="M132.131,453.459a6.644,6.644,0,0,0,2.043,9.507,7.5,7.5,0,0,0,10.044-1.94,6.636,6.636,0,0,0-2.047-9.5A7.5,7.5,0,0,0,132.131,453.459Z" transform="translate(-130.928 -441.782)" fill="#798290" stroke="#284356" stroke-miterlimit="10" stroke-width="1.479"/>
      </g>
    </g>
    <g id="Group_2823" data-name="Group 2823" transform="translate(133.955 565.246)">
      <g id="Group_2821" data-name="Group 2821" transform="translate(293.821)">
        <rect id="Rectangle_1216" data-name="Rectangle 1216" width="9.449" height="39.98" transform="translate(2.225 2.106)" fill="#9ac9dd"/>
        <path id="Path_11702" data-name="Path 11702" d="M316.159,492.616v35.768h-5V492.616h5m4.448-4.211h-13.9V532.6h13.9v-44.19Z" transform="translate(-306.709 -488.405)" fill="#284356"/>
      </g>
      <g id="Group_2822" data-name="Group 2822">
        <rect id="Rectangle_1217" data-name="Rectangle 1217" width="9.449" height="39.98" transform="translate(2.225 2.106)" fill="#9ac9dd"/>
        <path id="Path_11703" data-name="Path 11703" d="M120.839,492.616v35.768h-5V492.616h5m4.448-4.211h-13.9V532.6h13.9v-44.19Z" transform="translate(-111.389 -488.405)" fill="#284356"/>
      </g>
    </g>
    <g id="Group_2834" data-name="Group 2834" transform="translate(66.643 536.76)">
      <path id="Rectangle_1218" data-name="Rectangle 1218" d="M5.036,0H423.961A5.039,5.039,0,0,1,429,5.039V39.914a5.039,5.039,0,0,1-5.039,5.039H5.039A5.039,5.039,0,0,1,0,39.914V5.036A5.036,5.036,0,0,1,5.036,0Z" fill="#798290" stroke="#284356" stroke-miterlimit="10" stroke-width="2.957"/>
      <g id="Group_2833" data-name="Group 2833" transform="translate(17.546 8.758)">
        <g id="Group_2824" data-name="Group 2824" transform="translate(101.425 21.125)">
          <path id="Path_11704" data-name="Path 11704" d="M164.552,492.546a3.249,3.249,0,0,1-3.337,3.156h-12.15a3.163,3.163,0,1,1,0-6.316h12.15A3.251,3.251,0,0,1,164.552,492.546Z" transform="translate(-145.729 -489.386)" fill="#34495a"/>
          <path id="Path_11705" data-name="Path 11705" d="M159.42,492.546a3.253,3.253,0,0,0-3.338-3.16h-7.016a3.163,3.163,0,1,0,0,6.316h7.016A3.25,3.25,0,0,0,159.42,492.546Z" transform="translate(-145.729 -489.386)" fill="#f9dac7"/>
        </g>
        <g id="Group_2825" data-name="Group 2825" transform="translate(249.569)">
          <path id="Path_11706" data-name="Path 11706" d="M247.547,488.11a3.163,3.163,0,1,1,3.338-3.16A3.251,3.251,0,0,1,247.547,488.11Z" transform="translate(-244.209 -471.481)" fill="#61bae9"/>
          <path id="Path_11707" data-name="Path 11707" d="M247.547,480.869a3.163,3.163,0,1,1,3.338-3.157A3.25,3.25,0,0,1,247.547,480.869Z" transform="translate(-244.209 -474.552)" fill="#28bbb5"/>
          <path id="Path_11708" data-name="Path 11708" d="M247.547,495.354a3.163,3.163,0,1,1,3.338-3.159A3.254,3.254,0,0,1,247.547,495.354Z" transform="translate(-244.209 -468.409)" fill="#f05e2f"/>
        </g>
        <g id="Group_2826" data-name="Group 2826" transform="translate(261.901)">
          <path id="Path_11709" data-name="Path 11709" d="M255.745,488.11a3.163,3.163,0,1,1,3.338-3.16A3.252,3.252,0,0,1,255.745,488.11Z" transform="translate(-252.407 -471.481)" fill="#28bbb5"/>
          <path id="Path_11710" data-name="Path 11710" d="M255.745,480.869a3.163,3.163,0,1,1,3.338-3.157A3.251,3.251,0,0,1,255.745,480.869Z" transform="translate(-252.407 -474.552)" fill="#9ac9dd"/>
          <path id="Path_11711" data-name="Path 11711" d="M255.745,495.354a3.163,3.163,0,1,1,3.338-3.159A3.255,3.255,0,0,1,255.745,495.354Z" transform="translate(-252.407 -468.409)" fill="#f9dac7"/>
        </g>
        <g id="Group_2827" data-name="Group 2827" transform="translate(274.235)">
          <path id="Path_11712" data-name="Path 11712" d="M263.944,488.11a3.163,3.163,0,1,1,3.338-3.16A3.252,3.252,0,0,1,263.944,488.11Z" transform="translate(-260.606 -471.481)" fill="#f05e2f"/>
          <path id="Path_11713" data-name="Path 11713" d="M263.944,480.869a3.163,3.163,0,1,1,3.338-3.157A3.251,3.251,0,0,1,263.944,480.869Z" transform="translate(-260.606 -474.552)" fill="#61bae9"/>
          <path id="Path_11714" data-name="Path 11714" d="M263.944,495.354a3.163,3.163,0,1,1,3.338-3.159A3.255,3.255,0,0,1,263.944,495.354Z" transform="translate(-260.606 -468.409)" fill="#fbb323"/>
        </g>
        <g id="Group_2828" data-name="Group 2828" transform="translate(286.57)">
          <path id="Path_11715" data-name="Path 11715" d="M272.143,488.11a3.163,3.163,0,1,1,3.338-3.16A3.249,3.249,0,0,1,272.143,488.11Z" transform="translate(-268.806 -471.481)" fill="#9ac9dd"/>
          <path id="Path_11716" data-name="Path 11716" d="M272.143,480.869a3.163,3.163,0,1,1,3.338-3.157A3.248,3.248,0,0,1,272.143,480.869Z" transform="translate(-268.806 -474.552)" fill="#fbb323"/>
          <path id="Path_11717" data-name="Path 11717" d="M272.143,495.354a3.163,3.163,0,1,1,3.338-3.159A3.252,3.252,0,0,1,272.143,495.354Z" transform="translate(-268.806 -468.409)" fill="#f9dac7"/>
        </g>
        <g id="Group_2829" data-name="Group 2829" transform="translate(298.901)">
          <path id="Path_11718" data-name="Path 11718" d="M280.343,488.11a3.163,3.163,0,1,1,3.337-3.16A3.253,3.253,0,0,1,280.343,488.11Z" transform="translate(-277.003 -471.481)" fill="#28bbb5"/>
          <path id="Path_11719" data-name="Path 11719" d="M280.343,480.869a3.163,3.163,0,1,1,3.337-3.157A3.253,3.253,0,0,1,280.343,480.869Z" transform="translate(-277.003 -474.552)" fill="#61bae9"/>
          <path id="Path_11720" data-name="Path 11720" d="M280.343,495.354a3.163,3.163,0,1,1,3.337-3.159A3.257,3.257,0,0,1,280.343,495.354Z" transform="translate(-277.003 -468.409)" fill="#9ac9dd"/>
        </g>
        <g id="Group_2830" data-name="Group 2830" transform="translate(311.238)">
          <path id="Path_11721" data-name="Path 11721" d="M288.539,488.11a3.163,3.163,0,1,1,3.34-3.16A3.249,3.249,0,0,1,288.539,488.11Z" transform="translate(-285.204 -471.481)" fill="#fbb323"/>
          <path id="Path_11722" data-name="Path 11722" d="M288.539,480.869a3.164,3.164,0,1,1,3.34-3.157A3.249,3.249,0,0,1,288.539,480.869Z" transform="translate(-285.204 -474.552)" fill="#f9dac7"/>
          <path id="Path_11723" data-name="Path 11723" d="M288.539,495.354a3.164,3.164,0,1,1,3.34-3.159A3.253,3.253,0,0,1,288.539,495.354Z" transform="translate(-285.204 -468.409)" fill="#61bae9"/>
        </g>
        <g id="Group_2831" data-name="Group 2831" transform="translate(0 0.069)">
          <rect id="Rectangle_1219" data-name="Rectangle 1219" width="19.675" height="27.005" fill="#3e4b54"/>
          <rect id="Rectangle_1220" data-name="Rectangle 1220" width="16.557" height="3.225" transform="translate(1.56 22.614)" fill="#3e4b54" style="mix-blend-mode: multiply;isolation: isolate"/>
          <rect id="Rectangle_1221" data-name="Rectangle 1221" width="16.557" height="3.226" transform="translate(1.56 1.464)" fill="#3e4b54" style="mix-blend-mode: multiply;isolation: isolate"/>
          <rect id="Rectangle_1222" data-name="Rectangle 1222" width="16.557" height="3.224" transform="translate(1.56 6.753)" fill="#3e4b54" style="mix-blend-mode: multiply;isolation: isolate"/>
          <rect id="Rectangle_1223" data-name="Rectangle 1223" width="16.557" height="3.225" transform="translate(1.56 12.039)" fill="#3e4b54" style="mix-blend-mode: multiply;isolation: isolate"/>
          <rect id="Rectangle_1224" data-name="Rectangle 1224" width="16.557" height="3.225" transform="translate(1.56 17.328)" fill="#3e4b54" style="mix-blend-mode: multiply;isolation: isolate"/>
        </g>
        <rect id="Rectangle_1225" data-name="Rectangle 1225" width="19.673" height="6.446" transform="translate(77.39 20.628)" fill="#3e4b54"/>
        <rect id="Rectangle_1226" data-name="Rectangle 1226" width="19.674" height="6.446" transform="translate(51.593 20.628)" fill="#3e4b54"/>
        <g id="Group_2832" data-name="Group 2832" transform="translate(25.796 0.069)">
          <rect id="Rectangle_1227" data-name="Rectangle 1227" width="19.673" height="27.005" fill="#3e4b54"/>
          <rect id="Rectangle_1228" data-name="Rectangle 1228" width="16.557" height="3.225" transform="translate(1.559 22.614)" fill="#3e4b54" style="mix-blend-mode: multiply;isolation: isolate"/>
          <rect id="Rectangle_1229" data-name="Rectangle 1229" width="16.557" height="3.226" transform="translate(1.559 1.464)" fill="#3e4b54" style="mix-blend-mode: multiply;isolation: isolate"/>
          <rect id="Rectangle_1230" data-name="Rectangle 1230" width="16.557" height="3.224" transform="translate(1.559 6.753)" fill="#3e4b54" style="mix-blend-mode: multiply;isolation: isolate"/>
          <rect id="Rectangle_1231" data-name="Rectangle 1231" width="16.557" height="3.225" transform="translate(1.559 12.039)" fill="#3e4b54" style="mix-blend-mode: multiply;isolation: isolate"/>
          <rect id="Rectangle_1232" data-name="Rectangle 1232" width="16.557" height="3.225" transform="translate(1.559 17.328)" fill="#3e4b54" style="mix-blend-mode: multiply;isolation: isolate"/>
        </g>
      </g>
    </g>
    <g id="Group_2835" data-name="Group 2835" transform="translate(436.707 506.115)">
      <path id="Path_11724" data-name="Path 11724" d="M317.312,470.7V458.387c0-6.353,5.441-11.5,12.153-11.5s12.15,5.151,12.15,11.5V470.7Z" transform="translate(-310.293 -446.883)" fill="#f05e2f" stroke="#284356" stroke-miterlimit="10" stroke-width="1.479"/>
      <path id="Path_11725" data-name="Path 11725" d="M326.691,451.436a3.47,3.47,0,0,1,0,5.1,3.957,3.957,0,0,1-5.385,0,3.468,3.468,0,0,1,0-5.1A3.963,3.963,0,0,1,326.691,451.436Z" transform="translate(-308.841 -445.399)" fill="#f98582"/>
      <path id="Path_11726" data-name="Path 11726" d="M312.646,469.989a6.786,6.786,0,0,1,6.962-6.589h24.418a6.784,6.784,0,0,1,6.963,6.589H312.646Z" transform="translate(-312.646 -439.879)" fill="#9ac9dd" stroke="#284356" stroke-miterlimit="10" stroke-width="2.957"/>
    </g>
    <g id="Group_2837" data-name="Group 2837" transform="translate(185.029 543.587)">
      <g id="Group_2836" data-name="Group 2836">
        <path id="Path_11727" data-name="Path 11727" d="M165.329,482.659a10.009,10.009,0,1,1-9.993-9.463A9.737,9.737,0,0,1,165.329,482.659Z" transform="translate(-145.341 -473.196)" fill="#546674"/>
        <path id="Path_11728" data-name="Path 11728" d="M163.4,482.251a8.56,8.56,0,1,1-8.547-8.094A8.33,8.33,0,0,1,163.4,482.251Z" transform="translate(-144.856 -472.789)" fill="#d0d4d7"/>
        <path id="Path_11729" data-name="Path 11729" d="M155.735,475.043a8.328,8.328,0,0,0-8.547,8.092,7.787,7.787,0,0,0,1.877,5.055,8.8,8.8,0,0,0,5.339,1.777,8.33,8.33,0,0,0,8.547-8.092,7.786,7.786,0,0,0-1.876-5.055A8.809,8.809,0,0,0,155.735,475.043Z" transform="translate(-144.41 -472.413)" fill="#edeeef"/>
        <path id="Path_11730" data-name="Path 11730" d="M153.186,480.1a.9.9,0,1,1-.9-.853A.877.877,0,0,1,153.186,480.1Z" transform="translate(-142.292 -470.632)" fill="#3a4851"/>
        <path id="Path_11731" data-name="Path 11731" d="M148.59,485.309a.223.223,0,0,1-.3,0,.2.2,0,0,1,0-.286l5.655-5.354.305.288Z" transform="translate(-143.887 -470.451)" fill="#3a4851"/>
        <path id="Path_11732" data-name="Path 11732" d="M151.653,481.9a.87.87,0,0,1-1.178-.087.759.759,0,0,1,.09-1.112.866.866,0,0,1,1.178.084A.763.763,0,0,1,151.653,481.9Z" transform="translate(-142.853 -470.094)" fill="#3a4851"/>
      </g>
    </g>
    <g id="Group_2839" data-name="Group 2839" transform="translate(160.327 543.587)">
      <g id="Group_2838" data-name="Group 2838">
        <path id="Path_11733" data-name="Path 11733" d="M138.915,492.118a9.475,9.475,0,1,1,9.993-9.459A9.741,9.741,0,0,1,138.915,492.118Z" transform="translate(-128.92 -473.196)" fill="#546674"/>
        <path id="Path_11734" data-name="Path 11734" d="M146.977,482.251a8.56,8.56,0,1,1-8.547-8.094A8.33,8.33,0,0,1,146.977,482.251Z" transform="translate(-128.435 -472.789)" fill="#d0d4d7"/>
        <path id="Path_11735" data-name="Path 11735" d="M139.314,475.043a8.328,8.328,0,0,0-8.546,8.092,7.778,7.778,0,0,0,1.876,5.055,8.8,8.8,0,0,0,5.339,1.777,8.33,8.33,0,0,0,8.547-8.092,7.786,7.786,0,0,0-1.876-5.055A8.809,8.809,0,0,0,139.314,475.043Z" transform="translate(-127.988 -472.413)" fill="#edeeef"/>
        <path id="Path_11736" data-name="Path 11736" d="M135.866,480.947a.853.853,0,1,1,.9-.852A.876.876,0,0,1,135.866,480.947Z" transform="translate(-125.871 -470.632)" fill="#3a4851"/>
        <path id="Path_11737" data-name="Path 11737" d="M131.8,476.427a.2.2,0,0,1,0-.291.227.227,0,0,1,.3,0l5.655,5.356-.3.288Z" transform="translate(-127.501 -471.974)" fill="#3a4851"/>
        <path id="Path_11738" data-name="Path 11738" d="M133.987,479.435a.757.757,0,0,1,.089-1.112.867.867,0,0,1,1.178.081.763.763,0,0,1-.092,1.115A.865.865,0,0,1,133.987,479.435Z" transform="translate(-126.467 -471.104)" fill="#3a4851"/>
      </g>
    </g>
    <g id="Group_2841" data-name="Group 2841" transform="translate(135.626 543.587)">
      <g id="Group_2840" data-name="Group 2840">
        <path id="Path_11739" data-name="Path 11739" d="M112.5,482.656a10.009,10.009,0,1,1,9.993,9.462A9.74,9.74,0,0,1,112.5,482.656Z" transform="translate(-112.5 -473.196)" fill="#546674"/>
        <path id="Path_11740" data-name="Path 11740" d="M130.556,482.251a8.56,8.56,0,1,1-8.547-8.094A8.33,8.33,0,0,1,130.556,482.251Z" transform="translate(-112.015 -472.789)" fill="#d0d4d7"/>
        <path id="Path_11741" data-name="Path 11741" d="M122.893,475.043a8.328,8.328,0,0,0-8.546,8.092,7.794,7.794,0,0,0,1.876,5.055,8.805,8.805,0,0,0,5.339,1.777,8.33,8.33,0,0,0,8.547-8.092,7.786,7.786,0,0,0-1.876-5.055A8.806,8.806,0,0,0,122.893,475.043Z" transform="translate(-111.569 -472.413)" fill="#edeeef"/>
        <path id="Path_11742" data-name="Path 11742" d="M118.545,480.092a.9.9,0,1,1,.9.854A.877.877,0,0,1,118.545,480.092Z" transform="translate(-109.451 -470.632)" fill="#3a4851"/>
        <path id="Path_11743" data-name="Path 11743" d="M124.557,476.07a.223.223,0,0,1,.3,0,.193.193,0,0,1,0,.285l-5.655,5.356-.305-.289Z" transform="translate(-109.272 -472.003)" fill="#3a4851"/>
        <path id="Path_11744" data-name="Path 11744" d="M120.035,478.249a.87.87,0,0,1,1.178.088.758.758,0,0,1-.09,1.112.868.868,0,0,1-1.178-.084A.764.764,0,0,1,120.035,478.249Z" transform="translate(-108.847 -471.133)" fill="#3a4851"/>
      </g>
    </g>
    <g id="Group_2843" data-name="Group 2843" transform="translate(406.593 543.812)">
      <g id="Group_2842" data-name="Group 2842" transform="translate(0 9.279)">
        <rect id="Rectangle_1233" data-name="Rectangle 1233" width="6.858" height="22.075" fill="#3e4b54"/>
        <rect id="Rectangle_1234" data-name="Rectangle 1234" width="6.855" height="22.075" transform="translate(27.258)" fill="#3e4b54"/>
      </g>
      <path id="Path_11745" data-name="Path 11745" d="M294.68,497.178V476.244a1.418,1.418,0,0,1,1.456-1.38H320.82a1.418,1.418,0,0,1,1.456,1.38v20.934" transform="translate(-291.592 -472.714)" fill="none" stroke="#9ac9dd" stroke-linecap="round" stroke-linejoin="round" stroke-width="2.957"/>
      <path id="Rectangle_1235" data-name="Rectangle 1235" d="M.969,0H21.657a.969.969,0,0,1,.969.969V4.76a.968.968,0,0,1-.968.968H.968A.968.968,0,0,1,0,4.76V.969A.969.969,0,0,1,.969,0Z" transform="translate(5.573)" fill="#f05e2f" stroke="#284356" stroke-miterlimit="10" stroke-width="1.479"/>
    </g>
    <g id="Group_2845" data-name="Group 2845" transform="translate(450.207 543.812)">
      <g id="Group_2844" data-name="Group 2844" transform="translate(0 9.279)">
        <rect id="Rectangle_1236" data-name="Rectangle 1236" width="6.855" height="22.075" fill="#3e4b54"/>
        <rect id="Rectangle_1237" data-name="Rectangle 1237" width="6.858" height="22.075" transform="translate(27.256)" fill="#3e4b54"/>
      </g>
      <path id="Path_11746" data-name="Path 11746" d="M323.671,497.178V476.244a1.421,1.421,0,0,1,1.459-1.38h24.683a1.419,1.419,0,0,1,1.458,1.38v20.934" transform="translate(-320.586 -472.714)" fill="none" stroke="#9ac9dd" stroke-linecap="round" stroke-linejoin="round" stroke-width="2.957"/>
      <path id="Rectangle_1238" data-name="Rectangle 1238" d="M.969,0h20.69a.969.969,0,0,1,.969.969V4.758a.971.971,0,0,1-.971.971H.969A.969.969,0,0,1,0,4.76V.969A.969.969,0,0,1,.969,0Z" transform="translate(5.571)" fill="#f05e2f" stroke="#284356" stroke-miterlimit="10" stroke-width="1.479"/>
    </g>
    <g id="Group_2849" data-name="Group 2849" transform="translate(224.495 434.693)">
      <g id="Group_2846" data-name="Group 2846" transform="translate(0 84.892)">
        <path id="Path_11747" data-name="Path 11747" d="M259.854,538.459l2.046-6.145,3.714-11.153c13.649.5,25.041-4.929,18.429-22.919-1.212-3.305-4.189-12.465-7.934-21.132-6.422-15.354-15.755-18.513-19.052-19.508-7.26-.936-18.083-1.259-28.281-1.259s-21.021.323-28.281,1.259c-3.3,1-12.632,4.154-19.052,19.508-3.746,8.667-6.721,17.827-7.935,21.132-6.611,17.99,4.782,23.415,18.429,22.919l3.716,11.153,2.046,6.145Z" transform="translate(-171.576 -456.342)" fill="#9ac9dd" stroke="#284356" stroke-linejoin="round" stroke-width="1.479"/>
      </g>
      <g id="Group_2847" data-name="Group 2847" transform="translate(26.198)">
        <path id="Path_11748" data-name="Path 11748" d="M227.14,434v32.653s-4.555,2.936-14.668,2.556a21.28,21.28,0,0,1-11.46-3.6l.423-28.8Z" transform="translate(-182.93 -380.923)" fill="#f4cfb3" stroke="#284356" stroke-miterlimit="10" stroke-width="1.479"/>
        <path id="Path_11749" data-name="Path 11749" d="M225.452,425.436s2.153-4.06,5.435-2.746c3.343,1.344,2.39,8.129-.382,14.578s-6.69,5.971-6.69,5.971a42.692,42.692,0,0,0,1.134-9.437C225.055,431.652,225.452,425.436,225.452,425.436Z" transform="translate(-171.43 -385.832)" fill="#f4cfb3" stroke="#284356" stroke-miterlimit="10" stroke-width="1.479"/>
        <path id="Path_11750" data-name="Path 11750" d="M196.834,424.5c0-1.474-2.023-4.422-5.82-2.149-3.073,1.837-2.4,8.126.375,14.574s6.19,5.736,6.19,5.736S196.834,432.267,196.834,424.5Z" transform="translate(-188.992 -386.216)" fill="#f4cfb3" stroke="#284356" stroke-miterlimit="10" stroke-width="1.479"/>
        <path id="Path_11751" data-name="Path 11751" d="M206.48,463.385a9.72,9.72,0,0,1-9.763-7.59c-1.871-10.035-4.924-27.473-5.321-36.338-.754-17.023,17.274-16.262,23.63-17.238,12.735-1.958,17,1.324,18.038,1.636,8.868,2.609,15.9,8.983,12.5,22.5-2.017,8-3.547,19.582-5.035,29.339a9.378,9.378,0,0,1-9.45,7.691Z" transform="translate(-187.791 -394.665)" fill="#284356" stroke="#284356" stroke-linecap="round" stroke-linejoin="round" stroke-width="1.479"/>
        <path id="Path_11752" data-name="Path 11752" d="M219.278,396.73c-15.982,0-28.94,12.261-28.94,27.391v5.09a2.04,2.04,0,0,0,2.092,1.979h53.693a2.04,2.04,0,0,0,2.094-1.979v-5.09C248.218,408.991,235.263,396.73,219.278,396.73Z" transform="translate(-188.313 -396.73)" fill="#fbb323" stroke="#284356" stroke-miterlimit="10" stroke-width="1.479"/>
        <path id="Path_11753" data-name="Path 11753" d="M237.066,459.624s-11.522,4.9-20.847,4.9-19.16-4.9-19.16-4.9l1.831-8.171s10.875,2.049,17.764,2.159,17.879-2.159,17.879-2.159Z" transform="translate(-184.924 -373.523)" fill="#fff" stroke="#284356" stroke-miterlimit="10" stroke-width="1.479"/>
      </g>
      <g id="Group_2848" data-name="Group 2848" transform="translate(18.409 138.894)">
        <path id="Path_11754" data-name="Path 11754" d="M183.814,525.9V503.678a9.69,9.69,0,0,1,9.943-9.415h56.159a9.692,9.692,0,0,1,9.943,9.415V525.9Z" transform="translate(-183.814 -494.263)" fill="#28bbb5" stroke="#284356" stroke-miterlimit="10" stroke-width="2.957"/>
        <path id="Path_11755" data-name="Path 11755" d="M249.916,494.263H193.757a9.69,9.69,0,0,0-9.943,9.415v12.9a9.686,9.686,0,0,1,9.943-9.415h56.159a9.689,9.689,0,0,1,9.943,9.415v-12.9A9.692,9.692,0,0,0,249.916,494.263Z" transform="translate(-183.814 -494.263)" fill="#fff" opacity="0.2"/>
        <path id="Path_11756" data-name="Path 11756" d="M183.814,525.9V503.678a9.69,9.69,0,0,1,9.943-9.415h56.159a9.692,9.692,0,0,1,9.943,9.415V525.9Z" transform="translate(-183.814 -494.263)" fill="#f05e2f" stroke="#284356" stroke-linecap="round" stroke-linejoin="round" stroke-width="3.842"/>
      </g>
    </g>
  </g>
</svg>
