<svg xmlns="http://www.w3.org/2000/svg" width="380.774" height="290.94" viewBox="0 0 380.774 290.94">
  <g id="Group_1497" data-name="Group 1497" transform="translate(0 0)">
    <g id="Group_1474" data-name="Group 1474" transform="translate(280.626 85.018)">
      <path id="Path_10429" data-name="Path 10429" d="M123.822,356.509l41.158-.018-.66-3.528-41.152.01Z" transform="translate(-121.518 -326.799)" fill="#96a6bc"/>
      <path id="Path_10430" data-name="Path 10430" d="M162.094,421.874l-32.527-2.8v4.542l37.976,3.565V340.245l-44.967,1.987v4.545l39.517-1.22Z" transform="translate(-122.577 -340.245)" fill="#96a6bc"/>
    </g>
    <g id="Group_1477" data-name="Group 1477" transform="translate(282.491 217.087)">
      <g id="Group_1476" data-name="Group 1476">
        <g id="Group_1475" data-name="Group 1475">
          <path id="Path_10431" data-name="Path 10431" d="M134.967,406.329c.209,1.868-1.815,4.754-6.019,6.4-3.152,1.236-5.9,1.121-4.439,3.067s9.687,1.847,13.169.821c3.462-1.029,3.534-1.86,6.175-1.175,3.152.825,6.223-.274,7.1-1.95.519-1-.084-2.46-.9-3.841-2.2-3.726-1.329-5.209-1.329-5.209l-7.624.327Z" transform="translate(-121.706 -404.442)" fill="#1e2123"/>
          <path id="Path_10432" data-name="Path 10432" d="M152.324,407.789c.69.776,1.857,4.289-.324,5.079-5.678,2.061-7.035.531-8.618.841-3.554.679-7.144,2.4-9.922,2.757-3.766.479-9.969-.362-10.207-3.129-.184-2.191,2.795-3.02,2.719-2.545-.447,3.039,7.328,2.228,8.886,2.055,5.838-.648,7.856-2.356,9.634-1.745s4.148-.128,5.106-.333A3.106,3.106,0,0,0,152.324,407.789Z" transform="translate(-123.245 -400.903)"/>
        </g>
      </g>
    </g>
    <g id="Group_1478" data-name="Group 1478" transform="translate(283.631 144.397)">
      <path id="Path_10433" data-name="Path 10433" d="M126.483,422.781c-.851-3.374-3.13-6.63-2.8-8.231,1.452-7.019,11.5-23.136,10.932-27.742l-.907-9.739,22.828-7.937s-.475-.549,3.766,3.571,3.118,12.313,1.415,17.266c-1.446,4.193-17.094,19.32-17.577,29.194,0,0,4.7,6.67,9.165,25.915-6.577.839-19.846,2.216-19.846,2.216S129.046,432.889,126.483,422.781Z" transform="translate(-123.653 -369.108)" fill="#11103d"/>
    </g>
    <g id="Group_1480" data-name="Group 1480" transform="translate(361.888 181.486)">
      <g id="Group_1479" data-name="Group 1479">
        <path id="Path_10434" data-name="Path 10434" d="M151.685,397.491a8.308,8.308,0,0,1,6,6.618c.413,2.67-.762,4.559,2.292,4.263s6.03-6.106,6.008-8.924c-.039-2.816-1.078-3.174.8-4.773,2.233-1.9,1.971-4.464.131-5.7-1.094-.747-3.2-.862-5.29-.8-5.639.142-7.231-1.031-7.231-1.031l-2.42,5.474Z" transform="translate(-151.685 -387.137)" fill="#1e2123"/>
        <path id="Path_10435" data-name="Path 10435" d="M160.171,387.712c1.265-.2,6.231.3,6.435,2.129.533,4.758-1.957,5.135-2.158,6.357-.452,2.746.427,5.908-.148,7.986-.79,2.818-4.19,6.855-7.85,5.978-2.909-.687-2.864-3.084-2.272-2.855,3.741,1.45,5.617-4.3,5.974-5.464,1.346-4.331-.1-6.382,1.365-7.4s1.387-2.954,1.482-3.707C163.275,388.561,160.171,387.712,160.171,387.712Z" transform="translate(-147.795 -386.572)"/>
      </g>
    </g>
    <g id="Group_1481" data-name="Group 1481" transform="translate(287.664 141.354)">
      <path id="Path_10436" data-name="Path 10436" d="M174.961,402.39c-6.692-.969-13.682-16.884-13.16-18.474,1.094-3.4-4.112-12.226-10.209-14.777-4.86-2.035-7.864-1.424-7.864-1.424l-18.629,11.9,12.27,8.951c1.912,4.4,20.059,21.338,20.8,22.753a10.818,10.818,0,0,0,5.768,3.489c3.378.588,38.537,8.06,38.537,8.06l3.989-15.271S188.708,404.388,174.961,402.39Z" transform="translate(-125.098 -367.629)" fill="#11103d"/>
    </g>
    <path id="Path_10437" data-name="Path 10437" d="M127.728,362.174a79.581,79.581,0,0,1-20.7-.878L112,371.35a53.023,53.023,0,0,1,8.04-.021,5.086,5.086,0,0,0,2.041,1.642c1.22.49,2.56.006,2.753-.852.357.107.712.218,1.044.341C125.879,372.461,129.383,362.006,127.728,362.174Z" transform="translate(130.182 -232.971)" fill="#d3a994"/>
    <path id="Path_10438" data-name="Path 10438" d="M175.608,376.326c-1.628-5.9-14.037-3.524-20.329-6.439s-9.757-5.2-21.421-8.64c-6.8-2-13.981,1.315-20.123,1.461,0,0-2.563,7.285-2.881,9.2-.276,1.673,22.058,12.092,26.563,13.913,6.988,2.831,20.41,12.08,21.714,9.694C167.278,380.609,175.82,377.1,175.608,376.326Z" transform="translate(137.039 -233.701)"/>
    <g id="Group_1482" data-name="Group 1482" transform="translate(247.792 138.996)">
      <path id="Path_10439" data-name="Path 10439" d="M110.83,367.627c-.38,2.907,6.9,7.5,6.9,7.5,5.424,4.925,15.81,6.931,20.313,8.758,6.988,2.822,14.084,9.412,18.626,8.673.871-.144,1.935-2.578,3.783-5.721-11.251-2.117-25.475-10.63-33.3-13.541a109.773,109.773,0,0,1-14.95-6.812S110.939,366.82,110.83,367.627Z" transform="translate(-110.816 -366.483)" fill="#1e2123"/>
    </g>
    <g id="Group_1483" data-name="Group 1483" transform="translate(225.123 119.752)">
      <path id="Path_10440" data-name="Path 10440" d="M103,364.377c1.2-4.707,15.374-10.957,19.849-4.446,5.874,8.54,2.069,13.568,2.069,13.568-2.03,2.666-6.022,5.561-8.934,5.641-1.415.037-4.2-1.891-5.96-3.38-1.178.171-2.507.251-2.711-.36a13.5,13.5,0,0,1-.863-3.938C104.343,368.909,101.811,369.02,103,364.377Z" transform="translate(-102.696 -357.129)" fill="#d3a994"/>
    </g>
    <g id="Group_1485" data-name="Group 1485" transform="translate(220.511 118.399)">
      <path id="Path_10441" data-name="Path 10441" d="M101.044,372.081c3.216-1.049,16.337,2,23.213,7.55a6.131,6.131,0,0,0,6.385,1.074s1.865-11.848,4.913-12.434c-6.013-8.774-.62-6.425-10.558-10.017-4.986-1.8-15.006-.839-18.716,3.45C103.942,364.424,101.044,372.081,101.044,372.081Z" transform="translate(-101.044 -355.498)" fill="#1e2123"/>
      <g id="Group_1484" data-name="Group 1484" transform="translate(5.237)">
        <path id="Path_10442" data-name="Path 10442" d="M123,357.111c-3.638-1.317-14.073-1.1-20.084,5.567,8.021.564,22.393,5.077,25.561,15.022,1.421-1.043,5.838-9.186,6.815-9.373C134.056,366.273,132.945,360.7,123,357.111Z" transform="translate(-102.92 -356.471)"/>
      </g>
    </g>
    <path id="Path_10443" data-name="Path 10443" d="M129.865,379.243c14.115,14.584,18.543,18.453,20.645,20.994s5.511,2.8,10.181,3.756c4.6.942,33.244,6.594,33.244,6.594l1.153-3.837s-33.677-6.03-38.155-7.237S129.865,379.243,129.865,379.243Z" transform="translate(171.107 -213.997)" fill="#1f398c"/>
    <path id="Path_10444" data-name="Path 10444" d="M136.279,370.66c-9.939,4.565-18.724,1.629-21.069-2.526-2.116-3.746,2.8-5.937,2.8-5.937,2.161-1.282,23.816-2.432,32.281,3.176,4.629,3.069,3.018,4.824,3.018,4.828.918,4.211-25.757,15.89-25.757,15.89a26.674,26.674,0,0,1-7.806-7.659C120.8,377.587,129.537,373.407,136.279,370.66Z" transform="translate(143.901 -233.133)" fill="#1e2123"/>
    <path id="Path_10445" data-name="Path 10445" d="M117.841,378.866c2-.714,27.881-11.541,27.426-14.1s2.387,1.761.681,3.847-24.615,14.345-24.615,14.345Z" transform="translate(149.563 -230.139)"/>
    <path id="Path_10446" data-name="Path 10446" d="M115.155,378.825a.9.9,0,0,1,.092-.272,1.465,1.465,0,0,1-1.334-.362.645.645,0,0,1,.067-.99.26.26,0,0,1-.053-.07,1.339,1.339,0,0,1-1.413-.887.835.835,0,0,1,.366-.985s-1.192-.1-.8-1.409c.106-.356,3.883-2.646,6.924-2.859,1.524-.1,4.319-.051,6.343-1.341l4.054,4.74s-1.376-.267-3.465,1.187c-1.932,1.356-5.821,3.419-7.987,3.477C116.83,379.442,115.1,379.595,115.155,378.825Z" transform="translate(139.103 -224.139)" fill="#6a7b9b"/>
    <g id="Group_1487" data-name="Group 1487" transform="translate(231.676 121.009)">
      <path id="Path_10447" data-name="Path 10447" d="M105.043,371.641c3.367-.761,15.9,3.419,21.831,9.531a5.966,5.966,0,0,0,6.167,1.621s3.763-11.6,6.884-11.914c-4.553-9.239.416-6.437-8.869-10.868-4.659-2.224-14.768-2.152-19.137,1.786C109.155,364.288,105.043,371.641,105.043,371.641Z" transform="translate(-105.043 -356.894)" fill="#1e2123"/>
      <g id="Group_1486" data-name="Group 1486" transform="translate(6.876)">
        <path id="Path_10448" data-name="Path 10448" d="M128.346,358.872c-3.4-1.625-13.8-2.327-20.84,3.771,7.873,1.261,21.41,7,22.954,17.155,1.583-.913,7.281-8.614,8.275-8.71C137.835,368.94,137.632,363.3,128.346,358.872Z" transform="translate(-107.506 -357.74)"/>
      </g>
    </g>
    <g id="Group_1489" data-name="Group 1489" transform="translate(15.395 0)">
      <rect id="Rectangle_618" data-name="Rectangle 618" width="275.524" height="277.354" fill="#bc9275"/>
      <g id="Group_1488" data-name="Group 1488" transform="translate(8.687 1.652)" opacity="0.56">
        <path id="Path_10449" data-name="Path 10449" d="M82.377,399.48H48.8V389.165H82.377V399.48Zm-32.772-.553v0Zm31.173-.553v-8.1H50.4v8.1Z" transform="translate(1.78 -205.159)" fill="#9e7657" opacity="0.41" style="mix-blend-mode: multiply;isolation: isolate"/>
        <path id="Path_10450" data-name="Path 10450" d="M75.571,403.854H42V393.541H75.571v10.313ZM42.8,403.3v0Zm31.175-.553v-8.106H43.595v8.106Z" transform="translate(-10.409 -200.532)" fill="#9e7657"/>
        <path id="Path_10451" data-name="Path 10451" d="M87.343,403.855H53.767V393.54H87.343v10.315ZM54.571,403.3v0Zm31.173-.551v-8.108H55.369v8.108Z" transform="translate(10.678 -200.533)" fill="#9e7657"/>
        <path id="Path_10452" data-name="Path 10452" d="M99.11,403.855H65.542V393.54H99.11v10.315ZM66.335,403.3v0Zm31.181-.551v-8.108H67.139l0,8.108Z" transform="translate(31.775 -200.533)" fill="#9e7657"/>
        <path id="Path_10453" data-name="Path 10453" d="M75.086,408.629H41.51V398.314H75.086v10.315Zm-32.781-.551v0Zm31.178-.555v-8.1H43.11v8.1Z" transform="translate(-11.284 -195.486)" fill="#9e7657"/>
        <path id="Path_10454" data-name="Path 10454" d="M86.859,408.626H53.28V398.315H86.859v10.311Zm-32.778-.549v0Zm31.175-.555v-8.1H54.885v8.1Z" transform="translate(9.805 -195.485)" fill="#9e7657"/>
        <path id="Path_10455" data-name="Path 10455" d="M98.634,408.627H65.052V398.314H98.634v10.313Zm-32.781-.549v0Zm31.181-.555v-8.1H66.657v8.1Z" transform="translate(30.897 -195.486)" fill="#9e7657"/>
        <path id="Path_10456" data-name="Path 10456" d="M72.4,413.405H38.824V403.088H72.4v10.317Zm-32.772-.549v0ZM70.8,412.3v-8.1H40.432l-.006,8.1Z" transform="translate(-16.096 -190.439)" fill="#9e7657"/>
        <path id="Path_10457" data-name="Path 10457" d="M84.17,413.4H50.6V403.089H84.17V413.4ZM51.4,412.855v0Zm31.178-.557v-8.1H52.2v8.1Z" transform="translate(4.998 -190.438)" fill="#9e7657"/>
        <path id="Path_10458" data-name="Path 10458" d="M95.942,413.405H62.369V403.088H95.942v10.317Zm-32.781-.551v0ZM94.34,412.3v-8.1H63.969l-.006,8.1Z" transform="translate(26.09 -190.439)" fill="#9e7657"/>
        <path id="Path_10459" data-name="Path 10459" d="M77.363,418.285H43.792V407.968H77.363v10.317Zm-32.769-.551v0Zm31.17-.553v-8.105H45.392l0,8.105Z" transform="translate(-7.195 -185.279)" fill="#9e7657" opacity="0.41" style="mix-blend-mode: multiply;isolation: isolate"/>
        <path id="Path_10460" data-name="Path 10460" d="M110,399.48H76.42V389.165H110V399.48Zm-32.772-.553v0Zm31.178-.553v-8.108H78.028l-.006,8.108Z" transform="translate(51.266 -205.159)" fill="#9e7657" opacity="0.41" style="mix-blend-mode: multiply;isolation: isolate"/>
        <path id="Path_10461" data-name="Path 10461" d="M110.913,427.431H77.34V417.116h33.573v10.315Zm-32.772-.553v0Zm31.175-.551v-8.108H78.94v8.108Z" transform="translate(52.914 -175.608)" fill="#9e7657" opacity="0.41" style="mix-blend-mode: multiply;isolation: isolate"/>
        <path id="Path_10462" data-name="Path 10462" d="M99.248,418.285H65.663V407.968H99.248v10.317Zm-32.781-.549v0Zm31.178-.555v-8.11H67.271v8.11Z" transform="translate(31.992 -185.279)" fill="#9e7657" opacity="0.41" style="mix-blend-mode: multiply;isolation: isolate"/>
        <path id="Path_10463" data-name="Path 10463" d="M73.472,423.06H39.893V412.743H73.472V423.06Zm-32.781-.551v0Zm31.181-.553V413.85H41.5v8.106Z" transform="translate(-14.181 -180.231)" fill="#9e7657"/>
        <path id="Path_10464" data-name="Path 10464" d="M85.24,423.06H51.664V412.743H85.24V423.06Zm-32.775-.551v0Zm31.181-.553V413.85H53.269l-.006,8.106Z" transform="translate(6.909 -180.231)" fill="#9e7657"/>
        <path id="Path_10465" data-name="Path 10465" d="M97.014,423.059H63.435V412.744H97.014v10.315Zm-32.769-.549v0Zm31.175-.555v-8.106H65.043v8.106Z" transform="translate(28 -180.23)" fill="#9e7657"/>
        <path id="Path_10466" data-name="Path 10466" d="M64.417,427.572H30.835V417.261H64.417v10.311Zm-32.778-.551v0Zm31.178-.553v-8.105H32.443v8.105Z" transform="translate(-30.411 -175.454)" fill="#9e7657"/>
        <path id="Path_10467" data-name="Path 10467" d="M76.181,427.571H42.608V417.262H76.181v10.309Zm-32.775-.551v0Zm31.175-.553v-8.105H44.21l0,8.105Z" transform="translate(-9.317 -175.453)" fill="#9e7657"/>
        <path id="Path_10468" data-name="Path 10468" d="M87.955,427.572H54.379V417.261H87.955v10.311Zm-32.772-.551v0Zm31.173-.553v-8.105H55.984v8.105Z" transform="translate(11.774 -175.454)" fill="#9e7657"/>
        <path id="Path_10469" data-name="Path 10469" d="M64.259,437.049H30.683V426.734H64.259v10.315Zm-32.778-.556v0Zm31.178-.545v-8.108H32.285v8.108Z" transform="translate(-30.683 -165.439)" fill="#9e7657"/>
        <path id="Path_10470" data-name="Path 10470" d="M76.024,437.048H42.456V426.735H76.024v10.313Zm-32.772-.553v0Zm31.175-.549V427.84H44.053l-.006,8.106Z" transform="translate(-9.589 -165.438)" fill="#9e7657"/>
        <path id="Path_10471" data-name="Path 10471" d="M87.8,437.051H54.227V426.734H87.8v10.317Zm-32.778-.558v0Zm31.178-.545v-8.108H55.827v8.108Z" transform="translate(11.502 -165.439)" fill="#9e7657"/>
        <path id="Path_10472" data-name="Path 10472" d="M70,432.314H36.416V421.995H70v10.319Zm-32.781-.551v0Zm31.178-.553V423.1H38.016v8.108Z" transform="translate(-20.411 -170.449)" fill="#9e7657"/>
        <path id="Path_10473" data-name="Path 10473" d="M81.769,432.314H48.187V421.995H81.769v10.319Zm-32.778-.553v0Zm31.175-.551V423.1H49.8l-.006,8.108Z" transform="translate(0.68 -170.449)" fill="#9e7657"/>
        <path id="Path_10474" data-name="Path 10474" d="M93.537,432.311H59.958V422H93.537v10.315Zm-32.775-.551v0Zm31.178-.551V423.1H61.563v8.108Z" transform="translate(21.77 -170.448)" fill="#9e7657"/>
        <path id="Path_10475" data-name="Path 10475" d="M121.921,390.2H88.35V379.888h33.571V390.2Zm-32.778-.549v0Zm31.187-.555v-8.106H89.95l-.006,8.106Z" transform="translate(72.641 -214.967)" fill="#9e7657"/>
        <path id="Path_10476" data-name="Path 10476" d="M133.7,390.2H100.12V379.888H133.7V390.2Zm-32.781-.549v0Zm31.181-.555v-8.106H101.725l-.006,8.106Z" transform="translate(93.73 -214.967)" fill="#9e7657"/>
        <path id="Path_10477" data-name="Path 10477" d="M145.467,390.2H111.894V379.888h33.573V390.2Zm-32.778-.549v0Zm31.178-.555v-8.106H113.494l-.006,8.106Z" transform="translate(114.826 -214.967)" fill="#9e7657"/>
        <path id="Path_10478" data-name="Path 10478" d="M87.029,390.2H53.456V379.888H87.029V390.2Zm-32.778-.549v0Zm31.187-.555v-8.106H55.058l-.006,8.106Z" transform="translate(10.12 -214.967)" fill="#9e7657"/>
        <path id="Path_10479" data-name="Path 10479" d="M98.806,390.2H65.227V379.888H98.806V390.2Zm-32.783-.549v0Zm31.181-.555v-8.106H66.827l-.006,8.106Z" transform="translate(31.211 -214.967)" fill="#9e7657"/>
        <path id="Path_10480" data-name="Path 10480" d="M110.572,390.2H77V379.888h33.573V390.2Zm-32.778-.549v0Zm31.178-.555v-8.106H78.6l-.006,8.106Z" transform="translate(52.303 -214.967)" fill="#9e7657"/>
        <path id="Path_10481" data-name="Path 10481" d="M115.872,394.679H82.3V384.362h33.576v10.317ZM83.1,394.124v0Zm31.175-.551v-8.1H83.9v8.1Z" transform="translate(61.794 -210.237)" fill="#9e7657"/>
        <path id="Path_10482" data-name="Path 10482" d="M127.649,394.679H94.07V384.362h33.579v10.317Zm-32.783-.556v0Zm31.178-.551v-8.1H95.672l-.006,8.1Z" transform="translate(82.89 -210.237)" fill="#9e7657"/>
        <path id="Path_10483" data-name="Path 10483" d="M139.428,394.679h-33.59V384.362h33.59v10.317Zm-32.786-.556v0Zm31.181-.551v-8.1H107.446v8.1Z" transform="translate(103.975 -210.237)" fill="#9e7657"/>
        <path id="Path_10484" data-name="Path 10484" d="M113.65,403.853H80.071V393.54H113.65v10.313ZM80.869,403.3v0Zm31.178-.553v-8.1H81.673l0,8.1Z" transform="translate(57.807 -200.533)" fill="#9e7657" opacity="0.41" style="mix-blend-mode: multiply;isolation: isolate"/>
        <path id="Path_10485" data-name="Path 10485" d="M109.752,408.627H76.173V398.314h33.579v10.313Zm-32.781-.549v0Zm31.178-.555v-8.1H77.775v8.1Z" transform="translate(50.823 -195.486)" fill="#9e7657"/>
        <path id="Path_10486" data-name="Path 10486" d="M121.524,408.627H87.945V398.314h33.579v10.313Zm-32.772-.549v0Zm31.167-.555v-8.1H89.55l-.006,8.1Z" transform="translate(71.916 -195.486)" fill="#9e7657"/>
        <path id="Path_10487" data-name="Path 10487" d="M133.291,408.627H99.718V398.314h33.573v10.313Zm-32.775-.549v0Zm31.173-.555v-8.1H101.315v8.1Z" transform="translate(93.01 -195.486)" fill="#9e7657"/>
        <path id="Path_10488" data-name="Path 10488" d="M100.482,413.405H73.907V403.088h26.575v10.317ZM74.7,412.854v0Zm24.176-.555v-8.1H75.507v8.1Z" transform="translate(46.763 -190.439)" fill="#9e7657"/>
        <path id="Path_10489" data-name="Path 10489" d="M116.749,413.405H83.173V403.088h33.576v10.317Zm-32.778-.551v0Zm31.184-.555v-8.1H84.775l-.006,8.1Z" transform="translate(63.365 -190.439)" fill="#9e7657"/>
        <path id="Path_10490" data-name="Path 10490" d="M128.522,413.405H94.943V403.088h33.579v10.317Zm-32.778-.551v0Zm31.178-.555v-8.1H96.545v8.1Z" transform="translate(84.454 -190.439)" fill="#9e7657"/>
        <path id="Path_10491" data-name="Path 10491" d="M110.86,417.884H77.289V407.565H110.86v10.319Zm-32.775-.558v0Zm31.184-.551v-8.1H78.886v8.1Z" transform="translate(52.823 -185.706)" fill="#9e7657"/>
        <path id="Path_10492" data-name="Path 10492" d="M122.634,417.884H89.058V407.565h33.576v10.319Zm-32.775-.558v0Zm31.175-.551v-8.1H90.658v8.1Z" transform="translate(73.91 -185.706)" fill="#9e7657"/>
        <path id="Path_10493" data-name="Path 10493" d="M134.412,417.884H100.83V407.565h33.582v10.319Zm-32.783-.558v0Zm31.187-.551v-8.1H102.432v8.1Z" transform="translate(95.002 -185.706)" fill="#9e7657"/>
        <path id="Path_10494" data-name="Path 10494" d="M140.059,422.655H106.477V412.342h33.582v10.313Zm-32.778-.547v0Zm31.181-.56v-8.1H108.085v8.1Z" transform="translate(105.12 -180.655)" fill="#9e7657" opacity="0.41" style="mix-blend-mode: multiply;isolation: isolate"/>
        <path id="Path_10495" data-name="Path 10495" d="M137.746,403.853H104.173V393.54h33.573v10.313Zm-32.781-.551v0Zm31.181-.553v-8.1H105.773l-.006,8.1Z" transform="translate(100.992 -200.533)" fill="#9e7657" opacity="0.41" style="mix-blend-mode: multiply;isolation: isolate"/>
        <path id="Path_10496" data-name="Path 10496" d="M121.2,399.269H87.627V388.95H121.2v10.319Zm-32.781-.562v0Zm31.181-.549v-8.1H89.224v8.1Z" transform="translate(71.346 -205.386)" fill="#9e7657" opacity="0.41" style="mix-blend-mode: multiply;isolation: isolate"/>
        <path id="Path_10497" data-name="Path 10497" d="M128.522,422.655H94.943V412.342h33.579v10.313Zm-32.778-.547v0Zm31.178-.56v-8.1H96.545v8.1Z" transform="translate(84.454 -180.655)" fill="#9e7657" opacity="0.41" style="mix-blend-mode: multiply;isolation: isolate"/>
        <path id="Path_10498" data-name="Path 10498" d="M122.637,427.435H89.058V417.116h33.579v10.319Zm-32.783-.557v0Zm31.181-.551v-8.1H90.663l-.006,8.1Z" transform="translate(73.91 -175.608)" fill="#9e7657"/>
        <path id="Path_10499" data-name="Path 10499" d="M134.4,427.435H100.828V417.116H134.4v10.319Zm-32.778-.557v0Zm31.181-.551v-8.1H102.436l-.006,8.1Z" transform="translate(94.999 -175.608)" fill="#9e7657"/>
        <path id="Path_10500" data-name="Path 10500" d="M146.183,427.435H112.6V417.116h33.582v10.319Zm-32.783-.557v0Zm31.178-.551v-8.108H114.2v8.108Z" transform="translate(116.093 -175.608)" fill="#9e7657"/>
        <path id="Path_10501" data-name="Path 10501" d="M105.47,432.213H71.9V421.892H105.47v10.321ZM72.7,431.658v0Zm31.178-.555V423H73.5V431.1Z" transform="translate(43.165 -170.558)" fill="#9e7657"/>
        <path id="Path_10502" data-name="Path 10502" d="M117.247,432.213H83.671V421.892h33.576v10.321Zm-32.778-.555v0Zm31.184-.555V423H85.271V431.1Z" transform="translate(64.258 -170.558)" fill="#9e7657"/>
        <path id="Path_10503" data-name="Path 10503" d="M129.016,432.213H95.443V421.892h33.573v10.321Zm-32.775-.555v0Zm31.175-.555V423H97.04V431.1Z" transform="translate(85.35 -170.558)" fill="#9e7657"/>
        <path id="Path_10504" data-name="Path 10504" d="M111.355,437.05H77.787V426.735h33.568V437.05ZM78.583,436.5v0Zm31.178-.549v-8.106H79.387v8.106Z" transform="translate(53.715 -165.438)" fill="#9e7657"/>
        <path id="Path_10505" data-name="Path 10505" d="M123.129,437.05H89.558V426.735h33.571V437.05ZM90.351,436.5v0Zm31.178-.549v-8.106H91.16v8.106Z" transform="translate(74.806 -165.438)" fill="#9e7657"/>
        <path id="Path_10506" data-name="Path 10506" d="M134.9,437.05H101.33V426.735H134.9V437.05Zm-32.778-.553v0Zm31.181-.549v-8.106H102.932v8.106Z" transform="translate(95.898 -165.438)" fill="#9e7657"/>
        <path id="Path_10507" data-name="Path 10507" d="M82.377,347.7H48.8V337.381H82.377V347.7Zm-32.772-.555v0Zm31.173-.556v-8.1H50.4v8.1Z" transform="translate(1.78 -259.907)" fill="#9e7657" opacity="0.41" style="mix-blend-mode: multiply;isolation: isolate"/>
        <path id="Path_10508" data-name="Path 10508" d="M70.062,352.286H36.489V341.973H70.062v10.313Zm-32.778-.551v0Zm31.175-.555v-8.1H38.086l0,8.1Z" transform="translate(-20.28 -255.052)" fill="#9e7657"/>
        <path id="Path_10509" data-name="Path 10509" d="M81.832,352.288H48.259V341.971H81.832v10.317Zm-32.775-.553v0Zm31.175-.551v-8.108H49.859v8.108Z" transform="translate(0.809 -255.054)" fill="#9e7657"/>
        <path id="Path_10510" data-name="Path 10510" d="M93.6,352.288H60.033V341.971H93.6v10.317Zm-32.778-.553v0Zm31.184-.553v-8.106H61.627l-.006,8.106Z" transform="translate(21.905 -255.054)" fill="#9e7657"/>
        <path id="Path_10511" data-name="Path 10511" d="M75.086,357.062H41.51V346.743H75.086v10.319Zm-32.781-.551v0Zm31.178-.553v-8.1H43.11v8.1Z" transform="translate(-11.284 -250.009)" fill="#9e7657"/>
        <path id="Path_10512" data-name="Path 10512" d="M86.859,357.059H53.28V346.744H86.859v10.315Zm-32.778-.553v0Zm31.175-.551v-8.1H54.885v8.1Z" transform="translate(9.805 -250.008)" fill="#9e7657"/>
        <path id="Path_10513" data-name="Path 10513" d="M98.634,357.06H65.052V346.743H98.634V357.06Zm-32.781-.553v0Zm31.181-.549v-8.1H66.657v8.1Z" transform="translate(30.897 -250.009)" fill="#9e7657"/>
        <path id="Path_10514" data-name="Path 10514" d="M72.4,361.833H38.824V351.52H72.4v10.313Zm-32.772-.549v0Zm31.175-.555v-8.1H40.432l-.006,8.1Z" transform="translate(-16.096 -244.959)" fill="#9e7657"/>
        <path id="Path_10515" data-name="Path 10515" d="M84.17,361.833H50.6V351.52H84.17v10.313ZM51.4,361.284v0Zm31.178-.553v-8.106H52.2v8.106Z" transform="translate(4.998 -244.959)" fill="#9e7657"/>
        <path id="Path_10516" data-name="Path 10516" d="M95.942,361.837H62.369V351.52H95.942v10.317Zm-32.781-.555v0Zm31.178-.553v-8.1H63.969l-.006,8.1Z" transform="translate(26.09 -244.959)" fill="#9e7657"/>
        <path id="Path_10517" data-name="Path 10517" d="M110,347.7H76.42V337.381H110V347.7Zm-32.772-.555v0Zm31.178-.556v-8.106H78.028l-.006,8.106Z" transform="translate(51.266 -259.907)" fill="#9e7657" opacity="0.41" style="mix-blend-mode: multiply;isolation: isolate"/>
        <path id="Path_10518" data-name="Path 10518" d="M110.913,375.862H77.34V365.547h33.573v10.315Zm-32.772-.553v0Zm31.175-.553V366.65H78.94v8.106Z" transform="translate(52.914 -230.129)" fill="#9e7657" opacity="0.41" style="mix-blend-mode: multiply;isolation: isolate"/>
        <path id="Path_10519" data-name="Path 10519" d="M93.444,371.088H59.865V360.773H93.444v10.315Zm-32.781-.551v0Zm31.184-.551v-8.1H61.465v8.1Z" transform="translate(21.604 -235.176)" fill="#9e7657"/>
        <path id="Path_10520" data-name="Path 10520" d="M105.212,371.088H71.636V360.773h33.576v10.315Zm-32.775-.551v0Zm31.178-.551V361.88H73.236l0,8.106Z" transform="translate(42.694 -235.176)" fill="#9e7657"/>
        <path id="Path_10521" data-name="Path 10521" d="M116.981,371.087H83.41V360.774h33.571v10.313Zm-32.772-.549v0Zm31.178-.553v-8.106H85v8.106Z" transform="translate(63.79 -235.175)" fill="#9e7657"/>
        <path id="Path_10522" data-name="Path 10522" d="M64.417,376.007H30.835V365.69H64.417v10.317Zm-32.778-.555v0Zm31.178-.551v-8.1H32.443v8.1Z" transform="translate(-30.411 -229.978)" fill="#9e7657"/>
        <path id="Path_10523" data-name="Path 10523" d="M76.181,376.006H42.608V365.691H76.181v10.315Zm-32.775-.555v0Zm31.175-.553v-8.1H44.21l0,8.1Z" transform="translate(-9.317 -229.977)" fill="#9e7657"/>
        <path id="Path_10524" data-name="Path 10524" d="M87.955,376.009H54.379V365.69H87.955v10.319Zm-32.772-.558v0Zm31.173-.551v-8.1H55.984v8.1Z" transform="translate(11.774 -229.978)" fill="#9e7657"/>
        <path id="Path_10525" data-name="Path 10525" d="M64.259,385.481H30.683V375.164H64.259v10.317Zm-32.778-.551v0Zm31.178-.553v-8.106H32.285v8.106Z" transform="translate(-30.683 -219.961)" fill="#9e7657"/>
        <path id="Path_10526" data-name="Path 10526" d="M76.024,385.48H42.456V375.165H76.024V385.48Zm-32.772-.549v0Zm31.175-.557v-8.1H44.053l-.006,8.1Z" transform="translate(-9.589 -219.96)" fill="#9e7657"/>
        <path id="Path_10527" data-name="Path 10527" d="M87.8,385.483H54.227V375.164H87.8v10.319Zm-32.778-.553v0Zm31.178-.553v-8.106H55.827v8.106Z" transform="translate(11.502 -219.961)" fill="#9e7657"/>
        <path id="Path_10528" data-name="Path 10528" d="M70,380.741H36.416V370.428H70v10.313Zm-32.781-.547v0Zm31.178-.56v-8.1H38.016v8.1Z" transform="translate(-20.411 -224.968)" fill="#9e7657"/>
        <path id="Path_10529" data-name="Path 10529" d="M81.769,380.741H48.187V370.428H81.769v10.313Zm-32.778-.551v0Zm31.175-.553v-8.106H49.8l-.006,8.106Z" transform="translate(0.68 -224.968)" fill="#9e7657"/>
        <path id="Path_10530" data-name="Path 10530" d="M93.537,380.738H59.958V370.429H93.537v10.309Zm-32.775-.547v0Zm31.178-.557v-8.1H61.563v8.1Z" transform="translate(21.77 -224.967)" fill="#9e7657"/>
        <path id="Path_10531" data-name="Path 10531" d="M104.782,338.632H71.209V328.319h33.573v10.313ZM72,338.081v0Zm31.187-.557v-8.106H72.811l-.008,8.106Z" transform="translate(41.929 -269.488)" fill="#9e7657"/>
        <path id="Path_10532" data-name="Path 10532" d="M116.561,338.632H82.979V328.319h33.582v10.313Zm-32.783-.551v0Zm31.178-.557v-8.106H84.584l0,8.106Z" transform="translate(63.018 -269.488)" fill="#9e7657"/>
        <path id="Path_10533" data-name="Path 10533" d="M128.33,338.632H94.751V328.319H128.33v10.313Zm-32.781-.551v0Zm31.178-.557v-8.106H96.359l-.006,8.106Z" transform="translate(84.11 -269.488)" fill="#9e7657"/>
        <path id="Path_10534" data-name="Path 10534" d="M115.872,343.114H82.3V332.793h33.576v10.321ZM83.1,342.559v0ZM114.273,342V333.9H83.9V342Z" transform="translate(61.794 -264.758)" fill="#9e7657"/>
        <path id="Path_10535" data-name="Path 10535" d="M127.649,343.114H94.07V332.793h33.579v10.321Zm-32.783-.555v0ZM126.044,342v-8.1H95.672l-.006,8.1Z" transform="translate(82.89 -264.758)" fill="#9e7657"/>
        <path id="Path_10536" data-name="Path 10536" d="M139.428,343.114h-33.59V332.793h33.59v10.321Zm-32.786-.555v0ZM137.823,342v-8.1H107.446V342Z" transform="translate(103.975 -264.758)" fill="#9e7657"/>
        <path id="Path_10537" data-name="Path 10537" d="M113.65,352.286H80.071V341.971H113.65v10.315Zm-32.781-.553v0Zm31.178-.553v-8.1H81.673l0,8.1Z" transform="translate(57.807 -255.054)" fill="#9e7657" opacity="0.41" style="mix-blend-mode: multiply;isolation: isolate"/>
        <path id="Path_10538" data-name="Path 10538" d="M109.752,357.06H76.173V346.743h33.579V357.06Zm-32.781-.553v0Zm31.178-.549V347.85H77.775v8.108Z" transform="translate(50.823 -250.009)" fill="#9e7657"/>
        <path id="Path_10539" data-name="Path 10539" d="M121.524,357.06H87.945V346.743h33.579V357.06Zm-32.772-.553v0Zm31.167-.549V347.85H89.55l-.006,8.108Z" transform="translate(71.916 -250.009)" fill="#9e7657"/>
        <path id="Path_10540" data-name="Path 10540" d="M133.291,357.06H99.718V346.743h33.573V357.06Zm-32.775-.553v0Zm31.173-.549V347.85H101.315v8.108Z" transform="translate(93.01 -250.009)" fill="#9e7657"/>
        <path id="Path_10541" data-name="Path 10541" d="M100.482,361.837H73.907V351.52h26.575v10.317ZM74.7,361.282v0Zm24.176-.551v-8.1H75.507v8.1Z" transform="translate(46.763 -244.959)" fill="#9e7657"/>
        <path id="Path_10542" data-name="Path 10542" d="M116.749,361.837H83.173V351.52h33.576v10.317Zm-32.778-.555v0Zm31.184-.551v-8.1H84.775l-.006,8.1Z" transform="translate(63.365 -244.959)" fill="#9e7657"/>
        <path id="Path_10543" data-name="Path 10543" d="M128.522,361.837H94.943V351.52h33.579v10.317Zm-32.778-.555v0Zm31.178-.551v-8.1H96.545v8.1Z" transform="translate(84.454 -244.959)" fill="#9e7657"/>
        <path id="Path_10544" data-name="Path 10544" d="M110.86,366.317H77.289V356H110.86v10.321Zm-32.775-.56v0Zm31.184-.549v-8.1H78.886v8.1Z" transform="translate(52.823 -240.227)" fill="#9e7657"/>
        <path id="Path_10545" data-name="Path 10545" d="M122.634,366.317H89.058V356h33.576v10.321Zm-32.775-.56v0Zm31.175-.549v-8.1H90.658v8.1Z" transform="translate(73.91 -240.227)" fill="#9e7657"/>
        <path id="Path_10546" data-name="Path 10546" d="M134.412,366.317H100.83V356h33.582v10.321Zm-32.783-.56v0Zm31.187-.549v-8.1H102.432v8.1Z" transform="translate(95.002 -240.227)" fill="#9e7657"/>
        <path id="Path_10547" data-name="Path 10547" d="M65.56,366.317H31.987V356H65.56v10.321Zm-32.772-.56v0Zm31.178-.549v-8.1H33.589l0,8.1Z" transform="translate(-28.347 -240.227)" fill="#9e7657"/>
        <path id="Path_10548" data-name="Path 10548" d="M77.335,366.317H43.756V356H77.335v10.321Zm-32.772-.56v0Zm31.173-.549v-8.1H45.358v8.1Z" transform="translate(-7.26 -240.227)" fill="#9e7657"/>
        <path id="Path_10549" data-name="Path 10549" d="M89.11,366.317H55.528V356H89.11v10.321Zm-32.781-.56v0Zm31.184-.549v-8.1H57.139v8.1Z" transform="translate(13.833 -240.227)" fill="#9e7657"/>
        <path id="Path_10550" data-name="Path 10550" d="M140.059,371.088H106.477V360.773h33.582v10.315Zm-32.778-.551v0Zm31.181-.551v-8.108H108.085v8.108Z" transform="translate(105.12 -235.176)" fill="#9e7657" opacity="0.41" style="mix-blend-mode: multiply;isolation: isolate"/>
        <path id="Path_10551" data-name="Path 10551" d="M137.746,352.286H104.173V341.971h33.573v10.315Zm-32.781-.553v0Zm31.181-.553v-8.1H105.773l-.006,8.1Z" transform="translate(100.992 -255.054)" fill="#9e7657" opacity="0.41" style="mix-blend-mode: multiply;isolation: isolate"/>
        <path id="Path_10552" data-name="Path 10552" d="M121.2,347.7H87.627V337.381H121.2V347.7Zm-32.781-.555v0Zm31.181-.556v-8.1H89.224v8.1Z" transform="translate(71.346 -259.907)" fill="#9e7657" opacity="0.41" style="mix-blend-mode: multiply;isolation: isolate"/>
        <path id="Path_10553" data-name="Path 10553" d="M128.522,371.088H94.943V360.773h33.579v10.315Zm-32.778-.551v0Zm31.178-.551v-8.108H96.545v8.108Z" transform="translate(84.454 -235.176)" fill="#9e7657" opacity="0.41" style="mix-blend-mode: multiply;isolation: isolate"/>
        <path id="Path_10554" data-name="Path 10554" d="M122.637,375.868H89.058V365.547h33.579v10.321Zm-32.783-.553v0Zm31.181-.56v-8.1H90.663l-.006,8.1Z" transform="translate(73.91 -230.129)" fill="#9e7657"/>
        <path id="Path_10555" data-name="Path 10555" d="M134.4,375.868H100.828V365.547H134.4v10.321Zm-32.778-.553v0Zm31.181-.56v-8.1H102.436l-.006,8.1Z" transform="translate(94.999 -230.129)" fill="#9e7657"/>
        <path id="Path_10556" data-name="Path 10556" d="M146.183,375.868H112.6V365.547h33.582v10.321Zm-32.783-.553v0Zm31.178-.56V366.65H114.2v8.106Z" transform="translate(116.093 -230.129)" fill="#9e7657"/>
        <path id="Path_10557" data-name="Path 10557" d="M105.47,380.644H71.9V370.323H105.47v10.321ZM72.7,380.089v0Zm31.178-.556v-8.105H73.5v8.105Z" transform="translate(43.165 -225.079)" fill="#9e7657"/>
        <path id="Path_10558" data-name="Path 10558" d="M117.247,380.644H83.671V370.323h33.576v10.321Zm-32.778-.555v0Zm31.184-.556v-8.105H85.271v8.105Z" transform="translate(64.258 -225.079)" fill="#9e7657"/>
        <path id="Path_10559" data-name="Path 10559" d="M129.016,380.644H95.443V370.323h33.573v10.321Zm-32.775-.555v0Zm31.175-.556v-8.105H97.04v8.105Z" transform="translate(85.35 -225.079)" fill="#9e7657"/>
        <path id="Path_10560" data-name="Path 10560" d="M111.355,385.482H77.787V375.165h33.568v10.317Zm-32.772-.549v0Zm31.178-.553v-8.106H79.387v8.106Z" transform="translate(53.715 -219.96)" fill="#9e7657"/>
        <path id="Path_10561" data-name="Path 10561" d="M123.129,385.482H89.558V375.165h33.571v10.317Zm-32.778-.549v0Zm31.178-.553v-8.106H91.16v8.106Z" transform="translate(74.806 -219.96)" fill="#9e7657"/>
        <path id="Path_10562" data-name="Path 10562" d="M134.9,385.482H101.33V375.165H134.9v10.317Zm-32.778-.549v0Zm31.181-.553v-8.106H102.932v8.106Z" transform="translate(95.898 -219.96)" fill="#9e7657"/>
        <path id="Path_10563" data-name="Path 10563" d="M121.921,333.925H88.35V323.612h33.571v10.313Zm-32.778-.549v0Zm31.187-.553v-8.108H89.95l-.006,8.108Z" transform="translate(72.641 -274.464)" fill="#9e7657"/>
        <path id="Path_10564" data-name="Path 10564" d="M133.7,333.925H100.12V323.612H133.7v10.313Zm-32.781-.549v0Zm31.181-.553v-8.108H101.725l-.006,8.108Z" transform="translate(93.73 -274.464)" fill="#9e7657"/>
        <path id="Path_10565" data-name="Path 10565" d="M145.467,333.925H111.894V323.612h33.573v10.313Zm-32.778-.549v0Zm31.178-.553v-8.108H113.494l-.006,8.108Z" transform="translate(114.826 -274.464)" fill="#9e7657"/>
        <path id="Path_10566" data-name="Path 10566" d="M87.029,333.925H53.456V323.612H87.029v10.313Zm-32.778-.549v0Zm31.187-.553v-8.108H55.058l-.006,8.108Z" transform="translate(10.12 -274.464)" fill="#9e7657"/>
        <path id="Path_10567" data-name="Path 10567" d="M98.806,333.925H65.227V323.612H98.806v10.313Zm-32.783-.549v0Zm31.181-.553v-8.108H66.827l-.006,8.108Z" transform="translate(31.211 -274.464)" fill="#9e7657"/>
        <path id="Path_10568" data-name="Path 10568" d="M110.572,333.925H77V323.612h33.573v10.313Zm-32.778-.549v0Zm31.178-.553v-8.108H78.6l-.006,8.108Z" transform="translate(52.303 -274.464)" fill="#9e7657"/>
        <path id="Path_10569" data-name="Path 10569" d="M39.111,300.275v0Z" transform="translate(-15.582 -299.722)" fill="#9e7657"/>
        <path id="Path_10570" data-name="Path 10570" d="M50.883,300.274v0Z" transform="translate(5.51 -299.721)" fill="#9e7657"/>
        <path id="Path_10571" data-name="Path 10571" d="M62.653,300.273v0Z" transform="translate(26.599 -299.722)" fill="#9e7657"/>
        <path id="Path_10572" data-name="Path 10572" d="M110.913,319.589H77.34V309.272h33.573v10.317Zm-32.772-.553v0Zm31.175-.551v-8.106H78.94v8.106Z" transform="translate(52.914 -289.625)" fill="#9e7657" opacity="0.41" style="mix-blend-mode: multiply;isolation: isolate"/>
        <path id="Path_10573" data-name="Path 10573" d="M93.444,314.816H59.865V304.5H93.444v10.317Zm-32.781-.553v0Zm31.184-.551v-8.106H61.465v8.106Z" transform="translate(21.604 -294.672)" fill="#9e7657"/>
        <path id="Path_10574" data-name="Path 10574" d="M105.212,314.816H71.636V304.5h33.576v10.317Zm-32.775-.553v0Zm31.178-.551V305.6H73.236l0,8.108Z" transform="translate(42.694 -294.672)" fill="#9e7657"/>
        <path id="Path_10575" data-name="Path 10575" d="M116.981,314.815H83.41V304.5h33.571v10.315Zm-32.772-.551v0Zm31.178-.553V305.6H85v8.108Z" transform="translate(63.79 -294.67)" fill="#9e7657"/>
        <path id="Path_10576" data-name="Path 10576" d="M64.417,319.735H30.835V309.414H64.417v10.321Zm-32.778-.551v0Zm31.178-.553v-8.11H32.443v8.11Z" transform="translate(-30.411 -289.475)" fill="#9e7657"/>
        <path id="Path_10577" data-name="Path 10577" d="M76.181,319.734H42.608V309.415H76.181v10.319Zm-32.775-.551v0Zm31.175-.555V310.52H44.21l0,8.108Z" transform="translate(-9.317 -289.474)" fill="#9e7657"/>
        <path id="Path_10578" data-name="Path 10578" d="M87.955,319.737H54.379V309.414H87.955v10.323Zm-32.772-.553v0Zm31.173-.553v-8.11H55.984v8.11Z" transform="translate(11.774 -289.475)" fill="#9e7657"/>
        <path id="Path_10579" data-name="Path 10579" d="M64.259,329.2H30.683V318.892H64.259V329.2Zm-32.778-.549v0ZM62.66,328.1v-8.1H32.285v8.1Z" transform="translate(-30.683 -279.455)" fill="#9e7657"/>
        <path id="Path_10580" data-name="Path 10580" d="M76.024,329.2H42.456V318.892H76.024V329.2Zm-32.772-.547v0Zm31.175-.558v-8.1H44.053l-.006,8.1Z" transform="translate(-9.589 -279.455)" fill="#9e7657"/>
        <path id="Path_10581" data-name="Path 10581" d="M87.8,329.207H54.227V318.892H87.8v10.315Zm-32.778-.553v0ZM86.2,328.1v-8.1H55.827v8.1Z" transform="translate(11.502 -279.455)" fill="#9e7657"/>
        <path id="Path_10582" data-name="Path 10582" d="M70,324.469H36.416V314.152H70v10.317Zm-32.781-.549v0Zm31.178-.558v-8.1H38.016v8.1Z" transform="translate(-20.411 -284.466)" fill="#9e7657"/>
        <path id="Path_10583" data-name="Path 10583" d="M81.769,324.469H48.187V314.152H81.769v10.317Zm-32.778-.553v0Zm31.175-.551v-8.106H49.8l-.006,8.106Z" transform="translate(0.68 -284.466)" fill="#9e7657"/>
        <path id="Path_10584" data-name="Path 10584" d="M93.537,324.467H59.958V314.152H93.537v10.315Zm-32.775-.551v0Zm31.178-.553v-8.1H61.563v8.1Z" transform="translate(21.77 -284.466)" fill="#9e7657"/>
        <path id="Path_10585" data-name="Path 10585" d="M74.192,300.272v0Z" transform="translate(47.274 -299.721)" fill="#9e7657"/>
        <path id="Path_10586" data-name="Path 10586" d="M83.459,300.272v0Z" transform="translate(63.878 -299.721)" fill="#9e7657"/>
        <path id="Path_10587" data-name="Path 10587" d="M95.23,300.272v0Z" transform="translate(84.968 -299.721)" fill="#9e7657"/>
        <path id="Path_10588" data-name="Path 10588" d="M110.86,310.037H77.289V299.722H110.86v10.315Zm-32.775-.553v0Zm31.184-.549v-8.1H78.886v8.1Z" transform="translate(52.823 -299.722)" fill="#9e7657"/>
        <path id="Path_10589" data-name="Path 10589" d="M122.634,310.037H89.058V299.722h33.576v10.315Zm-32.775-.553v0Zm31.175-.549v-8.1H90.658v8.1Z" transform="translate(73.91 -299.722)" fill="#9e7657"/>
        <path id="Path_10590" data-name="Path 10590" d="M134.412,310.037H100.83V299.722h33.582v10.315Zm-32.783-.553v0Zm31.187-.549v-8.1H102.432v8.1Z" transform="translate(95.002 -299.722)" fill="#9e7657"/>
        <path id="Path_10591" data-name="Path 10591" d="M65.56,310.037H31.987V299.722H65.56v10.315Zm-32.772-.553v0Zm31.178-.549v-8.1H33.589l0,8.1Z" transform="translate(-28.347 -299.722)" fill="#9e7657"/>
        <path id="Path_10592" data-name="Path 10592" d="M77.335,310.037H43.756V299.722H77.335v10.315Zm-32.772-.553v0Zm31.173-.549v-8.1H45.358v8.1Z" transform="translate(-7.26 -299.722)" fill="#9e7657"/>
        <path id="Path_10593" data-name="Path 10593" d="M89.11,310.037H55.528V299.722H89.11v10.315Zm-32.781-.553v0Zm31.184-.549v-8.1H57.139v8.1Z" transform="translate(13.833 -299.722)" fill="#9e7657"/>
        <path id="Path_10594" data-name="Path 10594" d="M140.059,314.816H106.477V304.5h33.582v10.317Zm-32.778-.553v0Zm31.181-.553V305.6H108.085v8.108Z" transform="translate(105.12 -294.672)" fill="#9e7657" opacity="0.41" style="mix-blend-mode: multiply;isolation: isolate"/>
        <path id="Path_10595" data-name="Path 10595" d="M128.522,314.816H94.943V304.5h33.579v10.317Zm-32.778-.553v0Zm31.178-.553V305.6H96.545v8.108Z" transform="translate(84.454 -294.672)" fill="#9e7657" opacity="0.41" style="mix-blend-mode: multiply;isolation: isolate"/>
        <path id="Path_10596" data-name="Path 10596" d="M122.637,319.593H89.058V309.272h33.579v10.321Zm-32.783-.551v0Zm31.181-.557v-8.1H90.663l-.006,8.1Z" transform="translate(73.91 -289.625)" fill="#9e7657"/>
        <path id="Path_10597" data-name="Path 10597" d="M134.4,319.593H100.828V309.272H134.4v10.321Zm-32.778-.551v0Zm31.181-.557v-8.1H102.436l-.006,8.1Z" transform="translate(94.999 -289.625)" fill="#9e7657"/>
        <path id="Path_10598" data-name="Path 10598" d="M146.183,319.593H112.6V309.272h33.582v10.321Zm-32.783-.551v0Zm31.178-.557v-8.106H114.2v8.106Z" transform="translate(116.093 -289.625)" fill="#9e7657"/>
        <path id="Path_10599" data-name="Path 10599" d="M105.47,324.366H71.9V314.051H105.47v10.315ZM72.7,323.813v0Zm31.178-.558v-8.1H73.5v8.1Z" transform="translate(43.165 -284.573)" fill="#9e7657"/>
        <path id="Path_10600" data-name="Path 10600" d="M117.247,324.366H83.671V314.051h33.576v10.315Zm-32.778-.553v0Zm31.184-.558v-8.1H85.271v8.1Z" transform="translate(64.258 -284.573)" fill="#9e7657"/>
        <path id="Path_10601" data-name="Path 10601" d="M129.016,324.366H95.443V314.051h33.573v10.315Zm-32.775-.553v0Zm31.175-.558v-8.1H97.04v8.1Z" transform="translate(85.35 -284.573)" fill="#9e7657"/>
        <path id="Path_10602" data-name="Path 10602" d="M111.355,329.207H77.787V318.892h33.568v10.315Zm-32.772-.549v0Zm31.178-.555V320H79.387V328.1Z" transform="translate(53.715 -279.455)" fill="#9e7657"/>
        <path id="Path_10603" data-name="Path 10603" d="M123.129,329.207H89.558V318.892h33.571v10.315Zm-32.778-.549v0Zm31.178-.555V320H91.16V328.1Z" transform="translate(74.806 -279.455)" fill="#9e7657"/>
        <path id="Path_10604" data-name="Path 10604" d="M134.9,329.207H101.33V318.892H134.9v10.315Zm-32.778-.549v0Zm31.181-.555V320H102.932V328.1Z" transform="translate(95.898 -279.455)" fill="#9e7657"/>
      </g>
    </g>
    <path id="Path_10605" data-name="Path 10605" d="M29.626,388.482c4.361,6.009,16.293,13.514,19.788,10.085s4.073-14.158-3.2-15.874-16.3-1.288-16.3-1.288Z" transform="translate(-8.495 -211.762)" fill="#1e2123"/>
    <path id="Path_10606" data-name="Path 10606" d="M37.669,389.751c1.625-.675,3.724-4.668,2.27-6.526a8.585,8.585,0,0,0-3.375-2.137,11.887,11.887,0,0,0-2.8-.44c-1.463.082-3.721.173-4.266,1.173s2.8-.1,3.886.222,1.072.5,1.072.5a18.693,18.693,0,0,1-3.219-.031s-4.107.747-4.844,2.09c-.243.455,1.376-.146,3.869-.3,2.6-.148,3.2.2,3.2.2a9.6,9.6,0,0,0-2.884-.21c-2.113.078-5.193.578-5.388,1.232-.229.78,2.172.728,4.16.648a5.989,5.989,0,0,1,2.432.385c.313.15-4.447-1.5-6.234.469-.882.973,6.307,1,7.518,1.36.508.15.014.979-.924.753-3.3-.786-3.523-.444-2.839.012,1.6,1.07,2.253,1.934,3.467,1.958A12.216,12.216,0,0,0,37.669,389.751Z" transform="translate(-16.476 -212.517)" fill="#1e2123"/>
    <path id="Path_10607" data-name="Path 10607" d="M35.495,363.659c-.988,0-2.225,1.584-6.943,13.51-4,10.109-1.259,18.058,4.224,20.482,3.638,1.607,18.342-18.3,17.2-23.327S38.18,363.669,35.495,363.659Z" transform="translate(-13.828 -230.473)" fill="#1e2123"/>
    <g id="Group_1490" data-name="Group 1490" transform="translate(6.449 134.6)">
      <path id="Path_10608" data-name="Path 10608" d="M44.356,372c.061,2.119-.176,4.514,2.113,7.285s1.281,3.1,1.281,3.1l-6.642,5.67S30.28,380.22,28.052,378.42,44.356,372,44.356,372Z" transform="translate(-18.099 -356.255)" fill="#d3a994"/>
      <path id="Path_10609" data-name="Path 10609" d="M27.137,375.478c0-.033.229-.527.232-.564.061-4.281.966-6.931,3.565-8.908a19.1,19.1,0,0,1,2.46-.588c6.206-3.781,21.03,3.374,19.514,7.089-6.491,15.853-16.971,15.3-21.061,14.543-2.055-.405-2.719-.142-3.752-1.378-1.066-1.276-.96-2.417-1.27-5.034-1.195-.525-2.58-.92-2.448-1.522a.426.426,0,0,1,.081-.276C25.629,378.018,26.469,376.109,27.137,375.478Z" transform="translate(-24.367 -364.346)" fill="#d3a994"/>
    </g>
    <g id="Group_1491" data-name="Group 1491" transform="translate(0 133.732)">
      <path id="Path_10610" data-name="Path 10610" d="M26.1,368.139c-2.968.292-5.343.407-3.252,1.693s6.982,1.81,9.2,1.345c3.481-.706,4.6-2.129,4.6-2.129Z" transform="translate(-22.057 -359.469)"/>
      <path id="Path_10611" data-name="Path 10611" d="M57.251,379.318c-1.9-.436-13.238-5.223-13.238-5.223s-7.613,2.7-10.784,2.273-8.266-3.113-11.125-3.187c5.522-1.771,7.365-1.794,7.365-1.794s2.714-5.256,7.205-6.966c2.839-1.078,8.973-.169,11.011.531s8.406,2.251,9.8,6.077S57.251,379.318,57.251,379.318Z" transform="translate(-21.974 -363.924)" fill="#1e2123"/>
      <path id="Path_10612" data-name="Path 10612" d="M43.269,370.208c1.4,3.833-.232,8.295-.232,8.295-1.6-.376-10.757-4.263-13.241-5.221,2.172-2.734,4.341-6.775,3.116-9.295a5.562,5.562,0,0,1,.55.15C35.5,364.837,41.87,366.386,43.269,370.208Z" transform="translate(-8.19 -363.858)" fill="#4f2948"/>
    </g>
    <g id="Group_1494" data-name="Group 1494" transform="translate(44.506 185.516)">
      <g id="Group_1492" data-name="Group 1492" transform="translate(2.567 89.079)">
        <path id="Path_10613" data-name="Path 10613" d="M67.563,432.641c1.463,6.632,2.348,9.99-2.485,10.547-4.322.5-5.475-1.286-8.071-.346-6.658,2.4-9.288,2.041-11.427,2.041-8.506,0-8.425-4.331-2.261-5.74,6.181-1.432,10.969-6.748,10.969-6.748Z" transform="translate(-38.918 -432.396)"/>
        <path id="Path_10614" data-name="Path 10614" d="M60.957,433.342c-1.725,1.107-6.133,3.174-7.652,4.082a27.759,27.759,0,0,1-12.231,3.4c-1.527.047-2.141-.827-.547-1.38a30.061,30.061,0,0,0,6.656-2.611c3.9-1.932,5.43-4.09,6.382-4.205a14.3,14.3,0,0,1,3.523.673Z" transform="translate(-37.714 -432.158)" fill="#1e2123"/>
      </g>
      <path id="Path_10615" data-name="Path 10615" d="M38,390.524c3.35,3.7,6.988,14.039,6.988,17.727s1.711,40.172,4.221,42.025.586,32.541.586,32.541l12.247-.173s5.57-38.162,3.9-44.936,6.027-37.033-4.833-44.424S38,390.524,38,390.524Z" transform="translate(-37.999 -389.096)" fill="#1e2123"/>
      <g id="Group_1493" data-name="Group 1493" transform="translate(5.056 6.707)">
        <path id="Path_10616" data-name="Path 10616" d="M69.871,480.381l-13.836.212c-.215-.835-2.345-34-3.428-34.893-1.4-1.152-6.522-37.95-6.667-43.605s-4.883-5.754-6.131-8.169c0,0,13.721-1.777,14.193-1.549.257.132,5.075,2.9,9.584,5.727,3.995,11.387-.514,40.949,2.8,45.6C72.4,452.137,69.871,480.381,69.871,480.381Z" transform="translate(-39.81 -392.356)"/>
      </g>
    </g>
    <g id="Group_1495" data-name="Group 1495" transform="translate(100.617 271.046)">
      <path id="Path_10617" data-name="Path 10617" d="M80.027,430.671c4.553,4.221,7.722,9.369,3.434,11.486-3.853,1.9-4.746.362-6.672,2.115-4.925,4.493-8.4,4.678-10.441,5.375-8.169,2.8-10.706-1.385-5.639-4.777s5.782-9.646,5.782-9.646Z" transform="translate(-58.098 -430.671)"/>
      <path id="Path_10618" data-name="Path 10618" d="M74.819,431.972c-.972,1.631-3.956,5.069-4.86,6.433a21.364,21.364,0,0,1-9.673,7.291c-1.438.545-2.557-.09-1.357-1.154a16.235,16.235,0,0,0,5.059-5.608c1.8-3.417,1.019-4.312,1.873-4.738a35.645,35.645,0,0,1,5.237-.985Z" transform="translate(-57.521 -429.296)" fill="#1e2123"/>
    </g>
    <g id="Group_1496" data-name="Group 1496" transform="translate(50.701 178.714)">
      <path id="Path_10619" data-name="Path 10619" d="M40.218,400.786c2.192,4.16,9.858,6.554,12.049,13.251s24.274,35.747,26.773,35.747,16.3,37.178,16.3,37.178,19.754-4.991,19.788-6.293c.762-30.241-18.626-39.176-18.626-39.176a31.368,31.368,0,0,1-6.985-15.446c-1.563-9.694-6.441-16.785-6.231-19.482.667-8.064-3.928-14.841-15.974-20.644C63.663,384.157,40.218,400.786,40.218,400.786Z" transform="translate(-40.218 -385.789)"/>
    </g>
    <path id="Path_10620" data-name="Path 10620" d="M29.15,387.745c4.95-7.935,19.062-14.909,19.062-14.909a37.547,37.547,0,0,1,19.068,4.8C72.665,380.4,83.391,391.04,84.206,392c6.334,7.5,7.468,8.4,9.7,14.726.511,1.454-32.987,25.308-35.508,20.447-2.942-5.67-14.316-21.794-16.3-23.878C35.694,396.548,27.8,389.9,29.15,387.745Z" transform="translate(-9.621 -220.781)"/>
    <path id="Path_10621" data-name="Path 10621" d="M26.67,364.487c1.092,1.648,11.346,18.61,6.214,34.025C44.646,395.2,58.4,387.3,58.4,387.3s10.53-14.388-2.783-19.6C36.528,360.232,26.67,364.487,26.67,364.487Z" transform="translate(-13.791 -230.873)"/>
    <path id="Path_10622" data-name="Path 10622" d="M44.267,381.418c0,3.857.877,20.8-1.164,22.519S32.335,418.52,32.335,418.52l9.606,9.435s22.7-19.515,22.7-24.662-3.587-26.23-11.064-27.452C40.487,373.693,44.267,381.418,44.267,381.418Z" transform="translate(-3.641 -217.992)" fill="#1e2123"/>
    <path id="Path_10623" data-name="Path 10623" d="M40.394,396.024s-8.657,4.448-9.5,5.125a8.414,8.414,0,0,0-1.932,3.014,6.943,6.943,0,0,0-.352,2.314c-.087,1.027,1.267.625,1.731-.331.394-.8.807-1.749.807-1.749l.857-.667s-1.189,2.691-1.318,2.983-.237,1.934-.363,2.349c-.17.588,1.245,1.125,1.77.27a27.7,27.7,0,0,0,1.4-3.255c.268-.59.463-.685.463-.685-.709,1.656-1.508,3.672-1.329,4.261s1.577.424,2.01-.562a16.814,16.814,0,0,1,1.762-2.633l-1.605,2.613a1.092,1.092,0,0,0,.96.088,11.689,11.689,0,0,0,3.269-2.384c1.644-1.572,2.13-2.037,3.384-3.331.779-.8,3.808-1.426,3.847-1.609C46.806,399.434,43.786,395.429,40.394,396.024Z" transform="translate(-10.318 -196.318)"/>
  </g>
</svg>
